<svg width="20" height="21" viewBox="0 0 20 21" fill="none" xmlns="http://www.w3.org/2000/svg">
<path d="M15.4776 6.62671C15.4776 5.19421 14.9085 3.82038 13.8956 2.80745C12.8827 1.79452 11.5089 1.22546 10.0764 1.22546C8.64386 1.22546 7.27003 1.79452 6.2571 2.80745C5.24417 3.82038 4.67511 5.19421 4.67511 6.62671C4.67511 12.9282 1.97449 14.7286 1.97449 14.7286H18.1782C18.1782 14.7286 15.4776 12.9282 15.4776 6.62671Z" stroke="#21345F" stroke-width="2" stroke-linecap="round" stroke-linejoin="round"/>
<path d="M11.6336 18.328C11.4754 18.6008 11.2482 18.8273 10.9749 18.9847C10.7016 19.1422 10.3917 19.225 10.0763 19.225C9.76087 19.225 9.45099 19.1422 9.17767 18.9847C8.90435 18.8273 8.67719 18.6008 8.51892 18.328" stroke="#21345F" stroke-width="2" stroke-linecap="round" stroke-linejoin="round"/>
</svg>
