<svg width="32" height="33" viewBox="0 0 32 33" fill="none" xmlns="http://www.w3.org/2000/svg">
<g clip-path="url(#clip0)">
<path d="M27.3741 2.82037C27.3741 1.71587 28.2695 0.820435 29.374 0.820435C30.4785 0.820435 31.374 1.71587 31.374 2.82037V8.44519H27.3741V2.82037Z" fill="#F9AB5A"/>
<path d="M23.3741 28.9444V27.5695H4.62433V29.5694C4.62433 30.6739 5.51977 31.5693 6.62427 31.5693H24.3884" fill="#F9AB5A"/>
<path d="M20.7206 25.0266C24.3793 25.0266 27.3453 22.0606 27.3453 18.4018C27.3453 14.7431 24.3793 11.7771 20.7206 11.7771C17.0618 11.7771 14.0958 14.7431 14.0958 18.4018C14.0958 22.0606 17.0618 25.0266 20.7206 25.0266Z" fill="#FFF6DE"/>
<path d="M14.8122 6.75781H11.9421V11.5701H14.8122V6.75781Z" fill="#654EF9"/>
<path d="M4.89844 8.44519H2.02838V11.777H4.89844V8.44519Z" fill="#654EF9"/>
<path d="M27.0615 1.37046L27.0985 1.31475H27.0316H9.99502C9.66923 1.31475 9.40968 1.06975 9.40968 0.773025C9.40968 0.4763 9.66923 0.231301 9.99502 0.231301H28.7559H28.7563H28.7566H28.757H28.7573H28.7577H28.758H28.7584H28.7588H28.7592H28.7595H28.7599H28.7603H28.7607H28.7612H28.7616H28.762H28.7624H28.7629H28.7633H28.7637H28.7642H28.7647H28.7651H28.7656H28.7661H28.7665H28.767H28.7675H28.768H28.7685H28.769H28.7695H28.7701H28.7706H28.7711H28.7717H28.7722H28.7727H28.7733H28.7739H28.7744H28.775H28.7756H28.7761H28.7767H28.7773H28.7779H28.7785H28.7791H28.7797H28.7803H28.781H28.7816H28.7822H28.7829H28.7835H28.7841H28.7848H28.7854H28.7861H28.7868H28.7874H28.7881H28.7888H28.7895H28.7902H28.7909H28.7916H28.7923H28.793H28.7937H28.7944H28.7951H28.7959H28.7966H28.7973H28.7981H28.7988H28.7996H28.8003H28.8011H28.8018H28.8026H28.8034H28.8042H28.8049H28.8057H28.8065H28.8073H28.8081H28.8089H28.8097H28.8105H28.8113H28.8122H28.813H28.8138H28.8146H28.8155H28.8163H28.8172H28.818H28.8189H28.8197H28.8206H28.8214H28.8223H28.8232H28.824H28.8249H28.8258H28.8267H28.8276H28.8285H28.8294H28.8303H28.8312H28.8321H28.833H28.8339H28.8348H28.8358H28.8367H28.8376H28.8386H28.8395H28.8404H28.8414H28.8423H28.8433H28.8442H28.8452H28.8462H28.8471H28.8481H28.8491H28.85H28.851H28.852H28.853H28.854H28.855H28.8559H28.8569H28.8579H28.8589H28.8599H28.861H28.862H28.863H28.864H28.865H28.866H28.8671H28.8681H28.8691H28.8702H28.8712H28.8722H28.8733H28.8743H28.8754H28.8764H28.8775H28.8785H28.8796H28.8807H28.8817H28.8828H28.8839H28.8849H28.886H28.8871H28.8882H28.8893H28.8903H28.8914H28.8925H28.8936H28.8947H28.8958H28.8969H28.898H28.8991H28.9002H28.9013H28.9024H28.9035H28.9046H28.9058H28.9069H28.908H28.9091H28.9103H28.9114H28.9125H28.9136H28.9148H28.9159H28.917H28.9182H28.9193H28.9205H28.9216H28.9227H28.9239H28.925H28.9262H28.9273H28.9285H28.9296H28.9308H28.932H28.9331H28.9343H28.9354H28.9366H28.9378H28.9389H28.9401H28.9413H28.9425H28.9436H28.9448H28.946H28.9472H28.9483H28.9495H28.9507H28.9519H28.9531H28.9543H28.9554H28.9566H28.9578H28.959H28.9602H28.9614H28.9626H28.9638H28.965H28.9662H28.9674H28.9686H28.9698H28.971H28.9722H28.9734H28.9746H28.9758H28.977H28.9782H28.9794H28.9806H28.9818H28.983H28.9842H28.9854H28.9866H28.9878H28.989H28.9902H28.9915H28.9927H28.9939H28.9951H28.9963H28.9975H28.9987H28.9999H29.0012H29.0024H29.0036H29.0048H29.006H29.0072H29.0085H29.0097H29.0109H29.0121H29.0133H29.0145H29.0158H29.017H29.0182H29.0194H29.0206H29.0218H29.0231H29.0243H29.0255H29.0267H29.0279H29.0291H29.0304H29.0316H29.0328H29.034H29.0352H29.0364H29.0377H29.0389H29.0401H29.0413H29.0425H29.0437H29.0449H29.0461H29.0474H29.0486H29.0498H29.051H29.0522H29.0534H29.0546H29.0558H29.057H29.0582H29.0594H29.0607H29.0619H29.0631H29.0643H29.0655H29.0667H29.0679H29.0691H29.0703H29.0715H29.0727H29.0739H29.0751H29.0762H29.0774H29.0786H29.0798H29.081H29.0822H29.0834H29.0846H29.0858H29.0869H29.0881H29.0893H29.0905H29.0917H29.0928H29.094H29.0952H29.0964H29.0975H29.0987H29.0999H29.1011H29.1022H29.1034H29.1045H29.1057H29.1069H29.108H29.1092H29.1103H29.1115H29.1126H29.1138H29.1149H29.1161H29.1172H29.1184H29.1195H29.1207H29.1218H29.1229H29.1241H29.1252H29.1263H29.1275H29.1286H29.1297H29.1308H29.132H29.1331H29.1342H29.1353H29.1364H29.1375H29.1386H29.1398H29.1409H29.142H29.1431H29.1442H29.1452H29.1463H29.1474H29.1485H29.1496H29.1507H29.1518H29.1528H29.1539H29.155H29.1561H29.1571H29.1582H29.1593H29.1603H29.1614H29.1624H29.1635H29.1645H29.1656H29.1666H29.1677H29.1687H29.1697H29.1708H29.1718H29.1728H29.1739H29.1749H29.1759H29.1769H29.1779H29.1789H29.1799H29.181H29.182H29.1829H29.1839H29.1849H29.1859H29.1869H29.1879H29.1889H29.1898H29.1908H29.1918H29.1928H29.1937H29.1947H29.1956H29.1966H29.1975H29.1985H29.1994H29.2004H29.2013H29.2022H29.2032H29.2041H29.205H29.2059H29.2068H29.2077H29.2086H29.2095H29.2104H29.2113H29.2122H29.2131H29.214H29.2149H29.2158H29.2166H29.2175H29.2184H29.2192H29.2201H29.2209H29.2218H29.2226H29.2235H29.2243H29.2251H29.226H29.2268H29.2276H29.2284H29.2292H29.2301H29.2309H29.2317H29.2325H29.2332H29.234H29.2348H29.2356H29.2364H29.2371H29.2379H29.2387H29.2394H29.2402H29.2409H29.2417H29.2424H29.2431H29.2439H29.2446H29.2453H29.246H29.2467H29.2474H29.2481H29.2488H29.2495H29.2502H29.2509H29.2516H29.2522H29.2529C30.6743 0.231301 31.8261 1.3059 31.8261 2.62126V7.8194C31.8261 8.11613 31.5665 8.36113 31.2407 8.36113H27.8863H27.8504V8.39699V10.1867C27.8504 10.4834 27.5909 10.7284 27.2651 10.7284C26.9393 10.7284 26.6797 10.4834 26.6797 10.1867V2.62126C26.6797 2.16312 26.8196 1.73475 27.0615 1.37046ZM30.6195 7.27768H30.6554V7.24181V2.62126C30.6554 1.89836 30.0237 1.31475 29.2528 1.31475C28.482 1.31475 27.8504 1.89836 27.8504 2.62126V7.24181V7.27768H27.8862H30.6195Z" fill="#21345F" stroke="white" stroke-width="0.0717323"/>
<path d="M27.2023 21.5669L27.191 21.5899L27.2091 21.6081L31.2916 25.6906C32.1928 26.5917 32.1878 28.0636 31.2799 28.9717C30.8422 29.4093 30.26 29.652 29.6399 29.655L29.6339 29.655L29.6283 29.655C29.022 29.655 28.4546 29.4253 28.0241 29.0074L27.9633 28.9483V29.0331V29.5697C27.9633 30.9973 26.8018 32.1589 25.3741 32.1589H6.62425C5.19662 32.1589 4.03518 30.9973 4.03518 29.5698V27.5698C4.03518 27.2445 4.29893 26.9807 4.62431 26.9807H7.37381H7.40968V26.9448V22.4408V22.3543L7.34845 22.4155L2.58139 27.1825C2.46638 27.2975 2.31562 27.3551 2.16481 27.3551C2.01401 27.3551 1.86331 27.2976 1.74824 27.1825C1.51817 26.9524 1.51818 26.5794 1.74823 26.3493L7.39917 20.6983L7.40968 20.6878V20.673V13.716C7.40968 13.3906 7.67343 13.1268 7.99881 13.1268C8.32419 13.1268 8.58794 13.3906 8.58794 13.716V19.423V19.5096L8.64917 19.4483L9.35261 18.7449C9.46307 18.6344 9.61295 18.5723 9.76919 18.5723C9.92542 18.5723 10.0753 18.6344 10.1858 18.7449L13.1947 21.7539L13.2201 21.7793L13.2454 21.7539L13.977 21.0223L13.9935 21.0058L13.9851 20.9841C13.6766 20.182 13.507 19.3116 13.507 18.4021C13.507 14.4243 16.7432 11.1882 20.7209 11.1882C24.6986 11.1882 27.9348 14.4243 27.9348 18.4021C27.9348 19.5368 27.6711 20.6109 27.2023 21.5669ZM15.4246 21.241L15.4057 21.26L15.4185 21.2835C16.4428 23.161 18.4354 24.4378 20.7208 24.4378C24.0489 24.4378 26.7565 21.7302 26.7565 18.4021C26.7565 15.074 24.0489 12.3664 20.7208 12.3664C17.3927 12.3664 14.6851 15.074 14.6851 18.4021C14.6851 18.9616 14.762 19.5037 14.9053 20.0184L14.9218 20.0776L14.9652 20.0341L18.2761 16.7233L18.3373 16.662H18.2507H16.6873C16.3619 16.662 16.0982 16.3982 16.0982 16.0729C16.0982 15.7476 16.3619 15.4838 16.6873 15.4838H19.6869C20.0123 15.4838 20.276 15.7476 20.276 16.0729V19.0724C20.276 19.3977 20.0123 19.6615 19.6869 19.6615C19.3615 19.6615 19.0977 19.3977 19.0977 19.0724V17.6545V17.5679L19.0365 17.6291L15.4246 21.241ZM5.24925 28.1587H5.21338V28.1946V29.5695C5.21338 30.3475 5.84625 30.9803 6.62424 30.9805H23.1392H23.2036L23.1698 30.9257C22.926 30.531 22.7849 30.0666 22.7849 29.5695V29.0657C22.7849 29.0466 22.786 29.0276 22.7878 29.0086L22.7885 29.0087L22.7878 29.0017C22.786 28.9827 22.7849 28.9637 22.7849 28.9446V28.1946V28.1587H22.7491H5.24925ZM23.9603 29.0016L23.9596 29.0015L23.9603 29.0085C23.9621 29.0274 23.9632 29.0465 23.9632 29.0656V29.5694C23.9632 30.3474 24.5961 30.9803 25.3741 30.9803C26.1521 30.9803 26.785 30.3474 26.785 29.5692V27.784V27.7691L26.7745 27.7586L23.913 24.8972L23.8949 24.8791L23.8719 24.8903C22.9194 25.3548 21.85 25.6159 20.7208 25.6159C18.1197 25.6159 15.8358 24.232 14.5664 22.1617L14.5426 22.1229L14.5105 22.155L13.6366 23.0289C13.5261 23.1394 13.3762 23.2015 13.22 23.2015C13.0638 23.2015 12.9139 23.1394 12.8034 23.0289L9.79448 20.0199L9.76912 19.9946L9.74376 20.0199L8.59845 21.1652L8.58794 21.1757V21.1906V26.9445V26.9804H8.62381H23.3741C23.6994 26.9804 23.9632 27.2442 23.9632 27.5695V28.9445C23.9632 28.9636 23.9621 28.9826 23.9603 29.0016ZM24.969 24.2285L24.9352 24.2532L24.9648 24.2828L28.8321 28.15C29.0428 28.3608 29.3256 28.4765 29.6284 28.4765L29.6341 28.4765C29.9414 28.475 30.2302 28.3549 30.4467 28.1383C30.8948 27.6903 30.9008 26.966 30.4585 26.5236L30.4331 26.549L30.4585 26.5236L26.5929 22.658L26.5633 22.6284L26.5386 22.6621C26.0988 23.2611 25.5689 23.7899 24.969 24.2285Z" fill="#21345F" stroke="white" stroke-width="0.0717323"/>
<path d="M20.0958 22.3591C20.0958 22.7042 20.3756 22.9841 20.7208 22.9841C23.2474 22.9841 25.3029 20.9286 25.3029 18.4021C25.3029 18.057 25.0231 17.7771 24.6779 17.7771C24.3327 17.7771 24.0529 18.057 24.0529 18.4021C24.0529 20.2393 22.5581 21.7341 20.7208 21.7341C20.3756 21.7342 20.0958 22.014 20.0958 22.3591Z" fill="#21345F"/>
<path d="M15.4011 10.9451V10.9809H15.437H16.0074C16.3328 10.9809 16.5966 11.2447 16.5966 11.5701C16.5966 11.8954 16.3328 12.1592 16.0074 12.1592H0.625C0.299623 12.1592 0.0358661 11.8954 0.0358661 11.5701C0.0358661 11.2447 0.299623 10.9809 0.625 10.9809H1.31244H1.3483V10.9451V8.19513C1.3483 7.86981 1.61206 7.60599 1.93744 7.60599H4.68731C5.01269 7.60599 5.27645 7.86981 5.27645 8.19513V10.9451V10.9809H5.31231H6.31225H6.34812V10.9451V4.19531C6.34812 3.86999 6.61187 3.60618 6.93725 3.60618H9.68719C10.0126 3.60618 10.2763 3.86999 10.2763 4.19531V10.9451V10.9809H10.3122H11.3169H11.3528V10.9451V6.75769C11.3528 6.43237 11.6166 6.16855 11.9419 6.16855H14.812C15.1374 6.16855 15.4011 6.43237 15.4011 6.75769V10.9451ZM12.5669 7.34682H12.531V7.38269V10.9451V10.9809H12.5669H14.187H14.2229V10.9451V7.38269V7.34682H14.187H12.5669ZM7.56225 4.78445H7.52638V4.82031V10.9451V10.981H7.56225H9.06219H9.09805V10.9451V4.82031V4.78445H9.06219H7.56225ZM2.56244 8.78432H2.52657V8.82019V10.9451V10.981H2.56244H4.06238H4.09824V10.9451V8.82019V8.78432H4.06238H2.56244Z" fill="#21345F" stroke="white" stroke-width="0.0717323"/>
<path d="M21.7156 4.07566C21.7156 3.79661 21.4358 3.57031 21.0906 3.57031H16.2495C15.9043 3.57031 15.6245 3.79661 15.6245 4.07566C15.6245 4.35472 15.9043 4.58102 16.2495 4.58102H21.0906C21.4359 4.58102 21.7156 4.35472 21.7156 4.07566Z" fill="#21345F"/>
<path d="M24.6242 3.75344C24.5079 3.63719 24.3467 3.57031 24.1823 3.57031C24.0179 3.57031 23.8567 3.63713 23.7404 3.75344C23.6242 3.86975 23.5573 4.03094 23.5573 4.19531C23.5573 4.35969 23.6242 4.52094 23.7404 4.63713C23.8567 4.75338 24.0179 4.82031 24.1823 4.82031C24.3467 4.82031 24.5079 4.75344 24.6242 4.63713C24.7404 4.52094 24.8073 4.35969 24.8073 4.19531C24.8073 4.031 24.7404 3.86975 24.6242 3.75344Z" fill="#21345F"/>
<path d="M17.6453 6.32031C17.3001 6.32031 17.0203 6.54661 17.0203 6.82566C17.0203 7.10472 17.3001 7.33102 17.6453 7.33102H18.6701C19.0153 7.33102 19.2951 7.10472 19.2951 6.82566C19.2951 6.54661 19.0153 6.32031 18.6701 6.32031H17.6453Z" fill="#21345F"/>
<path d="M21.0907 7.33089H24.1822C24.5274 7.33089 24.8072 7.1046 24.8072 6.82554C24.8072 6.54649 24.5274 6.32019 24.1822 6.32019H21.0907C20.7455 6.32019 20.4657 6.54649 20.4657 6.82554C20.4657 7.1046 20.7455 7.33089 21.0907 7.33089Z" fill="#21345F"/>
<path d="M0.625641 27.6802C0.460641 27.6802 0.300016 27.7471 0.183766 27.8634C0.0668909 27.9796 0.000640869 28.1408 0.000640869 28.3052C0.000640869 28.4695 0.0668909 28.6308 0.183766 28.747C0.300016 28.8633 0.460641 28.9302 0.625641 28.9302C0.790016 28.9302 0.950641 28.8634 1.06752 28.747C1.18377 28.6308 1.25064 28.4695 1.25064 28.3052C1.25064 28.1408 1.18377 27.9796 1.06752 27.8634C0.951203 27.7471 0.790016 27.6802 0.625641 27.6802Z" fill="#21345F"/>
</g>
<defs>
<clipPath id="clip0">
<rect width="32" height="32" fill="white" transform="translate(0 0.194946)"/>
</clipPath>
</defs>
</svg>
