<svg width="96" height="97" viewBox="0 0 96 97" fill="none" xmlns="http://www.w3.org/2000/svg">
<circle cx="48" cy="33.1567" r="19" stroke="#F17336" stroke-width="2"/>
<g opacity="0.9" filter="url(#filter0_d)">
<circle cx="48" cy="33.1567" r="18" fill="#FEFEFE"/>
</g>
<g clip-path="url(#clip0)">
<path d="M47.1667 26.49H41.3333C40.8913 26.49 40.4674 26.6656 40.1548 26.9781C39.8423 27.2907 39.6667 27.7146 39.6667 28.1567V39.8233C39.6667 40.2654 39.8423 40.6893 40.1548 41.0018C40.4674 41.3144 40.8913 41.49 41.3333 41.49H53C53.442 41.49 53.8659 41.3144 54.1785 41.0018C54.4911 40.6893 54.6667 40.2654 54.6667 39.8233V33.99" stroke="#21345F" stroke-width="1.5" stroke-linecap="round" stroke-linejoin="round"/>
<path d="M53.4167 25.2402C53.7482 24.9087 54.1978 24.7224 54.6667 24.7224C55.1355 24.7224 55.5851 24.9087 55.9167 25.2402C56.2482 25.5717 56.4344 26.0213 56.4344 26.4902C56.4344 26.959 56.2482 27.4087 55.9167 27.7402L48 35.6568L44.6667 36.4902L45.5 33.1568L53.4167 25.2402Z" stroke="#21345F" stroke-width="1.5" stroke-linecap="round" stroke-linejoin="round"/>
</g>
<defs>
<filter id="filter0_d" x="0" y="0.156738" width="96" height="96" filterUnits="userSpaceOnUse" color-interpolation-filters="sRGB">
<feFlood flood-opacity="0" result="BackgroundImageFix"/>
<feColorMatrix in="SourceAlpha" type="matrix" values="0 0 0 0 0 0 0 0 0 0 0 0 0 0 0 0 0 0 127 0"/>
<feOffset dy="15"/>
<feGaussianBlur stdDeviation="15"/>
<feColorMatrix type="matrix" values="0 0 0 0 0 0 0 0 0 0 0 0 0 0 0 0 0 0 0.15 0"/>
<feBlend mode="normal" in2="BackgroundImageFix" result="effect1_dropShadow"/>
<feBlend mode="normal" in="SourceGraphic" in2="effect1_dropShadow" result="shape"/>
</filter>
<clipPath id="clip0">
<rect width="20" height="20" fill="white" transform="translate(38 23.1567)"/>
</clipPath>
</defs>
</svg>
