<svg width="16" height="19" viewBox="0 0 16 19" fill="none" xmlns="http://www.w3.org/2000/svg">
<path d="M11.28 3.29303H12.8799C13.3043 3.29303 13.7112 3.46159 14.0113 3.76164C14.3113 4.06168 14.4799 4.46863 14.4799 4.89296V16.0925C14.4799 16.5168 14.3113 16.9238 14.0113 17.2238C13.7112 17.5238 13.3043 17.6924 12.8799 17.6924H3.28035C2.85602 17.6924 2.44907 17.5238 2.14903 17.2238C1.84898 16.9238 1.68042 16.5168 1.68042 16.0925V4.89296C1.68042 4.46863 1.84898 4.06168 2.14903 3.76164C2.44907 3.46159 2.85602 3.29303 3.28035 3.29303H4.88028" stroke="#F17336" stroke-width="1.5" stroke-linecap="round" stroke-linejoin="round"/>
<path d="M10.48 1.69196H5.68021C5.23841 1.69196 4.88025 2.05011 4.88025 2.49192V4.09185C4.88025 4.53366 5.23841 4.89182 5.68021 4.89182H10.48C10.9218 4.89182 11.28 4.53366 11.28 4.09185V2.49192C11.28 2.05011 10.9218 1.69196 10.48 1.69196Z" stroke="#F17336" stroke-width="1.5" stroke-linecap="round" stroke-linejoin="round"/>
<path d="M10.2275 11.2919H4.08044" stroke="#F17336" stroke-width="1.5" stroke-linecap="round" stroke-linejoin="round"/>
<path d="M11.9838 8.0907H4.08044" stroke="#F17336" stroke-width="1.5" stroke-linecap="round" stroke-linejoin="round"/>
<path d="M11.9838 14.4913H4.08044" stroke="#F17336" stroke-width="1.5" stroke-linecap="round" stroke-linejoin="round"/>
</svg>
