<?xml version="1.0" standalone="no"?>
<!DOCTYPE svg PUBLIC "-//W3C//DTD SVG 1.0//EN" "http://www.w3.org/TR/2001/REC-SVG-20010904/DTD/svg10.dtd">
<svg xmlns="http://www.w3.org/2000/svg" xmlns:xlink="http://www.w3.org/1999/xlink" id="body_1" width="300" height="248">

<defs>
            <clipPath  id="1">

                <path clip-rule="evenodd" d="M0 0L330 0L330 273L0 273z" />            </clipPath>
                <clipPath  id="2">

                    <path clip-rule="evenodd" d="M250 0L329.44922 0L329.44922 273L250 273L250 0z" />                </clipPath>
            <clipPath  id="3">

                <path clip-rule="evenodd" d="M0 0L330 0L330 273L0 273z" />            </clipPath>
                <clipPath  id="4">

                    <path clip-rule="evenodd" d="M0.550781 0L201 0L201 273L0.550781 273L0.550781 0z" />                </clipPath>
</defs>

<g transform="matrix(0.908425 0 0 0.908425 0.109893695 -0)">
	<g>
		<g clip-path="url(#1)" >
			<g clip-path="url(#2)" >
                <path d="M417.27344 264.09766C 396.64062 272.625 374.3828 274.5 352.89844 269.51953C 317.07422 261.22266 267.45703 243.8125 269.17578 211.19531C 271.85938 160.34766 276.4414 156.71094 253.59375 101.21875C 230.75 45.722656 322.52734 -35.070312 379.14062 16.507812C 435.75 68.08203 457.9961 24.882812 496.89062 53.76172C 511.48047 64.59375 519.08984 85.96875 521.1328 110.9375C 526.28125 173.79297 493.48047 232.58594 441.92188 253.90234L441.92188 253.90234L417.27344 264.09766z" stroke="none" fill="#FFF2D1" fill-rule="nonzero" />
			</g>
		</g>
		<g clip-path="url(#3)" >
			<g clip-path="url(#4)" >
                <path d="M145.3789 258.9414C 104.34766 277.39453 57.26172 276.4453 16.757812 256.85156C -3.230469 247.1836 -27.339844 236.55469 -47.54297 230.625C -90.89453 217.90625 -142.24219 134.10938 -77.38672 105.80469C -12.53125 77.50391 -41.23047 39.539062 19.351562 8.335938C 79.93359 -22.863281 70.92969 43.351562 138.03516 46.109375C 205.14453 48.867188 217.20312 193.4336 180.21094 234.78516C 170.96484 245.1211 158.64844 252.98047 145.3789 258.9414z" stroke="none" fill="#FFF2D1" fill-rule="nonzero" />
			</g>
		</g>
        <path d="M31.5 215.64453L20.066406 215.64453L20.066406 227.11328L31.5 227.11328L31.5 215.64453z" stroke="none" fill="#EDEDED" fill-rule="nonzero" />
        <path d="M33.94922 212.77734L22.515625 212.77734L22.515625 224.2461L33.94922 224.2461L33.94922 212.77734z" stroke="none" fill="#F17336" fill-rule="nonzero" fill-opacity="0.6" />
        <path d="M44.98047 220.15234L26.195312 220.15234L26.195312 201.3086L44.98047 201.3086L44.98047 220.15234zM27.011719 219.33203L44.164062 219.33203L44.164062 202.13281L27.011719 202.13281z" stroke="none" fill="#222B45" fill-rule="nonzero" />
        <path transform="matrix(0.913612 0 0 0.916108 0.55 0)"  d="M107.15628 221.66643L242.46661 221.66643L242.46661 31.399832L107.15628 31.399832L107.15628 221.66643z" stroke="#0B065A" stroke-width="0.783786" stroke-linecap="square" fill="#FEFEFE" fill-rule="nonzero" />
        <path transform="matrix(0.913612 0 0 0.916108 0.55 0)"  d="M123.7029 203.40387L139.14642 215.98257L245.89139 215.98257L245.89139 29.370184L110.57677 29.370184L110.57677 192.76529L123.7029 203.40387z" stroke="#000000" stroke-width="0.494289" stroke-linecap="square" fill="none" />
        <path transform="matrix(0.913612 0 0 0.916108 0.55 0)"  d="M123.7029 203.40387C 123.7029 203.40387 123.42926 203.16936 122.873436 202.72163L122.873436 202.72163L120.4064 200.69626L110.61525 192.72264L110.632355 192.76529C 110.64518 165.9279 110.68366 106.287834 110.73069 29.370184L110.73069 29.370184L110.58105 29.519423L244.71132 29.532215L245.89139 29.532215L245.72891 29.370184C 245.73746 99.52092 245.75029 164.24362 245.75883 215.98257L245.75883 215.98257L245.89139 215.85039L139.14642 215.92287L139.18062 215.93993L127.58516 206.53363L124.67774 204.17992C 124.03213 203.65971 123.7029 203.40387 123.7029 203.40387C 123.7029 203.40387 124.019295 203.67677 124.656364 204.2055L124.656364 204.2055L127.54668 206.57626L139.11221 216.02946L139.12505 216.038L139.14642 216.038L245.89139 216.11475L246.02393 216.11475L246.02393 215.98257C 246.03247 164.24362 246.04103 99.52092 246.05814 29.370184L246.05814 29.370184L246.05814 29.199625L244.71132 29.199625L110.57677 29.220945L110.427124 29.220945L110.427124 29.370184C 110.47415 106.287834 110.512634 165.9279 110.52546 192.76529L110.52546 192.76529L110.52546 192.79514L110.542564 192.80792L120.36793 200.73889L122.8606 202.7387C 123.416435 203.18642 123.7029 203.40387 123.7029 203.40387z" stroke="#0B065A" stroke-width="0.494289" stroke-linecap="square" fill="#0B065A" fill-rule="nonzero" />
        <path d="M136.96875 103.03906L116.140625 103.03906L116.140625 82.15234L136.96875 82.15234L136.96875 103.03906zM116.71875 102.44922L136.38672 102.44922L136.38672 82.734375L116.71875 82.734375z" stroke="none" fill="#000000" fill-rule="nonzero" />
        <path d="M210.5625 87.19531C 210.5625 87.27734 201.0664 87.34766 189.35938 87.34766C 177.64453 87.34766 168.14844 87.27734 168.14844 87.19531C 168.14844 87.109375 177.64062 87.04297 189.35938 87.04297C 201.07422 87.04297 210.5625 87.109375 210.5625 87.19531z" stroke="none" fill="#1A2E35" fill-rule="nonzero" />
        <path d="M210.5625 91.53516C 210.5625 91.61719 201.0664 91.68359 189.35938 91.68359C 177.64453 91.68359 168.14844 91.61719 168.14844 91.53516C 168.14844 91.44922 177.64062 91.38281 189.35938 91.38281C 201.07422 91.38281 210.5625 91.44922 210.5625 91.53516z" stroke="none" fill="#1A2E35" fill-rule="nonzero" />
        <path d="M210.5625 95.875C 210.5625 95.96094 201.0664 96.02734 189.35938 96.02734C 177.64453 96.02734 168.14844 95.96094 168.14844 95.875C 168.14844 95.79297 177.64062 95.72266 189.35938 95.72266C 201.07422 95.72266 210.5625 95.79297 210.5625 95.875z" stroke="none" fill="#1A2E35" fill-rule="nonzero" />
        <path d="M210.5625 100.21094C 210.5625 100.296875 201.0664 100.36719 189.35938 100.36719C 177.64453 100.36719 168.14844 100.296875 168.14844 100.21094C 168.14844 100.12891 177.64062 100.0625 189.35938 100.0625C 201.07422 100.0625 210.5625 100.12891 210.5625 100.21094z" stroke="none" fill="#1A2E35" fill-rule="nonzero" />
        <path d="M136.96875 134.1836L116.140625 134.1836L116.140625 113.296875L136.96875 113.296875L136.96875 134.1836zM116.71875 133.59766L136.38672 133.59766L136.38672 113.88672L116.71875 113.88672z" stroke="none" fill="#000000" fill-rule="nonzero" />
        <path d="M210.5625 118.33984C 210.5625 118.421875 201.0664 118.49219 189.35938 118.49219C 177.64453 118.49219 168.14844 118.421875 168.14844 118.33984C 168.14844 118.25391 177.64062 118.1875 189.35938 118.1875C 201.07422 118.1875 210.5625 118.25391 210.5625 118.33984z" stroke="none" fill="#1A2E35" fill-rule="nonzero" />
        <path d="M210.5625 122.67969C 210.5625 122.765625 201.0664 122.83203 189.35938 122.83203C 177.64453 122.83203 168.14844 122.765625 168.14844 122.67969C 168.14844 122.59766 177.64062 122.52734 189.35938 122.52734C 201.07422 122.52734 210.5625 122.60156 210.5625 122.67969z" stroke="none" fill="#1A2E35" fill-rule="nonzero" />
        <path d="M210.5625 127.01953C 210.5625 127.10156 201.0664 127.16797 189.35938 127.16797C 177.64453 127.16797 168.14844 127.10156 168.14844 127.01953C 168.14844 126.93359 177.64062 126.86328 189.35938 126.86328C 201.07422 126.86328 210.5625 126.9375 210.5625 127.01953z" stroke="none" fill="#1A2E35" fill-rule="nonzero" />
        <path d="M210.5625 131.35547C 210.5625 131.4414 201.0664 131.51172 189.35938 131.51172C 177.64453 131.51172 168.14844 131.4414 168.14844 131.35547C 168.14844 131.27734 177.64062 131.20703 189.35938 131.20703C 201.07422 131.20703 210.5625 131.27734 210.5625 131.35547z" stroke="none" fill="#1A2E35" fill-rule="nonzero" />
        <path d="M136.96875 164.2539L116.140625 164.2539L116.140625 143.36719L136.96875 143.36719L136.96875 164.2539zM116.71875 163.67188L136.38672 163.67188L136.38672 143.95312L116.71875 143.95312z" stroke="none" fill="#000000" fill-rule="nonzero" />
        <path d="M120.28125 154.24219L123.046875 151.26172L127.65625 154.96094L138.19922 144.6914L140.72656 147.67578L127.44922 160.8125L120.28125 154.24219z" stroke="none" fill="#F17336" fill-rule="nonzero" />
        <path d="M210.5625 148.41016C 210.5625 148.4961 201.0664 148.5625 189.35938 148.5625C 177.64453 148.5625 168.14844 148.4961 168.14844 148.41016C 168.14844 148.32812 177.64062 148.26172 189.35938 148.26172C 201.07422 148.26172 210.5625 148.32812 210.5625 148.41016z" stroke="none" fill="#1A2E35" fill-rule="nonzero" />
        <path d="M210.5625 152.75C 210.5625 152.83594 201.0664 152.90625 189.35938 152.90625C 177.64453 152.90625 168.14844 152.83594 168.14844 152.75C 168.14844 152.66797 177.64062 152.59766 189.35938 152.59766C 201.07422 152.59766 210.5625 152.66797 210.5625 152.75z" stroke="none" fill="#1A2E35" fill-rule="nonzero" />
        <path d="M210.5625 157.09375C 210.5625 157.17578 201.0664 157.24219 189.35938 157.24219C 177.64453 157.24219 168.14844 157.17578 168.14844 157.09375C 168.14844 157.00781 177.64062 156.9414 189.35938 156.9414C 201.07422 156.9414 210.5625 157.00781 210.5625 157.09375z" stroke="none" fill="#1A2E35" fill-rule="nonzero" />
        <path d="M210.5625 161.42969C 210.5625 161.51172 201.0664 161.58203 189.35938 161.58203C 177.64453 161.58203 168.14844 161.51172 168.14844 161.42969C 168.14844 161.34375 177.64062 161.27734 189.35938 161.27734C 201.07422 161.27734 210.5625 161.34375 210.5625 161.42969z" stroke="none" fill="#1A2E35" fill-rule="nonzero" />
        <path d="M127.67578 197.86328L120.19922 191.69531L101.671875 176.47656L101.62109 176.73438L110.203125 174.08594L123.84375 169.85547L123.66016 169.73828C 124.82422 177.91406 125.81641 184.91797 126.52734 189.89844C 127.22656 194.73438 127.58594 197.23438 127.67578 197.86719C 127.67578 197.82422 127.671875 197.78516 127.66406 197.74219C 127.65234 197.64062 127.63672 197.51172 127.61719 197.35547C 127.57031 196.98828 127.50391 196.47656 127.41797 195.82031C 127.234375 194.45312 126.97656 192.48438 126.65625 190.01953C 125.984375 185 125.04297 177.9375 123.94141 169.69922L123.94141 169.69922L123.921875 169.53125L123.76172 169.58594L110.11328 173.79688L101.53125 176.45703L101.26953 176.53906L101.484375 176.71484L120.24219 191.88281L125.71875 196.29688L127.18359 197.47266L127.55859 197.76953C 127.59766 197.80078 127.63281 197.83594 127.67578 197.86328z" stroke="none" fill="#0B065A" fill-rule="nonzero" />
        <path d="M136.96875 70.84766L116.140625 70.84766L116.140625 49.964844L136.96875 49.964844L136.96875 70.84766zM116.71875 70.265625L136.38672 70.265625L136.38672 50.546875L116.71875 50.546875z" stroke="none" fill="#000000" fill-rule="nonzero" />
        <path d="M210.5625 55.01172C 210.5625 55.09375 201.0664 55.160156 189.35938 55.160156C 177.64453 55.160156 168.14844 55.09375 168.14844 55.01172C 168.14844 54.92578 177.64062 54.85547 189.35938 54.85547C 201.07422 54.85547 210.5625 54.92578 210.5625 55.01172z" stroke="none" fill="#1A2E35" fill-rule="nonzero" />
        <path d="M210.5625 59.347656C 210.5625 59.429688 201.0664 59.5 189.35938 59.5C 177.64453 59.5 168.14844 59.429688 168.14844 59.347656C 168.14844 59.26172 177.64062 59.19922 189.35938 59.19922C 201.07422 59.19922 210.5625 59.26172 210.5625 59.347656z" stroke="none" fill="#1A2E35" fill-rule="nonzero" />
        <path d="M210.5625 63.6875C 210.5625 63.76953 201.0664 63.839844 189.35938 63.839844C 177.64453 63.839844 168.14844 63.76953 168.14844 63.6875C 168.14844 63.60547 177.64062 63.539062 189.35938 63.539062C 201.07422 63.539062 210.5625 63.60547 210.5625 63.6875z" stroke="none" fill="#1A2E35" fill-rule="nonzero" />
        <path d="M210.5625 68.02734C 210.5625 68.11328 201.0664 68.17969 189.35938 68.17969C 177.64453 68.17969 168.14844 68.11328 168.14844 68.02734C 168.14844 67.94531 177.64062 67.875 189.35938 67.875C 201.07422 67.875 210.5625 67.94531 210.5625 68.02734z" stroke="none" fill="#1A2E35" fill-rule="nonzero" />
        <path transform="matrix(0.913612 0 0 0.916108 0.55 0)"  d="M164.10318 70.176315L162.10646 76.23115L159.53682 76.23115L166.07423 56.99214L169.07144 56.99214L175.6345 76.23115L172.98363 76.23115L170.92705 70.176315L164.10318 70.176315zM170.4097 68.23195L168.52843 62.70159C 168.10088 61.44372 167.8144 60.30098 167.52794 59.18382L167.52794 59.18382L167.47235 59.18382C 167.18588 60.330826 166.87376 61.499153 166.50179 62.66748L166.50179 62.66748L164.61624 68.23195z" stroke="#FFF7E3" stroke-width="1" fill="#0B065A" fill-rule="nonzero" />
        <path transform="matrix(0.913612 0 0 0.916108 0.55 0)"  d="M160.99052 91.52172C 162.07654 91.291466 163.78677 91.12091 165.52695 91.12091C 168.01108 91.12091 169.60588 91.54731 170.81161 92.51949C 171.8121 93.26142 172.41069 94.3999 172.41069 95.913605C 172.41069 97.76843 171.1836 99.39726 169.15268 100.143456L169.15268 100.143456L169.15268 100.19889C 170.98264 100.655136 173.12471 102.16457 173.12471 105.0129C 173.13327 105.73778 172.99644 106.44986 172.71426 107.11078C 172.43634 107.78022 172.01733 108.377174 171.49571 108.86753C 170.15744 110.099815 167.9897 110.66692 164.84714 110.66692C 163.5559 110.67545 162.26894 110.5987 160.99052 110.44093L160.99052 110.44093L160.99052 91.52172zM163.47893 99.39726L165.73218 99.39726C 168.35313 99.39726 169.89662 98.02427 169.89662 96.16944C 169.89662 93.91381 168.18639 93.031166 165.67232 93.031166C 164.53073 93.031166 163.87228 93.11645 163.47893 93.205986zM163.47893 108.62022C 163.96208 108.7055 164.67183 108.73108 165.56116 108.73108C 168.1308 108.73108 170.50377 107.78875 170.50377 104.991585C 170.50377 102.36498 168.24625 101.28194 165.53123 101.28194L165.53123 101.28194L163.48322 101.28194z" stroke="#FFF7E3" stroke-width="1" fill="#0B065A" fill-rule="nonzero" />
        <path transform="matrix(0.913612 0 0 0.916108 0.55 0)"  d="M174.43733 144.14757C 173.52235 144.6038 171.69238 145.0899 169.3579 145.0899C 163.93214 145.0899 159.84894 141.6361 159.84894 135.32542C 159.84894 129.3047 163.92787 125.21983 169.89662 125.21983C 172.29524 125.21983 173.80453 125.73577 174.46725 126.081154L174.46725 126.081154L173.86867 128.10226C 172.93231 127.64603 171.5855 127.30491 169.98642 127.30491C 165.47565 127.30491 162.48271 130.18735 162.48271 135.24442C 162.48271 139.95183 165.18918 142.97925 169.87524 142.97925C 171.38882 142.97925 172.93231 142.66371 173.92853 142.17336L173.92853 142.17336L174.43733 144.14757z" stroke="#FFF7E3" stroke-width="1" fill="#0B065A" fill-rule="nonzero" />
        <path transform="matrix(0.913612 0 0 0.916108 0.55 0)"  d="M160.99052 160.06494C 162.73926 159.80058 164.50508 159.6684 166.2709 159.66414C 169.84105 159.66414 172.38077 160.4956 174.06535 162.06474C 175.7756 163.63388 176.78464 165.85966 176.78464 168.97237C 176.78464 172.11064 175.81407 174.68181 174.01404 176.45135C 172.21829 178.24649 169.24673 179.21867 165.50986 179.21867C 164.00056 179.2272 162.49554 179.15471 160.99908 178.98842L160.99908 178.98842L160.99052 160.06494zM163.47893 177.07816C 164.10318 177.18903 165.01389 177.21887 165.98872 177.21887C 171.29903 177.21887 174.1808 174.25542 174.1808 169.05765C 174.20645 164.51653 171.63681 161.63408 166.38635 161.63408C 165.41151 161.62129 164.43239 161.70657 163.47893 161.89418z" stroke="#FFF7E3" stroke-width="1" fill="#0B065A" fill-rule="nonzero" />
        <path transform="matrix(0.913612 0 0 0.916108 0.55 0)"  d="M277.0264 246.00087C 277.0264 246.00087 320.91556 243.0161 328.3808 258.09348C 335.846 273.17087 277.92 279.28964 260.30875 275.70792C 242.68895 272.12192 214.17915 263.54282 214.17915 263.54282L214.17915 263.54282L277.0264 246.00087z" stroke="#000000" stroke-width="0.494289" stroke-linecap="square" fill="#F17336" fill-rule="nonzero" />
        <path transform="matrix(0.913612 0 0 0.916108 0.55 0)"  d="M277.65063 280.33856C 275.59836 279.8866 254.81886 279.81412 232.41893 279.7672C 232.41893 279.7672 232.97475 271.25208 232.41893 268.8344C 234.685 269.59338 237.04514 270.04538 239.43521 270.18607C 239.43521 270.18607 244.77116 267.2397 248.36269 266.3016C 263.19052 262.4214 255.00699 272.87238 267.3464 273.3201C 271.994 273.49066 276.96225 275.9339 276.96225 275.9339C 282.74716 275.2133 279.797 280.80334 277.65063 280.33856z" stroke="#000000" stroke-width="0.494289" stroke-linecap="square" fill="#FFFFFF" fill-rule="nonzero" />
        <path transform="matrix(0.913612 0 0 0.916108 0.55 0)"  d="M233.88118 282.2744C 218.85667 282.24457 203.426 281.379 191.78777 279.59238C 163.89795 275.2943 142.07094 265.70465 161.17865 253.91052C 180.29065 242.12067 212.46036 248.39296 212.46036 248.39296C 211.39574 252.99377 221.83678 263.00983 234.17621 267.0478C 236.25415 274.07483 233.88118 282.2744 233.88118 282.2744z" stroke="#000000" stroke-width="0.494289" stroke-linecap="square" fill="#F17336" fill-rule="nonzero" />
        <path transform="matrix(0.913612 0 0 0.916108 0.55 0)"  d="M210.8955 190.41158C 210.8955 190.41158 207.75719 198.37666 203.72955 210.02582C 199.69766 221.66643 194.76787 243.42545 214.17915 242.23154C 233.5819 241.03763 224.03017 191.10234 210.8955 190.41158z" stroke="#000000" stroke-width="0.494289" stroke-linecap="square" fill="#FFFFFF" fill-rule="nonzero" />
        <path transform="matrix(0.913612 0 0 0.916108 0.55 0)"  d="M237.57532 164.72546C 237.57532 164.72546 238.36203 179.97766 236.12161 184.45908C 233.88545 188.93625 254.93002 183.34192 254.93002 183.34192C 254.93002 183.34192 251.68484 171.69278 253.58748 163.96648C 255.49013 156.24443 237.57532 164.72546 237.57532 164.72546z" stroke="#000000" stroke-width="0.494289" stroke-linecap="square" fill="#FFFFFF" fill-rule="nonzero" />
        <path d="M217.9414 158.90625C 217.9414 158.90625 222.60938 162.3164 226.73828 161.46094C 230.86719 160.60547 231.58594 159.51562 231.58594 159.51562C 231.58594 159.51562 231.27344 154.92969 231.3789 154.2461C 231.47656 153.5625 217.9414 154.45312 217.9414 154.45312C 217.9414 154.45312 218.29297 156.36719 217.9414 158.90625z" stroke="none" fill="#E3E3E3" fill-rule="nonzero" />
        <path transform="matrix(0.913612 0 0 0.916108 0.55 0)"  d="M227.1642 139.78554C 227.1642 139.78554 226.49292 153.89073 228.50674 159.93703C 230.52055 165.98332 241.15828 174.57948 251.12045 171.3346C 261.08264 168.08972 264.1055 162.16708 265.7901 155.79672C 267.4704 149.42636 267.13263 135.08238 264.8922 133.62837C 262.6518 132.17436 228.72906 124.332924 227.1642 139.78554z" stroke="#000000" stroke-width="0.494289" stroke-linecap="square" fill="#FFFFFF" fill-rule="nonzero" />
        <path d="M207.60938 135.57812C 209.3125 135.04688 210.86328 134.1211 212.14844 132.8789C 213.85938 131.22266 214.7461 128.54688 216.1211 126.484375C 219.33984 121.62891 215.92969 128.17578 219.67578 131.84375C 223.42969 135.51172 244.16016 134.89844 244.16016 134.89844C 244.16016 134.89844 247.70703 135.51172 245.2539 125.73828C 242.80078 115.96484 236.1836 111.375 230.04688 111.375C 223.91016 111.375 215.17969 111.85547 211.29297 117.328125C 207.40625 122.796875 202.69922 133.25781 205.35938 136.19922C 208.01562 139.14062 207.60938 135.57812 207.60938 135.57812z" stroke="none" fill="#3F3D56" fill-rule="nonzero" />
        <path transform="matrix(0.913612 0 0 0.916108 0.55 0)"  d="M224.57317 145.04726C 224.57317 145.04726 226.71526 126.12805 241.71838 123.66348C 256.7215 121.19891 266.4357 126.34978 268.5778 145.04726L268.5778 145.04726L269.86902 145.04726C 269.86902 145.04726 270.82675 120.86206 252.57845 119.0712C 234.33012 117.28033 224.22258 123.104904 223.28621 145.04726" stroke="#000000" stroke-width="0.494289" stroke-linecap="square" fill="#F17336" fill-rule="nonzero" />
        <path transform="matrix(0.913612 0 0 0.916108 0.55 0)"  d="M253.71147 177.60689C 253.71147 177.60689 250.11569 181.5468 240.93594 180.65137C 240.93594 180.65137 224.36366 184.23735 219.21584 185.02193C 214.06372 185.79797 210.48076 187.81909 210.48076 188.93625C 210.48076 190.05766 217.20201 205.39514 214.06372 224.31862C 210.92969 243.23782 265.56348 228.79152 265.56348 228.79152C 265.56348 228.79152 264.5972 198.786 280.60507 189.71228C 280.60507 189.71228 282.91818 187.36711 278.44162 186.19025C 273.96506 185.00914 260.2275 184.94943 257.31583 180.31024C 254.55804 175.9141 253.71147 177.60689 253.71147 177.60689z" stroke="#000000" stroke-width="0.494289" stroke-linecap="square" fill="#654EF9" fill-rule="nonzero" />
        <path d="M233.46094 166.64844C 233.46094 166.64844 232.10156 169.7461 225.3711 169.79688L225.3711 169.79688L233.46094 166.64844z" stroke="none" fill="#4052F2" fill-rule="nonzero" />
        <path transform="matrix(0.913612 0 0 0.916108 0.55 0)"  d="M254.93431 181.90923C 254.93431 181.90923 253.4464 185.29056 246.07951 185.346" stroke="#000000" stroke-width="0.494289" stroke-linecap="square" fill="none" />
        <path transform="matrix(0.913612 0 0 0.916108 0.55 0)"  d="M254.13477 203.06276L244.83958 207.33951C 242.22719 200.4191 239.88414 193.27269 239.2086 192.80792C 236.43373 190.88914 231.26451 185.02193 231.1961 182.7535C 231.12769 180.61299 232.16666 180.57887 232.6156 179.9137C 233.06454 179.24852 233.9325 179.07796 234.37715 178.40852C 234.59094 178.08871 233.57333 176.65602 232.30775 174.36629C 232.30775 174.36629 231.20038 168.17928 231.34575 167.21988C 231.46547 166.42252 232.20514 164.72972 233.08592 166.33298C 233.60327 167.27104 235.20662 173.01035 235.20662 173.01035C 237.72069 176.54517 239.37962 179.0012 241.33357 178.67715C 244.4676 178.15268 248.64915 174.94191 249.32042 174.34923C 249.9917 173.7608 251.12901 176.08466 248.9912 178.16547C 246.85767 180.25055 248.72183 186.2201 245.80586 190.10457C 245.80586 190.09604 249.9917 196.47493 254.13477 203.06276z" stroke="#000000" stroke-width="0.494289" stroke-linecap="square" fill="#FFFFFF" fill-rule="nonzero" />
        <path d="M226.97656 177.4961C 226.97656 177.4961 224.01172 180.52734 219.54297 176.67578C 219.54297 176.67578 221.72656 182.01172 221.96875 183.47656C 222.20703 184.94922 229.125 180.98828 229.125 180.98828L229.125 180.98828L226.97656 177.4961z" stroke="none" fill="#E3E3E3" fill-rule="nonzero" />
        <path transform="matrix(0.913612 0 0 0.916108 0.55 0)"  d="M284.34198 200.02255C 281.35333 206.7383 270.6087 245.25041 264.03708 243.61305C 259.65884 242.51721 251.5694 222.58745 246.34888 208.75514L246.34888 208.75514L255.63979 204.48265C 259.3724 210.40956 263.06226 216.50703 263.6651 218.3107C 263.6651 218.3107 268.44525 196.43655 280.60507 189.72081C 280.60507 189.72081 287.32635 193.29828 284.34198 200.02255z" stroke="#000000" stroke-width="0.494289" stroke-linecap="square" fill="#FFFFFF" fill-rule="nonzero" />
        <path transform="matrix(0.913612 0 0 0.916108 0.55 0)"  d="M313.15106 258.01672C 313.15106 258.01672 304.07394 249.01976 271.6092 259.81186" stroke="#000000" stroke-width="0.494289" stroke-linecap="square" fill="none" />
        <path transform="matrix(0.913612 0 0 0.916108 0.55 0)"  d="M177.67825 261.23175C 177.67825 261.23175 191.05237 254.51175 212.46463 259.81186" stroke="#000000" stroke-width="0.494289" stroke-linecap="square" fill="none" />
        <path transform="matrix(0.913612 0 0 0.916108 0.55 0)"  d="M227.37798 144.9364C 227.37798 144.9364 226.25777 140.23325 222.67053 143.59325C 219.09184 146.94899 221.0971 164.42271 228.21172 157.42128C 228.21172 157.42128 228.0578 151.54128 227.37798 144.9364z" stroke="#000000" stroke-width="0.494289" stroke-linecap="square" fill="#F17336" fill-rule="nonzero" />
        <path transform="matrix(0.913612 0 0 0.916108 0.55 0)"  d="M222.6748 143.59325C 222.6748 143.59325 217.7835 142.32259 215.91933 148.14717C 214.05089 153.96748 219.75456 161.55307 223.28621 158.23997C 223.28621 158.23997 220.47285 148.2964 222.6748 143.59325z" stroke="#000000" stroke-width="0.494289" stroke-linecap="square" fill="#FFFFFF" fill-rule="nonzero" />
        <path transform="matrix(0.913612 0 0 0.916108 0.55 0)"  d="M265.77298 145.37985C 265.77298 145.37985 266.89746 140.68523 270.48044 144.0367C 274.0591 147.38818 272.05386 164.87044 264.93924 157.87326C 264.94778 157.86047 265.09317 151.98047 265.77298 145.37985z" stroke="#000000" stroke-width="0.494289" stroke-linecap="square" fill="#F17336" fill-rule="nonzero" />
        <path transform="matrix(0.913612 0 0 0.916108 0.55 0)"  d="M270.48044 144.03244C 270.48044 144.03244 275.36746 142.76178 277.23163 148.58635C 279.10007 154.40666 273.40497 161.99225 269.86902 158.68768C 269.86902 158.68768 272.68237 148.7356 270.48044 144.03244z" stroke="#000000" stroke-width="0.494289" stroke-linecap="square" fill="#FFFFFF" fill-rule="nonzero" />
        <path transform="matrix(0.913612 0 0 0.916108 0.55 0)"  d="M242.81721 123.49293C 242.81721 123.49293 238.13115 138.06715 243.66379 144.26695" stroke="#FFFFFF" stroke-width="0.247145" stroke-linecap="square" fill="none" />
        <path transform="matrix(0.913612 0 0 0.916108 0.55 0)"  d="M247.31516 123.49293C 247.31516 123.49293 243.80916 133.9908 246.94318 140.3569" stroke="#FFFFFF" stroke-width="0.247145" stroke-linecap="square" fill="none" />
        <path transform="matrix(0.913612 0 0 0.916108 0.55 0)"  d="M253.6388 130.05516C 253.6388 130.05516 251.89435 138.3699 256.7258 145.33295" stroke="#FFFFFF" stroke-width="0.247145" stroke-linecap="square" fill="none" />
        <path transform="matrix(0.913612 0 0 0.916108 0.55 0)"  d="M260.50543 136.27629C 260.50543 136.27629 259.82132 142.56137 262.69455 145.04726" stroke="#FFFFFF" stroke-width="0.247145" stroke-linecap="square" fill="none" />
        <path transform="matrix(0.913612 0 0 0.916108 0.55 0)"  d="M240.11931 199.18681C 240.11931 199.18681 249.5171 197.55798 251.55229 195.20427C 251.55229 195.20427 261.54013 209.31374 263.32733 214.91658C 265.1188 220.5109 251.46678 225.99863 249.33325 222.97546C 247.204 219.94806 240.11931 199.18681 240.11931 199.18681z" stroke="#000000" stroke-width="0.494289" stroke-linecap="square" fill="#FFFFFF" fill-rule="nonzero" />
        <path transform="matrix(0.913612 0 0 0.916108 0.55 0)"  d="M281.20367 213.75677L208.05647 213.75677L208.05647 261.9737L281.20367 261.9737L281.20367 213.75677z" stroke="#000000" stroke-width="0.494289" fill="#454545" fill-rule="nonzero" />
        <path transform="matrix(0.913612 0 0 0.916108 0.55 0)"  d="M281.20367 261.9737L208.05647 261.9737L208.05647 265.11197L281.20367 265.11197L281.20367 261.9737z" stroke="#000000" stroke-width="0.494289" fill="#454545" fill-rule="nonzero" />
        <path d="M225.15625 220.0625C 228.03516 220.0625 230.3711 218.98438 230.3711 217.65625C 230.3711 216.32031 228.03516 215.24219 225.15625 215.24219C 222.27344 215.24219 219.9414 216.32031 219.9414 217.65625C 219.9414 218.98438 222.27344 220.0625 225.15625 220.0625z" stroke="none" fill="#FFF0E6" fill-rule="nonzero" />
        <path transform="matrix(0.913612 0 0 0.916108 0.55 0)"  d="M234.37715 178.39572L234.7021 179.71756" stroke="#000000" stroke-width="0.494289" stroke-linecap="square" fill="none" />
        <path d="M194.66016 173.46484C 194.66016 173.46484 198.95312 179.78906 198.67969 191.94531L198.67969 191.94531L194.66016 173.46484z" stroke="none" fill="#4052F2" fill-rule="nonzero" />
        <path transform="matrix(0.913612 0 0 0.916108 0.55 0)"  d="M212.46463 189.34985C 212.46463 189.34985 217.16353 196.2532 216.86424 209.52266" stroke="#000000" stroke-width="0.494289" stroke-linecap="square" fill="none" />
        <path d="M255.48438 172.71094C 255.48438 172.71094 249.41797 174.76172 244.34766 185.29297L244.34766 185.29297L255.48438 172.71094z" stroke="none" fill="#4052F2" fill-rule="nonzero" />
        <path transform="matrix(0.913612 0 0 0.916108 0.55 0)"  d="M279.04022 188.5269C 279.04022 188.5269 272.40018 190.76549 266.85043 202.26114" stroke="#000000" stroke-width="0.494289" stroke-linecap="square" fill="none" />
        <path d="M215.58984 141.02734C 216.09375 141.02734 216.4961 140.45703 216.4961 139.7539C 216.4961 139.05469 216.09375 138.48047 215.58984 138.48047C 215.08984 138.48047 214.67969 139.05469 214.67969 139.7539C 214.67969 140.45703 215.08984 141.02734 215.58984 141.02734z" stroke="none" fill="#000000" fill-rule="nonzero" />
        <path d="M233.54297 141.11719C 234.04688 141.11719 234.45312 140.54688 234.45312 139.84375C 234.45312 139.14062 234.04688 138.57422 233.54297 138.57422C 233.04297 138.57422 232.63672 139.14062 232.63672 139.84375C 232.63672 140.54688 233.04297 141.11719 233.54297 141.11719z" stroke="none" fill="#000000" fill-rule="nonzero" />
        <path d="M212.02734 133.26172C 212.02734 133.26172 215.53125 128.9336 218.53516 132.41797L218.53516 132.41797L212.02734 133.26172z" stroke="none" fill="#FFFFFF" fill-rule="nonzero" />
        <path transform="matrix(0.913612 0 0 0.916108 0.55 0)"  d="M231.47829 145.46513C 231.47829 145.46513 235.30923 140.74066 238.59718 144.54411" stroke="#000000" stroke-width="0.494289" stroke-linecap="square" fill="none" />
        <path d="M231.23047 135.8789C 231.23047 135.8789 235.95703 134.86328 237.67578 137.10156L237.67578 137.10156L231.23047 135.8789z" stroke="none" fill="#FFFFFF" fill-rule="nonzero" />
        <path transform="matrix(0.913612 0 0 0.916108 0.55 0)"  d="M252.49294 148.32199C 252.49294 148.32199 257.6664 147.21336 259.5477 149.6566" stroke="#000000" stroke-width="0.494289" stroke-linecap="square" fill="none" />
        <path transform="matrix(0.913612 0 0 0.916108 0.55 0)"  d="M245.53223 149.95935C 245.53223 149.95935 244.09135 156.63245 244.68565 157.6686C 245.28424 158.70474 247.57597 158.03104 247.57597 158.03104" stroke="#000000" stroke-width="0.494289" stroke-linecap="square" fill="#FFFFFF" fill-rule="nonzero" />
        <path d="M221.11328 149.47656C 221.11328 149.47656 226.77344 151.4336 229.58984 149.69922L229.58984 149.69922L221.11328 149.47656z" stroke="none" fill="#FFFFFF" fill-rule="nonzero" />
        <path transform="matrix(0.913612 0 0 0.916108 0.55 0)"  d="M241.41908 163.16484C 241.41908 163.16484 247.61446 165.30109 250.69717 163.4079" stroke="#000000" stroke-width="0.494289" stroke-linecap="square" fill="none" />
        <path transform="matrix(0.913612 0 0 0.916108 0.55 0)"  d="M116.85337 277.28558L178.24263 277.28558" stroke="#000000" stroke-width="0.494471" stroke-linecap="square" fill="none" />
        <path transform="matrix(0.913612 0 0 0.916108 0.55 0)"  d="M297.05765 277.28558L358.39987 277.28558" stroke="#000000" stroke-width="0.494471" stroke-linecap="square" fill="none" />
        <path transform="matrix(0.913612 0 0 0.916108 0.55 0)"  d="M72.89579 277.28558L110.230446 277.28558" stroke="#000000" stroke-width="0.494471" stroke-linecap="square" fill="none" />
        <path transform="matrix(0.913612 0 0 0.916108 0.55 0)"  d="M21.36182 277.28558L64.584 277.28558" stroke="#000000" stroke-width="0.494471" stroke-linecap="square" fill="none" />
	</g>
</g>
</svg>