<svg width="139" height="119" viewBox="0 0 139 119" fill="none" xmlns="http://www.w3.org/2000/svg">
<path d="M126.216 87.6098L125.913 87.5173L12.8495 53.0303L13.1605 52.875L90.7762 14.1162L90.8373 14.2428L126.216 87.6098ZM13.5955 52.9679L125.691 87.1596L90.6486 14.49L13.5955 52.9679Z" fill="#3F3D56"/>
<path d="M138.549 72.3431H110.396V99.2482H138.549V72.3431Z" fill="#FEFEFE" stroke="#0B065A" stroke-width="0.4" stroke-miterlimit="10" stroke-linecap="round"/>
<path d="M108.455 0.919922H80.3013V27.825H108.455V0.919922Z" fill="#FEFEFE" stroke="#0B065A" stroke-width="0.4" stroke-miterlimit="10" stroke-linecap="round"/>
<path d="M28.9877 39.4746H0.834473V66.3797H28.9877V39.4746Z" fill="#FEFEFE" stroke="#0B065A" stroke-width="0.4" stroke-miterlimit="10" stroke-linecap="round"/>
<path d="M91.7728 11.2251L98.9845 14.4149L91.7728 17.466V11.2251Z" fill="#F17336"/>
<path d="M25.5296 63.6781H4.172V42.3204H25.5296V63.6781ZM4.46863 63.3814H25.233V42.6171H4.46863V63.3814Z" fill="#F17336"/>
<path d="M21.3772 49.0753H8.32532V50.2658H21.3772V49.0753Z" fill="#F17336"/>
<path d="M21.3772 52.4038H8.32532V53.5943H21.3772V52.4038Z" fill="#F17336"/>
<path d="M21.3772 55.7324H8.32532V56.9229H21.3772V55.7324Z" fill="#F17336"/>
<path d="M134.829 90.9211H114.026V80.797H134.829V90.9211ZM114.303 90.6437H134.552V81.0744H114.303V90.6437Z" fill="#F17336"/>
<path d="M119.712 87.3848C120.555 87.3848 121.238 86.7018 121.238 85.8593C121.238 85.0168 120.555 84.3337 119.712 84.3337C118.87 84.3337 118.187 85.0168 118.187 85.8593C118.187 86.7018 118.87 87.3848 119.712 87.3848Z" fill="#EF7236"/>
<path d="M124.428 87.3848C125.27 87.3848 125.953 86.7018 125.953 85.8593C125.953 85.0168 125.27 84.3337 124.428 84.3337C123.585 84.3337 122.902 85.0168 122.902 85.8593C122.902 86.7018 123.585 87.3848 124.428 87.3848Z" fill="#EF7236"/>
<path d="M129.143 87.3848C129.986 87.3848 130.669 86.7018 130.669 85.8593C130.669 85.0168 129.986 84.3337 129.143 84.3337C128.301 84.3337 127.618 85.0168 127.618 85.8593C127.618 86.7018 128.301 87.3848 129.143 87.3848Z" fill="#EF7236"/>
<path d="M104.779 19.4345H83.9764V9.31042H104.779V19.4345ZM84.2538 19.1571H104.502V9.5878H84.2538V19.1571Z" fill="#F17336"/>
<path d="M48.7363 22.6378C46.3935 27.7501 44.4123 30.1477 43.2406 31.166C41.9897 32.2529 40.7642 35.164 40.7642 35.164C41.6073 30.7963 44.6779 30.6947 48.0111 22.6703C51.3443 14.6459 54.6977 16.7282 54.6977 16.7282C55.4839 16.9014 55.8719 17.4118 55.8719 17.4118C51.5723 20.0187 53.4768 34.4083 50.4641 39.323C47.4514 44.2377 42.5977 41.4352 41.8861 38.4408C41.1746 35.4464 47.5743 26.2234 48.3717 23.8277C48.5032 23.4286 48.6205 23.0304 48.7363 22.6378Z" fill="#3F3D56"/>
<path d="M55.3833 103.513C55.3833 103.513 56.071 107.213 55.5732 108.85C55.0755 110.487 61.2421 115.468 61.8587 115.278C62.4752 115.088 63.5189 113.167 63.5189 113.167C63.5189 113.167 59.5103 109.064 59.4514 107.949C59.3924 106.834 58.8698 102.019 58.8698 102.019L55.3833 103.513Z" fill="white" stroke="black" stroke-width="0.203149" stroke-miterlimit="10" stroke-linecap="round"/>
<path d="M55.6251 108.65C55.6251 108.65 59.653 113.142 61.005 113.711C61.005 113.711 61.716 114.008 63.3173 112.739C63.3173 112.739 63.424 112.656 63.9105 113.106C64.3971 113.557 66.4601 115.265 65.8196 116.306C65.1792 117.347 62.4992 117.423 60.2935 115.357C58.0878 113.291 56.1898 111.847 55.3833 111.491C55.3833 111.491 55.0867 111.42 55.1223 110.969C55.1578 110.519 55.1076 107.895 55.6251 108.65Z" fill="#0B065A" stroke="black" stroke-width="0.203149" stroke-miterlimit="10" stroke-linecap="round"/>
<path d="M45.6891 104.739C45.6891 104.739 45.0014 108.439 45.4997 110.076C45.9979 111.713 39.8308 116.693 39.2137 116.504C38.5966 116.315 37.5535 114.393 37.5535 114.393C37.5535 114.393 41.5621 110.289 41.6215 109.174C41.6809 108.06 42.2025 103.245 42.2025 103.245L45.6891 104.739Z" fill="white" stroke="black" stroke-width="0.203149" stroke-miterlimit="10" stroke-linecap="round"/>
<path d="M58.8785 103.105L59.037 104.789C59.037 104.789 57.7673 105.939 55.7358 105.1L55.5113 103.494L58.8785 103.105Z" fill="#E3E3E3"/>
<path d="M45.4739 105.317L45.289 106.982C45.289 106.982 42.6069 107.297 42.0122 106.15L42.1575 104.498L45.4739 105.317Z" fill="#E3E3E3"/>
<path d="M45.4496 109.875C45.4496 109.875 41.4221 114.367 40.0702 114.937C40.0702 114.937 39.3592 115.233 37.7573 113.964C37.7573 113.964 37.6507 113.881 37.1641 114.332C36.6776 114.782 34.6146 116.49 35.255 117.531C35.8955 118.572 38.5755 118.649 40.7817 116.583C42.9879 114.517 44.8848 113.072 45.6913 112.716C45.6913 112.716 45.9879 112.645 45.9524 112.195C45.9168 111.744 45.9671 109.119 45.4496 109.875Z" fill="#0B065A" stroke="black" stroke-width="0.203149" stroke-miterlimit="10" stroke-linecap="round"/>
<path d="M67.3477 14.2624C67.3477 14.2624 68.9729 16.1806 68.5402 18.0755C68.0171 20.3711 70.2766 21.9485 69.8581 22.108C69.4396 22.2675 68.1217 22.5651 68.1217 22.5651C68.1217 22.5651 67.4208 25.7489 66.3538 25.8089C65.2868 25.8688 62.3365 24.7312 62.3365 24.7312L61.6148 27.6956L57.9744 26.5575L59.0409 21.557C59.0409 21.557 62.7865 12.5955 67.3477 14.2624Z" fill="white" stroke="black" stroke-width="0.203149" stroke-miterlimit="10" stroke-linecap="round"/>
<path d="M67.4347 14.5087C67.4347 14.5087 66.9085 15.56 65.8603 16.3187C64.812 17.0775 63.4311 20.3157 62.7404 19.8566C62.0497 19.3975 67.0528 14.0557 67.0528 14.0557L67.4347 14.5087Z" fill="#E3E3E3"/>
<path d="M61.9409 21.1898C61.9409 21.1898 60.1273 20.9404 60.5478 19.2035C60.9684 17.4665 59.4092 20.1115 59.0014 22.1491C58.5935 24.1867 58.1141 26.6184 58.1141 26.6184C58.1141 26.6184 58.7632 26.5819 59.3386 26.8912C59.3386 26.8912 59.5453 20.7819 60.5067 21.1116C61.4681 21.4412 62.1278 21.6788 61.9409 21.1898Z" fill="#E3E3E3"/>
<path d="M62.3367 24.7332C62.3367 24.7332 61.134 24.1842 60.5083 23.8246" stroke="black" stroke-width="0.203149" stroke-miterlimit="10" stroke-linecap="round"/>
<path d="M69.8252 63.9517C69.8252 63.9517 71.5342 65.4677 71.904 65.9959C72.2737 66.5241 72.3611 67.0883 72.3103 68.1452C72.2595 69.2021 71.9228 70.0482 71.6587 70.0127C71.3946 69.9771 71.3413 69.8364 71.3413 69.8364C71.3413 69.8364 70.9187 70.101 70.5287 69.8364C70.5287 69.8364 70.4779 70.3651 69.259 70.3651C69.259 70.3651 69.0121 71.8801 68.4311 71.5982C67.8501 71.3164 68.0436 69.9223 68.2194 69.4312C68.2194 69.4312 68.356 66.9299 68.0411 66.8918C67.7262 66.8537 66.1406 66.9096 66.1406 66.9096L67.0746 64.038C67.0746 64.038 68.2965 62.52 69.8252 63.9517Z" fill="white" stroke="black" stroke-width="0.203149" stroke-miterlimit="10" stroke-linecap="round"/>
<path d="M61.9593 26.8369C61.9593 26.8369 60.3646 27.3615 58.9629 26.5423C57.5612 25.7231 57.2869 25.3402 57.2869 25.3402C57.2869 25.3402 57.1208 25.1152 57.006 25.4062C56.8913 25.6972 56.2838 27.811 55.6145 27.943C54.9451 28.0751 49.2107 28.7886 47.907 30.1624C46.6033 31.5362 45.4006 47.004 48.233 49.3214C48.8141 49.7968 50.6074 50.1528 50.6074 50.1528L67.0746 64.0406C67.0746 64.0406 68.9243 63.6176 70.1396 64.0406C70.1396 64.0406 69.0828 49.3479 69.3469 47.3392C69.611 45.3306 70.2458 29.3432 66.0172 28.815C61.7887 28.2869 62.2651 27.8638 62.3047 27.0182C62.3072 27.0182 62.3981 26.6033 61.9593 26.8369Z" fill="white" stroke="black" stroke-width="0.203149" stroke-miterlimit="10" stroke-linecap="round"/>
<path d="M53.362 28.4224C53.362 28.4224 54.3747 30.0745 54.5509 31.2725C54.7271 32.4706 55.1502 36.3284 55.6256 36.5224C56.1009 36.7164 64.7338 36.5224 64.7338 36.5224L64.8221 38.9887C64.8221 38.9887 54.1461 39.7464 53.6703 37.1918C53.1944 34.6372 52.6469 28.6123 52.6469 28.6123L53.362 28.4224Z" fill="#E3E3E3"/>
<path d="M66.1563 31.7068C66.1563 31.7068 68.0801 37.6169 67.7099 41.9506C67.3396 46.2843 67.5692 63.8313 67.5692 63.8313C67.5692 63.8313 66.5143 64.1396 66.1563 63.9278C65.7982 63.716 64.1812 35.0176 66.1563 31.7068Z" fill="#E3E3E3"/>
<path d="M66.0199 28.4447C65.4918 28.4762 64.9623 28.4762 64.4343 28.4447C64.4343 28.4447 64.1702 28.2731 64.4343 29.1319C64.6984 29.9907 64.8837 35.4874 64.8573 36.7825C64.8573 36.7825 59.2814 38.1431 54.7892 36.7825C54.7892 36.7825 54.2636 29.7911 52.7578 28.431C52.7578 28.431 52.7958 28.1542 50.9198 28.6169C50.9198 28.6169 52.6374 31.4275 52.2011 37.3874C51.935 41.0273 52.4789 44.8419 52.4789 44.8419L60.3271 45.5951V45.9125L66.3505 46.232C66.3505 46.232 66.5536 43.7266 67.0615 41.5941C67.7639 38.6718 66.1255 36.5443 66.0199 28.4447Z" fill="#F17336" stroke="black" stroke-width="0.203149" stroke-miterlimit="10" stroke-linecap="round"/>
<path d="M39.2243 103.838C42.8181 106.798 51.9613 105.687 51.9613 105.687L53.4941 97.5487V103.944C53.4941 103.944 54.8145 104.261 61.5271 103.626C68.2397 102.992 69.5083 102.411 69.5083 102.411C70.196 95.4344 65.4392 50.0742 65.4392 50.0742L65.4225 50.0559C62.7678 47.0889 60.1538 48.1326 60.1538 48.1326L60.0482 48.5023C53.4565 50.3429 50.6779 50.1575 50.6119 50.1529C50.6078 52.4109 48.7394 55.7426 48.7394 55.7426C44.0867 63.8817 39.2243 103.838 39.2243 103.838Z" fill="#654EF9" stroke="black" stroke-width="0.203149" stroke-miterlimit="10" stroke-linecap="round"/>
<path d="M60.5789 49.6913C63.5124 50.6689 65.4545 51.6994 65.4545 51.6994C65.4545 51.6994 65.4291 50.8675 65.4215 50.0559C62.7668 47.0889 60.1528 48.1326 60.1528 48.1326L60.0471 48.5023C53.4555 50.3429 50.6769 50.1575 50.6109 50.1529C50.6382 50.1914 50.6694 50.2272 50.7038 50.2596C50.7038 50.2596 50.7922 51.0874 50.3691 52.1707C49.946 53.254 57.6459 48.7141 60.5789 49.6913Z" fill="#5842E2"/>
<path d="M60.1533 48.132C60.1533 48.132 60.7171 47.9913 61.4042 48.4139C62.0914 48.8364 62.9192 49.3829 64.681 49.9116C64.681 49.9116 65.6851 50.9862 65.8613 51.3915C66.0375 51.7968 67.1472 52.5363 67.4291 52.5012C67.711 52.4662 67.9929 52.1843 67.5175 51.8319C67.0421 51.4794 66.0025 50.7394 65.8263 49.7882C65.8263 49.7882 66.161 49.7531 67.4819 50.4931C68.8029 51.2331 69.7724 51.8319 70.2656 51.2503C70.2656 51.2503 70.424 51.0213 70.0365 50.775C70.0365 50.775 71.164 51.0391 71.0233 50.1229C71.0233 50.1229 69.1381 49.0482 68.7156 48.6429C68.7156 48.6429 70.583 49.4357 71.164 48.6785C71.164 48.6785 71.2696 48.4494 70.7237 48.3438C70.1777 48.2381 67.6648 46.9695 67.0888 46.5464C66.5129 46.1234 66.0904 45.7943 63.3245 45.8598C60.5586 45.9253 60.325 45.9106 60.325 45.9106L60.1533 48.132Z" fill="white" stroke="black" stroke-width="0.203149" stroke-miterlimit="10" stroke-linecap="round"/>
<path d="M70.0366 50.775C70.0366 50.775 67.4886 49.1894 67.091 48.6079" stroke="black" stroke-width="0.203149" stroke-miterlimit="10" stroke-linecap="round"/>
<path d="M68.7156 48.6429C68.7156 48.6429 67.482 47.7973 67.2707 47.6211" stroke="black" stroke-width="0.203149" stroke-miterlimit="10" stroke-linecap="round"/>
<path d="M69.5759 67.2468C69.5084 67.2291 69.6313 69.1493 69.4744 69.6252C69.3903 69.8677 69.3197 70.1148 69.2631 70.3652" stroke="black" stroke-width="0.203149" stroke-miterlimit="10" stroke-linecap="round"/>
<path d="M70.8469 67.0884C70.8469 67.0884 70.9525 69.1849 70.53 69.8365" stroke="black" stroke-width="0.203149" stroke-miterlimit="10" stroke-linecap="round"/>
<path d="M53.4941 97.5485L59.8101 61.2925" stroke="black" stroke-width="0.203149" stroke-miterlimit="10" stroke-linecap="round"/>
<path d="M53.8374 53.5232C53.8374 53.5232 51.4636 58.3424 47.0878 59.8437" stroke="black" stroke-width="0.203149" stroke-miterlimit="10" stroke-linecap="round"/>
<path d="M58.6866 23.2218C58.6866 23.2218 56.0705 22.7068 55.8196 17.7962C55.8196 17.7962 56.4646 9.27458 66.5866 12.2096C66.8851 12.2924 67.1532 12.46 67.3585 12.6921C67.6414 13.0212 67.8451 13.5478 67.3504 14.2614C67.3504 14.2614 66.4504 15.5991 65.0386 16.5275C63.6267 17.4559 63.0929 20.0608 62.6516 19.851C62.2102 19.6413 61.8278 18.2766 60.7059 19.3432C59.584 20.4097 59.2244 20.7078 58.6582 23.3604" fill="#3F3D56"/>
<path d="M52.4768 44.8419C52.4768 44.8419 51.5474 44.6352 50.9176 44.8419H52.4768Z" fill="#4052F2"/>
<path d="M52.4768 44.8419C52.4768 44.8419 51.5474 44.6352 50.9176 44.8419" stroke="black" stroke-width="0.203149" stroke-miterlimit="10" stroke-linecap="round"/>
<path d="M53.6174 103.855C53.6174 103.855 54.6128 103.961 56.3446 103.864L59.9419 61.2925L53.6174 97.6562V103.855Z" fill="#5842E2"/>
<path d="M53.7186 53.523C53.7186 53.523 51.3402 58.1741 47.2686 59.6541L47.6388 58.6099C47.6388 58.6099 50.4266 57.3285 52.8577 54.3554C52.8598 54.358 53.7318 53.0207 53.7186 53.523Z" fill="#5842E2"/>
<path d="M52.1464 35.395C52.1464 35.395 51.2215 42.715 51.1423 43.6662C51.0631 44.6175 51.1423 44.6403 51.2347 44.649C51.3272 44.6576 51.9615 44.5525 52.3582 44.7506C52.3582 44.7506 51.9473 41.8425 52.0143 40.1411C52.1596 36.4651 52.1464 35.395 52.1464 35.395Z" fill="#E3E3E3"/>
<path d="M62.6521 19.852C62.6521 19.852 61.6618 18.4239 60.8283 19.2344C59.9949 20.045 61.2194 21.0501 61.8888 21.11" stroke="black" stroke-width="0.203149" stroke-miterlimit="10" stroke-linecap="round"/>
<path d="M66.2401 14.3427C66.2401 14.3427 60.4539 11.0486 56.6565 16.7977" stroke="white" stroke-width="0.101575" stroke-miterlimit="10" stroke-linecap="round"/>
<path d="M63.9506 16.3184C63.9506 16.3184 61.4894 18.4865 56.6565 17.4773" stroke="white" stroke-width="0.101575" stroke-miterlimit="10" stroke-linecap="round"/>
<path d="M58.6023 21.559C58.5083 21.5291 57.2818 21.0801 56.6566 18.4747" stroke="white" stroke-width="0.101575" stroke-miterlimit="10" stroke-linecap="round"/>
<path d="M64.9105 15.0994C64.9105 15.0994 61.6601 16.9465 60.3036 16.7967" stroke="white" stroke-width="0.101575" stroke-miterlimit="10" stroke-linecap="round"/>
<path d="M55.0664 17.2771C55.0664 17.2771 49.6266 18.9531 49.2503 25.5813C48.8739 32.2096 46.1522 37.7591 44.6052 39.9948" stroke="white" stroke-width="0.101575" stroke-miterlimit="10" stroke-linecap="round"/>
<path d="M45.2152 29.8668C45.2152 29.8668 42.8729 39.5342 39.5341 42.6739" stroke="white" stroke-width="0.101575" stroke-miterlimit="10" stroke-linecap="round"/>
<path d="M62.2498 24.7698C62.2498 24.7698 60.6753 24.0313 60.4641 23.8713C60.2528 23.7114 60.4366 25.0227 62.0385 25.5417L62.2498 24.7698Z" fill="#E3E3E3"/>
<path d="M61.197 46.005C61.197 46.005 60.6424 47.0883 61.197 47.5642C61.7516 48.0401 64.778 48.4783 65.2798 50.4047L64.7211 49.8059C64.7211 49.8059 63.1574 49.292 62.3849 48.8587C61.6449 48.4428 60.905 47.8938 60.2574 48.0197L60.4296 46.0314L61.197 46.005Z" fill="#E3E3E3"/>
<path d="M67.4346 19.5184C67.2961 19.5184 67.1838 19.3622 67.1838 19.1695C67.1838 18.9768 67.2961 18.8206 67.4346 18.8206C67.5732 18.8206 67.6855 18.9768 67.6855 19.1695C67.6855 19.3622 67.5732 19.5184 67.4346 19.5184Z" fill="black"/>
<path d="M68.0695 17.5401C68.0695 17.5401 67.0837 17.0881 66.36 17.7697" stroke="black" stroke-width="0.203149" stroke-miterlimit="10" stroke-linecap="round"/>
<path d="M67.2661 23.6773C67.2661 23.6773 66.1899 24.01 65.5683 23.1558L67.2661 23.6773Z" fill="white"/>
<path d="M67.2661 23.6773C67.2661 23.6773 66.1899 24.01 65.5683 23.1558" stroke="black" stroke-width="0.203149" stroke-miterlimit="10" stroke-linecap="round"/>
<path d="M40.5439 110.765L30.501 110.765" stroke="black" stroke-width="0.186001" stroke-miterlimit="10" stroke-linecap="round"/>
<path d="M28.1233 110.765L7.58057 110.765" stroke="black" stroke-width="0.186001" stroke-miterlimit="10" stroke-linecap="round"/>
<path d="M119.655 110.765H108.397" stroke="black" stroke-width="0.186001" stroke-miterlimit="10" stroke-linecap="round"/>
<path d="M125.953 110.765H121.238" stroke="black" stroke-width="0.186001" stroke-miterlimit="10" stroke-linecap="round"/>
<path d="M54.9064 110.765L45.8732 110.765" stroke="black" stroke-width="0.186001" stroke-miterlimit="10" stroke-linecap="round"/>
<path d="M106.531 110.765H63.4765" stroke="black" stroke-width="0.186001" stroke-miterlimit="10" stroke-linecap="round"/>
</svg>
