<svg width="126" height="94" viewBox="0 0 126 94" fill="none" xmlns="http://www.w3.org/2000/svg">
<path opacity="0.8" d="M21.2937 93.0001C21.2937 93.0001 -0.716357 90.293 2.90625 72.3858C6.52886 54.4785 8.58511 53.4469 1.98804 32.4312C-4.60903 11.4155 36.9783 -12.0291 57.5948 9.52997C78.2113 31.089 89.4621 17.0188 103.954 29.5032C118.446 41.9876 108.902 78.2731 92.8206 92.9996L21.2937 93.0001Z" fill="#FFF2D1"/>
<path d="M0.277588 93.0001L68.229 93.0001" stroke="black" stroke-width="0.200955" stroke-linecap="round" stroke-linejoin="round"/>
<path d="M103.189 93.0001L116.606 93.0001" stroke="black" stroke-width="0.200955" stroke-linecap="round" stroke-linejoin="round"/>
<path d="M118.216 93.0001H125.315" stroke="black" stroke-width="0.200955" stroke-linecap="round" stroke-linejoin="round"/>
<path d="M101.575 78.583C101.575 78.583 119.509 77.3631 122.558 83.5237C125.608 89.6843 101.941 92.1857 94.7429 90.7215C87.5447 89.2572 75.894 85.7505 75.894 85.7505L101.575 78.583Z" fill="#F17336" stroke="black" stroke-width="0.20197" stroke-miterlimit="10" stroke-linecap="round"/>
<path d="M101.83 92.6128C100.991 92.4296 92.5002 92.4003 83.3474 92.3801C83.3474 92.3801 83.5761 88.8996 83.3474 87.912C84.2746 88.2222 85.2388 88.4081 86.2149 88.4649C86.2149 88.4649 88.3967 87.2626 89.863 86.8789C95.9221 85.2929 92.578 89.5636 97.6212 89.7454C99.5202 89.814 101.548 90.8133 101.548 90.8133C103.913 90.5184 102.707 92.8032 101.83 92.6128Z" fill="white" stroke="black" stroke-width="0.20197" stroke-miterlimit="10" stroke-linecap="round"/>
<path d="M83.9457 93.4057C77.8078 93.3915 71.5023 93.0396 66.7449 92.3074C55.3492 90.5538 46.4317 86.6346 54.2399 81.8156C62.0481 76.9966 75.1943 79.5591 75.1943 79.5591C74.7571 81.4409 79.0237 85.5324 84.0664 87.1835C84.9157 90.0545 83.9457 93.4057 83.9457 93.4057Z" fill="#F17336" stroke="black" stroke-width="0.20197" stroke-miterlimit="10" stroke-linecap="round"/>
<path d="M74.553 55.869C74.553 55.869 73.2715 59.1243 71.6244 63.8822C69.9774 68.6401 67.9642 77.5308 75.8941 77.0426C83.8239 76.5543 79.9219 56.1513 74.553 55.869Z" fill="white" stroke="black" stroke-width="0.20197" stroke-miterlimit="10" stroke-linecap="round"/>
<path d="M85.4559 45.3726C85.4559 45.3726 85.776 51.6064 84.8611 53.4363C83.9462 55.2661 92.5471 52.9788 92.5471 52.9788C92.5471 52.9788 91.2202 48.2209 91.9982 45.0641C92.7763 41.9073 85.4559 45.3726 85.4559 45.3726Z" fill="white" stroke="black" stroke-width="0.20197" stroke-miterlimit="10" stroke-linecap="round"/>
<path d="M85.6084 48.9415C85.6084 48.9415 87.6943 50.4629 89.5413 50.0811C91.3883 49.6994 91.7084 49.2121 91.7084 49.2121C91.7084 49.2121 91.5711 47.1687 91.6165 46.8637C91.662 46.5588 85.6079 46.9551 85.6079 46.9551C85.6079 46.9551 85.7649 47.809 85.6084 48.9415Z" fill="#E3E3E3"/>
<path d="M81.2014 35.1822C81.2014 35.1822 80.9268 40.947 81.7503 43.4171C82.5738 45.8872 86.9197 49.4004 90.9905 48.074C95.0612 46.7475 96.2972 44.3274 96.9839 41.7245C97.6706 39.1216 97.5328 33.261 96.6179 32.6662C95.7029 32.0714 81.8417 28.8691 81.2014 35.1822Z" fill="white" stroke="black" stroke-width="0.20197" stroke-miterlimit="10" stroke-linecap="round"/>
<path d="M80.9867 38.5374C81.7479 38.2989 82.443 37.8864 83.017 37.3326C83.7825 36.5954 84.1784 35.3998 84.7919 34.4808C86.2324 32.3152 84.7075 35.2342 86.3849 36.8706C88.0623 38.5071 97.3342 38.2339 97.3342 38.2339C97.3342 38.2339 98.9202 38.5061 97.8225 34.1471C96.7248 29.788 93.7659 27.7421 91.0211 27.7421C88.2764 27.7421 84.3723 27.9557 82.6338 30.3955C80.8954 32.8353 78.7908 37.5018 79.9799 38.8131C81.169 40.1244 80.9867 38.5374 80.9867 38.5374Z" fill="#3F3D56"/>
<path d="M92.0489 50.6374C92.0489 50.6374 90.58 52.2466 86.8284 51.8806C86.8284 51.8806 80.0574 53.3449 77.9533 53.665C75.8493 53.9851 74.3845 54.8086 74.3845 55.2661C74.3845 55.7236 77.1298 61.9912 75.8488 69.7226C74.5678 77.4541 96.8921 71.5515 96.8921 71.5515C96.8921 71.5515 96.4957 59.2904 103.038 55.5847C103.038 55.5847 103.983 54.6253 102.153 54.1441C100.324 53.663 94.7103 53.6362 93.5222 51.7417C92.3947 49.9442 92.0489 50.6374 92.0489 50.6374Z" fill="#654EF9" stroke="black" stroke-width="0.20197" stroke-miterlimit="10" stroke-linecap="round"/>
<path d="M92.55 52.3942C92.55 52.3942 91.94 53.7767 88.9307 53.7974L92.55 52.3942Z" fill="#4052F2"/>
<path d="M92.55 52.3942C92.55 52.3942 91.94 53.7767 88.9307 53.7974" stroke="black" stroke-width="0.20197" stroke-miterlimit="10" stroke-linecap="round"/>
<path d="M92.2225 61.0389L88.424 62.7854C87.3566 59.9578 86.3987 57.0384 86.122 56.847C84.9895 56.0639 82.8764 53.666 82.8481 52.7399C82.8218 51.8654 83.2455 51.8507 83.4288 51.5786C83.612 51.3064 83.967 51.2378 84.1498 50.9631C84.2366 50.8333 83.8211 50.2481 83.304 49.313C83.304 49.313 82.8496 46.7848 82.9092 46.3935C82.9597 46.0673 83.2601 45.3751 83.6206 46.0315C83.8312 46.4142 84.4876 48.7581 84.4876 48.7581C85.5151 50.2022 86.1912 51.207 86.9905 51.0742C88.2715 50.8606 89.9792 49.5488 90.2538 49.3069C90.5285 49.0651 90.9941 50.0138 90.1205 50.8651C89.247 51.7164 90.01 54.1567 88.8198 55.7427C88.8198 55.7392 90.53 58.3446 92.2225 61.0389Z" fill="white" stroke="black" stroke-width="0.20197" stroke-miterlimit="10" stroke-linecap="round"/>
<path d="M89.6491 57.2333C89.6491 57.2333 88.3227 58.5855 86.3247 56.8672C86.3247 56.8672 87.3007 59.2464 87.4078 59.9018C87.5148 60.5572 90.61 58.791 90.61 58.791L89.6491 57.2333Z" fill="#E3E3E3"/>
<path d="M104.564 59.7959C103.344 62.5401 98.9522 78.2762 96.2681 77.6071C94.4791 77.1603 91.1723 69.0173 89.04 63.3652L92.8381 61.6187C94.3604 64.0393 95.8702 66.5316 96.1156 67.2678C96.1156 67.2678 98.0676 58.3306 103.039 55.5863C103.039 55.5863 105.784 57.0501 104.564 59.7959Z" fill="white" stroke="black" stroke-width="0.20197" stroke-miterlimit="10" stroke-linecap="round"/>
<path d="M116.337 83.4935C116.337 83.4935 112.628 79.8176 99.3611 84.2251" stroke="black" stroke-width="0.20197" stroke-miterlimit="10" stroke-linecap="round"/>
<path d="M60.9802 84.8068C60.9802 84.8068 66.4466 82.06 75.1964 84.2252" stroke="black" stroke-width="0.20197" stroke-miterlimit="10" stroke-linecap="round"/>
<path d="M87.5963 28.5262C87.5963 28.5262 85.6827 34.4808 87.9417 37.0146" stroke="white" stroke-width="0.100985" stroke-miterlimit="10" stroke-linecap="round"/>
<path d="M89.4362 28.5262C89.4362 28.5262 88.0027 32.8136 89.2847 35.416" stroke="white" stroke-width="0.100985" stroke-miterlimit="10" stroke-linecap="round"/>
<path d="M92.0183 31.2079C92.0183 31.2079 91.3064 34.6035 93.2806 37.4498" stroke="white" stroke-width="0.100985" stroke-miterlimit="10" stroke-linecap="round"/>
<path d="M94.8246 33.7487C94.8246 33.7487 94.5458 36.3162 95.7193 37.3336" stroke="white" stroke-width="0.100985" stroke-miterlimit="10" stroke-linecap="round"/>
<path d="M86.4956 59.4535C86.4956 59.4535 90.3361 58.789 91.1672 57.8281C91.1672 57.8281 95.2465 63.5924 95.9781 65.8802C96.7097 68.168 91.1308 70.4094 90.2598 69.1738C89.3888 67.9383 86.4956 59.4535 86.4956 59.4535Z" fill="white" stroke="black" stroke-width="0.20197" stroke-miterlimit="10" stroke-linecap="round"/>
<path d="M103.283 65.407H73.3933V85.1097H103.283V65.407Z" fill="#454545" stroke="black" stroke-width="0.20197" stroke-miterlimit="10"/>
<path d="M103.283 85.1099H73.3933V86.3909H103.283V85.1099Z" fill="#454545" stroke="black" stroke-width="0.20197" stroke-miterlimit="10"/>
<path d="M88.834 76.2191C90.1226 76.2191 91.1673 75.7378 91.1673 75.1441C91.1673 74.5504 90.1226 74.0691 88.834 74.0691C87.5454 74.0691 86.5007 74.5504 86.5007 75.1441C86.5007 75.7378 87.5454 76.2191 88.834 76.2191Z" fill="#FFF0E6"/>
<path d="M84.1497 50.9607L84.282 51.4995" stroke="black" stroke-width="0.20197" stroke-miterlimit="10" stroke-linecap="round"/>
<path d="M75.1963 55.4337C75.1963 55.4337 77.115 58.2557 76.9923 63.6766L75.1963 55.4337Z" fill="#4052F2"/>
<path d="M75.1963 55.4337C75.1963 55.4337 77.115 58.2557 76.9923 63.6766" stroke="black" stroke-width="0.20197" stroke-miterlimit="10" stroke-linecap="round"/>
<path d="M102.398 55.0984C102.398 55.0984 99.6844 56.0133 97.4172 60.7101L102.398 55.0984Z" fill="#4052F2"/>
<path d="M102.398 55.0984C102.398 55.0984 99.6844 56.0133 97.4172 60.7101" stroke="black" stroke-width="0.20197" stroke-miterlimit="10" stroke-linecap="round"/>
<path d="M84.5561 40.9671C84.7806 40.9671 84.9626 40.713 84.9626 40.3996C84.9626 40.0861 84.7806 39.832 84.5561 39.832C84.3316 39.832 84.1497 40.0861 84.1497 40.3996C84.1497 40.713 84.3316 40.9671 84.5561 40.9671Z" fill="black"/>
<path d="M92.5859 41.0069C92.8104 41.0069 92.9924 40.7528 92.9924 40.4394C92.9924 40.1259 92.8104 39.8718 92.5859 39.8718C92.3614 39.8718 92.1794 40.1259 92.1794 40.4394C92.1794 40.7528 92.3614 41.0069 92.5859 41.0069Z" fill="black"/>
<path d="M82.9644 37.5029C82.9644 37.5029 84.5296 35.5726 85.8732 37.1273L82.9644 37.5029Z" fill="white"/>
<path d="M82.9644 37.5029C82.9644 37.5029 84.5296 35.5726 85.8732 37.1273" stroke="black" stroke-width="0.20197" stroke-miterlimit="10" stroke-linecap="round"/>
<path d="M91.552 38.6722C91.552 38.6722 93.6661 38.2178 94.4341 39.2155L91.552 38.6722Z" fill="white"/>
<path d="M91.552 38.6722C91.552 38.6722 93.6661 38.2178 94.4341 39.2155" stroke="black" stroke-width="0.20197" stroke-miterlimit="10" stroke-linecap="round"/>
<path d="M88.7079 39.3397C88.7079 39.3397 88.1182 42.0663 88.3621 42.4905C88.606 42.9146 89.5416 42.6374 89.5416 42.6374" fill="white"/>
<path d="M88.7079 39.3397C88.7079 39.3397 88.1182 42.0663 88.3621 42.4905C88.606 42.9146 89.5416 42.6374 89.5416 42.6374" stroke="black" stroke-width="0.20197" stroke-miterlimit="10" stroke-linecap="round"/>
<path d="M87.0259 45.1556C87.0259 45.1556 89.5576 44.2815 90.8184 45.0546L87.0259 45.1556Z" fill="white"/>
<path d="M87.0259 45.1556C87.0259 45.1556 89.5576 44.2815 90.8184 45.0546" stroke="black" stroke-width="0.20197" stroke-miterlimit="10" stroke-linecap="round"/>
<path d="M42.4465 63.2855H19.2798V63.7054H42.4465V63.2855Z" fill="#0B065A"/>
<path d="M42.4465 64.5911H19.2798V65.011H42.4465V64.5911Z" fill="#0B065A"/>
<path d="M42.4465 65.8978H19.2798V66.3177H42.4465V65.8978Z" fill="#0B065A"/>
<path d="M42.4465 67.2035H19.2798V67.6234H42.4465V67.2035Z" fill="#0B065A"/>
<path d="M42.4465 68.5089H19.2798V68.9288H42.4465V68.5089Z" fill="#0B065A"/>
<path d="M31.8027 69.8158H19.2798V70.2357H31.8027V69.8158Z" fill="#0B065A"/>
<path d="M48.4454 29.3579H48.0507V18.5456C48.0507 17.7238 47.8889 16.91 47.5744 16.1508C47.2599 15.3916 46.799 14.7017 46.2179 14.1206C45.6368 13.5395 44.9469 13.0786 44.1877 12.7641C43.4284 12.4496 42.6147 12.2877 41.7929 12.2877H18.8856C18.0638 12.2877 17.25 12.4496 16.4908 12.7641C15.7315 13.0786 15.0417 13.5395 14.4606 14.1206C13.8795 14.7017 13.4185 15.3916 13.104 16.1508C12.7895 16.91 12.6277 17.7238 12.6277 18.5456V77.8627C12.6277 78.6845 12.7895 79.4982 13.104 80.2575C13.4185 81.0167 13.8795 81.7066 14.4606 82.2877C15.0417 82.8688 15.7315 83.3297 16.4908 83.6442C17.25 83.9587 18.0638 84.1206 18.8856 84.1206H41.7929C42.6147 84.1206 43.4284 83.9587 44.1877 83.6442C44.9469 83.3297 45.6368 82.8688 46.2179 82.2877C46.799 81.7066 47.2599 81.0167 47.5744 80.2575C47.8889 79.4982 48.0508 78.6845 48.0508 77.8627V37.0543H48.4454L48.4454 29.3579Z" fill="#FEFEFE" stroke="#0B065A" stroke-width="0.579275" stroke-miterlimit="10" stroke-linecap="round"/>
<path d="M41.897 14.0638H38.9068C39.0443 14.401 39.0968 14.7667 39.0597 15.1289C39.0225 15.4911 38.8969 15.8386 38.6938 16.1408C38.4907 16.443 38.2164 16.6906 37.8951 16.8618C37.5738 17.0331 37.2153 17.1226 36.8512 17.1227H23.7279C23.3638 17.1226 23.0053 17.0331 22.6839 16.8618C22.3626 16.6906 22.0883 16.443 21.8852 16.1408C21.6821 15.8386 21.5565 15.4911 21.5193 15.1289C21.4822 14.7667 21.5347 14.401 21.6722 14.0638H18.8794C18.2657 14.0638 17.658 14.1847 17.091 14.4196C16.524 14.6544 16.0088 14.9987 15.5748 15.4326C15.1409 15.8666 14.7966 16.3818 14.5618 16.9487C14.3269 17.5157 14.2061 18.1234 14.2061 18.7371V77.9672C14.2061 78.5809 14.3269 79.1886 14.5618 79.7556C14.7966 80.3226 15.1409 80.8378 15.5748 81.2717C16.0088 81.7057 16.524 82.0499 17.091 82.2848C17.658 82.5196 18.2657 82.6405 18.8794 82.6405H41.897C42.5107 82.6405 43.1184 82.5196 43.6854 82.2848C44.2524 82.0499 44.7676 81.7057 45.2015 81.2717C45.6355 80.8378 45.9797 80.3226 46.2146 79.7556C46.4494 79.1886 46.5703 78.5809 46.5703 77.9672V18.7371C46.5703 18.1234 46.4494 17.5157 46.2146 16.9487C45.9797 16.3818 45.6355 15.8666 45.2015 15.4326C44.7676 14.9987 44.2524 14.6544 43.6854 14.4196C43.1184 14.1847 42.5107 14.0638 41.897 14.0638Z" fill="#FEFEFE" stroke="#0B065A" stroke-width="0.579275" stroke-miterlimit="10" stroke-linecap="round"/>
<path d="M24.6561 29.2866H19.3489V23.9794H24.6561V29.2866ZM19.4967 29.1387H24.5079V24.1275H19.4967V29.1387Z" fill="#2E3338" stroke="black" stroke-width="0.147814"/>
<path d="M20.3066 26.8793L20.7652 26.3866L21.5297 26.9982L23.2791 25.2996L23.6984 25.7936L21.4958 27.9664L20.3066 26.8793Z" fill="#F17336"/>
<path d="M38.0062 25.3299C39.4984 25.3299 40.8494 25.3256 41.8274 25.3186C42.3164 25.3151 42.7123 25.3109 42.9859 25.3063C43.1227 25.304 43.2291 25.3016 43.3013 25.2991C43.3374 25.2978 43.3653 25.2965 43.3843 25.2952C43.3937 25.2945 43.4015 25.2938 43.4073 25.293C43.41 25.2926 43.4134 25.2921 43.4165 25.2912C43.4179 25.2908 43.4211 25.2899 43.4245 25.2879C43.4262 25.2869 43.4295 25.2849 43.4327 25.2814C43.436 25.2776 43.4404 25.2707 43.4404 25.261C43.4404 25.2513 43.436 25.2443 43.4327 25.2406C43.4295 25.237 43.4263 25.235 43.4245 25.234C43.4211 25.2321 43.4179 25.2311 43.4166 25.2307C43.4134 25.2298 43.41 25.2293 43.4073 25.2289C43.4015 25.2281 43.3937 25.2274 43.3843 25.2267C43.3653 25.2254 43.3375 25.2241 43.3014 25.2229C43.2291 25.2203 43.1228 25.2179 42.9861 25.2156C42.7125 25.211 42.3168 25.2068 41.8279 25.2033C40.85 25.1964 39.4989 25.1921 38.0062 25.1921C36.5135 25.1921 35.1624 25.1964 34.1843 25.2033C33.6953 25.2068 33.2995 25.211 33.0259 25.2156C32.8892 25.2179 32.7828 25.2203 32.7105 25.2229C32.6745 25.2241 32.6466 25.2254 32.6276 25.2267C32.6182 25.2274 32.6104 25.2281 32.6046 25.2289C32.6019 25.2293 32.5985 25.2298 32.5953 25.2307C32.594 25.2311 32.5908 25.2321 32.5874 25.234C32.5856 25.235 32.5824 25.237 32.5792 25.2406C32.5759 25.2443 32.5715 25.2513 32.5715 25.261C32.5715 25.2707 32.5759 25.2776 32.5792 25.2814C32.5824 25.2849 32.5857 25.2869 32.5874 25.2879C32.5908 25.2899 32.594 25.2908 32.5953 25.2912C32.5985 25.2921 32.6019 25.2926 32.6046 25.293C32.6104 25.2938 32.6182 25.2945 32.6276 25.2952C32.6466 25.2965 32.6745 25.2978 32.7106 25.2991C32.7829 25.3016 32.8893 25.304 33.0261 25.3063C33.2998 25.3109 33.6957 25.3151 34.1847 25.3186C35.1629 25.3256 36.5141 25.3299 38.0062 25.3299Z" fill="#0B065A" stroke="#2E3338" stroke-width="0.0607092"/>
<path d="M38.0062 26.4329C39.4984 26.4329 40.8494 26.4286 41.8274 26.4216C42.3164 26.4181 42.7123 26.414 42.9859 26.4093C43.1227 26.407 43.2291 26.4046 43.3013 26.4021C43.3374 26.4008 43.3653 26.3995 43.3843 26.3982C43.3937 26.3976 43.4015 26.3968 43.4073 26.396C43.41 26.3957 43.4134 26.3951 43.4165 26.3942C43.4179 26.3938 43.4211 26.3929 43.4245 26.3909C43.4262 26.39 43.4295 26.3879 43.4327 26.3844C43.436 26.3807 43.4404 26.3737 43.4404 26.364C43.4404 26.3543 43.436 26.3473 43.4327 26.3436C43.4295 26.34 43.4263 26.338 43.4245 26.337C43.4211 26.3351 43.4179 26.3342 43.4166 26.3338C43.4134 26.3329 43.41 26.3323 43.4073 26.3319C43.4015 26.3311 43.3937 26.3304 43.3843 26.3298C43.3653 26.3284 43.3375 26.3271 43.3014 26.3259C43.2291 26.3234 43.1228 26.3209 42.9861 26.3186C42.7125 26.314 42.3168 26.3099 41.8279 26.3064C40.85 26.2994 39.4989 26.2951 38.0062 26.2951C36.5135 26.2951 35.1624 26.2994 34.1843 26.3064C33.6953 26.3099 33.2995 26.314 33.0259 26.3186C32.8892 26.3209 32.7828 26.3234 32.7105 26.3259C32.6745 26.3271 32.6466 26.3284 32.6276 26.3298C32.6182 26.3304 32.6104 26.3311 32.6046 26.3319C32.6019 26.3323 32.5985 26.3329 32.5953 26.3338C32.594 26.3342 32.5908 26.3351 32.5874 26.337C32.5856 26.338 32.5824 26.34 32.5792 26.3436C32.5759 26.3473 32.5715 26.3543 32.5715 26.364C32.5715 26.3737 32.5759 26.3807 32.5792 26.3844C32.5824 26.388 32.5857 26.39 32.5874 26.3909C32.5908 26.3929 32.594 26.3938 32.5953 26.3942C32.5985 26.3951 32.6019 26.3957 32.6046 26.396C32.6104 26.3968 32.6182 26.3976 32.6276 26.3982C32.6466 26.3995 32.6745 26.4008 32.7106 26.4021C32.7829 26.4046 32.8893 26.407 33.0261 26.4093C33.2998 26.414 33.6957 26.4181 34.1847 26.4216C35.1629 26.4286 36.5141 26.4329 38.0062 26.4329Z" fill="#0B065A" stroke="#2E3338" stroke-width="0.0607092"/>
<path d="M38.0062 27.5356C39.4984 27.5356 40.8494 27.5312 41.8274 27.5243C42.3164 27.5208 42.7123 27.5166 42.9859 27.512C43.1227 27.5097 43.2291 27.5073 43.3013 27.5048C43.3374 27.5035 43.3653 27.5022 43.3843 27.5009C43.3937 27.5002 43.4015 27.4995 43.4073 27.4987C43.41 27.4983 43.4134 27.4978 43.4165 27.4969C43.4179 27.4965 43.4211 27.4955 43.4245 27.4936C43.4262 27.4926 43.4295 27.4906 43.4327 27.4871C43.436 27.4833 43.4404 27.4764 43.4404 27.4667C43.4404 27.4569 43.436 27.45 43.4327 27.4463C43.4295 27.4427 43.4263 27.4407 43.4245 27.4397C43.4211 27.4378 43.4179 27.4368 43.4166 27.4364C43.4134 27.4355 43.41 27.435 43.4073 27.4346C43.4015 27.4338 43.3937 27.4331 43.3843 27.4324C43.3653 27.4311 43.3375 27.4298 43.3014 27.4285C43.2291 27.426 43.1228 27.4236 42.9861 27.4213C42.7125 27.4167 42.3168 27.4125 41.8279 27.409C40.85 27.4021 39.4989 27.3977 38.0062 27.3977C36.5135 27.3977 35.1624 27.4021 34.1843 27.409C33.6953 27.4125 33.2995 27.4167 33.0259 27.4213C32.8892 27.4236 32.7828 27.426 32.7105 27.4285C32.6745 27.4298 32.6466 27.4311 32.6276 27.4324C32.6182 27.4331 32.6104 27.4338 32.6046 27.4346C32.6019 27.435 32.5985 27.4355 32.5953 27.4364C32.594 27.4368 32.5908 27.4378 32.5874 27.4397C32.5856 27.4407 32.5824 27.4427 32.5792 27.4462C32.5759 27.45 32.5715 27.4569 32.5715 27.4667C32.5715 27.4764 32.5759 27.4833 32.5792 27.4871C32.5824 27.4906 32.5857 27.4926 32.5874 27.4936C32.5908 27.4955 32.594 27.4965 32.5953 27.4969C32.5985 27.4978 32.6019 27.4983 32.6046 27.4987C32.6104 27.4995 32.6182 27.5002 32.6276 27.5009C32.6466 27.5022 32.6745 27.5035 32.7106 27.5048C32.7829 27.5073 32.8893 27.5097 33.0261 27.512C33.2998 27.5166 33.6957 27.5208 34.1847 27.5243C35.1629 27.5312 36.5141 27.5356 38.0062 27.5356Z" fill="#0B065A" stroke="#2E3338" stroke-width="0.0607092"/>
<path d="M38.0062 28.6385C39.4984 28.6385 40.8494 28.6341 41.8274 28.6272C42.3164 28.6237 42.7123 28.6195 42.9859 28.6149C43.1227 28.6126 43.2291 28.6102 43.3013 28.6077C43.3374 28.6064 43.3653 28.6051 43.3843 28.6038C43.3937 28.6031 43.4015 28.6024 43.4073 28.6016C43.41 28.6012 43.4134 28.6007 43.4165 28.5998C43.4179 28.5994 43.4211 28.5984 43.4245 28.5965C43.4262 28.5955 43.4295 28.5935 43.4327 28.59C43.436 28.5862 43.4404 28.5793 43.4404 28.5696C43.4404 28.5598 43.436 28.5529 43.4327 28.5492C43.4295 28.5456 43.4263 28.5436 43.4245 28.5426C43.4211 28.5407 43.4179 28.5397 43.4166 28.5393C43.4134 28.5384 43.41 28.5379 43.4073 28.5375C43.4015 28.5367 43.3937 28.536 43.3843 28.5353C43.3653 28.534 43.3375 28.5327 43.3014 28.5314C43.2291 28.5289 43.1228 28.5265 42.9861 28.5242C42.7125 28.5196 42.3168 28.5154 41.8279 28.5119C40.85 28.505 39.4989 28.5007 38.0062 28.5007C36.5135 28.5007 35.1624 28.505 34.1843 28.5119C33.6953 28.5154 33.2995 28.5196 33.0259 28.5242C32.8892 28.5265 32.7828 28.5289 32.7105 28.5314C32.6745 28.5327 32.6466 28.534 32.6276 28.5353C32.6182 28.536 32.6104 28.5367 32.6046 28.5375C32.6019 28.5379 32.5985 28.5384 32.5953 28.5393C32.594 28.5397 32.5908 28.5407 32.5874 28.5426C32.5856 28.5436 32.5824 28.5456 32.5792 28.5492C32.5759 28.5529 32.5715 28.5598 32.5715 28.5696C32.5715 28.5793 32.5759 28.5862 32.5792 28.59C32.5824 28.5935 32.5857 28.5955 32.5874 28.5965C32.5908 28.5984 32.594 28.5994 32.5953 28.5998C32.5985 28.6007 32.6019 28.6012 32.6046 28.6016C32.6104 28.6024 32.6182 28.6031 32.6276 28.6038C32.6466 28.6051 32.6745 28.6064 32.7106 28.6077C32.7829 28.6102 32.8893 28.6126 33.0261 28.6149C33.2998 28.6195 33.6957 28.6237 34.1847 28.6272C35.1629 28.6341 36.5141 28.6385 38.0062 28.6385Z" fill="#0B065A" stroke="#2E3338" stroke-width="0.0607092"/>
<path d="M24.6561 38.3719H19.3489V33.0647H24.6561V38.3719ZM19.4967 38.224H24.5079V33.2129H19.4967V38.224Z" fill="#2E3338" stroke="black" stroke-width="0.147814"/>
<path d="M38.0062 34.4153C39.4984 34.4153 40.8494 34.411 41.8274 34.404C42.3164 34.4005 42.7123 34.3964 42.9859 34.3918C43.1227 34.3895 43.2291 34.387 43.3013 34.3845C43.3374 34.3833 43.3653 34.382 43.3843 34.3806C43.3937 34.38 43.4015 34.3793 43.4073 34.3785C43.41 34.3781 43.4134 34.3775 43.4165 34.3766C43.4179 34.3762 43.4211 34.3753 43.4245 34.3734C43.4262 34.3724 43.4295 34.3704 43.4327 34.3668C43.436 34.3631 43.4404 34.3561 43.4404 34.3464C43.4404 34.3367 43.436 34.3297 43.4327 34.326C43.4295 34.3225 43.4263 34.3204 43.4245 34.3195C43.4211 34.3175 43.4179 34.3166 43.4166 34.3162C43.4134 34.3153 43.41 34.3147 43.4073 34.3144C43.4015 34.3136 43.3937 34.3128 43.3843 34.3122C43.3653 34.3109 43.3375 34.3096 43.3014 34.3083C43.2291 34.3058 43.1228 34.3034 42.9861 34.3011C42.7125 34.2964 42.3168 34.2923 41.8279 34.2888C40.85 34.2818 39.4989 34.2775 38.0062 34.2775C36.5135 34.2775 35.1624 34.2818 34.1843 34.2888C33.6953 34.2923 33.2995 34.2964 33.0259 34.3011C32.8892 34.3034 32.7828 34.3058 32.7105 34.3083C32.6745 34.3096 32.6466 34.3109 32.6276 34.3122C32.6182 34.3128 32.6104 34.3136 32.6046 34.3144C32.6019 34.3147 32.5985 34.3153 32.5953 34.3162C32.594 34.3166 32.5908 34.3175 32.5874 34.3195C32.5856 34.3204 32.5824 34.3225 32.5792 34.326C32.5759 34.3297 32.5715 34.3367 32.5715 34.3464C32.5715 34.3561 32.5759 34.3631 32.5792 34.3668C32.5824 34.3704 32.5857 34.3724 32.5874 34.3734C32.5908 34.3753 32.594 34.3762 32.5953 34.3766C32.5985 34.3775 32.6019 34.3781 32.6046 34.3785C32.6104 34.3793 32.6182 34.38 32.6276 34.3806C32.6466 34.382 32.6745 34.3833 32.7106 34.3845C32.7829 34.387 32.8893 34.3895 33.0261 34.3918C33.2998 34.3964 33.6957 34.4005 34.1847 34.404C35.1629 34.411 36.5141 34.4153 38.0062 34.4153Z" fill="#0B065A" stroke="#2E3338" stroke-width="0.0607092"/>
<path d="M38.0062 35.5183C39.4984 35.5183 40.8494 35.514 41.8274 35.5071C42.3164 35.5036 42.7123 35.4994 42.9859 35.4948C43.1227 35.4925 43.2291 35.4901 43.3013 35.4875C43.3374 35.4863 43.3653 35.485 43.3843 35.4837C43.3937 35.483 43.4015 35.4823 43.4073 35.4815C43.41 35.4811 43.4134 35.4806 43.4165 35.4797C43.4179 35.4793 43.4211 35.4783 43.4245 35.4764C43.4262 35.4754 43.4295 35.4734 43.4327 35.4698C43.436 35.4661 43.4404 35.4592 43.4404 35.4494C43.4404 35.4397 43.436 35.4328 43.4327 35.429C43.4295 35.4255 43.4263 35.4235 43.4245 35.4225C43.4211 35.4206 43.4179 35.4196 43.4166 35.4192C43.4134 35.4183 43.41 35.4178 43.4073 35.4174C43.4015 35.4166 43.3937 35.4159 43.3843 35.4152C43.3653 35.4139 43.3375 35.4126 43.3014 35.4113C43.2291 35.4088 43.1228 35.4064 42.9861 35.4041C42.7125 35.3995 42.3168 35.3953 41.8279 35.3918C40.85 35.3848 39.4989 35.3805 38.0062 35.3805C36.5135 35.3805 35.1624 35.3848 34.1843 35.3918C33.6953 35.3953 33.2995 35.3995 33.0259 35.4041C32.8892 35.4064 32.7828 35.4088 32.7105 35.4113C32.6745 35.4126 32.6466 35.4139 32.6276 35.4152C32.6182 35.4159 32.6104 35.4166 32.6046 35.4174C32.6019 35.4178 32.5985 35.4183 32.5953 35.4192C32.594 35.4196 32.5908 35.4206 32.5874 35.4225C32.5856 35.4235 32.5824 35.4255 32.5792 35.429C32.5759 35.4328 32.5715 35.4397 32.5715 35.4494C32.5715 35.4592 32.5759 35.4661 32.5792 35.4698C32.5824 35.4734 32.5857 35.4754 32.5874 35.4764C32.5908 35.4783 32.594 35.4793 32.5953 35.4797C32.5985 35.4806 32.6019 35.4811 32.6046 35.4815C32.6104 35.4823 32.6182 35.483 32.6276 35.4837C32.6466 35.485 32.6745 35.4863 32.7106 35.4875C32.7829 35.4901 32.8893 35.4925 33.0261 35.4948C33.2998 35.4994 33.6957 35.5036 34.1847 35.5071C35.1629 35.514 36.5141 35.5183 38.0062 35.5183Z" fill="#0B065A" stroke="#2E3338" stroke-width="0.0607092"/>
<path d="M38.0062 36.6209C39.4984 36.6209 40.8494 36.6166 41.8274 36.6096C42.3164 36.6061 42.7123 36.6019 42.9859 36.5973C43.1227 36.595 43.2291 36.5926 43.3013 36.5901C43.3374 36.5888 43.3653 36.5875 43.3843 36.5862C43.3937 36.5855 43.4015 36.5848 43.4073 36.584C43.41 36.5836 43.4134 36.5831 43.4165 36.5822C43.4179 36.5818 43.4211 36.5809 43.4245 36.5789C43.4262 36.578 43.4295 36.5759 43.4327 36.5724C43.436 36.5686 43.4404 36.5617 43.4404 36.552C43.4404 36.5423 43.436 36.5353 43.4327 36.5316C43.4295 36.528 43.4263 36.526 43.4245 36.525C43.4211 36.5231 43.4179 36.5221 43.4166 36.5218C43.4134 36.5209 43.41 36.5203 43.4073 36.5199C43.4015 36.5191 43.3937 36.5184 43.3843 36.5178C43.3653 36.5164 43.3375 36.5151 43.3014 36.5139C43.2291 36.5114 43.1228 36.5089 42.9861 36.5066C42.7125 36.502 42.3168 36.4979 41.8279 36.4944C40.85 36.4874 39.4989 36.4831 38.0062 36.4831C36.5135 36.4831 35.1624 36.4874 34.1843 36.4944C33.6953 36.4979 33.2995 36.502 33.0259 36.5066C32.8892 36.5089 32.7828 36.5114 32.7105 36.5139C32.6745 36.5151 32.6466 36.5164 32.6276 36.5178C32.6182 36.5184 32.6104 36.5191 32.6046 36.5199C32.6019 36.5203 32.5985 36.5209 32.5953 36.5218C32.594 36.5221 32.5908 36.5231 32.5874 36.525C32.5856 36.526 32.5824 36.528 32.5792 36.5316C32.5759 36.5353 32.5715 36.5423 32.5715 36.552C32.5715 36.5617 32.5759 36.5686 32.5792 36.5724C32.5824 36.5759 32.5857 36.578 32.5874 36.5789C32.5908 36.5809 32.594 36.5818 32.5953 36.5822C32.5985 36.5831 32.6019 36.5836 32.6046 36.584C32.6104 36.5848 32.6182 36.5855 32.6276 36.5862C32.6466 36.5875 32.6745 36.5888 32.7106 36.5901C32.7829 36.5926 32.8893 36.595 33.0261 36.5973C33.2998 36.6019 33.6957 36.6061 34.1847 36.6096C35.1629 36.6166 36.5141 36.6209 38.0062 36.6209Z" fill="#0B065A" stroke="#2E3338" stroke-width="0.0607092"/>
<path d="M38.0062 37.7238C39.4984 37.7238 40.8494 37.7195 41.8274 37.7125C42.3164 37.709 42.7123 37.7049 42.9859 37.7002C43.1227 37.6979 43.2291 37.6955 43.3013 37.693C43.3374 37.6917 43.3653 37.6904 43.3843 37.6891C43.3937 37.6884 43.4015 37.6877 43.4073 37.6869C43.41 37.6865 43.4134 37.686 43.4165 37.6851C43.4179 37.6847 43.4211 37.6838 43.4245 37.6818C43.4262 37.6809 43.4295 37.6788 43.4327 37.6753C43.436 37.6715 43.4404 37.6646 43.4404 37.6549C43.4404 37.6452 43.436 37.6382 43.4327 37.6345C43.4295 37.6309 43.4263 37.6289 43.4245 37.6279C43.4211 37.626 43.4179 37.6251 43.4166 37.6247C43.4134 37.6238 43.41 37.6232 43.4073 37.6228C43.4015 37.622 43.3937 37.6213 43.3843 37.6207C43.3653 37.6193 43.3375 37.618 43.3014 37.6168C43.2291 37.6143 43.1228 37.6118 42.9861 37.6095C42.7125 37.6049 42.3168 37.6008 41.8279 37.5973C40.85 37.5903 39.4989 37.586 38.0062 37.586C36.5135 37.586 35.1624 37.5903 34.1843 37.5973C33.6953 37.6008 33.2995 37.6049 33.0259 37.6095C32.8892 37.6118 32.7828 37.6143 32.7105 37.6168C32.6745 37.618 32.6466 37.6193 32.6276 37.6207C32.6182 37.6213 32.6104 37.622 32.6046 37.6228C32.6019 37.6232 32.5985 37.6238 32.5953 37.6247C32.594 37.6251 32.5908 37.626 32.5874 37.6279C32.5856 37.6289 32.5824 37.6309 32.5792 37.6345C32.5759 37.6382 32.5715 37.6452 32.5715 37.6549C32.5715 37.6646 32.5759 37.6716 32.5792 37.6753C32.5824 37.6788 32.5857 37.6809 32.5874 37.6818C32.5908 37.6838 32.594 37.6847 32.5953 37.6851C32.5985 37.686 32.6019 37.6865 32.6046 37.6869C32.6104 37.6877 32.6182 37.6884 32.6276 37.6891C32.6466 37.6904 32.6745 37.6917 32.7106 37.693C32.7829 37.6955 32.8893 37.6979 33.0261 37.7002C33.2998 37.7049 33.6957 37.709 34.1847 37.7125C35.1629 37.7195 36.5141 37.7238 38.0062 37.7238Z" fill="#0B065A" stroke="#2E3338" stroke-width="0.0607092"/>
<path d="M24.6561 47.4572H19.3489V42.15H24.6561V47.4572ZM19.4967 47.3093H24.5079V42.2982H19.4967V47.3093Z" fill="#2E3338" stroke="black" stroke-width="0.147814"/>
<path d="M38.0062 43.5006C39.4984 43.5006 40.8494 43.4963 41.8274 43.4893C42.3164 43.4859 42.7123 43.4817 42.9859 43.4771C43.1227 43.4748 43.2291 43.4724 43.3013 43.4698C43.3374 43.4686 43.3653 43.4673 43.3843 43.466C43.3937 43.4653 43.4015 43.4646 43.4073 43.4638C43.41 43.4634 43.4134 43.4629 43.4165 43.462C43.4179 43.4616 43.4211 43.4606 43.4245 43.4587C43.4262 43.4577 43.4295 43.4557 43.4327 43.4521C43.436 43.4484 43.4404 43.4414 43.4404 43.4317C43.4404 43.422 43.436 43.4151 43.4327 43.4113C43.4295 43.4078 43.4263 43.4058 43.4245 43.4048C43.4211 43.4028 43.4179 43.4019 43.4166 43.4015C43.4134 43.4006 43.41 43.4001 43.4073 43.3997C43.4015 43.3989 43.3937 43.3982 43.3843 43.3975C43.3653 43.3962 43.3375 43.3949 43.3014 43.3936C43.2291 43.3911 43.1228 43.3887 42.9861 43.3864C42.7125 43.3818 42.3168 43.3776 41.8279 43.3741C40.85 43.3671 39.4989 43.3628 38.0062 43.3628C36.5135 43.3628 35.1624 43.3671 34.1843 43.3741C33.6953 43.3776 33.2995 43.3818 33.0259 43.3864C32.8892 43.3887 32.7828 43.3911 32.7105 43.3936C32.6745 43.3949 32.6466 43.3962 32.6276 43.3975C32.6182 43.3982 32.6104 43.3989 32.6046 43.3997C32.6019 43.4001 32.5985 43.4006 32.5953 43.4015C32.594 43.4019 32.5908 43.4028 32.5874 43.4048C32.5856 43.4058 32.5824 43.4078 32.5792 43.4113C32.5759 43.4151 32.5715 43.422 32.5715 43.4317C32.5715 43.4415 32.5759 43.4484 32.5792 43.4521C32.5824 43.4557 32.5857 43.4577 32.5874 43.4587C32.5908 43.4606 32.594 43.4616 32.5953 43.462C32.5985 43.4629 32.6019 43.4634 32.6046 43.4638C32.6104 43.4646 32.6182 43.4653 32.6276 43.466C32.6466 43.4673 32.6745 43.4686 32.7106 43.4698C32.7829 43.4724 32.8893 43.4748 33.0261 43.4771C33.2998 43.4817 33.6957 43.4859 34.1847 43.4893C35.1629 43.4963 36.5141 43.5006 38.0062 43.5006Z" fill="#0B065A" stroke="#2E3338" stroke-width="0.0607092"/>
<path d="M38.0062 44.6037C39.4984 44.6037 40.8494 44.5994 41.8274 44.5924C42.3164 44.5889 42.7123 44.5847 42.9859 44.5801C43.1227 44.5778 43.2291 44.5754 43.3013 44.5729C43.3374 44.5716 43.3653 44.5703 43.3843 44.569C43.3937 44.5683 43.4015 44.5676 43.4073 44.5668C43.41 44.5664 43.4134 44.5659 43.4165 44.565C43.4179 44.5646 43.4211 44.5637 43.4245 44.5617C43.4262 44.5608 43.4295 44.5587 43.4327 44.5552C43.436 44.5514 43.4404 44.5445 43.4404 44.5348C43.4404 44.5251 43.436 44.5181 43.4327 44.5144C43.4295 44.5108 43.4263 44.5088 43.4245 44.5078C43.4211 44.5059 43.4179 44.5049 43.4166 44.5046C43.4134 44.5037 43.41 44.5031 43.4073 44.5027C43.4015 44.5019 43.3937 44.5012 43.3843 44.5005C43.3653 44.4992 43.3375 44.4979 43.3014 44.4967C43.2291 44.4941 43.1228 44.4917 42.9861 44.4894C42.7125 44.4848 42.3168 44.4806 41.8279 44.4772C40.85 44.4702 39.4989 44.4659 38.0062 44.4659C36.5135 44.4659 35.1624 44.4702 34.1843 44.4772C33.6953 44.4806 33.2995 44.4848 33.0259 44.4894C32.8892 44.4917 32.7828 44.4941 32.7105 44.4967C32.6745 44.4979 32.6466 44.4992 32.6276 44.5005C32.6182 44.5012 32.6104 44.5019 32.6046 44.5027C32.6019 44.5031 32.5985 44.5037 32.5953 44.5046C32.594 44.5049 32.5908 44.5059 32.5874 44.5078C32.5856 44.5088 32.5824 44.5108 32.5792 44.5144C32.5759 44.5181 32.5715 44.5251 32.5715 44.5348C32.5715 44.5445 32.5759 44.5514 32.5792 44.5552C32.5824 44.5587 32.5857 44.5608 32.5874 44.5617C32.5908 44.5637 32.594 44.5646 32.5953 44.565C32.5985 44.5659 32.6019 44.5664 32.6046 44.5668C32.6104 44.5676 32.6182 44.5683 32.6276 44.569C32.6466 44.5703 32.6745 44.5716 32.7106 44.5729C32.7829 44.5754 32.8893 44.5778 33.0261 44.5801C33.2998 44.5847 33.6957 44.5889 34.1847 44.5924C35.1629 44.5994 36.5141 44.6037 38.0062 44.6037Z" fill="#0B065A" stroke="#2E3338" stroke-width="0.0607092"/>
<path d="M38.0062 45.7062C39.4984 45.7062 40.8494 45.7019 41.8274 45.6949C42.3164 45.6914 42.7123 45.6873 42.9859 45.6827C43.1227 45.6804 43.2291 45.6779 43.3013 45.6754C43.3374 45.6742 43.3653 45.6729 43.3843 45.6715C43.3937 45.6709 43.4015 45.6702 43.4073 45.6693C43.41 45.669 43.4134 45.6684 43.4165 45.6675C43.4179 45.6671 43.4211 45.6662 43.4245 45.6643C43.4262 45.6633 43.4295 45.6613 43.4327 45.6577C43.436 45.654 43.4404 45.647 43.4404 45.6373C43.4404 45.6276 43.436 45.6206 43.4327 45.6169C43.4295 45.6134 43.4263 45.6113 43.4245 45.6104C43.4211 45.6084 43.4179 45.6075 43.4166 45.6071C43.4134 45.6062 43.41 45.6056 43.4073 45.6053C43.4015 45.6045 43.3937 45.6037 43.3843 45.6031C43.3653 45.6017 43.3375 45.6005 43.3014 45.5992C43.2291 45.5967 43.1228 45.5943 42.9861 45.592C42.7125 45.5873 42.3168 45.5832 41.8279 45.5797C40.85 45.5727 39.4989 45.5684 38.0062 45.5684C36.5135 45.5684 35.1624 45.5727 34.1843 45.5797C33.6953 45.5832 33.2995 45.5873 33.0259 45.592C32.8892 45.5943 32.7828 45.5967 32.7105 45.5992C32.6745 45.6005 32.6466 45.6017 32.6276 45.6031C32.6182 45.6037 32.6104 45.6045 32.6046 45.6053C32.6019 45.6056 32.5985 45.6062 32.5953 45.6071C32.594 45.6075 32.5908 45.6084 32.5874 45.6104C32.5856 45.6113 32.5824 45.6133 32.5792 45.6169C32.5759 45.6206 32.5715 45.6276 32.5715 45.6373C32.5715 45.647 32.5759 45.654 32.5792 45.6577C32.5824 45.6613 32.5857 45.6633 32.5874 45.6643C32.5908 45.6662 32.594 45.6671 32.5953 45.6675C32.5985 45.6684 32.6019 45.669 32.6046 45.6693C32.6104 45.6702 32.6182 45.6709 32.6276 45.6715C32.6466 45.6729 32.6745 45.6742 32.7106 45.6754C32.7829 45.6779 32.8893 45.6804 33.0261 45.6827C33.2998 45.6873 33.6957 45.6914 34.1847 45.6949C35.1629 45.7019 36.5141 45.7062 38.0062 45.7062Z" fill="#0B065A" stroke="#2E3338" stroke-width="0.0607092"/>
<path d="M38.0062 46.8091C39.4984 46.8091 40.8494 46.8048 41.8274 46.7978C42.3164 46.7943 42.7123 46.7902 42.9859 46.7856C43.1227 46.7833 43.2291 46.7808 43.3013 46.7783C43.3374 46.7771 43.3653 46.7758 43.3843 46.7744C43.3937 46.7738 43.4015 46.7731 43.4073 46.7723C43.41 46.7719 43.4134 46.7713 43.4165 46.7704C43.4179 46.77 43.4211 46.7691 43.4245 46.7672C43.4262 46.7662 43.4295 46.7642 43.4327 46.7606C43.436 46.7569 43.4404 46.7499 43.4404 46.7402C43.4404 46.7305 43.436 46.7235 43.4327 46.7198C43.4295 46.7163 43.4263 46.7142 43.4245 46.7133C43.4211 46.7113 43.4179 46.7104 43.4166 46.71C43.4134 46.7091 43.41 46.7085 43.4073 46.7082C43.4015 46.7074 43.3937 46.7066 43.3843 46.706C43.3653 46.7047 43.3375 46.7034 43.3014 46.7021C43.2291 46.6996 43.1228 46.6972 42.9861 46.6949C42.7125 46.6902 42.3168 46.6861 41.8279 46.6826C40.85 46.6756 39.4989 46.6713 38.0062 46.6713C36.5135 46.6713 35.1624 46.6756 34.1843 46.6826C33.6953 46.6861 33.2995 46.6902 33.0259 46.6949C32.8892 46.6972 32.7828 46.6996 32.7105 46.7021C32.6745 46.7034 32.6466 46.7047 32.6276 46.706C32.6182 46.7066 32.6104 46.7074 32.6046 46.7082C32.6019 46.7085 32.5985 46.7091 32.5953 46.71C32.594 46.7104 32.5908 46.7113 32.5874 46.7133C32.5856 46.7142 32.5824 46.7163 32.5792 46.7198C32.5759 46.7235 32.5715 46.7305 32.5715 46.7402C32.5715 46.7499 32.5759 46.7569 32.5792 46.7606C32.5824 46.7642 32.5857 46.7662 32.5874 46.7672C32.5908 46.7691 32.594 46.77 32.5953 46.7704C32.5985 46.7713 32.6019 46.7719 32.6046 46.7723C32.6104 46.7731 32.6182 46.7738 32.6276 46.7744C32.6466 46.7758 32.6745 46.7771 32.7106 46.7783C32.7829 46.7808 32.8893 46.7833 33.0261 46.7856C33.2998 46.7902 33.6957 46.7943 34.1847 46.7978C35.1629 46.8048 36.5141 46.8091 38.0062 46.8091Z" fill="#0B065A" stroke="#2E3338" stroke-width="0.0607092"/>
<path d="M24.6561 56.5425H19.3489V51.2354H24.6561V56.5425ZM19.4967 56.3947H24.5079V51.3835H19.4967V56.3947Z" fill="#2E3338" stroke="black" stroke-width="0.147814"/>
<path d="M38.0062 52.586C39.4984 52.586 40.8494 52.5817 41.8274 52.5747C42.3164 52.5712 42.7123 52.567 42.9859 52.5624C43.1227 52.5601 43.2291 52.5577 43.3013 52.5552C43.3374 52.5539 43.3653 52.5526 43.3843 52.5513C43.3937 52.5506 43.4015 52.5499 43.4073 52.5491C43.41 52.5487 43.4134 52.5482 43.4165 52.5473C43.4179 52.5469 43.4211 52.546 43.4245 52.544C43.4262 52.5431 43.4295 52.541 43.4327 52.5375C43.436 52.5337 43.4404 52.5268 43.4404 52.5171C43.4404 52.5074 43.436 52.5004 43.4327 52.4967C43.4295 52.4931 43.4263 52.4911 43.4245 52.4901C43.4211 52.4882 43.4179 52.4872 43.4166 52.4869C43.4134 52.486 43.41 52.4854 43.4073 52.485C43.4015 52.4842 43.3937 52.4835 43.3843 52.4828C43.3653 52.4815 43.3375 52.4802 43.3014 52.479C43.2291 52.4764 43.1228 52.474 42.9861 52.4717C42.7125 52.4671 42.3168 52.4629 41.8279 52.4595C40.85 52.4525 39.4989 52.4482 38.0062 52.4482C36.5135 52.4482 35.1624 52.4525 34.1843 52.4595C33.6953 52.4629 33.2995 52.4671 33.0259 52.4717C32.8892 52.474 32.7828 52.4764 32.7105 52.479C32.6745 52.4802 32.6466 52.4815 32.6276 52.4828C32.6182 52.4835 32.6104 52.4842 32.6046 52.485C32.6019 52.4854 32.5985 52.486 32.5953 52.4869C32.594 52.4872 32.5908 52.4882 32.5874 52.4901C32.5856 52.4911 32.5824 52.4931 32.5792 52.4967C32.5759 52.5004 32.5715 52.5074 32.5715 52.5171C32.5715 52.5268 32.5759 52.5337 32.5792 52.5375C32.5824 52.541 32.5857 52.5431 32.5874 52.544C32.5908 52.546 32.594 52.5469 32.5953 52.5473C32.5985 52.5482 32.6019 52.5487 32.6046 52.5491C32.6104 52.5499 32.6182 52.5506 32.6276 52.5513C32.6466 52.5526 32.6745 52.5539 32.7106 52.5552C32.7829 52.5577 32.8893 52.5601 33.0261 52.5624C33.2998 52.567 33.6957 52.5712 34.1847 52.5747C35.1629 52.5817 36.5141 52.586 38.0062 52.586Z" fill="#0B065A" stroke="#2E3338" stroke-width="0.0607092"/>
<path d="M38.0062 53.689C39.4984 53.689 40.8494 53.6847 41.8274 53.6777C42.3164 53.6742 42.7123 53.6701 42.9859 53.6654C43.1227 53.6631 43.2291 53.6607 43.3013 53.6582C43.3374 53.6569 43.3653 53.6556 43.3843 53.6543C43.3937 53.6537 43.4015 53.6529 43.4073 53.6521C43.41 53.6518 43.4134 53.6512 43.4165 53.6503C43.4179 53.6499 43.4211 53.649 43.4245 53.647C43.4262 53.6461 43.4295 53.6441 43.4327 53.6405C43.436 53.6368 43.4404 53.6298 43.4404 53.6201C43.4404 53.6104 43.436 53.6034 43.4327 53.5997C43.4295 53.5961 43.4263 53.5941 43.4245 53.5931C43.4211 53.5912 43.4179 53.5903 43.4166 53.5899C43.4134 53.589 43.41 53.5884 43.4073 53.5881C43.4015 53.5872 43.3937 53.5865 43.3843 53.5859C43.3653 53.5845 43.3375 53.5832 43.3014 53.582C43.2291 53.5795 43.1228 53.577 42.9861 53.5747C42.7125 53.5701 42.3168 53.566 41.8279 53.5625C40.85 53.5555 39.4989 53.5512 38.0062 53.5512C36.5135 53.5512 35.1624 53.5555 34.1843 53.5625C33.6953 53.566 33.2995 53.5701 33.0259 53.5747C32.8892 53.577 32.7828 53.5795 32.7105 53.582C32.6745 53.5832 32.6466 53.5845 32.6276 53.5859C32.6182 53.5865 32.6104 53.5872 32.6046 53.5881C32.6019 53.5884 32.5985 53.589 32.5953 53.5899C32.594 53.5903 32.5908 53.5912 32.5874 53.5931C32.5856 53.5941 32.5824 53.5961 32.5792 53.5997C32.5759 53.6034 32.5715 53.6104 32.5715 53.6201C32.5715 53.6298 32.5759 53.6368 32.5792 53.6405C32.5824 53.6441 32.5857 53.6461 32.5874 53.647C32.5908 53.649 32.594 53.6499 32.5953 53.6503C32.5985 53.6512 32.6019 53.6518 32.6046 53.6521C32.6104 53.6529 32.6182 53.6537 32.6276 53.6543C32.6466 53.6556 32.6745 53.6569 32.7106 53.6582C32.7829 53.6607 32.8893 53.6631 33.0261 53.6654C33.2998 53.6701 33.6957 53.6742 34.1847 53.6777C35.1629 53.6847 36.5141 53.689 38.0062 53.689Z" fill="#0B065A" stroke="#2E3338" stroke-width="0.0607092"/>
<path d="M38.0062 54.7915C39.4984 54.7915 40.8494 54.7872 41.8274 54.7802C42.3164 54.7768 42.7123 54.7726 42.9859 54.768C43.1227 54.7657 43.2291 54.7633 43.3013 54.7607C43.3374 54.7595 43.3653 54.7582 43.3843 54.7569C43.3937 54.7562 43.4015 54.7555 43.4073 54.7547C43.41 54.7543 43.4134 54.7537 43.4165 54.7528C43.4179 54.7525 43.4211 54.7515 43.4245 54.7496C43.4262 54.7486 43.4295 54.7466 43.4327 54.743C43.436 54.7393 43.4404 54.7323 43.4404 54.7226C43.4404 54.7129 43.436 54.706 43.4327 54.7022C43.4295 54.6987 43.4263 54.6966 43.4245 54.6957C43.4211 54.6937 43.4179 54.6928 43.4166 54.6924C43.4134 54.6915 43.41 54.691 43.4073 54.6906C43.4015 54.6898 43.3937 54.6891 43.3843 54.6884C43.3653 54.6871 43.3375 54.6858 43.3014 54.6845C43.2291 54.682 43.1228 54.6796 42.9861 54.6773C42.7125 54.6727 42.3168 54.6685 41.8279 54.665C40.85 54.658 39.4989 54.6537 38.0062 54.6537C36.5135 54.6537 35.1624 54.658 34.1843 54.665C33.6953 54.6685 33.2995 54.6727 33.0259 54.6773C32.8892 54.6796 32.7828 54.682 32.7105 54.6845C32.6745 54.6858 32.6466 54.6871 32.6276 54.6884C32.6182 54.6891 32.6104 54.6898 32.6046 54.6906C32.6019 54.691 32.5985 54.6915 32.5953 54.6924C32.594 54.6928 32.5908 54.6937 32.5874 54.6957C32.5856 54.6966 32.5824 54.6987 32.5792 54.7022C32.5759 54.706 32.5715 54.7129 32.5715 54.7226C32.5715 54.7323 32.5759 54.7393 32.5792 54.743C32.5824 54.7466 32.5857 54.7486 32.5874 54.7496C32.5908 54.7515 32.594 54.7525 32.5953 54.7528C32.5985 54.7537 32.6019 54.7543 32.6046 54.7547C32.6104 54.7555 32.6182 54.7562 32.6276 54.7569C32.6466 54.7582 32.6745 54.7595 32.7106 54.7607C32.7829 54.7633 32.8893 54.7657 33.0261 54.768C33.2998 54.7726 33.6957 54.7768 34.1847 54.7802C35.1629 54.7872 36.5141 54.7915 38.0062 54.7915Z" fill="#0B065A" stroke="#2E3338" stroke-width="0.0607092"/>
<path d="M38.0062 55.8944C39.4984 55.8944 40.8494 55.8901 41.8274 55.8831C42.3164 55.8797 42.7123 55.8755 42.9859 55.8709C43.1227 55.8686 43.2291 55.8662 43.3013 55.8636C43.3374 55.8624 43.3653 55.8611 43.3843 55.8598C43.3937 55.8591 43.4015 55.8584 43.4073 55.8576C43.41 55.8572 43.4134 55.8566 43.4165 55.8557C43.4179 55.8554 43.4211 55.8544 43.4245 55.8525C43.4262 55.8515 43.4295 55.8495 43.4327 55.8459C43.436 55.8422 43.4404 55.8352 43.4404 55.8255C43.4404 55.8158 43.436 55.8089 43.4327 55.8051C43.4295 55.8016 43.4263 55.7996 43.4245 55.7986C43.4211 55.7966 43.4179 55.7957 43.4166 55.7953C43.4134 55.7944 43.41 55.7939 43.4073 55.7935C43.4015 55.7927 43.3937 55.792 43.3843 55.7913C43.3653 55.79 43.3375 55.7887 43.3014 55.7874C43.2291 55.7849 43.1228 55.7825 42.9861 55.7802C42.7125 55.7756 42.3168 55.7714 41.8279 55.7679C40.85 55.7609 39.4989 55.7566 38.0062 55.7566C36.5135 55.7566 35.1624 55.7609 34.1843 55.7679C33.6953 55.7714 33.2995 55.7756 33.0259 55.7802C32.8892 55.7825 32.7828 55.7849 32.7105 55.7874C32.6745 55.7887 32.6466 55.79 32.6276 55.7913C32.6182 55.792 32.6104 55.7927 32.6046 55.7935C32.6019 55.7939 32.5985 55.7944 32.5953 55.7953C32.594 55.7957 32.5908 55.7966 32.5874 55.7986C32.5856 55.7996 32.5824 55.8016 32.5792 55.8051C32.5759 55.8089 32.5715 55.8158 32.5715 55.8255C32.5715 55.8352 32.5759 55.8422 32.5792 55.8459C32.5824 55.8495 32.5857 55.8515 32.5874 55.8525C32.5908 55.8544 32.594 55.8554 32.5953 55.8558C32.5985 55.8566 32.6019 55.8572 32.6046 55.8576C32.6104 55.8584 32.6182 55.8591 32.6276 55.8598C32.6466 55.8611 32.6745 55.8624 32.7106 55.8636C32.7829 55.8662 32.8893 55.8686 33.0261 55.8709C33.2998 55.8755 33.6957 55.8797 34.1847 55.8831C35.1629 55.8901 36.5141 55.8944 38.0062 55.8944Z" fill="#0B065A" stroke="#2E3338" stroke-width="0.0607092"/>
<path d="M29.7161 27.5838H27.4457L26.9608 28.7072H26.5824L28.4153 24.4974H28.7464L30.5734 28.7072H30.195L29.7161 27.5838ZM29.5742 27.2645L28.5809 24.9408L27.5817 27.2645H29.5742Z" fill="black"/>
<path d="M29.2786 35.5456C29.519 35.6087 29.7062 35.7289 29.8403 35.9063C29.9743 36.0797 30.0413 36.2985 30.0413 36.5626C30.0413 36.9292 29.9211 37.211 29.6806 37.4081C29.4402 37.6052 29.0992 37.7037 28.6578 37.7037H26.9727V33.494H28.5986C29.0283 33.494 29.3594 33.5906 29.5919 33.7837C29.8245 33.9729 29.9408 34.2449 29.9408 34.5996C29.9408 34.8283 29.8817 35.0234 29.7634 35.185C29.6491 35.3466 29.4875 35.4668 29.2786 35.5456ZM27.3333 35.4037H28.5454C28.8844 35.4037 29.1406 35.3348 29.314 35.1968C29.4875 35.0588 29.5742 34.8578 29.5742 34.5937C29.5742 34.0695 29.2313 33.8073 28.5454 33.8073H27.3333V35.4037ZM28.6341 37.3904C28.9889 37.3904 29.249 37.3234 29.4146 37.1893C29.5841 37.0553 29.6688 36.8504 29.6688 36.5744C29.6688 36.0108 29.3239 35.7289 28.6341 35.7289H27.3333V37.3904H28.6341Z" fill="black"/>
<path d="M28.7228 46.7477C28.3326 46.7477 27.9936 46.663 27.7058 46.4935C27.4181 46.3201 27.1973 46.0717 27.0436 45.7485C26.8899 45.4214 26.813 45.0351 26.813 44.5897C26.813 44.1482 26.8899 43.7658 27.0436 43.4426C27.1973 43.1194 27.4181 42.873 27.7058 42.7035C27.9936 42.5301 28.3326 42.4434 28.7228 42.4434C29.0145 42.4434 29.2805 42.4907 29.521 42.5853C29.7654 42.6759 29.9763 42.8119 30.1536 42.9933L29.9999 43.283C29.7989 43.1017 29.5979 42.9716 29.3968 42.8927C29.1958 42.81 28.9711 42.7686 28.7228 42.7686C28.238 42.7686 27.8615 42.9282 27.5935 43.2475C27.3255 43.5628 27.1914 44.0102 27.1914 44.5897C27.1914 45.173 27.3235 45.6244 27.5876 45.9436C27.8556 46.2629 28.234 46.4225 28.7228 46.4225C28.9711 46.4225 29.1958 46.3831 29.3968 46.3043C29.5979 46.2215 29.7989 46.0895 29.9999 45.9082L30.1536 46.1979C29.9763 46.3792 29.7654 46.5171 29.521 46.6118C29.2805 46.7024 29.0145 46.7477 28.7228 46.7477Z" fill="black"/>
<path d="M26.9727 51.9839H28.3266C28.9967 51.9839 29.5131 52.1652 29.8757 52.5278C30.2384 52.8904 30.4197 53.4088 30.4197 54.0828C30.4197 54.7568 30.2364 55.2772 29.8698 55.6437C29.5072 56.0103 28.9928 56.1936 28.3266 56.1936H26.9727V51.9839ZM28.3089 55.8743C28.8805 55.8743 29.3101 55.7245 29.5979 55.425C29.8856 55.1215 30.0295 54.6741 30.0295 54.0828C30.0295 52.8964 29.4559 52.3031 28.3089 52.3031H27.3392V55.8743H28.3089Z" fill="black"/>
</svg>
