<svg width="73" height="67" viewBox="0 0 73 67" fill="none" xmlns="http://www.w3.org/2000/svg">
<path d="M50.6843 51.503C50.6843 51.503 68.6183 50.2831 71.668 56.4437C74.7178 62.6043 51.0509 65.1057 43.8527 63.6414C36.6545 62.1771 25.0038 58.6704 25.0038 58.6704L50.6843 51.503Z" fill="#F17336" stroke="black" stroke-width="0.20197" stroke-miterlimit="10" stroke-linecap="round"/>
<path d="M50.9399 65.5328C50.1002 65.3495 41.6098 65.3202 32.457 65.3C32.457 65.3 32.6858 61.8195 32.457 60.8319C33.3842 61.1421 34.3485 61.328 35.3245 61.3848C35.3245 61.3848 37.5063 60.1826 38.9726 59.7988C45.0317 58.2128 41.6876 62.4835 46.7308 62.6653C48.6298 62.734 50.6576 63.7332 50.6576 63.7332C53.0227 63.4383 51.8169 65.7231 50.9399 65.5328Z" fill="white" stroke="black" stroke-width="0.20197" stroke-miterlimit="10" stroke-linecap="round"/>
<path d="M33.0554 66.3256C26.9175 66.3114 20.6119 65.9595 15.8545 65.2274C4.45885 63.4738 -4.45865 59.5545 3.34953 54.7355C11.1577 49.9165 24.304 52.479 24.304 52.479C23.8667 54.3609 28.1333 58.4523 33.176 60.1034C34.0253 62.9744 33.0554 66.3256 33.0554 66.3256Z" fill="#F17336" stroke="black" stroke-width="0.20197" stroke-miterlimit="10" stroke-linecap="round"/>
<path d="M23.6626 28.7889C23.6626 28.7889 22.3811 32.0441 20.7341 36.8021C19.087 41.56 17.0738 50.4507 25.0037 49.9624C32.9336 49.4742 29.0315 29.0711 23.6626 28.7889Z" fill="white" stroke="black" stroke-width="0.20197" stroke-miterlimit="10" stroke-linecap="round"/>
<path d="M34.5655 18.2925C34.5655 18.2925 34.8857 24.5263 33.9707 26.3561C33.0558 28.186 41.6567 25.8987 41.6567 25.8987C41.6567 25.8987 40.3298 21.1407 41.1079 17.984C41.886 14.8272 34.5655 18.2925 34.5655 18.2925Z" fill="white" stroke="black" stroke-width="0.20197" stroke-miterlimit="10" stroke-linecap="round"/>
<path d="M34.7182 21.8613C34.7182 21.8613 36.804 23.3827 38.651 23.0009C40.498 22.6192 40.8182 22.1319 40.8182 22.1319C40.8182 22.1319 40.6808 20.0885 40.7263 19.7835C40.7717 19.4786 34.7177 19.8749 34.7177 19.8749C34.7177 19.8749 34.8747 20.7288 34.7182 21.8613Z" fill="#E3E3E3"/>
<path d="M30.3112 8.10201C30.3112 8.10201 30.0365 13.8668 30.8601 16.3369C31.6836 18.807 36.0295 22.3202 40.1002 20.9938C44.1709 19.6673 45.407 17.2472 46.0937 14.6443C46.7804 12.0414 46.6425 6.18077 45.7276 5.58597C44.8127 4.99117 30.9514 1.78892 30.3112 8.10201Z" fill="white" stroke="black" stroke-width="0.20197" stroke-miterlimit="10" stroke-linecap="round"/>
<path d="M30.0962 11.4572C30.8574 11.2187 31.5525 10.8063 32.1265 10.2525C32.892 9.5153 33.2879 8.31963 33.9014 7.40067C35.3419 5.23504 33.817 8.15402 35.4944 9.79049C37.1718 11.427 46.4437 11.1538 46.4437 11.1538C46.4437 11.1538 48.0297 11.4259 46.932 7.06691C45.8343 2.70789 42.8754 0.661926 40.1306 0.661926C37.3859 0.661926 33.4818 0.875512 31.7433 3.31532C30.0049 5.75512 27.9003 10.4216 29.0894 11.7329C30.2785 13.0442 30.0962 11.4572 30.0962 11.4572Z" fill="#3F3D56"/>
<path d="M41.1584 23.5574C41.1584 23.5574 39.6895 25.1666 35.9379 24.8005C35.9379 24.8005 29.1669 26.2648 27.0628 26.5849C24.9588 26.905 23.494 27.7286 23.494 28.186C23.494 28.6435 26.2393 34.9111 24.9583 42.6426C23.6773 50.374 46.0016 44.4714 46.0016 44.4714C46.0016 44.4714 45.6052 32.2103 52.1476 28.5046C52.1476 28.5046 53.0928 27.5453 51.2629 27.0641C49.4331 26.5829 43.8198 26.5561 42.6317 24.6616C41.5042 22.8641 41.1584 23.5574 41.1584 23.5574Z" fill="#654EF9" stroke="black" stroke-width="0.20197" stroke-miterlimit="10" stroke-linecap="round"/>
<path d="M41.6595 25.314C41.6595 25.314 41.0495 26.6965 38.0402 26.7172L41.6595 25.314Z" fill="#4052F2"/>
<path d="M41.6595 25.314C41.6595 25.314 41.0495 26.6965 38.0402 26.7172" stroke="black" stroke-width="0.20197" stroke-miterlimit="10" stroke-linecap="round"/>
<path d="M41.3322 33.9588L37.5336 35.7053C36.4662 32.8778 35.5083 29.9583 35.2316 29.7669C34.0991 28.9838 31.986 26.5859 31.9577 25.6598C31.9315 24.7853 32.3551 24.7707 32.5384 24.4985C32.7217 24.2264 33.0766 24.1577 33.2594 23.883C33.3462 23.7532 32.9307 23.168 32.4136 22.2329C32.4136 22.2329 31.9592 19.7047 32.0188 19.3134C32.0693 18.9872 32.3697 18.295 32.7302 18.9514C32.9408 19.3341 33.5972 21.678 33.5972 21.678C34.6247 23.1221 35.3008 24.1269 36.1001 23.9941C37.3811 23.7805 39.0888 22.4687 39.3635 22.2268C39.6381 21.985 40.1037 22.9337 39.2301 23.7851C38.3566 24.6364 39.1196 27.0767 37.9295 28.6626C37.9295 28.6591 39.6397 31.2645 41.3322 33.9588Z" fill="white" stroke="black" stroke-width="0.20197" stroke-miterlimit="10" stroke-linecap="round"/>
<path d="M38.7588 30.1532C38.7588 30.1532 37.4323 31.5054 35.4343 29.7871C35.4343 29.7871 36.4103 32.1663 36.5174 32.8217C36.6244 33.4771 39.7196 31.7109 39.7196 31.7109L38.7588 30.1532Z" fill="#E3E3E3"/>
<path d="M53.6736 32.7157C52.4537 35.4599 48.0619 51.196 45.3777 50.5269C43.5887 50.0801 40.282 41.9371 38.1497 36.285L41.9477 34.5385C43.4701 36.9591 44.9798 39.4514 45.2252 40.1876C45.2252 40.1876 47.1772 31.2504 52.1487 28.5061C52.1487 28.5061 54.8935 29.9699 53.6736 32.7157Z" fill="white" stroke="black" stroke-width="0.20197" stroke-miterlimit="10" stroke-linecap="round"/>
<path d="M65.4464 56.4134C65.4464 56.4134 61.7373 52.7375 48.4708 57.145" stroke="black" stroke-width="0.20197" stroke-miterlimit="10" stroke-linecap="round"/>
<path d="M10.0898 57.7267C10.0898 57.7267 15.5562 54.9799 24.306 57.145" stroke="black" stroke-width="0.20197" stroke-miterlimit="10" stroke-linecap="round"/>
<path d="M36.7061 1.44604C36.7061 1.44604 34.7924 7.40064 37.0514 9.93436" stroke="white" stroke-width="0.100985" stroke-miterlimit="10" stroke-linecap="round"/>
<path d="M38.5458 1.44604C38.5458 1.44604 37.1123 5.73337 38.3943 8.33576" stroke="white" stroke-width="0.100985" stroke-miterlimit="10" stroke-linecap="round"/>
<path d="M41.1281 4.12781C41.1281 4.12781 40.4161 7.52343 42.3904 10.3697" stroke="white" stroke-width="0.100985" stroke-miterlimit="10" stroke-linecap="round"/>
<path d="M43.9342 6.66858C43.9342 6.66858 43.6555 9.23613 44.8289 10.2536" stroke="white" stroke-width="0.100985" stroke-miterlimit="10" stroke-linecap="round"/>
<path d="M35.6052 32.3733C35.6052 32.3733 39.4457 31.7089 40.2768 30.748C40.2768 30.748 44.3561 36.5122 45.0877 38.8C45.8194 41.0879 40.2404 43.3292 39.3694 42.0937C38.4984 40.8581 35.6052 32.3733 35.6052 32.3733Z" fill="white" stroke="black" stroke-width="0.20197" stroke-miterlimit="10" stroke-linecap="round"/>
<path d="M52.3925 38.3269H22.5029V58.0296H52.3925V38.3269Z" fill="#454545" stroke="black" stroke-width="0.20197" stroke-miterlimit="10"/>
<path d="M52.3925 58.0297H22.5029V59.3107H52.3925V58.0297Z" fill="#454545" stroke="black" stroke-width="0.20197" stroke-miterlimit="10"/>
<path d="M37.9436 49.1389C39.2322 49.1389 40.2769 48.6576 40.2769 48.0639C40.2769 47.4702 39.2322 46.9889 37.9436 46.9889C36.655 46.9889 35.6104 47.4702 35.6104 48.0639C35.6104 48.6576 36.655 49.1389 37.9436 49.1389Z" fill="#FFF0E6"/>
<path d="M33.2593 23.8805L33.3916 24.4193" stroke="black" stroke-width="0.20197" stroke-miterlimit="10" stroke-linecap="round"/>
<path d="M24.3058 28.3536C24.3058 28.3536 26.2245 31.1757 26.1018 36.5966L24.3058 28.3536Z" fill="#4052F2"/>
<path d="M24.3058 28.3536C24.3058 28.3536 26.2245 31.1757 26.1018 36.5966" stroke="black" stroke-width="0.20197" stroke-miterlimit="10" stroke-linecap="round"/>
<path d="M51.5078 28.0183C51.5078 28.0183 48.7939 28.9332 46.5267 33.6301L51.5078 28.0183Z" fill="#4052F2"/>
<path d="M51.5078 28.0183C51.5078 28.0183 48.7939 28.9332 46.5267 33.6301" stroke="black" stroke-width="0.20197" stroke-miterlimit="10" stroke-linecap="round"/>
<path d="M33.6657 13.887C33.8902 13.887 34.0722 13.6329 34.0722 13.3195C34.0722 13.006 33.8902 12.752 33.6657 12.752C33.4413 12.752 33.2593 13.006 33.2593 13.3195C33.2593 13.6329 33.4413 13.887 33.6657 13.887Z" fill="black"/>
<path d="M41.6954 13.9268C41.9199 13.9268 42.1019 13.6727 42.1019 13.3593C42.1019 13.0458 41.9199 12.7917 41.6954 12.7917C41.4709 12.7917 41.2889 13.0458 41.2889 13.3593C41.2889 13.6727 41.4709 13.9268 41.6954 13.9268Z" fill="black"/>
<path d="M32.0741 10.4227C32.0741 10.4227 33.6394 8.4924 34.983 10.0471L32.0741 10.4227Z" fill="white"/>
<path d="M32.0741 10.4227C32.0741 10.4227 33.6394 8.4924 34.983 10.0471" stroke="black" stroke-width="0.20197" stroke-miterlimit="10" stroke-linecap="round"/>
<path d="M40.6616 11.5921C40.6616 11.5921 42.7758 11.1377 43.5437 12.1354L40.6616 11.5921Z" fill="white"/>
<path d="M40.6616 11.5921C40.6616 11.5921 42.7758 11.1377 43.5437 12.1354" stroke="black" stroke-width="0.20197" stroke-miterlimit="10" stroke-linecap="round"/>
<path d="M37.8174 12.2596C37.8174 12.2596 37.2277 14.9862 37.4716 15.4103C37.7155 15.8345 38.6511 15.5573 38.6511 15.5573" fill="white"/>
<path d="M37.8174 12.2596C37.8174 12.2596 37.2277 14.9862 37.4716 15.4103C37.7155 15.8345 38.6511 15.5573 38.6511 15.5573" stroke="black" stroke-width="0.20197" stroke-miterlimit="10" stroke-linecap="round"/>
<path d="M36.1354 18.0754C36.1354 18.0754 38.6671 17.2014 39.9279 17.9744L36.1354 18.0754Z" fill="white"/>
<path d="M36.1354 18.0754C36.1354 18.0754 38.6671 17.2014 39.9279 17.9744" stroke="black" stroke-width="0.20197" stroke-miterlimit="10" stroke-linecap="round"/>
</svg>
