<svg width="107" height="122" viewBox="0 0 107 122" fill="none" xmlns="http://www.w3.org/2000/svg">
<path d="M84.0073 107.854C69.4429 112.93 53.3749 111.228 40.1005 103.375C33.5491 99.4992 25.6175 95.1743 18.8849 92.5665C4.43503 86.9697 -10.6731 56.9518 12.3228 49.2191C35.3188 41.4863 26.615 27.7273 48.2335 18.8844C69.852 10.0415 64.8441 32.3107 87.7022 35.214C110.56 38.1173 110.469 87.6642 96.618 100.653C93.1554 103.9 88.717 106.212 84.0073 107.854Z" fill="#FEEED3"/>
<path opacity="0.5" d="M33.4066 120.777C31.7071 120.52 29.9941 120.362 28.2763 120.304C25.2519 120.201 20.4918 119.727 20.5332 117.753C20.5911 114.859 23.3102 111.625 29.3552 112.472C35.4002 113.319 48.0006 111.245 48.7342 115.163C49.4243 118.848 46.8469 122.797 33.4066 120.777Z" fill="#FEEED3"/>
<path d="M40.942 88.4429C40.709 89.2343 40.4759 90.2853 40.2474 91.5118C38.7713 99.4326 37.4769 114.683 37.4769 114.683L33.9269 114.613C33.9269 114.613 33.4589 113.312 34.0597 111.792C34.4753 110.739 33.4359 102.843 32.7623 97.186C32.5741 95.6132 32.4129 94.2124 32.3231 93.181C32.2682 92.5667 32.2378 92.0832 32.2388 91.7713C32.2518 89.0542 33.6729 85.9633 33.8705 84.8695C34.0542 83.854 32.7777 78.0446 32.5956 77.2237C32.5811 77.1613 32.5736 77.1279 32.5736 77.1279L42.0049 76.3739C42.0049 76.3739 42.681 82.5431 40.942 88.4429Z" fill="white" stroke="black" stroke-width="0.199603" stroke-linecap="round" stroke-linejoin="round"/>
<path d="M34.8452 78.3016L34.6691 82.1939C34.6691 82.1939 39.5144 82.8456 42.0514 80.1479L41.9636 77.2587L34.8452 78.3016Z" fill="#E3E3E3"/>
<path d="M34.2544 89.0757C34.0843 89.6521 33.9146 90.3667 33.7469 91.1865C33.6396 91.707 33.5333 92.2694 33.4291 92.8667C33.2 94.1716 32.9755 95.6407 32.7614 97.1861C31.6461 105.216 30.7888 115.316 30.7888 115.316L27.2388 115.247C27.2388 115.247 26.7708 113.945 27.3721 112.425C27.9734 110.905 25.5382 95.1222 25.5507 92.4051C25.5507 92.3053 25.5537 92.2055 25.5577 92.1022C25.666 89.462 26.9918 86.5557 27.182 85.5028C27.3816 84.409 25.8845 77.7607 25.8845 77.7607L32.5942 77.2238L35.3143 77.0067C35.3143 77.0067 35.993 83.174 34.2544 89.0757Z" fill="white" stroke="black" stroke-width="0.199603" stroke-linecap="round" stroke-linejoin="round"/>
<path d="M26.6012 80.4702C26.6012 80.4702 30.247 83.2003 35.284 81.4563L35.3588 78.8115L26.3602 79.089L26.6012 80.4702Z" fill="#E3E3E3"/>
<path d="M50.7293 41.1375C50.7293 41.1375 52.2168 39.5142 52.4039 38.8985C52.5911 38.2827 53.5966 38.15 52.7413 39.7877C51.886 41.4254 51.1135 42.0782 51.1135 42.0782C51.1135 42.0782 53.1529 40.3441 53.3051 39.8621C53.4573 39.38 54.1375 39.9883 53.0781 41.0467C52.0187 42.1051 51.7178 42.417 51.7178 42.417C51.7178 42.417 53.2982 40.9674 53.3945 41.2743C53.4908 41.5811 52.9399 42.5577 51.4483 43.0677C51.4483 43.0677 51.0776 44.3152 50.1075 44.8142C49.1374 45.3132 48.3734 43.7244 48.7138 43.151C49.0541 42.5777 50.7293 41.1375 50.7293 41.1375Z" fill="white" stroke="black" stroke-width="0.199603" stroke-miterlimit="10" stroke-linecap="round"/>
<path d="M40.2469 91.5119C38.7708 99.4326 37.4764 114.683 37.4764 114.683L33.9264 114.613C33.9264 114.613 33.4584 113.312 34.0592 111.792C34.4748 110.739 33.4354 102.843 32.7617 97.1861C31.6465 105.216 30.7892 115.316 30.7892 115.316L27.2392 115.247C27.2392 115.247 26.7711 113.945 27.3725 112.425C27.9738 110.905 25.5386 95.1222 25.5511 92.4051C25.5511 92.3053 25.5541 92.2055 25.5581 92.1022C27.5875 93.326 30.0132 93.7128 32.3226 93.1811C32.6972 93.0973 33.0667 92.9924 33.4294 92.8667L33.7473 91.1865C33.7473 91.1865 37.7069 92.9775 40.2469 91.5119Z" fill="white" stroke="black" stroke-width="0.199603" stroke-linecap="round" stroke-linejoin="round"/>
<path d="M46.3522 45.134C46.3522 45.134 48.0723 42.4599 49.2425 41.5981C50.4127 40.7363 51.3413 38.1449 51.6951 38.4733C52.0489 38.8016 51.4885 40.0372 50.4975 41.5347C49.5064 43.0322 49.3153 43.7209 49.6207 43.9868C49.9261 44.2528 52.258 43.8681 52.6647 44.5667C52.6647 44.5667 52.6602 44.8207 52.0963 44.8047C51.5324 44.7887 50.4406 45.1291 50.237 45.4764C50.0334 45.8237 47.9456 46.5772 47.9456 46.5772L41.5019 58.4715L37.3381 55.4471L46.3522 45.134Z" fill="white" stroke="black" stroke-width="0.199603" stroke-miterlimit="10" stroke-linecap="round"/>
<path d="M24.1018 65.4003C24.1018 65.4003 25.7685 102.671 27.0375 110.481C27.0375 110.481 27.7843 110.706 29.1768 110.706C30.5693 110.706 30.946 110.856 31.6251 110.481C32.3043 110.106 33.0052 97.3726 33.0052 97.3726C33.0052 97.3726 33.1763 109.938 33.8511 110.209C34.526 110.481 37.687 110.515 38.2723 110.106C38.7758 101.433 43.9711 82.5338 42.1577 66.4708C41.9824 63.555 24.1018 65.4003 24.1018 65.4003Z" fill="#21345F" stroke="black" stroke-width="0.199603" stroke-miterlimit="10" stroke-linecap="round"/>
<path d="M37.6666 21.3324C37.6666 21.3324 39.0324 22.3199 38.8962 24.5625C38.76 26.805 40.527 27.7457 40.1936 28.5046C40.0619 28.8041 39.1317 28.7891 38.984 29.2033C38.8363 29.6174 38.5504 32.0077 37.5154 32.5815C36.4805 33.1554 33.1217 33.2263 33.1217 33.2263C33.1217 33.2263 32.7185 36.0242 33.2614 37.0087C33.8043 37.9933 36.4276 40.5093 36.4276 40.5093C36.4276 40.5093 27.3486 39.0721 27.9594 38.2193C28.5702 37.3665 30.0213 34.7093 28.9575 31.8355C27.8936 28.9617 26.43 26.0725 29.449 23.7211C32.468 21.3698 37.6666 21.3324 37.6666 21.3324Z" fill="white" stroke="black" stroke-width="0.199603" stroke-linecap="round" stroke-linejoin="round"/>
<path d="M30.4762 38.1494C30.4762 38.1494 29.3484 37.3216 29.5954 36.1763C29.8424 35.0311 30.1399 29.4457 30.9597 27.9133C31.7796 26.3808 33.4148 23.0879 35.6898 22.3553C37.9648 21.6228 33.0206 20.7774 31.4482 21.8343C29.8759 22.8912 25.5954 25.3494 26.5729 27.4108C27.5505 29.4722 29.7312 31.309 29.4143 34.586C29.4143 34.586 29.2147 37.0177 27.802 38.2333C26.3893 39.4488 30.4762 38.1494 30.4762 38.1494Z" fill="#E3E3E3"/>
<path d="M32.9952 33.341C32.9952 33.341 31.057 32.9622 31.057 33.059C31.057 33.1334 31.5969 34.2302 32.3345 35.5686C32.3652 35.6242 32.4136 35.6679 32.4721 35.6927C32.5306 35.7175 32.5957 35.722 32.657 35.7055C32.7184 35.6889 32.7724 35.6523 32.8104 35.6014C32.8485 35.5505 32.8684 35.4884 32.8669 35.4248C32.8524 34.7279 32.8953 34.0309 32.9952 33.341Z" fill="#E3E3E3"/>
<path d="M38.5942 21.0334C37.2469 17.6821 32.6295 17.9795 30.5846 18.2495C29.7398 18.3612 28.7208 18.7824 27.8151 19.239C26.5722 19.8641 25.5611 20.8694 24.9289 22.1087C24.2968 23.348 24.0765 24.7566 24.3001 26.1298L24.3106 26.1932C24.7277 28.6757 25.4583 29.8749 28.6904 32.6803C28.6904 32.6803 29.131 33.4203 29.4658 31.6049C29.8007 29.7895 29.7223 28.6558 29.7223 28.6558C29.7223 28.6558 27.8261 27.6493 28.7652 26.3603C29.7044 25.0714 30.6615 26.1837 30.6615 26.1837C30.6615 26.1837 30.8112 26.6528 31.2403 26.1298C31.5487 25.754 31.5991 24.2281 32.9434 23.1153C33.5986 22.5729 34.4404 22.3169 35.2888 22.3568C35.3277 22.3568 35.3651 22.3593 35.4 22.3593C37.1506 22.3483 38.3207 22.0868 38.3207 22.0868C38.9205 21.9835 38.5942 21.0334 38.5942 21.0334Z" fill="#3F3D56"/>
<path d="M28.6627 36.9622C28.6627 36.9622 28.784 38.2442 31.2576 38.3061C33.7312 38.368 33.7656 37.7073 33.7656 37.7073C33.7656 37.7073 33.9457 37.2582 34.5001 37.7906C35.0545 38.323 36.7207 37.6908 37.605 39.2003C38.4892 40.7098 40.7986 44.4055 40.7647 45.7228C40.7308 47.0402 41.4254 62.268 43.2727 65.0025C43.2727 65.0025 43.4723 67.1338 37.9832 68.0694C32.4941 69.0051 28.3733 69.7606 22.9546 66.8678C22.9546 66.8678 23.8029 58.2954 24.1208 53.1695C24.4386 48.0437 25.5554 39.2003 27.1083 38.0805C28.6612 36.9607 28.4881 36.5466 28.6627 36.9622Z" fill="#654EF9" stroke="black" stroke-width="0.199603" stroke-miterlimit="10" stroke-linecap="round"/>
<path d="M38.6832 43.8226C38.6832 43.8226 38.9417 45.0262 39.814 47.5762L38.6832 43.8226Z" fill="#4052F2"/>
<path d="M38.6832 43.8226C38.6832 43.8226 38.9417 45.0262 39.814 47.5762" stroke="black" stroke-width="0.199603" stroke-miterlimit="10" stroke-linecap="round"/>
<path d="M28.8029 38.3092C28.8029 38.3092 31.3378 39.4764 33.1153 38.7304L28.8029 38.3092Z" fill="#4052F2"/>
<path d="M28.8029 38.3092C28.8029 38.3092 31.3378 39.4764 33.1153 38.7304" stroke="black" stroke-width="0.199603" stroke-miterlimit="10" stroke-linecap="round"/>
<path d="M34.8663 47.885L35.6682 60.2315L44.075 56.9155L43.2731 44.5696L34.8663 47.885Z" fill="#0B065A" stroke="black" stroke-width="0.199603" stroke-miterlimit="10" stroke-linecap="round"/>
<path d="M43.2729 44.5696L42.6945 44.2603L34.2877 47.5762L34.8661 47.8851L43.2729 44.5696Z" fill="white" stroke="black" stroke-width="0.199603" stroke-miterlimit="10" stroke-linecap="round"/>
<path d="M34.2877 47.5762L34.8661 47.8851L35.668 60.2315L35.0896 59.9221L34.2877 47.5762Z" fill="white" stroke="black" stroke-width="0.199603" stroke-miterlimit="10" stroke-linecap="round"/>
<path d="M27.8955 54.705C27.8955 54.705 30.8397 54.7938 32.8008 53.158L32.9345 54.5972C32.9345 54.5972 35.0987 52.3981 38.0149 51.4664C38.0149 51.4664 38.8887 49.0801 40.0793 48.1899C40.502 47.874 41.1177 48.1899 41.1177 48.1899C41.3333 48.0901 41.1252 48.1705 41.4755 48.0337C41.9501 47.8491 42.0998 48.7942 41.9027 49.0816C41.9027 49.0816 42.4356 49.8731 42.1437 50.3037C42.1437 50.3037 42.5988 50.395 42.3433 51.176C42.3433 51.176 42.4661 51.4819 42.3932 51.5961C41.7445 52.6256 39.4111 52.8492 38.9396 53.454C38.468 54.0588 33.3392 60.6711 30.5103 60.3682C28.5377 60.1561 27.8955 54.705 27.8955 54.705Z" fill="white" stroke="black" stroke-width="0.199603" stroke-linecap="round" stroke-linejoin="round"/>
<path d="M30.795 41.0297C30.795 41.0297 32.6499 40.7114 32.8969 43.7937C33.1439 46.8761 34.1304 51.954 34.1304 51.954C34.1304 51.954 33.2946 52.8557 32.8006 53.1581" fill="#5842E2"/>
<path d="M30.795 41.0297C30.795 41.0297 32.6499 40.7114 32.8969 43.7937C33.1439 46.8761 34.1304 51.954 34.1304 51.954C34.1304 51.954 33.2946 52.8557 32.8006 53.1581" stroke="black" stroke-width="0.199603" stroke-miterlimit="10" stroke-linecap="round"/>
<path d="M26.3776 49.4589L26.422 54.2059C26.422 54.2059 26.7583 54.7049 27.8955 54.7049" fill="#5842E2"/>
<path d="M26.3776 49.4589L26.422 54.2059C26.422 54.2059 26.7583 54.7049 27.8955 54.7049" stroke="black" stroke-width="0.199603" stroke-miterlimit="10" stroke-linecap="round"/>
<path d="M30.7051 58.4142C30.7051 58.4142 31.5863 56.0688 32.9346 54.5988L30.7051 58.4142Z" fill="white"/>
<path d="M30.7051 58.4142C30.7051 58.4142 31.5863 56.0688 32.9346 54.5988" stroke="black" stroke-width="0.199603" stroke-linecap="round" stroke-linejoin="round"/>
<path d="M33.121 33.2222C33.121 33.2222 31.5157 33.1284 31.1279 32.9872L33.121 33.2222Z" fill="white"/>
<path d="M33.121 33.2222C33.121 33.2222 31.5157 33.1284 31.1279 32.9872" stroke="black" stroke-width="0.199603" stroke-linecap="round" stroke-linejoin="round"/>
<path d="M41.1179 48.1925C41.1179 48.1925 40.4462 48.7544 40.1543 49.0817L41.1179 48.1925Z" fill="white"/>
<path d="M41.1179 48.1925C41.1179 48.1925 40.4462 48.7544 40.1543 49.0817" stroke="black" stroke-width="0.199603" stroke-linecap="round" stroke-linejoin="round"/>
<path d="M41.9024 49.0817L41.353 49.7743" stroke="black" stroke-width="0.199603" stroke-linecap="round" stroke-linejoin="round"/>
<path d="M42.1438 50.3038C42.1438 50.3038 41.9642 50.6771 41.8314 50.8028L42.1438 50.3038Z" fill="white"/>
<path d="M42.1438 50.3038C42.1438 50.3038 41.9642 50.6771 41.8314 50.8028" stroke="black" stroke-width="0.199603" stroke-linecap="round" stroke-linejoin="round"/>
<path d="M42.3445 51.176L41.9877 51.5298" stroke="black" stroke-width="0.199603" stroke-linecap="round" stroke-linejoin="round"/>
<path d="M33.6799 93.1206C33.6799 93.1206 33.2991 95.2878 33.0122 97.44L33.6799 93.1206Z" fill="white"/>
<path d="M33.6799 93.1206C33.6799 93.1206 33.2991 95.2878 33.0122 97.44" stroke="black" stroke-width="0.199603" stroke-linecap="round" stroke-linejoin="round"/>
<path d="M36.9122 111.263C36.1766 111.279 35.0224 111.21 34.0209 110.739C34.0209 110.739 33.3757 110.917 33.4845 111.612C33.5933 112.307 32.0543 116.058 33.2944 116.452C34.5344 116.847 43.0091 116.975 44.8554 116.625C46.7017 116.276 47.1458 114.007 45.554 113.544C43.9622 113.081 40.525 112.471 39.4017 111.93C38.4656 111.481 38.241 110.832 37.8952 111.005C37.5905 111.162 37.2549 111.25 36.9122 111.263Z" fill="#0B065A" stroke="black" stroke-width="0.199603" stroke-miterlimit="10" stroke-linecap="round"/>
<path d="M30.3581 111.857C29.6221 111.873 28.4679 111.804 27.4639 111.333C27.4639 111.333 26.8192 111.51 26.9275 112.205C27.0357 112.9 25.4973 116.651 26.7373 117.046C27.9774 117.44 36.453 117.569 38.2964 117.217C40.1397 116.865 40.5868 114.598 38.995 114.135C37.4031 113.673 33.9655 113.063 32.8427 112.522C31.9066 112.073 31.6815 111.424 31.3362 111.596C31.033 111.753 30.6992 111.842 30.3581 111.857Z" fill="#0B065A" stroke="black" stroke-width="0.199603" stroke-miterlimit="10" stroke-linecap="round"/>
<path d="M32.7133 53.3722L32.8101 54.5259C32.8101 54.5259 31.4493 56.1646 30.8545 57.8298C30.8545 57.8298 30.6958 57.9616 30.63 57.2086C30.5641 56.4556 28.5421 54.7904 28.5421 54.7904C28.5421 54.7904 31.7313 54.3448 32.7133 53.3722Z" fill="#E3E3E3"/>
<path d="M37.7522 21.8873C37.7522 21.8873 36.1663 17.1831 28.0265 20.2755" stroke="white" stroke-width="0.0998013" stroke-miterlimit="10" stroke-linecap="round"/>
<path d="M34.8715 21.8872C34.8715 21.8872 32.0436 19.3503 27.4188 21.5175" stroke="white" stroke-width="0.0998013" stroke-miterlimit="10" stroke-linecap="round"/>
<path d="M29.5597 22.3897C29.5597 22.3897 26.5282 22.231 25.886 25.6138" stroke="white" stroke-width="0.0998013" stroke-miterlimit="10" stroke-linecap="round"/>
<path d="M37.713 26.3802C37.8517 26.3802 37.964 26.2087 37.964 25.997C37.964 25.7854 37.8517 25.6138 37.713 25.6138C37.5744 25.6138 37.462 25.7854 37.462 25.997C37.462 26.2087 37.5744 26.3802 37.713 26.3802Z" fill="black"/>
<path d="M36.2778 24.6623C36.2778 24.6623 37.5144 23.4731 38.3073 24.279L36.2778 24.6623Z" fill="white"/>
<path d="M36.2778 24.6623C36.2778 24.6623 37.5144 23.4731 38.3073 24.279" stroke="black" stroke-width="0.199603" stroke-linecap="round" stroke-linejoin="round"/>
<path d="M38.6835 30.4682C38.6835 30.4682 37.2363 31.0316 36.5377 29.6199L38.6835 30.4682Z" fill="white"/>
<path d="M38.6835 30.4682C38.6835 30.4682 37.2363 31.0316 36.5377 29.6199" stroke="black" stroke-width="0.199603" stroke-linecap="round" stroke-linejoin="round"/>
<path opacity="0.5" d="M82.7712 116.334C81.405 116.125 80.0289 115.986 78.6485 115.918C76.2205 115.799 72.3953 115.387 72.397 113.978C72.3994 111.915 74.5309 109.647 79.3942 110.344C84.2575 111.041 94.3337 109.754 94.9827 112.562C95.5926 115.202 93.5851 117.983 82.7712 116.334Z" fill="#FEEED3"/>
<path d="M91.2577 71.5422C91.2577 71.5422 90.6793 73.9818 91.3992 76.8369C92.0427 79.3847 93.0964 91.2856 92.7005 98.7736C92.6159 100.372 92.6009 101.972 92.6688 103.571C92.7701 105.965 92.6763 109.499 91.3716 110.641C89.3349 112.425 87.7074 112.267 87.7074 112.267C87.7074 112.267 90.1003 108.93 89.6975 102.877C89.5058 99.9994 86.302 84.2541 85.1366 80.8235C83.9712 77.3929 83.6742 73.015 83.6742 73.015L91.2577 71.5422Z" fill="white" stroke="black" stroke-width="0.230203" stroke-miterlimit="10" stroke-linecap="round"/>
<path d="M92.6526 103.165C92.6526 103.165 93.2281 102.841 93.7985 103.586C94.3688 104.331 95.0162 112.039 95.0162 112.039L94.3429 112.17L93.6638 108.673C93.6638 108.673 93.6638 112.391 93.0952 112.705C92.5266 113.018 85.7385 114.967 85.9825 113.906C86.2265 112.845 87.8241 111.881 87.8241 111.881C87.8241 111.881 88.8652 111.972 90.205 111.013C91.5448 110.054 92.8828 108.982 92.6526 103.165Z" fill="#0B065A" stroke="black" stroke-width="0.203149" stroke-miterlimit="10" stroke-linecap="round"/>
<path d="M81.5046 72.9113C81.5046 72.9113 80.5262 75.2208 80.765 78.153C80.9768 80.7722 80.0405 92.6835 78.4055 100.002C78.0567 101.564 77.7764 103.139 77.5773 104.727C77.2798 107.105 76.5989 110.575 75.1245 111.484C72.8225 112.902 71.241 112.479 71.241 112.479C71.241 112.479 74.1553 109.587 74.7625 103.549C75.0503 100.681 74.5053 84.6217 73.9263 81.0467C73.3473 77.4716 74.6583 63.4758 74.6583 63.4758L81.5046 72.9113Z" fill="white" stroke="black" stroke-width="0.230203" stroke-miterlimit="10" stroke-linecap="round"/>
<path d="M77.6312 104.328C77.6312 104.328 78.2499 104.103 78.6913 104.933C79.1327 105.762 78.4887 113.47 78.4887 113.47L77.8033 113.487L77.7141 109.927C77.7141 109.927 77.0983 113.593 76.4842 113.808C75.8702 114.023 68.8536 114.818 69.2708 113.812C69.6881 112.805 71.4215 112.121 71.4215 112.121C71.4215 112.121 72.4332 112.383 73.9134 111.66C75.3936 110.938 76.89 110.102 77.6312 104.328Z" fill="#0B065A" stroke="black" stroke-width="0.203149" stroke-miterlimit="10" stroke-linecap="round"/>
<path d="M83.056 4.10299C83.056 4.10299 80.5197 5.88362 79.398 8.36175C78.2764 10.8399 77.7078 9.97317 77.9063 12.6113C78.1049 15.2494 78.9509 17.8588 80.5951 18.2179C82.2393 18.577 83.1383 18.6127 83.1383 18.6127C83.1383 18.6127 83.0606 21.4327 82.8839 22.0255C82.6813 22.7017 81.1574 22.1538 80.8121 22.8669C80.3942 23.7221 81.1269 25.825 80.6204 26.4154C79.5482 27.6649 81.2661 32.5262 83.3391 31.6111C84.0297 31.3061 86.8745 28.927 87.0511 26.9023C87.2019 25.1792 88.1331 23.0464 88.1331 23.0464C88.1331 23.0464 87.3993 19.7804 88.121 18.8987C88.8427 18.017 91.8515 13.8343 91.459 12.7022C91.0665 11.5702 87.2422 1.71233 83.056 4.10299Z" fill="white" stroke="black" stroke-width="0.230203" stroke-miterlimit="10" stroke-linecap="round"/>
<path d="M82.212 14.5611L78.8108 13.6265C78.8108 13.6265 79.6102 16.9005 82.212 14.5611Z" fill="white" stroke="black" stroke-width="0.230203" stroke-linecap="round" stroke-linejoin="round"/>
<path d="M80.2171 26.8684C80.2171 26.8684 81.8204 28.5144 85.7034 28.0263C89.5864 27.5383 80.4812 42.6016 78.8353 39.3063C77.1893 36.0109 80.2171 26.8684 80.2171 26.8684Z" fill="#654EF9"/>
<path d="M83.2402 4.36257C83.2402 4.36257 84.8488 4.88686 86.4677 7.74425C88.0521 10.5418 86.5183 13.6329 88.0613 13.6363C89.3274 13.6392 89.4678 14.9542 88.7473 15.4279C87.3298 16.3596 87.7585 19.3183 87.7585 19.3183C87.7585 19.3183 89.2474 16.8522 89.9121 16.6853C90.5768 16.5184 92.8155 13.131 89.3705 9.02476C85.9256 4.91851 86.1287 1.92702 83.2402 4.36257Z" fill="#E3E3E3"/>
<path d="M95.4796 9.32394C95.5337 6.30253 94.1559 3.06932 89.5519 1.29676C81.0309 -1.98364 82.1566 4.82002 82.1566 4.82002C83.8929 3.9228 86.7325 5.51868 87.6418 8.62758C88.5511 11.7365 87.872 13.0952 87.872 13.0952C89.1617 12.8426 89.5283 13.5626 89.7055 14.4799C89.8828 15.3973 88.0809 16.5938 88.0809 16.5938C89.1018 19.0541 90.898 18.3329 92.9543 15.9901C93.3096 16.2225 93.7111 16.3752 94.1311 16.4374C94.5511 16.4997 94.9796 16.47 95.387 16.3506C95.7945 16.2312 96.1711 16.0248 96.4911 15.7456C96.811 15.4665 97.0665 15.1212 97.2401 14.7337C97.2401 14.7337 100.411 10.1757 95.4796 9.32394ZM95.357 10.7052C95.357 10.7052 98.7416 10.0416 97.4087 14.2411C97.5935 13.5006 97.4827 12.7173 97.0997 12.0572C96.7167 11.3971 96.0916 10.9121 95.357 10.7052Z" fill="#3F3D56"/>
<path d="M83.1387 18.6121C83.1387 18.6121 84.7956 18.7496 85.0252 18.6627" stroke="black" stroke-width="0.230203" stroke-miterlimit="10" stroke-linecap="round"/>
<path d="M83.3376 3.83304C83.3376 3.83304 90.4538 0.306898 94.2147 7.42536" stroke="white" stroke-width="0.115102" stroke-miterlimit="10" stroke-linecap="round"/>
<path d="M83.2553 18.7515C83.2553 18.7515 84.61 18.9184 85.1251 18.7825C85.6402 18.6467 83.0682 21.4765 83.0682 21.4765C83.0682 21.4765 83.2754 19.6631 83.2553 18.7515Z" fill="#E3E3E3"/>
<path d="M80.3043 9.92006C80.4388 9.72175 80.4396 9.48749 80.306 9.39683C80.1724 9.30616 79.955 9.39343 79.8204 9.59174C79.6859 9.79004 79.6851 10.0243 79.8187 10.115C79.9523 10.2056 80.1697 10.1184 80.3043 9.92006Z" fill="black"/>
<path d="M83.726 12.0209C83.8606 11.8226 83.8614 11.5883 83.7278 11.4977C83.5942 11.407 83.3768 11.4943 83.2422 11.6926C83.1076 11.8909 83.1068 12.1251 83.2405 12.2158C83.3741 12.3065 83.5915 12.2192 83.726 12.0209Z" fill="black"/>
<path d="M81.2668 10.2765C81.2668 10.2765 80.2458 11.5685 79.8182 11.9645C79.8182 11.9645 79.4597 12.186 80.434 12.6988" fill="white"/>
<path d="M81.2668 10.2765C81.2668 10.2765 80.2458 11.5685 79.8182 11.9645C79.8182 11.9645 79.4597 12.186 80.434 12.6988" stroke="black" stroke-width="0.230203" stroke-miterlimit="10" stroke-linecap="round"/>
<path d="M80.2052 7.3754C80.2052 7.3754 80.9067 7.2954 81.8005 7.93479L80.2052 7.3754Z" fill="white"/>
<path d="M80.2052 7.3754C80.2052 7.3754 80.9067 7.2954 81.8005 7.93479" stroke="black" stroke-width="0.230203" stroke-miterlimit="10" stroke-linecap="round"/>
<path d="M84.1816 9.50012C84.1816 9.50012 84.8659 9.67278 85.4754 10.5878L84.1816 9.50012Z" fill="white"/>
<path d="M84.1816 9.50012C84.1816 9.50012 84.8659 9.67278 85.4754 10.5878" stroke="black" stroke-width="0.230203" stroke-miterlimit="10" stroke-linecap="round"/>
<path d="M87.6865 5.03818C87.6865 5.03818 89.2905 4.26584 90.9669 5.98086" stroke="white" stroke-width="0.115102" stroke-miterlimit="10" stroke-linecap="round"/>
<path d="M93.7727 56.2754C96.7942 63.997 94.2906 69.0554 94.2906 80.6922C94.2906 80.6922 91.3311 81.5665 82.8799 82.1465C74.4286 82.7265 71.6947 80.6922 71.6947 80.6922C70.3154 68.3251 70.9843 59.2642 72.6947 56.2754H93.7727Z" fill="#F07336" stroke="black" stroke-width="0.230203" stroke-linecap="round" stroke-linejoin="round"/>
<path d="M83.7813 66.0614C80.0794 65.6718 76.2313 63.5175 74.77 62.4891L73.4849 56.7262H77.1973L87.4152 56.9738L95.2643 64.929L94.7148 70.879C94.6364 72.1382 94.2426 77.6986 94.1719 80.5978C93.9883 80.672 91.7656 81.1681 89.832 81.3517C89.6968 69.9903 85.7424 66.4195 83.7813 66.0614Z" fill="#E05918"/>
<path d="M87.9411 22.6407C87.9411 22.6407 82.5049 30.1707 79.7062 34.834C79.7062 34.834 81.401 23.4965 82.4157 22.3973C82.4157 22.3973 79.4466 22.3075 78.1166 22.5544C75.9717 22.9526 71.7567 34.834 71.7567 34.834C71.7567 34.834 73.4101 35.901 75.4042 35.9027C75.4042 35.9027 69.4403 55.5994 69.3488 65.8406C69.3488 65.8406 74.0313 67.3593 77.1839 66.9478C77.1839 66.9478 78.3269 60.821 79.1498 57.6212C79.1498 57.6212 79.6983 61.1893 79.5158 62.7869C79.3334 64.3845 79.3328 67.4048 79.3328 67.4048C79.3328 67.4048 81.6928 69.8185 87.3167 68.7664C92.9406 67.7144 94.449 65.7951 98.1978 65.4285C98.1978 65.4285 96.6888 59.4151 96.4137 57.8825C96.1387 56.3499 94.3103 44.7264 94.3103 44.7264L96.4137 35.7324L97.5567 37.1044C97.5567 37.1044 101.489 34.8179 102.312 33.8355C102.312 33.8355 97.6937 25.2172 95.2247 24.6227C92.7558 24.0282 89.0985 23.2582 88.611 22.9192C88.1236 22.5803 88.0482 22.4767 87.9411 22.6407Z" fill="#F07336" stroke="black" stroke-width="0.230203" stroke-linecap="round" stroke-linejoin="round"/>
<path d="M89.8545 23.4815C89.8545 23.4815 84.4689 36.8419 83.829 37.1164C83.3444 37.3236 81.6633 35.581 79.7227 35.3531C79.0597 35.2667 78.3864 35.3946 77.8011 35.7179C77.8011 35.7179 77.149 36.0178 77.4518 35.0313C77.5375 34.7516 77.7004 34.3678 77.9766 33.8452C78.3265 33.1822 79.0321 32.5026 79.9103 31.8252L79.7377 34.8478C82.3689 34.5025 83.0704 36.1559 83.0704 36.1559L89.5288 23.371L89.8545 23.4815Z" fill="#E05918"/>
<path d="M85.9298 48.0119C85.9298 48.0119 82.344 65.4888 84.9338 67.1486C87.5235 68.8083 96.8277 64.7023 96.8277 64.7023L96.6551 61.5192L94.3656 45.2764L85.9298 48.0119Z" fill="#E05918"/>
<path d="M92.4753 26.2256C92.4753 26.2256 86.044 43.4091 87.1409 45.3267C88.2378 47.2443 94.0266 45.3267 94.0266 45.3267L96.3813 35.7307L96.4146 35.5275L97.4891 36.8788C97.4891 36.8788 97.7193 35.5655 98.6925 34.7195C98.6925 34.7195 92.7418 29.7828 93.6942 27.4048C94.6467 25.0268 95.9295 25.1137 95.9295 25.1137C95.9295 25.1137 94.8729 24.0668 93.8162 25.0107C92.4649 26.2141 92.4753 26.2256 92.4753 26.2256Z" fill="#E05918"/>
<path d="M94.502 32.952L96.4149 35.7329" stroke="black" stroke-width="0.230203" stroke-miterlimit="10" stroke-linecap="round"/>
<path d="M75.5021 35.8498C75.5021 35.8498 76.008 33.0298 76.2134 29.9313" stroke="black" stroke-width="0.230203" stroke-miterlimit="10" stroke-linecap="round"/>
<path d="M79.6237 40.5681L79.7888 35.285L79.8049 34.7802C82.4362 34.4349 83.1383 36.0884 83.1383 36.0884L89.596 23.3035L89.6461 23.2045" stroke="black" stroke-width="0.230203" stroke-linecap="round" stroke-linejoin="round"/>
<path d="M80.5091 22.3345C80.5091 22.3345 77.9952 30.0037 77.1262 35.2834C77.1262 35.2834 78.5483 33.836 79.8035 34.7775" fill="#E05918"/>
<path d="M80.5091 22.3345C80.5091 22.3345 77.9952 30.0037 77.1262 35.2834C77.1262 35.2834 78.5483 33.836 79.8035 34.7775" stroke="black" stroke-width="0.230203" stroke-linecap="round" stroke-linejoin="round"/>
<path d="M72.5871 34.7804L71.0022 27.5567C71.0022 27.5567 71.9805 25.4417 71.4747 23.5857C71.0879 22.1567 73.0447 21.2347 71.5512 21.3107C70.8439 21.3469 70.4261 21.8862 70.1821 22.4398C70.1145 22.5898 70.017 22.7245 69.8956 22.8355C69.7742 22.9465 69.6314 23.0315 69.476 23.0854C69.3205 23.1393 69.1557 23.1609 68.9916 23.1488C68.8275 23.1368 68.6676 23.0913 68.5217 23.0153L67.3983 22.3627C66.687 21.8948 65.6989 21.4102 65.6989 21.4102C65.0894 20.9049 64.191 20.6511 63.8239 20.7432C63.5781 20.8048 63.5442 21.1461 63.7663 21.2658C64.4909 21.6686 65.7869 22.3921 66.3285 22.7489C66.3393 22.7557 66.3472 22.7662 66.3507 22.7784C66.3542 22.7907 66.3531 22.8038 66.3475 22.8153C66.3419 22.8268 66.3324 22.8358 66.3206 22.8406C66.3088 22.8455 66.2956 22.8458 66.2836 22.8415C65.5821 22.6015 63.8124 22.0065 63.1471 21.8672C62.1814 21.6698 62.0571 22.3195 62.575 22.6366C62.575 22.6366 62.2873 22.6424 62.1589 22.8174C62.0306 22.9923 62.0507 23.2421 62.2959 23.3353C63.2558 23.7013 64.6399 23.7992 65.4382 24.1548C65.4486 24.1596 65.4571 24.1679 65.4621 24.1782C65.4672 24.1885 65.4686 24.2003 65.466 24.2115C65.4635 24.2227 65.4571 24.2327 65.4481 24.2397C65.439 24.2468 65.4278 24.2506 65.4163 24.2504C64.8011 24.2279 63.0723 24.1986 62.7937 24.5594C62.7937 24.5594 62.7212 24.6567 62.8956 24.7729C63.4774 25.1614 65.3622 25.1821 65.4405 25.2506C66.2024 25.9211 68.6253 28.2709 68.6253 28.2709C68.6253 28.2709 68.1684 33.4372 68.3053 38.1005C68.4423 42.7639 69.1744 46.9242 72.3287 45.8273C73.6438 45.3669 74.0581 43.4384 74.4673 41.4535C75.021 38.7733 75.5032 35.8451 75.5032 35.8451L72.5871 34.7804Z" fill="white" stroke="black" stroke-width="0.230203" stroke-miterlimit="10" stroke-linecap="round"/>
<path d="M68.7365 28.5293C68.7365 28.5293 69.2446 28.6444 69.4783 28.6668C69.712 28.6893 68.8383 36.1703 68.4723 38.8804C68.4723 38.8804 68.2507 34.5388 68.7365 28.5293Z" fill="#E3E3E3"/>
<path d="M72.7775 34.9836C72.7775 34.9836 75.0796 42.3611 71.8412 45.8222C71.8412 45.8222 73.4089 46.1422 74.3245 41.4984C75.1981 37.067 75.3305 35.9361 75.3305 35.9361L72.7775 34.9836Z" fill="#E3E3E3"/>
<path d="M73.2269 42.9795C74.1264 40.1296 72.5869 34.7803 72.5869 34.7803" stroke="black" stroke-width="0.230203" stroke-miterlimit="10" stroke-linecap="round"/>
<path d="M62.5743 22.6388C62.5743 22.6388 64.9673 22.9513 66.0953 23.5763L62.5743 22.6388Z" fill="white"/>
<path d="M62.5743 22.6388C62.5743 22.6388 64.9673 22.9513 66.0953 23.5763" stroke="black" stroke-width="0.230203" stroke-miterlimit="10" stroke-linecap="round"/>
<path d="M68.625 28.2732C68.625 28.2732 68.9755 28.6185 69.311 28.6058L68.625 28.2732Z" fill="white"/>
<path d="M68.625 28.2732C68.625 28.2732 68.9755 28.6185 69.311 28.6058" stroke="black" stroke-width="0.230203" stroke-miterlimit="10" stroke-linecap="round"/>
<path d="M68.7531 23.108C68.7531 23.108 69.3792 23.5109 69.9432 23.6375L68.7531 23.108Z" fill="white"/>
<path d="M68.7531 23.108C68.7531 23.108 69.3792 23.5109 69.9432 23.6375" stroke="black" stroke-width="0.230203" stroke-miterlimit="10" stroke-linecap="round"/>
<path d="M88.2318 64.2327C88.2318 64.2327 88.7009 63.4943 88.7722 60.6398" stroke="black" stroke-width="0.230203" stroke-miterlimit="10" stroke-linecap="round"/>
<path d="M88.7721 59.1158C88.7721 59.1158 89.1375 57.1648 89.1375 53.6295V49.6061" stroke="black" stroke-width="0.230203" stroke-miterlimit="10" stroke-linecap="round"/>
<path d="M79.539 43.1138C79.539 43.1138 79.3301 46.1709 79.2961 51.4828L79.539 43.1138Z" fill="#FCAA23"/>
<path d="M79.539 43.1138C79.539 43.1138 79.3301 46.1709 79.2961 51.4828" stroke="black" stroke-width="0.230203" stroke-linecap="round" stroke-linejoin="round"/>
<path d="M102.212 33.9154C102.212 33.9154 97.7084 33.642 97.6077 37.0968L99.9736 39.8817C99.9736 39.8817 92.1403 43.8135 91.0429 43.9356C90.7183 43.9712 90.6273 43.9666 89.939 43.8544C89.939 43.8544 89.1086 42.6516 88.1331 42.7937C87.1576 42.9359 86.7277 42.8968 86.6057 43.0602C86.1706 43.6432 86.0831 44.0961 86.0831 44.0961C86.0831 44.0961 85.1485 44.0173 84.6587 44.3954C83.9883 44.9133 84.703 45.4002 84.703 45.4002C84.5643 45.6914 84.4682 46.1317 84.9292 46.8062C84.9292 46.8062 84.7031 47.5992 85.3896 48.0148C85.3896 48.0148 85.4282 48.4493 86.0354 48.7364C86.2414 48.8337 87.0005 48.924 87.5242 48.7502C88.9008 48.2933 90.823 47.3253 91.5292 46.7734C92.5046 46.0114 103.142 43.9085 105.276 42.3236C107.409 40.7386 102.212 33.9154 102.212 33.9154Z" fill="white" stroke="black" stroke-width="0.230203" stroke-linecap="round" stroke-linejoin="round"/>
<path d="M98.8504 34.8507C98.8504 34.8507 98.4642 36.0322 98.9523 36.8857C99.4403 37.7392 100.953 39.3069 100.953 39.3069L100.029 39.7207L97.7535 37.0687C97.7535 37.0687 97.5221 35.9833 98.8504 34.8507Z" fill="#E3E3E3"/>
<path d="M84.6571 45.4203C84.6571 45.4203 85.8691 45.5014 86.3566 45.5164L84.6571 45.4203Z" fill="white"/>
<path d="M84.6571 45.4203C84.6571 45.4203 85.8691 45.5014 86.3566 45.5164" stroke="black" stroke-width="0.230203" stroke-linecap="round" stroke-linejoin="round"/>
<path d="M85.4583 48.0044C85.4583 48.0044 86.4182 48.0919 86.9056 48.1074L85.4583 48.0044Z" fill="white"/>
<path d="M85.4583 48.0044C85.4583 48.0044 86.4182 48.0919 86.9056 48.1074" stroke="black" stroke-width="0.230203" stroke-linecap="round" stroke-linejoin="round"/>
<path d="M85.004 46.8263C85.004 46.8263 86.0693 46.8977 86.6045 46.8263H85.004Z" fill="white"/>
<path d="M85.004 46.8263C85.004 46.8263 86.0693 46.8977 86.6045 46.8263" stroke="black" stroke-width="0.230203" stroke-linecap="round" stroke-linejoin="round"/>
<path d="M86.0817 44.0944L87.7765 43.8959" stroke="black" stroke-width="0.230203" stroke-linecap="round" stroke-linejoin="round"/>
<path d="M99.972 39.8834C100.808 39.4428 101.693 39.1009 102.608 38.8647" stroke="black" stroke-width="0.230203" stroke-miterlimit="10" stroke-linecap="round"/>
</svg>
