<svg width="90" height="46" viewBox="0 0 90 46" fill="none" xmlns="http://www.w3.org/2000/svg">
<path d="M0 33.8804C0 32.6164 1.02465 31.5918 2.28862 31.5918H87.7114C88.9753 31.5918 90 32.6164 90 33.8804V43.1866C90 44.4506 88.9753 45.4752 87.7114 45.4752H2.28862C1.02465 45.4752 0 44.4506 0 43.1866V33.8804Z" fill="#F17336"/>
<path fill-rule="evenodd" clip-rule="evenodd" d="M10.7227 24.0252C10.7227 24.5747 10.2575 24.9553 9.41229 24.9553L3.32638 24.9548C2.56526 24.9548 2.10046 24.5747 2.10046 24.0255C2.10069 23.6446 2.48072 23.2646 3.07259 23.0533C3.62172 22.884 4.00232 22.2924 4.00232 21.743L4.00266 4.03328C4.00266 3.52627 3.62172 3.14624 3.07259 2.97716C2.48106 2.76564 2.10046 2.30087 2.10046 1.92047C2.10069 1.28638 2.56526 0.906006 3.41064 0.906006H9.20114C10.1731 0.906006 10.7226 1.2866 10.7226 1.92047C10.7227 2.30038 10.3422 2.6811 9.79267 2.89255C9.20114 3.06148 8.82062 3.65337 8.82062 4.20285L8.82077 21.9544C8.82077 22.4192 9.2008 22.7998 9.79267 22.9687C10.3424 23.1797 10.7226 23.645 10.7227 24.0252ZM36.1239 19.9247C36.1239 20.8972 35.1942 22.0384 33.6726 23.1797C31.602 24.701 29.108 25.462 26.3606 25.462C22.9794 25.4615 19.9364 24.3207 17.4427 22.2075C14.9912 20.0515 13.681 17.0935 13.681 13.5006C13.681 9.90796 14.9912 6.78049 17.5694 4.28681C20.19 1.75074 23.36 0.398438 26.8256 0.398438C29.4885 0.397944 32.0665 1.15941 34.3488 2.51194C35.1942 2.97638 35.6591 3.65294 35.6591 4.28681C35.6591 5.25874 35.7437 6.18881 35.7437 7.16094C35.7439 7.92156 35.3633 8.3867 34.6027 8.3867C34.3488 8.38635 34.0532 8.09064 33.9684 7.71041C33.5884 6.86475 33.2922 6.27335 33.2922 6.10427C31.9823 3.82155 29.7842 2.59628 26.9525 2.59628C24.7546 2.59628 22.7681 3.52621 21.2465 5.42804C19.7254 7.32954 18.8799 9.78149 18.8799 12.6556C18.8799 15.4872 19.5562 17.9388 20.6972 19.8405C22.0922 21.954 24.2898 22.9683 27.0371 22.9683C28.4741 22.9679 29.869 22.5878 31.01 21.954C31.6862 21.5731 32.5316 20.8974 33.4613 20.052C34.2223 19.3754 34.8138 18.9953 35.1098 18.9953C35.6591 18.9952 36.0396 19.3758 36.0396 19.9252L36.1239 19.9247ZM62.2022 24.0248C62.2022 24.5742 61.7371 24.9548 60.9765 24.9548L55.3973 24.9543C54.4254 24.9543 53.9604 24.7013 53.9604 24.1094C53.9606 23.7291 54.256 23.3488 54.6366 23.1797C55.1017 22.9679 55.3973 22.5878 55.3973 22.292C55.3973 22.1228 55.2705 21.954 55.2705 21.7425L53.7489 16.9242H44.1123C43.2674 19.3754 42.7598 21.0662 42.7598 21.658C42.7602 22.2075 43.0558 22.7993 43.5208 23.0529C44.1123 23.3483 44.366 23.7291 44.366 24.1094C44.366 24.701 43.8166 24.9548 42.6754 24.9548L39.3789 24.9543C38.407 24.9543 37.9417 24.7013 37.9417 24.1094C37.9419 23.7291 38.1108 23.3488 38.4912 23.0529C38.9985 22.799 39.4633 22.292 39.6322 21.7425C40.3086 19.7558 41.0693 17.7697 41.7455 15.9522C43.3518 11.5988 44.8733 8.00625 46.0143 5.34365C46.7331 3.6526 47.4092 2.38518 47.7895 1.83565C48.4658 0.905573 49.2266 0.398438 49.9028 0.398438C50.6213 0.397944 51.2975 0.778839 51.7625 1.37056C51.9738 1.53944 52.5233 2.38518 53.115 3.73763C55.0172 7.54097 57.3837 13.2895 60.1311 20.9817C60.2155 21.2774 60.3846 21.658 60.5114 22.0384C60.5964 22.4188 60.8917 22.7993 61.2723 22.9683C61.822 23.3483 62.2022 23.8136 62.2022 24.1094V24.0248ZM53.03 14.557L48.8457 5.17365L44.7462 14.557H53.03ZM87.8994 12.9082C87.8994 16.543 86.7579 19.5439 84.4756 21.657C82.1933 23.8127 79.1924 24.9539 75.4731 24.9539L65.1604 24.9534C64.3997 24.9534 63.8922 24.7004 63.8922 24.1085C63.8925 23.6432 64.2726 23.2632 64.8645 23.0519C65.414 22.8826 65.7942 22.2911 65.7942 21.5726L65.7946 4.03191C65.7946 3.5249 65.414 3.14487 64.8645 2.97579C64.273 2.76427 63.8922 2.2995 63.8922 1.9191C63.8925 1.28501 64.4841 0.904633 65.6251 0.904633H74.332C77.84 0.904633 80.9677 1.83471 83.419 3.652C86.3778 5.807 87.8992 9.01963 87.8992 13.0349L87.8994 12.9082ZM82.7003 12.9087C82.7003 10.2879 81.9397 7.92147 80.5028 6.18837C78.8965 4.11744 76.445 3.06097 73.3176 3.06097C72.3455 3.0606 71.6693 3.27212 71.4156 3.4412C70.9083 3.73669 70.6546 4.49782 70.6546 5.55448V20.6007C70.6546 21.5727 70.9083 22.207 71.2888 22.5031C71.6694 22.6718 72.4299 22.7989 73.4865 22.7989C76.234 22.7985 78.5161 21.8268 80.1221 20.1359C81.813 18.3187 82.7003 15.8673 82.7003 12.9087Z" fill="#F17336"/>
<path d="M6.99025 41.9627C6.83461 41.9627 6.71139 41.9206 6.6206 41.8362C6.53629 41.7455 6.49414 41.6255 6.49414 41.4763V35.5911C6.49414 35.4419 6.53629 35.3252 6.6206 35.2409C6.71139 35.1501 6.83461 35.1047 6.99025 35.1047H8.89688C10.0058 35.1047 10.8651 35.403 11.4747 35.9996C12.0843 36.5963 12.3891 37.4393 12.3891 38.5288C12.3891 39.6183 12.0843 40.4646 11.4747 41.0678C10.8651 41.6644 10.0058 41.9627 8.89688 41.9627H6.99025ZM8.83852 41.1261C10.5247 41.1261 11.3677 40.2604 11.3677 38.5288C11.3677 36.8038 10.5247 35.9413 8.83852 35.9413H7.49609V41.1261H8.83852Z" fill="#FEFEFE"/>
<path d="M21.0574 42.0113C20.9083 42.0113 20.7883 41.9659 20.6975 41.8752C20.6067 41.7844 20.5613 41.6611 20.5613 41.5055V35.5619C20.5613 35.4127 20.6067 35.2927 20.6975 35.202C20.7883 35.1047 20.9083 35.056 21.0574 35.056C21.2131 35.056 21.3363 35.1014 21.4271 35.1922C21.5179 35.283 21.5633 35.4062 21.5633 35.5619V41.5055C21.5633 41.6611 21.5179 41.7844 21.4271 41.8752C21.3428 41.9659 21.2195 42.0113 21.0574 42.0113Z" fill="#FEFEFE"/>
<path d="M35.1198 38.3245C35.243 38.3245 35.3403 38.3602 35.4116 38.4315C35.4894 38.5029 35.5284 38.6002 35.5284 38.7234V40.9997C35.5284 41.2202 35.4959 41.379 35.4311 41.4763C35.3727 41.5736 35.2527 41.6514 35.0712 41.7098C34.8117 41.8135 34.5037 41.8946 34.147 41.953C33.7903 42.0113 33.4369 42.0405 33.0867 42.0405C32.3928 42.0405 31.7929 41.9011 31.2871 41.6222C30.7812 41.3434 30.3954 40.9413 30.1295 40.416C29.8636 39.8907 29.7306 39.2616 29.7306 38.5288C29.7306 37.809 29.8636 37.1864 30.1295 36.6611C30.3954 36.1358 30.7748 35.7337 31.2676 35.4549C31.767 35.1695 32.3506 35.0269 33.0186 35.0269C33.4726 35.0269 33.8909 35.0949 34.2735 35.2311C34.6626 35.3608 34.9933 35.5522 35.2657 35.8051C35.3954 35.9088 35.4603 36.0385 35.4603 36.1942C35.4603 36.3109 35.4278 36.4114 35.363 36.4957C35.2981 36.5736 35.2203 36.6125 35.1295 36.6125C35.0712 36.6125 35.0193 36.6027 34.9739 36.5833C34.9285 36.5638 34.8701 36.5314 34.7988 36.486C34.481 36.2525 34.1924 36.0904 33.933 35.9996C33.6736 35.9023 33.3753 35.8537 33.0381 35.8537C32.2988 35.8537 31.7346 36.0839 31.3454 36.5444C30.9563 36.9983 30.7618 37.6598 30.7618 38.5288C30.7618 39.4173 30.9596 40.0917 31.3552 40.5522C31.7572 41.0061 32.3442 41.2331 33.1159 41.2331C33.6347 41.2331 34.1341 41.1553 34.6139 40.9997V39.0833H33.3396C33.2099 39.0833 33.1062 39.0509 33.0283 38.986C32.957 38.9147 32.9213 38.8207 32.9213 38.7039C32.9213 38.5872 32.957 38.4964 33.0283 38.4315C33.1062 38.3602 33.2099 38.3245 33.3396 38.3245H35.1198Z" fill="#FEFEFE"/>
<path d="M44.3469 42.0113C44.1977 42.0113 44.0778 41.9659 43.987 41.8752C43.8962 41.7844 43.8508 41.6611 43.8508 41.5055V35.5619C43.8508 35.4127 43.8962 35.2927 43.987 35.202C44.0778 35.1047 44.1977 35.056 44.3469 35.056C44.5025 35.056 44.6258 35.1014 44.7165 35.1922C44.8073 35.283 44.8527 35.4062 44.8527 35.5619V41.5055C44.8527 41.6611 44.8073 41.7844 44.7165 41.8752C44.6322 41.9659 44.509 42.0113 44.3469 42.0113Z" fill="#FEFEFE"/>
<path d="M55.3937 42.0113C55.2445 42.0113 55.1213 41.9659 55.024 41.8752C54.9332 41.7779 54.8878 41.6547 54.8878 41.5055V35.9413H52.9423C52.631 35.9413 52.4754 35.8018 52.4754 35.523C52.4754 35.3868 52.5143 35.283 52.5921 35.2117C52.6764 35.1403 52.7931 35.1047 52.9423 35.1047H57.8451C57.9942 35.1047 58.1077 35.1403 58.1855 35.2117C58.2698 35.283 58.312 35.3868 58.312 35.523C58.312 35.8018 58.1563 35.9413 57.8451 35.9413H55.8995V41.5055C55.8995 41.6547 55.8541 41.7779 55.7633 41.8752C55.6725 41.9659 55.5493 42.0113 55.3937 42.0113Z" fill="#FEFEFE"/>
<path d="M71.1769 41.379C71.2094 41.4569 71.2256 41.5217 71.2256 41.5736C71.2256 41.6968 71.1737 41.8006 71.0699 41.8849C70.9727 41.9692 70.8624 42.0113 70.7392 42.0113C70.6549 42.0113 70.5738 41.9886 70.496 41.9432C70.4247 41.8914 70.3695 41.82 70.3306 41.7292L69.6886 40.2701H66.1283L65.4862 41.7292C65.4473 41.82 65.389 41.8914 65.3111 41.9432C65.2333 41.9886 65.1523 42.0113 65.068 42.0113C64.9383 42.0113 64.8215 41.9692 64.7178 41.8849C64.6205 41.8006 64.5718 41.6968 64.5718 41.5736C64.5718 41.5217 64.5881 41.4569 64.6205 41.379L67.3637 35.3771C67.4091 35.2733 67.4804 35.1922 67.5777 35.1339C67.6815 35.0755 67.7885 35.0463 67.8987 35.0463C68.009 35.0463 68.1127 35.0755 68.21 35.1339C68.3138 35.1922 68.3883 35.2733 68.4337 35.3771L71.1769 41.379ZM69.3384 39.4724L67.9084 36.2525L66.4882 39.4724H69.3384Z" fill="#FEFEFE"/>
<path d="M79.5659 41.9627C79.4167 41.9627 79.2967 41.9206 79.2059 41.8362C79.1216 41.7519 79.0795 41.6384 79.0795 41.4958V35.5619C79.0795 35.4127 79.1249 35.2927 79.2157 35.202C79.3065 35.1047 79.4264 35.056 79.5756 35.056C79.7312 35.056 79.8545 35.1014 79.9452 35.1922C80.036 35.283 80.0814 35.4062 80.0814 35.5619V41.1261H83.0387C83.1878 41.1261 83.3013 41.1618 83.3791 41.2331C83.4634 41.3045 83.5056 41.4082 83.5056 41.5444C83.5056 41.6806 83.4634 41.7844 83.3791 41.8557C83.3013 41.927 83.1878 41.9627 83.0387 41.9627H79.5659Z" fill="#FEFEFE"/>
</svg>
