<svg width="41" height="41" viewBox="0 0 41 41" fill="none" xmlns="http://www.w3.org/2000/svg">
<g clip-path="url(#clip0)">
<path d="M0.165405 27.5352H1.1945V28.5397H0.165405V27.5352Z" fill="#21345F"/>
<path d="M0.165405 25.3252H1.1945V26.3294H0.165405V25.3252Z" fill="#21345F"/>
<path d="M0.165405 18.6973H1.1945V19.7014H0.165405V18.6973Z" fill="#21345F"/>
<path d="M0.165405 23.1162H1.1945V24.1204H0.165405V23.1162Z" fill="#21345F"/>
<path d="M0.165405 34.1621H1.1945V35.1663H0.165405V34.1621Z" fill="#21345F"/>
<path d="M0.165405 29.7432H1.1945V30.7473H0.165405V29.7432Z" fill="#21345F"/>
<path d="M0.165405 31.9531H1.1945V32.9573H0.165405V31.9531Z" fill="#21345F"/>
<path d="M0.165405 20.9072H1.1945V21.9114H0.165405V20.9072Z" fill="#21345F"/>
<path d="M0.165405 36.3711H1.1945V37.4002H0.165405V36.3711Z" fill="#21345F"/>
<path d="M11.7898 36.3711H12.8494V37.4002H11.7898V36.3711Z" fill="#21345F"/>
<path d="M9.45898 36.3711H10.5186V37.4002H9.45898V36.3711Z" fill="#21345F"/>
<path d="M28.1071 36.3711H29.1667V37.4002H28.1071V36.3711Z" fill="#21345F"/>
<path d="M4.79712 36.3711H5.85637V37.4002H4.79712V36.3711Z" fill="#21345F"/>
<path d="M7.12781 36.3711H8.18746V37.4002H7.12781V36.3711Z" fill="#21345F"/>
<path d="M2.46606 36.3711H3.52531V37.4002H2.46606V36.3711Z" fill="#21345F"/>
<path d="M32.769 36.3711H33.8287V37.4002H32.769V36.3711Z" fill="#21345F"/>
<path d="M35.1 36.3711H36.1596V37.4002H35.1V36.3711Z" fill="#21345F"/>
<path d="M37.4313 36.3711H38.4905V37.4002H37.4313V36.3711Z" fill="#21345F"/>
<path d="M30.4379 36.3711H31.4975V37.4002H30.4379V36.3711Z" fill="#21345F"/>
<path d="M39.7625 36.3711H40.7916V37.4002H39.7625V36.3711Z" fill="#21345F"/>
<path d="M39.7625 23.1162H40.7916V24.1204H39.7625V23.1162Z" fill="#21345F"/>
<path d="M39.7625 25.3252H40.7916V26.3294H39.7625V25.3252Z" fill="#21345F"/>
<path d="M39.7625 18.6973H40.7916V19.7014H39.7625V18.6973Z" fill="#21345F"/>
<path d="M39.7625 27.5352H40.7916V28.5397H39.7625V27.5352Z" fill="#21345F"/>
<path d="M39.7625 20.9072H40.7916V21.9114H39.7625V20.9072Z" fill="#21345F"/>
<path d="M39.7625 29.7432H40.7916V30.7473H39.7625V29.7432Z" fill="#21345F"/>
<path d="M39.7625 34.1621H40.7916V35.1663H39.7625V34.1621Z" fill="#21345F"/>
<path d="M39.7625 31.9531H40.7916V32.9573H39.7625V31.9531Z" fill="#21345F"/>
<path d="M40.2771 16.4639H34.6805V17.493H40.2771C40.5613 17.493 40.7916 17.2626 40.7916 16.9784C40.7916 16.6942 40.5613 16.4639 40.2771 16.4639Z" fill="#21345F"/>
<path d="M25.7759 36.3711H14.6355C14.3513 36.3711 14.121 36.6015 14.121 36.8856C14.121 37.1698 14.3513 37.4002 14.6355 37.4002H26.321C26.6052 37.4002 26.8356 37.1698 26.8356 36.8856C26.8356 36.6015 26.6052 36.3711 26.321 36.3711H25.7759Z" fill="#21345F"/>
<path d="M4.78309 16.4629H0.679956C0.395778 16.4629 0.165405 16.6933 0.165405 16.9774C0.165405 17.2616 0.395777 17.492 0.679955 17.492H6.27649V16.4629H4.78309Z" fill="#21345F"/>
<path d="M22.601 35.9194C21.9626 35.9194 21.4432 35.4004 21.4432 34.7617C21.4432 34.229 21.0111 33.7969 20.4784 33.7969C19.9454 33.7969 19.5137 34.229 19.5137 34.7617C19.5137 35.4004 18.9943 35.9194 18.3559 35.9194C17.8229 35.9194 17.3907 36.3515 17.3907 36.8846C17.3907 37.4172 17.8229 37.8494 18.3559 37.8494C18.9943 37.8494 19.5137 38.3687 19.5137 39.0071C19.5137 39.5397 19.9454 39.9719 20.4784 39.9719C21.0111 39.9719 21.4432 39.5397 21.4432 39.0071C21.4432 38.3687 21.9626 37.8494 22.601 37.8494C23.134 37.8494 23.5657 37.4172 23.5657 36.8846C23.5657 36.3515 23.1336 35.9194 22.601 35.9194Z" fill="#F9AB5A"/>
<path d="M23.647 35.8387C23.3809 35.5717 23.0079 35.4053 22.601 35.4053C22.423 35.4053 22.265 35.3342 22.1468 35.2168C22.029 35.0986 21.9583 34.9406 21.9579 34.7621C21.9583 34.3553 21.7914 33.9823 21.5245 33.7161C21.2584 33.4492 20.8857 33.2828 20.4785 33.2832C20.0717 33.2828 19.6987 33.4492 19.4325 33.7161C19.1656 33.9823 18.9992 34.3553 18.9996 34.7621C18.9992 34.9406 18.928 35.0986 18.8107 35.2168C18.6925 35.3342 18.5345 35.4053 18.3564 35.4053C17.9492 35.4053 17.5761 35.5717 17.3104 35.8387C17.0435 36.1048 16.8767 36.4778 16.8771 36.8847C16.8767 37.2915 17.0435 37.6645 17.3104 37.9306C17.5765 38.1976 17.9492 38.3644 18.3564 38.364C18.5345 38.364 18.6925 38.4351 18.8107 38.5525C18.928 38.6711 18.9992 38.8291 18.9996 39.0072C18.9992 39.414 19.1656 39.787 19.4325 40.0532C19.6987 40.3201 20.0717 40.4869 20.4785 40.4865C20.8857 40.4865 21.2588 40.3197 21.5245 40.0532C21.7914 39.787 21.9583 39.414 21.9579 39.0072C21.9583 38.8291 22.029 38.6711 22.1468 38.5525C22.265 38.4351 22.423 38.364 22.601 38.364C23.0079 38.364 23.3813 38.1976 23.647 37.9306C23.9139 37.6645 24.0804 37.2915 24.0804 36.8847C24.0804 36.4778 23.9139 36.1048 23.647 35.8387ZM22.9194 37.203C22.8362 37.2854 22.7269 37.3349 22.601 37.3349C22.1408 37.3349 21.7199 37.5234 21.4188 37.8249C21.1173 38.126 20.9284 38.5473 20.9288 39.0072C20.9284 39.1334 20.8789 39.2427 20.7965 39.3255C20.7137 39.408 20.6043 39.4574 20.4781 39.4578C20.3523 39.4574 20.243 39.408 20.1597 39.3255C20.0773 39.2427 20.0283 39.1334 20.0279 39.0072C20.0283 38.5473 19.8394 38.126 19.5375 37.8249C19.2368 37.5234 18.8155 37.3349 18.3556 37.3349C18.2298 37.3349 18.1204 37.2854 18.0372 37.203C17.9548 37.1198 17.9058 37.0105 17.9054 36.8847C17.9054 36.7588 17.9548 36.6495 18.0372 36.5663C18.1204 36.4839 18.2298 36.4348 18.3556 36.4344C18.8159 36.4344 19.2368 36.2459 19.5375 35.944C19.8394 35.6433 20.0283 35.2224 20.0279 34.7621C20.0283 34.6363 20.0773 34.527 20.1597 34.4438C20.243 34.3613 20.3523 34.3123 20.4781 34.3119C20.6043 34.3119 20.7137 34.3613 20.7965 34.4438C20.8789 34.527 20.9284 34.6363 20.9288 34.7621C20.9284 35.2224 21.1173 35.6433 21.4188 35.944C21.7199 36.2459 22.1408 36.4344 22.601 36.4344C22.7269 36.4344 22.8362 36.4839 22.9194 36.5663C23.0014 36.6495 23.0509 36.7588 23.0513 36.8847C23.0509 37.0105 23.0014 37.1202 22.9194 37.203Z" fill="#21345F"/>
<path d="M6.27649 3.60449H28.1071V31.3162H6.27649V3.60449Z" fill="white"/>
<path d="M6.90033 3.09082C6.27163 3.09082 5.76196 3.60048 5.76196 4.22919V30.7295C5.76196 31.3582 6.27163 31.8678 6.90033 31.8678H27.7463C28.2357 31.8678 28.6325 31.4711 28.6325 30.9816V4.22919C28.6325 3.60049 28.1228 3.09082 27.4941 3.09082H6.90033ZM6.79106 5.25788C6.79106 4.62918 7.30073 4.11952 7.92943 4.11952H26.465C27.0937 4.11952 27.6034 4.62918 27.6034 5.25788V29.7C27.6034 30.3287 27.0937 30.8383 26.465 30.8383H7.92943C7.30073 30.8383 6.79106 30.3287 6.79106 29.7V5.25788Z" fill="#21345F"/>
<path d="M11.7561 1.47754H22.6384V5.73182H11.7561V1.47754Z" fill="#F9AB5A"/>
<path d="M11.7561 1.47754H22.6384V3.13616H11.7561V1.47754Z" fill="white"/>
<path d="M12.3799 0.963867C11.7512 0.963867 11.2416 1.47353 11.2416 2.10223V5.10888C11.2416 5.73759 11.7512 6.24725 12.3799 6.24725H22.0146C22.6433 6.24725 23.153 5.73758 23.153 5.10888V2.10223C23.153 1.47353 22.6433 0.963867 22.0146 0.963867H12.3799ZM12.2707 3.13133C12.2707 2.50263 12.7803 1.99297 13.409 1.99297H20.9855C21.6142 1.99297 22.1239 2.50263 22.1239 3.13133V4.07978C22.1239 4.70848 21.6142 5.21815 20.9855 5.21815H13.409C12.7803 5.21815 12.2707 4.70848 12.2707 4.07978V3.13133Z" fill="#21345F"/>
<path d="M14.6853 9.46094H24.1076V10.49H14.6853V9.46094Z" fill="#21345F"/>
<path d="M14.6853 15.1543H24.1076V16.1834H14.6853V15.1543Z" fill="#21345F"/>
<path d="M14.6853 20.8486H24.1076V21.8777H14.6853V20.8486Z" fill="#21345F"/>
<path d="M14.6853 26.543H24.1076V27.5721H14.6853V26.543Z" fill="#21345F"/>
<path opacity="0.2" d="M9.70789 15.0622C9.70789 14.4335 10.2175 13.9238 10.8463 13.9238H11.9145C12.5432 13.9238 13.0529 14.4335 13.0529 15.0622V16.13C13.0529 16.7587 12.5432 17.2684 11.9145 17.2684H10.8463C10.2175 17.2684 9.70789 16.7587 9.70789 16.13V15.0622Z" fill="#21345F"/>
<path opacity="0.2" d="M9.70789 9.4411C9.70789 8.8124 10.2175 8.30273 10.8463 8.30273H11.9145C12.5432 8.30273 13.0529 8.8124 13.0529 9.4411V10.5089C13.0529 11.1376 12.5432 11.6473 11.9145 11.6473H10.8463C10.2175 11.6473 9.70789 11.1376 9.70789 10.5089V9.4411Z" fill="#21345F"/>
<path opacity="0.2" d="M9.70789 20.6843C9.70789 20.0556 10.2175 19.5459 10.8463 19.5459H11.9145C12.5432 19.5459 13.0529 20.0556 13.0529 20.6843V21.7525C13.0529 22.3812 12.5432 22.8909 11.9145 22.8909H10.8463C10.2175 22.8909 9.70789 22.3812 9.70789 21.7525V20.6843Z" fill="#21345F"/>
<path opacity="0.2" d="M9.70789 26.3054C9.70789 25.6767 10.2175 25.167 10.8463 25.167H11.9145C12.5432 25.167 13.0529 25.6767 13.0529 26.3054V27.3736C13.0529 28.0023 12.5432 28.512 11.9145 28.512H10.8463C10.2175 28.512 9.70789 28.0023 9.70789 27.3736V26.3054Z" fill="#21345F"/>
<path d="M20.1464 10.1621H34.0123C34.3813 10.1621 34.6804 10.4612 34.6804 10.8302V18.743C34.6804 19.1121 34.3813 19.4111 34.0123 19.4111H26.2422C26.0384 19.4111 25.8462 19.504 25.7192 19.6632L23.4415 22.5246C23.3056 22.6954 23.0303 22.5993 23.0303 22.3811V20.0793C23.0303 19.7102 22.7312 19.4111 22.3622 19.4111H20.1464C19.7774 19.4111 19.4783 19.1121 19.4783 18.743V10.8302C19.4783 10.4612 19.7774 10.1621 20.1464 10.1621Z" fill="white"/>
<path d="M27.4335 17.5512C26.8757 17.5512 26.387 17.4317 25.9673 17.1926C25.5529 16.9536 25.2342 16.6162 25.0111 16.1806C24.788 15.7397 24.6764 15.2244 24.6764 14.6347C24.6764 14.0504 24.788 13.5404 25.0111 13.1048C25.2342 12.6638 25.5529 12.3265 25.9673 12.0927C26.387 11.8537 26.8757 11.7342 27.4335 11.7342C27.816 11.7342 28.1746 11.7953 28.5093 11.9174C28.8493 12.0343 29.1308 12.199 29.3539 12.4115L29.0193 13.1605C28.7643 12.9533 28.5093 12.8046 28.2543 12.7143C28.0046 12.6187 27.7363 12.5709 27.4495 12.5709C26.9023 12.5709 26.4773 12.7488 26.1745 13.1048C25.877 13.4607 25.7282 13.9707 25.7282 14.6347C25.7282 15.3041 25.877 15.8194 26.1745 16.1806C26.472 16.5365 26.897 16.7145 27.4495 16.7145C27.7363 16.7145 28.0046 16.6694 28.2543 16.579C28.5093 16.4834 28.7643 16.332 29.0193 16.1248L29.3539 16.8739C29.1308 17.0864 28.8493 17.2537 28.5093 17.3759C28.1746 17.4928 27.816 17.5512 27.4335 17.5512Z" fill="#D13A08"/>
<path d="M34.8486 9.99358C34.6363 9.78052 34.3373 9.64706 34.0124 9.64746H20.1465C19.8217 9.64706 19.5226 9.78052 19.3104 9.99358C19.0969 10.2062 18.9635 10.5049 18.9639 10.8301V18.7429C18.9635 19.0681 19.0969 19.3668 19.3104 19.5795C19.5226 19.7925 19.8217 19.926 20.1465 19.9256H22.3623C22.4065 19.926 22.4415 19.9421 22.4708 19.971C22.4998 20.0004 22.5159 20.0353 22.5163 20.0796V22.381C22.5159 22.4863 22.5384 22.592 22.5806 22.6861C22.6437 22.828 22.7478 22.9397 22.8664 23.0129C22.9854 23.0869 23.1209 23.1259 23.2636 23.1263C23.3673 23.1263 23.4754 23.1045 23.5771 23.0567C23.6788 23.0093 23.7729 22.9353 23.8445 22.8449L26.1221 19.9839C26.1515 19.9473 26.1957 19.926 26.2423 19.926H34.0124C34.3377 19.926 34.6363 19.7929 34.849 19.5795C35.062 19.3672 35.1955 19.0681 35.1951 18.7433V10.8301C35.1951 10.5053 35.062 10.2062 34.8486 9.99358ZM34.166 18.7433C34.1656 18.7876 34.1495 18.8225 34.121 18.8519C34.0912 18.8804 34.0563 18.8965 34.0124 18.8969H26.2423C25.8817 18.8969 25.5413 19.0609 25.317 19.3427L23.545 21.5685V20.0792C23.5454 19.7543 23.4119 19.4553 23.1985 19.243C22.9862 19.03 22.6875 18.8965 22.3623 18.8965H20.1465C20.1027 18.8965 20.0673 18.88 20.038 18.8515C20.009 18.8221 19.9934 18.7868 19.9926 18.7429V10.8301C19.993 10.7863 20.009 10.7509 20.038 10.7212C20.0673 10.6926 20.1023 10.6766 20.1465 10.6762H34.0124C34.0563 10.6766 34.0912 10.6926 34.121 10.7212C34.1495 10.7505 34.1656 10.7859 34.166 10.8301V18.7433Z" fill="#21345F"/>
<path d="M12.6356 8.67578L10.0348 11.2766" stroke="#D13A08" stroke-width="0.6" stroke-linecap="round" stroke-linejoin="round"/>
<path d="M10.0348 8.67578L12.6356 11.2766" stroke="#D13A08" stroke-width="0.6" stroke-linecap="round" stroke-linejoin="round"/>
<path d="M12.6356 14.2959L10.0348 16.8967" stroke="#D13A08" stroke-width="0.6" stroke-linecap="round" stroke-linejoin="round"/>
<path d="M10.0348 14.2959L12.6356 16.8967" stroke="#D13A08" stroke-width="0.6" stroke-linecap="round" stroke-linejoin="round"/>
<path d="M12.6356 19.9707L10.0348 22.5715" stroke="#D13A08" stroke-width="0.6" stroke-linecap="round" stroke-linejoin="round"/>
<path d="M10.0348 19.9707L12.6356 22.5715" stroke="#D13A08" stroke-width="0.6" stroke-linecap="round" stroke-linejoin="round"/>
<path d="M12.6356 25.5732L10.0348 28.1741" stroke="#D13A08" stroke-width="0.6" stroke-linecap="round" stroke-linejoin="round"/>
<path d="M10.0348 25.5732L12.6356 28.1741" stroke="#D13A08" stroke-width="0.6" stroke-linecap="round" stroke-linejoin="round"/>
</g>
<defs>
<clipPath id="clip0">
<rect width="40.626" height="40.626" fill="white" transform="translate(0.165405 0.369141)"/>
</clipPath>
</defs>
</svg>
