<svg width="360" height="300" viewBox="0 0 360 300" fill="none" xmlns="http://www.w3.org/2000/svg">
<mask id="mask0" mask-type="alpha" maskUnits="userSpaceOnUse" x="0" y="0" width="360" height="300">
<rect width="360" height="300" fill="#C4C4C4"/>
</mask>
<g mask="url(#mask0)">
<path opacity="0.8" d="M571.684 147.084C571.135 151.732 570.318 156.341 569.239 160.885C560.996 195.697 537.201 228.294 499.639 231.939C423.029 239.373 433.406 287.003 384.953 296.732C366.782 300.376 347.27 291.204 329.77 275.198C327.183 272.834 324.71 270.383 322.351 267.844C316.099 261.131 310.54 253.741 305.769 245.797C282.241 206.632 279.192 156.274 299.75 113.235L312.282 86.9973C322.773 65.038 338.766 46.5075 358.535 33.4048C391.48 11.5588 440.905 -14.5421 460.378 9.76444C480.614 35.017 486.819 46.1536 504.403 57.1152C506.26 58.2711 508.242 59.4256 510.382 60.5946C511.485 61.2001 512.632 61.8084 513.822 62.4196C519.16 65.1688 525.415 68.0375 532.959 71.2341L534.226 71.7676L534.599 71.9236L535.039 72.1087L536.222 72.6029C538.245 73.4425 540.356 74.3069 542.555 75.196C566.162 84.7365 575.428 115.371 571.684 147.084Z" fill="#FFF2D1"/>
<path opacity="0.8" d="M-14.6942 297.174C-14.6942 297.174 -75.4764 288.433 -65.4732 230.613C-55.47 172.792 -49.7913 169.461 -68.0101 101.604C-86.229 33.7469 28.6171 -41.9531 85.5514 27.6597C142.486 97.2724 173.557 51.8411 213.574 92.1513C253.59 132.462 227.24 249.63 182.829 297.174H-14.6942Z" fill="#FFF2D1"/>
<path d="M87.8687 225.102H99.0519L97.749 259.105H89.1702L87.8687 225.102Z" fill="#FEFEFE" stroke="#0B065A" stroke-width="0.783786" stroke-miterlimit="10" stroke-linecap="round"/>
<path d="M96.4744 253.109L95.6927 279.255H91.2278L90.446 253.109H96.4744Z" fill="#FEFEFE" stroke="#0B065A" stroke-width="0.783786" stroke-miterlimit="10" stroke-linecap="round"/>
<path d="M94.166 233.286C107.072 233.286 117.534 227.706 117.534 220.822C117.534 213.938 107.072 208.357 94.166 208.357C81.26 208.357 70.7977 213.938 70.7977 220.822C70.7977 227.706 81.26 233.286 94.166 233.286Z" fill="#FEFEFE" stroke="#0B065A" stroke-width="0.783786" stroke-miterlimit="10" stroke-linecap="round"/>
<path d="M63.4499 212.035C63.4499 217.301 77.2011 221.574 94.1657 221.574C111.13 221.574 124.882 217.303 124.882 212.035C124.882 206.767 111.13 208.359 94.1657 208.359C77.2011 208.359 63.4499 206.765 63.4499 212.035Z" fill="#FEFEFE" stroke="#0B065A" stroke-width="0.783786" stroke-miterlimit="10" stroke-linecap="round"/>
<path d="M105.974 277.287H78.8159V280.866H105.974V277.287Z" fill="#FEFEFE" stroke="#0B065A" stroke-width="0.783786" stroke-miterlimit="10" stroke-linecap="round"/>
<path d="M35.8008 156.728H357.411L319.284 122.4H74.342" fill="#F9E9BF"/>
<path d="M35.8008 156.728H357.411L319.284 122.4H74.342" stroke="#090000" stroke-width="0.540058" stroke-miterlimit="10" stroke-linecap="round"/>
<path d="M309.923 43.0076C316.151 56.5982 321.418 62.9722 324.533 65.6793C327.859 68.5686 331.116 76.3076 331.116 76.3076C328.875 64.6964 320.712 64.4263 311.851 43.094C302.99 21.7617 294.075 27.2973 294.075 27.2973C291.985 27.7577 290.954 29.1146 290.954 29.1146C302.384 36.0449 297.321 74.2986 305.33 87.3639C313.339 100.429 326.242 92.9792 328.134 85.0187C330.025 77.0583 313.012 52.5396 310.893 46.171C310.543 45.1098 310.231 44.0513 309.923 43.0076Z" fill="#3F3D56"/>
<path d="M357.411 156.728H35.8008V165.649H357.411V156.728Z" fill="#FEFEFE" stroke="#0B065A" stroke-width="0.783786" stroke-miterlimit="10" stroke-linecap="round"/>
<path d="M292.253 258.009C292.253 258.009 290.424 267.846 291.748 272.198C293.071 276.549 276.677 289.79 275.038 289.285C273.399 288.78 270.625 283.674 270.625 283.674C270.625 283.674 281.281 272.765 281.438 269.801C281.595 266.838 282.984 254.037 282.984 254.037L292.253 258.009Z" fill="white" stroke="black" stroke-width="0.540058" stroke-miterlimit="10" stroke-linecap="round"/>
<path d="M291.61 271.664C291.61 271.664 280.902 283.606 277.308 285.12C277.308 285.12 275.417 285.908 271.16 282.534C271.16 282.534 270.877 282.314 269.583 283.512C268.29 284.71 262.806 289.25 264.508 292.018C266.211 294.786 273.336 294.988 279.199 289.496C285.063 284.003 290.108 280.164 292.252 279.217C292.252 279.217 293.041 279.028 292.946 277.831C292.852 276.633 292.986 269.658 291.61 271.664Z" fill="#0B065A" stroke="black" stroke-width="0.540058" stroke-miterlimit="10" stroke-linecap="round"/>
<path d="M318.024 261.268C318.024 261.268 319.852 271.104 318.528 275.456C317.203 279.807 333.598 293.048 335.238 292.544C336.879 292.041 339.652 286.932 339.652 286.932C339.652 286.932 328.995 276.023 328.837 273.059C328.679 270.096 327.293 257.295 327.293 257.295L318.024 261.268Z" fill="white" stroke="black" stroke-width="0.540058" stroke-miterlimit="10" stroke-linecap="round"/>
<path d="M282.961 256.923L282.539 261.402C282.539 261.402 285.915 264.457 291.315 262.227L291.912 257.959L282.961 256.923Z" fill="#E3E3E3"/>
<path d="M318.596 262.806L319.088 267.232C319.088 267.232 326.218 268.069 327.799 265.019L327.413 260.628L318.596 262.806Z" fill="#E3E3E3"/>
<path d="M318.661 274.922C318.661 274.922 329.368 286.864 332.962 288.377C332.962 288.377 334.852 289.166 339.11 285.792C339.11 285.792 339.394 285.572 340.687 286.769C341.981 287.967 347.465 292.508 345.763 295.275C344.06 298.043 336.935 298.246 331.07 292.753C325.205 287.261 320.162 283.421 318.018 282.475C318.018 282.475 317.23 282.286 317.324 281.088C317.419 279.89 317.285 272.912 318.661 274.922Z" fill="#0B065A" stroke="black" stroke-width="0.540058" stroke-miterlimit="10" stroke-linecap="round"/>
<path d="M260.446 20.7424C260.446 20.7424 256.125 25.8419 257.276 30.8793C258.666 36.9819 252.66 41.1755 253.772 41.5994C254.885 42.0234 258.388 42.8146 258.388 42.8146C258.388 42.8146 260.252 51.2786 263.088 51.4379C265.925 51.5973 273.768 48.5729 273.768 48.5729L275.686 56.4537L285.364 53.4281L282.529 40.1345C282.529 40.1345 272.572 16.3112 260.446 20.7424Z" fill="white" stroke="black" stroke-width="0.540058" stroke-miterlimit="10" stroke-linecap="round"/>
<path d="M260.215 21.3972C260.215 21.3972 261.613 24.192 264.4 26.2091C267.187 28.2262 270.858 36.8348 272.694 35.6142C274.53 34.3937 261.23 20.1929 261.23 20.1929L260.215 21.3972Z" fill="#E3E3E3"/>
<path d="M274.82 39.1585C274.82 39.1585 279.641 38.4955 278.523 33.878C277.405 29.2605 281.55 36.2921 282.634 41.7089C283.718 47.1257 284.993 53.5902 284.993 53.5902C284.993 53.5902 283.267 53.493 281.738 54.3152C281.738 54.3152 281.188 38.0743 278.632 38.9505C276.077 39.8268 274.323 40.4586 274.82 39.1585Z" fill="#E3E3E3"/>
<path d="M273.768 48.5783C273.768 48.5783 276.965 47.1187 278.628 46.1628" stroke="black" stroke-width="0.540058" stroke-miterlimit="10" stroke-linecap="round"/>
<path d="M253.86 152.838C253.86 152.838 249.316 156.868 248.333 158.272C247.351 159.676 247.118 161.176 247.253 163.986C247.388 166.796 248.283 169.045 248.986 168.951C249.688 168.856 249.829 168.482 249.829 168.482C249.829 168.482 250.953 169.185 251.99 168.482C251.99 168.482 252.125 169.888 255.365 169.888C255.365 169.888 256.021 173.915 257.566 173.166C259.11 172.416 258.596 168.71 258.129 167.405C258.129 167.405 257.766 160.755 258.603 160.654C259.44 160.553 263.655 160.701 263.655 160.701L261.172 153.067C261.172 153.067 257.924 149.032 253.86 152.838Z" fill="white" stroke="black" stroke-width="0.540058" stroke-miterlimit="10" stroke-linecap="round"/>
<path d="M274.771 54.1706C274.771 54.1706 279.01 55.5653 282.737 53.3876C286.463 51.2098 287.192 50.1918 287.192 50.1918C287.192 50.1918 287.634 49.5936 287.939 50.3673C288.244 51.1409 289.859 56.7602 291.638 57.1113C293.418 57.4623 308.662 59.3593 312.128 63.0114C315.594 66.6635 318.791 107.784 311.261 113.944C309.717 115.208 304.949 116.154 304.949 116.154L261.172 153.074C261.172 153.074 256.255 151.95 253.024 153.074C253.024 153.074 255.834 114.014 255.132 108.675C254.429 103.335 252.742 60.8336 263.983 59.4295C275.224 58.0253 273.958 56.9006 273.853 54.6526C273.846 54.6526 273.604 53.5496 274.771 54.1706Z" fill="white" stroke="black" stroke-width="0.540058" stroke-miterlimit="10" stroke-linecap="round"/>
<path d="M297.626 58.386C297.626 58.386 294.934 62.778 294.465 65.963C293.997 69.148 292.872 79.4037 291.608 79.9195C290.345 80.4352 267.395 79.9195 267.395 79.9195L267.16 86.4758C267.16 86.4758 295.541 88.4902 296.807 81.6989C298.072 74.9077 299.527 58.8909 299.527 58.8909L297.626 58.386Z" fill="#E3E3E3"/>
<path d="M263.613 67.1172C263.613 67.1172 258.499 82.8288 259.483 94.3496C260.467 105.87 259.857 152.518 259.857 152.518C259.857 152.518 262.661 153.337 263.613 152.774C264.565 152.211 268.864 75.9188 263.613 67.1172Z" fill="#E3E3E3"/>
<path d="M263.976 58.445C265.38 58.5288 266.788 58.5288 268.191 58.445C268.191 58.445 268.894 57.9886 268.191 60.2717C267.489 62.5548 266.997 77.1675 267.067 80.6103C267.067 80.6103 281.89 84.2274 293.832 80.6103C293.832 80.6103 295.229 62.0242 299.233 58.4085C299.233 58.4085 299.131 57.6727 304.119 58.9027C304.119 58.9027 299.553 66.3744 300.712 82.2183C301.42 91.8948 299.974 102.036 299.974 102.036L279.11 104.038V104.882L263.097 105.731C263.097 105.731 262.557 99.0709 261.207 93.4016C259.34 85.6329 263.695 79.9771 263.976 58.445Z" fill="#F17336" stroke="black" stroke-width="0.540058" stroke-miterlimit="10" stroke-linecap="round"/>
<path d="M335.21 258.872C325.657 266.742 301.35 263.789 301.35 263.789L297.275 242.153V259.154C297.275 259.154 293.765 259.996 275.92 258.31C258.075 256.624 254.702 255.079 254.702 255.079C252.874 236.532 265.52 115.945 265.52 115.945L265.564 115.897C272.621 108.009 279.571 110.784 279.571 110.784L279.852 111.766C297.375 116.659 304.762 116.167 304.937 116.154C304.948 122.157 309.915 131.014 309.915 131.014C322.284 152.652 335.21 258.872 335.21 258.872Z" fill="#654EF9" stroke="black" stroke-width="0.540058" stroke-miterlimit="10" stroke-linecap="round"/>
<path d="M278.44 114.927C270.642 117.526 265.479 120.266 265.479 120.266C265.479 120.266 265.546 118.054 265.567 115.897C272.624 108.009 279.573 110.784 279.573 110.784L279.854 111.766C297.377 116.659 304.764 116.167 304.94 116.154C304.867 116.257 304.784 116.352 304.693 116.438C304.693 116.438 304.458 118.639 305.582 121.519C306.707 124.398 286.237 112.329 278.44 114.927Z" fill="#5842E2"/>
<path d="M279.572 110.782C279.572 110.782 278.073 110.408 276.247 111.532C274.42 112.655 272.219 114.108 267.535 115.513C267.535 115.513 264.866 118.37 264.398 119.447C263.929 120.525 260.979 122.491 260.23 122.397C259.48 122.304 258.731 121.555 259.995 120.618C261.259 119.681 264.022 117.714 264.491 115.185C264.491 115.185 263.601 115.092 260.089 117.059C256.578 119.026 254 120.618 252.689 119.072C252.689 119.072 252.268 118.463 253.298 117.808C253.298 117.808 250.301 118.51 250.675 116.075C250.675 116.075 255.687 113.218 256.81 112.14C256.81 112.14 251.845 114.248 250.301 112.235C250.301 112.235 250.02 111.626 251.471 111.345C252.923 111.064 259.603 107.692 261.134 106.567C262.665 105.442 263.789 104.567 271.142 104.742C278.495 104.916 279.116 104.877 279.116 104.877L279.572 110.782Z" fill="white" stroke="black" stroke-width="0.540058" stroke-miterlimit="10" stroke-linecap="round"/>
<path d="M253.298 117.808C253.298 117.808 260.072 113.593 261.129 112.047" stroke="black" stroke-width="0.540058" stroke-miterlimit="10" stroke-linecap="round"/>
<path d="M256.81 112.141C256.81 112.141 260.089 109.893 260.651 109.424" stroke="black" stroke-width="0.540058" stroke-miterlimit="10" stroke-linecap="round"/>
<path d="M254.523 161.598C254.702 161.55 254.376 166.655 254.793 167.92C255.016 168.565 255.204 169.222 255.354 169.888" stroke="black" stroke-width="0.540058" stroke-miterlimit="10" stroke-linecap="round"/>
<path d="M251.144 161.177C251.144 161.177 250.863 166.75 251.986 168.482" stroke="black" stroke-width="0.540058" stroke-miterlimit="10" stroke-linecap="round"/>
<path d="M248.942 162.815C248.942 162.815 248.567 165.72 248.942 166.515C249.318 167.31 249.832 168.482 249.832 168.482" stroke="black" stroke-width="0.540058" stroke-miterlimit="10" stroke-linecap="round"/>
<path d="M297.275 242.153L280.485 145.769" stroke="black" stroke-width="0.540058" stroke-miterlimit="10" stroke-linecap="round"/>
<path d="M296.362 125.114C296.362 125.114 302.673 137.926 314.306 141.917" stroke="black" stroke-width="0.540058" stroke-miterlimit="10" stroke-linecap="round"/>
<path d="M196.851 119.676C195.134 117.179 194.979 115.731 194.979 115.731H183.55C183.55 115.731 183.393 117.179 181.677 119.676C179.961 122.172 176.2 122.385 176.2 122.385H201.987C201.987 122.385 198.567 122.172 196.851 119.676Z" fill="#FEFEFE" stroke="black" stroke-width="0.540058" stroke-miterlimit="10" stroke-linecap="round"/>
<path d="M241.936 38.6304H136.258C134.189 38.6304 132.513 40.3072 132.513 42.3757V111.985C132.513 114.054 134.189 115.73 136.258 115.73H241.936C244.005 115.73 245.682 114.054 245.682 111.985V42.3757C245.682 40.3072 244.005 38.6304 241.936 38.6304Z" fill="#FEFEFE" stroke="black" stroke-width="0.540058" stroke-miterlimit="10" stroke-linecap="round"/>
<path d="M132.514 105.035V111.985C132.514 112.979 132.909 113.931 133.611 114.634C134.314 115.336 135.266 115.731 136.26 115.731H241.939C242.933 115.731 243.885 115.336 244.588 114.634C245.29 113.931 245.685 112.979 245.685 111.985V105.035H132.514Z" stroke="black" stroke-width="0.540058" stroke-miterlimit="10" stroke-linecap="round"/>
<path d="M203.185 122.4H175.519C175.454 122.4 175.401 122.453 175.401 122.518V125.182C175.401 125.247 175.454 125.299 175.519 125.299H203.185C203.25 125.299 203.302 125.247 203.302 125.182V122.518C203.302 122.453 203.25 122.4 203.185 122.4Z" fill="#FEFEFE" stroke="black" stroke-width="0.540058" stroke-miterlimit="10" stroke-linecap="round"/>
<path d="M240.768 42.3948H137.077C136.823 42.3948 136.617 42.6009 136.617 42.8552V100.639C136.617 100.893 136.823 101.099 137.077 101.099H240.768C241.023 101.099 241.229 100.893 241.229 100.639V42.8552C241.229 42.6009 241.023 42.3948 240.768 42.3948Z" fill="#FEFEFE" stroke="black" stroke-width="0.540058" stroke-miterlimit="10" stroke-linecap="round"/>
<path d="M140.615 46.3489V94.9314C140.615 95.1791 140.657 95.4244 140.74 95.6532C140.822 95.8821 140.943 96.09 141.095 96.2652C141.248 96.4404 141.429 96.5793 141.628 96.6741C141.827 96.7689 142.04 96.8177 142.255 96.8177H236.528C236.743 96.8177 236.957 96.7689 237.156 96.6741C237.355 96.5793 237.536 96.4404 237.688 96.2652C237.84 96.09 237.961 95.8821 238.044 95.6532C238.126 95.4244 238.168 95.1791 238.168 94.9314V46.3489H140.615Z" stroke="black" stroke-width="0.540058" stroke-miterlimit="10" stroke-linecap="round"/>
<path d="M189.47 107.017H188.879C187.381 107.017 186.167 108.23 186.167 109.728V110.319C186.167 111.816 187.381 113.03 188.879 113.03H189.47C190.967 113.03 192.181 111.816 192.181 110.319V109.728C192.181 108.23 190.967 107.017 189.47 107.017Z" fill="#654EF9"/>
<path d="M218.948 58.9451H159.828V59.9451H218.948V58.9451Z" fill="#0B065A"/>
<path d="M218.948 65.439H179.571V66.1545H218.948V65.439Z" fill="#0B065A"/>
<path d="M218.948 67.6653H179.452V68.3809H218.948V67.6653Z" fill="#0B065A"/>
<path d="M218.948 63.2124H179.452V63.928H218.948V63.2124Z" fill="#0B065A"/>
<path d="M218.948 69.8914H179.452V70.6069H218.948V69.8914Z" fill="#0B065A"/>
<path d="M218.948 72.1182H179.452V72.8337H218.948V72.1182Z" fill="#0B065A"/>
<path d="M218.948 74.3445H179.452V75.0601H218.948V74.3445Z" fill="#0B065A"/>
<path d="M218.948 76.5708H179.452V77.2864H218.948V76.5708Z" fill="#0B065A"/>
<path d="M218.948 78.7971H179.452V79.5127H218.948V78.7971Z" fill="#0B065A"/>
<path d="M200.8 81.0239H179.452V81.7395H200.8V81.0239Z" fill="#0B065A"/>
<path d="M160.36 81.6498V63.7124H177.241V81.6498H160.36Z" stroke="#0B065A"/>
<path d="M167.154 77.8796C167.048 77.8795 166.944 77.8561 166.849 77.8112C166.753 77.7663 166.668 77.7008 166.601 77.6196L163.032 73.3083C162.972 73.2357 162.926 73.1519 162.899 73.0618C162.871 72.9716 162.861 72.8769 162.87 72.783C162.879 72.689 162.906 72.5978 162.95 72.5144C162.994 72.431 163.054 72.3571 163.127 72.2969C163.199 72.2367 163.283 72.1914 163.373 72.1636C163.464 72.1358 163.558 72.126 163.652 72.1348C163.746 72.1436 163.837 72.1708 163.921 72.2149C164.004 72.259 164.078 72.3191 164.138 72.3917L167.077 75.9402L173.415 65.9402C173.518 65.7818 173.679 65.6705 173.864 65.6304C174.049 65.5903 174.242 65.6245 174.401 65.7257C174.561 65.8269 174.674 65.987 174.716 66.1711C174.759 66.3553 174.727 66.5487 174.628 66.7095L167.761 77.5446C167.7 77.6402 167.618 77.7201 167.52 77.7777C167.423 77.8354 167.313 77.8691 167.2 77.8762C167.185 77.8796 167.169 77.8796 167.154 77.8796Z" fill="#F17336"/>
<path d="M283.471 44.5601C283.471 44.5601 290.426 43.191 291.093 30.1365C291.093 30.1365 289.378 7.48236 262.47 15.2849C261.676 15.5051 260.963 15.9506 260.418 16.5675C259.666 17.4424 259.124 18.8425 260.439 20.7394C260.439 20.7394 262.832 24.2957 266.585 26.7638C270.338 29.2319 271.757 36.1568 272.931 35.5991C274.104 35.0415 275.121 31.4137 278.103 34.249C281.086 37.0843 282.041 37.8768 283.547 44.9286" fill="#3F3D56"/>
<path d="M299.979 102.036C299.979 102.036 302.45 101.486 304.124 102.036H299.979Z" fill="#4052F2"/>
<path d="M299.979 102.036C299.979 102.036 302.45 101.486 304.124 102.036" stroke="black" stroke-width="0.540058" stroke-miterlimit="10" stroke-linecap="round"/>
<path d="M296.947 258.919C296.947 258.919 294.301 259.2 289.697 258.942L280.134 145.769L296.947 242.439V258.919Z" fill="#5842E2"/>
<path d="M296.678 125.114C296.678 125.114 303.001 137.479 313.825 141.413L312.841 138.637C312.841 138.637 305.43 135.231 298.967 127.327C298.961 127.334 296.643 123.779 296.678 125.114Z" fill="#5842E2"/>
<path d="M300.858 76.9216C300.858 76.9216 303.317 96.3813 303.527 98.9101C303.738 101.439 303.527 101.5 303.282 101.523C303.036 101.546 301.349 101.266 300.295 101.793C300.295 101.793 301.387 94.0617 301.209 89.5387C300.823 79.7664 300.858 76.9216 300.858 76.9216Z" fill="#E3E3E3"/>
<path d="M272.929 35.6022C272.929 35.6022 275.562 31.8056 277.778 33.9604C279.993 36.1153 276.738 38.7872 274.959 38.9465" stroke="black" stroke-width="0.540058" stroke-miterlimit="10" stroke-linecap="round"/>
<path d="M263.391 20.9554C263.391 20.9554 278.773 12.1984 288.868 27.482" stroke="white" stroke-width="0.270029" stroke-miterlimit="10" stroke-linecap="round"/>
<path d="M269.477 26.208C269.477 26.208 276.02 31.9718 288.868 29.289" stroke="white" stroke-width="0.270029" stroke-miterlimit="10" stroke-linecap="round"/>
<path d="M283.695 40.1401C283.945 40.0604 287.206 38.8669 288.868 31.9407" stroke="white" stroke-width="0.270029" stroke-miterlimit="10" stroke-linecap="round"/>
<path d="M266.925 22.9675C266.925 22.9675 275.566 27.878 279.172 27.4797" stroke="white" stroke-width="0.270029" stroke-miterlimit="10" stroke-linecap="round"/>
<path d="M293.095 28.7566C293.095 28.7566 307.557 33.2121 308.557 50.8328C309.557 68.4536 316.793 83.2066 320.905 89.1499" stroke="white" stroke-width="0.270029" stroke-miterlimit="10" stroke-linecap="round"/>
<path d="M319.284 62.2256C319.284 62.2256 325.511 87.9256 334.386 96.2722" stroke="white" stroke-width="0.270029" stroke-miterlimit="10" stroke-linecap="round"/>
<path d="M273.998 48.6753C273.998 48.6753 278.184 46.7122 278.746 46.2869C279.307 45.8616 278.819 49.3477 274.56 50.7276L273.998 48.6753Z" fill="#E3E3E3"/>
<path d="M276.797 105.128C276.797 105.128 278.272 108.008 276.797 109.273C275.323 110.538 267.278 111.703 265.944 116.824L267.429 115.232C267.429 115.232 271.586 113.866 273.639 112.714C275.607 111.608 277.574 110.149 279.295 110.484L278.837 105.198L276.797 105.128Z" fill="#E3E3E3"/>
<path d="M260.215 34.7152C260.583 34.7152 260.882 34.2999 260.882 33.7877C260.882 33.2754 260.583 32.8601 260.215 32.8601C259.847 32.8601 259.548 33.2754 259.548 33.7877C259.548 34.2999 259.847 34.7152 260.215 34.7152Z" fill="black"/>
<path d="M258.527 29.456C258.527 29.456 261.148 28.2544 263.072 30.0663" stroke="black" stroke-width="0.540058" stroke-miterlimit="10" stroke-linecap="round"/>
<path d="M130.74 251.413L129.611 264.689L122.684 263.89L122.873 249.498L130.74 251.413Z" fill="white" stroke="black" stroke-width="0.540058" stroke-miterlimit="10" stroke-linecap="round"/>
<path d="M130.548 258.453C130.548 258.453 134.447 267.642 140.904 268.132C142.887 268.282 144.424 268.722 145.601 269.261C146.122 269.503 146.59 269.847 146.976 270.274C147.361 270.7 147.658 271.199 147.847 271.742C148.035 272.285 148.113 272.861 148.075 273.434C148.038 274.008 147.885 274.568 147.626 275.082L119.948 275.662C119.34 273.803 119.137 271.836 119.353 269.892C119.549 268.128 119.902 265.944 120.541 264.136C121.848 260.435 121.351 258.919 121.351 258.919L130.548 258.453Z" fill="#654EF9" stroke="black" stroke-width="0.540058" stroke-miterlimit="10" stroke-linecap="round"/>
<path d="M119.393 273.187H148.062" stroke="black" stroke-width="0.540058" stroke-miterlimit="10" stroke-linecap="round"/>
<path d="M106.474 177.57C106.474 177.57 151.515 172.253 155.384 175.4C164.503 182.818 131.795 251.727 131.795 251.727C131.795 251.727 128.804 252.785 120.957 250.43C120.957 250.43 117.702 210.562 125.1 202.137C132.499 193.712 106.474 177.57 106.474 177.57Z" fill="#F17336" stroke="black" stroke-width="0.540058" stroke-miterlimit="10" stroke-linecap="round"/>
<path d="M120.317 177.783C120.317 177.783 148.089 173.692 149.037 187.917C149.985 202.143 121.713 218.905 131.794 251.727C131.794 251.727 126.041 251.882 121.263 250.148C121.263 250.148 118.582 217.634 124.062 204.146C129.542 190.658 120.317 177.783 120.317 177.783Z" fill="#E05918"/>
<path d="M178.785 250.628L184.476 262.828L178.002 265.613L170.927 252.908L178.785 250.628Z" fill="white" stroke="black" stroke-width="0.540058" stroke-miterlimit="10" stroke-linecap="round"/>
<path d="M183.979 259.255C183.979 259.255 187.919 268.541 194.443 269.035C196.446 269.188 197.999 269.632 199.188 270.176C199.716 270.42 200.189 270.768 200.579 271.198C200.97 271.629 201.27 272.133 201.461 272.682C201.652 273.231 201.732 273.812 201.694 274.392C201.656 274.972 201.502 275.538 201.241 276.057L173.275 276.643C172.661 274.765 172.455 272.777 172.673 270.812C172.871 269.031 173.229 266.824 173.875 264.998C175.194 261.258 174.693 259.726 174.693 259.726L183.979 259.255Z" fill="#654EF9" stroke="black" stroke-width="0.540058" stroke-miterlimit="10" stroke-linecap="round"/>
<path d="M172.707 274.145H201.675" stroke="black" stroke-width="0.540058" stroke-miterlimit="10" stroke-linecap="round"/>
<path d="M149.443 133.662H176.581L180.999 139.971H144.441L149.443 133.662Z" fill="#FEFEFE" stroke="#0B065A" stroke-width="0.783786" stroke-miterlimit="10" stroke-linecap="round"/>
<path d="M180.999 139.971H144.441V141.698H180.999V139.971Z" fill="#654EF9" stroke="black" stroke-width="0.540058" stroke-miterlimit="10" stroke-linecap="round"/>
<path d="M194.398 133.662H243.268L251.224 139.971H185.388L194.398 133.662Z" fill="#FEFEFE" stroke="#0B065A" stroke-width="0.783786" stroke-miterlimit="10" stroke-linecap="round"/>
<path d="M251.224 139.971H185.388V141.698H251.224V139.971Z" fill="#654EF9" stroke="black" stroke-width="0.540058" stroke-miterlimit="10" stroke-linecap="round"/>
<path d="M87.3585 96.4749V111.327C87.3585 111.327 100.07 111.904 99.9878 111.327C99.9054 110.749 98.5836 98.6973 98.5836 98.6973C98.5836 98.6973 107.003 102.247 109.728 97.8724C112.452 93.4979 112.315 89.3664 112.315 89.3664C112.315 89.3664 115.15 87.9191 115.231 86.681C115.312 85.4429 111.155 82.6144 110.801 79.6602C110.086 73.6912 104.582 65.2987 100.81 67.4995C96.5598 69.9851 87.3585 96.4749 87.3585 96.4749Z" fill="white" stroke="black" stroke-width="0.540058" stroke-miterlimit="10" stroke-linecap="round"/>
<path d="M89.2 64.0821C89.2 64.0821 88.9556 64.2023 88.5249 64.4291C87.4709 64.9872 86.3642 65.6262 85.2049 66.3463C84.2173 66.9577 83.2776 67.6433 82.3939 68.3972C76.9596 72.5826 71.0216 79.3874 76.0739 86.8469C76.0739 86.8469 74.1351 80.2663 77.5118 75.553C75.3799 82.3914 78.8444 89.6039 81.4083 93.5099C85.2049 99.2872 85.7004 98.4622 90.0749 96.4802C94.4494 94.4982 94.2846 87.4828 97.6695 84.5112C101.054 81.5395 102.704 86.4918 103.205 86.0787C103.706 85.6655 101.802 80.5431 101.554 71.8819C101.305 63.2207 106.217 69.43 106.217 69.43V69.075C104.925 61.8328 99.8405 58.6923 89.2 64.0821Z" fill="#3F3D56"/>
<path d="M100.245 90.2357C94.7976 87.2654 98.5118 83.9616 98.5118 83.9616C98.5118 83.9616 100.182 82.0039 102.774 85.7991" stroke="black" stroke-width="0.540058" stroke-miterlimit="10" stroke-linecap="round"/>
<path d="M98.3785 98.3178C98.3785 98.3178 95.4662 97.181 95.4297 97.956C95.3933 98.731 97.7776 104.931 99.1345 106.031C99.1345 106.031 98.4905 100.629 98.3785 98.3178Z" fill="#E3E3E3"/>
<path d="M172.494 116.388L170.883 115.628L161.261 136.047L162.872 136.806L172.494 116.388Z" fill="#0B065A" stroke="black" stroke-width="0.135015" stroke-miterlimit="10" stroke-linecap="round"/>
<path d="M60.0477 182.579C60.0477 182.579 49.6516 208.772 83.7616 208.572C117.872 208.372 142.438 205.579 142.438 205.579C142.438 205.579 153.946 238.871 169.981 254.284C169.981 254.284 174.891 255.458 182.085 249.499C182.085 249.499 165.666 187.495 159.294 185.028C152.923 182.561 111.309 177.783 111.309 177.783L60.0477 182.579Z" fill="#F17336" stroke="black" stroke-width="0.540058" stroke-miterlimit="10" stroke-linecap="round"/>
<path d="M119.644 179.861C119.644 179.861 112.506 190.201 89.4644 194.065C66.4228 197.929 92.2039 209.028 113.42 204.461C134.636 199.893 136.204 198.985 140.512 202.031L142.082 205.271C142.082 205.271 79.418 211.734 68.5817 205.973C58.1329 200.418 57.0785 191.526 61.1559 180.157C65.2334 168.787 119.644 179.861 119.644 179.861Z" fill="#E05918"/>
<path d="M152.965 139.315C152.965 139.315 156.024 137.032 156.617 135.251C157.21 133.47 160.134 129.771 161.779 130.821C163.423 131.871 161.595 133.926 165.797 131.141C169.998 128.356 168.035 137.124 168.994 138.448C169.952 139.773 169.816 142.01 166.847 142.694C163.878 143.379 156.572 144.887 156.572 144.887L152.965 139.315Z" fill="white" stroke="black" stroke-width="0.540058" stroke-miterlimit="10" stroke-linecap="round"/>
<path d="M155.11 139.407C155.11 139.407 156.983 139.361 158.351 140.822C159.718 142.282 166.296 142.512 166.296 142.512L157.075 144.48L155.11 139.407Z" fill="#E3E3E3"/>
<path d="M85.8208 105.395C85.8208 105.395 87.6921 111.988 97.0864 109.135C98.3629 108.728 99.5635 108.113 100.64 107.315C101.199 106.91 101.946 106.64 102.569 107.315C103.734 108.581 106.612 108.988 112.845 110.74C119.526 112.617 121.477 125.742 131.179 145.979C131.179 145.979 143.945 141.047 151.754 138.444C151.754 138.444 155.255 136.947 157.858 145.783C157.858 145.783 133.075 162.169 126.892 163.47C121.874 164.529 117.286 162.034 114.614 156.005C114.614 156.005 114.49 171.732 116.133 175.021C116.133 175.021 117.64 173.65 119.215 175.636C120.791 177.622 120.175 180.98 116.75 182.761C113.325 184.542 92.5499 197.649 66.6514 188.059C66.6514 188.059 58.2589 183.496 54.6621 182.981C51.0653 182.467 66.3341 125.665 68.0812 117.753C69.7014 110.407 74.4269 110.852 84.1479 107.245C84.8919 106.967 84.584 105.612 85.8208 105.395Z" fill="white" stroke="black" stroke-width="0.540058" stroke-miterlimit="10" stroke-linecap="round"/>
<path d="M102.996 137.41L114.24 156.012L114.403 163.458C114.403 163.458 96.8824 135.56 102.996 137.41Z" fill="#E3E3E3"/>
<path d="M131.179 145.983C131.179 145.983 132.847 148.894 133.464 149.888L131.179 145.983Z" fill="white"/>
<path d="M131.179 145.983C131.179 145.983 132.847 148.894 133.464 149.888" stroke="black" stroke-width="0.540058" stroke-miterlimit="10" stroke-linecap="round"/>
<path d="M103.605 65.1068C103.605 65.1068 96.4382 60.0721 99.9878 77.9021" stroke="white" stroke-width="0.270029" stroke-miterlimit="10" stroke-linecap="round"/>
<path d="M100.483 63.2084C100.483 63.2084 90.6595 60.6498 92.8063 83.5146" stroke="white" stroke-width="0.270029" stroke-miterlimit="10" stroke-linecap="round"/>
<path d="M91.5359 65.4377C91.5359 65.4377 77.0394 71.2987 81.9931 88.0554" stroke="white" stroke-width="0.270029" stroke-miterlimit="10" stroke-linecap="round"/>
<path d="M108.893 81.703C109.251 81.6325 109.458 81.153 109.355 80.6321C109.252 80.1113 108.879 79.7462 108.521 79.8168C108.163 79.8874 107.957 80.3668 108.059 80.8877C108.162 81.4086 108.536 81.7736 108.893 81.703Z" fill="black"/>
<path d="M104.971 78.1492C104.971 78.1492 106.553 75.2882 108.706 76.5533" stroke="black" stroke-width="0.540058" stroke-miterlimit="10" stroke-linecap="round"/>
<path d="M110.912 92.2918C110.912 92.2918 108.186 93.2275 106.22 91.741" stroke="black" stroke-width="0.540058" stroke-miterlimit="10" stroke-linecap="round"/>
<path d="M142.438 205.578C142.438 205.578 140.466 198.49 134.689 200.527" stroke="black" stroke-width="0.540058" stroke-miterlimit="10" stroke-linecap="round"/>
<path d="M260.663 45.7714C260.663 45.7714 263.524 46.6557 265.177 44.3848L260.663 45.7714Z" fill="white"/>
<path d="M260.663 45.7714C260.663 45.7714 263.524 46.6557 265.177 44.3848" stroke="black" stroke-width="0.540058" stroke-miterlimit="10" stroke-linecap="round"/>
<path d="M102.765 136.332C102.765 136.332 110.697 151.006 114.614 156.012" stroke="black" stroke-width="0.540058" stroke-miterlimit="10" stroke-linecap="round"/>
<path d="M156.121 234.986C156.121 234.986 170.552 250.133 179.333 240.65L181.739 249.426C181.739 249.426 175.862 254.52 170.213 254.099C170.213 254.095 162.525 246.589 156.121 234.986Z" fill="#E05918"/>
<path d="M116.857 277.287H170.927" stroke="black" stroke-width="0.494471" stroke-miterlimit="10" stroke-linecap="round"/>
<path d="M331.702 277.287L358.4 277.287" stroke="black" stroke-width="0.494471" stroke-miterlimit="10" stroke-linecap="round"/>
<path d="M293.52 277.287L317.534 277.287" stroke="black" stroke-width="0.494471" stroke-miterlimit="10" stroke-linecap="round"/>
<path d="M204.781 277.287L270.737 277.287" stroke="black" stroke-width="0.494471" stroke-miterlimit="10" stroke-linecap="round"/>
<path d="M21.3606 277.287H41.8449" stroke="black" stroke-width="0.494471" stroke-miterlimit="10" stroke-linecap="round"/>
<path d="M58.3315 277.287H78.8159" stroke="black" stroke-width="0.494471" stroke-miterlimit="10" stroke-linecap="round"/>
</g>
</svg>
