<svg width="360" height="300" viewBox="0 0 360 300" fill="none" xmlns="http://www.w3.org/2000/svg">
<mask id="mask0" mask-type="alpha" maskUnits="userSpaceOnUse" x="0" y="0" width="360" height="300">
<rect width="360" height="300" fill="#C4C4C4"/>
</mask>
<g mask="url(#mask0)">
<path opacity="0.8" d="M558.524 282.658C513.613 302.797 462.074 301.76 417.74 280.374C395.86 269.819 369.472 258.214 347.36 251.743C299.908 237.864 243.706 146.392 314.696 115.497C385.686 84.6024 354.272 43.1588 420.582 9.10105C486.892 -24.9567 477.033 47.3234 550.487 50.3329C623.94 53.3424 637.138 211.145 596.648 256.285C586.526 267.571 573.047 276.145 558.524 282.658Z" fill="#FFF2D1"/>
<path opacity="0.8" d="M211.684 147.084C211.135 151.732 210.318 156.341 209.239 160.885C200.996 195.697 177.201 228.294 139.639 231.939C63.0291 239.373 73.4064 287.003 24.9529 296.732C6.7818 300.376 -12.7296 291.204 -30.2299 275.198C-32.8172 272.834 -35.2903 270.383 -37.6494 267.844C-43.9014 261.131 -49.4595 253.741 -54.2307 245.797C-77.7589 206.632 -80.8082 156.274 -60.2503 113.235L-47.7177 86.9973C-37.2269 65.038 -21.2344 46.5075 -1.46519 33.4048C31.4798 11.5588 80.905 -14.5421 100.378 9.76444C120.614 35.017 126.819 46.1536 144.403 57.1152C146.26 58.2711 148.242 59.4256 150.382 60.5946C151.485 61.2001 152.632 61.8084 153.822 62.4196C159.16 65.1688 165.415 68.0375 172.959 71.2341L174.226 71.7676L174.599 71.9236L175.039 72.1087L176.222 72.6029C178.245 73.4425 180.356 74.3069 182.555 75.196C206.162 84.7365 215.428 115.371 211.684 147.084Z" fill="#FFF2D1"/>
<path d="M96.798 119.749C96.798 119.749 87.1039 133.508 89.6019 140.074C92.0998 146.641 102.852 144.557 104.722 138.511C106.592 132.465 96.798 119.749 96.798 119.749Z" fill="#0B065A"/>
<path d="M105.809 91.731C105.809 91.731 106.881 91.9577 108.732 96.1798C109.163 97.1126 109.697 97.9947 110.323 98.8098C110.975 99.6369 111.43 103.021 110.027 105.37C109.337 106.528 107.87 107.064 106.39 107.643L108.755 114.365C108.755 114.365 110.22 116.184 102.473 114.885C102.473 114.885 103.36 109.299 99.8559 106.02C96.8818 103.239 94.8284 101.537 99.0781 96.7318C103.328 91.9261 105.809 91.731 105.809 91.731Z" fill="white" stroke="black" stroke-width="0.394311" stroke-miterlimit="10" stroke-linecap="round"/>
<path d="M109.992 111.619C109.992 111.619 115.36 109.746 117.705 109C121.19 107.894 122.387 106.356 122.387 106.356C122.387 106.356 117.845 97.561 116.189 92.6587C116.189 92.6587 114.79 93.468 112.708 92.5385C110.626 91.6089 109.912 92.7149 107.54 90.3757C107.54 90.3757 106.788 88.5894 108.646 89.102C110.504 89.6146 111.77 89.2144 112.442 88.9581C113.115 88.7018 116.689 89.2647 118.227 90.6418C119.765 92.0189 120.797 93.6603 122.387 96.864C123.977 100.068 128.879 106.092 128.238 107.63C127.598 109.168 114.494 117.882 112.663 117.37C110.833 116.859 109.992 111.619 109.992 111.619Z" fill="white" stroke="black" stroke-width="0.394311" stroke-miterlimit="10" stroke-linecap="round"/>
<path d="M114.086 112.026C114.086 112.026 116.302 113.52 119.381 112.563C122.461 111.607 123.864 111.004 123.864 111.004C123.864 111.004 119.291 114.34 116.141 115.88C112.992 117.419 114.086 112.026 114.086 112.026Z" fill="#E3E3E3"/>
<path d="M117.901 108.471C117.878 107.876 111.493 111.011 111.493 111.011C111.493 111.011 114.582 117.767 116.294 118.181C116.884 115.524 121.856 113.663 121.856 113.663C121.856 113.663 119.115 112.228 117.901 108.471Z" fill="#F17336"/>
<path d="M111.493 111.011L111.406 110.834L111.234 110.918L111.314 111.093L111.493 111.011ZM117.901 108.471L117.704 108.479L117.705 108.506L117.714 108.532L117.901 108.471ZM121.856 113.663L121.925 113.848C121.998 113.82 122.048 113.753 122.053 113.675C122.058 113.597 122.017 113.524 121.948 113.488L121.856 113.663ZM116.294 118.181L116.247 118.373L116.443 118.42L116.486 118.224L116.294 118.181ZM111.493 111.011C111.58 111.188 111.58 111.188 111.58 111.188C111.58 111.188 111.58 111.188 111.58 111.188C111.58 111.187 111.581 111.187 111.581 111.187C111.582 111.187 111.583 111.186 111.585 111.185C111.588 111.184 111.592 111.182 111.598 111.179C111.61 111.173 111.628 111.164 111.651 111.153C111.698 111.13 111.766 111.097 111.853 111.055C112.028 110.97 112.277 110.85 112.576 110.708C113.174 110.424 113.971 110.052 114.768 109.698C115.567 109.344 116.361 109.011 116.955 108.803C117.254 108.699 117.492 108.63 117.651 108.604C117.734 108.591 117.774 108.593 117.786 108.595C117.791 108.596 117.772 108.593 117.749 108.573C117.72 108.547 117.705 108.511 117.704 108.479L118.098 108.464C118.096 108.395 118.067 108.329 118.013 108.28C117.964 108.236 117.908 108.217 117.865 108.209C117.78 108.192 117.681 108.2 117.588 108.215C117.393 108.247 117.128 108.325 116.825 108.431C116.215 108.644 115.409 108.983 114.609 109.338C113.807 109.693 113.006 110.067 112.407 110.352C112.107 110.495 111.857 110.615 111.682 110.7C111.594 110.742 111.525 110.776 111.478 110.798C111.455 110.81 111.437 110.819 111.425 110.825C111.419 110.828 111.414 110.83 111.411 110.831C111.409 110.832 111.408 110.833 111.407 110.833C111.407 110.833 111.407 110.833 111.407 110.834C111.406 110.834 111.406 110.834 111.406 110.834C111.406 110.834 111.406 110.834 111.493 111.011ZM117.714 108.532C118.332 110.446 119.34 111.77 120.195 112.616C120.623 113.039 121.012 113.343 121.296 113.541C121.438 113.641 121.553 113.714 121.634 113.763C121.675 113.787 121.707 113.805 121.729 113.818C121.74 113.824 121.748 113.829 121.754 113.832C121.757 113.834 121.76 113.835 121.762 113.836C121.762 113.836 121.763 113.837 121.764 113.837C121.764 113.837 121.764 113.837 121.764 113.837C121.764 113.837 121.765 113.837 121.765 113.837C121.765 113.838 121.765 113.838 121.856 113.663C121.948 113.488 121.948 113.488 121.948 113.488C121.948 113.488 121.948 113.488 121.948 113.488C121.948 113.488 121.948 113.488 121.948 113.488C121.948 113.488 121.947 113.488 121.947 113.488C121.946 113.487 121.944 113.486 121.942 113.485C121.938 113.483 121.931 113.479 121.922 113.474C121.903 113.463 121.875 113.447 121.838 113.425C121.764 113.381 121.656 113.312 121.522 113.218C121.254 113.031 120.882 112.741 120.473 112.336C119.654 111.525 118.684 110.254 118.089 108.411L117.714 108.532ZM121.856 113.663C121.787 113.478 121.787 113.478 121.787 113.478C121.787 113.478 121.787 113.478 121.787 113.478C121.787 113.478 121.786 113.479 121.786 113.479C121.785 113.479 121.784 113.479 121.783 113.48C121.78 113.481 121.776 113.482 121.772 113.484C121.762 113.488 121.747 113.493 121.729 113.501C121.691 113.515 121.636 113.537 121.567 113.566C121.428 113.622 121.229 113.707 120.989 113.816C120.508 114.034 119.861 114.353 119.194 114.757C118.528 115.16 117.837 115.652 117.273 116.215C116.71 116.777 116.26 117.423 116.101 118.139L116.486 118.224C116.623 117.611 117.016 117.028 117.551 116.494C118.085 115.961 118.748 115.489 119.399 115.094C120.048 114.701 120.681 114.389 121.152 114.175C121.387 114.068 121.581 113.986 121.716 113.931C121.784 113.903 121.836 113.882 121.872 113.868C121.89 113.861 121.903 113.856 121.912 113.852C121.917 113.851 121.92 113.849 121.922 113.849C121.923 113.848 121.924 113.848 121.925 113.848C121.925 113.848 121.925 113.848 121.925 113.848C121.925 113.848 121.925 113.848 121.925 113.848C121.925 113.848 121.925 113.848 121.856 113.663ZM116.34 117.99C116.174 117.949 115.968 117.824 115.728 117.608C115.492 117.395 115.239 117.107 114.978 116.766C114.456 116.085 113.914 115.211 113.423 114.343C112.932 113.477 112.495 112.623 112.179 111.985C112.022 111.667 111.895 111.402 111.807 111.217C111.764 111.125 111.73 111.053 111.707 111.004C111.696 110.979 111.687 110.96 111.681 110.948C111.678 110.941 111.676 110.937 111.675 110.933C111.674 110.932 111.673 110.931 111.673 110.93C111.673 110.929 111.673 110.929 111.673 110.929C111.673 110.929 111.672 110.929 111.672 110.929C111.672 110.929 111.672 110.929 111.493 111.011C111.314 111.093 111.314 111.093 111.314 111.093C111.314 111.093 111.314 111.093 111.314 111.093C111.314 111.093 111.314 111.094 111.314 111.094C111.315 111.095 111.315 111.096 111.316 111.098C111.318 111.101 111.32 111.106 111.323 111.113C111.329 111.126 111.338 111.145 111.349 111.17C111.373 111.22 111.407 111.293 111.451 111.386C111.539 111.573 111.667 111.839 111.826 112.16C112.143 112.802 112.584 113.663 113.08 114.538C113.575 115.411 114.127 116.304 114.665 117.006C114.934 117.357 115.203 117.665 115.464 117.901C115.721 118.133 115.986 118.31 116.247 118.373L116.34 117.99Z" fill="black"/>
<path d="M101.933 191.789C101.933 191.789 100.244 199.133 100.169 199.392C100.094 199.652 103.941 199.885 103.941 199.885L106.11 192.551L101.933 191.789Z" fill="white" stroke="black" stroke-width="0.394311" stroke-miterlimit="10" stroke-linecap="round"/>
<path d="M101.96 192.497L101.377 195.017C101.377 195.017 103.311 196.227 105.222 194.918L105.476 194.056L105.807 192.949L101.96 192.497Z" fill="#E3E3E3"/>
<path d="M100.392 198.789C100.392 198.789 102.847 199.833 104.322 198.97C104.322 198.97 104.965 199.584 107.268 199.984C109.571 200.384 112.318 199.914 112.16 201.52C112.003 203.126 111.307 203.737 105.26 204.013C99.2131 204.289 98.1011 203.195 98.1011 203.195C98.1011 203.195 99.3501 198.093 100.392 198.789Z" fill="#0B065A" stroke="black" stroke-width="0.394311" stroke-miterlimit="10" stroke-linecap="round"/>
<path d="M141.714 172.445C141.714 172.445 144.573 178.085 144.694 178.343C144.815 178.602 148.038 176.127 148.038 176.127L144.698 168.784L141.714 172.445Z" fill="white" stroke="black" stroke-width="0.394311" stroke-miterlimit="10" stroke-linecap="round"/>
<path d="M144.637 169.176L145.734 171.579C145.734 171.579 144.684 173.795 142.935 174.367L141.966 172.443L144.637 169.176Z" fill="#E3E3E3"/>
<path d="M144.454 177.708C144.454 177.708 147.133 176.846 147.708 175.137C147.708 175.137 148.645 175.184 150.758 173.912C152.87 172.64 154.736 170.363 155.72 171.756C156.704 173.149 156.57 174.115 151.938 178.512C147.307 182.908 145.665 182.805 145.665 182.805C145.665 182.805 143.143 177.873 144.454 177.708Z" fill="#0B065A" stroke="black" stroke-width="0.394311" stroke-miterlimit="10" stroke-linecap="round"/>
<path d="M105.606 149.534C105.606 149.534 106.935 164.075 104.824 168.844C102.714 173.614 100.29 191.75 100.29 191.75C100.29 191.75 103.651 194.252 107.486 193.001C107.486 193.001 110.535 180.492 112.255 176.662C113.975 172.831 117.962 157.821 117.884 152.974C117.806 148.127 105.606 149.534 105.606 149.534Z" fill="#654EF9" stroke="black" stroke-width="0.394311" stroke-miterlimit="10" stroke-linecap="round"/>
<path d="M105.961 151.644C105.961 151.644 106.288 156.147 106.218 159.577C106.218 159.577 113.147 162.423 116.273 162.097C116.273 162.097 117.738 155.774 117.88 153.254C118.022 150.735 105.961 151.644 105.961 151.644Z" fill="#5842E2"/>
<path d="M228.857 139C228.857 139 226.739 145.841 226.634 146.146C226.528 146.45 231.099 146.978 231.099 146.978L234.168 138.374L228.857 139Z" fill="white" stroke="black" stroke-width="0.394311" stroke-miterlimit="10" stroke-linecap="round"/>
<path d="M229.491 137.354L234.451 136.75L232.948 141.311C232.948 141.311 230.306 142.648 228.315 141.468L229.491 137.354Z" fill="#E3E3E3"/>
<path d="M226.939 145.443C226.939 145.443 229.798 146.852 231.615 145.918C231.615 145.918 232.34 146.694 235.065 147.324C237.79 147.954 241.094 147.575 240.799 149.481C240.505 151.386 239.633 152.068 232.401 151.996C225.17 151.924 223.917 150.546 223.917 150.546C223.917 150.546 225.743 144.544 226.939 145.443Z" fill="#0B065A" stroke="black" stroke-width="0.394311" stroke-miterlimit="10" stroke-linecap="round"/>
<path d="M176.251 163.561C176.251 163.561 173.516 170.757 173.382 171.073C173.248 171.39 178.114 172.269 178.114 172.269L181.989 163.248L176.251 163.561Z" fill="white" stroke="black" stroke-width="0.394311" stroke-miterlimit="10" stroke-linecap="round"/>
<path d="M176.396 163.748L175.031 167.303C175.031 167.303 175.998 169.203 178.952 169.815L181.69 163.447L176.396 163.748Z" fill="#E3E3E3"/>
<path d="M173.758 170.338C173.758 170.338 176.728 172.043 178.741 171.166C178.741 171.166 179.466 172.046 182.341 172.907C185.216 173.767 188.791 173.586 188.345 175.61C187.9 177.634 186.919 178.306 179.168 177.738C171.417 177.17 170.166 175.607 170.166 175.607C170.166 175.607 172.535 169.293 173.758 170.338Z" fill="#0B065A" stroke="black" stroke-width="0.394311" stroke-miterlimit="10" stroke-linecap="round"/>
<path d="M215.373 79.6829C215.373 79.6829 215.528 75.1088 216.151 72.3408C216.774 69.5727 218.826 70.2914 218.826 70.2914C218.826 70.2914 220.413 67.1802 225.172 68.6737C229.931 70.1672 233.82 76.5126 232.7 80.2773C231.581 84.042 227.909 85.7523 227.909 85.7523L215.373 79.6829Z" fill="#3F3D56"/>
<path d="M110.661 111.24L118.107 127.111C118.107 127.111 118.474 110.858 111.469 110.753C111.469 110.758 110.7 110.79 110.661 111.24Z" fill="#0B065A"/>
<path d="M217.118 87.3659C217.142 87.4822 216.511 90.4918 212.755 92.2652C208.999 94.0386 220.221 97.4287 222.601 95.5705C224.981 93.7124 223.347 92.3352 223.347 92.3352C223.347 92.3352 221.318 92.6152 222.601 88.4907C223.885 84.3662 217.118 87.3659 217.118 87.3659Z" fill="white" stroke="black" stroke-width="0.394311" stroke-miterlimit="10" stroke-linecap="round"/>
<path d="M221.991 90.3876C221.991 90.3876 218.391 90.772 217.209 90.4615C216.027 90.151 214.547 93.199 217.769 95.1272C220.99 97.0554 212.588 95.9513 212.9 93.7471C213.211 91.5429 214.502 91.4295 214.502 91.4295C214.502 91.4295 216.322 90.0761 216.944 88.5984C217.566 87.1207 222.148 89.4698 222.148 89.4698L221.991 90.3876Z" fill="#E3E3E3"/>
<path d="M230.47 93.3582C230.47 93.3582 240.385 90.3595 241.511 89.8765C247.338 87.3706 253.348 83.1367 253.719 82.4496C254.45 81.0952 255.84 79.4036 256.781 79.3632C257.721 79.3227 259.451 79.9714 259.451 79.9714C259.451 79.9714 262.362 77.7908 262.767 77.1698C263.173 76.5488 263.101 78.6396 262.356 79.4115C261.612 80.1833 259.422 82.0188 259.424 82.2801C259.426 82.5413 260.104 82.5019 259.987 83.3043C259.871 84.1067 259.904 84.986 259.19 85.13C258.476 85.2739 255.02 85.4809 254.418 85.2847C254.418 85.2847 249.141 91.3709 243.087 94.41C240.878 95.519 233.992 97.3457 231.589 98.0239C231.073 98.1698 230.47 93.3582 230.47 93.3582Z" fill="white" stroke="black" stroke-width="0.394311" stroke-miterlimit="10" stroke-linecap="round"/>
<path d="M232.891 94.5415C232.891 94.5415 233.668 95.4898 235.878 95.3301C238.087 95.1704 240.683 95.1123 240.683 95.1123C240.683 95.1123 236.235 96.6215 232.347 97.6014C228.458 98.5812 232.891 94.5415 232.891 94.5415Z" fill="#E3E3E3"/>
<path d="M192.617 120.84C192.617 120.84 188.735 132.331 185.889 141.747C185.691 142.422 185.534 143.109 185.42 143.803C185.311 144.439 184.701 145.849 182.025 148.587C178.012 152.693 176.332 162.119 176.332 162.119C176.332 162.119 178.386 165.198 183.052 164.732C183.052 164.732 190.156 153.904 197.247 147.559C204.337 141.213 209.746 130.668 209.746 130.668C209.746 130.668 225.238 129.011 230.137 126.911C230.137 126.911 228.806 133.157 228.982 136.697C229.168 140.461 235.107 137.481 235.107 137.481C235.107 137.481 241.477 130.808 242.41 118.209C242.41 118.209 241.281 111.783 235.122 112.996C228.963 114.21 218.449 117.673 218.449 117.673L192.617 120.84Z" fill="#654EF9" stroke="black" stroke-width="0.394311" stroke-miterlimit="10" stroke-linecap="round"/>
<path d="M218.445 117.673C218.445 117.673 210.297 123.134 204.743 124.161C199.188 125.188 190.404 128.235 190.404 128.235L193.017 120.349C193.017 120.349 216.676 114.568 218.445 117.673Z" fill="#5842E2"/>
<path d="M231.253 121.946C231.253 121.946 230.465 125.045 230.133 126.915L231.253 121.946Z" fill="#4052F2"/>
<path d="M231.253 121.946C231.253 121.946 230.465 125.045 230.133 126.915" stroke="black" stroke-width="0.394311" stroke-miterlimit="10" stroke-linecap="round"/>
<path d="M354.861 47.6187L340.303 88.3076L329.102 81.5885L263.869 162.22H225.793L200.549 191.337H159.442L131.788 222.876L88.4624 222.806L74.2613 234.556C69.8148 230.017 65.8618 225.019 62.4684 219.647L82.4501 204.402H127.993L157.479 178.271H198.168L224.298 152.887H259.762L324.548 78.3108L313.146 69.8331L354.861 47.6187Z" fill="#FEFEFE" stroke="#0B065A" stroke-width="0.783786" stroke-miterlimit="10" stroke-linecap="round"/>
<path d="M100.369 138.901C100.369 138.901 98.1793 147.735 104.043 151.488C109.906 155.241 132.341 157.274 132.341 157.274C132.341 157.274 136.954 167.046 141.016 172.596C141.016 172.596 145.473 172.518 146.88 169.392C146.88 169.392 141.798 155.242 141.016 152.583C140.234 149.924 118.427 142.576 114.992 137.417C111.556 132.257 100.369 138.901 100.369 138.901Z" fill="#654EF9" stroke="black" stroke-width="0.394311" stroke-miterlimit="10" stroke-linecap="round"/>
<path d="M116.506 139.235C116.506 139.235 113.427 141.379 109.694 141.706C105.961 142.033 100.782 143.572 100.735 146.512C100.735 146.512 99.9389 144.995 100.29 140.119C100.641 135.242 116.033 138.828 116.033 138.828L116.506 139.235Z" fill="#5842E2"/>
<path d="M108.108 111.228C108.108 111.228 110.147 114.199 101.622 112.401C101.622 112.401 96.2255 115.997 96.538 118.107C96.8505 120.218 99.2736 134.837 98.4918 137.417C97.7101 139.996 100.044 141.012 100.044 141.012C100.044 141.012 103.73 139.449 106.466 140.309C109.201 141.169 119.675 138.416 119.913 135.454C120.15 132.492 117.176 125.143 115.925 118.732C114.674 112.322 111.547 110.836 108.108 111.228Z" fill="#F17336" stroke="black" stroke-width="0.394311" stroke-miterlimit="10" stroke-linecap="round"/>
<path d="M103.458 116.713C103.458 116.713 105.134 118.934 103.674 125.498C102.214 132.061 99.9409 131.629 99.7546 135.454C99.5683 139.279 100.524 140.586 100.524 140.586L100.054 140.792C100.054 140.792 98.0906 139.948 98.6347 137.599C98.6347 137.599 98.9738 136.533 98.8211 134.457C98.6683 132.381 98.5391 131.736 98.5391 131.736C98.5391 131.736 103.052 118.966 103.052 117.068L103.458 116.713Z" fill="#E05918"/>
<path d="M102.181 138.439C102.181 138.439 106.148 135.826 106.711 127.664L102.181 138.439Z" fill="#E05918"/>
<path d="M102.181 138.439C102.181 138.439 106.148 135.826 106.711 127.664" stroke="black" stroke-width="0.295733" stroke-miterlimit="10" stroke-linecap="round"/>
<path d="M104.963 138.439C104.963 138.439 107.428 137.195 107.781 133.306L104.963 138.439Z" fill="#E05918"/>
<path d="M104.963 138.439C104.963 138.439 107.428 137.195 107.781 133.306" stroke="black" stroke-width="0.295733" stroke-miterlimit="10" stroke-linecap="round"/>
<path d="M107.232 93.2724C107.232 93.2724 105.777 95.3998 103.569 96.9267C101.36 98.4537 100.581 99.2926 100.808 100.433C101.036 101.574 99.2173 98.9722 98.2109 100.433C97.2044 101.894 98.1182 103.779 100.159 104.59C100.159 104.59 102.339 107.101 101.818 108.655C101.818 108.655 98.9324 106.896 97.4351 106.604C95.9377 106.312 93.6645 105.727 92.7221 100.531C91.7796 95.3347 94.0213 95.9843 95.7425 92.4769C97.4636 88.9695 105.276 86.7289 107.232 93.2724Z" fill="#3F3D56"/>
<path d="M100.159 104.59C100.159 104.59 101.523 104.689 101.717 103.747" stroke="white" stroke-width="0.394311" stroke-miterlimit="10" stroke-linecap="round"/>
<path d="M197.937 101.714L191.218 120.822C191.218 120.822 196.187 123.412 202.416 122.852C208.645 122.292 218.445 117.673 218.445 117.673C218.445 117.673 219.075 111.724 220.894 109.204C222.714 106.684 225.232 100.874 228.593 99.9642C231.955 99.0543 233.284 98.8444 233.284 98.8444C233.284 98.8444 232.484 95.4395 232.692 92.1499C232.692 92.1499 228.989 93.5014 226.434 92.8834C223.821 92.2515 223.384 92.0307 223.384 92.0307C223.384 92.0307 220.442 96.9063 217.082 95.0166C213.723 93.1268 214.313 90.7876 214.313 90.7876C214.313 90.7876 210.744 91.8453 208.573 91.4954C206.403 91.1454 205.144 91.4254 202.484 92.5452C199.825 93.6651 193.175 97.3755 193.175 97.3755C193.175 97.3755 194.647 102.344 197.937 101.714Z" fill="white" stroke="black" stroke-width="0.394311" stroke-miterlimit="10" stroke-linecap="round"/>
<path d="M225.358 92.7788C225.358 92.7788 225.179 98.658 224.134 101.364C223.089 104.07 222.698 105.921 222.698 105.921L225.25 102.002C225.25 102.002 227.054 96.8067 227.024 96.511C226.994 96.2152 226.417 93.0736 226.417 93.0736L225.358 92.7788Z" fill="#E3E3E3"/>
<path d="M204.106 101.068C204.106 101.068 201.098 104.102 198.89 108.644C196.682 113.187 192.668 117.261 192.668 117.261L197.081 104.695L204.106 101.068Z" fill="#E3E3E3"/>
<path d="M259.287 82.3779C259.287 82.3779 258.617 83.413 258.431 83.9828C258.245 84.5526 259.75 83.2661 259.75 83.2661C259.777 83.1585 259.771 83.045 259.731 82.9414C259.691 82.8378 259.619 82.7493 259.526 82.6885C259.271 82.5248 259.287 82.3779 259.287 82.3779Z" fill="#E3E3E3"/>
<path d="M259.449 79.9727L258.72 80.6114" stroke="black" stroke-width="0.394311" stroke-miterlimit="10" stroke-linecap="round"/>
<path d="M259.506 82.1206C259.506 82.1206 258.773 83.0522 258.427 83.9818L259.506 82.1206Z" fill="white"/>
<path d="M259.506 82.1206C259.506 82.1206 258.773 83.0522 258.427 83.9818" stroke="black" stroke-width="0.394311" stroke-miterlimit="10" stroke-linecap="round"/>
<path d="M211.671 126.912C211.671 126.912 210.874 128.614 209.743 130.668" stroke="black" stroke-width="0.394311" stroke-miterlimit="10" stroke-linecap="round"/>
<path d="M200.55 100.949C200.55 100.949 199.99 100.972 199.057 101.369" stroke="black" stroke-width="0.394311" stroke-miterlimit="10" stroke-linecap="round"/>
<path d="M225.694 92.7008C225.694 92.7008 226.752 99.27 223.869 104.424C223.869 104.424 223.979 105.423 225.912 103.184C227.845 100.944 228.337 93.1513 228.337 93.1513C228.337 93.1513 228.524 92.4169 227.86 92.3124C227.196 92.2079 225.201 91.9605 225.694 92.7008Z" fill="#0B065A"/>
<path d="M208.529 91.2086C208.529 91.2086 209.145 93.9185 206.799 95.7589C204.453 97.5994 197.667 102.484 197.667 102.484L196.704 105.22C196.704 105.22 207.826 99.634 209.96 96.3869C212.25 92.9031 212.054 91.3288 212.054 91.3288C212.054 91.3288 212.274 90.8359 211.696 90.8419C211.696 90.8419 208.468 90.1696 208.529 91.2086Z" fill="#0B065A"/>
<path d="M219.121 73.7415C218.862 74.0224 216.617 74.2344 215.777 78.6871C215.471 79.6148 214.997 80.478 214.377 81.2334C213.382 82.4163 214.135 88.8377 217.489 89.4153C218.235 89.5445 223.118 89.851 227.194 86.1494C227.194 86.1494 229.123 86.6157 229.9 85.1854C230.678 83.755 229.838 82.4479 227.661 83.2256C225.591 83.965 227.785 82.51 227.505 80.1145C227.505 80.1145 222.379 80.1618 221.656 75.4952C221.299 73.1963 219.121 73.7415 219.121 73.7415Z" fill="white" stroke="black" stroke-width="0.394311" stroke-miterlimit="10" stroke-linecap="round"/>
<path d="M193.45 98.1186C193.45 98.1186 187.364 101.225 185.968 103.603C184.278 106.485 186.429 109.158 191.988 107.038C197.239 105.035 200.55 100.944 200.55 100.944C200.55 100.944 202.486 100.874 205.706 100.314C208.925 99.754 208.125 97.5064 208.591 97.0707C209.057 96.635 209.742 95.3288 207.627 95.6088C205.511 95.8887 202.463 97.2264 201.712 97.5685C200.961 97.9106 194.615 100.197 194.615 100.197C194.615 100.197 194.079 99.5686 193.45 98.1186Z" fill="white" stroke="black" stroke-width="0.394311" stroke-miterlimit="10" stroke-linecap="round"/>
<path d="M192.769 98.7202C192.769 98.7202 193.558 99.4201 192.022 100.396C190.486 101.372 188.009 103.896 188.009 103.896C188.009 103.896 192.423 100.858 194.305 100.112L193.348 98.4087L192.769 98.7202Z" fill="#E3E3E3"/>
<path d="M188.091 104.039C188.091 104.039 190.198 101.807 194.624 100.195" stroke="black" stroke-width="0.394311" stroke-miterlimit="10" stroke-linecap="round"/>
<path d="M228.547 134.952C228.547 134.952 232.921 136.94 236.459 136.701C236.459 136.701 235.435 140.19 234.771 140.22C234.108 140.251 229.752 139.969 227.914 138.196L228.547 134.952Z" fill="#654EF9" stroke="black" stroke-width="0.394311" stroke-miterlimit="10" stroke-linecap="round"/>
<path d="M176.074 161.234C176.074 161.234 179.981 164.031 183.498 164.479C183.498 164.479 181.822 167.705 181.163 167.606C180.503 167.507 176.286 166.389 174.826 164.295L176.074 161.234Z" fill="#654EF9" stroke="black" stroke-width="0.394311" stroke-miterlimit="10" stroke-linecap="round"/>
<path d="M106.394 107.644C106.394 107.644 105.474 108.065 103.807 108.326L106.394 107.644Z" fill="white"/>
<path d="M106.394 107.644C106.394 107.644 105.474 108.065 103.807 108.326" stroke="black" stroke-width="0.394311" stroke-miterlimit="10" stroke-linecap="round"/>
<path d="M98.2059 114.484C98.2059 114.484 101.385 113.338 102.792 115.423C104.198 117.508 105.323 121.545 98.4878 132.674L98.269 130.448L99.9684 118.339L96.946 116.7C96.946 116.7 95.8597 116.465 98.2059 114.484Z" fill="#0B065A"/>
<path d="M97.5848 116.631C97.5848 116.631 100.383 114.923 101.661 117.831C102.939 120.74 99.2586 127.237 97.5848 131.139C95.911 135.042 90.1402 145.039 89.9125 146.998C89.6848 148.956 91.6396 151.405 91.5026 152.405C91.3655 153.404 91.957 154.771 91.5942 155.313C91.2315 155.855 87.1868 156.989 86.8684 155.676C86.55 154.364 85.2784 149.815 86.5047 146.225C87.731 142.635 90.5463 134.943 91.821 132.973C93.0956 131.003 96.0115 116.701 97.5848 116.631Z" fill="white" stroke="black" stroke-width="0.394311" stroke-miterlimit="10" stroke-linecap="round"/>
<path d="M103.807 108.475C104.654 108.353 105.487 108.145 106.292 107.854L107.232 110.623C107.232 110.623 106.553 110.591 104.984 110.045C103.415 109.5 103.302 108.558 103.807 108.475Z" fill="#E3E3E3"/>
<path d="M122.385 106.356C122.385 106.356 123.058 105.567 124.022 105.409L122.385 106.356Z" fill="white"/>
<path d="M122.385 106.356C122.385 106.356 123.058 105.567 124.022 105.409" stroke="black" stroke-width="0.394311" stroke-miterlimit="10" stroke-linecap="round"/>
<path d="M116.189 92.6583C116.189 92.6583 117.471 92.3054 117.608 92.6583H116.189Z" fill="white"/>
<path d="M116.189 92.6583C116.189 92.6583 117.471 92.3054 117.608 92.6583" stroke="black" stroke-width="0.394311" stroke-miterlimit="10" stroke-linecap="round"/>
<path d="M86.8348 154.512C86.8348 154.512 90.285 154.092 91.2984 153.438C91.2984 153.438 91.6178 154.754 91.4857 155.096C91.3536 155.438 90.0928 155.958 88.203 156.098C88.203 156.098 87.1847 156.138 87.0369 155.578C86.9456 155.227 86.8781 154.871 86.8348 154.512Z" fill="#E3E3E3"/>
<path d="M108.511 98.4318C108.663 98.3579 108.689 98.0992 108.569 97.854C108.45 97.6088 108.23 97.4699 108.078 97.5439C107.926 97.6178 107.9 97.8765 108.02 98.1217C108.139 98.3669 108.359 98.5057 108.511 98.4318Z" fill="black"/>
<path d="M105.478 100.329C105.643 100.249 105.674 99.9731 105.547 99.7132C105.421 99.4533 105.184 99.3078 105.019 99.3882C104.854 99.4685 104.823 99.7444 104.95 100.004C105.077 100.264 105.313 100.41 105.478 100.329Z" fill="black"/>
<path d="M103.57 99.1244C103.57 99.1244 103.541 97.7729 105.01 97.7729L103.57 99.1244Z" fill="white"/>
<path d="M103.57 99.1244C103.57 99.1244 103.541 97.7729 105.01 97.7729" stroke="black" stroke-width="0.394311" stroke-miterlimit="10" stroke-linecap="round"/>
<path d="M107.292 96.6963C107.292 96.6963 107.776 95.8308 108.8 96.4361L107.292 96.6963Z" fill="white"/>
<path d="M107.292 96.6963C107.292 96.6963 107.776 95.8308 108.8 96.4361" stroke="black" stroke-width="0.394311" stroke-miterlimit="10" stroke-linecap="round"/>
<path d="M106.394 103.485C106.394 103.485 108.106 104.315 109.966 102.948L106.394 103.485Z" fill="white"/>
<path d="M106.394 103.485C106.394 103.485 108.106 104.315 109.966 102.948" stroke="black" stroke-width="0.394311" stroke-miterlimit="10" stroke-linecap="round"/>
<path d="M107.451 98.8711C107.451 98.8711 108.12 99.9968 108.876 100.273C108.876 100.273 109.532 100.826 108.352 101.479" fill="white"/>
<path d="M107.451 98.8711C107.451 98.8711 108.12 99.9968 108.876 100.273C108.876 100.273 109.532 100.826 108.352 101.479" stroke="black" stroke-width="0.394311" stroke-miterlimit="10" stroke-linecap="round"/>
<path d="M217.247 79.3046C217.35 79.0154 217.279 78.7259 217.089 78.658C216.899 78.5902 216.661 78.7697 216.558 79.0589C216.455 79.3481 216.525 79.6375 216.716 79.7054C216.906 79.7732 217.144 79.5938 217.247 79.3046Z" fill="black"/>
<path d="M221.586 81.2953C221.69 81.0061 221.619 80.7166 221.429 80.6488C221.239 80.5809 221.001 80.7604 220.897 81.0496C220.794 81.3388 220.865 81.6283 221.055 81.6961C221.245 81.764 221.483 81.5845 221.586 81.2953Z" fill="black"/>
<path d="M215.527 84.2222L219.681 85.2888C219.681 85.2888 216.625 87.9474 215.527 84.2222Z" fill="white" stroke="black" stroke-width="0.394311" stroke-miterlimit="10" stroke-linecap="round"/>
<path d="M218.654 80.3677C218.654 80.3677 217.597 81.8227 217.149 82.1017C217.149 82.1017 216.718 82.3846 217.619 83.0017" fill="white"/>
<path d="M218.654 80.3677C218.654 80.3677 217.597 81.8227 217.149 82.1017C217.149 82.1017 216.718 82.3846 217.619 83.0017" stroke="black" stroke-width="0.394311" stroke-miterlimit="10" stroke-linecap="round"/>
<path d="M216.171 77.1514C216.171 77.1514 217.419 76.3539 218.351 77.5457L216.171 77.1514Z" fill="white"/>
<path d="M216.171 77.1514C216.171 77.1514 217.419 76.3539 218.351 77.5457" stroke="black" stroke-width="0.394311" stroke-miterlimit="10" stroke-linecap="round"/>
<path d="M221.485 78.8076C221.485 78.8076 222.955 78.6282 223.281 80.1049L221.485 78.8076Z" fill="white"/>
<path d="M221.485 78.8076C221.485 78.8076 222.955 78.6282 223.281 80.1049" stroke="black" stroke-width="0.394311" stroke-miterlimit="10" stroke-linecap="round"/>
<path d="M95.226 94.6399C95.226 94.6399 100.764 86.5713 106.281 92.5027" stroke="white" stroke-width="0.197155" stroke-miterlimit="10" stroke-linecap="round"/>
<path d="M95.8145 95.3054C95.8145 95.3054 100.941 90.9305 104.45 94.3127" stroke="white" stroke-width="0.197155" stroke-miterlimit="10" stroke-linecap="round"/>
<path d="M94.8818 95.9912C94.8818 95.9912 91.4582 99.3054 95.2307 104.278" stroke="white" stroke-width="0.197155" stroke-miterlimit="10" stroke-linecap="round"/>
<path d="M95.4221 97.605C95.4221 97.605 94.4846 99.4366 95.4221 102.032" stroke="white" stroke-width="0.197155" stroke-miterlimit="10" stroke-linecap="round"/>
<path d="M6.84212 215.028L30.8694 187.518L55.0495 193.459L68.7962 182.336L62.8618 178.089L87.8522 170.134L79.5195 190.637L74.4881 186.135L55.9634 204.346L33.7469 199.366L24.4688 215.124L6.84212 215.028Z" fill="#FEFEFE" stroke="#0B065A" stroke-width="0.783786" stroke-miterlimit="10" stroke-linecap="round"/>
<path d="M132.489 157.127C132.489 157.127 133.943 157.415 134.596 158.535C135.249 159.655 142.934 170.167 146.107 170.293C146.107 170.293 144.396 172.129 141.098 172.397C141.098 172.397 136.991 166.503 132.489 157.127Z" fill="#5842E2"/>
<path d="M110.721 142.035C110.721 142.035 109.36 145.485 108.454 146.395C107.548 147.305 109.191 147.882 109.332 147.74C110.138 146.929 111.084 143.84 110.721 142.035Z" fill="#0502AB"/>
<path d="M110.95 142.035C110.95 142.035 111.048 145.905 109.208 147.741" stroke="#5842E2" stroke-width="0.394311" stroke-miterlimit="10" stroke-linecap="round"/>
<path d="M211.837 126.922L210.033 130.516C210.033 130.516 215.612 129.712 218.16 129.488C218.16 129.488 215.034 129.256 213.051 128.338C212.102 127.898 211.837 126.922 211.837 126.922Z" fill="#5842E2"/>
<path d="M291.365 104.059L283.703 111.721" stroke="black" stroke-width="0.394311" stroke-miterlimit="10" stroke-linecap="round"/>
<path d="M288.846 111.935L281.185 119.596" stroke="black" stroke-width="0.394311" stroke-miterlimit="10" stroke-linecap="round"/>
<path d="M301.935 98.7319L291.477 109.385" stroke="black" stroke-width="0.394311" stroke-miterlimit="10" stroke-linecap="round"/>
<path d="M298.728 130.319L272.274 162.782" stroke="black" stroke-width="0.394311" stroke-miterlimit="10" stroke-linecap="round"/>
<path d="M278.002 160.991L268.678 172.65" stroke="black" stroke-width="0.394311" stroke-miterlimit="10" stroke-linecap="round"/>
<path d="M21.1911 189.893L7.18718 206.602" stroke="black" stroke-width="0.394311" stroke-miterlimit="10" stroke-linecap="round"/>
<path d="M10.1819 205.71L5.24512 211.714" stroke="black" stroke-width="0.394311" stroke-miterlimit="10" stroke-linecap="round"/>
<path d="M116.856 277.287H170.927" stroke="black" stroke-width="0.494471" stroke-miterlimit="10" stroke-linecap="round"/>
<path d="M331.702 277.287L358.401 277.287" stroke="black" stroke-width="0.494471" stroke-miterlimit="10" stroke-linecap="round"/>
<path d="M293.521 277.287L317.534 277.287" stroke="black" stroke-width="0.494471" stroke-miterlimit="10" stroke-linecap="round"/>
<path d="M204.78 277.287L270.737 277.287" stroke="black" stroke-width="0.494471" stroke-miterlimit="10" stroke-linecap="round"/>
<path d="M58.3315 277.287H78.8159" stroke="black" stroke-width="0.494471" stroke-miterlimit="10" stroke-linecap="round"/>
<path d="M21.3604 277.287H41.8447" stroke="black" stroke-width="0.494471" stroke-miterlimit="10" stroke-linecap="round"/>
<path d="M308.273 15.6465H320.79V28.1637H308.273V15.6465Z" fill="#EDEDED"/>
<path d="M305.59 12.5173H318.108V25.0345H305.59V12.5173Z" fill="#F17336" fill-opacity="0.6"/>
<path d="M293.52 20.564H314.084V0H293.52V20.564ZM313.19 19.6699H294.414V0.894087H313.19V19.6699Z" fill="#222B45"/>
<path d="M102.163 118.671C101.063 115.214 98.2502 116.031 97.1897 116.718C96.7734 116.864 94.478 122.977 93.8768 124.989C96.3077 123.897 99.498 125.861 100.234 127.138L102.163 118.671Z" fill="#F17336"/>
<path d="M97.1897 116.718L97.2549 116.904L97.2772 116.897L97.2969 116.884L97.1897 116.718ZM102.163 118.671L102.356 118.715L102.368 118.662L102.351 118.611L102.163 118.671ZM100.234 127.138L100.063 127.237C100.104 127.307 100.183 127.346 100.263 127.333C100.344 127.321 100.408 127.261 100.426 127.182L100.234 127.138ZM93.8768 124.989L93.6879 124.932C93.6658 125.006 93.6888 125.086 93.7469 125.137C93.8049 125.188 93.8872 125.2 93.9576 125.168L93.8768 124.989ZM97.2969 116.884C97.801 116.557 98.7215 116.203 99.6333 116.335C100.084 116.401 100.535 116.586 100.938 116.956C101.342 117.327 101.709 117.892 101.976 118.731L102.351 118.611C102.068 117.722 101.67 117.092 101.205 116.665C100.738 116.237 100.212 116.021 99.6902 115.945C98.6552 115.794 97.6388 116.192 97.0825 116.553L97.2969 116.884ZM101.971 118.627L100.042 127.095L100.426 127.182L102.356 118.715L101.971 118.627ZM100.405 127.04C100.008 126.351 98.9846 125.518 97.769 124.994C96.5493 124.468 95.082 124.231 93.796 124.809L93.9576 125.168C95.1025 124.654 96.4457 124.853 97.613 125.356C98.7842 125.861 99.724 126.648 100.063 127.237L100.405 127.04ZM94.0657 125.045C94.364 124.047 95.0859 122.022 95.7863 120.225C96.1363 119.328 96.4796 118.491 96.7606 117.871C96.9013 117.56 97.0248 117.307 97.1244 117.129C97.1745 117.04 97.216 116.974 97.2484 116.931C97.2647 116.909 97.2758 116.897 97.2818 116.891C97.2905 116.883 97.2811 116.895 97.2549 116.904L97.1245 116.532C97.0723 116.551 97.0332 116.583 97.0087 116.607C96.9816 116.633 96.9562 116.664 96.9326 116.695C96.8853 116.758 96.8342 116.841 96.7805 116.937C96.6726 117.129 96.5438 117.394 96.4014 117.708C96.1161 118.338 95.7699 119.182 95.4189 120.082C94.7172 121.882 93.9908 123.919 93.6879 124.932L94.0657 125.045Z" fill="black"/>
</g>
</svg>
