<svg width="460" height="454" viewBox="0 0 460 454" fill="none" xmlns="http://www.w3.org/2000/svg">
<mask id="mask0" mask-type="alpha" maskUnits="userSpaceOnUse" x="0" y="0" width="460" height="397">
<path d="M0 0H460V370.556C460 384.67 448.558 396.111 434.444 396.111H25.5555C11.4416 396.111 0 384.669 0 370.556V0Z" fill="#F17336"/>
</mask>
<g mask="url(#mask0)">
<g opacity="0.25">
<path d="M41.4767 -45.77L30.3217 -30.3288L19.1668 -14.8875L8.01185 0.553784L-3.14311 15.9951L-21.5337 41.3919L-39.9243 15.9951L-51.0792 0.553784L-61.7819 -14.8875L-72.9368 -30.3288L-84.0918 -45.77L-54.3955 -86.8113L-43.2406 -102.253L-32.0857 -117.694L-21.2322 -132.729L-10.3787 -117.694L0.776206 -102.253L11.9311 -86.8113L41.4767 -45.77ZM0.776206 -71.37L-10.3787 -86.8113L-21.2322 -71.7764L-32.0857 -86.8113L-43.2406 -71.37L-32.0857 -55.9288L-21.2322 -40.8939L-10.3787 -55.9288L0.776206 -71.37Z" stroke="#FEFEFE" stroke-width="0.319444" stroke-miterlimit="10"/>
<path d="M30.4728 -30.3282L19.3179 -14.887L8.1629 0.554321L-2.99203 15.9956L-21.3826 41.3924L-39.7732 15.9956L-50.9281 0.554321L-61.7816 -14.887L-72.9365 -30.3282L-43.2403 -71.3695L-32.0853 -55.9282L-21.2319 -40.8933L-10.3784 -55.9282L0.77653 -71.3695L30.4728 -30.3282ZM-21.2319 -71.7759L-32.0853 -86.8108L-21.2319 -101.846L-10.3784 -86.8108L-21.2319 -71.7759Z" stroke="#FEFEFE" stroke-width="0.319444" stroke-miterlimit="10"/>
<path d="M19.3172 -14.8871L8.16226 0.350951L-2.84192 15.7922L-21.2325 41.1891L-39.6231 15.7922L-50.6273 0.350951L-61.7822 -14.8871L-32.086 -56.1316L-21.2325 -41.0967L-10.379 -56.1316L19.3172 -14.8871Z" stroke="#FEFEFE" stroke-width="0.319444" stroke-miterlimit="10"/>
<path d="M-39.6227 15.7918L-50.627 0.350499L-21.2322 -40.2844L8.1626 0.350499L-2.84158 15.7918L-21.2322 41.1886L-39.6227 15.7918Z" stroke="#FEFEFE" stroke-width="0.319444" stroke-miterlimit="10"/>
<path d="M41.4767 -45.77L-21.2322 41.1887L-39.6228 15.7919L-84.0918 -45.77L-54.3955 -86.8113L-43.2406 -102.253L-32.0857 -117.694L-21.2322 -132.729L-10.3787 -117.694L0.776206 -102.253L11.9311 -86.8113L41.4767 -45.77ZM-43.2406 -71.37L-32.0857 -55.9288L-21.2322 -40.8939L-10.3787 -55.9288L0.776206 -71.37L-10.3787 -86.8113L-21.2322 -71.7764L-32.0857 -86.8113L-43.2406 -71.37Z" stroke="#FEFEFE" stroke-width="0.319444" stroke-miterlimit="10"/>
<path d="M41.4767 -45.77L30.3217 -30.3288L19.1668 -14.8875L8.01185 0.553784L-3.14311 15.9951L-21.5337 41.3919L-39.9243 15.9951L-51.0792 0.553784L-61.7819 -14.8875L-72.9368 -30.3288L-84.0918 -45.77L-54.3955 -86.8113L-43.2406 -102.253L-32.0857 -117.694L-21.2322 -132.729L-10.3787 -117.694L0.776206 -102.253L11.9311 -86.8113L41.4767 -45.77ZM0.776206 -71.37L-10.3787 -86.8113L-21.2322 -71.7764L-32.0857 -86.8113L-43.2406 -71.37L-32.0857 -55.9288L-21.2322 -40.8939L-10.3787 -55.9288L0.776206 -71.37Z" stroke="#FEFEFE" stroke-width="0.319444" stroke-miterlimit="10"/>
<path d="M30.4728 -30.3282L19.3179 -14.887L8.1629 0.554321L-2.99203 15.9956L-21.3826 41.3924L-39.7732 15.9956L-50.9281 0.554321L-61.7816 -14.887L-72.9365 -30.3282L-43.2403 -71.3695L-32.0853 -55.9282L-21.2319 -40.8933L-10.3784 -55.9282L0.77653 -71.3695L30.4728 -30.3282ZM-21.2319 -71.7759L-32.0853 -86.8108L-21.2319 -101.846L-10.3784 -86.8108L-21.2319 -71.7759Z" stroke="#FEFEFE" stroke-width="0.319444" stroke-miterlimit="10"/>
<path d="M19.3172 -14.8871L8.16226 0.350951L-2.84192 15.7922L-21.2325 41.1891L-39.6231 15.7922L-50.6273 0.350951L-61.7822 -14.8871L-32.086 -56.1316L-21.2325 -41.0967L-10.379 -56.1316L19.3172 -14.8871Z" stroke="#FEFEFE" stroke-width="0.319444" stroke-miterlimit="10"/>
<path d="M-39.6227 15.7918L-50.627 0.350499L-21.2322 -40.2844L8.1626 0.350499L-2.84158 15.7918L-21.2322 41.1886L-39.6227 15.7918Z" stroke="#FEFEFE" stroke-width="0.319444" stroke-miterlimit="10"/>
<path d="M41.4767 -45.77L-21.2322 41.1887L-39.6228 15.7919L-84.0918 -45.77L-54.3955 -86.8113L-43.2406 -102.253L-32.0857 -117.694L-21.2322 -132.729L-10.3787 -117.694L0.776206 -102.253L11.9311 -86.8113L41.4767 -45.77ZM-43.2406 -71.37L-32.0857 -55.9288L-21.2322 -40.8939L-10.3787 -55.9288L0.776206 -71.37L-10.3787 -86.8113L-21.2322 -71.7764L-32.0857 -86.8113L-43.2406 -71.37Z" stroke="#FEFEFE" stroke-width="0.319444" stroke-miterlimit="10"/>
<path d="M167.045 -45.77L155.89 -30.3287L144.735 -14.8874L133.581 0.553846L122.426 15.9951L104.035 41.392L85.9459 15.7919L74.791 0.350659L63.6361 -15.0906L52.4811 -30.5319L41.3262 -45.9732L71.0225 -87.0144L82.1774 -102.456L93.3323 -117.897L104.186 -132.932L115.039 -117.897L126.194 -102.456L137.349 -87.0144L167.045 -45.77ZM126.345 -71.37L115.19 -86.8112L104.337 -71.7763L93.4831 -86.8112L82.3281 -71.37L93.4831 -55.9287L104.337 -40.8938L115.19 -55.9287L126.345 -71.37Z" stroke="#FEFEFE" stroke-width="0.319444" stroke-miterlimit="10"/>
<path d="M156.041 -30.3282L144.886 -14.887L133.731 0.554321L122.576 15.9956L104.185 41.3924L85.9453 15.7924L74.7904 0.351134L63.6354 -15.0901L52.4805 -30.5314L82.1767 -71.5727L93.3317 -56.1314L104.185 -41.0965L115.039 -56.1314L126.194 -71.5727L156.041 -30.3282ZM104.336 -71.7759L93.4824 -86.8108L104.336 -101.846L115.189 -86.8108L104.336 -71.7759Z" stroke="#FEFEFE" stroke-width="0.319444" stroke-miterlimit="10"/>
<path d="M144.887 -14.8871L133.732 0.350951L122.577 15.7922L104.337 41.1891L85.9462 15.7922L74.942 0.350951L63.7871 -14.8871L93.4834 -56.1316L104.337 -41.0967L115.19 -56.1316L144.887 -14.8871Z" stroke="#FEFEFE" stroke-width="0.319444" stroke-miterlimit="10"/>
<path d="M85.9456 15.7918L74.9414 0.350499L104.336 -40.2844L133.731 0.350499L122.576 15.7918L104.336 41.1886L85.9456 15.7918Z" stroke="#FEFEFE" stroke-width="0.319444" stroke-miterlimit="10"/>
<path d="M104.337 41.1892L85.9463 15.7923L104.337 -9.60449L122.577 15.7923L104.337 41.1892Z" stroke="#FEFEFE" stroke-width="0.319444" stroke-miterlimit="10"/>
<path d="M167.046 -45.77L104.337 41.1887L85.9466 15.7919L41.4775 -45.77L71.1738 -86.8113L82.3288 -102.253L93.4837 -117.694L104.337 -132.729L115.191 -117.694L126.346 -102.253L137.5 -86.8113L167.046 -45.77ZM82.3288 -71.37L93.4837 -55.9288L104.337 -40.8939L115.191 -55.9288L126.346 -71.37L115.191 -86.8113L104.337 -71.7764L93.4837 -86.8113L82.3288 -71.37Z" stroke="#FEFEFE" stroke-width="0.319444" stroke-miterlimit="10"/>
<path d="M167.045 -45.77L155.89 -30.3287L144.735 -14.8874L133.581 0.553846L122.426 15.9951L104.035 41.392L85.9459 15.7919L74.791 0.350659L63.6361 -15.0906L52.4811 -30.5319L41.3262 -45.9732L71.0225 -87.0144L82.1774 -102.456L93.3323 -117.897L104.186 -132.932L115.039 -117.897L126.194 -102.456L137.349 -87.0144L167.045 -45.77ZM126.345 -71.37L115.19 -86.8112L104.337 -71.7763L93.4831 -86.8112L82.3281 -71.37L93.4831 -55.9287L104.337 -40.8938L115.19 -55.9287L126.345 -71.37Z" stroke="#FEFEFE" stroke-width="0.319444" stroke-miterlimit="10"/>
<path d="M156.041 -30.3282L144.886 -14.887L133.731 0.554321L122.576 15.9956L104.185 41.3924L85.9453 15.7924L74.7904 0.351134L63.6354 -15.0901L52.4805 -30.5314L82.1767 -71.5727L93.3317 -56.1314L104.185 -41.0965L115.039 -56.1314L126.194 -71.5727L156.041 -30.3282ZM104.336 -71.7759L93.4824 -86.8108L104.336 -101.846L115.189 -86.8108L104.336 -71.7759Z" stroke="#FEFEFE" stroke-width="0.319444" stroke-miterlimit="10"/>
<path d="M144.887 -14.8871L133.732 0.350951L122.577 15.7922L104.337 41.1891L85.9462 15.7922L74.942 0.350951L63.7871 -14.8871L93.4834 -56.1316L104.337 -41.0967L115.19 -56.1316L144.887 -14.8871Z" stroke="#FEFEFE" stroke-width="0.319444" stroke-miterlimit="10"/>
<path d="M85.9456 15.7918L74.9414 0.350499L104.336 -40.2844L133.731 0.350499L122.576 15.7918L104.336 41.1886L85.9456 15.7918Z" stroke="#FEFEFE" stroke-width="0.319444" stroke-miterlimit="10"/>
<path d="M104.337 41.1892L85.9463 15.7923L104.337 -9.60449L122.577 15.7923L104.337 41.1892Z" stroke="#FEFEFE" stroke-width="0.319444" stroke-miterlimit="10"/>
<path d="M167.046 -45.77L104.337 41.1887L85.9466 15.7919L41.4775 -45.77L71.1738 -86.8113L82.3288 -102.253L93.4837 -117.694L104.337 -132.729L115.191 -117.694L126.346 -102.253L137.5 -86.8113L167.046 -45.77ZM82.3288 -71.37L93.4837 -55.9288L104.337 -40.8939L115.191 -55.9288L126.346 -71.37L115.191 -86.8113L104.337 -71.7764L93.4837 -86.8113L82.3288 -71.37Z" stroke="#FEFEFE" stroke-width="0.319444" stroke-miterlimit="10"/>
<path d="M292.613 -45.77L281.459 -30.3288L270.304 -14.8875L259.149 0.553784L247.994 15.9951L229.603 41.3919L211.213 15.9951L200.058 0.553784L188.903 -14.8875L177.748 -30.3288L166.593 -45.77L196.289 -86.8113L207.444 -102.253L218.599 -117.694L229.452 -132.729L240.306 -117.694L251.461 -102.253L262.616 -86.8113L292.613 -45.77ZM251.913 -71.37L240.758 -86.8113L229.905 -71.7764L219.051 -86.8113L207.896 -71.37L219.051 -55.9288L229.905 -40.8939L240.758 -55.9288L251.913 -71.37Z" stroke="#FEFEFE" stroke-width="0.319444" stroke-miterlimit="10"/>
<path d="M281.609 -30.3282L270.454 -14.887L259.299 0.554321L248.144 15.9956L229.754 41.3924L211.363 15.9956L200.208 0.554321L189.053 -14.887L177.898 -30.3282L207.595 -71.3695L218.75 -55.9282L229.603 -40.8933L240.457 -55.9282L251.611 -71.3695L281.609 -30.3282ZM229.905 -71.7759L219.051 -86.8108L229.905 -101.846L240.758 -86.8108L229.905 -71.7759Z" stroke="#FEFEFE" stroke-width="0.319444" stroke-miterlimit="10"/>
<path d="M270.455 -14.8871L259.3 0.350951L248.145 15.7922L229.905 41.1891L211.515 15.7922L200.51 0.350951L189.355 -14.8871L219.052 -56.1316L229.905 -41.0967L240.759 -56.1316L270.455 -14.8871Z" stroke="#FEFEFE" stroke-width="0.319444" stroke-miterlimit="10"/>
<path d="M211.514 15.7918L200.51 0.350499L229.905 -40.2844L259.299 0.350499L248.144 15.7918L229.905 41.1886L211.514 15.7918Z" stroke="#FEFEFE" stroke-width="0.319444" stroke-miterlimit="10"/>
<path d="M229.904 41.1892L211.514 15.7923L229.904 -9.60449L248.144 15.7923L229.904 41.1892Z" stroke="#FEFEFE" stroke-width="0.319444" stroke-miterlimit="10"/>
<path d="M292.613 -45.77L229.905 41.1887L211.514 15.7919L167.045 -45.77L196.741 -86.8113L207.896 -102.253L219.051 -117.694L229.905 -132.729L240.758 -117.694L251.913 -102.253L263.068 -86.8113L292.613 -45.77ZM207.896 -71.37L219.051 -55.9288L229.905 -40.8939L240.758 -55.9288L251.913 -71.37L240.758 -86.8113L229.905 -71.7764L219.051 -86.8113L207.896 -71.37Z" stroke="#FEFEFE" stroke-width="0.319444" stroke-miterlimit="10"/>
<path d="M292.613 -45.77L281.459 -30.3288L270.304 -14.8875L259.149 0.553784L247.994 15.9951L229.603 41.3919L211.213 15.9951L200.058 0.553784L188.903 -14.8875L177.748 -30.3288L166.593 -45.77L196.289 -86.8113L207.444 -102.253L218.599 -117.694L229.452 -132.729L240.306 -117.694L251.461 -102.253L262.616 -86.8113L292.613 -45.77ZM251.913 -71.37L240.758 -86.8113L229.905 -71.7764L219.051 -86.8113L207.896 -71.37L219.051 -55.9288L229.905 -40.8939L240.758 -55.9288L251.913 -71.37Z" stroke="#FEFEFE" stroke-width="0.319444" stroke-miterlimit="10"/>
<path d="M281.609 -30.3282L270.454 -14.887L259.299 0.554321L248.144 15.9956L229.754 41.3924L211.363 15.9956L200.208 0.554321L189.053 -14.887L177.898 -30.3282L207.595 -71.3695L218.75 -55.9282L229.603 -40.8933L240.457 -55.9282L251.611 -71.3695L281.609 -30.3282ZM229.905 -71.7759L219.051 -86.8108L229.905 -101.846L240.758 -86.8108L229.905 -71.7759Z" stroke="#FEFEFE" stroke-width="0.319444" stroke-miterlimit="10"/>
<path d="M270.455 -14.8871L259.3 0.350951L248.145 15.7922L229.905 41.1891L211.515 15.7922L200.51 0.350951L189.355 -14.8871L219.052 -56.1316L229.905 -41.0967L240.759 -56.1316L270.455 -14.8871Z" stroke="#FEFEFE" stroke-width="0.319444" stroke-miterlimit="10"/>
<path d="M211.514 15.7918L200.51 0.350499L229.905 -40.2844L259.299 0.350499L248.144 15.7918L229.905 41.1886L211.514 15.7918Z" stroke="#FEFEFE" stroke-width="0.319444" stroke-miterlimit="10"/>
<path d="M229.904 41.1892L211.514 15.7923L229.904 -9.60449L248.144 15.7923L229.904 41.1892Z" stroke="#FEFEFE" stroke-width="0.319444" stroke-miterlimit="10"/>
<path d="M292.613 -45.77L229.905 41.1887L211.514 15.7919L167.045 -45.77L196.741 -86.8113L207.896 -102.253L219.051 -117.694L229.905 -132.729L240.758 -117.694L251.913 -102.253L263.068 -86.8113L292.613 -45.77ZM207.896 -71.37L219.051 -55.9288L229.905 -40.8939L240.758 -55.9288L251.913 -71.37L240.758 -86.8113L229.905 -71.7764L219.051 -86.8113L207.896 -71.37Z" stroke="#FEFEFE" stroke-width="0.319444" stroke-miterlimit="10"/>
<path d="M418.183 -45.77L407.028 -30.3288L395.873 -14.8875L384.718 0.553784L373.563 15.9951L355.172 41.3919L336.782 15.9951L325.627 0.553784L314.472 -14.8875L303.317 -30.3288L292.162 -45.77L321.858 -86.8113L333.013 -102.253L344.168 -117.694L355.022 -132.729L365.875 -117.694L377.03 -102.253L388.185 -86.8113L418.183 -45.77ZM377.482 -71.37L366.327 -86.8113L355.474 -71.7764L344.621 -86.8113L333.466 -71.37L344.621 -55.9288L355.474 -40.8939L366.327 -55.9288L377.482 -71.37Z" stroke="#FEFEFE" stroke-width="0.319444" stroke-miterlimit="10"/>
<path d="M407.179 -30.3282L396.024 -14.887L384.869 0.554321L373.714 15.9956L355.323 41.3924L336.933 15.9956L325.778 0.554321L314.623 -14.887L303.468 -30.3282L333.164 -71.3695L344.319 -55.9282L355.172 -40.8933L366.026 -55.9282L377.181 -71.3695L407.179 -30.3282ZM355.474 -71.7759L344.62 -86.8108L355.474 -101.846L366.327 -86.8108L355.474 -71.7759Z" stroke="#FEFEFE" stroke-width="0.319444" stroke-miterlimit="10"/>
<path d="M396.024 -14.8871L384.869 0.350951L373.714 15.7922L355.475 41.1891L337.084 15.7922L326.08 0.350951L314.925 -14.8871L344.621 -56.1316L355.475 -41.0967L366.328 -56.1316L396.024 -14.8871Z" stroke="#FEFEFE" stroke-width="0.319444" stroke-miterlimit="10"/>
<path d="M337.083 15.7917L326.079 0.350377L355.474 -40.2845L384.869 0.350377L373.714 15.7917L355.474 41.1885L337.083 15.7917Z" stroke="#FEFEFE" stroke-width="0.319444" stroke-miterlimit="10"/>
<path d="M355.474 41.189L337.083 15.7922L355.474 -9.60461L373.713 15.7922L355.474 41.189Z" stroke="#FEFEFE" stroke-width="0.319444" stroke-miterlimit="10"/>
<path d="M418.183 -45.77L355.474 41.1887L337.083 15.7919L292.614 -45.77L322.31 -86.8113L333.465 -102.253L344.62 -117.694L355.474 -132.729L366.327 -117.694L377.482 -102.253L388.637 -86.8113L418.183 -45.77ZM333.465 -71.37L344.62 -55.9288L355.474 -40.8939L366.327 -55.9288L377.482 -71.37L366.327 -86.8113L355.474 -71.7764L344.62 -86.8113L333.465 -71.37Z" stroke="#FEFEFE" stroke-width="0.319444" stroke-miterlimit="10"/>
<path d="M418.183 -45.77L407.028 -30.3288L395.873 -14.8875L384.718 0.553784L373.563 15.9951L355.172 41.3919L336.782 15.9951L325.627 0.553784L314.472 -14.8875L303.317 -30.3288L292.162 -45.77L321.858 -86.8113L333.013 -102.253L344.168 -117.694L355.022 -132.729L365.875 -117.694L377.03 -102.253L388.185 -86.8113L418.183 -45.77ZM377.482 -71.37L366.327 -86.8113L355.474 -71.7764L344.621 -86.8113L333.466 -71.37L344.621 -55.9288L355.474 -40.8939L366.327 -55.9288L377.482 -71.37Z" stroke="#FEFEFE" stroke-width="0.319444" stroke-miterlimit="10"/>
<path d="M407.179 -30.3282L396.024 -14.887L384.869 0.554321L373.714 15.9956L355.323 41.3924L336.933 15.9956L325.778 0.554321L314.623 -14.887L303.468 -30.3282L333.164 -71.3695L344.319 -55.9282L355.172 -40.8933L366.026 -55.9282L377.181 -71.3695L407.179 -30.3282ZM355.474 -71.7759L344.62 -86.8108L355.474 -101.846L366.327 -86.8108L355.474 -71.7759Z" stroke="#FEFEFE" stroke-width="0.319444" stroke-miterlimit="10"/>
<path d="M396.024 -14.8871L384.869 0.350951L373.714 15.7922L355.475 41.1891L337.084 15.7922L326.08 0.350951L314.925 -14.8871L344.621 -56.1316L355.475 -41.0967L366.328 -56.1316L396.024 -14.8871Z" stroke="#FEFEFE" stroke-width="0.319444" stroke-miterlimit="10"/>
<path d="M337.083 15.7917L326.079 0.350377L355.474 -40.2845L384.869 0.350377L373.714 15.7917L355.474 41.1885L337.083 15.7917Z" stroke="#FEFEFE" stroke-width="0.319444" stroke-miterlimit="10"/>
<path d="M355.474 41.189L337.083 15.7922L355.474 -9.60461L373.713 15.7922L355.474 41.189Z" stroke="#FEFEFE" stroke-width="0.319444" stroke-miterlimit="10"/>
<path d="M418.183 -45.77L355.474 41.1887L337.083 15.7919L292.614 -45.77L322.31 -86.8113L333.465 -102.253L344.62 -117.694L355.474 -132.729L366.327 -117.694L377.482 -102.253L388.637 -86.8113L418.183 -45.77ZM333.465 -71.37L344.62 -55.9288L355.474 -40.8939L366.327 -55.9288L377.482 -71.37L366.327 -86.8113L355.474 -71.7764L344.62 -86.8113L333.465 -71.37Z" stroke="#FEFEFE" stroke-width="0.319444" stroke-miterlimit="10"/>
<path d="M543.751 -45.77L532.596 -30.3288L521.592 -14.8875L510.437 0.553784L499.282 15.9951L480.891 41.3919L462.501 15.9951L451.346 0.553784L440.191 -14.8875L429.036 -30.3288L417.881 -45.77L447.577 -86.8113L458.732 -102.253L469.887 -117.694L480.74 -132.729L491.594 -117.694L502.749 -102.253L513.904 -86.8113L543.751 -45.77ZM503.05 -71.37L491.895 -86.8113L481.042 -71.7764L470.188 -86.8113L459.034 -71.37L470.188 -55.9288L481.042 -40.8939L491.895 -55.9288L503.05 -71.37Z" stroke="#FEFEFE" stroke-width="0.319444" stroke-miterlimit="10"/>
<path d="M532.746 -30.3282L521.591 -14.887L510.436 0.554321L499.281 15.9956L480.891 41.3924L462.5 15.9956L451.345 0.554321L440.19 -14.887L429.035 -30.3282L458.731 -71.3695L469.886 -55.9282L480.74 -40.8933L491.593 -55.9282L502.748 -71.3695L532.746 -30.3282ZM481.041 -71.7759L470.188 -86.8108L481.041 -101.846L491.895 -86.8108L481.041 -71.7759Z" stroke="#FEFEFE" stroke-width="0.319444" stroke-miterlimit="10"/>
<path d="M521.592 -14.8871L510.437 0.350951L499.282 15.7922L481.042 41.1891L462.651 15.7922L451.647 0.350951L440.492 -14.8871L470.188 -56.1316L481.042 -41.0967L491.895 -56.1316L521.592 -14.8871Z" stroke="#FEFEFE" stroke-width="0.319444" stroke-miterlimit="10"/>
<path d="M462.652 15.7918L451.647 0.350499L481.042 -40.2844L510.437 0.350499L499.282 15.7918L481.042 41.1886L462.652 15.7918Z" stroke="#FEFEFE" stroke-width="0.319444" stroke-miterlimit="10"/>
<path d="M543.751 -45.77L481.042 41.1887L462.652 15.7919L418.183 -45.77L447.879 -86.8113L459.034 -102.253L470.189 -117.694L481.042 -132.729L491.896 -117.694L503.051 -102.253L514.206 -86.8113L543.751 -45.77ZM459.034 -71.37L470.189 -55.9288L481.042 -40.8939L491.896 -55.9288L503.051 -71.37L491.896 -86.8113L481.042 -71.7764L470.189 -86.8113L459.034 -71.37Z" stroke="#FEFEFE" stroke-width="0.319444" stroke-miterlimit="10"/>
<path d="M543.751 -45.77L532.596 -30.3288L521.592 -14.8875L510.437 0.553784L499.282 15.9951L480.891 41.3919L462.501 15.9951L451.346 0.553784L440.191 -14.8875L429.036 -30.3288L417.881 -45.77L447.577 -86.8113L458.732 -102.253L469.887 -117.694L480.74 -132.729L491.594 -117.694L502.749 -102.253L513.904 -86.8113L543.751 -45.77ZM503.05 -71.37L491.895 -86.8113L481.042 -71.7764L470.188 -86.8113L459.034 -71.37L470.188 -55.9288L481.042 -40.8939L491.895 -55.9288L503.05 -71.37Z" stroke="#FEFEFE" stroke-width="0.319444" stroke-miterlimit="10"/>
<path d="M532.746 -30.3282L521.591 -14.887L510.436 0.554321L499.281 15.9956L480.891 41.3924L462.5 15.9956L451.345 0.554321L440.19 -14.887L429.035 -30.3282L458.731 -71.3695L469.886 -55.9282L480.74 -40.8933L491.593 -55.9282L502.748 -71.3695L532.746 -30.3282ZM481.041 -71.7759L470.188 -86.8108L481.041 -101.846L491.895 -86.8108L481.041 -71.7759Z" stroke="#FEFEFE" stroke-width="0.319444" stroke-miterlimit="10"/>
<path d="M521.592 -14.8871L510.437 0.350951L499.282 15.7922L481.042 41.1891L462.651 15.7922L451.647 0.350951L440.492 -14.8871L470.188 -56.1316L481.042 -41.0967L491.895 -56.1316L521.592 -14.8871Z" stroke="#FEFEFE" stroke-width="0.319444" stroke-miterlimit="10"/>
<path d="M462.652 15.7918L451.647 0.350499L481.042 -40.2844L510.437 0.350499L499.282 15.7918L481.042 41.1886L462.652 15.7918Z" stroke="#FEFEFE" stroke-width="0.319444" stroke-miterlimit="10"/>
<path d="M543.751 -45.77L481.042 41.1887L462.652 15.7919L418.183 -45.77L447.879 -86.8113L459.034 -102.253L470.189 -117.694L481.042 -132.729L491.896 -117.694L503.051 -102.253L514.206 -86.8113L543.751 -45.77ZM459.034 -71.37L470.189 -55.9288L481.042 -40.8939L491.896 -55.9288L503.051 -71.37L491.896 -86.8113L481.042 -71.7764L470.189 -86.8113L459.034 -71.37Z" stroke="#FEFEFE" stroke-width="0.319444" stroke-miterlimit="10"/>
<path d="M104.337 41.1893L74.6408 82.4338L63.4858 97.6719L52.3309 82.4338L41.4774 97.2655L30.7747 82.4338L19.6198 97.6719L8.46484 82.4338L-21.2314 41.1893L-10.0765 25.748L1.07844 10.51L12.0826 -4.93133L23.2376 -20.3726L41.4774 -45.7694L59.868 -20.3726L71.023 -4.93133L104.337 41.1893Z" stroke="#FEFEFE" stroke-width="0.319444" stroke-miterlimit="10"/>
<path d="M93.1824 25.748L63.4861 66.9925L52.3312 82.4337L41.4777 97.2655L-10.0762 25.748L1.07876 10.5099L12.083 -4.93133L23.2379 -20.3726L41.4777 -45.7694L59.8683 -20.3726L71.0233 -4.93133L93.1824 25.748Z" stroke="#FEFEFE" stroke-width="0.319444" stroke-miterlimit="10"/>
<path d="M30.7754 51.5512L1.0791 10.5099L12.0833 -4.93133L23.2382 -20.3726L41.4781 -45.7694L59.8687 -20.3726L71.0236 -4.93133L82.0278 10.5099L52.3315 51.5512" stroke="#FEFEFE" stroke-width="0.319444" stroke-miterlimit="10"/>
<path d="M59.8684 -20.3726L71.0233 -4.93133L41.4778 35.7036L12.083 -4.93133L23.2379 -20.3726L41.4778 -45.7694L59.8684 -20.3726Z" stroke="#FEFEFE" stroke-width="0.319444" stroke-miterlimit="10"/>
<path d="M41.4771 -45.7694L59.8677 -20.3726L41.4771 5.02421L23.2373 -20.3726L41.4771 -45.7694Z" stroke="#FEFEFE" stroke-width="0.319444" stroke-miterlimit="10"/>
<path d="M104.337 123.475L93.1821 138.917L82.0272 154.358L70.8723 169.799L59.7173 185.24L41.3267 210.637L22.9362 185.24L11.7812 169.799L0.62627 154.358L-10.5287 138.917L-21.6836 123.475L8.01266 82.4339L19.1676 66.9927L30.3226 51.5514L41.176 36.5165L52.0295 51.5514L63.1844 66.9927L74.3393 82.4339L104.337 123.475ZM63.4859 97.672L52.3309 82.2308L41.4775 97.2657L30.624 82.2308L19.4691 97.672L30.624 113.113L41.4775 128.148L52.3309 113.113L63.4859 97.672Z" stroke="#FEFEFE" stroke-width="0.319444" stroke-miterlimit="10"/>
<path d="M93.1815 138.917L82.0266 154.358L70.8716 169.799L59.7167 185.241L41.3261 210.637L22.9355 185.241L11.7806 169.799L0.625635 154.358L-10.5293 138.917L19.167 97.8754L30.3219 113.317L41.1754 128.352L52.0288 113.317L63.1838 97.8754L93.1815 138.917ZM41.4768 97.2659L30.6234 82.231L41.4768 67.196L52.3303 82.231L41.4768 97.2659Z" stroke="#FEFEFE" stroke-width="0.319444" stroke-miterlimit="10"/>
<path d="M82.0272 154.155L71.023 169.596L59.868 185.038L41.4774 210.434L23.2376 185.038L12.0827 169.596L0.927734 154.155L30.7747 113.114L41.4774 128.149L52.3309 113.114L82.0272 154.155Z" stroke="#FEFEFE" stroke-width="0.319444" stroke-miterlimit="10"/>
<path d="M23.237 185.037L12.082 169.596L41.4768 128.961L71.0223 169.596L59.8674 185.037L41.4768 210.434L23.237 185.037Z" stroke="#FEFEFE" stroke-width="0.319444" stroke-miterlimit="10"/>
<path d="M41.4771 210.434L23.2373 185.037L41.4771 159.641L59.8677 185.037L41.4771 210.434Z" stroke="#FEFEFE" stroke-width="0.319444" stroke-miterlimit="10"/>
<path d="M104.337 123.475L41.6282 210.434L23.2376 185.037L-21.2314 123.475L8.46484 82.4339L19.6198 66.9927L30.7747 51.5514L41.6282 36.5165L52.4816 51.5514L63.6366 66.9927L74.7915 82.4339L104.337 123.475ZM19.6198 97.672L30.7747 113.113L41.6282 128.148L52.4816 113.113L63.6366 97.672L52.4816 82.2308L41.6282 97.2657L30.7747 82.2308L19.6198 97.672Z" stroke="#FEFEFE" stroke-width="0.319444" stroke-miterlimit="10"/>
<path d="M104.337 41.189V123.475" stroke="#FEFEFE" stroke-width="0.319444" stroke-miterlimit="10"/>
<path d="M104.337 41.1893L74.6408 82.4338L63.4858 97.6719L52.3309 82.4338L41.4774 97.2655L30.7747 82.4338L19.6198 97.6719L8.46484 82.4338L-21.2314 41.1893L-10.0765 25.748L1.07844 10.51L12.0826 -4.93133L23.2376 -20.3726L41.4774 -45.7694L59.868 -20.3726L71.023 -4.93133L104.337 41.1893Z" stroke="#FEFEFE" stroke-width="0.319444" stroke-miterlimit="10"/>
<path d="M93.1824 25.748L63.4861 66.9925L52.3312 82.4337L41.4777 97.2655L-10.0762 25.748L1.07876 10.5099L12.083 -4.93133L23.2379 -20.3726L41.4777 -45.7694L59.8683 -20.3726L71.0233 -4.93133L93.1824 25.748Z" stroke="#FEFEFE" stroke-width="0.319444" stroke-miterlimit="10"/>
<path d="M30.7754 51.5512L1.0791 10.5099L12.0833 -4.93133L23.2382 -20.3726L41.4781 -45.7694L59.8687 -20.3726L71.0236 -4.93133L82.0278 10.5099L52.3315 51.5512" stroke="#FEFEFE" stroke-width="0.319444" stroke-miterlimit="10"/>
<path d="M59.8684 -20.3726L71.0233 -4.93133L41.4778 35.7036L12.083 -4.93133L23.2379 -20.3726L41.4778 -45.7694L59.8684 -20.3726Z" stroke="#FEFEFE" stroke-width="0.319444" stroke-miterlimit="10"/>
<path d="M41.4771 -45.7694L59.8677 -20.3726L41.4771 5.02421L23.2373 -20.3726L41.4771 -45.7694Z" stroke="#FEFEFE" stroke-width="0.319444" stroke-miterlimit="10"/>
<path d="M104.337 123.475L93.1821 138.917L82.0272 154.358L70.8723 169.799L59.7173 185.24L41.3267 210.637L22.9362 185.24L11.7812 169.799L0.62627 154.358L-10.5287 138.917L-21.6836 123.475L8.01266 82.4339L19.1676 66.9927L30.3226 51.5514L41.176 36.5165L52.0295 51.5514L63.1844 66.9927L74.3393 82.4339L104.337 123.475ZM63.4859 97.672L52.3309 82.2308L41.4775 97.2657L30.624 82.2308L19.4691 97.672L30.624 113.113L41.4775 128.148L52.3309 113.113L63.4859 97.672Z" stroke="#FEFEFE" stroke-width="0.319444" stroke-miterlimit="10"/>
<path d="M93.1815 138.917L82.0266 154.358L70.8716 169.799L59.7167 185.241L41.3261 210.637L22.9355 185.241L11.7806 169.799L0.625635 154.358L-10.5293 138.917L19.167 97.8754L30.3219 113.317L41.1754 128.352L52.0288 113.317L63.1838 97.8754L93.1815 138.917ZM41.4768 97.2659L30.6234 82.231L41.4768 67.196L52.3303 82.231L41.4768 97.2659Z" stroke="#FEFEFE" stroke-width="0.319444" stroke-miterlimit="10"/>
<path d="M82.0272 154.155L71.023 169.596L59.868 185.038L41.4774 210.434L23.2376 185.038L12.0827 169.596L0.927734 154.155L30.7747 113.114L41.4774 128.149L52.3309 113.114L82.0272 154.155Z" stroke="#FEFEFE" stroke-width="0.319444" stroke-miterlimit="10"/>
<path d="M23.237 185.037L12.082 169.596L41.4768 128.961L71.0223 169.596L59.8674 185.037L41.4768 210.434L23.237 185.037Z" stroke="#FEFEFE" stroke-width="0.319444" stroke-miterlimit="10"/>
<path d="M41.4771 210.434L23.2373 185.037L41.4771 159.641L59.8677 185.037L41.4771 210.434Z" stroke="#FEFEFE" stroke-width="0.319444" stroke-miterlimit="10"/>
<path d="M104.337 123.475L41.6282 210.434L23.2376 185.037L-21.2314 123.475L8.46484 82.4339L19.6198 66.9927L30.7747 51.5514L41.6282 36.5165L52.4816 51.5514L63.6366 66.9927L74.7915 82.4339L104.337 123.475ZM19.6198 97.672L30.7747 113.113L41.6282 128.148L52.4816 113.113L63.6366 97.672L52.4816 82.2308L41.6282 97.2657L30.7747 82.2308L19.6198 97.672Z" stroke="#FEFEFE" stroke-width="0.319444" stroke-miterlimit="10"/>
<path d="M104.337 41.189V123.475" stroke="#FEFEFE" stroke-width="0.319444" stroke-miterlimit="10"/>
<path d="M41.4763 210.433L11.78 251.474L0.775845 266.915L-10.3791 251.474L-21.2326 266.509L-32.086 251.474L-43.2409 266.915L-54.2451 251.474L-83.9414 210.433L-72.9372 194.992L-61.7823 179.55L-50.6273 164.312L-39.6231 148.871L-21.2326 123.474L-2.84196 148.871L8.16222 164.312L41.4763 210.433Z" stroke="#FEFEFE" stroke-width="0.319444" stroke-miterlimit="10"/>
<path d="M30.4728 194.992L0.77653 236.236L-10.3784 251.474L-21.2319 266.509L-72.9365 194.992L-61.7816 179.55L-50.6267 164.312L-39.6225 148.871L-21.2319 123.474L-2.84128 148.871L8.1629 164.312L30.4728 194.992Z" stroke="#FEFEFE" stroke-width="0.319444" stroke-miterlimit="10"/>
<path d="M-32.085 220.795L-61.7812 179.55L-50.6263 164.312L-39.6221 148.871L-21.2315 123.474L-2.84094 148.871L8.16324 164.312L19.3182 179.55L-10.3781 220.795" stroke="#FEFEFE" stroke-width="0.319444" stroke-miterlimit="10"/>
<path d="M-2.84158 148.871L8.1626 164.312L-21.2322 204.947L-50.627 164.312L-39.6227 148.871L-21.2322 123.474L-2.84158 148.871Z" stroke="#FEFEFE" stroke-width="0.319444" stroke-miterlimit="10"/>
<path d="M41.4767 292.719L30.3218 308.16L19.1669 323.602L8.01193 339.043L-3.14302 354.484L-21.5336 379.881L-39.9242 354.484L-51.0791 339.043L-62.2341 323.602L-73.389 308.16L-84.5439 292.719L-54.8477 251.678L-43.6927 236.237L-32.5378 220.795L-21.6843 205.76L-10.8309 220.795L0.324057 236.237L11.479 251.678L41.4767 292.719ZM0.776289 266.916L-10.3786 251.475L-21.2321 266.51L-32.0856 251.475L-43.2405 266.916L-32.0856 282.357L-21.2321 297.392L-10.3786 282.357L0.776289 266.916Z" stroke="#FEFEFE" stroke-width="0.319444" stroke-miterlimit="10"/>
<path d="M30.4725 307.957L19.3176 323.399L8.16264 338.84L-2.99229 354.281L-21.3829 379.678L-39.7734 354.281L-50.9284 338.84L-62.0833 323.399L-73.2383 307.957L-43.542 266.916L-32.3871 282.357L-21.5336 297.392L-10.6802 282.357L0.474789 266.916L30.4725 307.957ZM-21.2321 266.51L-32.0856 251.475L-21.2321 236.44L-10.3787 251.475L-21.2321 266.51Z" stroke="#FEFEFE" stroke-width="0.319444" stroke-miterlimit="10"/>
<path d="M19.3182 323.399L8.16324 338.84L-2.84094 354.281L-21.2315 379.678L-39.6221 354.281L-50.6263 338.84L-61.7812 323.399L-32.085 282.357L-21.2315 297.392L-10.3781 282.357L19.3182 323.399Z" stroke="#FEFEFE" stroke-width="0.319444" stroke-miterlimit="10"/>
<path d="M-39.6227 354.28L-50.627 338.839L-21.2322 298.001L8.1626 338.839L-2.84158 354.28L-21.2322 379.474L-39.6227 354.28Z" stroke="#FEFEFE" stroke-width="0.319444" stroke-miterlimit="10"/>
<path d="M41.4767 292.719L-21.2322 379.678L-39.6228 354.281L-84.0918 292.719L-54.3955 251.678L-43.2406 236.237L-32.0857 220.795L-21.2322 205.76L-10.3787 220.795L0.776206 236.237L11.9311 251.678L41.4767 292.719ZM-43.2406 266.916L-32.0857 282.357L-21.2322 297.392L-10.3787 282.357L0.776206 266.916L-10.3787 251.475L-21.2322 266.51L-32.0857 251.475L-43.2406 266.916Z" stroke="#FEFEFE" stroke-width="0.319444" stroke-miterlimit="10"/>
<path d="M41.4766 210.433V292.719" stroke="#FEFEFE" stroke-width="0.319444" stroke-miterlimit="10"/>
<path d="M41.4763 210.433L11.78 251.474L0.775845 266.915L-10.3791 251.474L-21.2326 266.509L-32.086 251.474L-43.2409 266.915L-54.2451 251.474L-83.9414 210.433L-72.9372 194.992L-61.7823 179.55L-50.6273 164.312L-39.6231 148.871L-21.2326 123.474L-2.84196 148.871L8.16222 164.312L41.4763 210.433Z" stroke="#FEFEFE" stroke-width="0.319444" stroke-miterlimit="10"/>
<path d="M30.4728 194.992L0.77653 236.236L-10.3784 251.474L-21.2319 266.509L-72.9365 194.992L-61.7816 179.55L-50.6267 164.312L-39.6225 148.871L-21.2319 123.474L-2.84128 148.871L8.1629 164.312L30.4728 194.992Z" stroke="#FEFEFE" stroke-width="0.319444" stroke-miterlimit="10"/>
<path d="M-32.085 220.795L-61.7812 179.55L-50.6263 164.312L-39.6221 148.871L-21.2315 123.474L-2.84094 148.871L8.16324 164.312L19.3182 179.55L-10.3781 220.795" stroke="#FEFEFE" stroke-width="0.319444" stroke-miterlimit="10"/>
<path d="M-2.84158 148.871L8.1626 164.312L-21.2322 204.947L-50.627 164.312L-39.6227 148.871L-21.2322 123.474L-2.84158 148.871Z" stroke="#FEFEFE" stroke-width="0.319444" stroke-miterlimit="10"/>
<path d="M41.4767 292.719L30.3218 308.16L19.1669 323.602L8.01193 339.043L-3.14302 354.484L-21.5336 379.881L-39.9242 354.484L-51.0791 339.043L-62.2341 323.602L-73.389 308.16L-84.5439 292.719L-54.8477 251.678L-43.6927 236.237L-32.5378 220.795L-21.6843 205.76L-10.8309 220.795L0.324057 236.237L11.479 251.678L41.4767 292.719ZM0.776289 266.916L-10.3786 251.475L-21.2321 266.51L-32.0856 251.475L-43.2405 266.916L-32.0856 282.357L-21.2321 297.392L-10.3786 282.357L0.776289 266.916Z" stroke="#FEFEFE" stroke-width="0.319444" stroke-miterlimit="10"/>
<path d="M30.4725 307.957L19.3176 323.399L8.16264 338.84L-2.99229 354.281L-21.3829 379.678L-39.7734 354.281L-50.9284 338.84L-62.0833 323.399L-73.2383 307.957L-43.542 266.916L-32.3871 282.357L-21.5336 297.392L-10.6802 282.357L0.474789 266.916L30.4725 307.957ZM-21.2321 266.51L-32.0856 251.475L-21.2321 236.44L-10.3787 251.475L-21.2321 266.51Z" stroke="#FEFEFE" stroke-width="0.319444" stroke-miterlimit="10"/>
<path d="M19.3182 323.399L8.16324 338.84L-2.84094 354.281L-21.2315 379.678L-39.6221 354.281L-50.6263 338.84L-61.7812 323.399L-32.085 282.357L-21.2315 297.392L-10.3781 282.357L19.3182 323.399Z" stroke="#FEFEFE" stroke-width="0.319444" stroke-miterlimit="10"/>
<path d="M-39.6227 354.28L-50.627 338.839L-21.2322 298.001L8.1626 338.839L-2.84158 354.28L-21.2322 379.474L-39.6227 354.28Z" stroke="#FEFEFE" stroke-width="0.319444" stroke-miterlimit="10"/>
<path d="M41.4767 292.719L-21.2322 379.678L-39.6228 354.281L-84.0918 292.719L-54.3955 251.678L-43.2406 236.237L-32.0857 220.795L-21.2322 205.76L-10.3787 220.795L0.776206 236.237L11.9311 251.678L41.4767 292.719ZM-43.2406 266.916L-32.0857 282.357L-21.2322 297.392L-10.3787 282.357L0.776206 266.916L-10.3787 251.475L-21.2322 266.51L-32.0857 251.475L-43.2406 266.916Z" stroke="#FEFEFE" stroke-width="0.319444" stroke-miterlimit="10"/>
<path d="M41.4766 210.433V292.719" stroke="#FEFEFE" stroke-width="0.319444" stroke-miterlimit="10"/>
<path d="M104.336 41.189V123.475" stroke="#FEFEFE" stroke-width="0.319444" stroke-miterlimit="10"/>
<path d="M229.904 41.1893L200.208 82.4338L189.053 97.6719L177.898 82.4338L167.045 97.2655L156.342 82.4338L145.187 97.6719L134.032 82.4338L104.336 41.1893L115.491 25.748L126.495 10.51L137.65 -4.93133L148.805 -20.3726L167.045 -45.7694L185.435 -20.3726L196.59 -4.93133L229.904 41.1893Z" stroke="#FEFEFE" stroke-width="0.319444" stroke-miterlimit="10"/>
<path d="M218.749 25.748L189.053 66.9925L177.898 82.4337L167.044 97.2655L115.49 25.748L126.494 10.5099L137.649 -4.93133L148.804 -20.3726L167.044 -45.7694L185.435 -20.3726L196.59 -4.93133L218.749 25.748Z" stroke="#FEFEFE" stroke-width="0.319444" stroke-miterlimit="10"/>
<path d="M156.342 51.5512L126.495 10.5099L137.65 -4.93133L148.805 -20.3726L167.045 -45.7694L185.435 -20.3726L196.59 -4.93133L207.595 10.5099L177.898 51.5512" stroke="#FEFEFE" stroke-width="0.319444" stroke-miterlimit="10"/>
<path d="M185.436 -20.3726L196.591 -4.93133L167.045 35.7036L137.65 -4.93133L148.805 -20.3726L167.045 -45.7694L185.436 -20.3726Z" stroke="#FEFEFE" stroke-width="0.319444" stroke-miterlimit="10"/>
<path d="M167.044 -45.7694L185.435 -20.3726L167.044 5.02421L148.805 -20.3726L167.044 -45.7694Z" stroke="#FEFEFE" stroke-width="0.319444" stroke-miterlimit="10"/>
<path d="M229.904 123.475L218.75 138.917L207.595 154.358L196.44 169.799L185.285 185.24L166.894 210.637L148.504 185.24L137.349 169.799L126.194 154.358L115.039 138.917L103.884 123.475L133.58 82.4339L144.735 66.9927L155.89 51.5514L166.743 36.5165L177.597 51.5514L188.752 66.9927L199.907 82.4339L229.904 123.475ZM189.053 97.672L177.898 82.2308L167.045 97.2657L156.191 82.2308L145.037 97.672L156.191 113.113L167.045 128.148L177.898 113.113L189.053 97.672Z" stroke="#FEFEFE" stroke-width="0.319444" stroke-miterlimit="10"/>
<path d="M218.75 138.917L207.595 154.358L196.44 169.799L185.285 185.241L166.895 210.637L148.504 185.241L137.349 169.799L126.194 154.358L115.039 138.917L144.735 97.8754L155.89 113.317L166.744 128.352L177.597 113.317L188.752 97.8754L218.75 138.917ZM167.045 97.2659L156.192 82.231L167.045 67.196L177.899 82.231L167.045 97.2659Z" stroke="#FEFEFE" stroke-width="0.319444" stroke-miterlimit="10"/>
<path d="M207.595 154.155L196.59 169.596L185.435 185.038L167.045 210.434L148.805 185.038L137.65 169.596L126.495 154.155L156.342 113.114L167.045 128.149L177.898 113.114L207.595 154.155Z" stroke="#FEFEFE" stroke-width="0.319444" stroke-miterlimit="10"/>
<path d="M148.805 185.037L137.65 169.596L167.045 128.961L196.591 169.596L185.436 185.037L167.045 210.434L148.805 185.037Z" stroke="#FEFEFE" stroke-width="0.319444" stroke-miterlimit="10"/>
<path d="M167.044 210.434L148.805 185.037L167.044 159.641L185.435 185.037L167.044 210.434Z" stroke="#FEFEFE" stroke-width="0.319444" stroke-miterlimit="10"/>
<path d="M229.904 123.475L167.196 210.434L148.805 185.037L104.336 123.475L134.032 82.4339L145.187 66.9927L156.342 51.5514L167.196 36.5165L178.049 51.5514L189.204 66.9927L200.359 82.4339L229.904 123.475ZM145.187 97.672L156.342 113.113L167.196 128.148L178.049 113.113L189.204 97.672L178.049 82.2308L167.196 97.2657L156.342 82.2308L145.187 97.672Z" stroke="#FEFEFE" stroke-width="0.319444" stroke-miterlimit="10"/>
<path d="M229.904 41.189V123.475" stroke="#FEFEFE" stroke-width="0.319444" stroke-miterlimit="10"/>
<path d="M229.904 41.1893L200.208 82.4338L189.053 97.6719L177.898 82.4338L167.045 97.2655L156.342 82.4338L145.187 97.6719L134.032 82.4338L104.336 41.1893L115.491 25.748L126.495 10.51L137.65 -4.93133L148.805 -20.3726L167.045 -45.7694L185.435 -20.3726L196.59 -4.93133L229.904 41.1893Z" stroke="#FEFEFE" stroke-width="0.319444" stroke-miterlimit="10"/>
<path d="M218.749 25.748L189.053 66.9925L177.898 82.4337L167.044 97.2655L115.49 25.748L126.494 10.5099L137.649 -4.93133L148.804 -20.3726L167.044 -45.7694L185.435 -20.3726L196.59 -4.93133L218.749 25.748Z" stroke="#FEFEFE" stroke-width="0.319444" stroke-miterlimit="10"/>
<path d="M156.342 51.5512L126.495 10.5099L137.65 -4.93133L148.805 -20.3726L167.045 -45.7694L185.435 -20.3726L196.59 -4.93133L207.595 10.5099L177.898 51.5512" stroke="#FEFEFE" stroke-width="0.319444" stroke-miterlimit="10"/>
<path d="M185.436 -20.3726L196.591 -4.93133L167.045 35.7036L137.65 -4.93133L148.805 -20.3726L167.045 -45.7694L185.436 -20.3726Z" stroke="#FEFEFE" stroke-width="0.319444" stroke-miterlimit="10"/>
<path d="M167.044 -45.7694L185.435 -20.3726L167.044 5.02421L148.805 -20.3726L167.044 -45.7694Z" stroke="#FEFEFE" stroke-width="0.319444" stroke-miterlimit="10"/>
<path d="M229.904 123.475L218.75 138.917L207.595 154.358L196.44 169.799L185.285 185.24L166.894 210.637L148.504 185.24L137.349 169.799L126.194 154.358L115.039 138.917L103.884 123.475L133.58 82.4339L144.735 66.9927L155.89 51.5514L166.743 36.5165L177.597 51.5514L188.752 66.9927L199.907 82.4339L229.904 123.475ZM189.053 97.672L177.898 82.2308L167.045 97.2657L156.191 82.2308L145.037 97.672L156.191 113.113L167.045 128.148L177.898 113.113L189.053 97.672Z" stroke="#FEFEFE" stroke-width="0.319444" stroke-miterlimit="10"/>
<path d="M218.75 138.917L207.595 154.358L196.44 169.799L185.285 185.241L166.895 210.637L148.504 185.241L137.349 169.799L126.194 154.358L115.039 138.917L144.735 97.8754L155.89 113.317L166.744 128.352L177.597 113.317L188.752 97.8754L218.75 138.917ZM167.045 97.2659L156.192 82.231L167.045 67.196L177.899 82.231L167.045 97.2659Z" stroke="#FEFEFE" stroke-width="0.319444" stroke-miterlimit="10"/>
<path d="M207.595 154.155L196.59 169.596L185.435 185.038L167.045 210.434L148.805 185.038L137.65 169.596L126.495 154.155L156.342 113.114L167.045 128.149L177.898 113.114L207.595 154.155Z" stroke="#FEFEFE" stroke-width="0.319444" stroke-miterlimit="10"/>
<path d="M148.805 185.037L137.65 169.596L167.045 128.961L196.591 169.596L185.436 185.037L167.045 210.434L148.805 185.037Z" stroke="#FEFEFE" stroke-width="0.319444" stroke-miterlimit="10"/>
<path d="M167.044 210.434L148.805 185.037L167.044 159.641L185.435 185.037L167.044 210.434Z" stroke="#FEFEFE" stroke-width="0.319444" stroke-miterlimit="10"/>
<path d="M229.904 123.475L167.196 210.434L148.805 185.037L104.336 123.475L134.032 82.4339L145.187 66.9927L156.342 51.5514L167.196 36.5165L178.049 51.5514L189.204 66.9927L200.359 82.4339L229.904 123.475ZM145.187 97.672L156.342 113.113L167.196 128.148L178.049 113.113L189.204 97.672L178.049 82.2308L167.196 97.2657L156.342 82.2308L145.187 97.672Z" stroke="#FEFEFE" stroke-width="0.319444" stroke-miterlimit="10"/>
<path d="M229.904 41.189V123.475" stroke="#FEFEFE" stroke-width="0.319444" stroke-miterlimit="10"/>
<path d="M41.4775 210.433V292.719" stroke="#FEFEFE" stroke-width="0.319444" stroke-miterlimit="10"/>
<path d="M167.046 210.433L137.349 251.474L126.345 266.915L115.19 251.474L104.337 266.509L93.4833 251.474L82.3284 266.915L71.3242 251.474L41.6279 210.433L52.6321 194.992L63.7871 179.55L74.942 164.312L85.9462 148.871L104.337 123.474L122.727 148.871L133.732 164.312L167.046 210.433Z" stroke="#FEFEFE" stroke-width="0.319444" stroke-miterlimit="10"/>
<path d="M156.041 194.992L126.345 236.236L115.19 251.474L104.337 266.509L52.6318 194.992L63.7868 179.55L74.9417 164.312L85.9459 148.871L104.337 123.474L122.727 148.871L133.731 164.312L156.041 194.992Z" stroke="#FEFEFE" stroke-width="0.319444" stroke-miterlimit="10"/>
<path d="M93.4834 220.795L63.7871 179.55L74.942 164.312L85.9462 148.871L104.337 123.474L122.727 148.871L133.732 164.312L144.887 179.55L115.19 220.795" stroke="#FEFEFE" stroke-width="0.319444" stroke-miterlimit="10"/>
<path d="M122.727 148.871L133.731 164.312L104.336 204.947L74.9414 164.312L85.9456 148.871L104.336 123.474L122.727 148.871Z" stroke="#FEFEFE" stroke-width="0.319444" stroke-miterlimit="10"/>
<path d="M104.337 123.474L122.727 148.871L104.337 174.268L85.9463 148.871L104.337 123.474Z" stroke="#FEFEFE" stroke-width="0.319444" stroke-miterlimit="10"/>
<path d="M167.045 292.719L155.89 308.16L144.735 323.601L133.581 339.042L122.426 354.484L104.035 379.881L85.9459 354.281L74.791 338.839L63.6361 323.398L52.4811 307.957L41.3262 292.515L71.0225 251.474L82.1774 236.033L93.3323 220.592L104.186 205.557L115.039 220.592L126.194 236.033L137.349 251.474L167.045 292.719ZM126.345 266.916L115.19 251.474L104.337 266.509L93.4831 251.474L82.3281 266.916L93.4831 282.357L104.337 297.392L115.19 282.357L126.345 266.916Z" stroke="#FEFEFE" stroke-width="0.319444" stroke-miterlimit="10"/>
<path d="M156.041 307.957L144.886 323.399L133.731 338.84L122.576 354.281L104.185 379.678L85.9453 354.281L74.7904 338.84L63.6354 323.399L52.4805 307.957L82.1767 266.916L93.3317 282.357L104.185 297.392L115.039 282.357L126.194 266.916L156.041 307.957ZM104.336 266.51L93.4824 251.475L104.336 236.44L115.189 251.475L104.336 266.51Z" stroke="#FEFEFE" stroke-width="0.319444" stroke-miterlimit="10"/>
<path d="M144.887 323.399L133.732 338.84L122.577 354.281L104.337 379.678L85.9462 354.281L74.942 338.84L63.7871 323.399L93.4834 282.357L104.337 297.392L115.19 282.357L144.887 323.399Z" stroke="#FEFEFE" stroke-width="0.319444" stroke-miterlimit="10"/>
<path d="M85.9456 354.28L74.9414 338.839L104.336 298.001L133.731 338.839L122.576 354.28L104.336 379.474L85.9456 354.28Z" stroke="#FEFEFE" stroke-width="0.319444" stroke-miterlimit="10"/>
<path d="M104.337 379.475L85.9463 354.281L104.337 328.884L122.577 354.281L104.337 379.475Z" stroke="#FEFEFE" stroke-width="0.319444" stroke-miterlimit="10"/>
<path d="M167.046 292.719L104.337 379.678L85.9466 354.281L41.4775 292.719L71.1738 251.678L82.3288 236.237L93.4837 220.795L104.337 205.76L115.191 220.795L126.346 236.237L137.5 251.678L167.046 292.719ZM82.3288 266.916L93.4837 282.357L104.337 297.392L115.191 282.357L126.346 266.916L115.191 251.475L104.337 266.51L93.4837 251.475L82.3288 266.916Z" stroke="#FEFEFE" stroke-width="0.319444" stroke-miterlimit="10"/>
<path d="M167.045 210.433V292.719" stroke="#FEFEFE" stroke-width="0.319444" stroke-miterlimit="10"/>
<path d="M167.046 210.433L137.349 251.474L126.345 266.915L115.19 251.474L104.337 266.509L93.4833 251.474L82.3284 266.915L71.3242 251.474L41.6279 210.433L52.6321 194.992L63.7871 179.55L74.942 164.312L85.9462 148.871L104.337 123.474L122.727 148.871L133.732 164.312L167.046 210.433Z" stroke="#FEFEFE" stroke-width="0.319444" stroke-miterlimit="10"/>
<path d="M156.041 194.992L126.345 236.236L115.19 251.474L104.337 266.509L52.6318 194.992L63.7868 179.55L74.9417 164.312L85.9459 148.871L104.337 123.474L122.727 148.871L133.731 164.312L156.041 194.992Z" stroke="#FEFEFE" stroke-width="0.319444" stroke-miterlimit="10"/>
<path d="M93.4834 220.795L63.7871 179.55L74.942 164.312L85.9462 148.871L104.337 123.474L122.727 148.871L133.732 164.312L144.887 179.55L115.19 220.795" stroke="#FEFEFE" stroke-width="0.319444" stroke-miterlimit="10"/>
<path d="M122.727 148.871L133.731 164.312L104.336 204.947L74.9414 164.312L85.9456 148.871L104.336 123.474L122.727 148.871Z" stroke="#FEFEFE" stroke-width="0.319444" stroke-miterlimit="10"/>
<path d="M104.337 123.474L122.727 148.871L104.337 174.268L85.9463 148.871L104.337 123.474Z" stroke="#FEFEFE" stroke-width="0.319444" stroke-miterlimit="10"/>
<path d="M167.045 292.719L155.89 308.16L144.735 323.601L133.581 339.042L122.426 354.484L104.035 379.881L85.9459 354.281L74.791 338.839L63.6361 323.398L52.4811 307.957L41.3262 292.515L71.0225 251.474L82.1774 236.033L93.3323 220.592L104.186 205.557L115.039 220.592L126.194 236.033L137.349 251.474L167.045 292.719ZM126.345 266.916L115.19 251.474L104.337 266.509L93.4831 251.474L82.3281 266.916L93.4831 282.357L104.337 297.392L115.19 282.357L126.345 266.916Z" stroke="#FEFEFE" stroke-width="0.319444" stroke-miterlimit="10"/>
<path d="M156.041 307.957L144.886 323.399L133.731 338.84L122.576 354.281L104.185 379.678L85.9453 354.281L74.7904 338.84L63.6354 323.399L52.4805 307.957L82.1767 266.916L93.3317 282.357L104.185 297.392L115.039 282.357L126.194 266.916L156.041 307.957ZM104.336 266.51L93.4824 251.475L104.336 236.44L115.189 251.475L104.336 266.51Z" stroke="#FEFEFE" stroke-width="0.319444" stroke-miterlimit="10"/>
<path d="M144.887 323.399L133.732 338.84L122.577 354.281L104.337 379.678L85.9462 354.281L74.942 338.84L63.7871 323.399L93.4834 282.357L104.337 297.392L115.19 282.357L144.887 323.399Z" stroke="#FEFEFE" stroke-width="0.319444" stroke-miterlimit="10"/>
<path d="M85.9456 354.28L74.9414 338.839L104.336 298.001L133.731 338.839L122.576 354.28L104.336 379.474L85.9456 354.28Z" stroke="#FEFEFE" stroke-width="0.319444" stroke-miterlimit="10"/>
<path d="M104.337 379.475L85.9463 354.281L104.337 328.884L122.577 354.281L104.337 379.475Z" stroke="#FEFEFE" stroke-width="0.319444" stroke-miterlimit="10"/>
<path d="M167.046 292.719L104.337 379.678L85.9466 354.281L41.4775 292.719L71.1738 251.678L82.3288 236.237L93.4837 220.795L104.337 205.76L115.191 220.795L126.346 236.237L137.5 251.678L167.046 292.719ZM82.3288 266.916L93.4837 282.357L104.337 297.392L115.191 282.357L126.346 266.916L115.191 251.475L104.337 266.51L93.4837 251.475L82.3288 266.916Z" stroke="#FEFEFE" stroke-width="0.319444" stroke-miterlimit="10"/>
<path d="M167.045 210.433V292.719" stroke="#FEFEFE" stroke-width="0.319444" stroke-miterlimit="10"/>
<path d="M229.905 41.189V123.475" stroke="#FEFEFE" stroke-width="0.319444" stroke-miterlimit="10"/>
<path d="M355.474 41.1893L325.777 82.4338L314.623 97.6719L303.468 82.4338L292.614 97.2655L281.761 82.4338L270.756 97.6719L259.602 82.4338L229.905 41.1893L241.06 25.748L252.064 10.51L263.219 -4.93133L274.374 -20.3726L292.614 -45.7694L311.005 -20.3726L322.16 -4.93133L355.474 41.1893Z" stroke="#FEFEFE" stroke-width="0.319444" stroke-miterlimit="10"/>
<path d="M344.318 25.748L314.622 66.9925L303.467 82.4337L292.614 97.2655L241.06 25.748L252.064 10.5099L263.219 -4.93133L274.374 -20.3726L292.614 -45.7694L311.004 -20.3726L322.159 -4.93133L344.318 25.748Z" stroke="#FEFEFE" stroke-width="0.319444" stroke-miterlimit="10"/>
<path d="M281.91 51.5512H281.76L252.063 10.5099L263.218 -4.93133L274.373 -20.3726L292.613 -45.7694L311.004 -20.3726L322.159 -4.93133L333.163 10.5099L303.467 51.5512" stroke="#FEFEFE" stroke-width="0.319444" stroke-miterlimit="10"/>
<path d="M311.004 -20.3726L322.159 -4.93133L292.614 35.7036L263.219 -4.93133L274.374 -20.3726L292.614 -45.7694L311.004 -20.3726Z" stroke="#FEFEFE" stroke-width="0.319444" stroke-miterlimit="10"/>
<path d="M292.614 -45.7694L311.004 -20.3726L292.614 5.02421L274.374 -20.3726L292.614 -45.7694Z" stroke="#FEFEFE" stroke-width="0.319444" stroke-miterlimit="10"/>
<path d="M355.473 123.475L344.318 138.916L333.163 154.358L322.008 169.799L310.853 185.24L292.463 210.637L274.374 185.037L263.219 169.596L252.064 154.154L240.909 138.713L229.754 123.272L259.45 82.2306L270.605 66.7894L281.76 51.3481L292.614 36.3132L303.467 51.3481L314.622 66.7894L325.777 82.2306L355.473 123.475ZM314.622 97.6719L303.467 82.2306L292.614 97.2656L281.76 82.2306L270.605 97.6719L281.76 113.113L292.614 128.148L303.467 113.113L314.622 97.6719Z" stroke="#FEFEFE" stroke-width="0.319444" stroke-miterlimit="10"/>
<path d="M344.318 138.917L333.163 154.358L322.008 169.799L310.853 185.241L292.462 210.637L274.373 185.037L263.218 169.596L252.063 154.155L240.908 138.714L270.604 97.6722L281.759 113.114L292.613 128.148L303.466 113.114L314.621 97.6722L344.318 138.917ZM292.613 97.2659L281.759 82.231L292.613 67.196L303.466 82.231L292.613 97.2659Z" stroke="#FEFEFE" stroke-width="0.319444" stroke-miterlimit="10"/>
<path d="M333.163 154.155L322.159 169.596L311.004 185.038L292.613 210.434L274.373 185.038L263.218 169.596L252.063 154.155L281.76 113.114L292.613 128.149L303.467 113.114L333.163 154.155Z" stroke="#FEFEFE" stroke-width="0.319444" stroke-miterlimit="10"/>
<path d="M274.374 185.037L263.219 169.596L292.614 128.961L322.159 169.596L311.004 185.037L292.614 210.434L274.374 185.037Z" stroke="#FEFEFE" stroke-width="0.319444" stroke-miterlimit="10"/>
<path d="M292.614 210.434L274.374 185.037L292.614 159.641L311.004 185.037L292.614 210.434Z" stroke="#FEFEFE" stroke-width="0.319444" stroke-miterlimit="10"/>
<path d="M355.474 123.475L292.765 210.434L274.374 185.037L229.905 123.475L259.602 82.4339L270.756 66.9927L281.911 51.5514L292.765 36.5165L303.618 51.5514L314.773 66.9927L325.928 82.4339L355.474 123.475ZM270.756 97.672L281.911 113.113L292.765 128.148L303.618 113.113L314.773 97.672L303.618 82.2308L292.765 97.2657L281.911 82.2308L270.756 97.672Z" stroke="#FEFEFE" stroke-width="0.319444" stroke-miterlimit="10"/>
<path d="M355.473 41.189V123.475" stroke="#FEFEFE" stroke-width="0.319444" stroke-miterlimit="10"/>
<path d="M355.474 41.1893L325.777 82.4338L314.623 97.6719L303.468 82.4338L292.614 97.2655L281.761 82.4338L270.756 97.6719L259.602 82.4338L229.905 41.1893L241.06 25.748L252.064 10.51L263.219 -4.93133L274.374 -20.3726L292.614 -45.7694L311.005 -20.3726L322.16 -4.93133L355.474 41.1893Z" stroke="#FEFEFE" stroke-width="0.319444" stroke-miterlimit="10"/>
<path d="M344.318 25.748L314.622 66.9925L303.467 82.4337L292.614 97.2655L241.06 25.748L252.064 10.5099L263.219 -4.93133L274.374 -20.3726L292.614 -45.7694L311.004 -20.3726L322.159 -4.93133L344.318 25.748Z" stroke="#FEFEFE" stroke-width="0.319444" stroke-miterlimit="10"/>
<path d="M281.91 51.5512H281.76L252.063 10.5099L263.218 -4.93133L274.373 -20.3726L292.613 -45.7694L311.004 -20.3726L322.159 -4.93133L333.163 10.5099L303.467 51.5512" stroke="#FEFEFE" stroke-width="0.319444" stroke-miterlimit="10"/>
<path d="M311.004 -20.3726L322.159 -4.93133L292.614 35.7036L263.219 -4.93133L274.374 -20.3726L292.614 -45.7694L311.004 -20.3726Z" stroke="#FEFEFE" stroke-width="0.319444" stroke-miterlimit="10"/>
<path d="M292.614 -45.7694L311.004 -20.3726L292.614 5.02421L274.374 -20.3726L292.614 -45.7694Z" stroke="#FEFEFE" stroke-width="0.319444" stroke-miterlimit="10"/>
<path d="M355.473 123.475L344.318 138.916L333.163 154.358L322.008 169.799L310.853 185.24L292.463 210.637L274.374 185.037L263.219 169.596L252.064 154.154L240.909 138.713L229.754 123.272L259.45 82.2306L270.605 66.7894L281.76 51.3481L292.614 36.3132L303.467 51.3481L314.622 66.7894L325.777 82.2306L355.473 123.475ZM314.622 97.6719L303.467 82.2306L292.614 97.2656L281.76 82.2306L270.605 97.6719L281.76 113.113L292.614 128.148L303.467 113.113L314.622 97.6719Z" stroke="#FEFEFE" stroke-width="0.319444" stroke-miterlimit="10"/>
<path d="M344.318 138.917L333.163 154.358L322.008 169.799L310.853 185.241L292.462 210.637L274.373 185.037L263.218 169.596L252.063 154.155L240.908 138.714L270.604 97.6722L281.759 113.114L292.613 128.148L303.466 113.114L314.621 97.6722L344.318 138.917ZM292.613 97.2659L281.759 82.231L292.613 67.196L303.466 82.231L292.613 97.2659Z" stroke="#FEFEFE" stroke-width="0.319444" stroke-miterlimit="10"/>
<path d="M333.163 154.155L322.159 169.596L311.004 185.038L292.613 210.434L274.373 185.038L263.218 169.596L252.063 154.155L281.76 113.114L292.613 128.149L303.467 113.114L333.163 154.155Z" stroke="#FEFEFE" stroke-width="0.319444" stroke-miterlimit="10"/>
<path d="M274.374 185.037L263.219 169.596L292.614 128.961L322.159 169.596L311.004 185.037L292.614 210.434L274.374 185.037Z" stroke="#FEFEFE" stroke-width="0.319444" stroke-miterlimit="10"/>
<path d="M292.614 210.434L274.374 185.037L292.614 159.641L311.004 185.037L292.614 210.434Z" stroke="#FEFEFE" stroke-width="0.319444" stroke-miterlimit="10"/>
<path d="M355.474 123.475L292.765 210.434L274.374 185.037L229.905 123.475L259.602 82.4339L270.756 66.9927L281.911 51.5514L292.765 36.5165L303.618 51.5514L314.773 66.9927L325.928 82.4339L355.474 123.475ZM270.756 97.672L281.911 113.113L292.765 128.148L303.618 113.113L314.773 97.672L303.618 82.2308L292.765 97.2657L281.911 82.2308L270.756 97.672Z" stroke="#FEFEFE" stroke-width="0.319444" stroke-miterlimit="10"/>
<path d="M355.473 41.189V123.475" stroke="#FEFEFE" stroke-width="0.319444" stroke-miterlimit="10"/>
<path d="M167.045 210.433V292.719" stroke="#FEFEFE" stroke-width="0.319444" stroke-miterlimit="10"/>
<path d="M292.613 210.433L262.917 251.474L251.913 266.915L240.758 251.474L229.905 266.509L219.051 251.474L207.896 266.915L196.892 251.474L167.045 210.433L178.2 194.992L189.355 179.55L200.51 164.312L211.514 148.871L229.905 123.474L248.295 148.871L259.299 164.312L292.613 210.433Z" stroke="#FEFEFE" stroke-width="0.319444" stroke-miterlimit="10"/>
<path d="M281.609 194.992L251.912 236.236L240.757 251.474L229.904 266.509L178.199 194.992L189.354 179.55L200.509 164.312L211.513 148.871L229.904 123.474L248.294 148.871L259.299 164.312L281.609 194.992Z" stroke="#FEFEFE" stroke-width="0.319444" stroke-miterlimit="10"/>
<path d="M219.052 220.795L189.355 179.55L200.51 164.312L211.515 148.871L229.905 123.474L248.296 148.871L259.3 164.312L270.455 179.55L240.759 220.795" stroke="#FEFEFE" stroke-width="0.319444" stroke-miterlimit="10"/>
<path d="M248.295 148.871L259.299 164.312L229.905 204.947L200.51 164.312L211.514 148.871L229.905 123.474L248.295 148.871Z" stroke="#FEFEFE" stroke-width="0.319444" stroke-miterlimit="10"/>
<path d="M229.904 123.474L248.295 148.871L229.904 174.268L211.514 148.871L229.904 123.474Z" stroke="#FEFEFE" stroke-width="0.319444" stroke-miterlimit="10"/>
<path d="M292.613 292.719L281.459 308.16L270.304 323.602L259.149 339.043L247.994 354.484L229.603 379.881L211.213 354.484L200.058 339.043L188.903 323.602L177.748 308.16L166.593 292.719L196.289 251.678L207.444 236.237L218.599 220.795L229.452 205.76L240.306 220.795L251.461 236.237L262.616 251.678L292.613 292.719ZM251.913 266.916L240.758 251.475L229.905 266.51L219.051 251.475L207.896 266.916L219.051 282.357L229.905 297.392L240.758 282.357L251.913 266.916Z" stroke="#FEFEFE" stroke-width="0.319444" stroke-miterlimit="10"/>
<path d="M281.609 307.957L270.454 323.399L259.299 338.84L248.144 354.281L229.754 379.678L211.363 354.281L200.208 338.84L189.053 323.399L177.898 307.957L207.595 266.916L218.75 282.357L229.603 297.392L240.457 282.357L251.611 266.916L281.609 307.957ZM229.905 266.51L219.051 251.475L229.905 236.44L240.758 251.475L229.905 266.51Z" stroke="#FEFEFE" stroke-width="0.319444" stroke-miterlimit="10"/>
<path d="M270.455 323.399L259.3 338.84L248.145 354.281L229.905 379.678L211.515 354.281L200.51 338.84L189.355 323.399L219.052 282.357L229.905 297.392L240.759 282.357L270.455 323.399Z" stroke="#FEFEFE" stroke-width="0.319444" stroke-miterlimit="10"/>
<path d="M211.514 354.28L200.51 338.839L229.905 298.001L259.299 338.839L248.144 354.28L229.905 379.474L211.514 354.28Z" stroke="#FEFEFE" stroke-width="0.319444" stroke-miterlimit="10"/>
<path d="M229.904 379.475L211.514 354.281L229.904 328.884L248.144 354.281L229.904 379.475Z" stroke="#FEFEFE" stroke-width="0.319444" stroke-miterlimit="10"/>
<path d="M292.613 292.719L229.905 379.678L211.514 354.281L167.045 292.719L196.741 251.678L207.896 236.237L219.051 220.795L229.905 205.76L240.758 220.795L251.913 236.237L263.068 251.678L292.613 292.719ZM207.896 266.916L219.051 282.357L229.905 297.392L240.758 282.357L251.913 266.916L240.758 251.475L229.905 266.51L219.051 251.475L207.896 266.916Z" stroke="#FEFEFE" stroke-width="0.319444" stroke-miterlimit="10"/>
<path d="M292.613 210.433V292.719" stroke="#FEFEFE" stroke-width="0.319444" stroke-miterlimit="10"/>
<path d="M292.613 210.433L262.917 251.474L251.913 266.915L240.758 251.474L229.905 266.509L219.051 251.474L207.896 266.915L196.892 251.474L167.045 210.433L178.2 194.992L189.355 179.55L200.51 164.312L211.514 148.871L229.905 123.474L248.295 148.871L259.299 164.312L292.613 210.433Z" stroke="#FEFEFE" stroke-width="0.319444" stroke-miterlimit="10"/>
<path d="M281.609 194.992L251.912 236.236L240.757 251.474L229.904 266.509L178.199 194.992L189.354 179.55L200.509 164.312L211.513 148.871L229.904 123.474L248.294 148.871L259.299 164.312L281.609 194.992Z" stroke="#FEFEFE" stroke-width="0.319444" stroke-miterlimit="10"/>
<path d="M219.052 220.795L189.355 179.55L200.51 164.312L211.515 148.871L229.905 123.474L248.296 148.871L259.3 164.312L270.455 179.55L240.759 220.795" stroke="#FEFEFE" stroke-width="0.319444" stroke-miterlimit="10"/>
<path d="M248.295 148.871L259.299 164.312L229.905 204.947L200.51 164.312L211.514 148.871L229.905 123.474L248.295 148.871Z" stroke="#FEFEFE" stroke-width="0.319444" stroke-miterlimit="10"/>
<path d="M229.904 123.474L248.295 148.871L229.904 174.268L211.514 148.871L229.904 123.474Z" stroke="#FEFEFE" stroke-width="0.319444" stroke-miterlimit="10"/>
<path d="M292.613 292.719L281.459 308.16L270.304 323.602L259.149 339.043L247.994 354.484L229.603 379.881L211.213 354.484L200.058 339.043L188.903 323.602L177.748 308.16L166.593 292.719L196.289 251.678L207.444 236.237L218.599 220.795L229.452 205.76L240.306 220.795L251.461 236.237L262.616 251.678L292.613 292.719ZM251.913 266.916L240.758 251.475L229.905 266.51L219.051 251.475L207.896 266.916L219.051 282.357L229.905 297.392L240.758 282.357L251.913 266.916Z" stroke="#FEFEFE" stroke-width="0.319444" stroke-miterlimit="10"/>
<path d="M281.609 307.957L270.454 323.399L259.299 338.84L248.144 354.281L229.754 379.678L211.363 354.281L200.208 338.84L189.053 323.399L177.898 307.957L207.595 266.916L218.75 282.357L229.603 297.392L240.457 282.357L251.611 266.916L281.609 307.957ZM229.905 266.51L219.051 251.475L229.905 236.44L240.758 251.475L229.905 266.51Z" stroke="#FEFEFE" stroke-width="0.319444" stroke-miterlimit="10"/>
<path d="M270.455 323.399L259.3 338.84L248.145 354.281L229.905 379.678L211.515 354.281L200.51 338.84L189.355 323.399L219.052 282.357L229.905 297.392L240.759 282.357L270.455 323.399Z" stroke="#FEFEFE" stroke-width="0.319444" stroke-miterlimit="10"/>
<path d="M211.514 354.28L200.51 338.839L229.905 298.001L259.299 338.839L248.144 354.28L229.905 379.474L211.514 354.28Z" stroke="#FEFEFE" stroke-width="0.319444" stroke-miterlimit="10"/>
<path d="M229.904 379.475L211.514 354.281L229.904 328.884L248.144 354.281L229.904 379.475Z" stroke="#FEFEFE" stroke-width="0.319444" stroke-miterlimit="10"/>
<path d="M292.613 292.719L229.905 379.678L211.514 354.281L167.045 292.719L196.741 251.678L207.896 236.237L219.051 220.795L229.905 205.76L240.758 220.795L251.913 236.237L263.068 251.678L292.613 292.719ZM207.896 266.916L219.051 282.357L229.905 297.392L240.758 282.357L251.913 266.916L240.758 251.475L229.905 266.51L219.051 251.475L207.896 266.916Z" stroke="#FEFEFE" stroke-width="0.319444" stroke-miterlimit="10"/>
<path d="M292.613 210.433V292.719" stroke="#FEFEFE" stroke-width="0.319444" stroke-miterlimit="10"/>
<path d="M355.473 41.1891V123.475" stroke="#FEFEFE" stroke-width="0.319444" stroke-miterlimit="10"/>
<path d="M481.041 41.1893L451.345 82.4338L440.19 97.6719L429.035 82.4338L418.182 97.2655L407.328 82.4338L396.324 97.6719L385.169 82.4338L355.473 41.1893L366.628 25.748L377.632 10.51L388.787 -4.93133L399.942 -20.3726L418.182 -45.7694L436.572 -20.3726L447.727 -4.93133L481.041 41.1893Z" stroke="#FEFEFE" stroke-width="0.319444" stroke-miterlimit="10"/>
<path d="M469.887 25.748L440.19 66.9925L429.035 82.4337L418.182 97.2655L366.628 25.748L377.632 10.5099L388.787 -4.93133L399.942 -20.3726L418.182 -45.7694L436.572 -20.3726L447.727 -4.93133L469.887 25.748Z" stroke="#FEFEFE" stroke-width="0.319444" stroke-miterlimit="10"/>
<path d="M407.479 51.5512H407.328L377.632 10.5099L388.787 -4.93133L399.942 -20.3726L418.182 -45.7694L436.572 -20.3726L447.727 -4.93133L458.731 10.5099L429.035 51.5512" stroke="#FEFEFE" stroke-width="0.319444" stroke-miterlimit="10"/>
<path d="M436.572 -20.3726L447.727 -4.93133L418.182 35.7036L388.787 -4.93133L399.942 -20.3726L418.182 -45.7694L436.572 -20.3726Z" stroke="#FEFEFE" stroke-width="0.319444" stroke-miterlimit="10"/>
<path d="M418.181 -45.7694L436.572 -20.3726L418.181 5.02421L399.941 -20.3726L418.181 -45.7694Z" stroke="#FEFEFE" stroke-width="0.319444" stroke-miterlimit="10"/>
<path d="M481.041 123.475L469.886 138.917L458.731 154.358L447.576 169.799L436.421 185.24L418.031 210.637L399.64 185.24L388.485 169.799L377.33 154.358L366.175 138.917L355.021 123.475L384.717 82.4341L395.872 66.9928L407.027 51.5516L417.88 36.5166L428.734 51.5516L439.888 66.9928L451.043 82.4341L481.041 123.475ZM440.19 97.6722L429.035 82.2309L418.182 97.2659L407.328 82.2309L396.173 97.6722L407.328 113.113L418.182 128.148L429.035 113.113L440.19 97.6722Z" stroke="#FEFEFE" stroke-width="0.319444" stroke-miterlimit="10"/>
<path d="M469.886 138.917L458.731 154.358L447.576 169.799L436.421 185.241L418.03 210.637L399.64 185.241L388.485 169.799L377.33 154.358L366.175 138.917L395.871 97.8754L407.026 113.317L417.879 128.352L428.733 113.317L439.888 97.8754L469.886 138.917ZM418.181 97.2659L407.328 82.231L418.181 67.196L429.034 82.231L418.181 97.2659Z" stroke="#FEFEFE" stroke-width="0.319444" stroke-miterlimit="10"/>
<path d="M458.731 154.155L447.727 169.597L436.572 185.038L418.182 210.435L399.942 185.038L388.787 169.597L377.632 154.155L407.328 113.114L418.182 128.149L429.035 113.114L458.731 154.155Z" stroke="#FEFEFE" stroke-width="0.319444" stroke-miterlimit="10"/>
<path d="M399.942 185.037L388.787 169.596L418.182 128.961L447.727 169.596L436.572 185.037L418.182 210.434L399.942 185.037Z" stroke="#FEFEFE" stroke-width="0.319444" stroke-miterlimit="10"/>
<path d="M418.181 210.434L399.941 185.038L418.181 159.641L436.572 185.038L418.181 210.434Z" stroke="#FEFEFE" stroke-width="0.319444" stroke-miterlimit="10"/>
<path d="M481.041 123.475L418.332 210.434L399.942 185.037L355.473 123.475L385.169 82.4341L396.324 66.9928L407.479 51.5516L418.332 36.5166L429.186 51.5516L440.341 66.9928L451.496 82.4341L481.041 123.475ZM396.324 97.6722L407.479 113.113L418.332 128.148L429.186 113.113L440.341 97.6722L429.186 82.2309L418.332 97.2658L407.479 82.2309L396.324 97.6722Z" stroke="#FEFEFE" stroke-width="0.319444" stroke-miterlimit="10"/>
<path d="M481.041 41.1893L451.345 82.4338L440.19 97.6719L429.035 82.4338L418.182 97.2655L407.328 82.4338L396.324 97.6719L385.169 82.4338L355.473 41.1893L366.628 25.748L377.632 10.51L388.787 -4.93133L399.942 -20.3726L418.182 -45.7694L436.572 -20.3726L447.727 -4.93133L481.041 41.1893Z" stroke="#FEFEFE" stroke-width="0.319444" stroke-miterlimit="10"/>
<path d="M469.887 25.748L440.19 66.9925L429.035 82.4337L418.182 97.2655L366.628 25.748L377.632 10.5099L388.787 -4.93133L399.942 -20.3726L418.182 -45.7694L436.572 -20.3726L447.727 -4.93133L469.887 25.748Z" stroke="#FEFEFE" stroke-width="0.319444" stroke-miterlimit="10"/>
<path d="M407.479 51.5512H407.328L377.632 10.5099L388.787 -4.93133L399.942 -20.3726L418.182 -45.7694L436.572 -20.3726L447.727 -4.93133L458.731 10.5099L429.035 51.5512" stroke="#FEFEFE" stroke-width="0.319444" stroke-miterlimit="10"/>
<path d="M436.572 -20.3726L447.727 -4.93133L418.182 35.7036L388.787 -4.93133L399.942 -20.3726L418.182 -45.7694L436.572 -20.3726Z" stroke="#FEFEFE" stroke-width="0.319444" stroke-miterlimit="10"/>
<path d="M418.181 -45.7694L436.572 -20.3726L418.181 5.02421L399.941 -20.3726L418.181 -45.7694Z" stroke="#FEFEFE" stroke-width="0.319444" stroke-miterlimit="10"/>
<path d="M481.041 123.475L469.886 138.917L458.731 154.358L447.576 169.799L436.421 185.24L418.031 210.637L399.64 185.24L388.485 169.799L377.33 154.358L366.175 138.917L355.021 123.475L384.717 82.4341L395.872 66.9928L407.027 51.5516L417.88 36.5166L428.734 51.5516L439.888 66.9928L451.043 82.4341L481.041 123.475ZM440.19 97.6722L429.035 82.2309L418.182 97.2659L407.328 82.2309L396.173 97.6722L407.328 113.113L418.182 128.148L429.035 113.113L440.19 97.6722Z" stroke="#FEFEFE" stroke-width="0.319444" stroke-miterlimit="10"/>
<path d="M469.886 138.917L458.731 154.358L447.576 169.799L436.421 185.241L418.03 210.637L399.64 185.241L388.485 169.799L377.33 154.358L366.175 138.917L395.871 97.8754L407.026 113.317L417.879 128.352L428.733 113.317L439.888 97.8754L469.886 138.917ZM418.181 97.2659L407.328 82.231L418.181 67.196L429.034 82.231L418.181 97.2659Z" stroke="#FEFEFE" stroke-width="0.319444" stroke-miterlimit="10"/>
<path d="M458.731 154.155L447.727 169.597L436.572 185.038L418.182 210.435L399.942 185.038L388.787 169.597L377.632 154.155L407.328 113.114L418.182 128.149L429.035 113.114L458.731 154.155Z" stroke="#FEFEFE" stroke-width="0.319444" stroke-miterlimit="10"/>
<path d="M399.942 185.037L388.787 169.596L418.182 128.961L447.727 169.596L436.572 185.037L418.182 210.434L399.942 185.037Z" stroke="#FEFEFE" stroke-width="0.319444" stroke-miterlimit="10"/>
<path d="M418.181 210.434L399.941 185.038L418.181 159.641L436.572 185.038L418.181 210.434Z" stroke="#FEFEFE" stroke-width="0.319444" stroke-miterlimit="10"/>
<path d="M481.041 123.475L418.332 210.434L399.942 185.037L355.473 123.475L385.169 82.4341L396.324 66.9928L407.479 51.5516L418.332 36.5166L429.186 51.5516L440.341 66.9928L451.496 82.4341L481.041 123.475ZM396.324 97.6722L407.479 113.113L418.332 128.148L429.186 113.113L440.341 97.6722L429.186 82.2309L418.332 97.2658L407.479 82.2309L396.324 97.6722Z" stroke="#FEFEFE" stroke-width="0.319444" stroke-miterlimit="10"/>
<path d="M292.614 210.433V292.719" stroke="#FEFEFE" stroke-width="0.319444" stroke-miterlimit="10"/>
<path d="M418.183 210.433L388.486 251.474L377.482 266.915L366.327 251.474L355.474 266.509L344.62 251.474L333.465 266.915L322.461 251.474L292.614 210.433L303.769 194.992L314.924 179.55L326.079 164.312L337.083 148.871L355.474 123.474L373.714 148.871L384.869 164.312L418.183 210.433Z" stroke="#FEFEFE" stroke-width="0.319444" stroke-miterlimit="10"/>
<path d="M407.179 194.992L377.483 236.236L366.328 251.474L355.474 266.509L303.77 194.992L314.924 179.55L326.079 164.312L337.084 148.871L355.474 123.474L373.714 148.871L384.869 164.312L407.179 194.992Z" stroke="#FEFEFE" stroke-width="0.319444" stroke-miterlimit="10"/>
<path d="M344.621 220.795L314.925 179.55L326.08 164.312L337.084 148.871L355.475 123.474L373.714 148.871L384.869 164.312L396.024 179.55L366.328 220.795" stroke="#FEFEFE" stroke-width="0.319444" stroke-miterlimit="10"/>
<path d="M373.714 148.871L384.869 164.312L355.474 204.947L326.079 164.312L337.083 148.871L355.474 123.474L373.714 148.871Z" stroke="#FEFEFE" stroke-width="0.319444" stroke-miterlimit="10"/>
<path d="M355.474 123.474L373.713 148.871L355.474 174.268L337.083 148.871L355.474 123.474Z" stroke="#FEFEFE" stroke-width="0.319444" stroke-miterlimit="10"/>
<path d="M418.183 292.719L407.028 308.16L395.873 323.602L384.718 339.043L373.563 354.484L355.172 379.881L336.782 354.484L325.627 339.043L314.472 323.602L303.317 308.16L292.162 292.719L321.858 251.678L333.013 236.237L344.168 220.795L355.022 205.76L365.875 220.795L377.03 236.237L388.185 251.678L418.183 292.719ZM377.482 266.916L366.327 251.475L355.474 266.51L344.621 251.475L333.466 266.916L344.621 282.357L355.474 297.392L366.327 282.357L377.482 266.916Z" stroke="#FEFEFE" stroke-width="0.319444" stroke-miterlimit="10"/>
<path d="M407.179 307.957L396.024 323.399L384.869 338.84L373.714 354.281L355.323 379.678L336.933 354.281L325.778 338.84L314.623 323.399L303.468 307.957L333.164 266.916L344.319 282.357L355.172 297.392L366.026 282.357L377.181 266.916L407.179 307.957ZM355.474 266.51L344.62 251.475L355.474 236.44L366.327 251.475L355.474 266.51Z" stroke="#FEFEFE" stroke-width="0.319444" stroke-miterlimit="10"/>
<path d="M396.024 323.399L384.869 338.84L373.714 354.281L355.475 379.678L337.084 354.281L326.08 338.84L314.925 323.399L344.621 282.357L355.475 297.392L366.328 282.357L396.024 323.399Z" stroke="#FEFEFE" stroke-width="0.319444" stroke-miterlimit="10"/>
<path d="M337.083 354.28L326.079 338.839L355.474 298.001L384.869 338.839L373.714 354.28L355.474 379.474L337.083 354.28Z" stroke="#FEFEFE" stroke-width="0.319444" stroke-miterlimit="10"/>
<path d="M355.474 379.475L337.083 354.281L355.474 328.884L373.713 354.281L355.474 379.475Z" stroke="#FEFEFE" stroke-width="0.319444" stroke-miterlimit="10"/>
<path d="M418.183 292.719L355.474 379.678L337.083 354.281L292.614 292.719L322.31 251.678L333.465 236.237L344.62 220.795L355.474 205.76L366.327 220.795L377.482 236.237L388.637 251.678L418.183 292.719ZM333.465 266.916L344.62 282.357L355.474 297.392L366.327 282.357L377.482 266.916L366.327 251.475L355.474 266.51L344.62 251.475L333.465 266.916Z" stroke="#FEFEFE" stroke-width="0.319444" stroke-miterlimit="10"/>
<path d="M418.183 210.433V292.719" stroke="#FEFEFE" stroke-width="0.319444" stroke-miterlimit="10"/>
<path d="M418.183 210.433L388.486 251.474L377.482 266.915L366.327 251.474L355.474 266.509L344.62 251.474L333.465 266.915L322.461 251.474L292.614 210.433L303.769 194.992L314.924 179.55L326.079 164.312L337.083 148.871L355.474 123.474L373.714 148.871L384.869 164.312L418.183 210.433Z" stroke="#FEFEFE" stroke-width="0.319444" stroke-miterlimit="10"/>
<path d="M407.179 194.992L377.483 236.236L366.328 251.474L355.474 266.509L303.77 194.992L314.924 179.55L326.079 164.312L337.084 148.871L355.474 123.474L373.714 148.871L384.869 164.312L407.179 194.992Z" stroke="#FEFEFE" stroke-width="0.319444" stroke-miterlimit="10"/>
<path d="M344.621 220.795L314.925 179.55L326.08 164.312L337.084 148.871L355.475 123.474L373.714 148.871L384.869 164.312L396.024 179.55L366.328 220.795" stroke="#FEFEFE" stroke-width="0.319444" stroke-miterlimit="10"/>
<path d="M373.714 148.871L384.869 164.312L355.474 204.947L326.079 164.312L337.083 148.871L355.474 123.474L373.714 148.871Z" stroke="#FEFEFE" stroke-width="0.319444" stroke-miterlimit="10"/>
<path d="M355.474 123.474L373.713 148.871L355.474 174.268L337.083 148.871L355.474 123.474Z" stroke="#FEFEFE" stroke-width="0.319444" stroke-miterlimit="10"/>
<path d="M418.183 292.719L407.028 308.16L395.873 323.602L384.718 339.043L373.563 354.484L355.172 379.881L336.782 354.484L325.627 339.043L314.472 323.602L303.317 308.16L292.162 292.719L321.858 251.678L333.013 236.237L344.168 220.795L355.022 205.76L365.875 220.795L377.03 236.237L388.185 251.678L418.183 292.719ZM377.482 266.916L366.327 251.475L355.474 266.51L344.621 251.475L333.466 266.916L344.621 282.357L355.474 297.392L366.327 282.357L377.482 266.916Z" stroke="#FEFEFE" stroke-width="0.319444" stroke-miterlimit="10"/>
<path d="M407.179 307.957L396.024 323.399L384.869 338.84L373.714 354.281L355.323 379.678L336.933 354.281L325.778 338.84L314.623 323.399L303.468 307.957L333.164 266.916L344.319 282.357L355.172 297.392L366.026 282.357L377.181 266.916L407.179 307.957ZM355.474 266.51L344.62 251.475L355.474 236.44L366.327 251.475L355.474 266.51Z" stroke="#FEFEFE" stroke-width="0.319444" stroke-miterlimit="10"/>
<path d="M396.024 323.399L384.869 338.84L373.714 354.281L355.475 379.678L337.084 354.281L326.08 338.84L314.925 323.399L344.621 282.357L355.475 297.392L366.328 282.357L396.024 323.399Z" stroke="#FEFEFE" stroke-width="0.319444" stroke-miterlimit="10"/>
<path d="M337.083 354.28L326.079 338.839L355.474 298.001L384.869 338.839L373.714 354.28L355.474 379.474L337.083 354.28Z" stroke="#FEFEFE" stroke-width="0.319444" stroke-miterlimit="10"/>
<path d="M355.474 379.475L337.083 354.281L355.474 328.884L373.713 354.281L355.474 379.475Z" stroke="#FEFEFE" stroke-width="0.319444" stroke-miterlimit="10"/>
<path d="M418.183 292.719L355.474 379.678L337.083 354.281L292.614 292.719L322.31 251.678L333.465 236.237L344.62 220.795L355.474 205.76L366.327 220.795L377.482 236.237L388.637 251.678L418.183 292.719ZM333.465 266.916L344.62 282.357L355.474 297.392L366.327 282.357L377.482 266.916L366.327 251.475L355.474 266.51L344.62 251.475L333.465 266.916Z" stroke="#FEFEFE" stroke-width="0.319444" stroke-miterlimit="10"/>
<path d="M418.183 210.433V292.719" stroke="#FEFEFE" stroke-width="0.319444" stroke-miterlimit="10"/>
<path d="M418.183 210.433V292.719" stroke="#FEFEFE" stroke-width="0.319444" stroke-miterlimit="10"/>
<path d="M543.751 210.433L514.055 251.474L503.051 266.915L491.896 251.474L481.042 266.509L470.189 251.474L459.034 266.915L448.03 251.474L418.183 210.433L429.338 194.992L440.493 179.55L451.647 164.312L462.652 148.871L481.042 123.474L499.282 148.871L510.437 164.312L543.751 210.433Z" stroke="#FEFEFE" stroke-width="0.319444" stroke-miterlimit="10"/>
<path d="M532.747 194.992L503.051 236.236H502.9L491.896 251.474L481.043 266.509L429.338 194.992L440.493 179.55L451.648 164.312L462.652 148.871L481.043 123.474L499.282 148.871L510.437 164.312L532.747 194.992Z" stroke="#FEFEFE" stroke-width="0.319444" stroke-miterlimit="10"/>
<path d="M470.189 220.795L440.493 179.55L451.648 164.312L462.652 148.871L481.043 123.474L499.283 148.871L510.438 164.312L521.593 179.55L491.896 220.795" stroke="#FEFEFE" stroke-width="0.319444" stroke-miterlimit="10"/>
<path d="M499.282 148.871L510.437 164.312L481.042 204.947L451.647 164.312L462.652 148.871L481.042 123.474L499.282 148.871Z" stroke="#FEFEFE" stroke-width="0.319444" stroke-miterlimit="10"/>
<path d="M543.751 292.719L532.596 308.16L521.441 323.602L510.286 339.043L499.131 354.484L480.741 379.881L462.35 354.484L451.195 339.043L440.04 323.602L428.885 308.16L417.73 292.719L447.427 251.678L458.582 236.237L469.737 220.795L480.59 205.76L491.444 220.795L502.598 236.237L513.753 251.678L543.751 292.719ZM503.051 266.916L491.896 251.475L481.042 266.51L470.189 251.475L459.034 266.916L470.189 282.357L481.042 297.392L491.896 282.357L503.051 266.916Z" stroke="#FEFEFE" stroke-width="0.319444" stroke-miterlimit="10"/>
<path d="M532.747 307.957L521.592 323.399L510.437 338.84L499.282 354.281L480.892 379.678L462.501 354.281L451.346 338.84L440.191 323.399L429.036 307.957L458.732 266.916L469.887 282.357L480.741 297.392L491.594 282.357L502.749 266.916L532.747 307.957ZM481.042 266.51L470.189 251.475L481.042 236.44L491.896 251.475L481.042 266.51Z" stroke="#FEFEFE" stroke-width="0.319444" stroke-miterlimit="10"/>
<path d="M521.593 323.399L510.438 338.84L499.283 354.281L481.043 379.678L462.652 354.281L451.648 338.84L440.493 323.399L470.189 282.357L481.043 297.392L491.896 282.357L521.593 323.399Z" stroke="#FEFEFE" stroke-width="0.319444" stroke-miterlimit="10"/>
<path d="M462.652 354.28L451.647 338.839L481.042 298.001L510.437 338.839L499.282 354.28L481.042 379.474L462.652 354.28Z" stroke="#FEFEFE" stroke-width="0.319444" stroke-miterlimit="10"/>
<path d="M543.751 292.719L481.042 379.678L462.652 354.281L418.183 292.719L447.879 251.678L459.034 236.237L470.189 220.795L481.042 205.76L491.896 220.795L503.051 236.237L514.206 251.678L543.751 292.719ZM459.034 266.916L470.189 282.357L481.042 297.392L491.896 282.357L503.051 266.916L491.896 251.475L481.042 266.51L470.189 251.475L459.034 266.916Z" stroke="#FEFEFE" stroke-width="0.319444" stroke-miterlimit="10"/>
<path d="M543.751 210.433L514.055 251.474L503.051 266.915L491.896 251.474L481.042 266.509L470.189 251.474L459.034 266.915L448.03 251.474L418.183 210.433L429.338 194.992L440.493 179.55L451.647 164.312L462.652 148.871L481.042 123.474L499.282 148.871L510.437 164.312L543.751 210.433Z" stroke="#FEFEFE" stroke-width="0.319444" stroke-miterlimit="10"/>
<path d="M532.747 194.992L503.051 236.236H502.9L491.896 251.474L481.043 266.509L429.338 194.992L440.493 179.55L451.648 164.312L462.652 148.871L481.043 123.474L499.282 148.871L510.437 164.312L532.747 194.992Z" stroke="#FEFEFE" stroke-width="0.319444" stroke-miterlimit="10"/>
<path d="M470.189 220.795L440.493 179.55L451.648 164.312L462.652 148.871L481.043 123.474L499.283 148.871L510.438 164.312L521.593 179.55L491.896 220.795" stroke="#FEFEFE" stroke-width="0.319444" stroke-miterlimit="10"/>
<path d="M499.282 148.871L510.437 164.312L481.042 204.947L451.647 164.312L462.652 148.871L481.042 123.474L499.282 148.871Z" stroke="#FEFEFE" stroke-width="0.319444" stroke-miterlimit="10"/>
<path d="M543.751 292.719L532.596 308.16L521.441 323.602L510.286 339.043L499.131 354.484L480.741 379.881L462.35 354.484L451.195 339.043L440.04 323.602L428.885 308.16L417.73 292.719L447.427 251.678L458.582 236.237L469.737 220.795L480.59 205.76L491.444 220.795L502.598 236.237L513.753 251.678L543.751 292.719ZM503.051 266.916L491.896 251.475L481.042 266.51L470.189 251.475L459.034 266.916L470.189 282.357L481.042 297.392L491.896 282.357L503.051 266.916Z" stroke="#FEFEFE" stroke-width="0.319444" stroke-miterlimit="10"/>
<path d="M532.747 307.957L521.592 323.399L510.437 338.84L499.282 354.281L480.892 379.678L462.501 354.281L451.346 338.84L440.191 323.399L429.036 307.957L458.732 266.916L469.887 282.357L480.741 297.392L491.594 282.357L502.749 266.916L532.747 307.957ZM481.042 266.51L470.189 251.475L481.042 236.44L491.896 251.475L481.042 266.51Z" stroke="#FEFEFE" stroke-width="0.319444" stroke-miterlimit="10"/>
<path d="M521.593 323.399L510.438 338.84L499.283 354.281L481.043 379.678L462.652 354.281L451.648 338.84L440.493 323.399L470.189 282.357L481.043 297.392L491.896 282.357L521.593 323.399Z" stroke="#FEFEFE" stroke-width="0.319444" stroke-miterlimit="10"/>
<path d="M462.652 354.28L451.647 338.839L481.042 298.001L510.437 338.839L499.282 354.28L481.042 379.474L462.652 354.28Z" stroke="#FEFEFE" stroke-width="0.319444" stroke-miterlimit="10"/>
<path d="M543.751 292.719L481.042 379.678L462.652 354.281L418.183 292.719L447.879 251.678L459.034 236.237L470.189 220.795L481.042 205.76L491.896 220.795L503.051 236.237L514.206 251.678L543.751 292.719ZM459.034 266.916L470.189 282.357L481.042 297.392L491.896 282.357L503.051 266.916L491.896 251.475L481.042 266.51L470.189 251.475L459.034 266.916Z" stroke="#FEFEFE" stroke-width="0.319444" stroke-miterlimit="10"/>
<path d="M104.336 379.679L74.6398 420.72L63.4849 436.161L52.3299 420.72L41.4764 435.755L30.7737 420.72L19.6188 436.161L8.46386 420.72L-21.2324 379.679L-10.0775 364.237L1.07746 348.796L12.0817 333.355L23.2366 318.117L41.4764 292.72L59.867 318.117L71.022 333.355L104.336 379.679Z" stroke="#FEFEFE" stroke-width="0.319444" stroke-miterlimit="10"/>
<path d="M93.1814 364.237L63.4852 405.279L52.3302 420.72L41.4768 435.755L-10.0771 364.237L1.07778 348.796L12.082 333.355L23.2369 318.117L41.4768 292.72L59.8673 318.117L71.0223 333.355L93.1814 364.237Z" stroke="#FEFEFE" stroke-width="0.319444" stroke-miterlimit="10"/>
<path d="M30.7744 390.041V389.837L1.07812 348.796L12.0823 333.355L23.2373 318.117L41.4771 292.72L59.8677 318.117L71.0226 333.355L82.0268 348.796L52.3306 390.041" stroke="#FEFEFE" stroke-width="0.319444" stroke-miterlimit="10"/>
<path d="M59.8674 318.117L71.0223 333.355L41.4768 374.193L12.082 333.355L23.237 318.117L41.4768 292.72L59.8674 318.117Z" stroke="#FEFEFE" stroke-width="0.319444" stroke-miterlimit="10"/>
<path d="M41.4762 292.72L59.8667 318.117L41.4762 343.31L23.2363 318.117L41.4762 292.72Z" stroke="#FEFEFE" stroke-width="0.319444" stroke-miterlimit="10"/>
<path d="M104.336 461.761L93.1811 477.202L82.0262 492.643L70.8713 508.085L59.7164 523.526L41.3258 548.923L22.9352 523.526L11.7802 508.085L0.625293 492.643L-10.5296 477.202L-21.6846 461.761L8.01169 420.719L19.1666 405.278L30.3216 389.837L41.175 374.802L52.0285 389.837L63.1834 405.278L74.3384 420.719L104.336 461.761ZM63.4849 436.161L52.33 420.719L41.4765 435.754L30.6231 420.719L19.6189 436.161L30.7738 451.602L41.6273 466.637L52.4807 451.602L63.4849 436.161Z" stroke="#FEFEFE" stroke-width="0.319444" stroke-miterlimit="10"/>
<path d="M104.336 461.761L41.6272 548.72L23.2366 523.323L-21.2324 461.761L8.46386 420.719L19.6188 405.278L30.7737 389.837L41.6272 374.802L52.4806 389.837L63.6356 405.278L74.7905 420.719L104.336 461.761ZM19.6188 436.161L30.7737 451.602L41.6272 466.637L52.4806 451.602L63.6356 436.161L52.4806 420.719L41.6272 435.754L30.7737 420.719L19.6188 436.161Z" stroke="#FEFEFE" stroke-width="0.319444" stroke-miterlimit="10"/>
<path d="M104.336 379.678V461.761" stroke="#FEFEFE" stroke-width="0.319444" stroke-miterlimit="10"/>
<path d="M104.336 379.679L74.6398 420.72L63.4849 436.161L52.3299 420.72L41.4764 435.755L30.7737 420.72L19.6188 436.161L8.46386 420.72L-21.2324 379.679L-10.0775 364.237L1.07746 348.796L12.0817 333.355L23.2366 318.117L41.4764 292.72L59.867 318.117L71.022 333.355L104.336 379.679Z" stroke="#FEFEFE" stroke-width="0.319444" stroke-miterlimit="10"/>
<path d="M93.1814 364.237L63.4852 405.279L52.3302 420.72L41.4768 435.755L-10.0771 364.237L1.07778 348.796L12.082 333.355L23.2369 318.117L41.4768 292.72L59.8673 318.117L71.0223 333.355L93.1814 364.237Z" stroke="#FEFEFE" stroke-width="0.319444" stroke-miterlimit="10"/>
<path d="M30.7744 390.041V389.837L1.07812 348.796L12.0823 333.355L23.2373 318.117L41.4771 292.72L59.8677 318.117L71.0226 333.355L82.0268 348.796L52.3306 390.041" stroke="#FEFEFE" stroke-width="0.319444" stroke-miterlimit="10"/>
<path d="M59.8674 318.117L71.0223 333.355L41.4768 374.193L12.082 333.355L23.237 318.117L41.4768 292.72L59.8674 318.117Z" stroke="#FEFEFE" stroke-width="0.319444" stroke-miterlimit="10"/>
<path d="M41.4762 292.72L59.8667 318.117L41.4762 343.31L23.2363 318.117L41.4762 292.72Z" stroke="#FEFEFE" stroke-width="0.319444" stroke-miterlimit="10"/>
<path d="M104.336 461.761L93.1811 477.202L82.0262 492.643L70.8713 508.085L59.7164 523.526L41.3258 548.923L22.9352 523.526L11.7802 508.085L0.625293 492.643L-10.5296 477.202L-21.6846 461.761L8.01169 420.719L19.1666 405.278L30.3216 389.837L41.175 374.802L52.0285 389.837L63.1834 405.278L74.3384 420.719L104.336 461.761ZM63.4849 436.161L52.33 420.719L41.4765 435.754L30.6231 420.719L19.6189 436.161L30.7738 451.602L41.6273 466.637L52.4807 451.602L63.4849 436.161Z" stroke="#FEFEFE" stroke-width="0.319444" stroke-miterlimit="10"/>
<path d="M104.336 461.761L41.6272 548.72L23.2366 523.323L-21.2324 461.761L8.46386 420.719L19.6188 405.278L30.7737 389.837L41.6272 374.802L52.4806 389.837L63.6356 405.278L74.7905 420.719L104.336 461.761ZM19.6188 436.161L30.7737 451.602L41.6272 466.637L52.4806 451.602L63.6356 436.161L52.4806 420.719L41.6272 435.754L30.7737 420.719L19.6188 436.161Z" stroke="#FEFEFE" stroke-width="0.319444" stroke-miterlimit="10"/>
<path d="M104.336 379.678V461.761" stroke="#FEFEFE" stroke-width="0.319444" stroke-miterlimit="10"/>
<path d="M104.336 379.678V461.761" stroke="#FEFEFE" stroke-width="0.319444" stroke-miterlimit="10"/>
<path d="M229.904 379.679L200.208 420.72L189.053 436.161L177.898 420.72L167.045 435.755L156.342 420.72L145.187 436.161L134.032 420.72L104.336 379.679L115.491 364.237L126.495 348.796L137.65 333.355L148.805 318.117L167.045 292.72L185.435 318.117L196.59 333.355L229.904 379.679Z" stroke="#FEFEFE" stroke-width="0.319444" stroke-miterlimit="10"/>
<path d="M218.749 364.237L189.053 405.279L177.898 420.72L167.044 435.755L115.49 364.237L126.494 348.796L137.649 333.355L148.804 318.117L167.044 292.72L185.435 318.117L196.59 333.355L218.749 364.237Z" stroke="#FEFEFE" stroke-width="0.319444" stroke-miterlimit="10"/>
<path d="M156.342 390.041V389.837L126.495 348.796L137.65 333.355L148.805 318.117L167.045 292.72L185.435 318.117L196.59 333.355L207.595 348.796L177.898 390.041" stroke="#FEFEFE" stroke-width="0.319444" stroke-miterlimit="10"/>
<path d="M185.436 318.117L196.591 333.355L167.045 374.193L137.65 333.355L148.805 318.117L167.045 292.72L185.436 318.117Z" stroke="#FEFEFE" stroke-width="0.319444" stroke-miterlimit="10"/>
<path d="M167.044 292.72L185.435 318.117L167.044 343.31L148.805 318.117L167.044 292.72Z" stroke="#FEFEFE" stroke-width="0.319444" stroke-miterlimit="10"/>
<path d="M229.904 461.761L218.75 477.202L207.595 492.643L196.44 508.085L185.285 523.526L166.894 548.923L148.504 523.526L137.349 508.085L126.194 492.643L115.039 477.202L103.884 461.761L133.58 420.719L144.735 405.278L155.89 389.837L166.743 374.802L177.597 389.837L188.752 405.278L199.907 420.719L229.904 461.761ZM189.053 436.161L177.898 420.719L167.045 435.754L156.191 420.719L145.037 436.161L156.191 451.602L167.045 466.637L177.898 451.602L189.053 436.161Z" stroke="#FEFEFE" stroke-width="0.319444" stroke-miterlimit="10"/>
<path d="M229.904 461.761L167.196 548.72L148.805 523.323L104.336 461.761L134.032 420.719L145.187 405.278L156.342 389.837L167.196 374.802L178.049 389.837L189.204 405.278L200.359 420.719L229.904 461.761ZM145.187 436.161L156.342 451.602L167.196 466.637L178.049 451.602L189.204 436.161L178.049 420.719L167.196 435.754L156.342 420.719L145.187 436.161Z" stroke="#FEFEFE" stroke-width="0.319444" stroke-miterlimit="10"/>
<path d="M229.904 379.678V461.761" stroke="#FEFEFE" stroke-width="0.319444" stroke-miterlimit="10"/>
<path d="M229.904 379.679L200.208 420.72L189.053 436.161L177.898 420.72L167.045 435.755L156.342 420.72L145.187 436.161L134.032 420.72L104.336 379.679L115.491 364.237L126.495 348.796L137.65 333.355L148.805 318.117L167.045 292.72L185.435 318.117L196.59 333.355L229.904 379.679Z" stroke="#FEFEFE" stroke-width="0.319444" stroke-miterlimit="10"/>
<path d="M218.749 364.237L189.053 405.279L177.898 420.72L167.044 435.755L115.49 364.237L126.494 348.796L137.649 333.355L148.804 318.117L167.044 292.72L185.435 318.117L196.59 333.355L218.749 364.237Z" stroke="#FEFEFE" stroke-width="0.319444" stroke-miterlimit="10"/>
<path d="M156.342 390.041V389.837L126.495 348.796L137.65 333.355L148.805 318.117L167.045 292.72L185.435 318.117L196.59 333.355L207.595 348.796L177.898 390.041" stroke="#FEFEFE" stroke-width="0.319444" stroke-miterlimit="10"/>
<path d="M185.436 318.117L196.591 333.355L167.045 374.193L137.65 333.355L148.805 318.117L167.045 292.72L185.436 318.117Z" stroke="#FEFEFE" stroke-width="0.319444" stroke-miterlimit="10"/>
<path d="M167.044 292.72L185.435 318.117L167.044 343.31L148.805 318.117L167.044 292.72Z" stroke="#FEFEFE" stroke-width="0.319444" stroke-miterlimit="10"/>
<path d="M229.904 461.761L218.75 477.202L207.595 492.643L196.44 508.085L185.285 523.526L166.894 548.923L148.504 523.526L137.349 508.085L126.194 492.643L115.039 477.202L103.884 461.761L133.58 420.719L144.735 405.278L155.89 389.837L166.743 374.802L177.597 389.837L188.752 405.278L199.907 420.719L229.904 461.761ZM189.053 436.161L177.898 420.719L167.045 435.754L156.191 420.719L145.037 436.161L156.191 451.602L167.045 466.637L177.898 451.602L189.053 436.161Z" stroke="#FEFEFE" stroke-width="0.319444" stroke-miterlimit="10"/>
<path d="M229.904 461.761L167.196 548.72L148.805 523.323L104.336 461.761L134.032 420.719L145.187 405.278L156.342 389.837L167.196 374.802L178.049 389.837L189.204 405.278L200.359 420.719L229.904 461.761ZM145.187 436.161L156.342 451.602L167.196 466.637L178.049 451.602L189.204 436.161L178.049 420.719L167.196 435.754L156.342 420.719L145.187 436.161Z" stroke="#FEFEFE" stroke-width="0.319444" stroke-miterlimit="10"/>
<path d="M229.904 379.678V461.761" stroke="#FEFEFE" stroke-width="0.319444" stroke-miterlimit="10"/>
<path d="M229.905 379.678V461.761" stroke="#FEFEFE" stroke-width="0.319444" stroke-miterlimit="10"/>
<path d="M355.474 379.679L325.777 420.72L314.623 436.161L303.468 420.72L292.614 435.755L281.761 420.72L270.756 436.161L259.602 420.72L229.905 379.679L241.06 364.237L252.064 348.796L263.219 333.355L274.374 318.117L292.614 292.72L311.005 318.117L322.16 333.355L355.474 379.679Z" stroke="#FEFEFE" stroke-width="0.319444" stroke-miterlimit="10"/>
<path d="M344.318 364.237L314.622 405.279L303.467 420.72L292.614 435.755L241.06 364.237L252.064 348.796L263.219 333.355L274.374 318.117L292.614 292.72L311.004 318.117L322.159 333.355L344.318 364.237Z" stroke="#FEFEFE" stroke-width="0.319444" stroke-miterlimit="10"/>
<path d="M281.91 390.041L281.76 389.837L252.063 348.796L263.218 333.355L274.373 318.117L292.613 292.72L311.004 318.117L322.159 333.355L333.163 348.796L303.467 390.041" stroke="#FEFEFE" stroke-width="0.319444" stroke-miterlimit="10"/>
<path d="M311.004 318.117L322.159 333.355L292.614 374.193L263.219 333.355L274.374 318.117L292.614 292.72L311.004 318.117Z" stroke="#FEFEFE" stroke-width="0.319444" stroke-miterlimit="10"/>
<path d="M292.614 292.72L311.004 318.117L292.614 343.31L274.374 318.117L292.614 292.72Z" stroke="#FEFEFE" stroke-width="0.319444" stroke-miterlimit="10"/>
<path d="M355.473 461.761L344.318 477.202L333.163 492.643L322.008 508.084L310.853 523.526L292.463 548.923L274.374 523.323L263.219 507.881L252.064 492.44L240.909 476.999L229.754 461.557L259.45 420.516L270.605 405.075L281.76 389.634L292.614 374.599L303.467 389.634L314.622 405.075L325.777 420.516L355.473 461.761ZM314.622 436.161L303.467 420.719L292.614 435.754L281.76 420.719L270.605 436.161L281.76 451.602L292.614 466.637L303.467 451.602L314.622 436.161Z" stroke="#FEFEFE" stroke-width="0.319444" stroke-miterlimit="10"/>
<path d="M355.474 461.761L292.765 548.72L274.374 523.323L229.905 461.761L259.602 420.719L270.756 405.278L281.911 389.837L292.765 374.802L303.618 389.837L314.773 405.278L325.928 420.719L355.474 461.761ZM270.756 436.161L281.911 451.602L292.765 466.637L303.618 451.602L314.773 436.161L303.618 420.719L292.765 435.754L281.911 420.719L270.756 436.161Z" stroke="#FEFEFE" stroke-width="0.319444" stroke-miterlimit="10"/>
<path d="M355.473 379.678V461.761" stroke="#FEFEFE" stroke-width="0.319444" stroke-miterlimit="10"/>
<path d="M355.474 379.679L325.777 420.72L314.623 436.161L303.468 420.72L292.614 435.755L281.761 420.72L270.756 436.161L259.602 420.72L229.905 379.679L241.06 364.237L252.064 348.796L263.219 333.355L274.374 318.117L292.614 292.72L311.005 318.117L322.16 333.355L355.474 379.679Z" stroke="#FEFEFE" stroke-width="0.319444" stroke-miterlimit="10"/>
<path d="M344.318 364.237L314.622 405.279L303.467 420.72L292.614 435.755L241.06 364.237L252.064 348.796L263.219 333.355L274.374 318.117L292.614 292.72L311.004 318.117L322.159 333.355L344.318 364.237Z" stroke="#FEFEFE" stroke-width="0.319444" stroke-miterlimit="10"/>
<path d="M281.91 390.041L281.76 389.837L252.063 348.796L263.218 333.355L274.373 318.117L292.613 292.72L311.004 318.117L322.159 333.355L333.163 348.796L303.467 390.041" stroke="#FEFEFE" stroke-width="0.319444" stroke-miterlimit="10"/>
<path d="M311.004 318.117L322.159 333.355L292.614 374.193L263.219 333.355L274.374 318.117L292.614 292.72L311.004 318.117Z" stroke="#FEFEFE" stroke-width="0.319444" stroke-miterlimit="10"/>
<path d="M292.614 292.72L311.004 318.117L292.614 343.31L274.374 318.117L292.614 292.72Z" stroke="#FEFEFE" stroke-width="0.319444" stroke-miterlimit="10"/>
<path d="M355.473 461.761L344.318 477.202L333.163 492.643L322.008 508.084L310.853 523.526L292.463 548.923L274.374 523.323L263.219 507.881L252.064 492.44L240.909 476.999L229.754 461.557L259.45 420.516L270.605 405.075L281.76 389.634L292.614 374.599L303.467 389.634L314.622 405.075L325.777 420.516L355.473 461.761ZM314.622 436.161L303.467 420.719L292.614 435.754L281.76 420.719L270.605 436.161L281.76 451.602L292.614 466.637L303.467 451.602L314.622 436.161Z" stroke="#FEFEFE" stroke-width="0.319444" stroke-miterlimit="10"/>
<path d="M355.474 461.761L292.765 548.72L274.374 523.323L229.905 461.761L259.602 420.719L270.756 405.278L281.911 389.837L292.765 374.802L303.618 389.837L314.773 405.278L325.928 420.719L355.474 461.761ZM270.756 436.161L281.911 451.602L292.765 466.637L303.618 451.602L314.773 436.161L303.618 420.719L292.765 435.754L281.911 420.719L270.756 436.161Z" stroke="#FEFEFE" stroke-width="0.319444" stroke-miterlimit="10"/>
<path d="M355.473 379.678V461.761" stroke="#FEFEFE" stroke-width="0.319444" stroke-miterlimit="10"/>
<path d="M355.473 379.678V461.761" stroke="#FEFEFE" stroke-width="0.319444" stroke-miterlimit="10"/>
<path d="M481.041 379.679L451.345 420.72L440.19 436.161L429.035 420.72L418.182 435.755L407.328 420.72L396.324 436.161L385.169 420.72L355.473 379.679L366.628 364.237L377.632 348.796L388.787 333.355L399.942 318.117L418.182 292.72L436.572 318.117L447.727 333.355L481.041 379.679Z" stroke="#FEFEFE" stroke-width="0.319444" stroke-miterlimit="10"/>
<path d="M469.887 364.237L440.19 405.279L429.035 420.72L418.182 435.755L366.628 364.237L377.632 348.796L388.787 333.355L399.942 318.117L418.182 292.72L436.572 318.117L447.727 333.355L469.887 364.237Z" stroke="#FEFEFE" stroke-width="0.319444" stroke-miterlimit="10"/>
<path d="M407.479 390.041L407.328 389.837L377.632 348.796L388.787 333.355L399.942 318.117L418.182 292.72L436.572 318.117L447.727 333.355L458.731 348.796L429.035 390.041" stroke="#FEFEFE" stroke-width="0.319444" stroke-miterlimit="10"/>
<path d="M436.572 318.117L447.727 333.355L418.182 374.193L388.787 333.355L399.942 318.117L418.182 292.72L436.572 318.117Z" stroke="#FEFEFE" stroke-width="0.319444" stroke-miterlimit="10"/>
<path d="M418.181 292.72L436.572 318.117L418.181 343.31L399.941 318.117L418.181 292.72Z" stroke="#FEFEFE" stroke-width="0.319444" stroke-miterlimit="10"/>
<path d="M481.041 461.761L469.886 477.202L458.731 492.643L447.576 508.085L436.421 523.526L418.031 548.923L399.64 523.526L388.485 508.085L377.33 492.643L366.175 477.202L355.021 461.761L384.717 420.719L395.872 405.278L407.027 389.837L417.88 374.802L428.734 389.837L439.888 405.278L451.043 420.719L481.041 461.761ZM440.19 436.161L429.035 420.719L418.182 435.754L407.328 420.719L396.173 436.161L407.328 451.602L418.182 466.637L429.035 451.602L440.19 436.161Z" stroke="#FEFEFE" stroke-width="0.319444" stroke-miterlimit="10"/>
<path d="M481.041 461.761L418.332 548.72L399.942 523.323L355.473 461.761L385.169 420.719L396.324 405.278L407.479 389.837L418.332 374.802L429.186 389.837L440.341 405.278L451.496 420.719L481.041 461.761ZM396.324 436.161L407.479 451.602L418.332 466.637L429.186 451.602L440.341 436.161L429.186 420.719L418.332 435.754L407.479 420.719L396.324 436.161Z" stroke="#FEFEFE" stroke-width="0.319444" stroke-miterlimit="10"/>
<path d="M481.041 379.679L451.345 420.72L440.19 436.161L429.035 420.72L418.182 435.755L407.328 420.72L396.324 436.161L385.169 420.72L355.473 379.679L366.628 364.237L377.632 348.796L388.787 333.355L399.942 318.117L418.182 292.72L436.572 318.117L447.727 333.355L481.041 379.679Z" stroke="#FEFEFE" stroke-width="0.319444" stroke-miterlimit="10"/>
<path d="M469.887 364.237L440.19 405.279L429.035 420.72L418.182 435.755L366.628 364.237L377.632 348.796L388.787 333.355L399.942 318.117L418.182 292.72L436.572 318.117L447.727 333.355L469.887 364.237Z" stroke="#FEFEFE" stroke-width="0.319444" stroke-miterlimit="10"/>
<path d="M407.479 390.041L407.328 389.837L377.632 348.796L388.787 333.355L399.942 318.117L418.182 292.72L436.572 318.117L447.727 333.355L458.731 348.796L429.035 390.041" stroke="#FEFEFE" stroke-width="0.319444" stroke-miterlimit="10"/>
<path d="M436.572 318.117L447.727 333.355L418.182 374.193L388.787 333.355L399.942 318.117L418.182 292.72L436.572 318.117Z" stroke="#FEFEFE" stroke-width="0.319444" stroke-miterlimit="10"/>
<path d="M418.181 292.72L436.572 318.117L418.181 343.31L399.941 318.117L418.181 292.72Z" stroke="#FEFEFE" stroke-width="0.319444" stroke-miterlimit="10"/>
<path d="M481.041 461.761L469.886 477.202L458.731 492.643L447.576 508.085L436.421 523.526L418.031 548.923L399.64 523.526L388.485 508.085L377.33 492.643L366.175 477.202L355.021 461.761L384.717 420.719L395.872 405.278L407.027 389.837L417.88 374.802L428.734 389.837L439.888 405.278L451.043 420.719L481.041 461.761ZM440.19 436.161L429.035 420.719L418.182 435.754L407.328 420.719L396.173 436.161L407.328 451.602L418.182 466.637L429.035 451.602L440.19 436.161Z" stroke="#FEFEFE" stroke-width="0.319444" stroke-miterlimit="10"/>
<path d="M481.041 461.761L418.332 548.72L399.942 523.323L355.473 461.761L385.169 420.719L396.324 405.278L407.479 389.837L418.332 374.802L429.186 389.837L440.341 405.278L451.496 420.719L481.041 461.761ZM396.324 436.161L407.479 451.602L418.332 466.637L429.186 451.602L440.341 436.161L429.186 420.719L418.332 435.754L407.479 420.719L396.324 436.161Z" stroke="#FEFEFE" stroke-width="0.319444" stroke-miterlimit="10"/>
</g>
</g>
</svg>
