<svg width="277" height="204" viewBox="0 0 277 204" fill="none" xmlns="http://www.w3.org/2000/svg">
<path opacity="0.8" d="M84.8654 204.49C84.8654 204.49 39.4961 198.91 46.9634 161.998C54.4308 125.085 58.6689 122.959 45.0691 79.64C31.4693 36.3207 117.194 -12.0064 159.692 32.4357C202.189 76.8779 225.381 47.8725 255.251 73.6059C285.122 99.3393 265.451 174.134 232.302 204.49H84.8654Z" fill="#FFF2D1"/>
<path d="M190.43 5.86816C188.331 4.52939 183.784 4.19372 180.467 6.42176C180.467 6.42176 177.641 7.68659 175.42 11.9082C173.2 16.1298 174.836 18.8803 170.134 20.5674C170.134 20.5674 173.422 20.6559 174.532 16.7038C174.986 15.0849 175.953 13.7928 176.937 12.8296C176.714 15.3203 176.763 17.7128 172.711 20.3008C166.316 24.3872 173.954 24.5643 173.022 29.3161C172.09 34.068 178.994 31.3593 179.804 35.8446C180.615 40.3298 184.169 43.2565 188.388 37.7107C192.606 32.1649 187.317 19.1031 187.317 19.1031L179.8 15.1948C186.007 6.97926 193.046 12.6194 193.046 12.6194C193.046 12.6194 192.922 10.7261 194.214 11.0841C194.22 11.0831 193.005 7.51146 190.43 5.86816Z" fill="#3F3D56"/>
<path d="M188.965 26.1447C188.965 26.1447 189.675 29.6716 189.409 30.5151C189.144 31.3587 192.073 34.9566 192.073 34.9566L195.715 29.6278C195.715 29.6278 194.028 27.5846 193.45 21.5893C192.872 15.5941 188.965 26.1447 188.965 26.1447Z" fill="white" stroke="black" stroke-width="0.4553" stroke-miterlimit="10" stroke-linecap="round"/>
<path d="M193.731 24.845C193.731 24.845 192.044 26.7841 191.111 26.9027C190.178 27.0214 190.386 29.197 190.874 29.5822C191.363 29.9675 192.873 30.0853 194.945 28.6648L195.515 29.915C195.515 29.915 190.319 32.2909 189.83 31.5359C189.342 30.7809 189.636 30.5143 189.636 30.5143C189.636 30.5143 189.669 27.8942 188.969 25.3636C188.27 22.8329 193.542 23.6317 193.542 23.6317L193.731 24.845Z" fill="#E3E3E3"/>
<path d="M210.933 13.8328C210.933 13.8328 215.01 9.47398 215.267 8.06321C215.524 6.65244 216.267 4.7552 217.087 4.44872C217.908 4.14224 219.626 4.21813 219.626 4.21813C219.626 4.21813 221.572 1.44913 221.754 0.782666C221.936 0.1162 222.472 1.98717 222.036 2.88422C221.6 3.78128 220.187 6.03851 220.266 6.2691C220.345 6.49969 220.933 6.26909 221.061 7.01242C221.188 7.75575 221.471 8.52535 220.882 8.86102C220.292 9.19668 217.293 10.371 216.703 10.371C216.703 10.371 213.779 16.1659 213.293 16.268C212.806 16.3702 210.933 13.8328 210.933 13.8328Z" fill="white" stroke="black" stroke-width="0.4553" stroke-miterlimit="10" stroke-linecap="round"/>
<path d="M220.176 6.39355C220.176 6.39355 219.884 7.50271 219.884 8.06021C219.884 8.61771 220.844 7.04543 220.844 7.04543C220.837 6.94238 220.799 6.84398 220.733 6.76393C220.668 6.68387 220.58 6.62617 220.48 6.59884C220.204 6.52782 220.176 6.39355 220.176 6.39355Z" fill="#E3E3E3"/>
<path d="M212.661 13.6313L216.638 10.0615L214.243 14.6013L212.661 13.6313Z" fill="#E3E3E3"/>
<path d="M230.571 73.1532L232.27 79.1212L234.854 77.5908L233.784 70.1954L230.571 73.1532Z" fill="white" stroke="black" stroke-width="0.4553" stroke-miterlimit="10" stroke-linecap="round"/>
<path d="M225.011 96.1053L230.468 97.8907L229.449 100.718L223.43 99.2168L225.011 96.1053Z" fill="white" stroke="black" stroke-width="0.4553" stroke-miterlimit="10" stroke-linecap="round"/>
<path d="M208.953 46.0085C208.953 46.0085 215.286 34.2622 220.863 34.1104C226.44 33.9586 231.412 38.0888 231.412 38.0888L222.155 51.171C222.155 51.171 200.81 53.364 202.952 48.4808C205.093 43.5976 208.953 46.0085 208.953 46.0085Z" fill="#654EF9" stroke="black" stroke-width="0.4553" stroke-miterlimit="10" stroke-linecap="round"/>
<path d="M214.05 50.1646C214.05 50.1646 224.752 36.4014 230.073 40.8905C235.394 45.3797 223.896 58.5563 214.05 50.1646Z" fill="#5842E2"/>
<path d="M171.1 62.0001C171.1 62.0001 180.944 65.1962 183.698 65.2984C186.452 65.4006 183.698 69.3108 183.698 69.3108L168.549 67.1908L171.1 62.0001Z" fill="white" stroke="black" stroke-width="0.4553" stroke-miterlimit="10" stroke-linecap="round"/>
<path d="M173.068 62.8591C173.068 62.8591 173.88 63.87 173.778 65.6553C173.676 67.4407 183.494 67.7958 183.494 67.7958L183.034 69.0451L170.141 67.1605L172.32 62.6227L173.068 62.8591Z" fill="#E3E3E3"/>
<path d="M176.149 83.2442C176.149 83.2442 183.034 63.7854 184.718 63.3962C186.401 63.007 196.959 64.0938 196.959 64.0938L207.258 74.5753C207.258 74.5753 191.807 73.0692 191.246 74.6959C190.685 76.3227 189.869 84.2736 189.869 84.2736L176.149 83.2442Z" fill="#21345F" stroke="black" stroke-width="0.4553" stroke-miterlimit="10" stroke-linecap="round"/>
<path d="M144.884 75.9542C144.884 75.9542 154.277 97.0739 155.51 97.61C156.743 98.1461 162.823 94.4732 162.823 94.4732C162.823 94.4732 169.366 80.6506 163.169 77.3105C156.972 73.9704 144.884 75.9542 144.884 75.9542Z" fill="#21345F"/>
<path d="M140.272 78.458C140.272 78.458 138.679 78.6876 138.966 74.8883C139.253 71.0889 143.047 75.7036 140.272 78.458Z" fill="#4052F2" stroke="black" stroke-width="0.4553" stroke-miterlimit="10" stroke-linecap="round"/>
<path d="M139.835 68.4608C139.835 68.4608 138.355 69.3793 139.251 71.0878C140.147 72.7963 144.505 70.9905 143.435 69.7743C142.364 68.5581 139.835 68.4608 139.835 68.4608Z" fill="#4052F2" stroke="black" stroke-width="0.4553" stroke-miterlimit="10" stroke-linecap="round"/>
<path d="M155.442 122.933L90.2584 195.12L106.07 202.116L170.138 129.958L155.442 122.933Z" fill="white"/>
<path d="M251.514 40.9126L251.623 41.0207L251.646 41.0337L251.606 40.9937L251.582 40.9697L251.514 40.9126Z" fill="#FBF4E9"/>
<path d="M255.585 42.2281C255.335 41.9051 255.026 41.6327 254.674 41.4254C253.88 40.9536 252.834 40.7697 251.602 40.9691C251.602 40.9759 251.602 40.9837 251.602 40.9915L251.641 41.0304L251.618 41.0178L162.921 131.404L167.562 135.959L256.259 45.5721L256.238 45.5381C256.467 44.1925 256.213 43.0464 255.585 42.2281Z" fill="#FCAA23" stroke="black" stroke-width="0.4553" stroke-linecap="round" stroke-linejoin="round"/>
<path d="M251.514 40.9126L251.58 40.968L251.604 40.9914C251.604 40.9836 251.604 40.9758 251.604 40.969C251.583 39.2043 250.866 37.5192 249.608 36.2813L249.581 36.3086L249.601 36.2736C248.338 35.0316 246.634 34.3416 244.863 34.3549H244.841L244.864 34.3763L244.914 34.4337L244.816 34.3364L156.118 124.723L159.513 128.053L159.531 128.072L162.925 131.402L251.622 41.0157L251.514 40.9126Z" fill="white" stroke="black" stroke-width="0.4553" stroke-linecap="round" stroke-linejoin="round"/>
<path d="M244.865 34.3788L244.841 34.3567L244.8 34.3154L244.814 34.3386L244.917 34.4382L244.865 34.3788Z" fill="#FAEEDD"/>
<path d="M263.872 21.7436L263.853 21.7251L261.615 19.5311L240.174 29.784L240.208 29.8044C241.71 29.4085 243.029 29.783 243.888 30.6713C243.93 30.7122 243.967 30.7589 244.006 30.8017C244.045 30.8445 244.095 30.899 244.136 30.9515L244.166 30.9953C244.788 31.8282 245.076 32.9928 244.862 34.3549C246.633 34.3418 248.337 35.0319 249.6 36.2735L249.579 36.3086L249.606 36.2813C250.864 37.5192 251.582 39.2043 251.602 40.969C252.835 40.7744 253.881 40.9534 254.674 41.4253C255.045 41.605 255.36 41.8826 255.585 42.228C256.214 43.0462 256.468 44.1923 256.24 45.536L256.261 45.57L266.109 23.9366L263.872 21.7436Z" fill="white" stroke="black" stroke-width="0.4553" stroke-linecap="round" stroke-linejoin="round"/>
<path d="M269.922 15.5585L269.939 15.5234L269.887 15.575L261.616 19.531L263.853 21.725L263.871 21.7435L266.108 23.9375L269.907 15.5935L269.957 15.5419L269.922 15.5585Z" fill="#21345F"/>
<path d="M156.116 124.723L244.814 34.3369L244.8 34.3146L244.84 34.3545H244.862C245.076 32.9923 244.788 31.8248 244.165 30.9949C244.155 30.9813 244.146 30.9657 244.135 30.9511C244.094 30.8986 244.049 30.8538 244.006 30.8013C243.963 30.7487 243.929 30.7137 243.888 30.6709C243.027 29.7826 241.71 29.4061 240.207 29.804L240.173 29.7836L151.476 120.17L156.116 124.723Z" fill="#FCAA23" stroke="black" stroke-width="0.4553" stroke-linecap="round" stroke-linejoin="round"/>
<path d="M169.04 136.32L163.417 130.803L156.686 124.197L151.064 118.68L142.342 127.569L147.914 133.036H147.913L154.743 139.738L160.317 145.208L169.04 136.32Z" fill="#21345F" stroke="black" stroke-width="0.4553" stroke-miterlimit="10" stroke-linecap="round"/>
<path d="M179.804 15.1939C179.804 15.1939 180.485 18.5253 181.637 19.9458C182.789 21.3663 181.371 22.166 183.86 23.8949C186.348 25.6239 190.727 28.2187 193.497 23.318C195.517 19.7434 194.222 14.9244 194.222 14.9244C194.222 14.9244 195.717 13.5623 195.184 11.6086C194.65 9.65493 192.342 11.1941 193.052 12.6156C193.052 12.6156 190.772 9.06241 184.615 10.8098C184.613 10.8127 180.948 11.9375 179.804 15.1939Z" fill="white" stroke="black" stroke-width="0.4553" stroke-miterlimit="10" stroke-linecap="round"/>
<path d="M192.7 58.8975C192.7 58.8975 193.541 68.8439 199.28 69.2263C205.018 69.6087 223.993 55.7608 223.993 55.7608C224.164 59.7099 226.288 65.9368 229.884 73.9694C229.884 73.9694 233.173 73.7398 234.554 72.439C234.554 72.439 233.865 54.2819 233.865 50.1585C233.865 46.0352 230.958 45.8873 227.898 46.0401C224.838 46.1928 216.894 48.1397 215.319 49.3481C213.744 50.5565 198.668 49.8725 192.7 58.8975Z" fill="#654EF9" stroke="black" stroke-width="0.4553" stroke-miterlimit="10" stroke-linecap="round"/>
<path d="M206.718 53.2965C206.718 53.2965 197.911 57.703 197.809 62.6232C197.707 67.5434 204.202 67.4071 204.202 67.4071C204.202 67.4071 199 71.0284 195.973 67.2885C192.946 63.5485 192.777 57.5979 192.777 57.5979C192.777 57.5979 202.501 51.0179 206.718 53.2965Z" fill="#5842E2"/>
<path d="M209.965 49.5894C209.965 49.5894 212.105 49.4872 213.968 48.5192C215.832 47.5511 216.887 47.3137 219.4 46.9897C221.625 46.6978 221.621 46.9449 221.594 47.1171C221.533 47.5112 220.863 47.6591 220.863 47.6591C220.863 47.6591 221.435 47.627 221.608 47.7885C221.821 47.9831 221.492 48.3109 221.016 48.4812C221.016 48.4812 221.619 48.4686 221.674 48.7828C221.756 49.2421 220.931 49.2693 220.726 49.353C220.726 49.353 221.116 49.2849 220.965 49.6585C220.814 50.0321 219.077 50.3561 218.262 50.7978C217.447 51.2395 217.484 52.3282 209.864 51.9712L209.965 49.5894Z" fill="white" stroke="black" stroke-width="0.4553" stroke-miterlimit="10" stroke-linecap="round"/>
<path d="M211.529 49.5808C211.529 49.5808 211.334 51.0402 212.32 51.2562C213.305 51.4722 217.564 50.9838 217.564 50.9838C217.564 50.9838 217.029 51.7913 212.353 51.8166L207.678 51.8429L209.235 49.9038L211.529 49.5808Z" fill="#E3E3E3"/>
<path d="M188.9 30.769C188.9 30.769 188.985 31.7721 191.535 31.1777C194.085 30.5832 195.242 29.621 195.505 28.6655C195.505 28.6655 201.932 23.1441 204.303 20.0063C206.674 16.8686 211.75 11.8969 211.75 11.8969C211.75 11.8969 214.014 13.3845 215.314 14.5316C215.314 14.5316 210.96 21.6136 208.892 24.1375C206.825 26.6613 202.208 34.7211 202.208 34.7211C202.208 34.7211 207.082 44.8962 209.76 46.7331C209.76 46.7331 208.357 48.0592 207.592 48.5175C207.592 48.5175 210.575 48.5175 210.933 48.6965C210.933 48.6965 210.525 51.5015 211.239 52.5727C211.239 52.5727 202.16 54.5877 200.528 54.6636C200.528 54.6636 196.247 58.2635 193.66 59.6538C191.073 61.0441 190.701 62.9521 190.701 62.9521C190.701 62.9521 186.104 62.271 185.739 51.8605C185.374 41.45 187.319 31.5601 188.9 30.769Z" fill="white" stroke="black" stroke-width="0.4553" stroke-miterlimit="10" stroke-linecap="round"/>
<path d="M196.448 36.8892C196.448 36.8892 198.897 47.4466 199.305 47.9574C199.713 48.4682 207.593 48.5178 207.593 48.5178" stroke="black" stroke-width="0.4553" stroke-miterlimit="10" stroke-linecap="round"/>
<path d="M190.788 43.4696C190.788 43.4696 192.734 54.1292 195.662 54.5368C198.591 54.9445 200.527 54.6643 200.527 54.6643" stroke="black" stroke-width="0.4553" stroke-miterlimit="10" stroke-linecap="round"/>
<path d="M199.816 31.058C199.816 31.058 200.965 32.244 202.21 34.7221L199.816 31.058Z" fill="white"/>
<path d="M199.816 31.058C199.816 31.058 200.965 32.244 202.21 34.7221" stroke="black" stroke-width="0.4553" stroke-miterlimit="10" stroke-linecap="round"/>
<path d="M220.726 49.3522C220.726 49.3522 219.439 49.4874 219.056 49.6791C218.674 49.8708 218.138 50.1656 218.138 50.1656" fill="white"/>
<path d="M220.726 49.3522C220.726 49.3522 219.439 49.4874 219.056 49.6791C218.674 49.8708 218.138 50.1656 218.138 50.1656" stroke="black" stroke-width="0.4553" stroke-miterlimit="10" stroke-linecap="round"/>
<path d="M221.016 48.4806C221.016 48.4806 219.884 48.4495 219.265 48.7141C218.681 48.9632 217.819 49.3524 217.819 49.3524" fill="white"/>
<path d="M221.016 48.4806C221.016 48.4806 219.884 48.4495 219.265 48.7141C218.681 48.9632 217.819 49.3524 217.819 49.3524" stroke="black" stroke-width="0.4553" stroke-miterlimit="10" stroke-linecap="round"/>
<path d="M220.863 47.6582C220.863 47.6582 219.5 47.7652 219.031 47.9063C218.492 48.0678 217.564 48.4803 217.564 48.4803" fill="white"/>
<path d="M220.863 47.6582C220.863 47.6582 219.5 47.7652 219.031 47.9063C218.492 48.0678 217.564 48.4803 217.564 48.4803" stroke="black" stroke-width="0.4553" stroke-miterlimit="10" stroke-linecap="round"/>
<path d="M219.626 4.21777L219.164 4.99321" stroke="black" stroke-width="0.4553" stroke-miterlimit="10" stroke-linecap="round"/>
<path d="M140.827 45.7388C140.827 45.7388 144.495 45.6347 146.004 47.709C147.513 49.7833 149.84 49.2005 150.453 49.5576C151.066 49.9147 150.089 51.1649 150.369 51.4062C150.65 51.6475 152.956 53.7091 152.935 54.8241C152.898 56.8498 150.759 59.6713 150.759 59.6713L155.491 64.9427L149.673 69.8259C149.673 69.8259 147.651 63.1253 145.649 62.741C143.646 62.3567 135.155 62.9803 135.605 59.3921C136.056 55.8039 136.056 47.5543 140.827 45.7388Z" fill="white" stroke="black" stroke-width="0.4553" stroke-miterlimit="10" stroke-linecap="round"/>
<path d="M140.827 45.7384C140.827 45.7384 142.27 46.8894 142.645 49.8004C143.019 52.7115 141.265 53.4402 142.078 56.5011C142.213 57.0061 142.783 59.2127 144.316 60.1234C145.192 60.6429 147.834 62.8875 148.546 64.1124C149.959 66.5448 153.375 63.3341 153.375 63.3341C153.375 63.3341 153.887 65.4279 150.706 66.8776C150.706 66.8776 149.29 67.5411 149.088 67.581C149.088 67.581 148.286 65.1224 146.866 63.3214C146.866 63.3214 146.088 62.3709 144.598 62.4458C143.109 62.5207 137.847 60.7568 138.814 53.3488C139.781 45.9408 140.827 45.7384 140.827 45.7384Z" fill="#E3E3E3"/>
<path d="M140.827 45.7384C140.827 45.7384 143.106 49.1962 141.873 51.6247C140.64 54.0532 139.494 55.2732 141.139 56.6927C141.139 56.6927 138.779 57.7435 140.012 59.2535C141.245 60.7636 142.521 59.5347 143.873 60.9319C145.224 62.329 145.022 63.6561 145.022 63.6561C145.022 63.6561 142.818 62.8233 139.12 63.3127C135.422 63.8021 133.369 62.5255 132.17 59.6233C130.568 55.7441 131.039 51.8397 132.862 48.4441C134.684 45.0486 140.848 40.0603 145.671 47.0373C145.671 47.0411 143.482 45.1108 140.827 45.7384Z" fill="#3F3D56"/>
<path d="M141.828 70.4502C141.828 70.4502 134.531 70.2634 133.753 69.8548C133.753 69.8548 129.026 58.9228 129.18 56.9847C129.334 55.0466 129.789 51.9964 129.614 51.2725C129.537 50.9554 129.214 50.3443 128.989 50.1935C128.279 49.7178 127.319 49.8958 127.319 49.8958C127.319 49.8958 125.891 49.1564 125.228 49.5893C124.565 50.0223 122.091 51.4253 122.295 52.3184C122.498 53.2116 125.84 56.6792 125.992 57.9537C126.144 59.2283 126.399 73.6123 128.924 75.3461C131.449 77.0799 142.105 77.3095 142.105 77.3095L141.828 70.4502Z" fill="white" stroke="black" stroke-width="0.4553" stroke-miterlimit="10" stroke-linecap="round"/>
<path d="M139.835 70.5776C139.835 70.5776 139.632 74.7613 139.045 75.2186C138.457 75.6759 129.668 74.989 128.239 73.9353C128.239 73.9353 128.495 74.9082 129.222 75.2828C129.949 75.6574 132.388 76.6858 139.885 77.0039L140.702 70.6029L139.835 70.5776Z" fill="#E3E3E3"/>
<path d="M162.823 92.0797C162.823 92.0797 166.902 101.43 186.271 95.3177C191.817 93.5664 196.222 92.9505 199.939 93.5498C203.206 94.0772 213.894 99.9771 223.672 100.717L225.762 95.4305C225.762 95.4305 211.251 86.7587 201.697 84.6046C192.144 82.4505 175.44 81.2791 175.44 81.2791L162.823 92.0797Z" fill="#21345F" stroke="black" stroke-width="0.4553" stroke-miterlimit="10" stroke-linecap="round"/>
<path d="M139.835 68.4605C139.835 68.4605 140.549 68.3078 140.701 70.601C140.854 72.8942 139.681 77.3844 140.268 78.4556C140.268 78.4556 146.618 77.3338 148.811 78.4556C151.004 79.5774 160.491 93.0935 161.97 98.1431C161.97 98.1431 166.408 96.9697 170.946 89.8293C175.485 82.6889 179.21 80.1903 179.21 80.1903L166.713 67.7454C166.713 67.7454 169.468 68.0003 171.558 68.408C171.558 68.408 173.344 66.1634 172.629 63.8176C172.204 62.434 171.891 61.0183 171.694 59.5844C171.694 59.5844 169.902 59.7566 167.579 59.8646C163.687 60.0465 158.508 59.9268 157.838 61.0126C156.768 62.7464 153.524 62.2424 153.524 62.2424C153.524 62.2424 154.681 66.0788 148.277 66.9632C141.873 67.8476 139.835 68.4605 139.835 68.4605Z" fill="#654EF9" stroke="black" stroke-width="0.4553" stroke-miterlimit="10" stroke-linecap="round"/>
<path d="M163.427 63.8162C163.427 63.8162 171.533 69.0701 172.476 64.1771C172.668 64.9971 172.596 65.8568 172.272 66.6338C171.728 67.9259 171.473 68.172 171.473 68.172L166.316 67.4326L163.427 63.8162Z" fill="#5842E2"/>
<path d="M155.722 62.4166C155.722 62.4166 160.44 65.1963 170.946 72.3114L167.736 68.9451L157.586 61.754C157.586 61.754 156.461 62.2639 155.722 62.4166Z" fill="#0502AB"/>
<path d="M155.36 83.7117C155.36 83.7117 162.965 93.4276 169.008 88.4792C175.052 83.5308 175.843 82.9713 175.843 82.9713C175.843 82.9713 172.426 86.8728 170.284 90.4426C168.142 94.0123 164.316 97.2006 162.148 97.941C162.148 97.941 159.352 91.361 155.081 85.6352C155.081 85.6362 154.946 83.6855 155.36 83.7117Z" fill="#5842E2"/>
<path d="M148.276 67.2109C148.276 67.2109 154.192 73.8163 154.141 79.4263C154.089 85.0362 152.876 82.563 152.876 82.563L151.743 81.1094C151.743 81.1094 151.233 69.2259 146.209 67.5174L148.276 67.2109Z" fill="#0502AB"/>
<path d="M146.122 67.2765C146.122 67.2765 149.423 67.2366 151.259 73.1531C153.095 79.0695 152.868 82.9389 152.868 82.9389C152.868 82.9389 152.653 84.5443 153.64 85.7682C154.626 86.9922 155.03 85.9171 155.03 85.9171C155.03 85.9171 157.712 72.6179 149.824 66.6606C149.824 66.6606 149.003 66.3843 147.523 66.5059C146.182 66.6168 145.396 67.1373 146.122 67.2765Z" fill="#21345F"/>
<path d="M155.886 62.1898C155.886 62.1898 158.017 61.8006 161.46 64.7885C164.903 67.7764 169.941 70.9619 169.941 70.9619C169.941 70.9619 170.382 71.0115 169.941 70.2117C169.501 69.412 159.968 60.0065 158.323 60.3383C156.679 60.6701 154.66 61.8862 155.886 62.1898Z" fill="#21345F"/>
<path d="M123.742 52.7776C123.742 52.7776 124.326 52.4964 125.068 53.5424C125.068 53.5424 125.605 53.916 126.166 53.1425C126.166 53.1425 126.956 53.1853 127.262 52.4205C127.262 52.4205 127.95 52.4964 127.977 51.8368C127.977 51.8368 128.199 51.9895 128.366 51.8037C128.366 51.8037 128.626 51.1762 127.313 49.8987" stroke="black" stroke-width="0.4553" stroke-miterlimit="10" stroke-linecap="round"/>
<path d="M127.863 52.1925C127.863 52.1925 127.182 52.8191 127.424 54.2814" stroke="black" stroke-width="0.4553" stroke-miterlimit="10" stroke-linecap="round"/>
<path d="M133.753 69.8546C133.753 69.8546 132.495 69.7466 131.645 70.1241L133.753 69.8546Z" fill="white"/>
<path d="M133.753 69.8546C133.753 69.8546 132.495 69.7466 131.645 70.1241" stroke="black" stroke-width="0.4553" stroke-miterlimit="10" stroke-linecap="round"/>
<path d="M127.053 163.718C127.053 163.718 128.698 135.892 143.914 137.26C143.914 137.26 148.507 137.398 152.619 143.91C156.732 150.421 146.176 160.839 127.053 163.718Z" fill="#FCAA23"/>
<path d="M147.127 140.432C147.127 140.432 141.537 137.536 138.042 143.979C134.546 150.422 131.805 159.469 131.805 159.469C131.805 159.469 154.978 151.351 147.127 140.432Z" fill="#FEEED3"/>
<path d="M253.144 204.96H1.88496C2.16998 202.329 3.08039 199.806 4.54013 197.599C3.55524 197.089 2.68109 196.388 1.96801 195.538C1.25492 194.688 0.716972 193.706 0.385138 192.647C0.0533037 191.588 -0.065863 190.475 0.0344887 189.37C0.13484 188.265 0.452732 187.191 0.969866 186.209C1.487 185.228 2.19316 184.358 3.0477 183.651C3.90225 182.943 4.88829 182.411 5.94908 182.087C7.00986 181.762 8.12444 181.65 9.22865 181.757C10.3329 181.865 11.4049 182.19 12.383 182.713C12.6107 172.431 21.015 164.167 31.3554 164.167C31.876 164.167 32.3897 164.188 32.8995 164.23C31.8767 161.574 31.3532 158.751 31.3554 155.905C31.3554 143.115 41.7231 132.749 54.5115 132.749C58.4225 132.747 62.2701 133.736 65.6948 135.625C69.1195 137.514 72.0096 140.24 74.0949 143.548C74.4806 141.872 75.2222 140.297 76.2695 138.932C77.3167 137.567 78.6452 136.443 80.1649 135.636C81.6845 134.829 83.3598 134.359 85.0773 134.256C86.7947 134.153 88.5142 134.421 90.1192 135.04C91.7243 135.66 93.1773 136.618 94.3799 137.848C95.5825 139.079 96.5066 140.553 97.0896 142.172C97.6725 143.791 97.9007 145.516 97.7587 147.231C97.6166 148.945 97.1077 150.609 96.2663 152.11C99.8931 150.938 103.828 151.174 107.288 152.773C110.748 154.373 113.479 157.217 114.935 160.739C116.392 164.261 116.468 168.203 115.149 171.779C113.829 175.355 111.211 178.302 107.815 180.034C108.243 180.311 108.685 180.578 109.14 180.834C111.232 178.162 113.886 175.982 116.914 174.449C119.941 172.915 123.269 172.066 126.661 171.962C130.053 171.857 133.427 172.499 136.544 173.843C139.66 175.187 142.443 177.199 144.696 179.738C144.687 179.506 144.681 179.275 144.681 179.041C144.681 168.554 153.184 160.052 163.672 160.052C166.96 160.05 170.193 160.903 173.053 162.527C175.912 164.151 178.3 166.49 179.983 169.316C181.202 168.606 182.549 168.144 183.947 167.956C185.345 167.769 186.766 167.859 188.129 168.223C189.491 168.586 190.769 169.215 191.888 170.074C193.006 170.933 193.944 172.004 194.647 173.227C195.798 169.375 198.16 165.998 201.384 163.596C204.608 161.195 208.52 159.898 212.54 159.898C222.853 159.898 231.208 168.254 231.208 178.564C231.212 181.207 230.652 183.82 229.566 186.23C231.897 185.308 234.458 185.139 236.889 185.747C239.321 186.355 241.501 187.71 243.122 189.622C244.744 191.533 245.725 193.904 245.929 196.403C246.133 198.901 245.548 201.4 244.258 203.549C245.659 202.67 247.331 202.329 248.964 202.587C250.598 202.845 252.083 203.685 253.145 204.953L253.144 204.96Z" fill="white" stroke="black" stroke-width="0.4553" stroke-linecap="round" stroke-linejoin="round"/>
<path d="M276.329 204.96H253.373C254.264 202.639 255.838 200.642 257.887 199.234C259.937 197.825 262.365 197.071 264.851 197.071C267.338 197.071 269.766 197.825 271.815 199.234C273.864 200.642 275.438 202.639 276.329 204.96Z" fill="white" stroke="black" stroke-width="0.4553" stroke-linecap="round" stroke-linejoin="round"/>
<path d="M227.652 96.8899C227.652 96.8899 232.968 95.3177 234.204 92.3268C235.441 89.336 237.475 90.0141 237.475 90.0141L238.156 90.1737L234.129 103.413H232.789C232.789 103.413 230.297 102.537 228.741 101.339C227.186 100.142 226.389 100.142 226.389 100.142L227.652 96.8899Z" fill="#21345F" stroke="black" stroke-width="0.4553" stroke-miterlimit="10" stroke-linecap="round"/>
<path d="M234.662 76.0326C234.662 76.0326 238.748 79.7784 241.949 79.2959C245.15 78.8133 245.617 80.9051 245.617 80.9051L245.829 81.5686L232.409 84.9418L231.721 83.7977C231.721 83.7977 231.188 81.2096 231.411 79.2608C231.634 77.312 231.223 76.628 231.223 76.628L234.662 76.0326Z" fill="#21345F" stroke="black" stroke-width="0.4553" stroke-miterlimit="10" stroke-linecap="round"/>
<path d="M127.977 51.8343C127.977 51.8343 126.834 50.2027 125.071 49.686L127.977 51.8343Z" fill="white"/>
<path d="M127.977 51.8343C127.977 51.8343 126.834 50.2027 125.071 49.686" stroke="black" stroke-width="0.4553" stroke-miterlimit="10" stroke-linecap="round"/>
<path d="M127.262 52.421C127.262 52.421 125.853 50.7865 124.269 50.194L127.262 52.421Z" fill="white"/>
<path d="M127.262 52.421C127.262 52.421 125.853 50.7865 124.269 50.194" stroke="black" stroke-width="0.4553" stroke-miterlimit="10" stroke-linecap="round"/>
<path d="M126.164 53.1425C126.164 53.1425 124.824 51.1703 123.639 51.362L126.164 53.1425Z" fill="white"/>
<path d="M126.164 53.1425C126.164 53.1425 124.824 51.1703 123.639 51.362" stroke="black" stroke-width="0.4553" stroke-miterlimit="10" stroke-linecap="round"/>
<path d="M131.904 65.9495L133.415 69.6214C133.415 69.6214 132.15 69.6719 131.56 69.9132C130.969 70.1545 131.904 65.9495 131.904 65.9495Z" fill="#E3E3E3"/>
<path d="M135.509 45.3358C135.509 45.3358 137.995 42.5814 136.248 40.1121C136.248 40.1121 140.102 42.0696 138.142 44.7511C136.181 47.4325 135.509 45.3358 135.509 45.3358Z" fill="#3F3D56"/>
<path d="M140.114 46.2358C140.114 46.2358 141.768 48.6838 140.658 52.2798" stroke="white" stroke-width="0.22765" stroke-miterlimit="10" stroke-linecap="round"/>
<path d="M150.818 53.6118C150.818 53.6118 150.317 55.0391 148.328 55.2483L150.818 53.6118Z" fill="white"/>
<path d="M150.818 53.6118C150.818 53.6118 150.317 55.0391 148.328 55.2483" stroke="black" stroke-width="0.4553" stroke-miterlimit="10" stroke-linecap="round"/>
<path d="M143.628 50.4908C143.628 50.4908 143.122 48.6335 144.228 48.0254L143.628 50.4908Z" fill="white"/>
<path d="M143.628 50.4908C143.628 50.4908 143.122 48.6335 144.228 48.0254" stroke="black" stroke-width="0.4553" stroke-miterlimit="10" stroke-linecap="round"/>
<path d="M146.19 51.2759C146.19 51.2759 145.683 50.2134 146.774 49.7036L146.19 51.2759Z" fill="white"/>
<path d="M146.19 51.2759C146.19 51.2759 145.683 50.2134 146.774 49.7036" stroke="black" stroke-width="0.4553" stroke-miterlimit="10" stroke-linecap="round"/>
<path d="M220.3 6.10205C220.3 6.10205 219.919 7.13824 219.881 8.06059L220.3 6.10205Z" fill="white"/>
<path d="M220.3 6.10205C220.3 6.10205 219.919 7.13824 219.881 8.06059" stroke="black" stroke-width="0.4553" stroke-miterlimit="10" stroke-linecap="round"/>
<path d="M180.127 10.3285C180.127 10.3285 178.395 18.3689 175.131 20.4335C171.867 22.4981 171.69 23.4983 171.69 23.4983" stroke="white" stroke-width="0.22765" stroke-miterlimit="10" stroke-linecap="round"/>
<path d="M179.224 19.5457C179.224 19.5457 179.905 23.6904 175.138 29.6711" stroke="white" stroke-width="0.22765" stroke-miterlimit="10" stroke-linecap="round"/>
<path d="M180.127 24.1643C180.127 24.1643 180.794 29.5379 177.729 31.4925" stroke="white" stroke-width="0.22765" stroke-miterlimit="10" stroke-linecap="round"/>
<path d="M182.526 25.6302C182.526 25.6302 186.523 32.7327 182.526 38.5081" stroke="white" stroke-width="0.22765" stroke-miterlimit="10" stroke-linecap="round"/>
<path d="M184.346 35.8699C184.346 35.8699 184.754 38.3022 183.665 41.1568" stroke="white" stroke-width="0.22765" stroke-miterlimit="10" stroke-linecap="round"/>
<path d="M187.46 10.532C187.46 10.532 181.154 12.9964 181.087 15.172C181.02 17.3475 182.863 18.7028 183.175 20.6788C183.486 22.6549 187.456 25.6311 187.456 25.6311C187.456 25.6311 182.504 23.8798 182.437 21.7889C182.37 19.6981 181.571 19.9909 181.216 19.0355C180.861 18.0801 180.243 16.2607 179.973 15.172C179.968 15.172 181.349 10.6205 187.46 10.532Z" fill="#E3E3E3"/>
<path d="M190.788 44.4238C190.788 44.4238 190.562 49.235 191.703 51.8454C192.845 54.4559 193.357 59.3371 187.714 59.9919C187.714 59.9919 188.942 62.2666 190.575 62.7006C190.575 62.7006 190.83 61.068 193.316 59.6018C195.801 58.1355 199.603 55.3558 199.819 54.9482C199.819 54.9482 196.21 55.0367 195.038 54.5522C193.865 54.0676 192.717 51.2879 192.313 50.1019C191.91 48.9159 190.788 44.4238 190.788 44.4238Z" fill="#E3E3E3"/>
<path d="M199.969 30.9002C199.969 30.9002 205.094 29.83 206.779 26.7166L202.207 34.3162C202.207 34.3162 201.6 32.8344 199.969 30.9002Z" fill="#E3E3E3"/>
<path d="M114.3 148.057C116.315 148.057 117.949 146.423 117.949 144.408C117.949 142.393 116.315 140.76 114.3 140.76C112.285 140.76 110.651 142.393 110.651 144.408C110.651 146.423 112.285 148.057 114.3 148.057Z" fill="white"/>
<path d="M172.154 158.739C173.874 158.739 175.269 157.345 175.269 155.625C175.269 153.904 173.874 152.51 172.154 152.51C170.434 152.51 169.04 153.904 169.04 155.625C169.04 157.345 170.434 158.739 172.154 158.739Z" fill="white"/>
<path d="M213.625 155.625C215.345 155.625 216.739 154.231 216.739 152.511C216.739 150.79 215.345 149.396 213.625 149.396C211.905 149.396 210.51 150.79 210.51 152.511C210.51 154.231 211.905 155.625 213.625 155.625Z" fill="white"/>
<path d="M191.768 152.74C195.763 152.74 199.002 149.501 199.002 145.505C199.002 141.51 195.763 138.271 191.768 138.271C187.772 138.271 184.533 141.51 184.533 145.505C184.533 149.501 187.772 152.74 191.768 152.74Z" fill="white"/>
<path d="M100.869 126.583C104.53 126.583 107.497 123.615 107.497 119.955C107.497 116.295 104.53 113.327 100.869 113.327C97.209 113.327 94.2417 116.295 94.2417 119.955C94.2417 123.615 97.209 126.583 100.869 126.583Z" fill="white"/>
<path d="M207.678 101.926L181.805 127.799" stroke="black" stroke-width="0.4553" stroke-miterlimit="10" stroke-linecap="round"/>
<path d="M138.334 119.954L131.64 126.648" stroke="black" stroke-width="0.4553" stroke-miterlimit="10" stroke-linecap="round"/>
<path d="M136.133 126.835L129.439 133.53" stroke="black" stroke-width="0.4553" stroke-miterlimit="10" stroke-linecap="round"/>
<path d="M147.57 115.3L138.433 124.609" stroke="black" stroke-width="0.4553" stroke-miterlimit="10" stroke-linecap="round"/>
<path d="M186.942 126.749L177.805 136.057" stroke="black" stroke-width="0.4553" stroke-miterlimit="10" stroke-linecap="round"/>
<path d="M94.2201 178.983C94.2201 178.983 113.138 170.013 117.949 190.398L94.2201 178.983Z" fill="white"/>
<path d="M94.2201 178.983C94.2201 178.983 113.138 170.013 117.949 190.398" stroke="black" stroke-width="0.4553" stroke-linecap="round" stroke-linejoin="round"/>
<path d="M34.9397 187.626C34.9397 187.626 26.8643 174.66 41.545 167.077L34.9397 187.626Z" fill="white"/>
<path d="M34.9397 187.626C34.9397 187.626 26.8643 174.66 41.545 167.077" stroke="black" stroke-width="0.4553" stroke-linecap="round" stroke-linejoin="round"/>
<path d="M30.0478 182.61C30.0478 182.61 29.1478 188.394 34.8152 192.517L30.0478 182.61Z" fill="white"/>
<path d="M30.0478 182.61C30.0478 182.61 29.1478 188.394 34.8152 192.517" stroke="black" stroke-width="0.4553" stroke-linecap="round" stroke-linejoin="round"/>
<path d="M111.263 188.031C111.263 188.031 116.323 191.374 116.155 197.566L111.263 188.031Z" fill="white"/>
<path d="M111.263 188.031C111.263 188.031 116.323 191.374 116.155 197.566" stroke="black" stroke-width="0.4553" stroke-linecap="round" stroke-linejoin="round"/>
<path d="M164.266 196.024C164.266 196.024 159.169 183.793 172.154 179.063L164.266 196.024Z" fill="white"/>
<path d="M164.266 196.024C164.266 196.024 159.169 183.793 172.154 179.063" stroke="black" stroke-width="0.4553" stroke-linecap="round" stroke-linejoin="round"/>
<path d="M166.385 179.064C166.385 179.064 168.818 175.313 175.269 174.66L166.385 179.064Z" fill="white"/>
<path d="M166.385 179.064C166.385 179.064 168.818 175.313 175.269 174.66" stroke="black" stroke-width="0.4553" stroke-linecap="round" stroke-linejoin="round"/>
<path d="M185.693 18.6823C185.693 18.6823 186.264 20.8023 186.291 21.3462C186.318 21.89 187.62 21.3462 187.62 21.3462" fill="white"/>
<path d="M185.693 18.6823C185.693 18.6823 186.264 20.8023 186.291 21.3462C186.318 21.89 187.62 21.3462 187.62 21.3462" stroke="black" stroke-width="0.4553" stroke-linecap="round" stroke-linejoin="round"/>
<path d="M186.656 23.4524L190.061 21.3187C190.061 21.3187 190.314 24.3465 186.656 23.4524Z" fill="white" stroke="black" stroke-width="0.4553" stroke-linecap="round" stroke-linejoin="round"/>
<path d="M182.724 19.8501C182.724 19.8501 182.61 18.4772 184.105 18.7866L182.724 19.8501Z" fill="white"/>
<path d="M182.724 19.8501C182.724 19.8501 182.61 18.4772 184.105 18.7866" stroke="black" stroke-width="0.4553" stroke-linecap="round" stroke-linejoin="round"/>
<path d="M181.412 17.4733C181.412 17.4733 181.49 16.1034 183.141 15.6451L181.412 17.4733Z" fill="white"/>
<path d="M181.412 17.4733C181.412 17.4733 181.49 16.1034 183.141 15.6451" stroke="black" stroke-width="0.4553" stroke-linecap="round" stroke-linejoin="round"/>
<path d="M186.659 13.9371C186.659 13.9371 187.717 13.0615 189.175 13.9653L186.659 13.9371Z" fill="white"/>
<path d="M186.659 13.9371C186.659 13.9371 187.717 13.0615 189.175 13.9653" stroke="black" stroke-width="0.4553" stroke-linecap="round" stroke-linejoin="round"/>
<path d="M187.897 17.2601C187.897 17.2601 188.384 16.0361 189.59 16.8427L187.897 17.2601Z" fill="white"/>
<path d="M187.897 17.2601C187.897 17.2601 188.384 16.0361 189.59 16.8427" stroke="black" stroke-width="0.4553" stroke-linecap="round" stroke-linejoin="round"/>
<path d="M141.439 57.7126C141.439 57.7126 140.193 57.3594 140.287 59.0874" stroke="black" stroke-width="0.22765" stroke-miterlimit="10" stroke-linecap="round"/>
<path d="M140.548 57.9587C140.548 57.9587 140.548 58.6009 140.921 59.0698" stroke="black" stroke-width="0.22765" stroke-miterlimit="10" stroke-linecap="round"/>
</svg>
