<svg width="104" height="135" viewBox="0 0 104 135" fill="none" xmlns="http://www.w3.org/2000/svg">
<circle cx="52.7429" cy="111.828" r="22.4949" fill="#F9AB5A"/>
<path d="M53.0647 122.851V103.218M53.0647 103.218L48.2369 107.402M53.0647 103.218L57.7233 107.402" stroke="#FEFEFE" stroke-width="2" stroke-linecap="round" stroke-linejoin="round"/>
<path d="M95.4488 18.3543V9.38501C95.4488 8.83272 95.0011 8.38501 94.4488 8.38501H10.0496C9.49731 8.38501 9.04959 8.83273 9.04959 9.38501V81.489C9.04959 82.0413 9.49731 82.489 10.0496 82.489H94.4488C95.0011 82.489 95.4488 82.0413 95.4488 81.489V26.828" stroke="black" stroke-width="0.540058" stroke-miterlimit="10" stroke-linecap="round"/>
<path d="M9.21582 60.0583H18.4384C18.7036 60.0583 18.958 59.9529 19.1455 59.7654L37.0869 41.8241C37.4774 41.4335 38.1106 41.4335 38.5011 41.8241L58.0221 61.3451C58.4126 61.7356 59.0458 61.7356 59.4363 61.3451L72.145 48.6363C72.5356 48.2458 73.1687 48.2458 73.5592 48.6363L95.615 70.6921" stroke="black" stroke-width="0.540058" stroke-miterlimit="10" stroke-linecap="round"/>
<circle cx="59.3435" cy="30.4236" r="9.9929" fill="#654EF9" stroke="black" stroke-width="0.540058" stroke-miterlimit="10" stroke-linecap="round"/>
<path d="M26.1142 104.587H1.57587C1.02358 104.587 0.575867 104.14 0.575867 103.587V2.07446C0.575867 1.52218 1.02358 1.07446 1.57587 1.07446H102.424C102.976 1.07446 103.424 1.52218 103.424 2.07446V103.587C103.424 104.14 102.976 104.587 102.424 104.587H75.0238" stroke="black" stroke-width="0.540058" stroke-miterlimit="10" stroke-linecap="round"/>
<circle cx="52.7429" cy="111.828" r="22.495" stroke="black" stroke-width="0.540058" stroke-miterlimit="10" stroke-linecap="round"/>
</svg>
