<svg width="168" height="136" viewBox="0 0 168 136" fill="none" xmlns="http://www.w3.org/2000/svg">
<path opacity="0.3" d="M120.487 131.024C99.5695 138.315 76.4909 135.87 57.4253 124.591C48.0152 119.024 36.6236 112.812 26.9531 109.067C6.19949 101.028 -15.5001 57.9136 17.5281 46.8076C50.5563 35.7017 38.0565 15.9395 69.1097 3.23835C100.163 -9.46275 92.9647 22.5208 125.798 26.6922C158.632 30.8636 158.497 102.026 138.603 120.682C133.627 125.345 127.252 128.666 120.487 131.024Z" fill="#FEFEFE"/>
<path d="M50.5455 13.6445C50.3846 14.0062 50.4259 14.6704 50.992 14.9597C50.6931 14.8261 49.6607 14.3941 49.1461 14.5508L48.6182 13.1122L46.5582 7.49961L49.2411 6.51392L51.293 12.1045L52.0925 14.2836L52.1751 14.5079L52.0356 14.4274C51.1658 13.9074 50.6636 13.3784 50.5455 13.6445Z" fill="white" stroke="black" stroke-width="0.214632" stroke-linecap="round" stroke-linejoin="round"/>
<path d="M52.0387 14.427C52.0639 14.3818 52.083 14.3334 52.0955 14.2832L51.296 12.1041C50.2454 13.1006 48.6185 13.1118 48.6185 13.1118L48.9184 13.929C48.1136 14.4822 46.4298 15.4454 44.8941 15.0457C44.8941 15.0457 45.3942 15.9916 46.0665 15.9755C46.0665 15.9755 47.9918 15.1895 49.0794 14.3658L49.1009 14.4232C48.5863 15.5538 47.3302 17.8171 45.3116 18.3977C45.3116 18.3977 46.4963 19.1242 47.2368 18.6611C47.2368 18.6611 49.1036 16.1993 49.6659 14.5354C50.1762 14.6083 50.7766 14.8616 50.9929 14.9582C50.4268 14.669 50.3855 14.0047 50.5464 13.643C50.6639 13.378 51.1662 13.907 52.0387 14.427Z" fill="#F17336" stroke="black" stroke-width="0.214632" stroke-linecap="round" stroke-linejoin="round"/>
<path d="M57.3586 19.1232C57.3586 19.1232 55.0132 15.5421 53.3343 15.0162C51.6553 14.4904 50.7152 13.2664 50.5473 13.6447C50.3793 14.023 50.4319 14.7324 51.0758 14.9969C51.0758 14.9969 49.3925 14.192 48.9547 14.6642C48.5168 15.1364 49.3716 15.7127 49.3716 15.7127C49.3716 15.7127 48.3747 16.2149 48.9424 16.7322C49.5101 17.2495 49.4017 17.1529 49.4017 17.1529C49.4017 17.1529 48.8034 17.6256 49.2289 18.0651C49.6544 18.5045 49.8009 18.4407 49.8009 18.4407C49.8009 18.4407 49.1666 18.6977 49.3974 19.0846C49.6281 19.4714 51.05 19.758 51.6472 19.517C52.2445 19.2761 52.9302 19.6093 53.6031 19.1844L55.964 23.2194C55.964 23.2194 58.1055 21.9671 57.3586 19.1232Z" fill="white" stroke="black" stroke-width="0.214632" stroke-linecap="round" stroke-linejoin="round"/>
<path d="M51.6044 15.8265C51.6044 15.8265 52.1152 17.0607 53.0317 17.4695L51.6044 15.8265Z" fill="#0B065A"/>
<path d="M51.6044 15.8265C51.6044 15.8265 52.1152 17.0607 53.0317 17.4695" stroke="black" stroke-width="0.214632" stroke-miterlimit="10" stroke-linecap="round"/>
<path d="M51.0631 14.9922L51.006 14.9658C51.0243 14.9755 51.0437 14.9842 51.0631 14.9922Z" stroke="black" stroke-width="0.214632" stroke-linecap="round" stroke-linejoin="round"/>
<path d="M51.0052 14.9658C51.0235 14.9755 51.0429 14.9842 51.0624 14.9922L51.0052 14.9658Z" fill="white" stroke="black" stroke-width="0.214632" stroke-linecap="round" stroke-linejoin="round"/>
<path d="M54.618 21.1556L51.9351 22.1413L51.0052 19.6102C51.2531 19.6151 51.4683 19.5378 51.6453 19.5222C52.6541 19.4321 51.3304 17.1076 51.9281 16.4219C51.9281 16.4219 52.7099 17.524 53.034 17.4693L54.3964 20.5514L54.618 21.1556Z" fill="white" stroke="black" stroke-width="0.214632" stroke-linecap="round" stroke-linejoin="round"/>
<path d="M51.0742 14.9971C51.0742 14.9971 52.0132 15.6259 51.4047 16.1588C51.4047 16.1588 52.1924 16.6771 51.5566 17.3967C51.5566 17.3967 52.3717 17.8055 51.8678 18.4618C51.8678 18.4618 52.3062 18.9173 52.0588 19.4319C52.0588 19.4319 51.3285 19.6717 50.8322 19.602" fill="white"/>
<path d="M51.0742 14.9971C51.0742 14.9971 52.0132 15.6259 51.4047 16.1588C51.4047 16.1588 52.1924 16.6771 51.5566 17.3967C51.5566 17.3967 52.3717 17.8055 51.8678 18.4618C51.8678 18.4618 52.3062 18.9173 52.0588 19.4319C52.0588 19.4319 51.3285 19.6717 50.8322 19.602" stroke="black" stroke-width="0.214632" stroke-linecap="round" stroke-linejoin="round"/>
<path d="M49.7966 18.4465C49.7966 18.4465 51.1628 18.6805 51.8678 18.4621" stroke="black" stroke-width="0.214632" stroke-linecap="round" stroke-linejoin="round"/>
<path d="M51.5567 17.3969C51.5567 17.3969 50.453 17.6695 49.3975 17.156" stroke="black" stroke-width="0.214632" stroke-linecap="round" stroke-linejoin="round"/>
<path d="M51.4048 16.1589C51.4048 16.1589 50.1707 16.263 49.3701 15.713" stroke="black" stroke-width="0.214632" stroke-linecap="round" stroke-linejoin="round"/>
<path d="M77.8607 39.2884C77.8607 39.4553 77.4437 42.3716 77.1094 43.2054C76.7752 44.0393 79.6367 47.0109 82.9973 43.8166C82.9973 43.8166 81.9698 40.9561 82.7752 38.7341C83.5806 36.5122 77.8607 39.2884 77.8607 39.2884Z" fill="white" stroke="black" stroke-width="0.214632" stroke-linecap="round" stroke-linejoin="round"/>
<path d="M81.5077 40.0447C81.5077 40.0447 80.0637 40.3167 79.1102 40.6886C78.1567 41.0604 79.5175 44.2064 81.3875 44.0862C83.2574 43.966 80.9888 47.1039 79.4708 45.771C77.9528 44.4382 77.3245 42.8097 77.3782 42.7898C77.4318 42.7699 77.9061 39.8091 77.9061 39.8091C77.9061 39.8091 80.6191 37.8565 81.5077 40.0447Z" fill="#E3E3E3"/>
<path d="M85.5814 44.0938C85.5814 44.0938 83.9427 43.8716 83.2484 43.3163C82.5541 42.7609 83.1652 43.7605 81.8876 44.0938C80.61 44.427 79.1656 44.6491 77.1384 41.6792C75.1112 38.7092 75.1664 54.6767 78.4991 52.8159C81.8318 50.955 85.5814 44.0938 85.5814 44.0938Z" fill="white" stroke="black" stroke-width="0.214632" stroke-linecap="round" stroke-linejoin="round"/>
<path d="M66.9736 30.3456L76.251 18.1809C76.251 18.1809 76.1389 17.7366 77.8071 18.7367C79.4753 19.7369 91.5805 24.7362 91.5805 24.7362L81.5267 39.2105L65.8629 32.97L66.9736 30.3456Z" fill="#654EF9" stroke="black" stroke-width="0.214632" stroke-miterlimit="10" stroke-linecap="round"/>
<path d="M61.1277 110.804C61.1277 110.804 59.9612 115.663 58.8365 117.011C57.7119 118.359 62.5025 118.195 62.5025 118.195C62.5025 118.195 63.0439 114.928 64.8768 112.012C66.7098 109.095 61.1277 110.804 61.1277 110.804Z" fill="white" stroke="black" stroke-width="0.214632" stroke-linecap="round" stroke-linejoin="round"/>
<path d="M83.5398 113.219C83.5398 113.219 84.7482 118.426 84.291 120.677C83.8338 122.928 88.1651 119.844 88.1651 119.844C88.1651 119.844 87.4139 120.177 87.2073 113.888C87.0007 107.598 83.5398 113.219 83.5398 113.219Z" fill="white" stroke="black" stroke-width="0.214632" stroke-linecap="round" stroke-linejoin="round"/>
<path d="M64.0022 97.223L58.8365 111.389C58.8365 111.389 62.0024 113.638 65.5019 114.096L73.1659 99.2229L64.0022 97.223Z" fill="#F17336" stroke="black" stroke-width="0.214632" stroke-linecap="round" stroke-linejoin="round"/>
<path d="M63.8352 98.1676L62.4938 101.752C62.4938 101.752 67.6734 104.127 70.9717 103.231L72.6153 100.056L63.8352 98.1676Z" fill="#E05918"/>
<path d="M79.8599 98.8333L81.3623 114.997C81.3623 114.997 84.4176 116.386 89.5832 114.553V97.2214L79.8599 98.8333Z" fill="#F17336" stroke="black" stroke-width="0.214632" stroke-linecap="round" stroke-linejoin="round"/>
<path d="M80.453 103.685C80.453 103.685 87.5996 104.444 89.4675 101.093V98.7416L80.1729 101.075L80.453 103.685Z" fill="#E05918"/>
<path d="M114.71 39.6879C114.71 39.6879 120.631 33.0123 120.576 32.6512C120.52 32.2901 115.699 20.861 115.004 21.1105C114.31 21.36 99.8873 31.1515 100.162 31.8195C100.437 32.4876 107.105 41.186 108.661 41.5198C110.216 41.8535 114.71 39.6879 114.71 39.6879Z" fill="#654EF9" stroke="black" stroke-width="0.214632" stroke-miterlimit="10" stroke-linecap="round"/>
<path d="M85.4148 34.5678C85.3735 36.734 83.7487 39.2897 82.1658 39.8446C81.1823 40.1896 77.5829 40.233 76.25 38.7752C75.8261 38.3116 75.2933 37.4782 74.7626 36.5559C74.4595 36.0273 74.1558 35.4693 73.8746 34.9359C73.7249 34.6505 73.5811 34.3725 73.4453 34.1096C73.2414 33.7099 73.0595 33.3455 72.9088 33.044C72.6539 32.5256 72.4977 32.194 72.4977 32.194C72.4977 32.194 73.8311 22.4041 83.2878 27.2366C83.2878 27.2366 83.5523 27.8665 83.804 28.6478C84.0106 29.2879 84.2086 30.03 84.2456 30.6111C84.332 31.901 85.4567 32.4011 85.4148 34.5678Z" fill="white" stroke="black" stroke-width="0.214632" stroke-linecap="round" stroke-linejoin="round"/>
<path d="M76.2872 36.9765C75.8445 36.0198 75.7195 34.9912 75.6927 34.2936C75.6927 34.2936 75.6927 34.2673 75.6884 34.219C75.6819 33.9958 75.6852 33.8113 75.6884 33.6776C75.7479 32.3743 76.2448 29.3469 79.4675 28.0259C83.634 26.3179 76.2207 26.2348 74.7059 29.2342C73.7116 31.2029 73.8425 32.1318 73.8425 32.1318C73.7132 32.1505 75.2559 37.1686 75.2559 37.1686C75.9035 38.3121 76.3226 38.6989 76.3226 38.6989C78.1207 40.3371 81.2361 39.8998 81.2361 39.8998C78.4904 39.8531 77.1366 38.8068 76.2872 36.9765Z" fill="#E3E3E3"/>
<path d="M75.6295 34.4484C75.6295 34.4484 74.4404 33.9923 74.0375 34.824C74.0204 34.8585 74.0063 34.8944 73.9951 34.9313C73.8448 34.6458 73.7016 34.3679 73.5658 34.105C73.3619 33.7052 73.18 33.3409 73.0292 33.0393C73.3474 31.56 73.7365 30.0726 74.5767 30.7567C74.58 30.7599 74.6851 32.785 75.6295 34.4484Z" fill="#0B065A"/>
<path d="M104.301 54.5088C104.301 54.5088 101.301 64.5063 101.023 64.5063C100.746 64.5063 94.5305 66.1472 92.8102 65.536C91.09 64.9248 90.3581 61.7301 90.3581 61.7301C90.3581 61.7301 91.4135 84.4756 91.9142 91.3911L92.4142 98.3065C92.4142 98.3065 91.4414 98.9992 90.4971 99.1398C89.5527 99.2804 86.8306 99.9173 86.8306 99.9173C86.8306 99.9173 85.7478 101.431 81.2502 101.389C76.7526 101.347 74.1266 102.224 71.8354 101.389C69.5442 100.554 63.2533 100.097 61.5454 97.4303C61.5454 97.4303 64.0308 81.2256 66.8082 68.5623C69.5855 55.8991 68.4748 49.5674 68.4748 49.5674C68.4748 49.5674 57.0049 37.1531 54.0054 36.3198C54.0054 36.3198 51.3944 20.2117 58.532 17.6844C58.532 17.6844 64.642 23.4613 68.0863 29.2375C71.5306 35.0138 76.5412 40.9414 76.5412 40.9414L77.5408 41.3921C77.5408 41.3921 76.9994 42.4551 78.1659 46.0099C79.3325 49.5647 79.3046 50.4812 79.3046 50.4812C79.3046 50.4812 81.5265 48.7685 82.4704 47.4726C83.4142 46.1768 85.1737 43.9366 85.1737 43.9366C85.1737 43.9366 85.303 43.6216 85.7752 43.8292C85.9168 43.892 86.3536 43.9022 86.9181 43.9317C88.2391 44.0026 90.2534 44.1823 90.7879 45.3987C91.552 47.134 94.4758 55.8937 94.8922 56.0606C95.3085 56.2274 100.644 47.1925 104.866 46.6924C109.087 46.1923 104.301 54.5088 104.301 54.5088Z" fill="#21345F" stroke="black" stroke-width="0.214632" stroke-miterlimit="10" stroke-linecap="round"/>
<path d="M105.118 46.9728C105.118 46.9728 103.856 45.4752 103.38 45.7563C102.904 46.0375 103.809 47.4578 104.59 47.9145C105.372 48.3711 105.553 47.1348 105.118 46.9728Z" fill="white" stroke="black" stroke-width="0.214632" stroke-linecap="round" stroke-linejoin="round"/>
<path d="M67.751 45.2623C67.751 45.2623 68.8064 46.8984 68.4732 49.5646" stroke="black" stroke-width="0.214632" stroke-linecap="round" stroke-linejoin="round"/>
<path d="M89.746 49.5648C89.746 49.5648 89.8565 58.5643 90.3566 61.7301" stroke="black" stroke-width="0.214632" stroke-linecap="round" stroke-linejoin="round"/>
<path d="M68.6136 56.0607C68.6136 56.0607 82.8598 58.6464 90.0531 56.7298" stroke="white" stroke-width="0.107316" stroke-miterlimit="10" stroke-linecap="round"/>
<path d="M76.5415 40.9413C76.5415 40.9413 75.889 43.5657 76.5415 46.1209" stroke="white" stroke-width="0.107316" stroke-miterlimit="10" stroke-linecap="round"/>
<path d="M76.8885 47.1362C76.8885 47.1362 78.2772 51.842 78.7214 51.8141" stroke="white" stroke-width="0.107316" stroke-miterlimit="10" stroke-linecap="round"/>
<path d="M79.1104 51.8146C79.1104 51.8146 81.2487 50.8584 82.471 49.4756C83.6933 48.0929 86.1369 44.5101 86.1369 44.5101" stroke="white" stroke-width="0.107316" stroke-miterlimit="10" stroke-linecap="round"/>
<path d="M68.6136 57.0925C68.6136 57.0925 73.6113 58.3771 78.3053 58.4876" stroke="white" stroke-width="0.107316" stroke-miterlimit="10" stroke-linecap="round"/>
<path d="M79.4709 58.5628C79.4709 58.5628 83.6648 59.1187 87.2202 58.4899" stroke="white" stroke-width="0.107316" stroke-miterlimit="10" stroke-linecap="round"/>
<path d="M86.8312 99.9172C86.8312 99.9172 86.6644 94.8905 86.8312 92.1405" stroke="black" stroke-width="0.214632" stroke-linecap="round" stroke-linejoin="round"/>
<path d="M83.7401 119.224C83.7401 119.224 83.9654 118.998 84.6415 119.399C85.3176 119.799 86.5453 119.349 87.2971 118.497C88.0488 117.646 88.6745 118.793 89.6263 119.547C90.5782 120.301 92.3318 121.603 93.8117 121.453C95.2915 121.302 96.1163 121.979 96.4168 122.931C96.7172 123.883 94.9889 124.083 93.7618 124.208C92.5346 124.333 83.3414 124.534 83.1407 123.733C82.94 122.931 83.3645 118.973 83.7401 119.224Z" fill="#0B065A" stroke="black" stroke-width="0.214632" stroke-miterlimit="10" stroke-linecap="round"/>
<path d="M58.8885 116.395C58.8885 116.395 59.1697 116.245 59.7009 116.825C60.2321 117.404 61.537 117.329 62.5034 116.732C63.4698 116.135 63.7376 117.414 64.4287 118.412C65.1198 119.409 66.421 121.164 67.8794 121.449C69.3378 121.733 69.9324 122.621 69.9436 123.619C69.9549 124.617 68.2432 124.308 67.0321 124.072C65.8211 123.835 56.9654 121.361 57.0056 120.536C57.0459 119.711 58.6014 116.047 58.8885 116.395Z" fill="#0B065A" stroke="black" stroke-width="0.214632" stroke-miterlimit="10" stroke-linecap="round"/>
<path d="M112.38 123.949C110.387 124.868 109.875 123.896 108.803 123.183C108.064 122.692 108.051 120.996 108.446 118.624V118.62C108.626 117.539 108.892 116.313 109.21 115.005C110.234 110.814 106.638 98.2221 106.638 98.2221C106.741 93.7927 112.634 97.4398 112.634 97.4398C112.634 97.4398 112.396 101.459 112.226 106.162C112.056 110.865 112.226 110.558 112.942 112.704C113.292 113.754 113.639 116.246 113.673 118.624C113.709 121.113 113.398 123.48 112.38 123.949Z" fill="white" stroke="black" stroke-width="0.214632" stroke-linecap="round" stroke-linejoin="round"/>
<path d="M108.726 117.738C108.726 117.738 109.151 120.441 110.263 120.645C111.374 120.849 112.892 120.682 113.521 117.868C113.521 117.868 113.701 121.081 113.132 121.664C112.563 122.247 109.269 122.799 108.911 121.053C108.553 119.306 108.416 118.799 108.726 117.738Z" fill="#E3E3E3"/>
<path d="M107.837 102.333C107.837 102.333 110.188 103.815 112.243 102.518L112.355 100.648L107.485 100.833L107.837 102.333Z" fill="#E3E3E3"/>
<path d="M114.203 98.1213C114.203 98.1213 117.1 104.459 119.416 107.867C121.732 111.274 121.461 112.671 122.04 114.068C122.619 115.465 124.255 117.544 123.982 120.338C123.709 123.132 127.832 122.28 128.037 121.224C128.241 120.167 127.355 112.467 127.083 112.092C126.81 111.717 124.595 110.965 124.118 109.604C123.641 108.243 121.256 98.3257 120.472 97.3036C119.688 96.2814 114.203 98.1213 114.203 98.1213Z" fill="white" stroke="black" stroke-width="0.214632" stroke-linecap="round" stroke-linejoin="round"/>
<path d="M125.112 110.998C125.112 110.998 126.111 113.053 126.408 115.331C126.704 117.608 127.907 120.811 124.112 120.404L124.047 121.144C124.047 121.144 128.017 122.182 128.148 120.33C128.279 118.478 126.723 111.887 126.723 111.887C126.723 111.887 126.241 111.73 125.112 110.998Z" fill="#E3E3E3"/>
<path d="M115.521 100.716L116.651 102.85C116.651 102.85 118.826 103.54 121.89 101.891L121.3 99.8369L115.521 100.716Z" fill="#E3E3E3"/>
<path d="M102.745 97.7229V100.806C102.745 100.806 120.52 102.889 126.922 99.0563V96.5564L102.745 97.7229Z" fill="#F17336" stroke="black" stroke-width="0.214632" stroke-linecap="round" stroke-linejoin="round"/>
<path d="M112.38 123.95C110.387 124.869 109.875 123.896 108.803 123.183C108.064 122.693 108.051 120.997 108.446 118.625C108.452 118.752 108.62 121.191 110.412 121.267C112.249 121.342 113.154 120.986 113.673 118.625C113.709 121.113 113.398 123.481 112.38 123.95Z" fill="#0B065A" stroke="black" stroke-width="0.214632" stroke-miterlimit="10" stroke-linecap="round"/>
<path d="M123.973 120.731C123.973 120.731 125.336 121.574 127.509 120.296C127.509 120.296 127.394 112.739 125.815 111.303C125.815 111.303 125.439 110.738 126.078 110.891C126.716 111.045 128.403 112.322 128.403 113.038C128.403 113.753 128.428 115.491 130.013 117.561C130.013 117.561 130.183 118.268 129.877 117.945C129.57 117.621 128.522 116.377 128.522 116.377C128.522 116.377 128.207 116.565 128.863 118.158C129.519 119.751 129.503 121.948 128.067 122.826C126.631 123.704 124.586 124.248 124.237 123.84C123.888 123.431 123.565 120.339 123.973 120.731Z" fill="#0B065A" stroke="black" stroke-width="0.214632" stroke-miterlimit="10" stroke-linecap="round"/>
<path d="M117.205 29.3646C117.32 29.3705 118.427 31.1605 118.298 33.7897C118.202 35.7365 118.77 35.7059 118.576 36.8724C118.381 38.0389 117.034 40.299 115.826 41.3072C115.826 41.3072 115.852 41.6474 116.057 42.434C116.241 43.1391 117.79 42.214 117.816 42.2859C118.249 43.4771 116.826 51.5205 114.16 51.0622C111.493 50.604 109.743 43.7583 109.743 43.7583C109.743 43.7583 110.744 43.4525 110.994 42.536C111.244 41.6195 110.994 40.8098 110.577 40.1455C110.16 39.4812 109.45 37.9815 109.494 37.1482C109.494 37.1482 107.619 38.6061 107.952 34.3988C108.286 30.1914 110.4 29.018 117.205 29.3646Z" fill="white" stroke="black" stroke-width="0.214632" stroke-linecap="round" stroke-linejoin="round"/>
<path d="M116.95 30.3885C116.95 30.3885 116.336 32.5552 114.822 33.2157C113.297 33.8811 111.887 34.0952 110.928 35.3036C109.922 36.572 111.826 39.2742 111.618 41.567C111.41 43.8598 111.703 46.2321 113.264 46.3962C114.825 46.5604 116.2 45.8961 116.2 45.8961C116.2 45.8961 118.45 51.101 114.784 50.6873C111.118 50.2736 109.743 43.7579 109.743 43.7579C109.743 43.7579 111.215 43.6329 111.201 41.6888C111.201 41.6888 111.382 41.0262 110.243 39.3091L109.202 37.5228C109.202 37.5228 108.521 37.5502 108.063 36.2313C107.605 34.9124 108.368 32.7596 108.814 33.1347L109.763 31.4176C109.763 31.4176 115.466 28.8421 116.647 29.4967C117.827 30.1513 117.817 30.6632 117.817 30.6632L116.95 30.3885Z" fill="#E3E3E3"/>
<path d="M116.95 30.3883C116.95 30.3883 117.425 31.4717 118.238 32.2556C118.238 32.2556 118.059 29.7997 117.207 29.3645C116.355 28.9293 110.674 30.2831 109.773 31.6616C108.872 33.0401 109.329 34.484 110.051 36.5391C110.051 36.5391 109.79 34.6353 110.667 34.2484C111.543 33.8616 114.076 34.2077 116.95 30.3883Z" fill="#0B065A"/>
<path d="M111.856 46.7867C111.856 46.7867 114.077 47.8427 116.132 46.2877C118.187 44.7327 117.465 54.5918 114.771 53.3973C112.077 52.2029 108.469 47.5915 111.856 46.7867Z" fill="#F17336" stroke="black" stroke-width="0.214632" stroke-linecap="round" stroke-linejoin="round"/>
<path d="M115.826 41.3075C115.826 41.3075 114.317 42.048 112.614 40.7516" stroke="black" stroke-width="0.214632" stroke-linecap="round" stroke-linejoin="round"/>
<path d="M109.262 34.1705C109.262 34.1705 108.827 33.9558 108.485 34.4559C107.795 35.462 108.337 37.2891 109.494 37.1501C109.494 37.1501 109.396 37.8278 109.844 38.7185C109.849 38.7264 109.85 38.7356 109.849 38.7444C109.847 38.7533 109.842 38.7613 109.835 38.7669C109.828 38.7726 109.819 38.7756 109.81 38.7754C109.801 38.7752 109.793 38.7717 109.786 38.7657C109.365 38.4089 108.208 37.4243 108.115 37.2891C108.115 37.2891 105.597 32.3525 110.059 29.1792C113.334 26.8473 117.055 28.6255 117.055 28.6255C117.962 29.4953 118.118 31.0401 118.118 31.0401C118.118 31.0401 117.395 29.7974 114.391 30.547C111.387 31.2966 109.66 33.1488 109.66 33.1488L109.262 34.1705Z" fill="#0B065A" stroke="black" stroke-width="0.214632" stroke-miterlimit="10" stroke-linecap="round"/>
<path d="M110.198 43.302C110.198 43.302 112.462 48.8063 114.021 49.6476C114.021 49.6476 114.312 49.1905 115.548 45.648L116.562 42.7467C116.672 42.4297 116.876 42.1536 117.146 41.9547C119.381 40.3106 131.086 33.3968 138.295 32.7615C146.377 32.0495 139.655 47.1359 139.655 47.1359C139.655 47.1359 125.741 48.7773 121.742 51.0873C121.742 51.0873 128.824 81.3085 128.533 97.5142C128.533 97.5142 117.908 101.388 101.079 99.139C101.079 99.139 102.555 78.4893 102.745 68.7273C102.745 68.7273 95.8297 65.2288 97.4126 61.7292C98.9955 58.2297 102.578 47.5636 103.798 46.3981C105.018 45.2327 110.013 42.869 110.198 43.302Z" fill="#21345F" stroke="black" stroke-width="0.214632" stroke-miterlimit="10" stroke-linecap="round"/>
<path d="M107.149 58.1741C107.149 58.1741 117.988 58.0426 122.53 56.5804" stroke="white" stroke-width="0.107316" stroke-miterlimit="10" stroke-linecap="round"/>
<path d="M115.072 58.641C115.072 58.641 118.161 58.8557 122.327 57.7712" stroke="white" stroke-width="0.107316" stroke-miterlimit="10" stroke-linecap="round"/>
<path d="M117.45 58.6415L115.727 71.5291L107.149 67.4521L108.872 54.5646L117.45 58.6415Z" fill="#F17336" stroke="black" stroke-width="0.214632" stroke-linecap="round" stroke-linejoin="round"/>
<path d="M108.872 54.564L109.5 54.2812L118.078 58.3582L117.449 58.641L108.872 54.564Z" fill="white" stroke="black" stroke-width="0.214632" stroke-miterlimit="10" stroke-linecap="round"/>
<path d="M118.078 58.3583L117.45 58.6411L115.727 71.5286L116.355 71.2458L118.078 58.3583Z" fill="white" stroke="black" stroke-width="0.214632" stroke-miterlimit="10" stroke-linecap="round"/>
<path d="M121.034 47.4816L121.741 51.0879" stroke="black" stroke-width="0.214632" stroke-linecap="round" stroke-linejoin="round"/>
<path d="M116.021 62.5652C116.021 62.5652 116.983 62.4633 117.381 62.5652C117.78 62.6672 118.28 62.0651 118.455 62.3983C118.63 62.7315 118.038 63.2032 118.038 63.2032C118.038 63.2032 118.242 63.361 118.103 63.9625C117.964 64.564 117.474 65.7412 116.95 66.0224C116.02 66.5219 113.798 64.9455 113.798 64.9455L116.021 62.5652Z" fill="white" stroke="black" stroke-width="0.214632" stroke-linecap="round" stroke-linejoin="round"/>
<path d="M118.039 63.2013C117.88 63.3068 117.701 63.3765 117.513 63.4057C117.325 63.4349 117.133 63.4228 116.951 63.3703" stroke="black" stroke-width="0.214632" stroke-linecap="round" stroke-linejoin="round"/>
<path d="M83.8065 28.6467C83.3375 28.1976 80.6771 26.6432 77.0842 28.9574C74.455 30.6509 73.4462 34.1086 73.4462 34.1086C72.8919 33.0225 72.5013 32.193 72.5013 32.193C72.5013 32.193 73.9109 24.0874 80.9996 25.9998C81.7964 26.2144 82.7118 26.6941 83.2913 27.2339C83.2903 27.2355 83.5548 27.8655 83.8065 28.6467Z" fill="#0B065A" stroke="black" stroke-width="0.214632" stroke-miterlimit="10" stroke-linecap="round"/>
<path d="M91.5805 24.7363L92.3853 37.8723L93.8877 40.9415C93.8877 40.9415 92.8602 41.8999 90.9435 41.0945L92.0269 38.1229L91.3293 25.1023L91.5805 24.7363Z" fill="#F17336"/>
<path d="M120.687 32.7382L121.492 45.8741L122.994 48.9434C122.994 48.9434 121.966 49.9017 120.05 49.0963L121.133 46.1247L120.436 33.1041L120.687 32.7382Z" fill="#F17336"/>
<path d="M139.407 33.2778C139.407 33.2778 138.552 31.5156 138.022 31.6712C137.491 31.8268 138.022 33.4269 138.665 34.0606C139.309 34.6943 139.788 33.5417 139.407 33.2778Z" fill="white" stroke="black" stroke-width="0.214632" stroke-linecap="round" stroke-linejoin="round"/>
<path d="M102.745 74.0608L107.913 77.1445C107.913 77.1445 108.869 76.1024 110.785 74.8522C112.701 73.602 116.741 67.6454 116.741 67.6454C114.45 67.3535 105.535 62.271 105.785 62.0816L107.326 58.2982" fill="#5842E2"/>
<path d="M102.745 74.0608L107.913 77.1445C107.913 77.1445 108.869 76.1024 110.785 74.8522C112.701 73.602 116.741 67.6454 116.741 67.6454C114.45 67.3535 105.535 62.271 105.785 62.0816L107.326 58.2982" stroke="black" stroke-width="0.214632" stroke-miterlimit="10" stroke-linecap="round"/>
<path d="M163.204 28.574L127.003 34.4437L131.101 59.7208L167.302 53.851L163.204 28.574Z" fill="white" stroke="black" stroke-width="0.214632" stroke-linecap="round" stroke-linejoin="round"/>
<path d="M161.761 30.2318L128.894 35.561L132.543 58.0637L165.41 52.7345L161.761 30.2318Z" stroke="#F17336" stroke-width="0.214632" stroke-linecap="round" stroke-linejoin="round"/>
<path d="M141.214 30.9107C141.214 30.9107 139.894 31.8298 139.993 32.2092C140.093 32.5886 141.286 31.9409 141.77 31.3566C142.254 30.7723 141.419 30.5807 141.214 30.9107Z" fill="white" stroke="black" stroke-width="0.214632" stroke-linecap="round" stroke-linejoin="round"/>
<path d="M142.027 31.39C142.027 31.39 140.458 32.482 140.578 32.9332C140.697 33.3845 142.113 32.6156 142.689 31.9196C143.264 31.2237 142.27 30.9951 142.027 31.39Z" fill="white" stroke="black" stroke-width="0.214632" stroke-linecap="round" stroke-linejoin="round"/>
<path d="M142.91 32.0192C142.91 32.0192 141.341 33.1111 141.461 33.5624C141.58 34.0137 142.996 33.2448 143.571 32.5488C144.146 31.8529 143.153 31.627 142.91 32.0192Z" fill="white" stroke="black" stroke-width="0.214632" stroke-linecap="round" stroke-linejoin="round"/>
<path d="M143.152 33.0683C143.152 33.0683 141.823 33.9928 141.924 34.3748C142.025 34.7569 143.225 34.1065 143.711 33.5163C144.198 32.9261 143.358 32.7356 143.152 33.0683Z" fill="white" stroke="black" stroke-width="0.214632" stroke-linecap="round" stroke-linejoin="round"/>
<path d="M78.4087 33.8717C78.5764 33.7958 78.6246 33.5406 78.5165 33.3017C78.4084 33.0627 78.1848 32.9305 78.0171 33.0064C77.8495 33.0823 77.8012 33.3375 77.9094 33.5764C78.0175 33.8154 78.2411 33.9475 78.4087 33.8717Z" fill="black"/>
<path d="M83.2832 32.4302C83.4622 32.3875 83.5581 32.1461 83.4972 31.891C83.4364 31.6359 83.242 31.4637 83.063 31.5063C82.884 31.549 82.7881 31.7904 82.849 32.0455C82.9098 32.3007 83.1042 32.4729 83.2832 32.4302Z" fill="black"/>
<path d="M79.7658 36.5297C79.7658 36.5297 81.6358 37.6404 83.4682 36.1777L79.7658 36.5297Z" fill="white"/>
<path d="M79.7658 36.5297C79.7658 36.5297 81.6358 37.6404 83.4682 36.1777" stroke="black" stroke-width="0.214632" stroke-linecap="round" stroke-linejoin="round"/>
<path d="M81.1934 32.3638C81.1934 32.3638 81.7118 33.7589 82.4152 34.1967C83.0054 34.5616 81.6189 35.1626 81.6189 35.1626" fill="white"/>
<path d="M81.1934 32.3638C81.1934 32.3638 81.7118 33.7589 82.4152 34.1967C83.0054 34.5616 81.6189 35.1626 81.6189 35.1626" stroke="black" stroke-width="0.214632" stroke-linecap="round" stroke-linejoin="round"/>
<path d="M81.8776 30.5679C81.8776 30.5679 82.508 29.3435 83.5447 30.0018L81.8776 30.5679Z" fill="white"/>
<path d="M81.8776 30.5679C81.8776 30.5679 82.508 29.3435 83.5447 30.0018" stroke="black" stroke-width="0.214632" stroke-linecap="round" stroke-linejoin="round"/>
<path d="M76.9274 32.132C76.9274 32.132 77.5579 30.9081 78.5945 31.5665L76.9274 32.132Z" fill="white"/>
<path d="M76.9274 32.132C76.9274 32.132 77.5579 30.9081 78.5945 31.5665" stroke="black" stroke-width="0.214632" stroke-linecap="round" stroke-linejoin="round"/>
<path d="M75.5727 34.4296C75.5727 34.4296 73.7918 33.7202 73.8471 35.5532C73.9024 37.3861 75.5727 37.039 75.5727 37.039" fill="#E3E3E3"/>
<path d="M75.5727 34.4296C75.5727 34.4296 73.7918 33.7202 73.8471 35.5532C73.9024 37.3861 75.5727 37.039 75.5727 37.039" stroke="black" stroke-width="0.214632" stroke-miterlimit="10" stroke-linecap="round"/>
<path d="M138.673 53.2865C140.197 53.2865 141.431 52.0517 141.431 50.5285C141.431 49.0053 140.197 47.7705 138.673 47.7705C137.15 47.7705 135.915 49.0053 135.915 50.5285C135.915 52.0517 137.15 53.2865 138.673 53.2865Z" stroke="#F17336" stroke-width="0.214632" stroke-linecap="round" stroke-linejoin="round"/>
<path d="M138.674 52.604C139.82 52.604 140.749 51.6748 140.749 50.5285C140.749 49.3822 139.82 48.453 138.674 48.453C137.527 48.453 136.598 49.3822 136.598 50.5285C136.598 51.6748 137.527 52.604 138.674 52.604Z" stroke="#F17336" stroke-width="0.214632" stroke-linecap="round" stroke-linejoin="round"/>
<path d="M113.743 21.1064L104.953 27.1102" stroke="black" stroke-width="0.214632" stroke-linecap="round" stroke-linejoin="round"/>
<path d="M104.078 27.4856L100.787 30.1878" stroke="black" stroke-width="0.214632" stroke-linecap="round" stroke-linejoin="round"/>
<path d="M103.87 37.8717L106.37 40.751" stroke="black" stroke-width="0.214632" stroke-linecap="round" stroke-linejoin="round"/>
<path d="M75.2594 18.0825L68.8065 26.8395" stroke="black" stroke-width="0.214632" stroke-linecap="round" stroke-linejoin="round"/>
<path d="M79.4709 18.8171L85.5814 21.4587" stroke="black" stroke-width="0.214632" stroke-linecap="round" stroke-linejoin="round"/>
<path d="M86.4147 21.7917L89.7474 23.2244" stroke="black" stroke-width="0.214632" stroke-linecap="round" stroke-linejoin="round"/>
<path d="M104.58 45.575C104.58 45.575 105.484 46.8091 105.849 46.6847C106.215 46.5602 105.575 45.4371 105.004 45.0014C104.433 44.5657 104.259 45.3953 104.58 45.575Z" fill="white" stroke="black" stroke-width="0.214632" stroke-linecap="round" stroke-linejoin="round"/>
<path d="M105.199 44.811C105.199 44.811 105.94 46.469 106.394 46.4207C106.849 46.3724 106.389 44.9027 105.835 44.2534C105.28 43.6042 104.869 44.5228 105.199 44.811Z" fill="white" stroke="black" stroke-width="0.214632" stroke-linecap="round" stroke-linejoin="round"/>
<path d="M106.107 44.2648C106.107 44.2648 106.763 45.7135 107.158 45.6733C107.554 45.633 107.143 44.3501 106.657 43.7802C106.171 43.2104 105.82 44.011 106.107 44.2648Z" fill="white" stroke="black" stroke-width="0.214632" stroke-linecap="round" stroke-linejoin="round"/>
<path d="M106.97 43.9035C106.97 43.9035 107.403 45.0872 107.758 45.011C108.114 44.9348 107.882 43.8702 107.508 43.4291C107.135 42.9881 106.739 43.7146 106.97 43.9035Z" fill="white" stroke="black" stroke-width="0.214632" stroke-linecap="round" stroke-linejoin="round"/>
<path d="M105.787 56.749C105.787 56.749 104.763 56.3525 103.19 56.462" stroke="black" stroke-width="0.214632" stroke-linecap="round" stroke-linejoin="round"/>
<path d="M94.8927 56.0607C94.8927 56.0607 93.8732 57.2159 93.5797 58.1743L94.8927 56.0607Z" fill="#0B065A"/>
<path d="M94.8927 56.0607C94.8927 56.0607 93.8732 57.2159 93.5797 58.1743" stroke="black" stroke-width="0.214632" stroke-miterlimit="10" stroke-linecap="round"/>
<path d="M139.787 39.91C140.33 39.8156 140.477 40.1654 140.522 40.3597C140.526 40.3762 140.524 40.3937 140.516 40.4087C140.508 40.4237 140.494 40.4352 140.478 40.4407L140.206 40.5539C140.195 40.5585 140.182 40.5605 140.17 40.5598C140.157 40.5591 140.145 40.5558 140.134 40.55C140.123 40.5441 140.114 40.536 140.106 40.5262C140.098 40.5163 140.093 40.5049 140.09 40.4928C140.058 40.3828 140.001 40.3248 139.863 40.3484C139.674 40.3817 139.683 40.504 139.717 40.6999L139.781 41.0669C139.816 41.2633 139.849 41.3808 140.038 41.3481C140.178 41.3234 140.205 41.2504 140.199 41.1334C140.197 41.1215 140.198 41.1094 140.202 41.0979C140.206 41.0865 140.212 41.076 140.22 41.0673C140.229 41.0586 140.239 41.0518 140.25 41.0474C140.261 41.0431 140.273 41.0413 140.285 41.0422L140.585 41.0551C140.602 41.0551 140.619 41.0617 140.632 41.0737C140.644 41.0856 140.652 41.102 140.653 41.1195C140.677 41.3153 140.657 41.6942 140.114 41.7891C139.51 41.8964 139.395 41.4495 139.365 41.2815L139.254 40.6441C139.225 40.4734 139.182 40.0157 139.787 39.91Z" fill="#F17336"/>
<path d="M140.685 39.8001L141.758 39.6129C141.768 39.6096 141.779 39.6088 141.79 39.6104C141.8 39.612 141.81 39.6161 141.819 39.6222C141.828 39.6283 141.835 39.6364 141.84 39.6457C141.845 39.6551 141.848 39.6655 141.848 39.6762L141.898 39.9617C141.901 39.9718 141.902 39.9825 141.9 39.993C141.898 40.0034 141.894 40.0134 141.888 40.022C141.882 40.0307 141.874 40.0379 141.865 40.043C141.856 40.0482 141.845 40.0512 141.835 40.0518L141.218 40.1591C141.208 40.1595 141.197 40.1624 141.188 40.1675C141.179 40.1725 141.171 40.1797 141.165 40.1883C141.158 40.197 141.154 40.2069 141.153 40.2174C141.151 40.2279 141.152 40.2386 141.155 40.2487L141.169 40.3303C141.17 40.3408 141.173 40.351 141.178 40.3601C141.183 40.3692 141.19 40.3771 141.199 40.3831C141.208 40.3891 141.218 40.3931 141.228 40.3948C141.238 40.3966 141.249 40.396 141.259 40.3931L141.654 40.3244C141.664 40.321 141.675 40.3201 141.685 40.3216C141.696 40.3232 141.706 40.3272 141.715 40.3332C141.724 40.3393 141.731 40.3474 141.736 40.3567C141.741 40.3661 141.744 40.3765 141.744 40.3872L141.794 40.6726C141.797 40.6828 141.798 40.6935 141.796 40.7039C141.794 40.7144 141.79 40.7243 141.784 40.733C141.778 40.7417 141.77 40.7488 141.761 40.754C141.752 40.7592 141.741 40.7622 141.731 40.7628L141.336 40.832C141.325 40.8324 141.315 40.8353 141.306 40.8403C141.296 40.8454 141.288 40.8525 141.282 40.8612C141.276 40.8699 141.272 40.8798 141.27 40.8903C141.269 40.9007 141.269 40.9115 141.273 40.9216L141.286 41.0032C141.287 41.0137 141.29 41.0239 141.295 41.0331C141.301 41.0423 141.308 41.0503 141.316 41.0563C141.325 41.0624 141.335 41.0665 141.345 41.0682C141.356 41.07 141.366 41.0694 141.377 41.0665L141.994 40.9591C142.004 40.9558 142.014 40.9549 142.025 40.9564C142.036 40.9579 142.046 40.9619 142.054 40.968C142.063 40.9741 142.07 40.9822 142.075 40.9915C142.08 41.0009 142.083 41.0113 142.083 41.0219L142.133 41.3079C142.136 41.318 142.137 41.3287 142.136 41.3392C142.134 41.3497 142.13 41.3596 142.124 41.3683C142.118 41.377 142.11 41.3841 142.101 41.3892C142.091 41.3943 142.081 41.3971 142.07 41.3975L140.997 41.5848C140.987 41.5876 140.977 41.5881 140.966 41.5863C140.956 41.5845 140.946 41.5805 140.937 41.5744C140.929 41.5683 140.922 41.5605 140.917 41.5513C140.911 41.5421 140.908 41.532 140.908 41.5215L140.622 39.8903C140.619 39.8802 140.618 39.8695 140.62 39.8591C140.622 39.8487 140.626 39.8388 140.632 39.8301C140.638 39.8215 140.646 39.8143 140.655 39.8091C140.664 39.8039 140.674 39.8008 140.685 39.8001Z" fill="#F17336"/>
<path d="M143.6 41.1306L143.309 41.181C143.297 41.1838 143.285 41.1829 143.273 41.1784C143.262 41.1739 143.252 41.166 143.245 41.1558L142.89 40.6901C142.887 40.6867 142.884 40.6841 142.88 40.6824C142.876 40.6807 142.872 40.68 142.867 40.6804L142.765 40.6981C142.755 40.6996 142.745 40.7033 142.736 40.7089C142.727 40.7145 142.719 40.7219 142.713 40.7307C142.707 40.7395 142.702 40.7494 142.7 40.7598C142.698 40.7703 142.698 40.7811 142.7 40.7915L142.771 41.1939C142.773 41.2043 142.773 41.2151 142.771 41.2256C142.769 41.236 142.764 41.2459 142.758 41.2547C142.752 41.2634 142.744 41.2707 142.735 41.2763C142.726 41.2818 142.716 41.2854 142.705 41.2867L142.42 41.3366C142.409 41.3388 142.399 41.3388 142.388 41.3366C142.378 41.3345 142.368 41.3302 142.359 41.324C142.35 41.3179 142.343 41.31 142.338 41.301C142.332 41.2919 142.328 41.2817 142.327 41.2712L142.043 39.6453C142.041 39.635 142.041 39.6242 142.043 39.6138C142.045 39.6034 142.049 39.5935 142.055 39.5848C142.061 39.5761 142.069 39.5687 142.078 39.5631C142.087 39.5576 142.098 39.554 142.108 39.5525L142.666 39.4549C143.12 39.3755 143.337 39.537 143.411 39.9555C143.452 40.1921 143.422 40.3681 143.304 40.4889C143.3 40.4938 143.298 40.4998 143.298 40.506C143.298 40.5122 143.3 40.5183 143.304 40.5232L143.662 40.9782C143.673 40.991 143.681 41.0067 143.684 41.0235C143.687 41.0404 143.685 41.0577 143.678 41.0735C143.672 41.0894 143.661 41.1031 143.647 41.1132C143.634 41.1233 143.617 41.1293 143.6 41.1306ZM142.563 40.0038L142.596 40.1927C142.597 40.2032 142.601 40.2133 142.607 40.2224C142.612 40.2315 142.62 40.2393 142.628 40.2454C142.637 40.2515 142.647 40.2557 142.658 40.2578C142.668 40.2599 142.679 40.2598 142.689 40.2576L142.819 40.235C142.941 40.2136 143 40.1878 142.972 40.0295C142.944 39.8712 142.881 39.8686 142.757 39.8884L142.627 39.911C142.617 39.9125 142.607 39.9163 142.597 39.922C142.588 39.9278 142.58 39.9353 142.574 39.9443C142.568 39.9532 142.564 39.9633 142.562 39.9739C142.56 39.9845 142.561 39.9954 142.563 40.0059V40.0038Z" fill="#F17336"/>
<path d="M144.197 40.9471L143.988 39.7538C143.988 39.7432 143.985 39.7328 143.98 39.7234C143.975 39.714 143.968 39.706 143.959 39.6999C143.951 39.6938 143.941 39.6898 143.93 39.6883C143.92 39.6867 143.909 39.6877 143.899 39.691L143.542 39.7533C143.532 39.7561 143.521 39.7566 143.511 39.7548C143.5 39.753 143.491 39.7489 143.482 39.7429C143.473 39.7368 143.466 39.7289 143.461 39.7198C143.456 39.7106 143.453 39.7004 143.452 39.6899L143.402 39.4045C143.399 39.3944 143.398 39.3837 143.4 39.3733C143.402 39.3629 143.406 39.3529 143.412 39.3443C143.418 39.3356 143.426 39.3285 143.435 39.3234C143.444 39.3183 143.455 39.3154 143.465 39.3149L144.77 39.0868C144.78 39.0835 144.791 39.0826 144.802 39.0841C144.812 39.0856 144.822 39.0896 144.831 39.0957C144.84 39.1018 144.847 39.1098 144.852 39.1192C144.857 39.1285 144.86 39.139 144.86 39.1496L144.91 39.4351C144.913 39.4452 144.914 39.4559 144.912 39.4664C144.91 39.4768 144.906 39.4868 144.9 39.4954C144.894 39.5041 144.886 39.5113 144.877 39.5164C144.868 39.5216 144.857 39.5246 144.847 39.5252L144.49 39.5875C144.479 39.588 144.469 39.5909 144.46 39.596C144.451 39.6011 144.443 39.6082 144.437 39.6169C144.431 39.6255 144.426 39.6354 144.425 39.6458C144.423 39.6563 144.424 39.6669 144.427 39.6771L144.635 40.8704C144.639 40.8805 144.639 40.8913 144.638 40.9017C144.636 40.9122 144.632 40.9222 144.626 40.9308C144.62 40.9395 144.612 40.9466 144.602 40.9517C144.593 40.9567 144.583 40.9596 144.572 40.96L144.287 41.0099C144.277 41.0128 144.266 41.0134 144.256 41.0117C144.245 41.01 144.235 41.006 144.227 41C144.218 40.9939 144.211 40.9861 144.206 40.9769C144.201 40.9678 144.198 40.9576 144.197 40.9471Z" fill="#F17336"/>
<path d="M145.077 39.0328L145.357 38.9835C145.367 38.9802 145.378 38.9794 145.389 38.981C145.399 38.9826 145.409 38.9867 145.418 38.9928C145.427 38.9989 145.434 39.007 145.439 39.0164C145.444 39.0257 145.447 39.0361 145.447 39.0468L145.732 40.6785C145.735 40.6887 145.736 40.6994 145.734 40.7098C145.733 40.7203 145.729 40.7303 145.723 40.7389C145.716 40.7476 145.708 40.7547 145.699 40.7598C145.69 40.7649 145.679 40.7677 145.669 40.7681L145.389 40.817C145.379 40.8199 145.368 40.8205 145.358 40.8188C145.347 40.817 145.338 40.813 145.329 40.807C145.32 40.801 145.313 40.7931 145.308 40.784C145.303 40.7748 145.3 40.7647 145.299 40.7542L145.014 39.1225C145.011 39.1123 145.01 39.1016 145.012 39.0912C145.013 39.0808 145.017 39.0709 145.024 39.0623C145.03 39.0536 145.038 39.0465 145.047 39.0414C145.056 39.0363 145.066 39.0334 145.077 39.0328Z" fill="#F17336"/>
<path d="M145.765 38.9125L146.861 38.7209C146.871 38.7177 146.882 38.7168 146.892 38.7185C146.903 38.7201 146.913 38.7241 146.921 38.7302C146.93 38.7364 146.937 38.7444 146.942 38.7538C146.948 38.7632 146.95 38.7736 146.951 38.7842L147.001 39.0697C147.004 39.0798 147.004 39.0905 147.003 39.101C147.001 39.1115 146.997 39.1214 146.991 39.1301C146.985 39.1387 146.977 39.1459 146.968 39.1511C146.958 39.1562 146.948 39.1592 146.937 39.1598L146.294 39.272C146.283 39.2725 146.273 39.2754 146.263 39.2805C146.254 39.2856 146.246 39.2928 146.24 39.3014C146.234 39.31 146.23 39.3199 146.228 39.3303C146.226 39.3408 146.227 39.3515 146.23 39.3616L146.245 39.4431C146.245 39.4536 146.248 39.4638 146.254 39.473C146.259 39.4821 146.266 39.49 146.274 39.4961C146.283 39.5021 146.293 39.5062 146.303 39.508C146.314 39.5098 146.324 39.5093 146.334 39.5065L146.755 39.4329C146.765 39.4296 146.776 39.4286 146.786 39.4302C146.797 39.4318 146.807 39.4358 146.816 39.442C146.824 39.4481 146.832 39.4563 146.837 39.4657C146.842 39.4751 146.844 39.4856 146.845 39.4963L146.894 39.7817C146.898 39.7918 146.898 39.8025 146.897 39.8129C146.895 39.8233 146.891 39.8333 146.885 39.8419C146.879 39.8506 146.871 39.8577 146.862 39.8628C146.853 39.8679 146.842 39.8708 146.832 39.8713L146.411 39.9448C146.4 39.9455 146.39 39.9485 146.381 39.9536C146.372 39.9587 146.364 39.9658 146.358 39.9744C146.352 39.983 146.348 39.9929 146.346 40.0033C146.344 40.0137 146.345 40.0243 146.348 40.0345L146.439 40.5549C146.442 40.5651 146.443 40.5757 146.441 40.5862C146.439 40.5966 146.435 40.6065 146.429 40.6151C146.423 40.6238 146.415 40.6309 146.406 40.636C146.396 40.6411 146.386 40.644 146.376 40.6445L146.075 40.6982C146.065 40.7011 146.054 40.7017 146.044 40.7C146.034 40.6983 146.024 40.6942 146.015 40.6882C146.006 40.6822 145.999 40.6744 145.994 40.6652C145.989 40.6561 145.986 40.6459 145.985 40.6354L145.7 39.0037C145.697 38.9933 145.696 38.9823 145.697 38.9716C145.699 38.9608 145.703 38.9506 145.71 38.9418C145.716 38.9329 145.724 38.9256 145.734 38.9205C145.743 38.9155 145.754 38.9127 145.765 38.9125Z" fill="#F17336"/>
<path d="M147.168 38.6677L147.449 38.6184C147.459 38.6151 147.469 38.6143 147.48 38.6159C147.491 38.6175 147.501 38.6216 147.509 38.6277C147.518 38.6338 147.525 38.6419 147.53 38.6512C147.535 38.6606 147.538 38.671 147.539 38.6817L147.824 40.3134C147.827 40.3235 147.827 40.3342 147.826 40.3447C147.824 40.3551 147.82 40.365 147.814 40.3736C147.808 40.3822 147.8 40.3894 147.79 40.3945C147.781 40.3996 147.771 40.4025 147.76 40.403L147.48 40.4519C147.47 40.4548 147.459 40.4554 147.449 40.4536C147.439 40.4519 147.429 40.4479 147.42 40.4419C147.412 40.4359 147.404 40.428 147.399 40.4189C147.394 40.4097 147.391 40.3996 147.39 40.3891L147.106 38.7573C147.103 38.7473 147.102 38.7367 147.104 38.7263C147.106 38.7159 147.109 38.706 147.115 38.6974C147.121 38.6887 147.129 38.6816 147.139 38.6764C147.148 38.6713 147.158 38.6683 147.168 38.6677Z" fill="#F17336"/>
<path d="M148.387 38.4075C148.93 38.3125 149.078 38.6624 149.122 38.8566C149.126 38.8732 149.124 38.8908 149.116 38.9059C149.108 38.921 149.095 38.9325 149.079 38.9382L148.807 39.0514C148.795 39.0559 148.783 39.0578 148.77 39.057C148.758 39.0563 148.746 39.0528 148.735 39.047C148.724 39.0411 148.714 39.033 148.706 39.0231C148.699 39.0132 148.694 39.0018 148.691 38.9897C148.659 38.8824 148.601 38.8217 148.463 38.8459C148.275 38.8786 148.283 39.001 148.317 39.1968L148.382 39.5644C148.416 39.7602 148.449 39.8783 148.638 39.845C148.778 39.8209 148.805 39.7473 148.799 39.6304C148.798 39.6184 148.799 39.6063 148.802 39.5949C148.806 39.5834 148.812 39.573 148.821 39.5642C148.829 39.5555 148.839 39.5487 148.85 39.5444C148.861 39.54 148.874 39.5383 148.886 39.5392L149.185 39.5526C149.202 39.5523 149.219 39.5587 149.232 39.5707C149.245 39.5826 149.253 39.599 149.254 39.6164C149.278 39.8123 149.257 40.1911 148.714 40.2861C148.11 40.3934 147.995 39.947 147.966 39.7785L147.857 39.1383C147.826 38.9704 147.783 38.5127 148.387 38.4075Z" fill="#F17336"/>
<path d="M150.553 38.7117L150.742 39.7924C150.751 39.8487 150.732 39.8836 150.681 39.8927L150.395 39.9426C150.385 39.9456 150.374 39.9463 150.364 39.9446C150.353 39.9429 150.344 39.9388 150.335 39.9327C150.326 39.9266 150.319 39.9187 150.314 39.9094C150.309 39.9001 150.306 39.8898 150.306 39.8793L150.266 39.6577C150.266 39.6471 150.263 39.6366 150.258 39.6273C150.253 39.6179 150.246 39.6098 150.237 39.6037C150.229 39.5975 150.219 39.5935 150.208 39.5919C150.198 39.5903 150.187 39.5911 150.177 39.5944L149.957 39.633C149.947 39.6335 149.936 39.6364 149.927 39.6415C149.918 39.6466 149.91 39.6538 149.904 39.6624C149.898 39.6711 149.894 39.681 149.892 39.6914C149.891 39.7019 149.891 39.7125 149.894 39.7226L149.933 39.9448C149.936 39.9549 149.937 39.9656 149.935 39.9761C149.934 39.9865 149.93 39.9965 149.924 40.0052C149.917 40.0138 149.909 40.0209 149.9 40.026C149.891 40.0311 149.88 40.0339 149.87 40.0344L149.584 40.0843C149.536 40.0929 149.503 40.0671 149.493 40.0108L149.304 38.9301C149.248 38.6081 149.239 38.2583 149.813 38.1579C150.387 38.0576 150.497 38.3908 150.553 38.7117ZM150.165 39.0632L150.117 38.7879C150.095 38.6656 150.067 38.6076 149.899 38.6371C149.731 38.6666 149.723 38.7305 149.745 38.8517L149.793 39.1297C149.794 39.1401 149.797 39.1503 149.802 39.1594C149.807 39.1685 149.814 39.1763 149.823 39.1824C149.832 39.1884 149.841 39.1925 149.852 39.1943C149.862 39.1962 149.873 39.1957 149.883 39.193L150.102 39.1544C150.113 39.1534 150.123 39.1502 150.132 39.1448C150.141 39.1395 150.149 39.1322 150.155 39.1235C150.161 39.1148 150.165 39.1049 150.167 39.0945C150.168 39.084 150.168 39.0733 150.165 39.0632Z" fill="#F17336"/>
<path d="M151.345 39.6974L151.136 38.5046C151.136 38.494 151.133 38.4836 151.128 38.4742C151.123 38.4648 151.116 38.4568 151.107 38.4506C151.099 38.4445 151.089 38.4404 151.078 38.4388C151.068 38.4372 151.057 38.4381 151.047 38.4413L150.69 38.5041C150.68 38.5069 150.669 38.5074 150.659 38.5056C150.648 38.5038 150.639 38.4997 150.63 38.4937C150.621 38.4876 150.614 38.4798 150.609 38.4706C150.604 38.4615 150.601 38.4513 150.6 38.4408L150.55 38.1553C150.547 38.1451 150.546 38.1344 150.548 38.124C150.55 38.1135 150.554 38.1036 150.56 38.0949C150.566 38.0863 150.574 38.0791 150.583 38.0739C150.592 38.0688 150.603 38.0658 150.613 38.0652L151.918 37.8371C151.928 37.8339 151.939 37.833 151.95 37.8347C151.96 37.8363 151.97 37.8403 151.979 37.8464C151.988 37.8526 151.995 37.8606 152 37.87C152.005 37.8794 152.008 37.8898 152.008 37.9004L152.058 38.1859C152.061 38.1961 152.062 38.2068 152.06 38.2172C152.059 38.2277 152.054 38.2376 152.048 38.2463C152.042 38.2549 152.034 38.2621 152.025 38.2673C152.016 38.2724 152.006 38.2754 151.995 38.276L151.638 38.3383C151.628 38.3388 151.617 38.3417 151.608 38.3468C151.599 38.3519 151.591 38.3591 151.585 38.3677C151.579 38.3763 151.575 38.3862 151.573 38.3967C151.571 38.4071 151.572 38.4178 151.575 38.4279L151.784 39.6212C151.787 39.6314 151.787 39.642 151.786 39.6525C151.784 39.6629 151.78 39.6728 151.774 39.6814C151.768 39.6901 151.76 39.6972 151.75 39.7023C151.741 39.7074 151.731 39.7103 151.72 39.7108L151.435 39.7608C151.425 39.7636 151.414 39.7641 151.404 39.7623C151.393 39.7605 151.384 39.7564 151.375 39.7504C151.366 39.7443 151.359 39.7364 151.354 39.7272C151.349 39.7181 151.346 39.7079 151.345 39.6974Z" fill="#F17336"/>
<path d="M152.224 37.7839L153.297 37.5972C153.307 37.5939 153.318 37.5929 153.328 37.5945C153.339 37.596 153.349 37.6 153.358 37.6061C153.366 37.6122 153.374 37.6202 153.379 37.6296C153.384 37.6389 153.387 37.6493 153.387 37.66L153.436 37.9454C153.439 37.9556 153.44 37.9663 153.439 37.9767C153.437 37.9872 153.433 37.9971 153.427 38.0058C153.421 38.0145 153.413 38.0217 153.404 38.0269C153.394 38.032 153.384 38.035 153.374 38.0356L152.757 38.1429C152.746 38.1434 152.736 38.1463 152.726 38.1514C152.717 38.1565 152.709 38.1637 152.703 38.1723C152.697 38.181 152.693 38.1909 152.691 38.2013C152.69 38.2118 152.691 38.2224 152.694 38.2325L152.708 38.3141C152.708 38.3246 152.712 38.3348 152.717 38.3439C152.722 38.3531 152.729 38.3609 152.738 38.367C152.746 38.3731 152.756 38.3771 152.767 38.3789C152.777 38.3807 152.788 38.3802 152.798 38.3774L153.193 38.3082C153.203 38.3049 153.214 38.3041 153.224 38.3057C153.235 38.3073 153.245 38.3114 153.254 38.3175C153.262 38.3236 153.269 38.3317 153.275 38.341C153.28 38.3504 153.282 38.3608 153.283 38.3715L153.333 38.657C153.336 38.6671 153.337 38.6778 153.335 38.6882C153.333 38.6986 153.329 38.7085 153.323 38.7171C153.317 38.7258 153.309 38.7329 153.3 38.738C153.29 38.7431 153.28 38.746 153.269 38.7466L152.875 38.8158C152.864 38.8162 152.854 38.8191 152.844 38.8241C152.835 38.8292 152.827 38.8363 152.821 38.845C152.815 38.8537 152.811 38.8636 152.809 38.8741C152.807 38.8845 152.808 38.8953 152.811 38.9054L152.825 38.9869C152.826 38.9975 152.829 39.0077 152.834 39.0169C152.839 39.0261 152.847 39.0341 152.855 39.0401C152.864 39.0462 152.874 39.0503 152.884 39.052C152.895 39.0538 152.905 39.0532 152.915 39.0503L153.532 38.9429C153.543 38.9398 153.553 38.939 153.564 38.9407C153.574 38.9424 153.584 38.9464 153.593 38.9525C153.601 38.9587 153.609 38.9667 153.614 38.976C153.619 38.9853 153.622 38.9957 153.622 39.0063L153.672 39.2917C153.675 39.3019 153.676 39.3126 153.674 39.3231C153.673 39.3336 153.669 39.3436 153.663 39.3523C153.656 39.361 153.648 39.3681 153.639 39.3732C153.63 39.3782 153.619 39.381 153.609 39.3813L152.535 39.5686C152.525 39.5715 152.515 39.5721 152.504 39.5703C152.494 39.5686 152.484 39.5645 152.475 39.5585C152.467 39.5524 152.459 39.5445 152.454 39.5353C152.449 39.5261 152.446 39.5158 152.445 39.5053L152.16 37.8741C152.157 37.8639 152.157 37.8532 152.158 37.8428C152.16 37.8323 152.164 37.8224 152.17 37.8137C152.176 37.805 152.184 37.7979 152.194 37.7927C152.203 37.7875 152.213 37.7846 152.224 37.7839Z" fill="#F17336"/>
<path d="M142.041 42.871L151.24 41.455" stroke="#F17336" stroke-width="0.214632" stroke-linecap="round" stroke-linejoin="round"/>
<path d="M137.046 44.9344L156.444 41.9473" stroke="#F17336" stroke-width="0.214632" stroke-linecap="round" stroke-linejoin="round"/>
<path d="M136.42 46.2793L158.556 42.871" stroke="#F17336" stroke-width="0.214632" stroke-linecap="round" stroke-linejoin="round"/>
<path d="M143.4 51.2893L147.841 50.6481" stroke="#F17336" stroke-width="0.214632" stroke-linecap="round" stroke-linejoin="round"/>
<path d="M142.561 52.342L148.984 51.4255" stroke="#F17336" stroke-width="0.214632" stroke-linecap="round" stroke-linejoin="round"/>
<path d="M109.299 43.8162C109.299 43.8162 111.011 48.0889 112.03 49.2855" stroke="white" stroke-width="0.107316" stroke-miterlimit="10" stroke-linecap="round"/>
<path d="M112.438 49.9261C112.438 49.9261 113.243 50.9725 113.687 51.0884" stroke="white" stroke-width="0.107316" stroke-miterlimit="10" stroke-linecap="round"/>
<path d="M114.493 50.62C114.493 50.62 115.223 50.4107 116.4 46.4186" stroke="white" stroke-width="0.107316" stroke-miterlimit="10" stroke-linecap="round"/>
<path d="M116.743 45.4824L117.495 42.5382" stroke="white" stroke-width="0.107316" stroke-miterlimit="10" stroke-linecap="round"/>
<path d="M112.558 40.8535C112.558 40.8535 112.504 40.9184 112.706 41.2238C112.908 41.5291 113.66 41.9369 114.419 42.0662C115.178 42.1955 116.039 42.6494 116.039 42.6494L115.724 41.4738C115.724 41.4738 114.197 42.085 112.558 40.8535Z" fill="#E3E3E3"/>
<path d="M77.5389 43.531C77.5389 43.531 79.8881 46.1238 82.2211 44.6938" stroke="black" stroke-width="0.160974" stroke-linecap="round" stroke-linejoin="round"/>
<path d="M114.559 35.4564C114.705 35.4564 114.823 35.2885 114.823 35.0814C114.823 34.8742 114.705 34.7063 114.559 34.7063C114.413 34.7063 114.295 34.8742 114.295 35.0814C114.295 35.2885 114.413 35.4564 114.559 35.4564Z" fill="black"/>
<path d="M117.673 35.3035C117.819 35.3035 117.937 35.1356 117.937 34.9284C117.937 34.7213 117.819 34.5533 117.673 34.5533C117.527 34.5533 117.409 34.7213 117.409 34.9284C117.409 35.1356 117.527 35.3035 117.673 35.3035Z" fill="black"/>
<path d="M113.424 34.387C113.424 34.387 114.382 33.3874 115.076 34.0817" stroke="black" stroke-width="0.160974" stroke-linecap="round" stroke-linejoin="round"/>
<path d="M116.951 33.8358C116.951 33.8358 117.626 33.2327 118.32 33.9271" stroke="black" stroke-width="0.160974" stroke-linecap="round" stroke-linejoin="round"/>
<path d="M116.507 35.1504C116.507 35.1504 116.909 36.8031 116.951 36.9699C116.993 37.1368 116.368 37.4529 116.368 37.4529" fill="white"/>
<path d="M116.507 35.1504C116.507 35.1504 116.909 36.8031 116.951 36.9699C116.993 37.1368 116.368 37.4529 116.368 37.4529" stroke="black" stroke-width="0.214632" stroke-linecap="round" stroke-linejoin="round"/>
<path d="M114.546 38.3026L117.106 38.4636C117.106 38.4636 115.878 40.3298 114.546 38.3026Z" fill="white" stroke="black" stroke-width="0.214632" stroke-linecap="round" stroke-linejoin="round"/>
</svg>
