<svg width="41" height="41" viewBox="0 0 41 41" fill="none" xmlns="http://www.w3.org/2000/svg">
<g clip-path="url(#clip0)">
<path d="M0.507141 26.9409H1.52038V27.93H0.507141V26.9409Z" fill="#21345F"/>
<path d="M0.507141 24.766H1.52038V25.7547H0.507141V24.766Z" fill="#21345F"/>
<path d="M0.507141 18.2404H1.52038V19.2291H0.507141V18.2404Z" fill="#21345F"/>
<path d="M0.507141 22.5905H1.52038V23.5792H0.507141V22.5905Z" fill="#21345F"/>
<path d="M0.507141 33.4664H1.52038V34.4551H0.507141V33.4664Z" fill="#21345F"/>
<path d="M0.507141 29.1162H1.52038V30.1049H0.507141V29.1162Z" fill="#21345F"/>
<path d="M0.507141 31.2914H1.52038V32.2801H0.507141V31.2914Z" fill="#21345F"/>
<path d="M0.507141 20.4158H1.52038V21.4045H0.507141V20.4158Z" fill="#21345F"/>
<path d="M0.507141 35.6416H1.52038V36.6548H0.507141V35.6416Z" fill="#21345F"/>
<path d="M11.9524 35.6416H12.9957V36.6548H11.9524V35.6416Z" fill="#21345F"/>
<path d="M9.65759 35.6416H10.7009V36.6548H9.65759V35.6416Z" fill="#21345F"/>
<path d="M28.0182 35.6416H29.0616V36.6548H28.0182V35.6416Z" fill="#21345F"/>
<path d="M5.0675 35.6416H6.11043V36.6548H5.0675V35.6416Z" fill="#21345F"/>
<path d="M7.36237 35.6416H8.40569V36.6548H7.36237V35.6416Z" fill="#21345F"/>
<path d="M2.77228 35.6416H3.81521V36.6548H2.77228V35.6416Z" fill="#21345F"/>
<path d="M32.6084 35.6416H33.6517V36.6548H32.6084V35.6416Z" fill="#21345F"/>
<path d="M34.9036 35.6416H35.9469V36.6548H34.9036V35.6416Z" fill="#21345F"/>
<path d="M37.1989 35.6416H38.2418V36.6548H37.1989V35.6416Z" fill="#21345F"/>
<path d="M30.3131 35.6416H31.3564V36.6548H30.3131V35.6416Z" fill="#21345F"/>
<path d="M39.494 35.6416H40.5073V36.6548H39.494V35.6416Z" fill="#21345F"/>
<path d="M39.494 22.5905H40.5073V23.5792H39.494V22.5905Z" fill="#21345F"/>
<path d="M39.494 24.766H40.5073V25.7547H39.494V24.766Z" fill="#21345F"/>
<path d="M39.494 18.2404H40.5073V19.2291H39.494V18.2404Z" fill="#21345F"/>
<path d="M39.494 26.9409H40.5073V27.93H39.494V26.9409Z" fill="#21345F"/>
<path d="M39.494 20.4158H40.5073V21.4045H39.494V20.4158Z" fill="#21345F"/>
<path d="M39.494 29.1162H40.5073V30.1049H39.494V29.1162Z" fill="#21345F"/>
<path d="M39.494 33.4664H40.5073V34.4551H39.494V33.4664Z" fill="#21345F"/>
<path d="M39.494 31.2914H40.5073V32.2801H39.494V31.2914Z" fill="#21345F"/>
<path d="M40.0007 16.0409H34.4904V17.0541H40.0007C40.2805 17.0541 40.5073 16.8273 40.5073 16.5475C40.5073 16.2677 40.2805 16.0409 40.0007 16.0409Z" fill="#21345F"/>
<path d="M25.7231 35.6416H14.7543C14.4745 35.6416 14.2477 35.8684 14.2477 36.1482C14.2477 36.428 14.4745 36.6548 14.7543 36.6548H26.2598C26.5396 36.6548 26.7664 36.428 26.7664 36.1482C26.7664 35.8684 26.5396 35.6416 26.2598 35.6416H25.7231Z" fill="#21345F"/>
<path d="M5.05367 16.0408H1.01376C0.733963 16.0408 0.507141 16.2676 0.507141 16.5474C0.507141 16.8272 0.733964 17.054 1.01376 17.054H6.52406V16.0408H5.05367Z" fill="#21345F"/>
<path d="M22.597 35.1978C21.9685 35.1978 21.4571 34.6869 21.4571 34.0579C21.4571 33.5335 21.0316 33.108 20.5072 33.108C19.9823 33.108 19.5573 33.5335 19.5573 34.0579C19.5573 34.6869 19.0459 35.1978 18.4174 35.1978C17.8925 35.1978 17.467 35.6233 17.467 36.1482C17.467 36.6726 17.8925 37.0981 18.4174 37.0981C19.0459 37.0981 19.5573 37.6094 19.5573 38.238C19.5573 38.7624 19.9823 39.1879 20.5072 39.1879C21.0316 39.1879 21.4571 38.7624 21.4571 38.238C21.4571 37.6094 21.9685 37.0981 22.597 37.0981C23.1218 37.0981 23.5469 36.6726 23.5469 36.1482C23.5469 35.6233 23.1214 35.1978 22.597 35.1978Z" fill="#F9AB5A"/>
<path d="M23.6269 35.118C23.3649 34.8552 22.9976 34.6913 22.597 34.6913C22.4217 34.6913 22.2661 34.6213 22.1498 34.5057C22.0338 34.3894 21.9641 34.2338 21.9637 34.0581C21.9641 33.6575 21.7999 33.2902 21.5371 33.0282C21.275 32.7654 20.9081 32.6015 20.5072 32.6019C20.1067 32.6015 19.7394 32.7654 19.4773 33.0282C19.2145 33.2902 19.0507 33.6575 19.0511 34.0581C19.0507 34.2338 18.9806 34.3894 18.865 34.5057C18.7487 34.6213 18.5931 34.6913 18.4178 34.6913C18.0168 34.6913 17.6495 34.8552 17.3879 35.118C17.1251 35.38 16.9608 35.7473 16.9612 36.1479C16.9608 36.5484 17.1251 36.9157 17.3879 37.1778C17.6499 37.4406 18.0168 37.6048 18.4178 37.6044C18.5931 37.6044 18.7487 37.6745 18.865 37.7901C18.9806 37.9068 19.0507 38.0624 19.0511 38.2377C19.0507 38.6382 19.2145 39.0056 19.4773 39.2676C19.7394 39.5304 20.1067 39.6946 20.5072 39.6942C20.9081 39.6942 21.2754 39.53 21.5371 39.2676C21.7999 39.0056 21.9641 38.6382 21.9637 38.2377C21.9641 38.0624 22.0338 37.9068 22.1498 37.7901C22.2661 37.6745 22.4217 37.6044 22.597 37.6044C22.9976 37.6044 23.3653 37.4406 23.6269 37.1778C23.8897 36.9157 24.0535 36.5484 24.0535 36.1479C24.0535 35.7473 23.8897 35.38 23.6269 35.118ZM22.9105 36.4614C22.8286 36.5425 22.7209 36.5912 22.597 36.5912C22.1438 36.5912 21.7294 36.7768 21.433 37.0737C21.1361 37.3701 20.9501 37.7849 20.9505 38.2377C20.9501 38.362 20.9014 38.4696 20.8203 38.5512C20.7387 38.6323 20.6311 38.681 20.5068 38.6814C20.3829 38.681 20.2753 38.6323 20.1933 38.5512C20.1122 38.4696 20.0639 38.362 20.0635 38.2377C20.0639 37.7849 19.8779 37.3701 19.5806 37.0737C19.2846 36.7768 18.8698 36.5912 18.417 36.5912C18.2931 36.5912 18.1854 36.5425 18.1035 36.4614C18.0224 36.3794 17.9741 36.2718 17.9737 36.1479C17.9737 36.024 18.0224 35.9163 18.1035 35.8344C18.1854 35.7533 18.2931 35.705 18.417 35.7046C18.8702 35.7046 19.2846 35.519 19.5806 35.2217C19.8779 34.9257 20.0639 34.5113 20.0635 34.0581C20.0639 33.9342 20.1122 33.8265 20.1933 33.7446C20.2753 33.6635 20.3829 33.6152 20.5068 33.6148C20.6311 33.6148 20.7387 33.6635 20.8203 33.7446C20.9014 33.8265 20.9501 33.9342 20.9505 34.0581C20.9501 34.5113 21.1361 34.9257 21.433 35.2217C21.7294 35.519 22.1438 35.7046 22.597 35.7046C22.7209 35.7046 22.8286 35.7533 22.9105 35.8344C22.9912 35.9163 23.0399 36.024 23.0403 36.1479C23.0399 36.2718 22.9912 36.3798 22.9105 36.4614Z" fill="#21345F"/>
<path d="M6.52405 3.38123H28.0183V30.666H6.52405V3.38123Z" fill="white"/>
<path d="M7.30197 2.87451C6.59252 2.87451 6.0174 3.44964 6.0174 4.15909V29.9235C6.0174 30.633 6.59252 31.2081 7.30197 31.2081H27.5355C28.0878 31.2081 28.5355 30.7604 28.5355 30.2081V4.15909C28.5355 3.44964 27.9604 2.87451 27.251 2.87451H7.30197ZM7.03064 5.17194C7.03064 4.46248 7.60576 3.88736 8.31522 3.88736H26.2377C26.9472 3.88736 27.5223 4.46248 27.5223 5.17194V28.9099C27.5223 29.6193 26.9472 30.1945 26.2377 30.1945H8.31522C7.60576 30.1945 7.03064 29.6193 7.03064 28.9099V5.17194Z" fill="#21345F"/>
<path d="M11.9192 1.28662H22.6338V5.47535H11.9192V1.28662Z" fill="#F9AB5A"/>
<path d="M11.9192 1.28662H22.6338V2.91968H11.9192V1.28662Z" fill="white"/>
<path d="M12.6972 0.780151C11.9877 0.780151 11.4126 1.35528 11.4126 2.06473V4.69755C11.4126 5.407 11.9877 5.98213 12.6972 5.98213H21.8559C22.5654 5.98213 23.1405 5.407 23.1405 4.69755V2.06473C23.1405 1.35528 22.5654 0.780151 21.8559 0.780151H12.6972ZM12.4258 3.07797C12.4258 2.36852 13.001 1.79339 13.7104 1.79339H20.8427C21.5521 1.79339 22.1272 2.36852 22.1272 3.07797V3.68431C22.1272 4.39376 21.5521 4.96888 20.8427 4.96888H13.7104C13.001 4.96888 12.4258 4.39376 12.4258 3.6843V3.07797Z" fill="#21345F"/>
<path d="M14.8033 9.14648H24.0805V10.1597H14.8033V9.14648Z" fill="#21345F"/>
<path d="M14.8033 14.7531H24.0805V15.7663H14.8033V14.7531Z" fill="#21345F"/>
<path d="M14.8033 20.3596H24.0805V21.3729H14.8033V20.3596Z" fill="#21345F"/>
<path d="M14.8033 25.9662H24.0805V26.9794H14.8033V25.9662Z" fill="#21345F"/>
<path opacity="0.2" d="M9.90259 14.8257C9.90259 14.1163 10.4777 13.5411 11.1872 13.5411H11.9114C12.6209 13.5411 13.196 14.1163 13.196 14.8257V15.5496C13.196 16.2591 12.6209 16.8342 11.9114 16.8342H11.1872C10.4777 16.8342 9.90259 16.2591 9.90259 15.5496V14.8257Z" fill="#21345F"/>
<path d="M9.91245 15.0463C9.91232 15.0463 9.91226 15.0465 9.91235 15.0466L10.9373 16.0715C11.1623 16.2965 11.5238 16.3069 11.7614 16.0952L13.5666 14.4869C13.7756 14.3007 13.794 13.9805 13.6079 13.7715C13.4218 13.5625 13.1014 13.544 12.8925 13.7302L11.7624 14.7372C11.5467 14.9294 11.2185 14.9199 11.0143 14.7155C10.8015 14.5026 10.4563 14.5025 10.2434 14.7154L9.91255 15.0463C9.91252 15.0463 9.91248 15.0463 9.91245 15.0463Z" fill="#21345F"/>
<path opacity="0.2" d="M9.90259 9.29105C9.90259 8.5816 10.4777 8.00647 11.1872 8.00647H11.9114C12.6209 8.00647 13.196 8.58159 13.196 9.29105V10.0149C13.196 10.7244 12.6209 11.2995 11.9114 11.2995H11.1872C10.4777 11.2995 9.90259 10.7244 9.90259 10.0149V9.29105Z" fill="#21345F"/>
<path d="M9.91245 9.43975C9.91232 9.43975 9.91226 9.4399 9.91235 9.43999L10.9373 10.4649C11.1623 10.69 11.5238 10.7004 11.7614 10.4886L13.5667 8.87992C13.7756 8.69377 13.794 8.37353 13.6078 8.16465C13.4217 7.95579 13.1015 7.93734 12.8926 8.12342L11.7623 9.13035C11.5467 9.32248 11.2186 9.31302 11.0143 9.10878C10.8015 8.89591 10.4563 8.89591 10.2435 9.10878L9.91255 9.43971C9.91252 9.43973 9.91248 9.43975 9.91245 9.43975Z" fill="#21345F"/>
<path opacity="0.2" d="M9.90259 20.3604C9.90259 19.6509 10.4777 19.0758 11.1872 19.0758H11.9114C12.6209 19.0758 13.196 19.6509 13.196 20.3604V21.0847C13.196 21.7941 12.6209 22.3692 11.9114 22.3692H11.1872C10.4777 22.3692 9.90259 21.7941 9.90259 21.0847V20.3604Z" fill="#21345F"/>
<path d="M10.2706 20.2943C10.0726 20.4921 10.0726 20.813 10.2705 21.0109L10.9094 21.6498C11.1501 21.8905 11.5368 21.9016 11.7909 21.6752L13.5667 20.0927C13.7756 19.9065 13.794 19.5863 13.6079 19.3774C13.4217 19.1686 13.1015 19.1501 12.8927 19.3363L11.7625 20.3433C11.5467 20.5355 11.2185 20.526 11.0143 20.3217L10.987 20.2945C10.7892 20.0966 10.4685 20.0965 10.2706 20.2943Z" fill="#21345F"/>
<path opacity="0.2" d="M9.90259 25.8954C9.90259 25.186 10.4777 24.6108 11.1872 24.6108H11.9114C12.6209 24.6108 13.196 25.186 13.196 25.8954V26.6197C13.196 27.3291 12.6209 27.9043 11.9114 27.9043H11.1872C10.4777 27.9043 9.90259 27.3292 9.90259 26.6197V25.8954Z" fill="#21345F"/>
<path d="M9.91245 26.2594C9.91232 26.2594 9.91226 26.2596 9.91235 26.2597L10.9374 27.2844C11.1624 27.5094 11.5238 27.5198 11.7613 27.3081L13.5666 25.6996C13.7755 25.5135 13.794 25.1932 13.6078 24.9843C13.4217 24.7755 13.1015 24.757 12.8927 24.9431L11.7623 25.9501C11.5467 26.1422 11.2186 26.1327 11.0143 25.9285C10.8015 25.7156 10.4563 25.7156 10.2435 25.9285L9.91255 26.2594C9.91252 26.2594 9.91248 26.2594 9.91245 26.2594Z" fill="#21345F"/>
<path d="M20.1803 9.83679H33.8326C34.1959 9.83679 34.4904 10.1313 34.4904 10.4946V18.2855C34.4904 18.6488 34.1959 18.9433 33.8326 18.9433H26.1822C25.9816 18.9433 25.7924 19.0347 25.6673 19.1915L23.4247 22.0088C23.2909 22.177 23.0198 22.0824 23.0198 21.8675V19.6011C23.0198 19.2378 22.7253 18.9433 22.362 18.9433H20.1803C19.817 18.9433 19.5225 18.6488 19.5225 18.2855V10.4946C19.5225 10.1313 19.817 9.83679 20.1803 9.83679Z" fill="white"/>
<path d="M34.6558 9.67086C34.4468 9.46109 34.1524 9.32968 33.8326 9.33008H20.1803C19.8605 9.32968 19.566 9.46109 19.357 9.67086C19.1469 9.88024 19.0155 10.1743 19.0159 10.4945V18.2854C19.0155 18.6056 19.1469 18.8997 19.357 19.1091C19.566 19.3188 19.8605 19.4502 20.1803 19.4498H22.3619C22.4055 19.4502 22.4399 19.4661 22.4688 19.4946C22.4973 19.5235 22.5131 19.5579 22.5135 19.6014V21.8674C22.5131 21.9711 22.5353 22.0752 22.5769 22.1678C22.639 22.3075 22.7415 22.4175 22.8583 22.4896C22.9754 22.5624 23.1088 22.6008 23.2493 22.6012C23.3514 22.6012 23.4579 22.5798 23.558 22.5327C23.6582 22.486 23.7508 22.4132 23.8213 22.3241L26.0638 19.5072C26.0927 19.4712 26.1363 19.4502 26.1822 19.4502H33.8326C34.1528 19.4502 34.4468 19.3192 34.6562 19.1091C34.866 18.9001 34.9974 18.6056 34.997 18.2858V10.4945C34.997 10.1747 34.866 9.88024 34.6558 9.67086ZM33.9838 18.2858C33.9834 18.3293 33.9675 18.3638 33.9394 18.3927C33.9101 18.4208 33.8757 18.4366 33.8326 18.437H26.1822C25.8272 18.437 25.4919 18.5985 25.2711 18.8759L23.5264 21.0675V19.601C23.5268 19.2812 23.3954 18.9868 23.1852 18.7778C22.9762 18.568 22.6821 18.4366 22.3619 18.4366H20.1803C20.1372 18.4366 20.1023 18.4204 20.0734 18.3923C20.0449 18.3634 20.0295 18.3285 20.0287 18.2854V10.4945C20.0291 10.4514 20.0449 10.4165 20.0734 10.3873C20.1023 10.3592 20.1368 10.3433 20.1803 10.3429H33.8326C33.8757 10.3433 33.9101 10.3592 33.9394 10.3873C33.9675 10.4161 33.9834 10.451 33.9838 10.4945V18.2858Z" fill="#21345F"/>
<path d="M26.0629 16.0767H22.9337L22.2863 17.5784H21.1173L24.0127 11.176H24.9569L27.8613 17.5784H26.7014L26.0629 16.0767ZM25.6763 15.1775L24.4983 12.4349L23.3204 15.1775H25.6763ZM32.771 15.3843H30.9546V17.2007H30.1633V15.3843H28.3469V14.584H30.1633V12.7676H30.9546V14.584H32.771V15.3843Z" fill="#654EF9"/>
</g>
<defs>
<clipPath id="clip0">
<rect width="40" height="40" fill="white" transform="translate(0.507141 0.194946)"/>
</clipPath>
</defs>
</svg>
