<svg width="18" height="16" viewBox="0 0 18 16" fill="none" xmlns="http://www.w3.org/2000/svg">
<path d="M1.58008 1.33191H6.08008C6.87573 1.33191 7.63879 1.64798 8.2014 2.21059C8.76401 2.7732 9.08008 3.53626 9.08008 4.33191V14.8319C9.08008 14.2352 8.84303 13.6629 8.42107 13.2409C7.99911 12.819 7.42682 12.5819 6.83008 12.5819H1.58008V1.33191Z" stroke="#F17336" stroke-width="1.5" stroke-linecap="round" stroke-linejoin="round"/>
<path d="M16.5801 1.33191H12.0801C11.2844 1.33191 10.5214 1.64798 9.95876 2.21059C9.39615 2.7732 9.08008 3.53626 9.08008 4.33191V14.8319C9.08008 14.2352 9.31713 13.6629 9.73909 13.2409C10.161 12.819 10.7333 12.5819 11.3301 12.5819H16.5801V1.33191Z" stroke="#F17336" stroke-width="1.5" stroke-linecap="round" stroke-linejoin="round"/>
</svg>
