<svg width="18" height="14" viewBox="0 0 18 14" fill="none" xmlns="http://www.w3.org/2000/svg">
<path d="M16.7451 2.83859C16.6587 2.49345 16.4828 2.17722 16.2351 1.92184C15.9874 1.66646 15.6766 1.48098 15.3343 1.38412C14.0835 1.07868 9.08008 1.07868 9.08008 1.07868C9.08008 1.07868 4.0767 1.07868 2.82586 1.41321C2.48351 1.51007 2.17278 1.69555 1.92507 1.95093C1.67735 2.20631 1.50141 2.52254 1.41502 2.86768C1.1861 4.13711 1.07412 5.42486 1.08049 6.71475C1.07233 8.01435 1.18432 9.31193 1.41502 10.5909C1.51026 10.9253 1.69014 11.2295 1.93728 11.4741C2.18442 11.7187 2.49047 11.8954 2.82586 11.9872C4.0767 12.3217 9.08008 12.3217 9.08008 12.3217C9.08008 12.3217 14.0835 12.3217 15.3343 11.9872C15.6766 11.8903 15.9874 11.7049 16.2351 11.4495C16.4828 11.1941 16.6587 10.8779 16.7451 10.5327C16.9723 9.27287 17.0843 7.99493 17.0797 6.71475C17.0878 5.41515 16.9758 4.11758 16.7451 2.83859V2.83859Z" stroke="#F17336" stroke-width="1.5" stroke-linecap="round" stroke-linejoin="round"/>
<path d="M7.44385 9.09215L11.6254 6.7141L7.44385 4.33604V9.09215Z" fill="#F17336"/>
</svg>
