<svg width="17" height="21" viewBox="0 0 17 21" fill="none" xmlns="http://www.w3.org/2000/svg">
<path d="M13 15.9199H4V9.41992C4 6.91992 6 4.91992 8.5 4.91992C11 4.91992 13 6.91992 13 9.41992V15.9199ZM15 14.9199V9.41992C15 6.34992 12.86 3.77992 10 3.09992V2.41992C10 2.0221 9.84196 1.64057 9.56066 1.35926C9.27936 1.07796 8.89782 0.919922 8.5 0.919922C8.10218 0.919922 7.72064 1.07796 7.43934 1.35926C7.15804 1.64057 7 2.0221 7 2.41992V3.09992C4.13 3.77992 2 6.34992 2 9.41992V14.9199L0 16.9199V17.9199H17V16.9199L15 14.9199ZM8.5 20.9199C9.03043 20.9199 9.53914 20.7092 9.91421 20.3341C10.2893 19.9591 10.5 19.4504 10.5 18.9199H6.5C6.5 19.4504 6.71071 19.9591 7.08579 20.3341C7.46086 20.7092 7.96957 20.9199 8.5 20.9199Z" fill="#FEFEFE"/>
</svg>
