<svg width="35" height="36" viewBox="0 0 35 36" fill="none" xmlns="http://www.w3.org/2000/svg">
<path d="M0.368896 20.0857C0.368896 28.2593 6.98819 34.8862 15.1524 34.8862C23.3165 34.8862 29.9358 28.2593 29.9358 20.0857C29.9358 11.9121 23.3165 5.28515 15.1524 5.28515C6.98819 5.28515 0.368896 11.9121 0.368896 20.0857Z" fill="#F17336"/>

<path d="M8.73169 14.4902H12.8984C13.6351 14.4902 14.3416 14.7829 14.8625 15.3038C15.3835 15.8248 15.6761 16.5313 15.6761 17.268V26.9902C15.6761 26.4377 15.4566 25.9078 15.0659 25.5171C14.6752 25.1264 14.1453 24.9069 13.5928 24.9069H8.73169V14.4902Z" stroke="#FEFEFE" stroke-width="1.5" stroke-linecap="round" stroke-linejoin="round"/>
<path d="M22.6206 14.4902H18.4539C17.7172 14.4902 17.0107 14.7829 16.4897 15.3038C15.9688 15.8248 15.6761 16.5313 15.6761 17.268V26.9902C15.6761 26.4377 15.8956 25.9078 16.2863 25.5171C16.677 25.1264 17.2069 24.9069 17.7595 24.9069H22.6206V14.4902Z" stroke="#FEFEFE" stroke-width="1.5" stroke-linecap="round" stroke-linejoin="round"/>
</svg>
