<svg width="11" height="18" viewBox="0 0 11 18" fill="none" xmlns="http://www.w3.org/2000/svg">
<path d="M1.33286 17.1487C0.257753 16.4083 0.183467 15.7405 1.14755 14.814L6.7084 9.25313C6.89371 9.06783 7.04228 8.91925 7.22759 8.69721C7.04228 8.5119 6.89371 8.3266 6.7084 8.14129L1.18429 2.61799C0.991952 2.4379 0.818031 2.23909 0.665102 2.02452C0.521306 1.80675 0.460958 1.54439 0.495153 1.28567C0.529348 1.02696 0.655788 0.789284 0.851225 0.616349C1.01655 0.421503 1.24815 0.294754 1.50139 0.260538C1.75462 0.226321 2.01155 0.287059 2.22266 0.431042C2.43695 0.584014 2.63548 0.757934 2.81532 0.950229L9.41372 7.54863C10.3035 8.43843 10.3035 8.99436 9.41372 9.88416L2.81532 16.4826C2.54821 16.7372 2.26342 16.9726 1.96307 17.1871C1.75465 17.1547 1.54367 17.1419 1.33286 17.1487Z" fill="#21345F"/>
</svg>
