<svg width="8" height="15" viewBox="0 0 8 15" fill="none" xmlns="http://www.w3.org/2000/svg">
<path d="M0.716394 14.0685C-0.178722 13.4521 -0.240571 12.8961 0.562111 12.1247L5.19197 7.49483C5.34626 7.34055 5.46995 7.21685 5.62424 7.03198C5.46995 6.8777 5.34626 6.72341 5.19197 6.56913L0.592696 1.97053C0.43256 1.82059 0.287756 1.65507 0.16043 1.47642C0.0407081 1.2951 -0.00953686 1.07667 0.0189335 0.861265C0.0474038 0.645865 0.152676 0.447982 0.315393 0.303999C0.45304 0.141774 0.645868 0.0362453 0.856705 0.00775723C1.06754 -0.0207309 1.28146 0.0298381 1.45723 0.149716C1.63564 0.277078 1.80093 0.42188 1.95066 0.581981L7.44438 6.0757C8.18521 6.81653 8.18521 7.27938 7.44438 8.02021L1.95066 13.5139C1.72827 13.7259 1.49116 13.9219 1.24109 14.1005C1.06757 14.0735 0.891907 14.0628 0.716394 14.0685Z" fill="#FEFEFE"/>
</svg>
