<svg width="255" height="255" viewBox="0 0 255 255" fill="none" xmlns="http://www.w3.org/2000/svg">
<path opacity="0.8" d="M57.5813 240.324C57.5813 240.324 17.2808 235.367 23.9138 202.579C30.5468 169.79 34.3118 167.901 22.2325 129.422C10.1533 90.9417 86.2999 48.0145 124.049 87.4892C161.798 126.964 182.398 101.201 208.933 124.06C235.468 146.919 217.993 213.358 188.548 240.323L57.5813 240.324Z" fill="#FFF2D1"/>
<path d="M231.283 198.391L230.728 198.222L23.7085 135.076L24.278 134.792L166.393 63.8242L166.505 64.0561L231.283 198.391ZM25.0744 134.962L230.322 197.567L166.159 64.5086L25.0744 134.962Z" fill="#3F3D56"/>
<path d="M253.865 170.438H202.317V219.701H253.865V170.438Z" fill="#FEFEFE" stroke="#0B065A" stroke-width="0.732402" stroke-miterlimit="10" stroke-linecap="round"/>
<path d="M198.762 39.6617H147.213V88.9251H198.762V39.6617Z" fill="#FEFEFE" stroke="#0B065A" stroke-width="0.732402" stroke-miterlimit="10" stroke-linecap="round"/>
<path d="M53.2575 110.256H1.70874V159.519H53.2575V110.256Z" fill="#FEFEFE" stroke="#0B065A" stroke-width="0.732402" stroke-miterlimit="10" stroke-linecap="round"/>
<path d="M168.217 58.5305L181.422 64.371L168.217 69.9576V58.5305Z" fill="#F17336"/>
<path d="M46.9256 154.572H7.81958V115.466H46.9256V154.572ZM8.36272 154.029H46.3824V116.009H8.36272V154.029Z" fill="#F17336"/>
<path d="M39.3224 127.835H15.4243V130.014H39.3224V127.835Z" fill="#F17336"/>
<path d="M39.3224 133.929H15.4243V136.109H39.3224V133.929Z" fill="#F17336"/>
<path d="M39.3224 140.024H15.4243V142.204H39.3224V140.024Z" fill="#F17336"/>
<path d="M247.054 204.454H208.963V185.917H247.054V204.454ZM209.471 203.946H246.546V186.425H209.471V203.946Z" fill="#F17336"/>
<path d="M219.375 197.979C220.918 197.979 222.168 196.729 222.168 195.186C222.168 193.643 220.918 192.393 219.375 192.393C217.832 192.393 216.582 193.643 216.582 195.186C216.582 196.729 217.832 197.979 219.375 197.979Z" fill="#EF7236"/>
<path d="M228.009 197.979C229.551 197.979 230.802 196.729 230.802 195.186C230.802 193.643 229.551 192.393 228.009 192.393C226.466 192.393 225.215 193.643 225.215 195.186C225.215 196.729 226.466 197.979 228.009 197.979Z" fill="#EF7236"/>
<path d="M236.643 197.979C238.186 197.979 239.436 196.729 239.436 195.186C239.436 193.643 238.186 192.393 236.643 192.393C235.1 192.393 233.85 193.643 233.85 195.186C233.85 196.729 235.1 197.979 236.643 197.979Z" fill="#EF7236"/>
<path d="M192.033 73.562H153.942V55.0248H192.033V73.562ZM154.45 73.0541H191.525V55.5326H154.45V73.0541Z" fill="#F17336"/>
<path d="M89.4175 79.4273C85.1278 88.7879 81.5002 93.178 79.3549 95.0425C77.0645 97.0325 74.8206 102.363 74.8206 102.363C76.3643 94.3655 81.9866 94.1795 88.0896 79.4868C94.1927 64.7941 100.333 68.6068 100.333 68.6068C101.772 68.9239 102.483 69.8584 102.483 69.8584C94.6102 74.6317 98.0974 100.979 92.5811 109.978C87.0648 118.977 78.1776 113.845 76.8748 108.363C75.572 102.88 87.2899 85.9925 88.7499 81.6061C88.9907 80.8752 89.2055 80.1461 89.4175 79.4273Z" fill="#3F3D56"/>
<path d="M101.588 227.51C101.588 227.51 102.847 234.286 101.936 237.283C101.025 240.28 112.316 249.4 113.445 249.052C114.574 248.704 116.485 245.187 116.485 245.187C116.485 245.187 109.145 237.674 109.037 235.632C108.929 233.591 107.972 224.775 107.972 224.775L101.588 227.51Z" fill="white" stroke="black" stroke-width="0.371968" stroke-miterlimit="10" stroke-linecap="round"/>
<path d="M102.031 236.916C102.031 236.916 109.406 245.141 111.882 246.183C111.882 246.183 113.184 246.726 116.116 244.403C116.116 244.403 116.311 244.251 117.202 245.076C118.093 245.901 121.87 249.028 120.697 250.934C119.525 252.841 114.617 252.98 110.579 249.197C106.54 245.414 103.065 242.77 101.588 242.118C101.588 242.118 101.045 241.988 101.11 241.163C101.175 240.338 101.083 235.534 102.031 236.916Z" fill="#0B065A" stroke="black" stroke-width="0.371968" stroke-miterlimit="10" stroke-linecap="round"/>
<path d="M83.8381 229.755C83.8381 229.755 82.579 236.53 83.4913 239.527C84.4035 242.524 73.1115 251.644 71.9817 251.297C70.8518 250.95 68.9418 247.431 68.9418 247.431C68.9418 247.431 76.2816 239.918 76.3904 237.876C76.4992 235.835 77.4542 227.019 77.4542 227.019L83.8381 229.755Z" fill="white" stroke="black" stroke-width="0.371968" stroke-miterlimit="10" stroke-linecap="round"/>
<path d="M107.988 226.763L108.278 229.847C108.278 229.847 105.953 231.952 102.234 230.415L101.823 227.476L107.988 226.763Z" fill="#E3E3E3"/>
<path d="M83.4438 230.814L83.1054 233.863C83.1054 233.863 78.1945 234.439 77.1055 232.338L77.3715 229.314L83.4438 230.814Z" fill="#E3E3E3"/>
<path d="M83.3992 239.159C83.3992 239.159 76.0249 247.384 73.5495 248.427C73.5495 248.427 72.2476 248.97 69.3146 246.646C69.3146 246.646 69.1193 246.494 68.2285 247.319C67.3376 248.144 63.5603 251.271 64.7329 253.178C65.9055 255.084 70.8127 255.224 74.8523 251.441C78.8919 247.658 82.3651 245.013 83.8418 244.361C83.8418 244.361 84.3849 244.231 84.3198 243.406C84.2547 242.581 84.3468 237.775 83.3992 239.159Z" fill="#0B065A" stroke="black" stroke-width="0.371968" stroke-miterlimit="10" stroke-linecap="round"/>
<path d="M123.495 64.0918C123.495 64.0918 126.471 67.6041 125.678 71.0737C124.721 75.2769 128.858 78.1652 128.092 78.4572C127.325 78.7492 124.912 79.2941 124.912 79.2941C124.912 79.2941 123.629 85.1238 121.675 85.2335C119.721 85.3433 114.319 83.2603 114.319 83.2603L112.998 88.6882L106.332 86.6042L108.285 77.4483C108.285 77.4483 115.143 61.0398 123.495 64.0918Z" fill="white" stroke="black" stroke-width="0.371968" stroke-miterlimit="10" stroke-linecap="round"/>
<path d="M123.654 64.5428C123.654 64.5428 122.69 66.4678 120.771 67.8571C118.852 69.2464 116.323 75.1755 115.059 74.3349C113.794 73.4942 122.955 63.7133 122.955 63.7133L123.654 64.5428Z" fill="#E3E3E3"/>
<path d="M113.595 76.7759C113.595 76.7759 110.274 76.3193 111.044 73.139C111.814 69.9587 108.959 74.8017 108.213 78.5326C107.466 82.2634 106.588 86.7158 106.588 86.7158C106.588 86.7158 107.776 86.6489 108.83 87.2152C108.83 87.2152 109.209 76.0292 110.969 76.6327C112.729 77.2362 113.937 77.6714 113.595 76.7759Z" fill="#E3E3E3"/>
<path d="M114.32 83.2639C114.32 83.2639 112.118 82.2587 110.972 81.6003" stroke="black" stroke-width="0.371968" stroke-miterlimit="10" stroke-linecap="round"/>
<path d="M128.031 155.073C128.031 155.073 131.16 157.849 131.837 158.816C132.514 159.783 132.674 160.816 132.581 162.752C132.488 164.687 131.872 166.236 131.388 166.171C130.905 166.106 130.807 165.848 130.807 165.848C130.807 165.848 130.033 166.333 129.319 165.848C129.319 165.848 129.226 166.816 126.994 166.816C126.994 166.816 126.542 169.59 125.479 169.074C124.415 168.558 124.769 166.005 125.091 165.106C125.091 165.106 125.341 160.526 124.764 160.457C124.188 160.387 121.285 160.489 121.285 160.489L122.995 155.231C122.995 155.231 125.232 152.452 128.031 155.073Z" fill="white" stroke="black" stroke-width="0.371968" stroke-miterlimit="10" stroke-linecap="round"/>
<path d="M113.629 87.1158C113.629 87.1158 110.709 88.0764 108.142 86.5765C105.576 85.0765 105.073 84.3754 105.073 84.3754C105.073 84.3754 104.769 83.9634 104.559 84.4962C104.349 85.0291 103.237 88.8994 102.011 89.1412C100.786 89.383 90.2859 90.6895 87.8988 93.2049C85.5117 95.7204 83.3097 124.042 88.4958 128.285C89.5596 129.156 92.8432 129.807 92.8432 129.807L122.995 155.236C122.995 155.236 126.382 154.462 128.607 155.236C128.607 155.236 126.672 128.334 127.155 124.656C127.639 120.978 128.801 91.705 121.059 90.7379C113.316 89.7707 114.189 88.9961 114.261 87.4478C114.266 87.4478 114.432 86.6881 113.629 87.1158Z" fill="white" stroke="black" stroke-width="0.371968" stroke-miterlimit="10" stroke-linecap="round"/>
<path d="M97.8867 90.0189C97.8867 90.0189 99.741 93.0439 100.064 95.2376C100.386 97.4312 101.161 104.495 102.031 104.85C102.902 105.205 118.709 104.85 118.709 104.85L118.87 109.366C118.87 109.366 99.3225 110.753 98.4512 106.076C97.5799 101.398 96.5774 90.3666 96.5774 90.3666L97.8867 90.0189Z" fill="#E3E3E3"/>
<path d="M121.313 96.0327C121.313 96.0327 124.836 106.854 124.158 114.789C123.48 122.724 123.9 154.853 123.9 154.853C123.9 154.853 121.969 155.417 121.313 155.03C120.658 154.642 117.697 102.095 121.313 96.0327Z" fill="#E3E3E3"/>
<path d="M121.063 90.0598C120.096 90.1175 119.127 90.1175 118.16 90.0598C118.16 90.0598 117.677 89.7455 118.16 91.318C118.644 92.8905 118.983 102.955 118.935 105.326C118.935 105.326 108.725 107.818 100.5 105.326C100.5 105.326 99.5376 92.525 96.7804 90.0347C96.7804 90.0347 96.8501 89.5279 93.415 90.375C93.415 90.375 96.56 95.5212 95.7612 106.434C95.2739 113.099 96.2698 120.083 96.2698 120.083L110.64 121.462V122.043L121.669 122.628C121.669 122.628 122.041 118.041 122.971 114.136C124.257 108.786 121.257 104.89 121.063 90.0598Z" fill="#F17336" stroke="black" stroke-width="0.371968" stroke-miterlimit="10" stroke-linecap="round"/>
<path d="M72.0011 228.105C78.5812 233.525 95.3225 231.491 95.3225 231.491L98.129 216.59V228.299C98.129 228.299 100.547 228.879 112.838 227.718C125.128 226.556 127.451 225.493 127.451 225.493C128.71 212.718 120.001 129.663 120.001 129.663L119.97 129.63C115.109 124.197 110.323 126.108 110.323 126.108L110.13 126.785C98.0602 130.155 92.9726 129.816 92.8517 129.808C92.8443 133.942 89.4231 140.042 89.4231 140.042C80.9041 154.945 72.0011 228.105 72.0011 228.105Z" fill="#654EF9" stroke="black" stroke-width="0.371968" stroke-miterlimit="10" stroke-linecap="round"/>
<path d="M111.101 128.962C116.473 130.752 120.029 132.639 120.029 132.639C120.029 132.639 119.982 131.116 119.968 129.63C115.107 124.197 110.321 126.108 110.321 126.108L110.128 126.785C98.0583 130.155 92.9707 129.816 92.8498 129.808C92.9 129.878 92.957 129.944 93.02 130.003C93.02 130.003 93.1818 131.519 92.4072 133.502C91.6325 135.486 105.731 127.173 111.101 128.962Z" fill="#5842E2"/>
<path d="M110.322 126.107C110.322 126.107 111.354 125.85 112.612 126.623C113.87 127.397 115.386 128.398 118.612 129.366C118.612 129.366 120.45 131.333 120.773 132.076C121.096 132.818 123.128 134.172 123.644 134.107C124.16 134.043 124.676 133.527 123.805 132.882C122.935 132.236 121.031 130.882 120.709 129.14C120.709 129.14 121.322 129.076 123.74 130.431C126.159 131.785 127.934 132.882 128.837 131.817C128.837 131.817 129.127 131.398 128.418 130.947C128.418 130.947 130.482 131.43 130.225 129.753C130.225 129.753 126.773 127.785 125.999 127.043C125.999 127.043 129.418 128.494 130.482 127.108C130.482 127.108 130.676 126.689 129.676 126.495C128.676 126.302 124.075 123.979 123.021 123.204C121.966 122.429 121.192 121.827 116.128 121.947C111.064 122.067 110.636 122.04 110.636 122.04L110.322 126.107Z" fill="white" stroke="black" stroke-width="0.371968" stroke-miterlimit="10" stroke-linecap="round"/>
<path d="M128.418 130.947C128.418 130.947 123.753 128.043 123.025 126.979" stroke="black" stroke-width="0.371968" stroke-miterlimit="10" stroke-linecap="round"/>
<path d="M126 127.043C126 127.043 123.741 125.495 123.354 125.172" stroke="black" stroke-width="0.371968" stroke-miterlimit="10" stroke-linecap="round"/>
<path d="M127.575 161.107C127.451 161.074 127.676 164.59 127.389 165.462C127.235 165.906 127.106 166.358 127.002 166.816" stroke="black" stroke-width="0.371968" stroke-miterlimit="10" stroke-linecap="round"/>
<path d="M129.902 160.817C129.902 160.817 130.095 164.655 129.322 165.848" stroke="black" stroke-width="0.371968" stroke-miterlimit="10" stroke-linecap="round"/>
<path d="M98.1289 216.589L109.693 150.204" stroke="black" stroke-width="0.371968" stroke-miterlimit="10" stroke-linecap="round"/>
<path d="M98.7573 135.979C98.7573 135.979 94.4109 144.803 86.3987 147.551" stroke="black" stroke-width="0.371968" stroke-miterlimit="10" stroke-linecap="round"/>
<path d="M107.636 80.4966C107.636 80.4966 102.846 79.5537 102.387 70.5623C102.387 70.5623 103.568 54.9592 122.101 60.3332C122.648 60.4849 123.139 60.7917 123.514 61.2166C124.032 61.8192 124.405 62.7835 123.5 64.09C123.5 64.09 121.852 66.5394 119.267 68.2393C116.681 69.9392 115.704 74.7088 114.896 74.3247C114.088 73.9407 113.388 71.442 111.333 73.3948C109.279 75.3476 108.621 75.8935 107.584 80.7505" fill="#3F3D56"/>
<path d="M96.2661 120.083C96.2661 120.083 94.5644 119.705 93.4113 120.083H96.2661Z" fill="#4052F2"/>
<path d="M96.2661 120.083C96.2661 120.083 94.5644 119.705 93.4113 120.083" stroke="black" stroke-width="0.371968" stroke-miterlimit="10" stroke-linecap="round"/>
<path d="M98.3545 228.137C98.3545 228.137 100.177 228.33 103.348 228.153L109.935 150.204L98.3545 216.786V228.137Z" fill="#5842E2"/>
<path d="M98.5398 135.978C98.5398 135.978 94.185 144.495 86.7298 147.204L87.4077 145.292C87.4077 145.292 92.512 142.946 96.9635 137.502C96.9673 137.507 98.5639 135.059 98.5398 135.978Z" fill="#5842E2"/>
<path d="M95.661 102.786C95.661 102.786 93.9677 116.189 93.8226 117.931C93.6775 119.672 93.8226 119.714 93.9918 119.73C94.1611 119.746 95.3226 119.553 96.0488 119.916C96.0488 119.916 95.2965 114.591 95.4193 111.476C95.6852 104.745 95.661 102.786 95.661 102.786Z" fill="#E3E3E3"/>
<path d="M114.897 74.3265C114.897 74.3265 113.084 71.7116 111.558 73.1957C110.032 74.6799 112.274 76.5202 113.5 76.6299" stroke="black" stroke-width="0.371968" stroke-miterlimit="10" stroke-linecap="round"/>
<path d="M121.467 64.2388C121.467 64.2388 110.872 58.2074 103.919 68.7341" stroke="white" stroke-width="0.185984" stroke-miterlimit="10" stroke-linecap="round"/>
<path d="M117.275 67.8564C117.275 67.8564 112.769 71.8262 103.919 69.9784" stroke="white" stroke-width="0.185984" stroke-miterlimit="10" stroke-linecap="round"/>
<path d="M107.482 77.4521C107.31 77.3972 105.064 76.5752 103.919 71.8047" stroke="white" stroke-width="0.185984" stroke-miterlimit="10" stroke-linecap="round"/>
<path d="M119.032 65.6244C119.032 65.6244 113.081 69.0065 110.597 68.7322" stroke="white" stroke-width="0.185984" stroke-miterlimit="10" stroke-linecap="round"/>
<path d="M101.008 69.6118C101.008 69.6118 91.0475 72.6806 90.3584 84.8169C89.6693 96.9533 84.6859 107.115 81.8533 111.208" stroke="white" stroke-width="0.185984" stroke-miterlimit="10" stroke-linecap="round"/>
<path d="M82.9705 92.6637C82.9705 92.6637 78.6817 110.365 72.5684 116.113" stroke="white" stroke-width="0.185984" stroke-miterlimit="10" stroke-linecap="round"/>
<path d="M114.16 83.3309C114.16 83.3309 111.278 81.9788 110.891 81.6859C110.504 81.393 110.841 83.794 113.774 84.7444L114.16 83.3309Z" fill="#E3E3E3"/>
<path d="M112.233 122.213C112.233 122.213 111.217 124.196 112.233 125.068C113.248 125.939 118.79 126.741 119.708 130.269L118.686 129.172C118.686 129.172 115.822 128.231 114.408 127.438C113.053 126.676 111.698 125.671 110.513 125.902L110.828 122.261L112.233 122.213Z" fill="#E3E3E3"/>
<path d="M123.654 73.7156C123.4 73.7156 123.195 73.4296 123.195 73.0768C123.195 72.7239 123.4 72.4379 123.654 72.4379C123.908 72.4379 124.114 72.7239 124.114 73.0768C124.114 73.4296 123.908 73.7156 123.654 73.7156Z" fill="black"/>
<path d="M124.816 70.0934C124.816 70.0934 123.011 69.2658 121.686 70.5137" stroke="black" stroke-width="0.371968" stroke-miterlimit="10" stroke-linecap="round"/>
<path d="M123.345 81.3307C123.345 81.3307 121.375 81.9398 120.237 80.3757L123.345 81.3307Z" fill="white"/>
<path d="M123.345 81.3307C123.345 81.3307 121.375 81.9398 120.237 80.3757" stroke="black" stroke-width="0.371968" stroke-miterlimit="10" stroke-linecap="round"/>
<path d="M74.417 240.788L56.0283 240.788" stroke="black" stroke-width="0.340569" stroke-miterlimit="10" stroke-linecap="round"/>
<path d="M51.6748 240.788L14.061 240.788" stroke="black" stroke-width="0.340569" stroke-miterlimit="10" stroke-linecap="round"/>
<path d="M219.27 240.788H198.656" stroke="black" stroke-width="0.340569" stroke-miterlimit="10" stroke-linecap="round"/>
<path d="M230.802 240.788H222.168" stroke="black" stroke-width="0.340569" stroke-miterlimit="10" stroke-linecap="round"/>
<path d="M100.715 240.788L84.1751 240.788" stroke="black" stroke-width="0.340569" stroke-miterlimit="10" stroke-linecap="round"/>
<path d="M195.24 240.788H116.407" stroke="black" stroke-width="0.340569" stroke-miterlimit="10" stroke-linecap="round"/>
</svg>
