<svg width="146" height="142" viewBox="0 0 146 142" fill="none" xmlns="http://www.w3.org/2000/svg">
<path d="M4.38398 120.894L4.14697 120.788V64.9893H107.303V120.909" fill="#FEFEFE"/>
<path d="M4.38398 120.894L4.14697 120.788V64.9893H107.303V120.909" stroke="black" stroke-width="0.271642" stroke-miterlimit="10"/>
<mask id="path-3-inside-1" fill="white">
<path fill-rule="evenodd" clip-rule="evenodd" d="M14.7284 81.4113C14.7284 81.5542 14.6074 81.6532 14.3876 81.6532L12.8047 81.6531C12.6067 81.6531 12.4858 81.5542 12.4858 81.4114C12.4859 81.3123 12.5847 81.2135 12.7387 81.1585C12.8815 81.1145 12.9805 80.9606 12.9805 80.8177L12.9806 76.2115C12.9806 76.0797 12.8815 75.9808 12.7387 75.9368C12.5848 75.8818 12.4858 75.7609 12.4858 75.662C12.4859 75.4971 12.6067 75.3981 12.8266 75.3981H14.3327C14.5855 75.3981 14.7284 75.4971 14.7284 75.662C14.7284 75.7608 14.6295 75.8598 14.4865 75.9148C14.3327 75.9588 14.2337 76.1127 14.2337 76.2556L14.2337 80.8727C14.2337 80.9936 14.3326 81.0926 14.4865 81.1365C14.6295 81.1914 14.7284 81.3124 14.7284 81.4113ZM21.3352 80.3453C21.3352 80.5982 21.0934 80.895 20.6976 81.1919C20.1591 81.5875 19.5104 81.7854 18.7958 81.7854C17.9164 81.7853 17.1249 81.4886 16.4763 80.939C15.8387 80.3782 15.4979 79.6089 15.4979 78.6744C15.4979 77.74 15.8387 76.9265 16.5093 76.2779C17.1909 75.6183 18.0154 75.2666 18.9167 75.2666C19.6094 75.2665 20.2799 75.4645 20.8735 75.8163C21.0934 75.9371 21.2143 76.1131 21.2143 76.2779C21.2143 76.5307 21.2363 76.7726 21.2363 77.0255C21.2363 77.2233 21.1373 77.3443 20.9395 77.3443C20.8735 77.3442 20.7966 77.2673 20.7746 77.1684C20.6757 76.9484 20.5987 76.7946 20.5987 76.7506C20.258 76.1569 19.6863 75.8382 18.9498 75.8382C18.3781 75.8382 17.8614 76.0801 17.4657 76.5748C17.07 77.0693 16.8501 77.7071 16.8501 78.4546C16.8501 79.1911 17.026 79.8287 17.3228 80.3234C17.6856 80.873 18.2572 81.1369 18.9717 81.1369C19.3455 81.1368 19.7083 81.0379 20.0051 80.873C20.181 80.774 20.4008 80.5982 20.6426 80.3783C20.8406 80.2024 20.9944 80.1035 21.0714 80.1035C21.2143 80.1035 21.3132 80.2025 21.3132 80.3454L21.3352 80.3453ZM28.1178 81.4116C28.1178 81.5546 27.9969 81.6535 27.799 81.6535L26.3479 81.6534C26.0951 81.6534 25.9742 81.5876 25.9742 81.4337C25.9742 81.3347 26.0511 81.2358 26.15 81.1919C26.271 81.1368 26.3479 81.0379 26.3479 80.961C26.3479 80.917 26.3149 80.873 26.3149 80.818L25.9192 79.5648H23.4128C23.193 80.2024 23.061 80.6422 23.061 80.7961C23.0611 80.939 23.138 81.0929 23.2589 81.1589C23.4128 81.2357 23.4787 81.3347 23.4787 81.4337C23.4787 81.5875 23.3359 81.6535 23.039 81.6535L22.1816 81.6534C21.9288 81.6534 21.8078 81.5876 21.8078 81.4337C21.8079 81.3347 21.8518 81.2358 21.9507 81.1589C22.0827 81.0928 22.2036 80.961 22.2475 80.818C22.4234 80.3013 22.6213 79.7848 22.7972 79.312C23.215 78.1797 23.6107 77.2453 23.9075 76.5528C24.0944 76.113 24.2702 75.7833 24.3692 75.6404C24.5451 75.3985 24.7429 75.2666 24.9188 75.2666C25.1057 75.2665 25.2816 75.3655 25.4025 75.5194C25.4575 75.5634 25.6004 75.7833 25.7543 76.1351C26.249 77.1243 26.8646 78.6195 27.5791 80.6202C27.6011 80.6971 27.6451 80.7961 27.678 80.895C27.7002 80.9939 27.777 81.0929 27.876 81.1369C28.0189 81.2357 28.1178 81.3567 28.1178 81.4337V81.4116ZM25.7323 78.949L24.644 76.5085L23.5778 78.949H25.7323ZM34.8016 78.5202C34.8016 79.4656 34.5047 80.2461 33.9111 80.7957C33.3175 81.3564 32.537 81.6532 31.5696 81.6532L28.8873 81.6531C28.6895 81.6531 28.5575 81.5873 28.5575 81.4333C28.5576 81.3123 28.6564 81.2135 28.8104 81.1585C28.9533 81.1145 29.0522 80.9606 29.0522 80.7738L29.0523 76.2115C29.0523 76.0797 28.9533 75.9808 28.8104 75.9368C28.6565 75.8818 28.5575 75.7609 28.5575 75.662C28.5576 75.4971 28.7114 75.3981 29.0082 75.3981H31.2728C32.1852 75.3981 32.9987 75.6401 33.6363 76.1127C34.4058 76.6732 34.8015 77.5088 34.8015 78.5532L34.8016 78.5202ZM33.4495 78.5209C33.4495 77.8392 33.2516 77.2238 32.8779 76.773C32.4601 76.2344 31.8225 75.9596 31.0091 75.9596C30.7562 75.9595 30.5804 76.0145 30.5144 76.0585C30.3824 76.1353 30.3165 76.3333 30.3165 76.6081V80.5215C30.3165 80.7743 30.3824 80.9393 30.4814 81.0163C30.5804 81.0602 30.7782 81.0933 31.053 81.0933C31.7676 81.0932 32.3612 80.8404 32.7789 80.4007C33.2187 79.928 33.4495 79.2904 33.4495 78.5209Z"/>
</mask>
<path fill-rule="evenodd" clip-rule="evenodd" d="M14.7284 81.4113C14.7284 81.5542 14.6074 81.6532 14.3876 81.6532L12.8047 81.6531C12.6067 81.6531 12.4858 81.5542 12.4858 81.4114C12.4859 81.3123 12.5847 81.2135 12.7387 81.1585C12.8815 81.1145 12.9805 80.9606 12.9805 80.8177L12.9806 76.2115C12.9806 76.0797 12.8815 75.9808 12.7387 75.9368C12.5848 75.8818 12.4858 75.7609 12.4858 75.662C12.4859 75.4971 12.6067 75.3981 12.8266 75.3981H14.3327C14.5855 75.3981 14.7284 75.4971 14.7284 75.662C14.7284 75.7608 14.6295 75.8598 14.4865 75.9148C14.3327 75.9588 14.2337 76.1127 14.2337 76.2556L14.2337 80.8727C14.2337 80.9936 14.3326 81.0926 14.4865 81.1365C14.6295 81.1914 14.7284 81.3124 14.7284 81.4113ZM21.3352 80.3453C21.3352 80.5982 21.0934 80.895 20.6976 81.1919C20.1591 81.5875 19.5104 81.7854 18.7958 81.7854C17.9164 81.7853 17.1249 81.4886 16.4763 80.939C15.8387 80.3782 15.4979 79.6089 15.4979 78.6744C15.4979 77.74 15.8387 76.9265 16.5093 76.2779C17.1909 75.6183 18.0154 75.2666 18.9167 75.2666C19.6094 75.2665 20.2799 75.4645 20.8735 75.8163C21.0934 75.9371 21.2143 76.1131 21.2143 76.2779C21.2143 76.5307 21.2363 76.7726 21.2363 77.0255C21.2363 77.2233 21.1373 77.3443 20.9395 77.3443C20.8735 77.3442 20.7966 77.2673 20.7746 77.1684C20.6757 76.9484 20.5987 76.7946 20.5987 76.7506C20.258 76.1569 19.6863 75.8382 18.9498 75.8382C18.3781 75.8382 17.8614 76.0801 17.4657 76.5748C17.07 77.0693 16.8501 77.7071 16.8501 78.4546C16.8501 79.1911 17.026 79.8287 17.3228 80.3234C17.6856 80.873 18.2572 81.1369 18.9717 81.1369C19.3455 81.1368 19.7083 81.0379 20.0051 80.873C20.181 80.774 20.4008 80.5982 20.6426 80.3783C20.8406 80.2024 20.9944 80.1035 21.0714 80.1035C21.2143 80.1035 21.3132 80.2025 21.3132 80.3454L21.3352 80.3453ZM28.1178 81.4116C28.1178 81.5546 27.9969 81.6535 27.799 81.6535L26.3479 81.6534C26.0951 81.6534 25.9742 81.5876 25.9742 81.4337C25.9742 81.3347 26.0511 81.2358 26.15 81.1919C26.271 81.1368 26.3479 81.0379 26.3479 80.961C26.3479 80.917 26.3149 80.873 26.3149 80.818L25.9192 79.5648H23.4128C23.193 80.2024 23.061 80.6422 23.061 80.7961C23.0611 80.939 23.138 81.0929 23.2589 81.1589C23.4128 81.2357 23.4787 81.3347 23.4787 81.4337C23.4787 81.5875 23.3359 81.6535 23.039 81.6535L22.1816 81.6534C21.9288 81.6534 21.8078 81.5876 21.8078 81.4337C21.8079 81.3347 21.8518 81.2358 21.9507 81.1589C22.0827 81.0928 22.2036 80.961 22.2475 80.818C22.4234 80.3013 22.6213 79.7848 22.7972 79.312C23.215 78.1797 23.6107 77.2453 23.9075 76.5528C24.0944 76.113 24.2702 75.7833 24.3692 75.6404C24.5451 75.3985 24.7429 75.2666 24.9188 75.2666C25.1057 75.2665 25.2816 75.3655 25.4025 75.5194C25.4575 75.5634 25.6004 75.7833 25.7543 76.1351C26.249 77.1243 26.8646 78.6195 27.5791 80.6202C27.6011 80.6971 27.6451 80.7961 27.678 80.895C27.7002 80.9939 27.777 81.0929 27.876 81.1369C28.0189 81.2357 28.1178 81.3567 28.1178 81.4337V81.4116ZM25.7323 78.949L24.644 76.5085L23.5778 78.949H25.7323ZM34.8016 78.5202C34.8016 79.4656 34.5047 80.2461 33.9111 80.7957C33.3175 81.3564 32.537 81.6532 31.5696 81.6532L28.8873 81.6531C28.6895 81.6531 28.5575 81.5873 28.5575 81.4333C28.5576 81.3123 28.6564 81.2135 28.8104 81.1585C28.9533 81.1145 29.0522 80.9606 29.0522 80.7738L29.0523 76.2115C29.0523 76.0797 28.9533 75.9808 28.8104 75.9368C28.6565 75.8818 28.5575 75.7609 28.5575 75.662C28.5576 75.4971 28.7114 75.3981 29.0082 75.3981H31.2728C32.1852 75.3981 32.9987 75.6401 33.6363 76.1127C34.4058 76.6732 34.8015 77.5088 34.8015 78.5532L34.8016 78.5202ZM33.4495 78.5209C33.4495 77.8392 33.2516 77.2238 32.8779 76.773C32.4601 76.2344 31.8225 75.9596 31.0091 75.9596C30.7562 75.9595 30.5804 76.0145 30.5144 76.0585C30.3824 76.1353 30.3165 76.3333 30.3165 76.6081V80.5215C30.3165 80.7743 30.3824 80.9393 30.4814 81.0163C30.5804 81.0602 30.7782 81.0933 31.053 81.0933C31.7676 81.0932 32.3612 80.8404 32.7789 80.4007C33.2187 79.928 33.4495 79.2904 33.4495 78.5209Z" fill="#F17336"/>
<path d="M14.7284 81.4113H14.7698V81.4113L14.7284 81.4113ZM14.3876 81.6532L14.3876 81.6945H14.3876V81.6532ZM12.8047 81.6531L12.8047 81.6117H12.8047V81.6531ZM12.4858 81.4114L12.4445 81.4114V81.4114H12.4858ZM12.7387 81.1585L12.7265 81.119L12.7248 81.1196L12.7387 81.1585ZM12.9805 80.8177L12.9392 80.8177V80.8177H12.9805ZM12.9806 76.2115L13.0219 76.2115V76.2115H12.9806ZM12.7387 75.9368L12.7248 75.9758L12.7265 75.9763L12.7387 75.9368ZM12.4858 75.662L12.4445 75.662V75.662H12.4858ZM14.7284 75.662H14.6871V75.662L14.7284 75.662ZM14.4865 75.9148L14.4979 75.9547L14.5014 75.9534L14.4865 75.9148ZM14.2337 76.2556H14.1924V76.2556L14.2337 76.2556ZM14.2337 80.8727H14.2751V80.8727L14.2337 80.8727ZM14.4865 81.1365L14.5014 81.0978L14.4979 81.0968L14.4865 81.1365ZM21.3352 80.3453H21.3765V80.3037L21.3349 80.3039L21.3352 80.3453ZM20.6976 81.1919L20.7221 81.2252L20.7224 81.2249L20.6976 81.1919ZM18.7958 81.7854L18.7958 81.8268H18.7958V81.7854ZM16.4763 80.939L16.449 80.97L16.4496 80.9705L16.4763 80.939ZM16.5093 76.2779L16.538 76.3076L16.538 76.3076L16.5093 76.2779ZM18.9167 75.2666V75.3079H18.9167L18.9167 75.2666ZM20.8735 75.8163L20.8524 75.8519L20.8536 75.8525L20.8735 75.8163ZM21.2363 77.0255H21.195V77.0255L21.2363 77.0255ZM20.9395 77.3443L20.9395 77.3856H20.9395V77.3443ZM20.7746 77.1684L20.8157 77.1592L20.8122 77.1515L20.7746 77.1684ZM20.5987 76.7506H20.64V76.7396L20.6345 76.7301L20.5987 76.7506ZM17.4657 76.5748L17.4334 76.549L17.4334 76.549L17.4657 76.5748ZM17.3228 80.3234L17.2873 80.3446L17.2883 80.3461L17.3228 80.3234ZM18.9717 81.1369V81.1782H18.9718L18.9717 81.1369ZM20.0051 80.873L20.0251 80.9092L20.0254 80.909L20.0051 80.873ZM20.6426 80.3783L20.6152 80.3475L20.6149 80.3478L20.6426 80.3783ZM21.0714 80.1035V80.1448H21.0714L21.0714 80.1035ZM21.3132 80.3454H21.2719V80.3869L21.3135 80.3867L21.3132 80.3454ZM27.799 81.6535L27.799 81.6949H27.799V81.6535ZM26.3479 81.6534L26.3479 81.6121H26.3479V81.6534ZM25.9742 81.4337L25.9328 81.4336V81.4337H25.9742ZM26.15 81.1919L26.1668 81.2296L26.1672 81.2295L26.15 81.1919ZM26.3149 80.818H26.3582L26.3543 80.8056L26.3149 80.818ZM25.9192 79.5648L25.9586 79.5524L25.9494 79.5235H25.9192V79.5648ZM23.4128 79.5648V79.5235H23.3833L23.3737 79.5514L23.4128 79.5648ZM23.061 80.7961H23.0197V80.7961L23.061 80.7961ZM23.2589 81.1589L23.2391 81.1952L23.2404 81.1958L23.2589 81.1589ZM23.039 81.6535L23.039 81.6949H23.039V81.6535ZM22.1816 81.6534L22.1816 81.6121H22.1816V81.6534ZM21.8078 81.4337L21.7665 81.4337V81.4337H21.8078ZM21.9507 81.1589L21.9319 81.1212L21.9254 81.1262L21.9507 81.1589ZM22.2475 80.818L22.2084 80.8047L22.208 80.8059L22.2475 80.818ZM22.7972 79.312L22.8359 79.3264L22.8359 79.3263L22.7972 79.312ZM23.9075 76.5528L23.9454 76.5691L23.9455 76.569L23.9075 76.5528ZM24.3692 75.6404L24.3358 75.6161L24.3352 75.6169L24.3692 75.6404ZM24.9188 75.2666V75.3079L24.9189 75.3079L24.9188 75.2666ZM25.4025 75.5194L25.3691 75.5457L25.3767 75.5517L25.4025 75.5194ZM25.7543 76.1351L25.7164 76.1517L25.7173 76.1536L25.7543 76.1351ZM27.5791 80.6202L27.619 80.6088L27.618 80.6063L27.5791 80.6202ZM27.678 80.895L27.7186 80.8859L27.7172 80.8819L27.678 80.895ZM27.876 81.1369L27.8999 81.1023L27.8927 81.0991L27.876 81.1369ZM25.7323 78.949V78.9904H25.796L25.77 78.9322L25.7323 78.949ZM24.644 76.5085L24.6817 76.4916L24.6436 76.4062L24.6061 76.4919L24.644 76.5085ZM23.5778 78.949L23.5399 78.9325L23.5146 78.9904H23.5778V78.949ZM34.8016 78.5202H34.8429L34.7603 78.5201L34.8016 78.5202ZM33.9111 80.7957L33.883 80.7654L33.8827 80.7657L33.9111 80.7957ZM31.5696 81.6532L31.5696 81.6945H31.5696V81.6532ZM28.8873 81.6531L28.8873 81.6117H28.8873V81.6531ZM28.5575 81.4333L28.5162 81.4333V81.4333H28.5575ZM28.8104 81.1585L28.7982 81.119L28.7965 81.1196L28.8104 81.1585ZM29.0522 80.7738L29.0109 80.7738V80.7738H29.0522ZM29.0523 76.2115L29.0936 76.2115V76.2115H29.0523ZM28.8104 75.9368L28.7964 75.9758L28.7982 75.9763L28.8104 75.9368ZM28.5575 75.662L28.5162 75.662V75.662H28.5575ZM33.6363 76.1127L33.6117 76.1459L33.6119 76.1461L33.6363 76.1127ZM34.8015 78.5532H34.7602L34.8429 78.5532L34.8015 78.5532ZM32.8779 76.773L32.8452 76.7983L32.8461 76.7994L32.8779 76.773ZM31.0091 75.9596L31.0091 76.0009H31.0091V75.9596ZM30.5144 76.0585L30.5352 76.0942L30.5373 76.0929L30.5144 76.0585ZM30.4814 81.0163L30.4553 81.0499L30.4647 81.0541L30.4814 81.0163ZM31.053 81.0933V81.1346H31.053L31.053 81.0933ZM32.7789 80.4007L32.8088 80.4291L32.8091 80.4288L32.7789 80.4007ZM14.6871 81.4113C14.6871 81.4697 14.663 81.5178 14.6159 81.5526C14.5675 81.5883 14.4919 81.6119 14.3876 81.6119V81.6945C14.5031 81.6945 14.5979 81.6686 14.665 81.6191C14.7333 81.5686 14.7698 81.4958 14.7698 81.4113H14.6871ZM14.3876 81.6119L12.8047 81.6117L12.8047 81.6944L14.3876 81.6945L14.3876 81.6119ZM12.8047 81.6117C12.7121 81.6117 12.6422 81.5886 12.5963 81.5531C12.5514 81.5183 12.5272 81.47 12.5272 81.4114H12.4445C12.4445 81.4956 12.4807 81.5681 12.5457 81.6185C12.6098 81.6681 12.6993 81.6944 12.8047 81.6944V81.6117ZM12.5272 81.4114C12.5272 81.3761 12.5449 81.3365 12.5838 81.2976C12.6225 81.2589 12.68 81.2233 12.7526 81.1974L12.7248 81.1196C12.6434 81.1486 12.5745 81.19 12.5253 81.2392C12.4763 81.2882 12.4446 81.3476 12.4445 81.4114L12.5272 81.4114ZM12.7509 81.198C12.9131 81.148 13.0218 80.9765 13.0218 80.8177H12.9392C12.9392 80.9448 12.8499 81.081 12.7265 81.119L12.7509 81.198ZM13.0218 80.8177L13.0219 76.2115L12.9393 76.2115L12.9392 80.8177L13.0218 80.8177ZM13.0219 76.2115C13.0219 76.0549 12.9037 75.9444 12.7508 75.8974L12.7265 75.9763C12.8593 76.0172 12.9393 76.1044 12.9393 76.2115H13.0219ZM12.7526 75.8979C12.6819 75.8727 12.6246 75.8325 12.5854 75.7884C12.5458 75.7438 12.5272 75.6982 12.5272 75.662H12.4445C12.4445 75.7247 12.4754 75.789 12.5237 75.8434C12.5725 75.8982 12.6416 75.946 12.7248 75.9757L12.7526 75.8979ZM12.5272 75.662C12.5272 75.5906 12.5528 75.5373 12.5993 75.5007C12.6472 75.4631 12.7222 75.4395 12.8266 75.4395V75.3568C12.7112 75.3568 12.6157 75.3827 12.5483 75.4357C12.4794 75.4899 12.4446 75.5685 12.4445 75.662L12.5272 75.662ZM12.8266 75.4395H14.3327V75.3568H12.8266V75.4395ZM14.3327 75.4395C14.4546 75.4395 14.5443 75.4635 14.6022 75.5025C14.6583 75.5403 14.6871 75.5934 14.6871 75.662H14.7697C14.7697 75.5657 14.7271 75.487 14.6484 75.434C14.5717 75.3823 14.4636 75.3568 14.3327 75.3568V75.4395ZM14.6871 75.662C14.6871 75.6973 14.6693 75.737 14.6314 75.7761C14.5937 75.815 14.5387 75.8505 14.4717 75.8763L14.5014 75.9534C14.5773 75.9242 14.6432 75.8827 14.6908 75.8336C14.7381 75.7847 14.7697 75.7255 14.7697 75.662L14.6871 75.662ZM14.4752 75.8751C14.3018 75.9246 14.1924 76.0963 14.1924 76.2556H14.275C14.275 76.1292 14.3636 75.9929 14.4979 75.9546L14.4752 75.8751ZM14.1924 76.2556L14.1924 80.8727L14.2751 80.8727L14.275 76.2556L14.1924 76.2556ZM14.1924 80.8727C14.1924 81.0198 14.3123 81.1298 14.4752 81.1762L14.4979 81.0968C14.3528 81.0554 14.2751 80.9673 14.2751 80.8727H14.1924ZM14.4717 81.1751C14.5369 81.2001 14.5917 81.2401 14.6298 81.2843C14.6684 81.3292 14.6871 81.375 14.6871 81.4113L14.7698 81.4113C14.7697 81.3487 14.739 81.2845 14.6924 81.2304C14.6453 81.1757 14.5791 81.1278 14.5013 81.0979L14.4717 81.1751ZM21.2939 80.3453C21.2939 80.4588 21.2393 80.5874 21.132 80.7269C21.0252 80.8658 20.8689 81.0117 20.6728 81.1588L20.7224 81.2249C20.922 81.0752 21.0846 80.9242 21.1976 80.7773C21.3102 80.6309 21.3765 80.4846 21.3765 80.3453H21.2939ZM20.6731 81.1586C20.1424 81.5485 19.5025 81.7441 18.7958 81.7441V81.8268C19.5182 81.8268 20.1757 81.6266 20.7221 81.2252L20.6731 81.1586ZM18.7958 81.7441C17.9262 81.744 17.1442 81.4508 16.503 80.9075L16.4496 80.9705C17.1056 81.5264 17.9066 81.8266 18.7958 81.8268L18.7958 81.7441ZM16.5036 80.9079C15.8756 80.3556 15.5393 79.5979 15.5393 78.6744H15.4566C15.4566 79.6199 15.8018 80.4008 16.449 80.97L16.5036 80.9079ZM15.5393 78.6744C15.5393 77.751 15.8756 76.9483 16.538 76.3076L16.4806 76.2482C15.8018 76.9047 15.4566 77.7289 15.4566 78.6744H15.5393ZM16.538 76.3076C17.2125 75.6549 18.0269 75.3079 18.9167 75.3079V75.2253C18.0038 75.2253 17.1692 75.5818 16.4805 76.2482L16.538 76.3076ZM18.9167 75.3079C19.6014 75.3078 20.2647 75.5036 20.8524 75.8519L20.8946 75.7808C20.295 75.4255 19.6173 75.2252 18.9167 75.2253L18.9167 75.3079ZM20.8536 75.8525C21.0658 75.9691 21.173 76.1336 21.173 76.2779H21.2556C21.2556 76.0925 21.1209 75.9051 20.8934 75.7801L20.8536 75.8525ZM21.173 76.2779C21.173 76.4054 21.1785 76.53 21.184 76.6535C21.1895 76.7773 21.195 76.9001 21.195 77.0255H21.2776C21.2776 76.898 21.2721 76.7734 21.2666 76.6499C21.2611 76.526 21.2556 76.4033 21.2556 76.2779H21.173ZM21.195 77.0255C21.195 77.118 21.1718 77.1865 21.1314 77.2314C21.0916 77.2757 21.0298 77.303 20.9395 77.303V77.3856C21.0471 77.3856 21.1337 77.3524 21.1928 77.2867C21.2513 77.2217 21.2776 77.1308 21.2776 77.0255L21.195 77.0255ZM20.9396 77.303C20.9219 77.3029 20.8963 77.2919 20.8704 77.2648C20.8453 77.2386 20.8242 77.2014 20.8149 77.1594L20.7342 77.1774C20.7469 77.2343 20.7753 77.285 20.8107 77.322C20.8453 77.3581 20.8911 77.3855 20.9395 77.3856L20.9396 77.303ZM20.8122 77.1515C20.7622 77.04 20.7191 76.9486 20.6873 76.8768C20.6716 76.8413 20.6593 76.8121 20.6511 76.7894C20.6469 76.778 20.644 76.7689 20.6422 76.7618C20.6412 76.7583 20.6407 76.7555 20.6403 76.7535C20.64 76.7514 20.64 76.7505 20.64 76.7506H20.5574C20.5574 76.7699 20.5649 76.7942 20.5734 76.8177C20.5827 76.8431 20.5959 76.8743 20.6118 76.9103C20.6432 76.9813 20.6881 77.0768 20.7369 77.1853L20.8122 77.1515ZM20.6345 76.7301C20.2859 76.1225 19.6999 75.7969 18.9498 75.7969V75.8796C19.6727 75.8796 20.2301 76.1913 20.5628 76.7712L20.6345 76.7301ZM18.9498 75.7969C18.3651 75.7969 17.8367 76.0448 17.4334 76.549L17.4979 76.6006C17.8861 76.1154 18.3911 75.8796 18.9498 75.8796V75.7969ZM17.4334 76.549C17.0313 77.0516 16.8088 77.6987 16.8088 78.4546H16.8914C16.8914 77.7154 17.1088 77.0871 17.4979 76.6006L17.4334 76.549ZM16.8088 78.4546C16.8088 79.1976 16.9862 79.8428 17.2874 80.3446L17.3582 80.3021C17.0658 79.8147 16.8914 79.1846 16.8914 78.4546H16.8088ZM17.2883 80.3461C17.6602 80.9095 18.2461 81.1782 18.9717 81.1782V81.0955C18.2684 81.0955 17.7111 80.8366 17.3573 80.3006L17.2883 80.3461ZM18.9718 81.1782C19.3526 81.1781 19.7223 81.0774 20.0251 80.9092L19.985 80.8369C19.6944 80.9984 19.3385 81.0955 18.9717 81.0955L18.9718 81.1782ZM20.0254 80.909C20.2055 80.8076 20.4282 80.6292 20.6704 80.4089L20.6149 80.3478C20.3735 80.5672 20.1564 80.7404 19.9848 80.837L20.0254 80.909ZM20.6701 80.4092C20.7682 80.322 20.8543 80.2549 20.9247 80.2097C20.9599 80.1872 20.9904 80.1706 21.0159 80.1598C21.042 80.1487 21.0601 80.1448 21.0714 80.1448V80.0622C21.0442 80.0622 21.0143 80.0707 20.9836 80.0837C20.9525 80.0969 20.9177 80.116 20.8801 80.1402C20.8048 80.1885 20.7151 80.2587 20.6152 80.3475L20.6701 80.4092ZM21.0714 80.1448C21.1331 80.1448 21.1826 80.166 21.2167 80.2001C21.2507 80.2341 21.2719 80.2837 21.2719 80.3454H21.3546C21.3546 80.2641 21.3263 80.1928 21.2751 80.1416C21.224 80.0905 21.1526 80.0622 21.0714 80.0622L21.0714 80.1448ZM21.3135 80.3867L21.3354 80.3866L21.3349 80.3039L21.313 80.3041L21.3135 80.3867ZM28.0765 81.4116C28.0765 81.4703 28.0522 81.5187 28.0073 81.5535C27.9614 81.5891 27.8915 81.6122 27.799 81.6122V81.6949C27.9044 81.6949 27.9938 81.6685 28.0579 81.6188C28.1229 81.5684 28.1591 81.4959 28.1591 81.4116H28.0765ZM27.799 81.6122L26.3479 81.6121L26.3479 81.6947L27.799 81.6949L27.799 81.6122ZM26.3479 81.6121C26.2235 81.6121 26.1391 81.5956 26.0869 81.5655C26.0616 81.5509 26.0444 81.5334 26.0332 81.513C26.0219 81.4925 26.0155 81.4667 26.0155 81.4337H25.9328C25.9328 81.4776 25.9415 81.5177 25.9608 81.5529C25.9802 81.5881 26.009 81.616 26.0456 81.6371C26.1171 81.6783 26.2196 81.6947 26.3479 81.6947V81.6121ZM26.0155 81.4337C26.0155 81.3549 26.0789 81.2687 26.1668 81.2296L26.1333 81.1541C26.0232 81.203 25.9329 81.3145 25.9328 81.4336L26.0155 81.4337ZM26.1672 81.2295C26.2329 81.1995 26.2875 81.1573 26.3261 81.1111C26.3641 81.0655 26.3892 81.0124 26.3892 80.961H26.3066C26.3066 80.9864 26.2933 81.0213 26.2626 81.0582C26.2325 81.0943 26.1881 81.1291 26.1329 81.1543L26.1672 81.2295ZM26.3892 80.961C26.3892 80.9303 26.3778 80.9008 26.3704 80.8799C26.3621 80.8563 26.3562 80.8377 26.3562 80.818H26.2736C26.2736 80.8534 26.2843 80.8842 26.2925 80.9074C26.3016 80.9332 26.3066 80.9476 26.3066 80.961H26.3892ZM26.3543 80.8056L25.9586 79.5524L25.8798 79.5773L26.2755 80.8305L26.3543 80.8056ZM25.9192 79.5235H23.4128V79.6062H25.9192V79.5235ZM23.3737 79.5514C23.2637 79.8704 23.1755 80.1405 23.1148 80.3503C23.0546 80.558 23.0197 80.7122 23.0197 80.7961H23.1023C23.1023 80.726 23.1333 80.5833 23.1942 80.3733C23.2543 80.1654 23.342 79.8968 23.4518 79.5783L23.3737 79.5514ZM23.0197 80.7961C23.0198 80.951 23.1024 81.1206 23.2391 81.1951L23.2787 81.1226C23.1736 81.0653 23.1024 80.927 23.1023 80.796L23.0197 80.7961ZM23.2404 81.1958C23.3865 81.2688 23.4374 81.3563 23.4374 81.4337H23.52C23.52 81.3132 23.439 81.2027 23.2774 81.1219L23.2404 81.1958ZM23.4374 81.4337C23.4374 81.4655 23.4301 81.4904 23.4171 81.5105C23.404 81.5307 23.3832 81.5489 23.352 81.5642C23.288 81.5956 23.1859 81.6122 23.039 81.6122V81.6949C23.1889 81.6949 23.3068 81.6785 23.3884 81.6384C23.43 81.618 23.4635 81.5908 23.4864 81.5554C23.5095 81.5198 23.52 81.4788 23.52 81.4337H23.4374ZM23.039 81.6122L22.1816 81.6121L22.1816 81.6947L23.039 81.6949L23.039 81.6122ZM22.1816 81.6121C22.0572 81.6121 21.9728 81.5956 21.9206 81.5655C21.8953 81.5509 21.8781 81.5334 21.8669 81.513C21.8556 81.4925 21.8491 81.4667 21.8491 81.4337H21.7665C21.7665 81.4776 21.7752 81.5177 21.7945 81.5529C21.8139 81.5881 21.8427 81.616 21.8793 81.6371C21.9508 81.6783 22.0533 81.6947 22.1816 81.6947V81.6121ZM21.8491 81.4337C21.8492 81.348 21.8868 81.261 21.9761 81.1915L21.9254 81.1262C21.8168 81.2107 21.7666 81.3214 21.7665 81.4337L21.8491 81.4337ZM21.9692 81.1958C22.1101 81.1253 22.2394 80.9851 22.287 80.8302L22.208 80.8059C22.1678 80.9368 22.0553 81.0603 21.9323 81.1219L21.9692 81.1958ZM22.2866 80.8314C22.4623 80.3154 22.6598 79.7997 22.8359 79.3264L22.7585 79.2976C22.5827 79.7698 22.3846 80.2873 22.2084 80.8047L22.2866 80.8314ZM22.8359 79.3263C23.2534 78.1951 23.6487 77.2614 23.9454 76.5691L23.8695 76.5365C23.5726 77.2292 23.1766 78.1644 22.7584 79.2977L22.8359 79.3263ZM23.9455 76.569C24.1321 76.13 24.3066 75.8034 24.4032 75.6639L24.3352 75.6169C24.2339 75.7633 24.0567 76.096 23.8694 76.5367L23.9455 76.569ZM24.4026 75.6647C24.5758 75.4266 24.7629 75.3079 24.9188 75.3079V75.2253C24.723 75.2253 24.5144 75.3704 24.3358 75.6161L24.4026 75.6647ZM24.9189 75.3079C25.0908 75.3078 25.2554 75.3991 25.37 75.545L25.435 75.4939C25.3077 75.3319 25.1206 75.2251 24.9188 75.2253L24.9189 75.3079ZM25.3767 75.5517C25.3859 75.559 25.4024 75.5772 25.4256 75.609C25.4482 75.64 25.4753 75.6814 25.5057 75.7329C25.5666 75.8357 25.6401 75.9771 25.7164 76.1517L25.7921 76.1185C25.7146 75.9413 25.6397 75.7969 25.5769 75.6908C25.5455 75.6378 25.5169 75.594 25.4924 75.5604C25.4686 75.5277 25.4466 75.5018 25.4283 75.4872L25.3767 75.5517ZM25.7173 76.1536C26.211 77.1406 26.8259 78.634 27.5402 80.6341L27.618 80.6063C26.9033 78.6049 26.2871 77.108 25.7912 76.1166L25.7173 76.1536ZM27.5394 80.6315C27.551 80.672 27.5681 80.7176 27.5859 80.7641C27.6039 80.8112 27.6227 80.8597 27.6388 80.9081L27.7172 80.8819C27.7004 80.8314 27.6808 80.7809 27.6631 80.7346C27.6451 80.6876 27.6293 80.6453 27.6189 80.6088L27.5394 80.6315ZM27.6377 80.904C27.6626 81.0152 27.7478 81.1252 27.8592 81.1746L27.8927 81.0991C27.8061 81.0607 27.7377 80.9726 27.7184 80.886L27.6377 80.904ZM27.8525 81.1708C27.9214 81.2185 27.9788 81.2709 28.0185 81.3196C28.0597 81.3702 28.0765 81.4101 28.0765 81.4337H28.1591C28.1591 81.3803 28.1265 81.3212 28.0825 81.2674C28.037 81.2116 27.9735 81.1541 27.8995 81.1029L27.8525 81.1708ZM28.1591 81.4337V81.4116H28.0765V81.4337H28.1591ZM25.77 78.9322L24.6817 76.4916L24.6063 76.5253L25.6946 78.9659L25.77 78.9322ZM24.6061 76.4919L23.5399 78.9325L23.6156 78.9656L24.6819 76.525L24.6061 76.4919ZM23.5778 78.9904H25.7323V78.9077H23.5778V78.9904ZM34.7603 78.5202C34.7603 79.4567 34.4664 80.2252 33.883 80.7654L33.9392 80.826C34.5429 80.267 34.8429 79.4745 34.8429 78.5202H34.7603ZM33.8827 80.7657C33.2978 81.3181 32.5279 81.6119 31.5696 81.6119V81.6945C32.546 81.6945 33.3371 81.3946 33.9395 80.8257L33.8827 80.7657ZM31.5696 81.6119L28.8873 81.6117L28.8873 81.6944L31.5696 81.6945L31.5696 81.6119ZM28.8873 81.6117C28.7918 81.6117 28.7183 81.5957 28.6699 81.5658C28.6245 81.5376 28.5988 81.496 28.5988 81.4333H28.5162C28.5162 81.5245 28.5565 81.5928 28.6265 81.6361C28.6936 81.6776 28.785 81.6944 28.8873 81.6944V81.6117ZM28.5988 81.4333C28.5989 81.3383 28.6769 81.25 28.8243 81.1974L28.7965 81.1196C28.6359 81.1769 28.5163 81.2863 28.5162 81.4333L28.5988 81.4333ZM28.8225 81.198C28.9873 81.1472 29.0935 80.9736 29.0935 80.7738H29.0109C29.0109 80.9476 28.9193 81.0817 28.7982 81.119L28.8225 81.198ZM29.0935 80.7738L29.0936 76.2115L29.011 76.2115L29.0109 80.7738L29.0935 80.7738ZM29.0936 76.2115C29.0936 76.0549 28.9755 75.9444 28.8225 75.8974L28.7982 75.9763C28.931 76.0172 29.011 76.1044 29.011 76.2115H29.0936ZM28.8243 75.8979C28.7536 75.8727 28.6963 75.8325 28.6571 75.7884C28.6174 75.7438 28.5988 75.6982 28.5988 75.662H28.5162C28.5162 75.7247 28.5471 75.789 28.5954 75.8434C28.6442 75.8982 28.7133 75.946 28.7965 75.9757L28.8243 75.8979ZM28.5988 75.662C28.5988 75.5951 28.6288 75.5421 28.6928 75.5037C28.7593 75.4638 28.8633 75.4395 29.0082 75.4395V75.3568C28.8563 75.3568 28.735 75.382 28.6503 75.4328C28.5632 75.4851 28.5162 75.564 28.5162 75.662L28.5988 75.662ZM29.0082 75.4395H31.2728V75.3568H29.0082V75.4395ZM31.2728 75.4395C32.1779 75.4395 32.9824 75.6794 33.6117 76.1459L33.6609 76.0795C33.015 75.6007 32.1925 75.3568 31.2728 75.3568V75.4395ZM33.6119 76.1461C34.3696 76.6979 34.7602 77.5204 34.7602 78.5532H34.8429C34.8429 77.4972 34.4421 76.6485 33.6606 76.0793L33.6119 76.1461ZM34.8429 78.5532L34.8429 78.5202L34.7603 78.5201L34.7602 78.5531L34.8429 78.5532ZM33.4908 78.5209C33.4908 77.8315 33.2907 77.2062 32.9097 76.7466L32.8461 76.7994C33.2126 77.2414 33.4081 77.847 33.4081 78.5209H33.4908ZM32.9106 76.7477C32.4833 76.1968 31.8323 75.9183 31.0091 75.9183V76.0009C31.8127 76.0009 32.4369 76.2719 32.8453 76.7983L32.9106 76.7477ZM31.0091 75.9183C30.8797 75.9182 30.7694 75.9323 30.6824 75.9522C30.5963 75.972 30.5304 75.9982 30.4915 76.0241L30.5373 76.0929C30.5644 76.0748 30.6194 76.0515 30.7009 76.0328C30.7815 76.0143 30.8856 76.0008 31.0091 76.0009L31.0091 75.9183ZM30.4936 76.0228C30.4165 76.0677 30.362 76.146 30.327 76.2453C30.2919 76.3446 30.2751 76.4678 30.2751 76.6081H30.3578C30.3578 76.4736 30.374 76.3604 30.4049 76.2728C30.4358 76.1852 30.4804 76.1261 30.5352 76.0942L30.4936 76.0228ZM30.2751 76.6081V80.5215H30.3578V76.6081H30.2751ZM30.2751 80.5215C30.2751 80.779 30.342 80.9602 30.456 81.0489L30.5068 80.9837C30.4229 80.9184 30.3578 80.7697 30.3578 80.5215H30.2751ZM30.4647 81.0541C30.5718 81.1016 30.7768 81.1346 31.053 81.1346V81.052C30.7796 81.052 30.589 81.0188 30.4982 80.9786L30.4647 81.0541ZM31.053 81.1346C31.7778 81.1345 32.3826 80.8779 32.8088 80.4291L32.7489 80.3722C32.3398 80.803 31.7574 81.0519 31.053 81.052L31.053 81.1346ZM32.8091 80.4288C33.2572 79.9472 33.4908 79.299 33.4908 78.5209H33.4081C33.4081 79.2819 33.1801 79.9088 32.7486 80.3725L32.8091 80.4288Z" fill="#F17336" mask="url(#path-3-inside-1)"/>
<path d="M17.68 83.2763H18.277C18.5535 83.2763 18.7677 83.3506 18.9195 83.4993C19.0714 83.6479 19.1473 83.8573 19.1473 84.1275C19.1473 84.3992 19.0714 84.6102 18.9195 84.7604C18.7677 84.9091 18.5535 84.9834 18.277 84.9834H17.68V83.2763ZM18.2626 84.7772C18.683 84.7772 18.8932 84.5606 18.8932 84.1275C18.8932 83.6975 18.683 83.4825 18.2626 83.4825H17.9269V84.7772H18.2626ZM19.9647 83.2763H20.2117V84.9834H19.9647V83.2763ZM22.4716 84.0771V84.8827C22.3996 84.9195 22.3085 84.949 22.1982 84.9714C22.0895 84.9922 21.9784 85.0026 21.865 85.0026C21.6923 85.0026 21.5429 84.9682 21.4166 84.8995C21.2903 84.8292 21.1936 84.7285 21.1265 84.5974C21.061 84.4663 21.0282 84.3097 21.0282 84.1275C21.0282 83.9484 21.061 83.7934 21.1265 83.6623C21.1936 83.5312 21.2887 83.4313 21.4118 83.3626C21.5365 83.2923 21.6827 83.2571 21.8506 83.2571C21.9705 83.2571 22.0807 83.2755 22.1814 83.3123C22.2837 83.3474 22.3709 83.3986 22.4428 83.4657L22.3541 83.6503C22.2725 83.5832 22.1926 83.5352 22.1143 83.5065C22.036 83.4777 21.9489 83.4633 21.853 83.4633C21.6676 83.4633 21.5261 83.5201 21.4286 83.6335C21.3327 83.747 21.2847 83.9117 21.2847 84.1275C21.2847 84.3496 21.3343 84.5183 21.4334 84.6333C21.5325 84.7468 21.6787 84.8036 21.8721 84.8036C22.0016 84.8036 22.1263 84.7844 22.2462 84.746V84.2665H21.8482V84.0771H22.4716ZM23.3307 83.2763H23.5777V84.9834H23.3307V83.2763ZM24.8617 83.4825H24.2839V83.2763H25.6889V83.4825H25.1111V84.9834H24.8617V83.4825ZM27.3154 84.5614H26.4523L26.2701 84.9834H26.0183L26.7784 83.2763H26.987L27.7494 84.9834H27.4977L27.3154 84.5614ZM27.2315 84.3648L26.8839 83.552L26.5362 84.3648H27.2315ZM28.45 83.2763H28.697V84.7772H29.5265V84.9834H28.45V83.2763Z" fill="#F17336"/>
<path d="M17.68 83.2763V83.235H17.6386V83.2763H17.68ZM18.9195 84.7604L18.9484 84.7899L18.9486 84.7898L18.9195 84.7604ZM17.68 84.9834H17.6386V85.0247H17.68V84.9834ZM17.9269 83.4825V83.4412H17.8856V83.4825H17.9269ZM17.9269 84.7772H17.8856V84.8185H17.9269V84.7772ZM17.68 83.3176H18.277V83.235H17.68V83.3176ZM18.277 83.3176C18.5461 83.3176 18.7486 83.3898 18.8906 83.5288L18.9484 83.4697C18.7867 83.3115 18.5609 83.235 18.277 83.235V83.3176ZM18.8906 83.5288C19.0325 83.6677 19.106 83.8653 19.106 84.1275H19.1886C19.1886 83.8494 19.1102 83.6281 18.9484 83.4697L18.8906 83.5288ZM19.106 84.1275C19.106 84.3913 19.0325 84.5905 18.8905 84.731L18.9486 84.7898C19.1103 84.6298 19.1886 84.4071 19.1886 84.1275H19.106ZM18.8906 84.7309C18.7486 84.8699 18.5461 84.9421 18.277 84.9421V85.0247C18.5609 85.0247 18.7867 84.9482 18.9484 84.7899L18.8906 84.7309ZM18.277 84.9421H17.68V85.0247H18.277V84.9421ZM17.7213 84.9834V83.2763H17.6386V84.9834H17.7213ZM18.2626 84.8185C18.4795 84.8185 18.6496 84.7626 18.7652 84.6435C18.8805 84.5247 18.9345 84.3501 18.9345 84.1275H18.8518C18.8518 84.338 18.8007 84.4882 18.7059 84.586C18.6112 84.6835 18.4661 84.7359 18.2626 84.7359V84.8185ZM18.9345 84.1275C18.9345 83.9063 18.8804 83.7328 18.7651 83.6148C18.6495 83.4967 18.4794 83.4412 18.2626 83.4412V83.5238C18.4662 83.5238 18.6113 83.5758 18.706 83.6726C18.8008 83.7696 18.8518 83.9186 18.8518 84.1275H18.9345ZM18.2626 83.4412H17.9269V83.5238H18.2626V83.4412ZM17.8856 83.4825V84.7772H17.9682V83.4825H17.8856ZM17.9269 84.8185H18.2626V84.7359H17.9269V84.8185ZM19.9647 83.2763V83.235H19.9234V83.2763H19.9647ZM20.2117 83.2763H20.253V83.235H20.2117V83.2763ZM20.2117 84.9834V85.0247H20.253V84.9834H20.2117ZM19.9647 84.9834H19.9234V85.0247H19.9647V84.9834ZM19.9647 83.3176H20.2117V83.235H19.9647V83.3176ZM20.1704 83.2763V84.9834H20.253V83.2763H20.1704ZM20.2117 84.9421H19.9647V85.0247H20.2117V84.9421ZM20.006 84.9834V83.2763H19.9234V84.9834H20.006ZM22.4716 84.0771H22.5129V84.0358H22.4716V84.0771ZM22.4716 84.8827L22.4904 84.9195L22.5129 84.908V84.8827H22.4716ZM22.1982 84.9714L22.206 85.012L22.2064 85.0119L22.1982 84.9714ZM21.4166 84.8995L21.3965 84.9356L21.3968 84.9358L21.4166 84.8995ZM21.1265 84.5974L21.0895 84.6159L21.0897 84.6162L21.1265 84.5974ZM21.1265 83.6623L21.0897 83.6435L21.0895 83.6438L21.1265 83.6623ZM21.4118 83.3626L21.432 83.3987L21.4321 83.3986L21.4118 83.3626ZM22.1814 83.3123L22.1673 83.3511L22.168 83.3513L22.1814 83.3123ZM22.4428 83.4657L22.48 83.4836L22.4932 83.4562L22.471 83.4355L22.4428 83.4657ZM22.3541 83.6503L22.3278 83.6822L22.3685 83.7157L22.3913 83.6682L22.3541 83.6503ZM22.1143 83.5065L22.1286 83.4677V83.4677L22.1143 83.5065ZM21.4286 83.6335L21.3972 83.6066L21.397 83.6069L21.4286 83.6335ZM21.4334 84.6333L21.4021 84.6603L21.4023 84.6605L21.4334 84.6333ZM22.2462 84.746L22.2588 84.7854L22.2875 84.7762V84.746H22.2462ZM22.2462 84.2665H22.2875V84.2252H22.2462V84.2665ZM21.8482 84.2665H21.8069V84.3078H21.8482V84.2665ZM21.8482 84.0771V84.0358H21.8069V84.0771H21.8482ZM22.4302 84.0771V84.8827H22.5129V84.0771H22.4302ZM22.4527 84.8459C22.3852 84.8804 22.2979 84.909 22.19 84.9309L22.2064 85.0119C22.3191 84.989 22.4141 84.9585 22.4904 84.9195L22.4527 84.8459ZM22.1905 84.9308C22.0844 84.9511 21.9759 84.9613 21.865 84.9613V85.0439C21.981 85.0439 22.0947 85.0333 22.206 85.012L22.1905 84.9308ZM21.865 84.9613C21.6978 84.9613 21.5555 84.928 21.4364 84.8632L21.3968 84.9358C21.5303 85.0084 21.6868 85.0439 21.865 85.0439V84.9613ZM21.4367 84.8634C21.3177 84.7971 21.2267 84.7025 21.1633 84.5785L21.0897 84.6162C21.1605 84.7544 21.2629 84.8612 21.3965 84.9356L21.4367 84.8634ZM21.1634 84.5789C21.1014 84.4548 21.0695 84.3048 21.0695 84.1275H20.9869C20.9869 84.3146 21.0205 84.4778 21.0895 84.6159L21.1634 84.5789ZM21.0695 84.1275C21.0695 83.9534 21.1013 83.805 21.1634 83.6808L21.0895 83.6438C21.0206 83.7818 20.9869 83.9434 20.9869 84.1275H21.0695ZM21.1633 83.6812C21.2269 83.557 21.3163 83.4633 21.432 83.3987L21.3917 83.3265C21.2611 83.3994 21.1604 83.5055 21.0897 83.6435L21.1633 83.6812ZM21.4321 83.3986C21.5496 83.3323 21.6886 83.2984 21.8506 83.2984V83.2158C21.6769 83.2158 21.5234 83.2522 21.3915 83.3266L21.4321 83.3986ZM21.8506 83.2984C21.9662 83.2984 22.0716 83.3162 22.1673 83.3511L22.1956 83.2734C22.0899 83.2348 21.9747 83.2158 21.8506 83.2158V83.2984ZM22.168 83.3513C22.2654 83.3848 22.3473 83.4331 22.4146 83.4959L22.471 83.4355C22.3944 83.364 22.3021 83.31 22.1949 83.2732L22.168 83.3513ZM22.4055 83.4478L22.3168 83.6324L22.3913 83.6682L22.48 83.4836L22.4055 83.4478ZM22.3803 83.6184C22.2961 83.5491 22.2122 83.4984 22.1286 83.4677L22.1001 83.5453C22.173 83.5721 22.249 83.6173 22.3278 83.6822L22.3803 83.6184ZM22.1286 83.4677C22.045 83.437 21.953 83.422 21.853 83.422V83.5046C21.9447 83.5046 22.0269 83.5184 22.1001 83.5453L22.1286 83.4677ZM21.853 83.422C21.6586 83.422 21.5044 83.4819 21.3972 83.6066L21.4599 83.6605C21.5478 83.5583 21.6765 83.5046 21.853 83.5046V83.422ZM21.397 83.6069C21.2925 83.7306 21.2434 83.9062 21.2434 84.1275H21.3261C21.3261 83.9171 21.3729 83.7635 21.4601 83.6602L21.397 83.6069ZM21.2434 84.1275C21.2434 84.3551 21.2941 84.5349 21.4021 84.6603L21.4647 84.6064C21.3745 84.5016 21.3261 84.3442 21.3261 84.1275H21.2434ZM21.4023 84.6605C21.5113 84.7854 21.6704 84.8449 21.8721 84.8449V84.7623C21.687 84.7623 21.5537 84.7083 21.4645 84.6062L21.4023 84.6605ZM21.8721 84.8449C22.0058 84.8449 22.1347 84.8251 22.2588 84.7854L22.2336 84.7067C22.1179 84.7437 21.9975 84.7623 21.8721 84.7623V84.8449ZM22.2875 84.746V84.2665H22.2049V84.746H22.2875ZM22.2462 84.2252H21.8482V84.3078H22.2462V84.2252ZM21.8895 84.2665V84.0771H21.8069V84.2665H21.8895ZM21.8482 84.1184H22.4716V84.0358H21.8482V84.1184ZM23.3307 83.2763V83.235H23.2894V83.2763H23.3307ZM23.5777 83.2763H23.619V83.235H23.5777V83.2763ZM23.5777 84.9834V85.0247H23.619V84.9834H23.5777ZM23.3307 84.9834H23.2894V85.0247H23.3307V84.9834ZM23.3307 83.3176H23.5777V83.235H23.3307V83.3176ZM23.5364 83.2763V84.9834H23.619V83.2763H23.5364ZM23.5777 84.9421H23.3307V85.0247H23.5777V84.9421ZM23.3721 84.9834V83.2763H23.2894V84.9834H23.3721ZM24.8617 83.4825H24.9031V83.4412H24.8617V83.4825ZM24.2839 83.4825H24.2426V83.5238H24.2839V83.4825ZM24.2839 83.2763V83.235H24.2426V83.2763H24.2839ZM25.6889 83.2763H25.7302V83.235H25.6889V83.2763ZM25.6889 83.4825V83.5238H25.7302V83.4825H25.6889ZM25.1111 83.4825V83.4412H25.0698V83.4825H25.1111ZM25.1111 84.9834V85.0247H25.1524V84.9834H25.1111ZM24.8617 84.9834H24.8204V85.0247H24.8617V84.9834ZM24.8617 83.4412H24.2839V83.5238H24.8617V83.4412ZM24.3252 83.4825V83.2763H24.2426V83.4825H24.3252ZM24.2839 83.3176H25.6889V83.235H24.2839V83.3176ZM25.6476 83.2763V83.4825H25.7302V83.2763H25.6476ZM25.6889 83.4412H25.1111V83.5238H25.6889V83.4412ZM25.0698 83.4825V84.9834H25.1524V83.4825H25.0698ZM25.1111 84.9421H24.8617V85.0247H25.1111V84.9421ZM24.9031 84.9834V83.4825H24.8204V84.9834H24.9031ZM27.3154 84.5614L27.3534 84.545L27.3426 84.5201H27.3154V84.5614ZM26.4523 84.5614V84.5201H26.4251L26.4144 84.545L26.4523 84.5614ZM26.2701 84.9834V85.0247H26.2972L26.308 84.9998L26.2701 84.9834ZM26.0183 84.9834L25.9806 84.9666L25.9547 85.0247H26.0183V84.9834ZM26.7784 83.2763V83.235H26.7515L26.7406 83.2595L26.7784 83.2763ZM26.987 83.2763L27.0247 83.2594L27.0138 83.235H26.987V83.2763ZM27.7494 84.9834V85.0247H27.8131L27.7871 84.9665L27.7494 84.9834ZM27.4977 84.9834L27.4597 84.9998L27.4705 85.0247H27.4977V84.9834ZM27.2315 84.3648V84.4061H27.2941L27.2695 84.3486L27.2315 84.3648ZM26.8839 83.552L26.9219 83.5358L26.8839 83.447L26.8459 83.5358L26.8839 83.552ZM26.5362 84.3648L26.4982 84.3486L26.4736 84.4061H26.5362V84.3648ZM27.3154 84.5201H26.4523V84.6027H27.3154V84.5201ZM26.4144 84.545L26.2321 84.967L26.308 84.9998L26.4902 84.5778L26.4144 84.545ZM26.2701 84.9421H26.0183V85.0247H26.2701V84.9421ZM26.0561 85.0002L26.8161 83.2931L26.7406 83.2595L25.9806 84.9666L26.0561 85.0002ZM26.7784 83.3176H26.987V83.235H26.7784V83.3176ZM26.9492 83.2931L27.7117 85.0002L27.7871 84.9665L27.0247 83.2594L26.9492 83.2931ZM27.7494 84.9421H27.4977V85.0247H27.7494V84.9421ZM27.5356 84.967L27.3534 84.545L27.2775 84.5778L27.4597 84.9998L27.5356 84.967ZM27.2695 84.3486L26.9219 83.5358L26.8459 83.5683L27.1935 84.3811L27.2695 84.3486ZM26.8459 83.5358L26.4982 84.3486L26.5742 84.3811L26.9219 83.5683L26.8459 83.5358ZM26.5362 84.4061H27.2315V84.3235H26.5362V84.4061ZM28.45 83.2763V83.235H28.4087V83.2763H28.45ZM28.697 83.2763H28.7383V83.235H28.697V83.2763ZM28.697 84.7772H28.6557V84.8185H28.697V84.7772ZM29.5265 84.7772H29.5679V84.7359H29.5265V84.7772ZM29.5265 84.9834V85.0247H29.5679V84.9834H29.5265ZM28.45 84.9834H28.4087V85.0247H28.45V84.9834ZM28.45 83.3176H28.697V83.235H28.45V83.3176ZM28.6557 83.2763V84.7772H28.7383V83.2763H28.6557ZM28.697 84.8185H29.5265V84.7359H28.697V84.8185ZM29.4852 84.7772V84.9834H29.5679V84.7772H29.4852ZM29.5265 84.9421H28.45V85.0247H29.5265V84.9421ZM28.4913 84.9834V83.2763H28.4087V84.9834H28.4913Z" fill="#F17336"/>
<path d="M16.482 84.4814H12.486" stroke="#F17336" stroke-width="0.199801"/>
<path d="M34.8637 84.4814H30.8677" stroke="#F17336" stroke-width="0.199801"/>
<path d="M24.7673 21.9692C24.626 22.0201 16.4238 24.8119 17.4669 29.5073C18.51 34.2026 25.5258 39.0364 27.8959 35.3863C30.266 31.7361 30.4086 19.9305 24.7673 21.9692Z" fill="#3F3D56"/>
<path d="M33.1569 24.3562C33.1569 24.3562 32.304 27.8325 33.6323 28.6855C34.9606 29.5384 35.0856 34.0586 34.6116 35.0378C34.1376 36.0171 24.4039 37.029 24.3401 35.0698C24.2763 33.1105 27.7221 23.7871 27.7221 23.7871L33.1569 24.3562Z" fill="white" stroke="black" stroke-width="0.271642" stroke-linecap="round" stroke-linejoin="round"/>
<path d="M39.2663 14.3784C39.2663 14.3784 38.048 19.3236 38.0833 20.2003C38.1295 21.3175 38.5098 23.7086 36.6103 25.0987C34.3305 26.768 32.6246 27.5754 30.5187 26.9119C28.4128 26.2485 24.3185 24.0645 23.7956 21.291C23.7956 21.291 22.1264 20.5874 21.6585 18.7865C21.1905 16.9855 23.0785 16.9454 23.6958 17.7678C23.6958 17.7678 23.8425 13.8168 26.5337 12.6793C29.225 11.5418 39.2663 14.3784 39.2663 14.3784Z" fill="white" stroke="black" stroke-width="0.271642" stroke-linecap="round" stroke-linejoin="round"/>
<path d="M35.9523 18.2581C35.9523 18.2581 31.5728 18.8829 28.1501 18.8197C24.7274 18.7566 26.9216 24.967 26.9216 24.967C26.9216 24.967 24.5956 23.7188 23.8656 21.1905C23.8656 21.1905 22.2711 20.5263 21.8181 18.9304C21.8181 18.9304 21.2904 17.5722 22.3614 17.4296C23.4323 17.287 23.6782 17.8873 23.6782 17.8873C23.6782 17.8873 24.4408 14.8381 27.3216 14.8694C30.2023 14.9006 35.9523 18.2581 35.9523 18.2581Z" fill="#E3E3E3"/>
<path d="M51.5354 31.5114C51.5354 31.5114 52.0298 29.9135 52.8787 29.3654C53.589 28.907 54.5961 28.5593 55.9265 29.4401" fill="#FCAA23"/>
<path d="M51.5354 31.5114C51.5354 31.5114 52.0298 29.9135 52.8787 29.3654C53.589 28.907 54.5961 28.5593 55.9265 29.4401" stroke="black" stroke-width="0.271642" stroke-miterlimit="10" stroke-linecap="round"/>
<path d="M52.3724 32.0518C52.3724 32.0518 53.0998 29.3021 54.8695 29.2226C56.6393 29.1432 56.9835 30.6963 56.4498 32.4144C55.916 34.1326 52.6543 34.517 52.3724 32.0518Z" fill="#FCAA23" stroke="black" stroke-width="0.271642" stroke-miterlimit="10" stroke-linecap="round"/>
<path d="M55.6762 29.3194C55.6762 29.3194 55.5404 28.537 56.1421 28.2844C56.7438 28.0318 57.0501 29.0016 56.0314 29.5068" fill="#FCAA23"/>
<path d="M55.6762 29.3194C55.6762 29.3194 55.5404 28.537 56.1421 28.2844C56.7438 28.0318 57.0501 29.0016 56.0314 29.5068" stroke="black" stroke-width="0.271642" stroke-miterlimit="10" stroke-linecap="round"/>
<path d="M42.3751 33.3131C42.3751 33.3131 43.5547 35.5758 43.6178 43.3815C43.6178 43.3815 46.6521 41.1065 48.4537 39.4943C50.2554 37.8821 50.5712 36.7099 50.0652 36.1891C49.5593 35.6682 49.1491 34.2482 49.5281 33.6159C49.5281 33.6159 49.7597 33.3314 49.7176 33.0367C49.6754 32.7419 49.507 32.1538 49.9288 31.9202C49.9288 31.9202 49.9546 31.3722 50.3654 31.1827C50.3654 31.1827 50.4286 30.2028 51.1715 30.1396C51.9144 30.0764 53.4472 33.2526 54.3952 33.1738C55.3432 33.0951 55.7697 32.1151 56.4325 32.0832C57.0953 32.0513 58.1547 32.7467 57.9945 33.2845C57.8342 33.8224 56.0509 33.5215 55.7983 34.3433C55.5456 35.165 54.2024 36.2706 53.4438 37.2505C52.6852 38.2305 46.0483 52.5154 43.1723 52.1358C40.2963 51.7562 38.1789 48.1223 38.1789 48.1223C38.1789 48.1223 37.8631 36.0179 39.222 34.7222C40.5809 33.4265 42.3751 33.3131 42.3751 33.3131Z" fill="white" stroke="black" stroke-width="0.271642" stroke-linecap="round" stroke-linejoin="round"/>
<path d="M43.619 43.3809C43.619 43.3809 42.0571 44.5503 42.0706 47.2844L43.619 43.3809Z" fill="white"/>
<path d="M43.619 43.3809C43.619 43.3809 42.0571 44.5503 42.0706 47.2844" stroke="black" stroke-width="0.271642" stroke-linecap="round" stroke-linejoin="round"/>
<path d="M50.3655 31.1816C50.3655 31.1816 50.9502 32.1718 51.5349 32.5195L50.3655 31.1816Z" fill="white"/>
<path d="M50.3655 31.1816C50.3655 31.1816 50.9502 32.1718 51.5349 32.5195" stroke="black" stroke-width="0.271642" stroke-linecap="round" stroke-linejoin="round"/>
<path d="M49.9291 31.9199C49.9291 31.9199 50.6476 33.2265 51.1297 33.4581L49.9291 31.9199Z" fill="white"/>
<path d="M49.9291 31.9199C49.9291 31.9199 50.6476 33.2265 51.1297 33.4581" stroke="black" stroke-width="0.271642" stroke-linecap="round" stroke-linejoin="round"/>
<path d="M49.7115 33.2266C49.7115 33.2266 50.0599 34.3851 50.648 34.29L49.7115 33.2266Z" fill="white"/>
<path d="M49.7115 33.2266C49.7115 33.2266 50.0599 34.3851 50.648 34.29" stroke="black" stroke-width="0.271642" stroke-linecap="round" stroke-linejoin="round"/>
<path d="M41.7207 33.9072C41.7207 33.9072 40.5078 38.2535 40.6341 42.2833C40.7604 46.3131 39.557 52.3646 44.74 51.1429C44.74 51.1429 43.993 52.0889 43.0857 52.0217C42.1784 51.9544 39.7778 50.4998 39.4185 49.3311C39.0593 48.1623 38.5859 36.6671 38.5859 36.6671L41.7207 33.9072Z" fill="#E3E3E3"/>
<path d="M39.5871 29.8721C39.5871 29.8721 41.9225 30.7712 42.5751 33.1521C42.5751 33.1521 39.8784 35.1745 39.0778 38.1456C38.2771 41.1167 38.853 30.321 39.5871 29.8721Z" fill="#654EF9" stroke="black" stroke-width="0.199107" stroke-miterlimit="10" stroke-linecap="round"/>
<path d="M33.6316 28.6863C33.6316 28.6863 33.4082 33.7429 29.6011 33.1745C25.7941 32.6061 26.681 28.8445 26.681 28.8445C26.681 28.8445 22.3198 37.5038 24.753 39.3374C27.1862 41.171 33.0021 41.044 34.456 37.8515C35.91 34.659 35.7518 30.3297 35.7518 30.3297C35.7518 30.3297 33.5365 27.4014 33.6316 28.6863Z" fill="#654EF9" stroke="black" stroke-width="0.199107" stroke-miterlimit="10" stroke-linecap="round"/>
<path d="M39.4148 51.06C40.1727 45.1817 40.0471 40.7886 39.5411 38.3234C39.0352 35.8583 40.0253 29.7171 39.4148 29.4217C38.8043 29.1263 34.5694 27.3579 34.8648 28.471C34.8648 28.471 34.8173 37.4202 30.2428 37.7523C25.6684 38.0844 26.048 31.4944 26.048 31.4944L25.811 27.1331C25.811 27.1331 19.7119 27.0856 18.969 28.1287C18.9914 28.1226 19.3412 28.0255 19.6311 28.219C20.2383 28.6265 20.5574 30.8499 19.5075 36.4321C19.3568 37.2335 19.1757 38.1054 18.9643 39.048C17.2896 46.5691 11.9165 64.9634 11.9165 64.9634L40.4233 66.5436C40.4233 66.5436 38.6569 56.9384 39.4148 51.06Z" fill="#F17336" stroke="black" stroke-width="0.320573" stroke-miterlimit="10" stroke-linecap="round"/>
<path d="M101.898 62.7539H1.96417C1.21405 62.7539 0.605957 63.362 0.605957 64.1121V65.8676C0.605957 66.6177 1.21405 67.2258 1.96417 67.2258H101.898C102.648 67.2258 103.256 66.6177 103.256 65.8676V64.1121C103.256 63.362 102.648 62.7539 101.898 62.7539Z" fill="#FEEED3" stroke="black" stroke-width="0.271642" stroke-miterlimit="10"/>
<path d="M27.965 16.8509C27.965 16.8509 24.9192 16.3796 24.9769 19.6501C24.9769 19.6501 24.5382 20.0766 23.6867 17.7697C23.6867 17.7697 23.2547 17.2943 22.3542 17.1469C22.3542 17.1469 22.4289 13.6923 23.3648 12.618C24.3006 11.5437 39.3964 10.0265 39.338 13.0934C39.2796 16.1602 38.3567 18.5941 38.3567 18.5941C38.3567 18.5941 39.3672 16.9174 35.3007 16.5065C31.2342 16.0957 27.965 16.8509 27.965 16.8509Z" fill="#3F3D56"/>
<path d="M42.3161 14.9786C42.6074 12.3528 37.7775 9.66217 31.5284 8.96895C25.2792 8.27572 19.9771 9.84239 19.6859 12.4682C19.3946 15.094 24.2244 17.7846 30.4736 18.4779C36.7227 19.1711 42.0248 17.6044 42.3161 14.9786Z" fill="#F17336" stroke="black" stroke-width="0.320573" stroke-miterlimit="10" stroke-linecap="round"/>
<path d="M20.4173 12.7891C20.4173 12.7891 20.3731 15.2488 25.1995 16.6953" stroke="black" stroke-width="0.271642" stroke-miterlimit="10" stroke-linecap="round"/>
<path d="M33.6084 17.9055C33.6084 17.9055 40.8626 18.0508 41.8643 14.7422" stroke="black" stroke-width="0.271642" stroke-miterlimit="10" stroke-linecap="round"/>
<path d="M23.0455 11.343C23.0455 11.343 24.3596 14.4594 30.644 15.6478C36.9285 16.8363 39.5593 13.6594 39.5586 13.381C39.558 13.1026 39.8113 6.47585 32.6352 5.06399C26.5823 3.87352 23.6126 6.88739 23.0455 11.343Z" fill="#F17336" stroke="black" stroke-width="0.320573" stroke-miterlimit="10" stroke-linecap="round"/>
<path d="M28.3828 27.417L29.1189 24.869C29.1359 24.81 29.13 24.7467 29.1023 24.6919C29.0746 24.6371 29.0271 24.5949 28.9695 24.5736L28.2042 24.287C28.1731 24.2753 28.1399 24.2702 28.1067 24.2718C28.0736 24.2734 28.0411 24.2818 28.0112 24.2964C27.9814 24.311 27.9549 24.3316 27.9333 24.3568C27.9117 24.3821 27.8955 24.4115 27.8857 24.4432L26.9893 27.3545C26.9893 27.3545 27.8809 28.4574 28.3828 27.417Z" fill="#0B065A"/>
<path d="M28.3828 27.417L29.1189 24.869C29.1359 24.81 29.13 24.7467 29.1023 24.6919C29.0746 24.6371 29.0271 24.5949 28.9695 24.5736L28.2042 24.287C28.1731 24.2753 28.1399 24.2702 28.1067 24.2718C28.0736 24.2734 28.0411 24.2818 28.0112 24.2964C27.9814 24.311 27.9549 24.3316 27.9333 24.3568C27.9117 24.3821 27.8955 24.4115 27.8857 24.4432L26.9893 27.3545C26.9893 27.3545 27.8809 28.4574 28.3828 27.417Z" stroke="black" stroke-width="0.271642" stroke-miterlimit="10" stroke-linecap="round"/>
<path d="M29.3746 23.5006L28.7858 25.1046L28.0198 24.8079L28.5352 23.2656L29.3746 23.5006Z" fill="#0B065A"/>
<path d="M29.3746 23.5006L28.7858 25.1046L28.0198 24.8079L28.5352 23.2656L29.3746 23.5006Z" stroke="black" stroke-width="0.271642" stroke-miterlimit="10" stroke-linecap="round"/>
<path d="M32.0108 21.0341C32.5103 19.3851 32.0963 17.8003 31.0862 17.4943C30.0761 17.1884 28.8524 18.2772 28.3529 19.9262C27.8535 21.5753 28.2675 23.1601 29.2776 23.466C30.2877 23.772 31.5114 22.6832 32.0108 21.0341Z" fill="white" stroke="black" stroke-width="0.135821" stroke-linecap="round" stroke-linejoin="round"/>
<path d="M31.9405 20.5555C32.3919 19.0613 32.0658 17.6409 31.2121 17.383C30.3584 17.1251 29.3004 18.1274 28.849 19.6216C28.3977 21.1158 28.7238 22.5362 29.5775 22.7941C30.4312 23.052 31.4892 22.0497 31.9405 20.5555Z" fill="white" stroke="black" stroke-width="0.136207" stroke-linecap="round" stroke-linejoin="round"/>
<path d="M30.8554 17.7422C30.8554 17.7422 32.3664 20.1489 30.0853 22.5489C29.9289 22.7156 29.7401 22.8485 29.5304 22.9394C29.3919 23.0009 29.2426 23.0344 29.0911 23.0378" fill="white"/>
<path d="M30.8554 17.7422C30.8554 17.7422 32.3664 20.1489 30.0853 22.5489C29.9289 22.7156 29.7401 22.8485 29.5304 22.9394C29.3919 23.0009 29.2426 23.0344 29.0911 23.0378" stroke="black" stroke-width="0.135821" stroke-linecap="round" stroke-linejoin="round"/>
<path d="M31.4207 17.6283C31.4207 17.6283 30.4184 16.7183 29.1627 17.7431C27.9071 18.7679 27.4609 20.7223 27.7611 21.9685C27.7611 21.9685 28.1902 23.4978 29.5383 23.506" stroke="black" stroke-width="0.135821" stroke-linecap="round" stroke-linejoin="round"/>
<path d="M19.5072 36.4352C18.7656 32.2873 14.6855 31.8173 14.6855 31.8173C15.6655 28.5454 18.968 28.1352 18.968 28.1352C18.9904 28.1291 19.3401 28.032 19.6301 28.2255C20.2379 28.6269 20.5571 30.853 19.5072 36.4352Z" fill="#654EF9" stroke="black" stroke-width="0.199107" stroke-miterlimit="10" stroke-linecap="round"/>
<path d="M14.9513 31.8602C14.9513 31.8602 10.0868 38.8617 11.6671 47.9006C11.6671 47.9006 12.3306 50.3977 15.3961 49.7342C18.4616 49.0707 25.1324 39.8111 26.2618 34.07C26.2618 34.07 26.8193 32.3104 27.8726 31.8887C28.9259 31.4669 30.422 30.3946 30.6569 29.74C30.8919 29.0853 31.0325 25.2701 30.6325 24.9964C30.2325 24.7228 29.3422 24.4144 29.2138 24.625C29.0855 24.8355 28.9082 26.0103 28.4451 26.263C27.9819 26.5156 27.3585 26.7866 27.3409 26.2392C27.3286 25.9363 27.5799 25.3618 27.5629 24.8776C27.5351 24.0993 26.3575 24.1021 26.3331 24.8776C26.3307 24.9528 26.3323 25.028 26.3378 25.1031C26.401 25.9669 24.4628 25.9859 24.4628 28.9998C24.4628 32.0136 19.4646 36.1867 19.4646 36.1867C19.4646 36.1867 19.1746 32.889 14.9513 31.8602Z" fill="white" stroke="black" stroke-width="0.271642" stroke-linecap="round" stroke-linejoin="round"/>
<path d="M14.4319 45.5778C14.4319 45.5778 14.7334 40.0044 19.4573 36.1885L14.4319 45.5778Z" fill="white"/>
<path d="M14.4319 45.5778C14.4319 45.5778 14.7334 40.0044 19.4573 36.1885" stroke="black" stroke-width="0.271642" stroke-linecap="round" stroke-linejoin="round"/>
<path d="M54.8645 57.9814H51.3882V60.5885H54.8645V57.9814Z" fill="#4052F2" stroke="black" stroke-width="0.271642" stroke-miterlimit="10" stroke-linecap="round"/>
<path d="M57.8668 56.5908H54.3905V60.7469H57.8668V56.5908Z" fill="#4052F2" stroke="black" stroke-width="0.271642" stroke-miterlimit="10" stroke-linecap="round"/>
<path d="M69.0862 56.5908H66.4948V60.7469H69.0862V56.5908Z" fill="#4052F2" stroke="black" stroke-width="0.271642" stroke-miterlimit="10" stroke-linecap="round"/>
<path d="M73.0047 58.6699H70.4132V60.748H73.0047V58.6699Z" fill="#4052F2" stroke="black" stroke-width="0.271642" stroke-miterlimit="10" stroke-linecap="round"/>
<path d="M70.9823 54.5996H68.3909V60.7469H70.9823V54.5996Z" fill="#4052F2" stroke="black" stroke-width="0.271642" stroke-miterlimit="10" stroke-linecap="round"/>
<path d="M78.9939 60.748H47.1908V62.7548H78.9939V60.748Z" fill="#FCAA23" stroke="black" stroke-width="0.271642" stroke-miterlimit="10" stroke-linecap="round"/>
<path d="M56.9814 60.7474C56.9814 60.7474 57.4874 56.5281 59.0677 57.2548C60.6479 57.9814 61.4065 58.4242 62.2914 57.0022C63.1762 55.5801 64.1562 55.2541 65.3412 56.4589C66.5263 57.6636 67.2848 59.2432 67.2848 60.7461L56.9814 60.7474Z" fill="#4052F2" stroke="black" stroke-width="0.271642" stroke-miterlimit="10" stroke-linecap="round"/>
<path d="M56.3754 55.7196V50.46H56.1581H55.9408V55.7196H55.2875V56.4374H56.1581H57.0287V55.7196H56.3754Z" fill="#F17336" stroke="black" stroke-width="0.320573" stroke-miterlimit="10" stroke-linecap="round"/>
<path d="M60.2203 50.4606L55.944 50.46V52.0239V53.5825L60.2203 53.5757L58.8723 52.0239L60.2203 50.4606Z" fill="#F17336" stroke="black" stroke-width="0.320573" stroke-miterlimit="10" stroke-linecap="round"/>
<path d="M54.2673 33.166L55.1753 33.7616" stroke="black" stroke-width="0.271642" stroke-linecap="round" stroke-linejoin="round"/>
<path d="M30.8318 25.7725C30.8318 25.7725 30.0447 27.2319 29.697 27.4702L30.8318 25.7725Z" fill="white"/>
<path d="M30.8318 25.7725C30.8318 25.7725 30.0447 27.2319 29.697 27.4702" stroke="black" stroke-width="0.271642" stroke-linecap="round" stroke-linejoin="round"/>
<path d="M30.8683 27.5322C30.8683 27.5322 30.4867 28.591 30.0446 28.9224L30.8683 27.5322Z" fill="white"/>
<path d="M30.8683 27.5322C30.8683 27.5322 30.4867 28.591 30.0446 28.9224" stroke="black" stroke-width="0.271642" stroke-linecap="round" stroke-linejoin="round"/>
<path d="M30.7624 29.1279C30.7624 29.1279 30.3447 29.7622 30.0446 29.8749L30.7624 29.1279Z" fill="white"/>
<path d="M30.7624 29.1279C30.7624 29.1279 30.3447 29.7622 30.0446 29.8749" stroke="black" stroke-width="0.271642" stroke-linecap="round" stroke-linejoin="round"/>
<path d="M27.4954 26.5332L26.4265 26.8048" stroke="black" stroke-width="0.271642" stroke-linecap="round" stroke-linejoin="round"/>
<path d="M31.2767 20.2411C31.3182 19.9834 31.2257 19.7542 31.0702 19.7292C30.9147 19.7042 30.755 19.8928 30.7135 20.1505C30.672 20.4083 30.7645 20.6375 30.92 20.6625C31.0756 20.6875 31.2352 20.4989 31.2767 20.2411Z" fill="black"/>
<path d="M36.5467 20.2411C36.5882 19.9834 36.4957 19.7542 36.3402 19.7292C36.1847 19.7042 36.025 19.8928 35.9835 20.1505C35.9421 20.4083 36.0345 20.6375 36.1901 20.6625C36.3456 20.6875 36.5053 20.4989 36.5467 20.2411Z" fill="black"/>
<path d="M34.8104 20.623C34.8104 20.623 34.8885 22.3086 34.8104 22.6244C34.7323 22.9402 33.8549 23.0508 33.8549 23.0508" fill="white"/>
<path d="M34.8104 20.623C34.8104 20.623 34.8885 22.3086 34.8104 22.6244C34.7323 22.9402 33.8549 23.0508 33.8549 23.0508" stroke="black" stroke-width="0.271642" stroke-linecap="round" stroke-linejoin="round"/>
<path d="M31.8684 23.7051C31.8684 23.7051 32.6833 24.7753 34.1278 24.5798L31.8684 23.7051Z" fill="white"/>
<path d="M31.8684 23.7051C31.8684 23.7051 32.6833 24.7753 34.1278 24.5798" stroke="black" stroke-width="0.271642" stroke-linecap="round" stroke-linejoin="round"/>
<path d="M27.2948 37.7793C27.2948 37.7793 30.0112 39.8648 32.564 37.7793" stroke="black" stroke-width="0.271642" stroke-linecap="round" stroke-linejoin="round"/>
<path d="M14.6855 32.4119C14.6855 32.4119 17.6023 34.2027 17.2661 36.0363C17.0332 37.239 16.7093 38.4222 16.2971 39.5758C16.2971 39.5758 17.7483 37.3612 19.3204 36.1124C19.3204 36.1124 18.9204 32.9783 14.9857 31.999L14.6855 32.4119Z" fill="#E3E3E3"/>
<path d="M109.839 123.601L110.408 131.597L115.054 130.364C115.054 130.364 114.201 125.197 114.627 122.685C115.054 120.173 109.839 123.601 109.839 123.601Z" fill="white" stroke="black" stroke-width="0.271642" stroke-linecap="round" stroke-linejoin="round"/>
<path d="M131.505 122.448C131.505 122.448 135.487 127.899 136.008 129.274C136.53 130.65 140.275 126.906 140.275 126.906C140.275 126.906 138.284 122.545 137.905 120.364C137.526 118.183 131.505 122.448 131.505 122.448Z" fill="white" stroke="black" stroke-width="0.271642" stroke-linecap="round" stroke-linejoin="round"/>
<path d="M102.77 30.6811C102.77 30.6811 102.168 34.2165 101.809 37.7058C101.449 41.195 100.406 44.9382 100.406 44.9382C100.406 44.9382 103.202 46.4553 105.051 45.9813C106.9 45.5073 106.462 29.1748 102.77 30.6811Z" fill="white" stroke="black" stroke-width="0.271642" stroke-linecap="round" stroke-linejoin="round"/>
<path d="M103.156 70.7278C103.156 70.7278 102.081 92.819 102.334 96.1371C102.588 99.4552 104.863 123.917 104.863 123.917C104.863 123.917 110.077 127.615 118.42 122.967C118.42 122.967 119.337 110.83 119.353 101.065C119.353 101.065 125.437 118.226 126.385 122.397C126.385 122.397 131.979 127.517 140.796 120.217C140.796 120.217 139.279 107.417 134.918 96.3239C134.918 96.3239 136.34 72.4629 135.487 67.849C134.634 63.2352 103.156 70.7278 103.156 70.7278Z" fill="#F17336" stroke="black" stroke-width="0.320573" stroke-miterlimit="10" stroke-linecap="round"/>
<path d="M117.748 75.2654C117.748 75.2654 122.638 76.1048 128.47 75.2654C134.302 74.426 128.47 90.8284 130.935 99.4089C133.4 107.989 134.453 123.601 134.453 123.601C134.453 123.601 137.656 122.928 140.627 120.083C140.627 120.083 139.29 110.571 137.164 103.596C137.164 103.596 135.806 98.5919 134.773 96.3978C134.773 96.3978 136.026 73.444 135.52 70.6597C135.013 67.8754 116.099 73.9241 117.748 75.2654Z" fill="#E05918"/>
<path d="M119.242 101.29V101.901L119.073 109.381L118.285 122.899C115.939 124.266 113.384 124.783 113.384 124.783C113.384 124.783 117.177 76.9974 111.298 76.1967C105.42 75.3961 103.229 72.8012 103.229 72.8012V71.3574L116.37 75.6039C116.448 79.3097 116.574 91.1642 117.408 93.831C118.098 96.0347 118.811 98.8564 119.15 100.235L119.242 101.29Z" fill="#E05918"/>
<path d="M111.708 137.357C105.727 139.979 101.944 140.772 99.5328 138.463C97.3685 136.39 104.134 134.166 110.12 128.005C110.092 128.089 109.226 130.789 115.245 129.815C115.304 129.806 115.365 129.811 115.422 129.829C115.479 129.848 115.531 129.881 115.573 129.924C115.614 129.967 115.645 130.019 115.662 130.077C115.679 130.134 115.682 130.195 115.671 130.254C115.459 131.409 115.755 132.664 115.694 133.474C115.591 134.872 117.689 134.735 111.708 137.357Z" fill="#0B065A" stroke="black" stroke-width="0.271642" stroke-miterlimit="10" stroke-linecap="round"/>
<path d="M140.094 134.774C135.883 139.768 132.841 142.15 129.658 141.144C126.8 140.239 131.888 135.256 134.537 127.082C134.549 127.17 134.966 129.977 139.935 126.443C139.983 126.408 140.04 126.386 140.099 126.378C140.159 126.369 140.219 126.375 140.275 126.395C140.332 126.415 140.383 126.449 140.424 126.492C140.465 126.536 140.494 126.589 140.511 126.647C140.831 127.777 141.65 128.772 141.954 129.525C142.479 130.83 144.301 129.781 140.094 134.774Z" fill="#0B065A" stroke="black" stroke-width="0.271642" stroke-miterlimit="10" stroke-linecap="round"/>
<path d="M116.146 73.1621C116.146 73.1621 117.096 88.4583 116.95 90.8677C116.803 93.2772 119.151 100.235 119.151 100.235C119.268 100.711 119.339 101.012 119.352 101.061V101.065" stroke="black" stroke-width="0.271642" stroke-miterlimit="10" stroke-linecap="round"/>
<path d="M107.185 3.885C107.185 3.885 105.383 5.97121 105.858 8.53076C106.333 11.0903 105.604 13.1297 105.779 14.3622C105.953 15.5948 108.465 21.4568 112.589 20.2406C112.589 20.2406 113.336 23.922 110.161 24.4911C110.161 24.4911 110.551 32.9928 113.063 33.3242C115.576 33.6556 122.676 23.4588 122.676 23.4588C122.676 23.4588 118.278 23.2266 118.278 21.1886C118.278 19.1506 118.42 15.9737 119.84 13.8407C121.26 11.7076 119.087 5.20993 117.046 3.5536C115.004 1.89726 107.185 3.885 107.185 3.885Z" fill="white" stroke="black" stroke-width="0.271642" stroke-linecap="round" stroke-linejoin="round"/>
<path d="M110.961 3.92946C110.961 3.92946 115.024 5.21161 114.959 8.309C114.895 11.4064 115.717 13.8709 116.918 14.6926C118.118 15.5143 117.929 22.0527 116.918 23.5243C115.907 24.996 114.392 26.547 112.589 25.7396C110.787 24.9321 107.374 32.7962 111.735 32.6882C116.096 32.5802 122.676 24.4289 122.676 24.4289L120.426 23.212C120.426 23.212 118.94 22.9749 118.198 21.6636C118.198 21.6636 118.118 21.2684 118.166 19.9095C118.214 18.5506 118.529 16.0223 118.766 15.9116C119.003 15.8009 121.185 12.4665 120.994 10.5704C120.804 8.67436 114.866 0.466703 110.961 3.92946Z" fill="#E3E3E3"/>
<path d="M112.589 20.2409C112.589 20.2409 115.26 19.6562 115.985 17.8545L112.589 20.2409Z" fill="white"/>
<path d="M112.589 20.2409C112.589 20.2409 115.26 19.6562 115.985 17.8545" stroke="black" stroke-width="0.271642" stroke-linecap="round" stroke-linejoin="round"/>
<path d="M102.334 68.1055V71.5506C102.334 71.5506 104.862 72.9726 105.715 73.3841C106.568 73.7957 117.852 78.472 136.371 71.3298V67.8535L102.334 68.1055Z" fill="white" stroke="black" stroke-width="0.271642" stroke-linecap="round" stroke-linejoin="round"/>
<path d="M108.124 25.7269C108.124 25.7269 103.297 27.8267 102.397 30.2919C102.397 30.2919 102.254 30.5289 103.202 30.8603C104.15 31.1917 105.668 45.6987 103.582 50.7234C101.496 55.7481 101.828 68.975 101.828 68.975C101.828 68.975 107.706 73.1943 117.472 72.4833C127.237 71.7723 137.382 68.6905 137.382 68.6905V65.6094C137.382 65.6094 138.333 64.7082 138.333 63.3813C138.333 62.0543 136.671 45.8896 136.671 45.8896L131.694 26.0264C131.694 26.0264 131.82 25.8315 131.63 25.5368C131.441 25.2421 126.679 23.0818 124.024 23.6088L121.37 24.1358C121.37 24.1358 115.352 32.6776 113.111 31.9509C110.869 31.2243 111.386 24.8441 108.124 25.7269Z" fill="#0B065A" stroke="black" stroke-width="0.271642" stroke-miterlimit="10" stroke-linecap="round"/>
<path d="M105.838 8.41577C105.838 8.41577 105.4 5.29664 108.581 4.2644C111.763 3.23216 114.776 4.72823 115.281 6.33974C115.787 7.95126 115.787 12.9658 116.524 12.5658C117.262 12.1658 116.864 10.8171 118.547 10.4164C120.229 10.0157 120.275 12.671 119.958 13.1328C119.642 13.5946 118.313 15.164 118.504 17.6984C118.504 17.6984 118.441 18.4217 118.968 17.5789C119.495 16.7362 121.791 13.9756 122.192 11.8269C122.593 9.67822 122.551 1.35647 117.118 0.618965C111.685 -0.118543 103.496 1.16836 105.838 8.41577Z" fill="#3F3D56"/>
<path d="M93.8323 43.2949C93.8323 43.2949 98.0672 47.7193 106.632 45.5075C115.197 43.2956 115.576 43.1055 116.745 46.3903C117.915 49.6751 124.046 64.7519 124.235 67.4385C124.328 68.7586 123.098 68.2914 121.202 71.3569L120.917 68.2602C120.917 68.2602 108.117 63.0453 100.627 67.8527C100.627 67.8513 98.5731 55.2098 93.8323 43.2949Z" fill="white" stroke="black" stroke-width="0.271642" stroke-linecap="round" stroke-linejoin="round"/>
<path d="M96.9369 52.3027C96.9369 52.3027 95.2649 53.8409 95.5386 55.0626C95.5386 55.0626 95.5861 55.5584 96.2652 55.6847C96.2652 55.6847 95.965 56.7909 96.2652 57.0748C96.5654 57.3587 96.9131 57.6439 96.9131 57.6439C96.9131 57.6439 96.7623 58.1627 97.0903 58.4058C97.2262 58.5064 97.6879 58.5288 97.6879 58.5288C97.6879 58.5288 97.5772 59.4612 98.1633 59.5719C98.7494 59.6826 99.6961 59.0822 99.7117 58.9396C99.7273 58.797 99.459 57.9889 99.2533 57.9889C99.2533 57.9889 99.6166 57.6412 99.4271 57.2935C99.2377 56.9458 99.1114 57.0897 99.1114 57.0897C99.1114 57.0897 99.8699 56.4731 98.985 55.8728C98.985 55.8728 99.622 55.8151 99.5745 55.3248C99.5745 55.3248 99.2057 54.3244 97.5671 54.4718L96.9369 52.3027Z" fill="white" stroke="black" stroke-width="0.271642" stroke-linecap="round" stroke-linejoin="round"/>
<path d="M96.2695 55.6836C96.2695 55.6836 97.1388 55.9043 98.986 55.8731L96.2695 55.6836Z" fill="white"/>
<path d="M96.2695 55.6836C96.2695 55.6836 97.1388 55.9043 98.986 55.8731" stroke="black" stroke-width="0.271642" stroke-linecap="round" stroke-linejoin="round"/>
<path d="M96.9138 57.6436C96.9138 57.6436 97.9515 57.5173 98.4153 57.338C98.8792 57.1587 99.1107 57.0908 99.1107 57.0908" fill="white"/>
<path d="M96.9138 57.6436C96.9138 57.6436 97.9515 57.5173 98.4153 57.338C98.8792 57.1587 99.1107 57.0908 99.1107 57.0908" stroke="black" stroke-width="0.271642" stroke-linecap="round" stroke-linejoin="round"/>
<path d="M97.6882 58.5294C97.6882 58.5294 98.6043 58.4132 99.2502 57.9922L97.6882 58.5294Z" fill="white"/>
<path d="M97.6882 58.5294C97.6882 58.5294 98.6043 58.4132 99.2502 57.9922" stroke="black" stroke-width="0.271642" stroke-linecap="round" stroke-linejoin="round"/>
<path d="M114.823 43.9336C114.823 43.9336 116.082 44.6806 115.163 46.0735C114.243 47.4663 110.106 48.4503 110.106 48.4503C110.106 48.4503 114.689 49.7773 117.639 55.2665" fill="white"/>
<path d="M114.823 43.9336C114.823 43.9336 116.082 44.6806 115.163 46.0735C114.243 47.4663 110.106 48.4503 110.106 48.4503C110.106 48.4503 114.689 49.7773 117.639 55.2665" stroke="black" stroke-width="0.271642" stroke-linecap="round" stroke-linejoin="round"/>
<path d="M119.432 59.3184C119.432 59.3184 120.617 62.7139 120.917 68.2622L119.432 59.3184Z" fill="white"/>
<path d="M119.432 59.3184C119.432 59.3184 120.617 62.7139 120.917 68.2622" stroke="black" stroke-width="0.271642" stroke-linecap="round" stroke-linejoin="round"/>
<path d="M110.836 23.2273C110.836 23.2273 112.779 26.6908 113.253 27.0201V31.5701C113.253 31.5701 114.533 27.9675 114.96 27.3984C114.96 27.3984 119.688 24.4545 120.636 23.1268C120.636 23.1268 121.265 21.9723 122.498 22.8267C122.86 23.0764 123.272 23.2456 123.706 23.3228C124.139 23.4 124.584 23.3834 125.011 23.2742C125.011 23.2742 118.698 31.1593 117.726 32.0129C117.726 32.0129 117.622 30.9413 117.195 30.472C117.195 30.472 115.893 32.3287 113.955 32.3497C112.017 32.3708 110.963 30.5162 110.963 30.5162C110.963 30.5162 110.623 31.0642 110.584 31.3589C110.584 31.3589 110.331 32.0754 109.867 30.053C109.403 28.0306 107.992 25.1635 107.613 25.1017C107.613 25.1017 109.762 24.0056 110.141 23.5003C110.52 22.9951 110.836 23.2273 110.836 23.2273Z" fill="white" stroke="black" stroke-width="0.271642" stroke-linecap="round" stroke-linejoin="round"/>
<path d="M110.961 30.5165C110.961 30.5165 112.636 26.7876 113.252 27.0191L110.961 30.5165Z" fill="white"/>
<path d="M110.961 30.5165C110.961 30.5165 112.636 26.7876 113.252 27.0191" stroke="black" stroke-width="0.271642" stroke-linecap="round" stroke-linejoin="round"/>
<path d="M114.959 27.3984C114.959 27.3984 116.052 28.0877 117.194 30.4721L114.959 27.3984Z" fill="white"/>
<path d="M114.959 27.3984C114.959 27.3984 116.052 28.0877 117.194 30.4721" stroke="black" stroke-width="0.271642" stroke-linecap="round" stroke-linejoin="round"/>
<path d="M131.778 42.8837L132.621 45.7489C132.621 45.7489 128.66 48.762 127.174 50.7532C125.688 52.7443 122.908 53.8818 122.908 53.8818C122.908 53.8818 120.317 51.9226 119.068 52.6017C119.068 52.6017 119.51 53.803 119.352 54.1344C119.194 54.4658 117.367 55.5674 116.713 55.5252C116.06 55.4831 116.418 56.8529 117.135 57.2318C117.851 57.6108 118.567 59.0858 119.432 59.318C120.296 59.5503 124.361 56.8318 124.972 56.6628C125.584 56.4937 139.468 50.8449 140.071 47.5926C140.674 44.3404 138.08 38.1748 138.08 38.1748L131.778 42.8837Z" fill="white" stroke="black" stroke-width="0.271642" stroke-linecap="round" stroke-linejoin="round"/>
<path d="M133.057 43.4485C133.057 43.4485 134.035 43.0737 135.8 42.4625C137.565 41.8513 140.305 47.7092 137.966 49.8369C137.966 49.8369 139.815 48.715 140.036 47.0872C140.257 45.4594 139.673 42.8998 138.266 39.0737C136.86 35.2477 133.057 43.4485 133.057 43.4485Z" fill="#E3E3E3"/>
<path d="M132.62 45.7517C132.62 45.7517 134.264 44.5293 136.097 45.057L132.62 45.7517Z" fill="white"/>
<path d="M132.62 45.7517C132.62 45.7517 134.264 44.5293 136.097 45.057" stroke="black" stroke-width="0.271642" stroke-linecap="round" stroke-linejoin="round"/>
<path d="M131.694 26.0236C131.694 26.0236 127.807 26.6871 127.38 31.2384C126.954 35.7898 129.039 43.137 129.039 43.137C129.039 43.137 130.177 43.0895 131.978 43.4216C133.78 43.7536 136.008 40.7669 137.715 40.0559C139.421 39.3449 139.942 39.2023 139.942 39.2023C139.942 39.2023 135.107 25.3112 131.694 26.0236Z" fill="white" stroke="black" stroke-width="0.271642" stroke-linecap="round" stroke-linejoin="round"/>
<path d="M137.382 65.6084C137.382 65.6084 131.235 67.6308 126.7 67.8494" stroke="black" stroke-width="0.271642" stroke-linecap="round" stroke-linejoin="round"/>
<path d="M130.319 25.7393C130.319 25.7393 125.689 26.6404 126.7 33.1347" stroke="black" stroke-width="0.271642" stroke-linecap="round" stroke-linejoin="round"/>
<path d="M135.453 34.1768C135.453 34.1768 137.015 37.9213 135.453 40.3865" stroke="black" stroke-width="0.271642" stroke-linecap="round" stroke-linejoin="round"/>
<path d="M111.324 32.3496C111.324 32.3496 113.618 34.0929 116.311 32.6892L111.324 32.3496Z" fill="#0B065A"/>
<path d="M111.324 32.3496C111.324 32.3496 113.618 34.0929 116.311 32.6892" stroke="black" stroke-width="0.271642" stroke-miterlimit="10" stroke-linecap="round"/>
<path d="M106.941 11.996C107.122 11.996 107.268 11.7743 107.268 11.5009C107.268 11.2275 107.122 11.0059 106.941 11.0059C106.761 11.0059 106.615 11.2275 106.615 11.5009C106.615 11.7743 106.761 11.996 106.941 11.996Z" fill="black"/>
<path d="M111.282 12.08C111.462 12.08 111.608 11.8583 111.608 11.5849C111.608 11.3115 111.462 11.0898 111.282 11.0898C111.101 11.0898 110.955 11.3115 110.955 11.5849C110.955 11.8583 111.101 12.08 111.282 12.08Z" fill="black"/>
<path d="M108.765 11.7227C108.765 11.7227 107.814 14.6931 108.386 14.9776C108.958 15.2621 109.608 15.199 109.608 15.199" fill="white"/>
<path d="M108.765 11.7227C108.765 11.7227 107.814 14.6931 108.386 14.9776C108.958 15.2621 109.608 15.199 109.608 15.199" stroke="black" stroke-width="0.271642" stroke-linecap="round" stroke-linejoin="round"/>
<path d="M107.974 16.5407C107.974 16.5407 109.792 18.3743 111.451 16.1455L107.974 16.5407Z" fill="white"/>
<path d="M107.974 16.5407C107.974 16.5407 109.792 18.3743 111.451 16.1455" stroke="black" stroke-width="0.271642" stroke-linecap="round" stroke-linejoin="round"/>
<path d="M105.984 9.4877C105.984 9.4877 106.867 8.32779 107.818 8.53695L105.984 9.4877Z" fill="white"/>
<path d="M105.984 9.4877C105.984 9.4877 106.867 8.32779 107.818 8.53695" stroke="black" stroke-width="0.271642" stroke-linecap="round" stroke-linejoin="round"/>
<path d="M110.618 8.69145C110.618 8.69145 112.177 8.27176 112.599 9.38957L110.618 8.69145Z" fill="white"/>
<path d="M110.618 8.69145C110.618 8.69145 112.177 8.27176 112.599 9.38957" stroke="black" stroke-width="0.271642" stroke-linecap="round" stroke-linejoin="round"/>
</svg>
