<svg width="255" height="255" viewBox="0 0 255 255" fill="none" xmlns="http://www.w3.org/2000/svg">
<path opacity="0.8" d="M78.2982 254.054C78.2982 254.054 36.661 248.934 43.5141 215.057C50.3672 181.181 54.2567 179.23 41.7756 139.475C29.2945 99.7187 107.968 55.3671 146.969 96.1534C185.97 136.94 207.255 110.32 234.668 133.937C262.081 157.553 244.028 226.196 213.607 254.054H78.2982Z" fill="#FFF2D1"/>
<path d="M175.179 71.7714C173.253 70.5428 169.079 70.2347 166.035 72.2795C166.035 72.2795 163.441 73.4402 161.404 77.3146C159.366 81.1889 160.868 83.7132 156.553 85.2615C156.553 85.2615 159.57 85.3427 160.589 81.7157C161.006 80.2299 161.893 79.0441 162.796 78.1602C162.591 80.446 162.636 82.6417 158.917 85.0168C153.049 88.767 160.058 88.9295 159.203 93.2905C158.347 97.6514 164.684 95.1656 165.427 99.2819C166.171 103.398 169.433 106.084 173.305 100.994C177.176 95.9049 172.322 83.9176 172.322 83.9176L165.424 80.3308C171.12 72.7911 177.58 77.9673 177.58 77.9673C177.58 77.9673 177.465 76.2297 178.651 76.5583C178.658 76.5574 177.542 73.2795 175.179 71.7714Z" fill="#3F3D56"/>
<path d="M173.834 90.3799C173.834 90.3799 174.486 93.6167 174.242 94.3908C173.999 95.165 176.687 98.467 176.687 98.467L180.029 93.5765C180.029 93.5765 178.481 91.7014 177.951 86.1993C177.42 80.6972 173.834 90.3799 173.834 90.3799Z" fill="white" stroke="black" stroke-width="0.417847" stroke-miterlimit="10" stroke-linecap="round"/>
<path d="M178.208 89.1869C178.208 89.1869 176.66 90.9665 175.804 91.0754C174.947 91.1844 175.138 93.1809 175.587 93.5345C176.035 93.8881 177.421 93.9961 179.322 92.6925L179.846 93.8399C179.846 93.8399 175.077 96.0204 174.628 95.3275C174.18 94.6346 174.45 94.3899 174.45 94.3899C174.45 94.3899 174.48 91.9853 173.838 89.6628C173.196 87.3404 178.035 88.0735 178.035 88.0735L178.208 89.1869Z" fill="#E3E3E3"/>
<path d="M193.996 79.0807C193.996 79.0807 197.737 75.0804 197.973 73.7857C198.209 72.491 198.891 70.7498 199.643 70.4686C200.396 70.1873 201.973 70.2569 201.973 70.2569C201.973 70.2569 203.759 67.7157 203.926 67.1041C204.093 66.4924 204.585 68.2095 204.185 69.0328C203.785 69.856 202.488 71.9276 202.561 72.1392C202.633 72.3508 203.173 72.1392 203.29 72.8214C203.407 73.5035 203.667 74.2098 203.126 74.5179C202.585 74.8259 199.832 75.9037 199.291 75.9037C199.291 75.9037 196.608 81.2218 196.161 81.3156C195.715 81.4094 193.996 79.0807 193.996 79.0807Z" fill="white" stroke="black" stroke-width="0.417847" stroke-miterlimit="10" stroke-linecap="round"/>
<path d="M202.477 72.2533C202.477 72.2533 202.209 73.2713 202.209 73.7829C202.209 74.2945 203.091 72.8516 203.091 72.8516C203.085 72.757 203.049 72.6667 202.989 72.5932C202.93 72.5198 202.848 72.4668 202.757 72.4417C202.503 72.3766 202.477 72.2533 202.477 72.2533Z" fill="#E3E3E3"/>
<path d="M195.582 78.8958L199.231 75.6197L197.033 79.786L195.582 78.8958Z" fill="#E3E3E3"/>
<path d="M212.017 133.521L213.577 138.998L215.949 137.594L214.967 130.807L212.017 133.521Z" fill="white" stroke="black" stroke-width="0.417847" stroke-miterlimit="10" stroke-linecap="round"/>
<path d="M206.915 154.585L211.923 156.224L210.988 158.819L205.464 157.441L206.915 154.585Z" fill="white" stroke="black" stroke-width="0.417847" stroke-miterlimit="10" stroke-linecap="round"/>
<path d="M192.178 108.61C192.178 108.61 197.99 97.8295 203.108 97.6902C208.226 97.5509 212.79 101.341 212.79 101.341L204.294 113.347C204.294 113.347 184.705 115.36 186.671 110.878C188.636 106.397 192.178 108.61 192.178 108.61Z" fill="#654EF9" stroke="black" stroke-width="0.417847" stroke-miterlimit="10" stroke-linecap="round"/>
<path d="M196.856 112.424C196.856 112.424 206.678 99.7927 211.561 103.913C216.444 108.032 205.892 120.125 196.856 112.424Z" fill="#5842E2"/>
<path d="M157.439 123.286C157.439 123.286 166.473 126.219 169 126.313C171.528 126.406 169 129.995 169 129.995L155.098 128.049L157.439 123.286Z" fill="white" stroke="black" stroke-width="0.417847" stroke-miterlimit="10" stroke-linecap="round"/>
<path d="M159.245 124.074C159.245 124.074 159.99 125.002 159.897 126.64C159.803 128.279 168.813 128.605 168.813 128.605L168.392 129.751L156.559 128.022L158.559 123.857L159.245 124.074Z" fill="#E3E3E3"/>
<path d="M162.073 142.782C162.073 142.782 168.392 124.924 169.936 124.567C171.481 124.21 181.171 125.207 181.171 125.207L190.622 134.826C190.622 134.826 176.443 133.444 175.928 134.937C175.413 136.43 174.664 143.727 174.664 143.727L162.073 142.782Z" fill="#21345F" stroke="black" stroke-width="0.417847" stroke-miterlimit="10" stroke-linecap="round"/>
<path d="M133.38 136.092C133.38 136.092 142 155.474 143.131 155.966C144.263 156.458 149.843 153.087 149.843 153.087C149.843 153.087 155.847 140.402 150.16 137.337C144.473 134.271 133.38 136.092 133.38 136.092Z" fill="#21345F"/>
<path d="M129.147 138.39C129.147 138.39 127.685 138.601 127.948 135.114C128.212 131.627 131.694 135.862 129.147 138.39Z" fill="#4052F2" stroke="black" stroke-width="0.417847" stroke-miterlimit="10" stroke-linecap="round"/>
<path d="M128.746 129.215C128.746 129.215 127.388 130.058 128.21 131.626C129.032 133.194 133.032 131.536 132.05 130.42C131.067 129.304 128.746 129.215 128.746 129.215Z" fill="#4052F2" stroke="black" stroke-width="0.417847" stroke-miterlimit="10" stroke-linecap="round"/>
<path d="M143.069 179.206L83.2473 245.455L97.758 251.876L156.556 185.653L143.069 179.206Z" fill="white"/>
<path d="M231.238 103.933L231.338 104.032L231.359 104.044L231.322 104.007L231.3 103.985L231.238 103.933Z" fill="#FBF4E9"/>
<path d="M234.974 105.14C234.745 104.844 234.461 104.594 234.138 104.403C233.41 103.97 232.45 103.802 231.319 103.985C231.319 103.991 231.319 103.998 231.319 104.005L231.354 104.041L231.334 104.029L149.933 186.98L154.192 191.16L235.593 108.209L235.573 108.178C235.784 106.943 235.551 105.891 234.974 105.14Z" fill="#FCAA23" stroke="black" stroke-width="0.417847" stroke-linecap="round" stroke-linejoin="round"/>
<path d="M231.238 103.933L231.299 103.984L231.32 104.005C231.32 103.998 231.32 103.991 231.32 103.985C231.302 102.365 230.643 100.819 229.489 99.6826L229.464 99.7076L229.483 99.6755C228.324 98.5357 226.76 97.9024 225.134 97.9147H225.114L225.135 97.9343L225.181 97.987L225.091 97.8977L143.689 180.849L146.805 183.905L146.822 183.922L149.936 186.979L231.337 104.028L231.238 103.933Z" fill="white" stroke="black" stroke-width="0.417847" stroke-linecap="round" stroke-linejoin="round"/>
<path d="M225.136 97.937L225.114 97.9166L225.076 97.8785L225.089 97.8999L225.184 97.9918L225.136 97.937Z" fill="#FAEEDD"/>
<path d="M242.579 86.3409L242.562 86.3239L240.509 84.3104L220.831 93.7198L220.862 93.7386C222.241 93.3752 223.451 93.719 224.24 94.5342C224.278 94.5717 224.312 94.6145 224.348 94.6538C224.384 94.6931 224.429 94.7431 224.467 94.7913L224.494 94.8315C225.066 95.5958 225.33 96.6647 225.134 97.9147C226.759 97.9027 228.322 98.536 229.481 99.6755L229.462 99.7077L229.487 99.6827C230.642 100.819 231.3 102.365 231.319 103.985C232.45 103.806 233.41 103.97 234.139 104.403C234.479 104.568 234.768 104.823 234.974 105.14C235.551 105.891 235.784 106.943 235.575 108.176L235.595 108.207L244.632 88.3535L242.579 86.3409Z" fill="white" stroke="black" stroke-width="0.417847" stroke-linecap="round" stroke-linejoin="round"/>
<path d="M248.132 80.6645L248.147 80.6324L248.1 80.6797L240.509 84.3102L242.562 86.3237L242.579 86.3407L244.632 88.3542L248.118 80.6966L248.164 80.6493L248.132 80.6645Z" fill="#21345F"/>
<path d="M143.687 180.849L225.089 97.8981L225.076 97.8776L225.113 97.9142H225.133C225.33 96.6641 225.065 95.5926 224.494 94.831C224.484 94.8185 224.476 94.8042 224.466 94.7908C224.429 94.7426 224.387 94.7015 224.347 94.6533C224.308 94.6051 224.277 94.5729 224.239 94.5336C223.449 93.7184 222.24 93.3728 220.862 93.738L220.83 93.7193L139.429 176.67L143.687 180.849Z" fill="#FCAA23" stroke="black" stroke-width="0.417847" stroke-linecap="round" stroke-linejoin="round"/>
<path d="M155.548 191.492L150.388 186.428L144.211 180.367L139.052 175.303L131.047 183.46L136.16 188.479H136.16L142.428 194.629L147.543 199.649L155.548 191.492Z" fill="#21345F" stroke="black" stroke-width="0.417847" stroke-miterlimit="10" stroke-linecap="round"/>
<path d="M165.427 80.3297C165.427 80.3297 166.052 83.387 167.109 84.6907C168.167 85.9943 166.865 86.7283 169.149 88.315C171.433 89.9017 175.451 92.2831 177.993 87.7855C179.848 84.505 178.659 80.0824 178.659 80.0824C178.659 80.0824 180.031 78.8323 179.541 77.0394C179.052 75.2464 176.933 76.659 177.585 77.9635C177.585 77.9635 175.493 74.7026 169.842 76.3063C169.84 76.309 166.476 77.3412 165.427 80.3297Z" fill="white" stroke="black" stroke-width="0.417847" stroke-miterlimit="10" stroke-linecap="round"/>
<path d="M177.262 120.438C177.262 120.438 178.034 129.567 183.301 129.917C188.567 130.268 205.98 117.56 205.98 117.56C206.138 121.184 208.087 126.899 211.387 134.27C211.387 134.27 214.406 134.06 215.673 132.866C215.673 132.866 215.041 116.202 215.041 112.418C215.041 108.634 212.373 108.498 209.565 108.639C206.756 108.779 199.466 110.565 198.02 111.674C196.575 112.783 182.739 112.156 177.262 120.438Z" fill="#654EF9" stroke="black" stroke-width="0.417847" stroke-miterlimit="10" stroke-linecap="round"/>
<path d="M190.127 115.298C190.127 115.298 182.045 119.342 181.951 123.858C181.857 128.373 187.818 128.248 187.818 128.248C187.818 128.248 183.044 131.571 180.266 128.139C177.488 124.707 177.333 119.246 177.333 119.246C177.333 119.246 186.257 113.207 190.127 115.298Z" fill="#5842E2"/>
<path d="M193.107 111.896C193.107 111.896 195.071 111.802 196.781 110.914C198.491 110.025 199.46 109.807 201.766 109.51C203.808 109.242 203.804 109.469 203.78 109.627C203.723 109.989 203.108 110.124 203.108 110.124C203.108 110.124 203.633 110.095 203.792 110.243C203.988 110.422 203.686 110.723 203.249 110.879C203.249 110.879 203.802 110.867 203.853 111.156C203.928 111.577 203.171 111.602 202.983 111.679C202.983 111.679 203.34 111.616 203.202 111.959C203.063 112.302 201.47 112.6 200.721 113.005C199.973 113.41 200.007 114.409 193.014 114.082L193.107 111.896Z" fill="white" stroke="black" stroke-width="0.417847" stroke-miterlimit="10" stroke-linecap="round"/>
<path d="M194.542 111.888C194.542 111.888 194.363 113.227 195.268 113.426C196.173 113.624 200.081 113.176 200.081 113.176C200.081 113.176 199.59 113.917 195.298 113.94L191.008 113.964L192.437 112.185L194.542 111.888Z" fill="#E3E3E3"/>
<path d="M173.775 94.6238C173.775 94.6238 173.852 95.5444 176.193 94.9988C178.533 94.4532 179.595 93.5702 179.837 92.6933C179.837 92.6933 185.734 87.6261 187.91 84.7464C190.086 81.8668 194.745 77.304 194.745 77.304C194.745 77.304 196.823 78.6693 198.015 79.722C198.015 79.722 194.02 86.2215 192.122 88.5377C190.225 90.8539 185.988 98.2508 185.988 98.2508C185.988 98.2508 190.461 107.589 192.919 109.275C192.919 109.275 191.631 110.492 190.929 110.912C190.929 110.912 193.667 110.912 193.995 111.077C193.995 111.077 193.621 113.651 194.276 114.634C194.276 114.634 185.944 116.483 184.446 116.553C184.446 116.553 180.517 119.856 178.143 121.132C175.769 122.408 175.428 124.159 175.428 124.159C175.428 124.159 171.209 123.534 170.874 113.98C170.539 104.426 172.324 95.3497 173.775 94.6238Z" fill="white" stroke="black" stroke-width="0.417847" stroke-miterlimit="10" stroke-linecap="round"/>
<path d="M180.702 100.24C180.702 100.24 182.95 109.929 183.324 110.398C183.698 110.867 190.931 110.912 190.931 110.912" stroke="black" stroke-width="0.417847" stroke-miterlimit="10" stroke-linecap="round"/>
<path d="M175.507 106.28C175.507 106.28 177.293 116.062 179.981 116.436C182.668 116.81 184.445 116.553 184.445 116.553" stroke="black" stroke-width="0.417847" stroke-miterlimit="10" stroke-linecap="round"/>
<path d="M183.792 94.8891C183.792 94.8891 184.847 95.9775 185.99 98.2518L183.792 94.8891Z" fill="white"/>
<path d="M183.792 94.8891C183.792 94.8891 184.847 95.9775 185.99 98.2518" stroke="black" stroke-width="0.417847" stroke-miterlimit="10" stroke-linecap="round"/>
<path d="M202.983 111.678C202.983 111.678 201.801 111.802 201.45 111.978C201.099 112.154 200.607 112.425 200.607 112.425" fill="white"/>
<path d="M202.983 111.678C202.983 111.678 201.801 111.802 201.45 111.978C201.099 112.154 200.607 112.425 200.607 112.425" stroke="black" stroke-width="0.417847" stroke-miterlimit="10" stroke-linecap="round"/>
<path d="M203.249 110.878C203.249 110.878 202.21 110.85 201.642 111.093C201.106 111.321 200.315 111.678 200.315 111.678" fill="white"/>
<path d="M203.249 110.878C203.249 110.878 202.21 110.85 201.642 111.093C201.106 111.321 200.315 111.678 200.315 111.678" stroke="black" stroke-width="0.417847" stroke-miterlimit="10" stroke-linecap="round"/>
<path d="M203.108 110.124C203.108 110.124 201.858 110.222 201.426 110.351C200.932 110.5 200.081 110.878 200.081 110.878" fill="white"/>
<path d="M203.108 110.124C203.108 110.124 201.858 110.222 201.426 110.351C200.932 110.5 200.081 110.878 200.081 110.878" stroke="black" stroke-width="0.417847" stroke-miterlimit="10" stroke-linecap="round"/>
<path d="M201.973 70.2568L201.549 70.969" stroke="black" stroke-width="0.417847" stroke-miterlimit="10" stroke-linecap="round"/>
<path d="M129.656 108.362C129.656 108.362 133.022 108.267 134.407 110.17C135.792 112.074 137.928 111.539 138.491 111.867C139.053 112.195 138.157 113.342 138.414 113.563C138.671 113.785 140.787 115.677 140.768 116.7C140.734 118.559 138.771 121.149 138.771 121.149L143.114 125.986L137.774 130.468C137.774 130.468 135.919 124.318 134.081 123.966C132.244 123.613 124.45 124.185 124.864 120.892C125.277 117.599 125.277 110.028 129.656 108.362Z" fill="white" stroke="black" stroke-width="0.417847" stroke-miterlimit="10" stroke-linecap="round"/>
<path d="M129.656 108.362C129.656 108.362 130.981 109.418 131.324 112.09C131.668 114.761 130.058 115.43 130.805 118.239C130.928 118.702 131.451 120.728 132.858 121.563C133.662 122.04 136.087 124.1 136.741 125.224C138.037 127.456 141.172 124.51 141.172 124.51C141.172 124.51 141.642 126.431 138.723 127.762C138.723 127.762 137.423 128.371 137.238 128.407C137.238 128.407 136.501 126.151 135.199 124.498C135.199 124.498 134.484 123.626 133.117 123.695C131.75 123.763 126.921 122.145 127.809 115.346C128.696 108.547 129.656 108.362 129.656 108.362Z" fill="#E3E3E3"/>
<path d="M129.656 108.362C129.656 108.362 131.748 111.535 130.616 113.764C129.485 115.992 128.433 117.112 129.942 118.415C129.942 118.415 127.777 119.379 128.908 120.765C130.04 122.151 131.211 121.023 132.451 122.305C133.692 123.588 133.506 124.805 133.506 124.805C133.506 124.805 131.483 124.041 128.089 124.49C124.695 124.939 122.811 123.768 121.711 121.104C120.241 117.544 120.674 113.961 122.346 110.845C124.019 107.729 129.675 103.151 134.101 109.554C134.101 109.557 132.093 107.786 129.656 108.362Z" fill="#3F3D56"/>
<path d="M130.575 131.041C130.575 131.041 123.878 130.869 123.164 130.494C123.164 130.494 118.826 120.462 118.967 118.683C119.109 116.904 119.526 114.105 119.366 113.441C119.295 113.149 118.999 112.589 118.792 112.45C118.141 112.014 117.259 112.177 117.259 112.177C117.259 112.177 115.948 111.499 115.34 111.896C114.732 112.293 112.462 113.581 112.648 114.4C112.835 115.22 115.902 118.402 116.041 119.572C116.181 120.742 116.416 133.943 118.733 135.534C121.05 137.125 130.829 137.336 130.829 137.336L130.575 131.041Z" fill="white" stroke="black" stroke-width="0.417847" stroke-miterlimit="10" stroke-linecap="round"/>
<path d="M128.746 131.158C128.746 131.158 128.56 134.997 128.021 135.417C127.481 135.836 119.415 135.206 118.104 134.239C118.104 134.239 118.339 135.132 119.006 135.476C119.673 135.819 121.911 136.763 128.792 137.055L129.541 131.181L128.746 131.158Z" fill="#E3E3E3"/>
<path d="M149.843 150.891C149.843 150.891 153.586 159.472 171.362 153.863C176.452 152.255 180.494 151.69 183.906 152.24C186.904 152.724 196.713 158.139 205.687 158.818L207.605 153.966C207.605 153.966 194.287 146.008 185.519 144.031C176.752 142.054 161.422 140.979 161.422 140.979L149.843 150.891Z" fill="#21345F" stroke="black" stroke-width="0.417847" stroke-miterlimit="10" stroke-linecap="round"/>
<path d="M128.746 129.215C128.746 129.215 129.401 129.075 129.541 131.179C129.681 133.284 128.605 137.405 129.143 138.388C129.143 138.388 134.971 137.358 136.984 138.388C138.996 139.417 147.703 151.821 149.06 156.456C149.06 156.456 153.133 155.379 157.298 148.826C161.464 142.273 164.882 139.98 164.882 139.98L153.413 128.559C153.413 128.559 155.941 128.792 157.86 129.167C157.86 129.167 159.498 127.107 158.842 124.954C158.452 123.684 158.165 122.385 157.984 121.069C157.984 121.069 156.34 121.227 154.208 121.326C150.636 121.493 145.883 121.383 145.268 122.38C144.286 123.971 141.309 123.508 141.309 123.508C141.309 123.508 142.37 127.029 136.493 127.841C130.616 128.652 128.746 129.215 128.746 129.215Z" fill="#654EF9" stroke="black" stroke-width="0.417847" stroke-miterlimit="10" stroke-linecap="round"/>
<path d="M150.398 124.953C150.398 124.953 157.836 129.774 158.702 125.284C158.878 126.036 158.812 126.825 158.514 127.538C158.015 128.724 157.781 128.95 157.781 128.95L153.049 128.271L150.398 124.953Z" fill="#5842E2"/>
<path d="M143.326 123.668C143.326 123.668 147.655 126.219 157.298 132.749L154.351 129.659L145.036 123.06C145.036 123.06 144.004 123.528 143.326 123.668Z" fill="#0502AB"/>
<path d="M142.994 143.211C142.994 143.211 149.973 152.128 155.519 147.587C161.066 143.045 161.792 142.532 161.792 142.532C161.792 142.532 158.656 146.112 156.69 149.388C154.724 152.664 151.213 155.591 149.223 156.27C149.223 156.27 146.657 150.231 142.737 144.977C142.737 144.977 142.614 143.187 142.994 143.211Z" fill="#5842E2"/>
<path d="M136.493 128.068C136.493 128.068 141.922 134.13 141.875 139.278C141.828 144.427 140.714 142.157 140.714 142.157L139.674 140.823C139.674 140.823 139.206 129.917 134.596 128.349L136.493 128.068Z" fill="#0502AB"/>
<path d="M134.515 128.128C134.515 128.128 137.545 128.091 139.23 133.521C140.915 138.951 140.707 142.502 140.707 142.502C140.707 142.502 140.51 143.975 141.415 145.099C142.32 146.222 142.691 145.235 142.691 145.235C142.691 145.235 145.152 133.03 137.913 127.563C137.913 127.563 137.159 127.309 135.801 127.421C134.571 127.523 133.849 128 134.515 128.128Z" fill="#21345F"/>
<path d="M143.477 123.46C143.477 123.46 145.432 123.103 148.592 125.845C151.752 128.587 156.376 131.51 156.376 131.51C156.376 131.51 156.78 131.556 156.376 130.822C155.971 130.088 147.223 121.456 145.714 121.761C144.205 122.065 142.352 123.181 143.477 123.46Z" fill="#21345F"/>
<path d="M113.977 114.822C113.977 114.822 114.513 114.564 115.194 115.524C115.194 115.524 115.686 115.867 116.201 115.157C116.201 115.157 116.926 115.196 117.208 114.494C117.208 114.494 117.839 114.564 117.863 113.958C117.863 113.958 118.068 114.099 118.22 113.928C118.22 113.928 118.46 113.352 117.254 112.18" stroke="black" stroke-width="0.417847" stroke-miterlimit="10" stroke-linecap="round"/>
<path d="M117.759 114.285C117.759 114.285 117.134 114.86 117.356 116.202" stroke="black" stroke-width="0.417847" stroke-miterlimit="10" stroke-linecap="round"/>
<path d="M123.164 130.494C123.164 130.494 122.01 130.395 121.229 130.741L123.164 130.494Z" fill="white"/>
<path d="M123.164 130.494C123.164 130.494 122.01 130.395 121.229 130.741" stroke="black" stroke-width="0.417847" stroke-miterlimit="10" stroke-linecap="round"/>
<path d="M117.016 216.636C117.016 216.636 118.526 191.099 132.49 192.355C132.49 192.355 136.704 192.481 140.479 198.457C144.253 204.433 134.566 213.994 117.016 216.636Z" fill="#FCAA23"/>
<path d="M135.438 195.266C135.438 195.266 130.308 192.608 127.1 198.521C123.892 204.434 121.376 212.737 121.376 212.737C121.376 212.737 142.643 205.286 135.438 195.266Z" fill="#FEEED3"/>
<path d="M232.734 254.485H2.14397C2.40553 252.071 3.24106 249.755 4.58071 247.73C3.67684 247.261 2.8746 246.619 2.22018 245.839C1.56575 245.059 1.07206 244.157 0.767518 243.185C0.462981 242.214 0.353617 241.192 0.445714 240.178C0.537811 239.164 0.829552 238.178 1.30415 237.277C1.77874 236.376 2.42681 235.578 3.21106 234.929C3.9953 234.28 4.90024 233.792 5.87376 233.494C6.84728 233.195 7.87017 233.093 8.88355 233.191C9.89692 233.29 10.8808 233.588 11.7784 234.069C11.9874 224.632 19.7003 217.048 29.1901 217.048C29.6679 217.048 30.1393 217.068 30.6072 217.106C29.6685 214.668 29.1881 212.078 29.1901 209.466C29.1901 197.728 38.705 188.214 50.4414 188.214C54.0306 188.213 57.5617 189.121 60.7047 190.854C63.8477 192.587 66.5 195.089 68.4138 198.126C68.7678 196.587 69.4484 195.142 70.4095 193.889C71.3706 192.636 72.5898 191.605 73.9844 190.864C75.3791 190.124 76.9165 189.692 78.4927 189.598C80.0689 189.503 81.647 189.749 83.12 190.318C84.5929 190.886 85.9265 191.765 87.0302 192.894C88.1338 194.024 88.9819 195.377 89.5169 196.863C90.0519 198.348 90.2613 199.931 90.131 201.505C90.0006 203.079 89.5335 204.606 88.7614 205.983C92.0898 204.907 95.7014 205.124 98.8768 206.592C102.052 208.059 104.558 210.669 105.895 213.902C107.232 217.134 107.302 220.752 106.091 224.034C104.88 227.316 102.476 230.02 99.3602 231.61C99.7531 231.864 100.158 232.109 100.576 232.345C102.496 229.892 104.931 227.891 107.71 226.484C110.489 225.077 113.543 224.298 116.656 224.202C119.769 224.106 122.865 224.695 125.725 225.928C128.585 227.162 131.14 229.008 133.207 231.338C133.199 231.126 133.193 230.913 133.193 230.699C133.193 221.074 140.996 213.272 150.622 213.272C153.64 213.27 156.607 214.053 159.231 215.543C161.855 217.034 164.047 219.18 165.592 221.773C166.71 221.122 167.946 220.698 169.229 220.526C170.512 220.353 171.816 220.437 173.067 220.77C174.318 221.104 175.49 221.681 176.517 222.469C177.543 223.258 178.404 224.241 179.05 225.363C180.105 221.828 182.273 218.728 185.232 216.524C188.19 214.32 191.781 213.13 195.47 213.13C204.935 213.13 212.602 220.799 212.602 230.26C212.606 232.686 212.092 235.085 211.096 237.297C213.235 236.45 215.585 236.295 217.817 236.853C220.048 237.411 222.049 238.655 223.537 240.409C225.025 242.163 225.925 244.339 226.112 246.632C226.299 248.925 225.763 251.218 224.579 253.19C225.865 252.384 227.399 252.071 228.898 252.307C230.397 252.544 231.76 253.316 232.735 254.479L232.734 254.485Z" fill="white" stroke="black" stroke-width="0.417847" stroke-linecap="round" stroke-linejoin="round"/>
<path d="M254.012 254.486H232.944C233.762 252.355 235.207 250.523 237.087 249.23C238.968 247.938 241.196 247.246 243.478 247.246C245.76 247.246 247.988 247.938 249.869 249.23C251.75 250.523 253.194 252.355 254.012 254.486Z" fill="white" stroke="black" stroke-width="0.417847" stroke-linecap="round" stroke-linejoin="round"/>
<path d="M209.338 155.305C209.338 155.305 214.217 153.863 215.352 151.118C216.487 148.373 218.353 148.995 218.353 148.995L218.978 149.142L215.283 161.292H214.053C214.053 161.292 211.766 160.488 210.338 159.389C208.911 158.29 208.179 158.29 208.179 158.29L209.338 155.305Z" fill="#21345F" stroke="black" stroke-width="0.417847" stroke-miterlimit="10" stroke-linecap="round"/>
<path d="M215.772 136.164C215.772 136.164 219.522 139.602 222.46 139.159C225.398 138.716 225.826 140.636 225.826 140.636L226.021 141.245L213.705 144.34L213.073 143.29C213.073 143.29 212.584 140.915 212.789 139.127C212.993 137.338 212.617 136.71 212.617 136.71L215.772 136.164Z" fill="#21345F" stroke="black" stroke-width="0.417847" stroke-miterlimit="10" stroke-linecap="round"/>
<path d="M117.863 113.956C117.863 113.956 116.815 112.459 115.197 111.985L117.863 113.956Z" fill="white"/>
<path d="M117.863 113.956C117.863 113.956 116.815 112.459 115.197 111.985" stroke="black" stroke-width="0.417847" stroke-miterlimit="10" stroke-linecap="round"/>
<path d="M117.207 114.495C117.207 114.495 115.914 112.994 114.46 112.451L117.207 114.495Z" fill="white"/>
<path d="M117.207 114.495C117.207 114.495 115.914 112.994 114.46 112.451" stroke="black" stroke-width="0.417847" stroke-miterlimit="10" stroke-linecap="round"/>
<path d="M116.2 115.157C116.2 115.157 114.97 113.347 113.883 113.523L116.2 115.157Z" fill="white"/>
<path d="M116.2 115.157C116.2 115.157 114.97 113.347 113.883 113.523" stroke="black" stroke-width="0.417847" stroke-miterlimit="10" stroke-linecap="round"/>
<path d="M121.468 126.91L122.854 130.28C122.854 130.28 121.694 130.327 121.152 130.548C120.61 130.769 121.468 126.91 121.468 126.91Z" fill="#E3E3E3"/>
<path d="M124.776 107.992C124.776 107.992 127.057 105.464 125.454 103.198C125.454 103.198 128.991 104.995 127.192 107.455C125.393 109.916 124.776 107.992 124.776 107.992Z" fill="#3F3D56"/>
<path d="M129.002 108.818C129.002 108.818 130.52 111.065 129.501 114.365" stroke="white" stroke-width="0.208923" stroke-miterlimit="10" stroke-linecap="round"/>
<path d="M138.825 115.588C138.825 115.588 138.365 116.897 136.54 117.089L138.825 115.588Z" fill="white"/>
<path d="M138.825 115.588C138.825 115.588 138.365 116.897 136.54 117.089" stroke="black" stroke-width="0.417847" stroke-miterlimit="10" stroke-linecap="round"/>
<path d="M132.227 112.723C132.227 112.723 131.763 111.019 132.778 110.461L132.227 112.723Z" fill="white"/>
<path d="M132.227 112.723C132.227 112.723 131.763 111.019 132.778 110.461" stroke="black" stroke-width="0.417847" stroke-miterlimit="10" stroke-linecap="round"/>
<path d="M134.578 113.444C134.578 113.444 134.113 112.469 135.114 112.001L134.578 113.444Z" fill="white"/>
<path d="M134.578 113.444C134.578 113.444 134.113 112.469 135.114 112.001" stroke="black" stroke-width="0.417847" stroke-miterlimit="10" stroke-linecap="round"/>
<path d="M202.592 71.986C202.592 71.986 202.242 72.9369 202.207 73.7834L202.592 71.986Z" fill="white"/>
<path d="M202.592 71.986C202.592 71.986 202.242 72.9369 202.207 73.7834" stroke="black" stroke-width="0.417847" stroke-miterlimit="10" stroke-linecap="round"/>
<path d="M165.723 75.8646C165.723 75.8646 164.134 83.2436 161.138 85.1384C158.143 87.0331 157.98 87.951 157.98 87.951" stroke="white" stroke-width="0.208923" stroke-miterlimit="10" stroke-linecap="round"/>
<path d="M164.895 84.3237C164.895 84.3237 165.52 88.1275 161.145 93.6162" stroke="white" stroke-width="0.208923" stroke-miterlimit="10" stroke-linecap="round"/>
<path d="M165.724 88.5623C165.724 88.5623 166.335 93.4938 163.523 95.2876" stroke="white" stroke-width="0.208923" stroke-miterlimit="10" stroke-linecap="round"/>
<path d="M167.925 89.9076C167.925 89.9076 171.593 96.4258 167.925 101.726" stroke="white" stroke-width="0.208923" stroke-miterlimit="10" stroke-linecap="round"/>
<path d="M169.595 99.305C169.595 99.305 169.97 101.537 168.97 104.157" stroke="white" stroke-width="0.208923" stroke-miterlimit="10" stroke-linecap="round"/>
<path d="M172.453 76.0514C172.453 76.0514 166.666 78.3131 166.604 80.3097C166.543 82.3062 168.235 83.55 168.52 85.3635C168.806 87.177 172.449 89.9084 172.449 89.9084C172.449 89.9084 167.905 88.3012 167.844 86.3823C167.782 84.4635 167.049 84.7323 166.723 83.8554C166.397 82.9786 165.83 81.3088 165.582 80.3097C165.577 80.3097 166.844 76.1327 172.453 76.0514Z" fill="#E3E3E3"/>
<path d="M175.507 107.155C175.507 107.155 175.3 111.571 176.347 113.966C177.395 116.362 177.865 120.842 172.687 121.443C172.687 121.443 173.813 123.53 175.312 123.929C175.312 123.929 175.546 122.43 177.827 121.085C180.108 119.739 183.597 117.188 183.795 116.814C183.795 116.814 180.483 116.895 179.407 116.45C178.331 116.006 177.278 113.455 176.907 112.366C176.537 111.278 175.507 107.155 175.507 107.155Z" fill="#E3E3E3"/>
<path d="M183.933 94.7442C183.933 94.7442 188.637 93.762 190.183 90.9047L185.987 97.8792C185.987 97.8792 185.43 96.5193 183.933 94.7442Z" fill="#E3E3E3"/>
<path d="M105.311 202.263C107.161 202.263 108.66 200.764 108.66 198.915C108.66 197.066 107.161 195.567 105.311 195.567C103.462 195.567 101.963 197.066 101.963 198.915C101.963 200.764 103.462 202.263 105.311 202.263Z" fill="white"/>
<path d="M158.407 212.067C159.985 212.067 161.265 210.787 161.265 209.209C161.265 207.63 159.985 206.35 158.407 206.35C156.828 206.35 155.548 207.63 155.548 209.209C155.548 210.787 156.828 212.067 158.407 212.067Z" fill="white"/>
<path d="M196.465 209.209C198.044 209.209 199.324 207.929 199.324 206.351C199.324 204.772 198.044 203.492 196.465 203.492C194.887 203.492 193.607 204.772 193.607 206.351C193.607 207.929 194.887 209.209 196.465 209.209Z" fill="white"/>
<path d="M176.406 206.561C180.073 206.561 183.046 203.589 183.046 199.922C183.046 196.255 180.073 193.282 176.406 193.282C172.739 193.282 169.767 196.255 169.767 199.922C169.767 203.589 172.739 206.561 176.406 206.561Z" fill="white"/>
<path d="M92.9857 182.556C96.345 182.556 99.0682 179.832 99.0682 176.473C99.0682 173.114 96.345 170.391 92.9857 170.391C89.6264 170.391 86.9032 173.114 86.9032 176.473C86.9032 179.832 89.6264 182.556 92.9857 182.556Z" fill="white"/>
<path d="M191.008 159.927L167.264 183.672" stroke="black" stroke-width="0.417847" stroke-miterlimit="10" stroke-linecap="round"/>
<path d="M127.369 176.473L121.225 182.616" stroke="black" stroke-width="0.417847" stroke-miterlimit="10" stroke-linecap="round"/>
<path d="M125.349 182.787L119.204 188.932" stroke="black" stroke-width="0.417847" stroke-miterlimit="10" stroke-linecap="round"/>
<path d="M135.844 172.201L127.459 180.744" stroke="black" stroke-width="0.417847" stroke-miterlimit="10" stroke-linecap="round"/>
<path d="M171.978 182.708L163.593 191.251" stroke="black" stroke-width="0.417847" stroke-miterlimit="10" stroke-linecap="round"/>
<path d="M86.8832 230.645C86.8832 230.645 104.245 222.413 108.66 241.122L86.8832 230.645Z" fill="white"/>
<path d="M86.8832 230.645C86.8832 230.645 104.245 222.413 108.66 241.122" stroke="black" stroke-width="0.417847" stroke-linecap="round" stroke-linejoin="round"/>
<path d="M32.4796 238.577C32.4796 238.577 25.0685 226.678 38.5416 219.719L32.4796 238.577Z" fill="white"/>
<path d="M32.4796 238.577C32.4796 238.577 25.0685 226.678 38.5416 219.719" stroke="black" stroke-width="0.417847" stroke-linecap="round" stroke-linejoin="round"/>
<path d="M27.9898 233.974C27.9898 233.974 27.1638 239.282 32.365 243.066L27.9898 233.974Z" fill="white"/>
<path d="M27.9898 233.974C27.9898 233.974 27.1638 239.282 32.365 243.066" stroke="black" stroke-width="0.417847" stroke-linecap="round" stroke-linejoin="round"/>
<path d="M102.525 238.949C102.525 238.949 107.168 242.017 107.014 247.7L102.525 238.949Z" fill="white"/>
<path d="M102.525 238.949C102.525 238.949 107.168 242.017 107.014 247.7" stroke="black" stroke-width="0.417847" stroke-linecap="round" stroke-linejoin="round"/>
<path d="M151.167 246.284C151.167 246.284 146.49 235.06 158.406 230.719L151.167 246.284Z" fill="white"/>
<path d="M151.167 246.284C151.167 246.284 146.49 235.06 158.406 230.719" stroke="black" stroke-width="0.417847" stroke-linecap="round" stroke-linejoin="round"/>
<path d="M153.112 230.719C153.112 230.719 155.345 227.277 161.266 226.678L153.112 230.719Z" fill="white"/>
<path d="M153.112 230.719C153.112 230.719 155.345 227.277 161.266 226.678" stroke="black" stroke-width="0.417847" stroke-linecap="round" stroke-linejoin="round"/>
<path d="M170.831 83.5313C170.831 83.5313 171.355 85.477 171.38 85.9761C171.405 86.4753 172.6 85.9761 172.6 85.9761" fill="white"/>
<path d="M170.831 83.5313C170.831 83.5313 171.355 85.477 171.38 85.9761C171.405 86.4753 172.6 85.9761 172.6 85.9761" stroke="black" stroke-width="0.417847" stroke-linecap="round" stroke-linejoin="round"/>
<path d="M171.715 87.9091L174.84 85.9509C174.84 85.9509 175.072 88.7297 171.715 87.9091Z" fill="white" stroke="black" stroke-width="0.417847" stroke-linecap="round" stroke-linejoin="round"/>
<path d="M168.107 84.6039C168.107 84.6039 168.002 83.343 169.376 83.6272L168.107 84.6039Z" fill="white"/>
<path d="M168.107 84.6039C168.107 84.6039 168.002 83.343 169.376 83.6272" stroke="black" stroke-width="0.417847" stroke-linecap="round" stroke-linejoin="round"/>
<path d="M166.903 82.4218C166.903 82.4218 166.975 81.1645 168.49 80.744L166.903 82.4218Z" fill="white"/>
<path d="M166.903 82.4218C166.903 82.4218 166.975 81.1645 168.49 80.744" stroke="black" stroke-width="0.417847" stroke-linecap="round" stroke-linejoin="round"/>
<path d="M171.718 79.1765C171.718 79.1765 172.689 78.3729 174.027 79.2024L171.718 79.1765Z" fill="white"/>
<path d="M171.718 79.1765C171.718 79.1765 172.689 78.3729 174.027 79.2024" stroke="black" stroke-width="0.417847" stroke-linecap="round" stroke-linejoin="round"/>
<path d="M172.854 82.2262C172.854 82.2262 173.301 81.1029 174.408 81.8431L172.854 82.2262Z" fill="white"/>
<path d="M172.854 82.2262C172.854 82.2262 173.301 81.1029 174.408 81.8431" stroke="black" stroke-width="0.417847" stroke-linecap="round" stroke-linejoin="round"/>
<path d="M130.218 119.351C130.218 119.351 129.074 119.027 129.161 120.613" stroke="black" stroke-width="0.208923" stroke-miterlimit="10" stroke-linecap="round"/>
<path d="M129.4 119.577C129.4 119.577 129.4 120.167 129.743 120.597" stroke="black" stroke-width="0.208923" stroke-miterlimit="10" stroke-linecap="round"/>
</svg>
