<svg width="126" height="124" viewBox="0 0 126 124" fill="none" xmlns="http://www.w3.org/2000/svg">
<path d="M60.1198 116.983C60.1198 116.983 75.542 113.074 83.6754 116.983C91.8088 120.891 82.3553 121.155 77.2322 122.211C72.1092 123.267 67.1886 123.532 64.7371 121.893C62.2856 120.255 56.2119 118.726 60.1198 116.983Z" fill="#FEEED3"/>
<path d="M23.1493 112.03C23.1493 112.03 -1.93216 109.308 2.1963 91.2975C6.32476 73.287 8.66707 72.25 1.14921 51.1135C-6.36865 29.9771 41.0209 6.39714 64.5139 28.0807C88.0069 49.7642 100.828 35.6129 117.34 48.169C133.853 60.725 122.981 97.2195 104.656 112.03H23.1493Z" fill="#FEEED3"/>
<path d="M0.387207 117.231H56.554" stroke="black" stroke-width="0.200955" stroke-linecap="round" stroke-linejoin="round"/>
<path d="M103.299 117.231L116.715 117.231" stroke="black" stroke-width="0.200955" stroke-linecap="round" stroke-linejoin="round"/>
<path d="M85.1691 117.231L101.875 117.231" stroke="black" stroke-width="0.200955" stroke-linecap="round" stroke-linejoin="round"/>
<path d="M118.326 117.231H125.424" stroke="black" stroke-width="0.200955" stroke-linecap="round" stroke-linejoin="round"/>
<path d="M28.8167 112.249L100.31 112.249C100.513 112.249 100.678 112.085 100.678 111.881L100.678 10.4927C100.678 10.2895 100.513 10.1248 100.31 10.1248L28.8167 10.1248C28.6135 10.1248 28.4488 10.2895 28.4488 10.4927L28.4488 111.881C28.4488 112.085 28.6135 112.249 28.8167 112.249Z" fill="#FEFEFE" stroke="#0B065A" stroke-width="0.579275" stroke-miterlimit="10" stroke-linecap="round"/>
<path d="M32.8482 108.244L96.2792 108.244C96.3966 108.244 96.4918 108.149 96.4918 108.031L96.4918 14.3423C96.4918 14.2249 96.3966 14.1297 96.2792 14.1297L32.8482 14.1297C32.7308 14.1297 32.6356 14.2249 32.6356 14.3423L32.6356 108.031C32.6356 108.149 32.7308 108.244 32.8482 108.244Z" fill="#FEFEFE" stroke="#0B065A" stroke-width="0.579275" stroke-miterlimit="10" stroke-linecap="round"/>
<path d="M35.3534 105.369L93.7732 105.369C93.9184 105.369 94.0361 105.251 94.0361 105.106L94.0361 17.2683C94.0361 17.1231 93.9184 17.0054 93.7732 17.0054L35.3534 17.0054C35.2081 17.0054 35.0904 17.1231 35.0904 17.2683L35.0904 105.106C35.0904 105.251 35.2081 105.369 35.3534 105.369Z" fill="#FEFEFE" stroke="#0B065A" stroke-width="0.579275" stroke-miterlimit="10" stroke-linecap="round"/>
<path d="M63.8364 1.12354C64.8527 1.12354 65.8274 1.52727 66.5461 2.24593C67.2647 2.96459 67.6685 3.93929 67.6685 4.95563V9.86662H60.0043V4.95563C60.0043 3.93929 60.408 2.96459 61.1267 2.24593C61.8453 1.52727 62.82 1.12354 63.8364 1.12354ZM63.8364 7.15479C64.2616 7.15479 64.6772 7.0287 65.0308 6.79247C65.3843 6.55624 65.6599 6.22048 65.8226 5.82765C65.9853 5.43481 66.0279 5.00255 65.9449 4.58552C65.862 4.16849 65.6572 3.78542 65.3565 3.48476C65.0559 3.1841 64.6728 2.97934 64.2558 2.89639C63.8387 2.81344 63.4065 2.85601 63.0137 3.01873C62.6208 3.18145 62.2851 3.457 62.0488 3.81054C61.8126 4.16408 61.6865 4.57973 61.6865 5.00493C61.6865 5.57511 61.913 6.12193 62.3162 6.52511C62.7194 6.92828 63.2662 7.15479 63.8364 7.15479Z" fill="#654EF9" stroke="black" stroke-width="0.212069" stroke-miterlimit="10" stroke-linecap="round"/>
<g style="mix-blend-mode:multiply" opacity="0.5">
<path d="M61.6865 5.00484C61.6794 4.69338 61.7417 4.38425 61.8687 4.09978C61.9957 3.81531 62.1843 3.56262 62.421 3.35999C62.6576 3.15735 62.9363 3.00983 63.2369 2.92808C63.5376 2.84634 63.8526 2.83242 64.1592 2.88733C63.8364 2.76274 63.8205 2.67844 63.2871 2.67844C63.0047 2.67837 62.7251 2.73393 62.4642 2.84194C62.2033 2.94995 61.9663 3.10829 61.7666 3.30793C61.5669 3.50757 61.4085 3.74459 61.3004 4.00546C61.1924 4.26632 61.1367 4.54593 61.1367 4.82829C61.1367 5.90508 61.6865 6.48827 62.5152 6.7014C62.0555 6.30695 61.6865 5.65855 61.6865 5.00484ZM66.4978 9.37665V4.46353C66.4978 3.13068 65.9194 1.95794 64.8866 1.27136C65.6876 1.49936 66.3925 1.98217 66.8944 2.64667C67.3964 3.31117 67.6681 4.12116 67.6685 4.95394V9.86494H60.0043V9.37506L66.4978 9.37665Z" fill="#654EF9"/>
<path d="M61.6865 5.00484C61.6794 4.69338 61.7417 4.38425 61.8687 4.09978C61.9957 3.81531 62.1843 3.56262 62.421 3.35999C62.6576 3.15735 62.9363 3.00983 63.2369 2.92808C63.5376 2.84634 63.8526 2.83242 64.1592 2.88733C63.8364 2.76274 63.8205 2.67844 63.2871 2.67844C63.0047 2.67837 62.7251 2.73393 62.4642 2.84194C62.2033 2.94995 61.9663 3.10829 61.7666 3.30793C61.5669 3.50757 61.4085 3.74459 61.3004 4.00546C61.1924 4.26632 61.1367 4.54593 61.1367 4.82829C61.1367 5.90508 61.6865 6.48827 62.5152 6.7014C62.0555 6.30695 61.6865 5.65855 61.6865 5.00484ZM66.4978 9.37665V4.46353C66.4978 3.13068 65.9194 1.95794 64.8866 1.27136C65.6876 1.49936 66.3925 1.98217 66.8944 2.64667C67.3964 3.31117 67.6681 4.12116 67.6685 4.95394V9.86494H60.0043V9.37506L66.4978 9.37665Z" stroke="black" stroke-width="0.212069" stroke-miterlimit="10" stroke-linecap="round"/>
</g>
<path d="M41.3342 11.8149V15.6534H87.7986V11.8149C87.7983 11.1004 87.5143 10.4151 87.009 9.90988C86.5036 9.40464 85.8183 9.12075 85.1037 9.12061H44.027C43.6732 9.12068 43.323 9.19043 42.9962 9.32587C42.6695 9.46132 42.3726 9.65981 42.1225 9.91001C41.8725 10.1602 41.6741 10.4572 41.5389 10.7841C41.4036 11.1109 41.3341 11.4612 41.3342 11.8149Z" fill="#654EF9" stroke="black" stroke-width="0.212069" stroke-miterlimit="10" stroke-linecap="round"/>
<path opacity="0.5" d="M41.3342 14.696V15.6556H87.7986V11.8171C87.7983 11.1026 87.5143 10.4173 87.009 9.91208C86.5036 9.40684 85.8183 9.12294 85.1037 9.1228H84.7326C85.4468 9.8062 86.005 10.8501 86.005 11.9173V14.696H41.3342Z" fill="#5842E2"/>
<path d="M68.7796 26.996H77.7284C78.038 26.996 78.2882 26.7309 78.2882 26.3969C78.2882 26.0629 78.038 25.7978 77.7284 25.7978H68.7796C68.47 25.7978 68.2197 26.0661 68.2197 26.3969C68.2197 26.7277 68.47 26.996 68.7796 26.996Z" fill="#0B065A"/>
<path d="M41.8919 30.0508H48.6967C49.0058 30.0508 49.2565 29.7825 49.2565 29.4517C49.2565 29.1209 49.0058 28.8526 48.6967 28.8526H41.8919C41.5828 28.8526 41.332 29.1209 41.332 29.4517C41.332 29.7825 41.5828 30.0508 41.8919 30.0508Z" fill="#FEEED3"/>
<path d="M51.6454 30.0508H77.73C78.0396 30.0508 78.2898 29.7825 78.2898 29.4517C78.2898 29.1209 78.0396 28.8526 77.73 28.8526H51.6454C51.3363 28.8526 51.0856 29.1209 51.0856 29.4517C51.0856 29.7825 51.3363 30.0508 51.6454 30.0508Z" fill="#FEEED3"/>
<path d="M41.8919 33.1035H77.7284C78.038 33.1035 78.2883 32.8353 78.2883 32.5044C78.2883 32.1736 78.038 31.9053 77.7284 31.9053H41.8919C41.5828 31.9053 41.332 32.1736 41.332 32.5044C41.332 32.8353 41.5828 33.1035 41.8919 33.1035Z" fill="#FEEED3"/>
<path d="M41.8919 36.1563H53.2827C53.5923 36.1563 53.8431 35.888 53.8431 35.5572C53.8431 35.2263 53.5923 34.9581 53.2827 34.9581H41.8919C41.5828 34.9581 41.332 35.2232 41.332 35.5572C41.332 35.8912 41.5828 36.1563 41.8919 36.1563Z" fill="#FEEED3"/>
<path d="M56.1181 36.1563H77.7285C78.0381 36.1563 78.2883 35.888 78.2883 35.5572C78.2883 35.2263 78.0381 34.9581 77.7285 34.9581H56.1181C55.809 34.9581 55.5582 35.2232 55.5582 35.5572C55.5582 35.8912 55.8079 36.1563 56.1181 36.1563Z" fill="#FEEED3"/>
<path d="M41.8919 26.996H65.843C66.1521 26.996 66.4029 26.7309 66.4029 26.3969C66.4029 26.0629 66.1521 25.7978 65.843 25.7978H41.8919C41.5828 25.7978 41.332 26.0661 41.332 26.3969C41.332 26.7277 41.5828 26.996 41.8919 26.996Z" fill="#0B065A"/>
<path d="M68.7796 48.9451H77.7284C78.038 48.9451 78.2882 48.6769 78.2882 48.346C78.2882 48.0152 78.038 47.7469 77.7284 47.7469H68.7796C68.47 47.7469 68.2197 48.0152 68.2197 48.346C68.2197 48.6769 68.47 48.9451 68.7796 48.9451Z" fill="#0B065A"/>
<path d="M41.8919 51.9947H48.6967C49.0058 51.9947 49.2565 51.7296 49.2565 51.3956C49.2565 51.0616 49.0058 50.7965 48.6967 50.7965H41.8919C41.5828 50.7965 41.332 51.0648 41.332 51.3956C41.332 51.7264 41.5828 51.9947 41.8919 51.9947Z" fill="#FEEED3"/>
<path d="M51.6454 51.9947H77.73C78.0396 51.9947 78.2898 51.7296 78.2898 51.3956C78.2898 51.0616 78.0396 50.7965 77.73 50.7965H51.6454C51.3363 50.7965 51.0856 51.0648 51.0856 51.3956C51.0856 51.7264 51.3363 51.9947 51.6454 51.9947Z" fill="#FEEED3"/>
<path d="M41.8919 55.0474H77.7284C78.038 55.0474 78.2883 54.7792 78.2883 54.4483C78.2883 54.1175 78.038 53.8492 77.7284 53.8492H41.8919C41.5828 53.8492 41.332 54.1175 41.332 54.4483C41.332 54.7792 41.5828 55.0474 41.8919 55.0474Z" fill="#FEEED3"/>
<path d="M41.8919 58.1002H53.2827C53.5923 58.1002 53.8431 57.8319 53.8431 57.5011C53.8431 57.1702 53.5923 56.902 53.2827 56.902H41.8919C41.5828 56.902 41.332 57.1702 41.332 57.5011C41.332 57.8319 41.5828 58.1002 41.8919 58.1002Z" fill="#FEEED3"/>
<path d="M56.1181 58.1002H77.7285C78.0381 58.1002 78.2883 57.8319 78.2883 57.5011C78.2883 57.1702 78.0381 56.902 77.7285 56.902H56.1181C55.809 56.902 55.5582 57.1702 55.5582 57.5011C55.5582 57.8319 55.8079 58.1002 56.1181 58.1002Z" fill="#FEEED3"/>
<path d="M41.8919 48.9451H65.843C66.1521 48.9451 66.4029 48.6769 66.4029 48.346C66.4029 48.0152 66.1521 47.7469 65.843 47.7469H41.8919C41.5828 47.7469 41.332 48.0152 41.332 48.346C41.332 48.6769 41.5828 48.9451 41.8919 48.9451Z" fill="#0B065A"/>
<path d="M68.7796 70.1187H77.7284C78.038 70.1187 78.2882 69.8504 78.2882 69.5196C78.2882 69.1887 78.038 68.9205 77.7284 68.9205H68.7796C68.47 68.9205 68.2197 69.1887 68.2197 69.5196C68.2197 69.8504 68.47 70.1187 68.7796 70.1187Z" fill="#0B065A"/>
<path d="M41.8919 73.174H48.6967C49.0058 73.174 49.2565 72.9058 49.2565 72.5749C49.2565 72.2441 49.0058 71.9758 48.6967 71.9758H41.8919C41.5828 71.9758 41.332 72.2441 41.332 72.5749C41.332 72.9058 41.5828 73.174 41.8919 73.174Z" fill="#FEEED3"/>
<path d="M51.6454 73.174H77.73C78.0396 73.174 78.2898 72.9058 78.2898 72.5749C78.2898 72.2441 78.0396 71.9758 77.73 71.9758H51.6454C51.3363 71.9758 51.0856 72.2441 51.0856 72.5749C51.0856 72.9058 51.3363 73.174 51.6454 73.174Z" fill="#FEEED3"/>
<path d="M41.8919 76.2241H77.7284C78.038 76.2241 78.2883 75.9559 78.2883 75.625C78.2883 75.2942 78.038 75.0259 77.7284 75.0259H41.8919C41.5828 75.0259 41.332 75.2942 41.332 75.625C41.332 75.9559 41.5828 76.2241 41.8919 76.2241Z" fill="#FEEED3"/>
<path d="M41.8919 79.2769H53.2827C53.5923 79.2769 53.8431 79.0081 53.8431 78.6778C53.8431 78.3475 53.5923 78.0787 53.2827 78.0787H41.8919C41.5828 78.0787 41.332 78.3469 41.332 78.6778C41.332 79.0086 41.5828 79.2769 41.8919 79.2769Z" fill="#FEEED3"/>
<path d="M56.1181 79.2769H77.7285C78.0381 79.2769 78.2883 79.0081 78.2883 78.6778C78.2883 78.3475 78.0381 78.0787 77.7285 78.0787H56.1181C55.809 78.0787 55.5582 78.3469 55.5582 78.6778C55.5582 79.0086 55.8079 79.2769 56.1181 79.2769Z" fill="#FEEED3"/>
<path d="M41.8919 70.1187H65.843C66.1521 70.1187 66.4029 69.8504 66.4029 69.5196C66.4029 69.1887 66.1521 68.9205 65.843 68.9205H41.8919C41.5828 68.9205 41.332 69.1887 41.332 69.5196C41.332 69.8504 41.5828 70.1187 41.8919 70.1187Z" fill="#0B065A"/>
<path d="M68.7796 91.677H77.7284C78.038 91.677 78.2882 91.4088 78.2882 91.0785C78.2882 90.7482 78.038 90.4794 77.7284 90.4794H68.7796C68.47 90.4794 68.2197 90.7476 68.2197 91.0785C68.2197 91.4093 68.47 91.677 68.7796 91.677Z" fill="#0B065A"/>
<path d="M41.8919 94.7314H48.6967C49.0058 94.7314 49.2565 94.4631 49.2565 94.1323C49.2565 93.8015 49.0058 93.5332 48.6967 93.5332H41.8919C41.5828 93.5332 41.332 93.8015 41.332 94.1323C41.332 94.4631 41.5828 94.7314 41.8919 94.7314Z" fill="#FEEED3"/>
<path d="M51.6454 94.7314H77.73C78.0396 94.7314 78.2898 94.4631 78.2898 94.1323C78.2898 93.8015 78.0396 93.5332 77.73 93.5332H51.6454C51.3363 93.5332 51.0856 93.8015 51.0856 94.1323C51.0856 94.4631 51.3363 94.7314 51.6454 94.7314Z" fill="#FEEED3"/>
<path d="M41.8919 97.7841H77.7284C78.038 97.7841 78.2883 97.5159 78.2883 97.185C78.2883 96.8542 78.038 96.5859 77.7284 96.5859H41.8919C41.5828 96.5859 41.332 96.8542 41.332 97.185C41.332 97.5159 41.5828 97.7841 41.8919 97.7841Z" fill="#FEEED3"/>
<path d="M41.8919 100.837H53.2827C53.5923 100.837 53.8431 100.569 53.8431 100.238C53.8431 99.9069 53.5923 99.6387 53.2827 99.6387H41.8919C41.5828 99.6387 41.332 99.9069 41.332 100.238C41.332 100.569 41.5828 100.837 41.8919 100.837Z" fill="#FEEED3"/>
<path d="M56.1181 100.837H77.7285C78.0381 100.837 78.2883 100.569 78.2883 100.238C78.2883 99.9069 78.0381 99.6387 77.7285 99.6387H56.1181C55.809 99.6387 55.5582 99.9069 55.5582 100.238C55.5582 100.569 55.8079 100.837 56.1181 100.837Z" fill="#FEEED3"/>
<path d="M41.8919 91.677H65.843C66.1521 91.677 66.4029 91.4088 66.4029 91.0785C66.4029 90.7482 66.1521 90.4794 65.843 90.4794H41.8919C41.5828 90.4794 41.332 90.7476 41.332 91.0785C41.332 91.4093 41.5828 91.677 41.8919 91.677Z" fill="#0B065A"/>
<path d="M81.0337 34.2556H89.5891C89.6506 34.2556 89.7004 34.2058 89.7004 34.1443V25.5889C89.7004 25.5274 89.6506 25.4775 89.5891 25.4775H81.0337C80.9722 25.4775 80.9224 25.5274 80.9224 25.5889V34.1443C80.9224 34.2058 80.9722 34.2556 81.0337 34.2556Z" stroke="black" stroke-width="0.212069" stroke-miterlimit="10" stroke-linecap="round"/>
<path d="M81.0337 56.1284H89.5891C89.6506 56.1284 89.7004 56.0786 89.7004 56.0171V47.4617C89.7004 47.4002 89.6506 47.3503 89.5891 47.3503H81.0337C80.9722 47.3503 80.9224 47.4002 80.9224 47.4617V56.0171C80.9224 56.0786 80.9722 56.1284 81.0337 56.1284Z" stroke="black" stroke-width="0.212069" stroke-miterlimit="10" stroke-linecap="round"/>
<path d="M81.0337 78.0012H89.5891C89.6506 78.0012 89.7004 77.9514 89.7004 77.8899V69.3345C89.7004 69.273 89.6506 69.2231 89.5891 69.2231H81.0337C80.9722 69.2231 80.9224 69.273 80.9224 69.3345V77.8899C80.9224 77.9514 80.9722 78.0012 81.0337 78.0012Z" stroke="black" stroke-width="0.212069" stroke-miterlimit="10" stroke-linecap="round"/>
<path d="M81.0337 99.8741H89.5891C89.6506 99.8741 89.7004 99.8243 89.7004 99.7628V91.2074C89.7004 91.1459 89.6506 91.0961 89.5891 91.0961H81.0337C80.9722 91.0961 80.9224 91.1459 80.9224 91.2074V99.7628C80.9224 99.8243 80.9722 99.8741 81.0337 99.8741Z" stroke="black" stroke-width="0.212069" stroke-miterlimit="10" stroke-linecap="round"/>
<path d="M84.8451 54.6742C84.7472 54.6742 84.6504 54.6525 84.5618 54.6108C84.4732 54.5691 84.3949 54.5084 84.3324 54.4329L81.0236 50.437C80.9175 50.3003 80.8687 50.1277 80.8877 49.9556C80.9066 49.7836 80.9919 49.6257 81.1252 49.5154C81.2586 49.4051 81.4297 49.3511 81.6022 49.3648C81.7748 49.3785 81.9352 49.4588 82.0495 49.5887L84.7736 52.8785L90.6489 43.6078C90.7435 43.4587 90.8934 43.3532 91.0658 43.3145C91.2382 43.2759 91.4188 43.3073 91.568 43.4019C91.7172 43.4964 91.8227 43.6464 91.8613 43.8187C91.8999 43.9911 91.8685 44.1717 91.7739 44.3209L85.4076 54.3645C85.3515 54.4534 85.2751 54.5276 85.1846 54.5811C85.0942 54.6347 84.9924 54.666 84.8875 54.6726C84.8732 54.6736 84.8616 54.6742 84.8451 54.6742Z" fill="#F17336"/>
<path d="M84.8451 76.4611C84.7472 76.4611 84.6504 76.4395 84.5618 76.3978C84.4732 76.3561 84.3949 76.2953 84.3324 76.2198L81.0236 72.2197C80.9175 72.083 80.8687 71.9103 80.8877 71.7383C80.9066 71.5663 80.9919 71.4084 81.1252 71.2981C81.2586 71.1878 81.4297 71.1338 81.6022 71.1475C81.7748 71.1611 81.9352 71.2415 82.0495 71.3714L84.7736 74.6585L90.6489 65.3879C90.6957 65.314 90.7567 65.2501 90.8282 65.1998C90.8997 65.1494 90.9805 65.1137 91.0658 65.0945C91.1511 65.0754 91.2394 65.0733 91.3256 65.0883C91.4117 65.1033 91.4941 65.1351 91.568 65.1819C91.6419 65.2287 91.7058 65.2896 91.7561 65.3612C91.8064 65.4327 91.8422 65.5134 91.8613 65.5988C91.8804 65.6841 91.8826 65.7724 91.8676 65.8586C91.8526 65.9447 91.8208 66.0271 91.774 66.101L85.4076 76.1493C85.3515 76.2382 85.2751 76.3124 85.1846 76.3659C85.0942 76.4195 84.9924 76.4508 84.8875 76.4574C84.8732 76.4611 84.8616 76.4611 84.8451 76.4611Z" fill="#F17336"/>
<path d="M83.2625 27.963L84.3567 22.5166C84.3567 22.5166 85.5979 21.8804 85.4658 22.6046C85.4309 22.7981 84.6536 27.5882 84.6536 27.5882C84.6536 27.5882 84.8387 28.1412 84.3069 28.4004C83.7751 28.6597 83.4708 28.6925 83.2625 27.963Z" fill="#0B065A"/>
<path d="M85.8882 27.1815C85.6232 27.1115 84.6206 27.0224 84.6206 27.1815C84.6206 27.3405 84.7616 28.0266 84.4801 28.2731C84.1986 28.5196 83.6525 28.7661 83.459 28.3436C83.2655 27.921 83.2824 27.798 82.8954 28.1315C82.5084 28.465 82.6489 29.5397 82.9834 29.9797C83.318 30.4198 83.371 31.3529 83.1425 31.9869C82.914 32.621 81.0292 38.2356 80.8357 39.1369C80.6422 40.0382 76.5413 44.2599 76.0822 44.4715C75.623 44.683 73.0893 45.7216 72.3322 45.281C71.5751 44.8405 67.7065 46.3774 67.7065 46.3774C67.7065 46.3774 64.6962 47.5258 63.8643 48.3576C63.0325 49.1895 62.6364 50.1008 62.2006 54.7351C61.7648 59.3693 60.6955 59.013 60.5767 61.8256C60.4579 64.6382 61.0125 71.8867 60.5767 72.4413C60.1409 72.9958 60.0614 76.0067 61.0539 76.0857C62.0463 76.1647 75.2747 58.3397 76.0668 56.0027C76.8589 53.6657 76.3043 50.7344 77.3344 48.5162C78.3646 46.2979 83.0386 42.1011 83.5136 41.0693C83.9886 40.0376 84.5437 32.9094 84.9795 32.2361C85.4153 31.5628 86.6034 30.3742 86.6034 29.5821C86.6034 28.79 86.1523 27.252 85.8882 27.1815ZM63.1242 67.3299C62.8999 64.52 64.3436 57.1394 64.3436 57.1394C64.3436 57.1394 66.0036 57.0334 66.9945 57.8631C67.9853 58.6928 63.3495 70.1424 63.1242 67.3299Z" fill="white" stroke="black" stroke-width="0.212069" stroke-miterlimit="10" stroke-linecap="round"/>
<path d="M63.6614 55.8257C62.495 61.3395 61.5895 65.7193 62.9908 69.4162V67.5415C62.9908 67.5415 62.9287 65.6525 63.2998 62.7895C63.2998 62.7895 64.4795 55.4838 65.1146 53.2056C65.9332 50.2706 64.5675 47.9749 64.5675 47.9749C64.5675 47.9749 64.9047 50.5367 64.6852 52.5535C64.5123 54.1557 63.7918 55.2086 63.6614 55.8257Z" fill="#E3E3E3"/>
<path d="M73.5472 45.4115C73.5472 45.4115 75.1143 54.047 71.3289 55.1561C67.5435 56.2652 66.9285 52.7968 66.9285 52.7968C66.9285 52.7968 67.0515 58.3954 73.1956 56.3707C73.1956 56.3707 76.0416 52.7422 75.2734 50.209C74.5052 47.6759 74.6218 45.0663 74.6218 45.0663C74.6218 45.0663 74.6038 45.1565 73.5472 45.4115Z" fill="#E3E3E3"/>
<path d="M63.5486 84.6008C63.5486 84.6008 63.0714 86.7396 62.994 89.0766C62.9166 91.4136 65.173 99.5342 65.252 101.158C65.331 102.782 65.252 105.24 65.252 105.24L69.0942 104.567C69.0942 104.567 67.3128 102.505 67.3504 98.6223C67.3881 94.7399 67.8652 84.2833 67.8652 84.2833L63.5486 84.6008Z" fill="white" stroke="black" stroke-width="0.212069" stroke-miterlimit="10" stroke-linecap="round"/>
<path d="M70.242 85.9475C70.242 85.9475 68.6971 89.5124 69.5687 100.326C69.5687 100.326 69.8963 104.684 69.7723 105.713C69.6482 106.743 72.8563 104.248 72.8563 104.248C72.8563 104.248 71.7074 102.703 72.6585 98.8212C73.6097 94.9393 75.5501 84.6788 75.5501 84.6788L70.242 85.9475Z" fill="white" stroke="black" stroke-width="0.212069" stroke-miterlimit="10" stroke-linecap="round"/>
<path d="M69.3312 34.5318C69.3312 34.5318 70.6248 35.115 71.4699 36.8031C71.6003 37.0288 71.8072 37.2005 72.0531 37.2871C72.4772 37.4462 73.6372 37.6391 73.6372 37.7977C73.6372 37.9562 73.0742 38.5367 73.0742 38.5367C73.0742 38.5367 73.6574 40.2799 73.3393 40.7375C73.0211 41.195 70.8787 43.2065 70.8395 43.365C70.8003 43.5235 65.6899 40.711 67.0101 38.3082C68.3302 35.9055 69.3312 34.5318 69.3312 34.5318Z" fill="white" stroke="black" stroke-width="0.212069" stroke-miterlimit="10" stroke-linecap="round"/>
<path d="M70.1846 36.1149C70.1846 36.1149 69.8194 38.4668 69.4891 39.2589C69.1588 40.0509 70.1253 41.9787 71.5493 42.4145L70.5468 43.5103C70.5468 43.5103 66.8886 40.9756 68.0247 38.5325C69.1609 36.0895 70.1846 36.1149 70.1846 36.1149Z" fill="#E3E3E3"/>
<path d="M63.2657 86.8451C63.2657 86.8451 65.607 88.0953 67.5967 87.3557L67.7558 85.789L63.5144 85.2435L63.2657 86.8451Z" fill="#E3E3E3"/>
<path d="M70.2816 86.1326C70.2816 86.1326 69.9911 87.1325 69.9105 87.59C69.9105 87.59 71.0461 89.0374 74.8358 87.73L75.1539 86.1326H70.2816Z" fill="#E3E3E3"/>
<path d="M70.0791 34.2943C70.0791 34.2943 70.6952 34.4004 70.5367 35.0159C70.3782 35.6314 69.2871 38.7833 68.7235 39.5934C68.1599 40.4035 70.0436 43.2728 72.6844 44.4874C72.6844 44.4874 70.4529 48.3959 66.7889 46.8642C63.1249 45.3325 61.9113 49.558 61.8053 44.4349C61.6992 39.3119 63.5649 31.8645 70.0791 34.2943Z" fill="#3F3D56"/>
<path d="M64.6349 47.8005C64.6349 47.8005 65.0924 49.1354 65.2377 50.4688C65.3829 51.8022 65.3172 54.2861 64.0755 55.8957C64.0755 55.8957 64.9026 59.3551 64.7006 60.5697C64.7006 60.5697 58.6217 86.4789 57.196 97.8076C57.196 97.8076 60.8987 98.1247 62.2719 99.2338C63.645 100.343 72.36 100.712 75.0003 100.079C77.6405 99.4454 81.9196 97.8076 81.9196 97.8076C81.9196 97.8076 79.8673 67.1454 76.1179 60.7017C76.1179 60.7017 76.595 55.6841 76.7779 54.1806C76.9608 52.677 76.884 51.9623 76.884 51.9623C76.884 51.9623 75.8279 52.1744 75.6428 49.9026C75.4578 47.6308 75.3926 44.7557 75.3926 44.7557C75.3926 44.7557 75.4843 44.6263 75.0003 44.7557C74.5162 44.885 74.205 44.9206 74.2432 45.0261C74.2432 45.2817 73.3085 46.1002 72.1426 46.9765C71.0462 47.8005 70.204 48.2094 68.6789 48.1657C67.1539 48.122 65.6151 47.283 65.6151 47.283C65.6151 47.283 65.5749 47.1494 65.4757 47.1696C65.3766 47.1897 64.435 47.5545 64.6349 47.8005Z" fill="#654EF9" stroke="black" stroke-width="0.212069" stroke-miterlimit="10" stroke-linecap="round"/>
<path d="M66.0471 50.0192C66.0471 50.0192 66.554 53.3062 66.1818 55.604C65.8096 57.9018 66.4877 59.9233 68.4265 60.3978C70.3654 60.8723 72.9101 60.8914 75.9745 60.3273C75.9745 60.3273 74.5686 61.3877 68.4265 61.6649C62.2845 61.9422 67.0129 100.295 69.0371 100.193C67.5271 100.143 66.0211 100.01 64.5259 99.7929C62.0834 99.4366 62.4391 98.9891 61.7796 98.7765C61.7796 98.7765 59.1841 97.7901 57.3459 97.6713C57.3459 97.6713 60.7118 79.0816 60.9408 78.068C60.9408 78.068 62.4509 71.7435 63.2785 68.8944C63.2785 68.8944 64.8107 62.3202 65.1755 61.1167L65.4597 60.0341C65.4597 60.0341 65.6055 58.0794 64.8717 55.3002C64.8717 55.3002 66.3509 53.4255 66.0471 50.0192Z" fill="#5842E2"/>
<path d="M64.7007 60.7999C64.7007 60.7999 67.5636 61.46 70.5193 61.566" stroke="white" stroke-width="0.212069" stroke-miterlimit="10" stroke-linecap="round"/>
<path d="M71.8132 61.566C71.8132 61.566 73.9785 61.698 76.1177 60.9298" stroke="white" stroke-width="0.212069" stroke-miterlimit="10" stroke-linecap="round"/>
<path d="M62.2798 106.069C62.2798 106.069 61.8313 105.99 61.6198 108.393C61.4082 110.796 61.6198 117.424 61.6198 117.424L63.319 118.366V116.158L70.4111 119.313C70.4031 120.125 70.3957 120.672 70.3957 120.672L72.5223 121.817V107.961L62.2798 106.069ZM63.319 114.57V110.479C63.319 110.479 63.2129 109.088 64.2166 109.353C65.2202 109.617 69.1286 111.095 69.1286 111.095C69.1286 111.095 70.3077 111.606 70.3957 112.644C70.4456 113.231 70.4392 115.716 70.4244 117.768L63.319 114.57Z" fill="#E05918" stroke="black" stroke-width="0.212069" stroke-miterlimit="10"/>
<path d="M79.2071 106.914C78.3885 106.967 72.5438 108.049 72.5438 108.049L72.5221 121.817L74.0596 120.752V119.222L78.4272 117.026C78.4219 117.943 78.4171 118.586 78.4171 118.586L79.9753 117.583V108.243C79.9753 108.243 80.0256 106.861 79.2071 106.914ZM74.0575 117.661V112.961C74.0575 112.961 74.0315 111.483 74.7181 111.271C75.4046 111.06 77.5434 110.426 77.5434 110.426C77.5434 110.426 78.3619 110.161 78.415 110.797C78.4457 111.168 78.4404 113.75 78.4309 115.842L74.0575 117.661Z" fill="#F17336" stroke="black" stroke-width="0.212069" stroke-miterlimit="10" stroke-linecap="round"/>
<path d="M65.4491 104.519C65.4491 104.519 62.2007 105.62 62.2797 106.069C62.3587 106.518 70.7832 109.977 72.6319 109.37C74.4806 108.763 79.7362 107.593 79.7617 107.174C79.7871 106.755 76.8834 105.515 76.6723 105.488C76.4613 105.462 65.4491 104.519 65.4491 104.519Z" fill="#F17336" stroke="black" stroke-width="0.212069" stroke-miterlimit="10" stroke-linecap="round"/>
<path d="M65.2106 102.585C65.2106 102.585 65.2154 104.081 67.8031 102.585C67.8031 102.585 68.0852 102.286 68.2612 102.674C68.4372 103.061 71.025 103.994 72.1697 103.871C73.3143 103.748 73.3313 105.438 72.8207 105.931C72.3101 106.424 65.0219 106.652 64.8633 106.196C64.7048 105.739 64.6953 101.845 65.2106 102.585Z" fill="#0B065A" stroke="black" stroke-width="0.203149" stroke-miterlimit="10" stroke-linecap="round"/>
<path d="M69.7399 103.076C69.7399 103.076 69.7447 104.572 72.3324 103.076C72.3324 103.076 72.614 102.777 72.7905 103.165C72.9671 103.552 75.5543 104.485 76.6984 104.362C77.8425 104.239 77.8606 105.929 77.35 106.422C76.8395 106.915 69.5512 107.143 69.3926 106.687C69.2341 106.23 69.2246 102.336 69.7399 103.076Z" fill="#0B065A" stroke="black" stroke-width="0.203149" stroke-miterlimit="10" stroke-linecap="round"/>
<path d="M66.7888 34.3998C66.7888 34.3998 68.6179 33.7636 70.0435 35.0864" stroke="white" stroke-width="0.106035" stroke-miterlimit="10" stroke-linecap="round"/>
<path d="M67.2427 34.7715C67.2427 34.7715 68.97 34.9104 69.401 36.4887" stroke="white" stroke-width="0.106035" stroke-miterlimit="10" stroke-linecap="round"/>
<path d="M68.1425 39.7869C68.1425 39.7869 68.2294 42.8715 71.8394 44.6969" stroke="white" stroke-width="0.106035" stroke-miterlimit="10" stroke-linecap="round"/>
<path d="M68.9084 43.3714C68.9084 43.3714 69.674 44.8559 71.1002 45.4115" stroke="white" stroke-width="0.106035" stroke-miterlimit="10" stroke-linecap="round"/>
<path d="M65.2641 40.5201C65.2641 40.5201 64.7095 43.9859 65.9772 46.2306" stroke="white" stroke-width="0.106035" stroke-miterlimit="10" stroke-linecap="round"/>
<path d="M63.9833 42.4807C63.9833 42.4807 63.6795 44.778 64.1423 46.0329" stroke="white" stroke-width="0.106035" stroke-miterlimit="10" stroke-linecap="round"/>
<path d="M71.1451 37.6223C71.2356 37.57 71.2519 37.4288 71.1815 37.3068C71.1111 37.1848 70.9806 37.1283 70.8901 37.1806C70.7996 37.2328 70.7833 37.3741 70.8537 37.4961C70.9241 37.618 71.0546 37.6745 71.1451 37.6223Z" fill="black"/>
<path d="M70.1251 37.2648C70.1251 37.2648 70.1251 36.3047 70.791 36.2145" stroke="black" stroke-width="0.159052" stroke-miterlimit="10" stroke-linecap="round"/>
<path d="M72.8441 39.3734C72.8441 39.3734 72.615 39.7148 71.964 39.8123" stroke="black" stroke-width="0.159052" stroke-miterlimit="10" stroke-linecap="round"/>
</svg>
