<svg width="135" height="109" viewBox="0 0 135 109" fill="none" xmlns="http://www.w3.org/2000/svg">
<path opacity="0.8" d="M22.9393 108.521C22.9393 108.521 -0.649584 105.62 3.23288 86.428C7.11534 67.2363 9.31909 66.1306 2.2488 43.6075C-4.82148 21.0843 39.749 -4.04199 61.8443 19.0635C83.9397 42.169 95.9975 27.0895 111.529 40.4694C127.061 53.8494 116.832 92.7377 99.5969 108.521L22.9393 108.521Z" fill="#FFF2D1"/>
<path d="M128.562 8.37549H134.857V14.6705H128.562V8.37549Z" fill="#EDEDED"/>
<path d="M127.213 6.8017H133.508V13.0967H127.213V6.8017Z" fill="#F17336" fill-opacity="0.6"/>
<path d="M121.143 10.8485H131.485V0.506714H121.143V10.8485ZM131.035 10.3989H121.593V0.956356H131.035V10.3989Z" fill="#222B45"/>
<path d="M88.2226 8.09253V75.5485H9.06171C8.92373 74.7293 8.82474 73.892 8.75235 73.0365C7.89478 62.5574 11.4748 49.2902 4.41378 31.658C0.912364 22.9155 0.439033 16.0013 1.9704 10.6045C2.21076 9.75343 2.51261 8.91464 2.87437 8.09253H88.2226Z" fill="#F17336" stroke="#0B065A" stroke-width="0.4" stroke-miterlimit="10" stroke-linecap="round"/>
<path d="M86.7612 9.50671V74.5067H10.3661C9.50901 63.5967 13.0869 49.784 6.03004 31.4269C2.53066 22.3249 2.05761 15.1264 3.58808 9.50776L86.7612 9.50671Z" fill="#FEFEFE" stroke="#0B065A" stroke-width="0.4" stroke-miterlimit="10" stroke-linecap="round"/>
<path d="M54.4129 35.5054C58.7615 35.5054 62.2868 31.9801 62.2868 27.6314C62.2868 23.2828 58.7615 19.7575 54.4129 19.7575C50.0642 19.7575 46.5389 23.2828 46.5389 27.6314C46.5389 31.9801 50.0642 35.5054 54.4129 35.5054Z" stroke="black" stroke-width="0.200955" stroke-miterlimit="10"/>
<path d="M60.5505 22.6994L54.4128 27.6313" stroke="black" stroke-width="0.200955" stroke-miterlimit="10"/>
<path d="M54.2265 29.622C54.5972 29.622 54.8977 29.3215 54.8977 28.9508C54.8977 28.5801 54.5972 28.2796 54.2265 28.2796C53.8558 28.2796 53.5553 28.5801 53.5553 28.9508C53.5553 29.3215 53.8558 29.622 54.2265 29.622Z" stroke="black" stroke-width="0.200955" stroke-miterlimit="10"/>
<path d="M32.7975 30.9046V47.9642H48.7835L32.7975 30.9046Z" stroke="black" stroke-width="0.200955" stroke-miterlimit="10"/>
<path d="M30.5524 38.3289H30.2088L29.4552 40.5394H29.7486L29.9782 39.8436H30.7624L30.999 40.5394H31.306L30.5524 38.3289ZM30.041 39.6215L30.2575 38.9815C30.3002 38.8468 30.3359 38.7127 30.369 38.5795H30.3756C30.4082 38.7077 30.4414 38.8393 30.4901 38.9815L30.7066 39.618L30.041 39.6215Z" fill="black"/>
<path d="M39.9363 49.8732V49.8672C40.1594 49.7858 40.2945 49.607 40.2945 49.403C40.2977 49.3311 40.2833 49.2596 40.2526 49.1945C40.2219 49.1295 40.1758 49.0729 40.1182 49.0297C39.9871 48.9222 39.8107 48.8755 39.5379 48.8755C39.3705 48.8744 39.2033 48.8892 39.0386 48.9197V51.0001C39.1792 51.0181 39.3208 51.0266 39.4626 51.0257C39.8082 51.0257 40.0459 50.9624 40.1936 50.8278C40.2512 50.7734 40.2969 50.7076 40.3277 50.6346C40.3585 50.5616 40.3737 50.483 40.3724 50.4037C40.3724 50.0913 40.1373 49.924 39.9363 49.8732ZM39.3119 49.1051C39.3915 49.09 39.4725 49.0835 39.5535 49.0855C39.8293 49.0855 40.0182 49.1829 40.0182 49.4306C40.0182 49.6351 39.8484 49.7858 39.5596 49.7858H39.3119V49.1051ZM39.541 50.8132C39.4644 50.8152 39.3877 50.8109 39.3119 50.8001V49.9963H39.5379C39.8359 49.9963 40.0835 50.1154 40.0835 50.4042C40.0835 50.7082 39.8238 50.8122 39.541 50.8122V50.8132Z" fill="black"/>
<path d="M43.5938 39.7329C43.0794 39.7329 42.781 39.3999 42.781 38.8819C42.781 38.3268 43.1105 38.0097 43.6064 38.0097C43.7535 38.0069 43.8994 38.0369 44.0334 38.0977L44.0992 37.8746C44.0269 37.8369 43.8606 37.7802 43.5968 37.7802C42.9407 37.7802 42.4916 38.2323 42.4916 38.8919C42.4916 39.5852 42.9402 39.965 43.5365 39.965C43.728 39.9708 43.9185 39.9355 44.0952 39.8615L44.0389 39.645C43.8983 39.7051 43.7467 39.735 43.5938 39.7329Z" fill="black"/>
<path d="M74.5406 43.9706H56.3406V62.1706H74.5406V43.9706Z" stroke="black" stroke-width="0.200955" stroke-miterlimit="10"/>
<path d="M103.792 48.5494C103.792 48.5494 111.159 49.6014 113.366 48.9563L114.529 51.413C114.529 51.413 110.89 56.155 107.847 54.9619C104.804 53.7687 99.7654 52.4866 103.792 48.5494Z" fill="#E05918" stroke="black" stroke-width="0.200955" stroke-miterlimit="10"/>
<path d="M94.1959 86.1225C94.1959 86.1225 91.6634 93.4096 94.5265 107.816H117.854C117.854 107.816 119.898 98.965 118.526 88.0788C117.185 77.4422 98.9379 73.4171 94.1959 86.1225Z" fill="#F17336" stroke="black" stroke-width="0.200955" stroke-linecap="round" stroke-linejoin="round"/>
<path d="M94.0686 87.0795C94.0686 87.0795 98.8066 88.3772 102.194 89.0333C105.581 89.6894 109.757 89.2719 112.113 91.0615C114.469 92.851 114.29 107.765 114.29 107.765L117.72 107.816C117.72 107.816 120.016 98.0406 118.018 85.7527L102.813 78.8198L94.3821 85.8436L94.0686 87.0795Z" fill="#E05918"/>
<path d="M80.1852 60.6696C80.1852 60.6696 80.0958 59.4638 79.41 59.3875C78.7242 59.3111 77.5758 58.0154 77.203 57.3593C76.9794 57.3 76.7472 57.2798 76.5167 57.2995C76.1148 57.3292 74.6077 56.6881 74.5785 56.1662C74.5494 55.6442 75.9802 55.823 76.368 55.8381L74.578 53.4221C74.578 53.4221 72.8634 53.4372 72.4308 52.7961C72.4308 52.7961 72.0877 52.5449 72.6544 52.4379C73.2211 52.3309 74.7142 51.931 75.0854 51.7225C75.4567 51.514 77.6501 53.2734 78.3062 53.4221C78.9624 53.5708 79.5738 53.7652 80.1852 54.869C80.7966 55.9727 82.3927 59.5959 82.3927 59.5959C82.3927 59.5959 81.6451 61.3407 80.1852 60.6696Z" fill="white" stroke="black" stroke-width="0.200955" stroke-miterlimit="10" stroke-linecap="round"/>
<path d="M106.437 45.5386C106.437 45.5386 106.637 48.9387 105.263 49.734C103.889 50.5293 103.036 51.0664 103.036 51.0664C103.036 51.0664 107.57 53.8295 110.731 52.0209C113.893 50.2123 113.892 50.0113 113.892 50.0113C113.892 50.0113 111.487 49.6336 111.367 48.5203C111.248 47.407 111.468 44.1058 111.468 44.1058L106.437 45.5386Z" fill="white" stroke="black" stroke-width="0.200955" stroke-miterlimit="10" stroke-linecap="round"/>
<path d="M106.536 47.0102C106.536 47.0102 109.31 47.2041 110.234 47.0102C111.159 46.8162 110.249 51.2453 108.713 51.1855C107.177 51.1257 105.686 49.5899 105.686 49.5899L105 50.0672C105 50.0672 104.688 53.3478 108.192 52.2591C111.696 51.1704 112.531 49.8135 112.531 49.8135C112.531 49.8135 111.325 49.2543 111.234 48.5495C111.142 47.8446 111.278 44.6987 111.278 44.6987L106.564 46.1727L106.536 47.0102Z" fill="#E3E3E3"/>
<path d="M114.529 50.2756C114.529 50.2756 120.574 53.0302 121.559 54.1043C122.543 55.1785 122.723 58.9398 122.642 62.7278C122.562 66.4224 123.76 80.429 118.526 80.2948C118.526 80.2948 118.048 82.2331 119.356 87.8106C119.356 87.8106 111.099 89.3615 103.494 87.9226L103.248 79.7322L101.519 87.5348C101.519 87.5348 96.0935 85.6649 92.7556 86.313C92.7556 86.313 95.8574 80.2366 95.7383 73.9135C95.6193 67.5905 95.7383 68.7836 95.7383 68.7836C95.7383 68.7836 93.9192 76.4486 88.6401 76.3591C83.361 76.2697 80.5125 62.1325 80.5125 62.1325C80.5125 62.1325 82.4215 60.7906 83.5398 60.5671C83.5398 60.5671 87.253 65.2644 88.8189 68.5304C88.8189 68.5304 94.7637 54.2093 95.8428 52.6364C96.6627 51.4407 102.294 50.2751 102.294 50.2751L105.998 62.0411C105.998 62.0411 110.875 59.5065 114.529 50.2756Z" fill="#F17336" stroke="black" stroke-width="0.200955" stroke-linecap="round" stroke-linejoin="round"/>
<path d="M111.099 59.2679C111.099 59.2679 107.967 64.9952 110.428 67.9025C112.889 70.8098 117.763 72.8123 117.763 72.8123L117.584 59.8783L111.099 59.2679Z" fill="#E05918"/>
<path d="M95.1877 61.102C95.1877 61.102 94.6657 61.425 94.4467 62.3796C94.2276 63.3341 92.9058 73.633 89.8041 74.3891C86.7024 75.1452 84.0081 72.053 84.0081 72.053C84.0081 72.053 85.9674 76.3279 88.8199 76.2384C90.9496 76.1716 92.2201 75.0448 93.4921 73.6336C94.7642 72.2224 95.5997 68.6715 95.5997 68.6715L95.1877 61.102Z" fill="#E05918"/>
<path d="M101.215 70.1838L102.188 72.54C102.188 72.54 105.417 69.4383 106.871 70.7505C108.325 72.0627 111.208 80.9279 118.361 82.3707C118.361 82.3707 118.307 81.4479 118.347 80.4139C118.347 80.4139 112.511 76.4451 110.962 73.0474C110.962 73.0474 110.872 72.8465 111.797 72.8183C112.721 72.7902 107.631 65.9788 107.631 65.9788C107.631 65.9788 100.816 67.4995 101.215 70.1838Z" fill="#E05918"/>
<path d="M105.263 49.7341C105.263 49.7341 106.655 52.4379 109.31 51.4839C111.265 50.7806 111.953 49.9371 112.179 49.5417C112.213 49.4824 112.268 49.4377 112.333 49.4161C112.398 49.3945 112.468 49.3975 112.531 49.4246L114.088 50.2757C114.088 50.2757 112.565 57.4784 108.998 58.224C105.432 58.9695 102.329 55.1835 102.295 54.019C102.261 52.8544 103.612 50.4098 103.612 50.4098C103.612 50.4098 104.947 49.4116 105.263 49.7341Z" fill="white" stroke="black" stroke-width="0.200955" stroke-miterlimit="10" stroke-linecap="round"/>
<path d="M113.366 48.9563C113.366 48.9563 112.978 53.11 111.964 55.1543C110.949 57.1985 114.559 57.0794 114.529 56.99C114.499 56.9006 116.199 50.8161 116.199 50.8161C116.199 50.8161 115.245 50.4067 113.366 48.9563Z" fill="#F17336" stroke="black" stroke-width="0.200955" stroke-linecap="round" stroke-linejoin="round"/>
<path d="M103.792 48.5494C103.792 48.5494 104.925 53.6793 104.627 56.5429L101.613 57.0302C101.613 57.0302 101.984 53.7692 100.536 50.7272C100.538 50.7272 101.764 50.0706 103.792 48.5494Z" fill="#F17336" stroke="black" stroke-width="0.200955" stroke-linecap="round" stroke-linejoin="round"/>
<path d="M106.907 57.3874C106.907 57.3874 104.388 52.1123 97.7076 56.8222L97.469 59.7752C97.469 59.7752 105.699 60.6363 106.907 57.3874Z" fill="white" stroke="black" stroke-width="0.200955" stroke-miterlimit="10" stroke-linecap="round"/>
<path d="M104.209 66.2179C104.209 66.2179 104.868 70.3661 103.249 79.7321" stroke="black" stroke-width="0.200955" stroke-linecap="round" stroke-linejoin="round"/>
<path d="M106.907 57.3874C106.907 57.3874 105.977 54.2364 113.549 51.9355L116.199 53.8611C116.199 53.8611 112.165 58.8755 106.907 57.3874Z" fill="white" stroke="black" stroke-width="0.200955" stroke-miterlimit="10" stroke-linecap="round"/>
<path d="M118.525 80.2948C118.525 80.2948 115.394 80.7866 111.099 73.0473C111.099 73.0473 114.454 72.868 115.394 69.9154L117.765 71.8391C117.765 71.8391 117.617 66.6509 117.899 63.8561" fill="#F17336"/>
<path d="M118.525 80.2948C118.525 80.2948 115.394 80.7866 111.099 73.0473C111.099 73.0473 114.454 72.868 115.394 69.9154L117.765 71.8391C117.765 71.8391 117.617 66.6509 117.899 63.8561" stroke="black" stroke-width="0.200955" stroke-linecap="round" stroke-linejoin="round"/>
<path d="M105.991 57.6195C105.991 57.6195 102.187 54.1083 97.1761 59.7753L100.219 71.2187C100.219 71.2187 103.261 67.1996 108.45 67.7683L105.991 57.6195Z" fill="white" stroke="black" stroke-width="0.200955" stroke-miterlimit="10"/>
<path d="M107.899 57.1373C107.899 57.1373 111.75 51.7944 116.134 53.8612L119.356 65.5614C119.356 65.5614 114.752 65.8 110.587 68.3049L107.899 57.1373Z" fill="white" stroke="black" stroke-width="0.200955" stroke-miterlimit="10"/>
<path d="M107.968 57.1243L105.93 57.6069L108.199 67.1912L110.237 66.7087L107.968 57.1243Z" fill="white" stroke="black" stroke-width="0.200955" stroke-miterlimit="10"/>
<path d="M117.767 71.8391C117.767 71.8391 119.915 72.9127 120.585 75.5065L117.767 71.8391Z" fill="#FCAA23"/>
<path d="M117.767 71.8391C117.767 71.8391 119.915 72.9127 120.585 75.5065" stroke="black" stroke-width="0.200955" stroke-linecap="round" stroke-linejoin="round"/>
<path d="M115.264 70.2691L114.589 69.4382C114.29 70.7806 110.801 72.0787 110.801 72.0787L111.494 72.9986C111.494 72.9986 114.344 72.6213 115.264 70.2691Z" fill="white" stroke="black" stroke-width="0.200955" stroke-miterlimit="10" stroke-linecap="round"/>
<path d="M111.387 71.8391C111.387 71.8391 105.939 68.0661 104.866 64.4575C104.866 64.4575 104.715 63.7617 105.343 63.8546C105.343 63.8546 104.597 62.3977 105.494 62.3977C105.494 62.3977 106.03 62.2927 107.611 64.7308C107.611 64.7308 109.281 66.8714 110.117 66.0661C110.952 65.2608 110.87 61.7812 111.409 61.7812C111.947 61.7812 112.105 62.3997 112.006 64.2068C111.864 66.777 111.917 67.1382 112.711 67.0202C113.515 66.9006 114.814 66.4464 114.814 66.4464L114.192 70.1139C114.192 70.1139 113.135 71.3171 111.387 71.8391Z" fill="white" stroke="black" stroke-width="0.200955" stroke-miterlimit="10" stroke-linecap="round"/>
<path d="M88.8199 68.5287C88.8199 68.5287 89.8935 70.5418 90.2965 71.839L88.8199 68.5287Z" fill="#FCAA23"/>
<path d="M88.8199 68.5287C88.8199 68.5287 89.8935 70.5418 90.2965 71.839" stroke="black" stroke-width="0.200955" stroke-linecap="round" stroke-linejoin="round"/>
<path d="M95.7392 68.7801C95.7392 68.7801 95.5749 67.0504 95.3066 64.8112C95.0383 62.5721 95.3066 61.0981 95.3066 61.0981" stroke="black" stroke-width="0.200955" stroke-linecap="round" stroke-linejoin="round"/>
<path d="M80.7671 62.2491L79.902 60.5043C79.902 60.5043 81.9301 59.9376 82.4672 59.0875L83.69 61.1755L80.7671 62.2491Z" fill="white" stroke="black" stroke-width="0.200955" stroke-miterlimit="10" stroke-linecap="round"/>
<path d="M76.3701 55.838C76.3701 55.838 77.5758 55.7637 78.0104 56.1811C78.445 56.5986 79.1157 56.7926 79.1157 56.7926" fill="white"/>
<path d="M76.3701 55.838C76.3701 55.838 77.5758 55.7637 78.0104 56.1811C78.445 56.5986 79.1157 56.7926 79.1157 56.7926" stroke="black" stroke-width="0.200955" stroke-miterlimit="10" stroke-linecap="round"/>
<path d="M58.2615 32.2564L75.9898 55.7009C75.9898 55.7009 76.8238 55.6612 77.1955 55.7511L58.7237 31.7696C58.6895 31.7234 58.6459 31.685 58.5957 31.6569C58.5456 31.6287 58.4901 31.6115 58.4329 31.6063C58.3168 31.5983 58.1897 31.6395 58.1535 31.842C58.1422 31.9148 58.1459 31.9891 58.1645 32.0604C58.183 32.1317 58.2161 32.1984 58.2615 32.2564Z" fill="#FEEED3" stroke="black" stroke-width="0.200955" stroke-miterlimit="10"/>
<path d="M105.343 63.8566C105.343 63.8566 106.775 66.2575 107.629 66.9332L105.343 63.8566Z" fill="white"/>
<path d="M105.343 63.8566C105.343 63.8566 106.775 66.2575 107.629 66.9332" stroke="black" stroke-width="0.200955" stroke-miterlimit="10" stroke-linecap="round"/>
<path d="M104.21 31.4411C104.21 31.4411 102.509 33.6782 102.554 36.1836C102.599 38.689 101.255 38.6453 102.554 41.7757C103.853 44.9061 105.239 47.4125 108.818 46.1153C112.397 44.8182 113.515 43.6536 114.276 40.881C114.276 40.881 115.529 40.7915 115.931 39.5833C116.334 38.375 115.127 37.2125 114.455 37.7938C113.782 38.375 112.8 32.157 110.697 31.0834C108.594 30.0098 105.107 29.1597 104.21 31.4411Z" fill="white" stroke="black" stroke-width="0.200955" stroke-miterlimit="10" stroke-linecap="round"/>
<path d="M102.713 35.4475C102.713 35.4475 104.239 32.9919 105.462 32.4835C106.685 31.975 106.869 31.2009 106.869 31.2009C106.869 31.2009 109.073 35.0436 112.528 36.9281C112.528 36.9281 112.976 36.9577 112.856 37.8826C112.737 38.8075 113.208 39.7053 113.115 40.5669C112.896 42.5945 112.737 42.7437 110.987 45.0206C110.987 45.0206 112.459 44.4438 113.676 42.5378C114.267 41.6124 116.489 40.7849 116.416 39.9901C116.017 35.5691 109.479 30.083 108.189 30.171C106.205 30.3066 103.082 32.7623 102.779 35.0075L102.713 35.4475Z" fill="#E3E3E3"/>
<path d="M118.018 38.7483C117.123 36.4222 115.781 37.8837 115.781 37.8837C115.781 37.8837 116.572 37.0392 116.562 35.4968C116.558 34.9176 116.442 34.2409 116.128 33.4712C113.527 23.2255 107.788 28.3971 107.788 28.3971C109.876 27.2039 111.301 27.4129 111.301 27.4129C113.777 27.8872 115.192 30.802 115.917 32.9964C114.541 30.0283 112.191 26.0062 107.788 28.3971C107.788 28.3971 107.132 27.0552 105.82 27.9198C104.902 28.547 104.068 29.2888 103.339 30.1273C103.339 30.1273 98.5718 35.2969 102.553 36.1821L102.547 35.7149C102.547 35.7149 100.214 35.5642 102.114 32.0389C101.671 33.1246 101.668 34.2775 102.603 35.3215C102.603 35.3215 103.821 33.0206 105.193 32.1565C106.565 31.2923 106.982 30.6804 106.982 30.6804C106.982 30.6804 110.034 35.5963 113.017 36.4313C113.017 36.4313 113.295 36.7498 113.196 37.3662C113.096 37.9826 112.995 39.951 113.673 39.1748C114.351 38.3986 114.164 38.0083 114.545 37.7264C114.926 37.4446 115.712 37.9515 115.985 38.8116C115.985 38.8116 116.009 40.5765 114.274 40.8799C114.274 40.8799 114.04 41.5863 113.678 42.5378C113.678 42.5378 113.733 43.6486 115.681 43.5888C115.794 43.5851 115.906 43.5733 116.017 43.5536C115.243 43.7928 114.185 43.8993 113.529 43.0543L113.246 43.4562C113.246 43.4562 114.954 44.9015 116.993 43.1382C118.135 42.3127 118.69 40.4956 118.018 38.7483Z" fill="#3F3D56"/>
<path d="M7.38721 107.816L75.3386 107.816" stroke="black" stroke-width="0.200955" stroke-linecap="round" stroke-linejoin="round"/>
<path d="M77.4865 107.816H123.715" stroke="black" stroke-width="0.200955" stroke-linecap="round" stroke-linejoin="round"/>
<path d="M125.326 107.816H132.424" stroke="black" stroke-width="0.200955" stroke-linecap="round" stroke-linejoin="round"/>
<path d="M100.234 38.2273C100.234 38.2273 102.048 36.8965 105.046 38.3278C105.392 38.4931 105.297 38.8805 104.962 39.3145C103.877 40.7257 101.773 40.7714 100.562 39.4692C100.139 39.0151 99.9067 38.5529 100.234 38.2273Z" stroke="black" stroke-width="0.200955" stroke-miterlimit="10" stroke-linecap="round"/>
<path d="M106.272 38.453C106.272 38.453 108.087 37.1222 111.084 38.5535C111.43 38.7188 111.335 39.1061 111 39.5402C109.915 40.9509 107.811 40.9971 106.6 39.6949C106.179 39.2397 105.947 38.7785 106.272 38.453Z" stroke="black" stroke-width="0.200955" stroke-miterlimit="10" stroke-linecap="round"/>
<path d="M105.388 39.092C105.388 39.092 105.063 40.4283 104.765 41.1643C104.765 41.1643 104.349 41.8204 105.82 41.7808" stroke="black" stroke-width="0.200955" stroke-miterlimit="10" stroke-linecap="round"/>
<path d="M104.834 43.1236C104.834 43.1236 106.406 44.042 107.731 42.8187L104.834 43.1236Z" fill="white"/>
<path d="M104.834 43.1236C104.834 43.1236 106.406 44.042 107.731 42.8187" stroke="black" stroke-width="0.200955" stroke-miterlimit="10" stroke-linecap="round"/>
<path d="M103.34 39.0864C103.507 39.0864 103.643 38.895 103.643 38.6589C103.643 38.4228 103.507 38.2314 103.34 38.2314C103.172 38.2314 103.036 38.4228 103.036 38.6589C103.036 38.895 103.172 39.0864 103.34 39.0864Z" fill="black"/>
<path d="M108.465 39.313C108.632 39.313 108.768 39.1215 108.768 38.8854C108.768 38.6493 108.632 38.4579 108.465 38.4579C108.297 38.4579 108.161 38.6493 108.161 38.8854C108.161 39.1215 108.297 39.313 108.465 39.313Z" fill="black"/>
<path d="M102.548 36.6151C102.548 36.6151 103.424 35.736 104.488 36.3027" stroke="black" stroke-width="0.200955" stroke-miterlimit="10" stroke-linecap="round"/>
<path d="M107.788 36.4644C107.788 36.4644 108.881 35.8766 109.735 36.7272" stroke="black" stroke-width="0.200955" stroke-miterlimit="10" stroke-linecap="round"/>
<path d="M105.05 39.2161C105.05 39.2161 105.634 38.5851 106.267 39.2628" stroke="black" stroke-width="0.200955" stroke-miterlimit="10" stroke-linecap="round"/>
<path d="M45.9616 72.033H40.2947V72.9986H45.9616V72.033Z" fill="white"/>
<path d="M107.55 29.6816C107.55 29.6816 110.92 28.4286 112.531 31.7097C114.141 34.9908 114.141 36.2664 114.141 36.2664" stroke="white" stroke-width="0.100478" stroke-miterlimit="10" stroke-linecap="round"/>
<path d="M107.311 30.268C107.311 30.268 110.95 31.9184 112.779 35.0603" stroke="white" stroke-width="0.100478" stroke-miterlimit="10" stroke-linecap="round"/>
<path d="M109.081 28.4785C109.081 28.4785 111.407 27.9219 112.401 29.6119" stroke="white" stroke-width="0.100478" stroke-miterlimit="10" stroke-linecap="round"/>
<path d="M106.695 29.8705C106.695 29.8705 104.942 29.5123 102.548 33.4691" stroke="white" stroke-width="0.100478" stroke-miterlimit="10" stroke-linecap="round"/>
<path d="M106.695 29.0014C106.695 29.0014 106.308 28.0213 105.05 29.3335" stroke="white" stroke-width="0.100478" stroke-miterlimit="10" stroke-linecap="round"/>
<path d="M114.33 41.2437C114.33 41.2437 114.38 43.8365 117.359 42.8186" stroke="white" stroke-width="0.100478" stroke-miterlimit="10" stroke-linecap="round"/>
<path d="M115.503 40.9257C115.503 40.9257 115.443 42.1605 117.094 42.1495" stroke="white" stroke-width="0.100478" stroke-miterlimit="10" stroke-linecap="round"/>
<path d="M107.55 76.8052C107.55 76.8052 107.371 85.6036 116.617 85.3353" stroke="black" stroke-width="0.150716" stroke-linecap="round" stroke-linejoin="round"/>
<path d="M107.899 83.4559C107.899 83.4559 108.862 85.6332 112.59 85.9914" stroke="black" stroke-width="0.150716" stroke-linecap="round" stroke-linejoin="round"/>
<path d="M31.306 7.50671H43.2955" stroke="black" stroke-width="0.150716" stroke-linecap="round" stroke-linejoin="round"/>
<path d="M43.9034 7.50671H49.809" stroke="black" stroke-width="0.150716" stroke-linecap="round" stroke-linejoin="round"/>
<path d="M52.1947 7.50671H72.3279" stroke="black" stroke-width="0.150716" stroke-linecap="round" stroke-linejoin="round"/>
<path d="M88.7029 54.7881V46.465" stroke="black" stroke-width="0.150716" stroke-linecap="round" stroke-linejoin="round"/>
<path d="M88.7029 40.5539V36.4544" stroke="black" stroke-width="0.150716" stroke-linecap="round" stroke-linejoin="round"/>
<path d="M88.7029 34.798V20.8211" stroke="black" stroke-width="0.150716" stroke-linecap="round" stroke-linejoin="round"/>
</svg>
