<svg width="37" height="74" viewBox="0 0 37 74" fill="none" xmlns="http://www.w3.org/2000/svg">
<path d="M30.5563 52.2055H7.38965V52.6254H30.5563V52.2055Z" fill="#0B065A"/>
<path d="M30.5562 53.511H7.38953V53.9309H30.5562V53.511Z" fill="#0B065A"/>
<path d="M30.5562 54.8178H7.38953V55.2377H30.5562V54.8178Z" fill="#0B065A"/>
<path d="M30.5562 56.1235H7.38953V56.5434H30.5562V56.1235Z" fill="#0B065A"/>
<path d="M30.5562 57.429H7.38953V57.8489H30.5562V57.429Z" fill="#0B065A"/>
<path d="M19.9124 58.7358H7.38953V59.1557H19.9124V58.7358Z" fill="#0B065A"/>
<path d="M36.5552 18.2778H36.1605V7.46551C36.1605 6.64372 35.9986 5.82997 35.6841 5.07072C35.3696 4.31148 34.9087 3.62162 34.3276 3.04052C33.7465 2.45942 33.0566 1.99847 32.2974 1.68399C31.5382 1.3695 30.7244 1.20764 29.9026 1.20764H6.99531C6.17351 1.20764 5.35976 1.3695 4.60052 1.68399C3.84128 1.99847 3.15142 2.45942 2.57032 3.04052C1.98922 3.62162 1.52827 4.31148 1.21378 5.07072C0.899289 5.82996 0.737426 6.64372 0.737427 7.46551V66.7826C0.737426 67.6044 0.899289 68.4182 1.21378 69.1774C1.52827 69.9366 1.98922 70.6265 2.57032 71.2076C3.15142 71.7887 3.84128 72.2496 4.60052 72.5641C5.35976 72.8786 6.17351 73.0405 6.99531 73.0405H29.9026C30.7244 73.0405 31.5382 72.8786 32.2974 72.5641C33.0566 72.2496 33.7465 71.7887 34.3276 71.2076C34.9087 70.6265 35.3697 69.9366 35.6841 69.1774C35.9986 68.4182 36.1605 67.6044 36.1605 66.7826V25.9742H36.5552L36.5552 18.2778Z" fill="#FEFEFE" stroke="#0B065A" stroke-width="0.579275" stroke-miterlimit="10" stroke-linecap="round"/>
<path d="M30.0069 2.98376H27.0167C27.1542 3.32089 27.2067 3.68667 27.1695 4.04886C27.1324 4.41106 27.0067 4.75856 26.8036 5.06075C26.6006 5.36294 26.3263 5.61055 26.0049 5.78177C25.6836 5.95299 25.3251 6.04255 24.961 6.04258H11.8377C11.4736 6.04255 11.1151 5.95299 10.7938 5.78177C10.4725 5.61055 10.1982 5.36294 9.9951 5.06075C9.79201 4.75856 9.66635 4.41106 9.62919 4.04886C9.59204 3.68667 9.64453 3.32089 9.78204 2.98376H6.98923C6.37552 2.98376 5.76782 3.10464 5.20083 3.3395C4.63384 3.57435 4.11866 3.91858 3.6847 4.35254C3.25074 4.78649 2.90651 5.30168 2.67165 5.86867C2.4368 6.43566 2.31592 7.04335 2.31592 7.65706V66.8871C2.31592 67.5008 2.4368 68.1085 2.67165 68.6755C2.90651 69.2425 3.25074 69.7577 3.6847 70.1917C4.11865 70.6256 4.63384 70.9698 5.20083 71.2047C5.76782 71.4396 6.37552 71.5604 6.98923 71.5604H30.0069C30.6206 71.5604 31.2283 71.4396 31.7953 71.2047C32.3622 70.9698 32.8774 70.6256 33.3114 70.1917C33.7453 69.7577 34.0896 69.2425 34.3244 68.6755C34.5593 68.1085 34.6802 67.5008 34.6802 66.8871V7.65707C34.6802 7.04336 34.5593 6.43566 34.3244 5.86867C34.0896 5.30168 33.7453 4.7865 33.3114 4.35254C32.8774 3.91858 32.3622 3.57435 31.7953 3.3395C31.2283 3.10464 30.6206 2.98376 30.0069 2.98376Z" fill="#FEFEFE" stroke="#0B065A" stroke-width="0.579275" stroke-miterlimit="10" stroke-linecap="round"/>
<path d="M12.7659 18.2065H7.45874V12.8993H12.7659V18.2065ZM7.60661 18.0586H12.6178V13.0474H7.60661V18.0586Z" fill="#2E3338" stroke="black" stroke-width="0.147814"/>
<path d="M8.41663 15.7992L8.87523 15.3065L9.63964 15.9181L11.3891 14.2194L11.8083 14.7134L9.60575 16.8862L8.41663 15.7992Z" fill="#F17336"/>
<path d="M26.1161 14.2498C27.6082 14.2498 28.9593 14.2455 29.9373 14.2386C30.4263 14.2351 30.8221 14.2309 31.0958 14.2263C31.2325 14.224 31.3389 14.2216 31.4112 14.219C31.4473 14.2178 31.4752 14.2165 31.4942 14.2152C31.5036 14.2145 31.5114 14.2138 31.5171 14.213C31.5198 14.2126 31.5232 14.2121 31.5264 14.2112C31.5278 14.2108 31.531 14.2098 31.5344 14.2079C31.5361 14.2069 31.5394 14.2049 31.5425 14.2013C31.5459 14.1976 31.5503 14.1907 31.5503 14.1809C31.5503 14.1712 31.5459 14.1643 31.5425 14.1605C31.5394 14.157 31.5361 14.155 31.5344 14.154C31.531 14.1521 31.5278 14.1511 31.5264 14.1507C31.5232 14.1498 31.5198 14.1493 31.5172 14.1489C31.5114 14.1481 31.5036 14.1474 31.4942 14.1467C31.4752 14.1454 31.4473 14.1441 31.4113 14.1428C31.339 14.1403 31.2327 14.1379 31.0959 14.1356C30.8224 14.131 30.4267 14.1268 29.9377 14.1233C28.9598 14.1164 27.6088 14.112 26.1161 14.112C24.6234 14.112 23.2722 14.1164 22.2942 14.1233C21.8052 14.1268 21.4094 14.131 21.1358 14.1356C20.999 14.1379 20.8926 14.1403 20.8204 14.1428C20.7843 14.1441 20.7564 14.1454 20.7374 14.1467C20.7281 14.1474 20.7202 14.1481 20.7145 14.1489C20.7118 14.1493 20.7084 14.1498 20.7052 14.1507C20.7038 14.1511 20.7007 14.1521 20.6972 14.154C20.6955 14.155 20.6922 14.157 20.6891 14.1605C20.6858 14.1643 20.6813 14.1712 20.6813 14.1809C20.6813 14.1907 20.6858 14.1976 20.6891 14.2014C20.6922 14.2049 20.6955 14.2069 20.6972 14.2079C20.7007 14.2098 20.7038 14.2108 20.7052 14.2112C20.7084 14.2121 20.7118 14.2126 20.7145 14.213C20.7202 14.2138 20.7281 14.2145 20.7375 14.2152C20.7565 14.2165 20.7844 14.2178 20.8204 14.219C20.8927 14.2216 20.9991 14.224 21.136 14.2263C21.4096 14.2309 21.8055 14.2351 22.2946 14.2386C23.2728 14.2455 24.624 14.2498 26.1161 14.2498Z" fill="#0B065A" stroke="#2E3338" stroke-width="0.0607092"/>
<path d="M26.1161 15.3529C27.6082 15.3529 28.9593 15.3486 29.9373 15.3416C30.4263 15.3381 30.8221 15.3339 31.0958 15.3293C31.2325 15.327 31.3389 15.3246 31.4112 15.3221C31.4473 15.3208 31.4752 15.3195 31.4942 15.3182C31.5036 15.3175 31.5114 15.3168 31.5171 15.316C31.5198 15.3156 31.5232 15.3151 31.5264 15.3142C31.5278 15.3138 31.531 15.3129 31.5344 15.3109C31.5361 15.31 31.5394 15.3079 31.5425 15.3044C31.5459 15.3006 31.5503 15.2937 31.5503 15.284C31.5503 15.2743 31.5459 15.2673 31.5425 15.2636C31.5394 15.26 31.5361 15.258 31.5344 15.257C31.531 15.2551 31.5278 15.2541 31.5264 15.2538C31.5232 15.2529 31.5198 15.2523 31.5172 15.2519C31.5114 15.2511 31.5036 15.2504 31.4942 15.2498C31.4752 15.2484 31.4473 15.2471 31.4113 15.2459C31.339 15.2433 31.2327 15.2409 31.0959 15.2386C30.8224 15.234 30.4267 15.2298 29.9377 15.2264C28.9598 15.2194 27.6088 15.2151 26.1161 15.2151C24.6234 15.2151 23.2722 15.2194 22.2942 15.2264C21.8052 15.2298 21.4094 15.234 21.1358 15.2386C20.999 15.2409 20.8926 15.2433 20.8204 15.2459C20.7843 15.2471 20.7564 15.2484 20.7374 15.2498C20.7281 15.2504 20.7202 15.2511 20.7145 15.2519C20.7118 15.2523 20.7084 15.2529 20.7052 15.2538C20.7038 15.2541 20.7007 15.2551 20.6972 15.257C20.6955 15.258 20.6922 15.26 20.6891 15.2636C20.6858 15.2673 20.6813 15.2743 20.6813 15.284C20.6813 15.2937 20.6858 15.3006 20.6891 15.3044C20.6922 15.3079 20.6955 15.31 20.6972 15.3109C20.7007 15.3129 20.7038 15.3138 20.7052 15.3142C20.7084 15.3151 20.7118 15.3156 20.7145 15.316C20.7202 15.3168 20.7281 15.3175 20.7375 15.3182C20.7565 15.3195 20.7844 15.3208 20.8204 15.3221C20.8927 15.3246 20.9991 15.327 21.136 15.3293C21.4096 15.3339 21.8055 15.3381 22.2946 15.3416C23.2728 15.3486 24.624 15.3529 26.1161 15.3529Z" fill="#0B065A" stroke="#2E3338" stroke-width="0.0607092"/>
<path d="M26.1161 16.4554C27.6082 16.4554 28.9593 16.4511 29.9373 16.4441C30.4263 16.4406 30.8221 16.4365 31.0958 16.4319C31.2325 16.4296 31.3389 16.4271 31.4112 16.4246C31.4473 16.4234 31.4752 16.4221 31.4942 16.4207C31.5036 16.4201 31.5114 16.4194 31.5171 16.4186C31.5198 16.4182 31.5232 16.4176 31.5264 16.4167C31.5278 16.4163 31.531 16.4154 31.5344 16.4135C31.5361 16.4125 31.5394 16.4105 31.5425 16.4069C31.5459 16.4032 31.5503 16.3962 31.5503 16.3865C31.5503 16.3768 31.5459 16.3699 31.5425 16.3661C31.5394 16.3626 31.5361 16.3605 31.5344 16.3596C31.531 16.3576 31.5278 16.3567 31.5264 16.3563C31.5232 16.3554 31.5198 16.3548 31.5172 16.3545C31.5114 16.3537 31.5036 16.353 31.4942 16.3523C31.4752 16.351 31.4473 16.3497 31.4113 16.3484C31.339 16.3459 31.2327 16.3435 31.0959 16.3412C30.8224 16.3365 30.4267 16.3324 29.9377 16.3289C28.9598 16.3219 27.6088 16.3176 26.1161 16.3176C24.6234 16.3176 23.2722 16.3219 22.2942 16.3289C21.8052 16.3324 21.4094 16.3365 21.1358 16.3412C20.999 16.3435 20.8926 16.3459 20.8204 16.3484C20.7843 16.3497 20.7564 16.351 20.7374 16.3523C20.7281 16.3529 20.7202 16.3537 20.7145 16.3545C20.7118 16.3548 20.7084 16.3554 20.7052 16.3563C20.7038 16.3567 20.7007 16.3576 20.6972 16.3596C20.6955 16.3605 20.6922 16.3626 20.6891 16.3661C20.6858 16.3698 20.6813 16.3768 20.6813 16.3865C20.6813 16.3962 20.6858 16.4032 20.6891 16.4069C20.6922 16.4105 20.6955 16.4125 20.6972 16.4135C20.7007 16.4154 20.7038 16.4163 20.7052 16.4167C20.7084 16.4176 20.7118 16.4182 20.7145 16.4186C20.7202 16.4194 20.7281 16.4201 20.7375 16.4207C20.7565 16.4221 20.7844 16.4234 20.8204 16.4246C20.8927 16.4271 20.9991 16.4296 21.136 16.4319C21.4096 16.4365 21.8055 16.4406 22.2946 16.4441C23.2728 16.4511 24.624 16.4554 26.1161 16.4554Z" fill="#0B065A" stroke="#2E3338" stroke-width="0.0607092"/>
<path d="M26.1161 17.5583C27.6082 17.5583 28.9593 17.554 29.9373 17.547C30.4263 17.5435 30.8221 17.5394 31.0958 17.5348C31.2325 17.5325 31.3389 17.53 31.4112 17.5275C31.4473 17.5263 31.4752 17.525 31.4942 17.5236C31.5036 17.523 31.5114 17.5223 31.5171 17.5215C31.5198 17.5211 31.5232 17.5205 31.5264 17.5196C31.5278 17.5192 31.531 17.5183 31.5344 17.5164C31.5361 17.5154 31.5394 17.5134 31.5425 17.5098C31.5459 17.5061 31.5503 17.4991 31.5503 17.4894C31.5503 17.4797 31.5459 17.4728 31.5425 17.469C31.5394 17.4655 31.5361 17.4634 31.5344 17.4625C31.531 17.4605 31.5278 17.4596 31.5264 17.4592C31.5232 17.4583 31.5198 17.4578 31.5172 17.4574C31.5114 17.4566 31.5036 17.4559 31.4942 17.4552C31.4752 17.4539 31.4473 17.4526 31.4113 17.4513C31.339 17.4488 31.2327 17.4464 31.0959 17.4441C30.8224 17.4394 30.4267 17.4353 29.9377 17.4318C28.9598 17.4248 27.6088 17.4205 26.1161 17.4205C24.6234 17.4205 23.2722 17.4248 22.2942 17.4318C21.8052 17.4353 21.4094 17.4394 21.1358 17.4441C20.999 17.4464 20.8926 17.4488 20.8204 17.4513C20.7843 17.4526 20.7564 17.4539 20.7374 17.4552C20.7281 17.4559 20.7202 17.4566 20.7145 17.4574C20.7118 17.4578 20.7084 17.4583 20.7052 17.4592C20.7038 17.4596 20.7007 17.4605 20.6972 17.4625C20.6955 17.4634 20.6922 17.4655 20.6891 17.469C20.6858 17.4728 20.6813 17.4797 20.6813 17.4894C20.6813 17.4991 20.6858 17.5061 20.6891 17.5098C20.6922 17.5134 20.6955 17.5154 20.6972 17.5164C20.7007 17.5183 20.7038 17.5192 20.7052 17.5196C20.7084 17.5205 20.7118 17.5211 20.7145 17.5215C20.7202 17.5223 20.7281 17.523 20.7375 17.5236C20.7565 17.525 20.7844 17.5263 20.8204 17.5275C20.8927 17.53 20.9991 17.5325 21.136 17.5348C21.4096 17.5394 21.8055 17.5435 22.2946 17.547C23.2728 17.554 24.624 17.5583 26.1161 17.5583Z" fill="#0B065A" stroke="#2E3338" stroke-width="0.0607092"/>
<path d="M12.7659 27.2919H7.45874V21.9847H12.7659V27.2919ZM7.60661 27.144H12.6178V22.1328H7.60661V27.144Z" fill="#2E3338" stroke="black" stroke-width="0.147814"/>
<path d="M26.1161 23.3353C27.6082 23.3353 28.9593 23.331 29.9373 23.324C30.4263 23.3205 30.8221 23.3164 31.0958 23.3117C31.2325 23.3094 31.3389 23.307 31.4112 23.3045C31.4473 23.3032 31.4752 23.3019 31.4942 23.3006C31.5036 23.3 31.5114 23.2992 31.5171 23.2984C31.5198 23.2981 31.5232 23.2975 31.5264 23.2966C31.5278 23.2962 31.531 23.2953 31.5344 23.2933C31.5361 23.2924 31.5394 23.2904 31.5425 23.2868C31.5459 23.2831 31.5503 23.2761 31.5503 23.2664C31.5503 23.2567 31.5459 23.2497 31.5425 23.246C31.5394 23.2424 31.5361 23.2404 31.5344 23.2394C31.531 23.2375 31.5278 23.2366 31.5264 23.2362C31.5232 23.2353 31.5198 23.2347 31.5172 23.2344C31.5114 23.2335 31.5036 23.2328 31.4942 23.2322C31.4752 23.2308 31.4473 23.2295 31.4113 23.2283C31.339 23.2258 31.2327 23.2233 31.0959 23.221C30.8224 23.2164 30.4267 23.2123 29.9377 23.2088C28.9598 23.2018 27.6088 23.1975 26.1161 23.1975C24.6234 23.1975 23.2722 23.2018 22.2942 23.2088C21.8052 23.2123 21.4094 23.2164 21.1358 23.221C20.999 23.2233 20.8926 23.2258 20.8204 23.2283C20.7843 23.2295 20.7564 23.2308 20.7374 23.2322C20.7281 23.2328 20.7202 23.2335 20.7145 23.2344C20.7118 23.2347 20.7084 23.2353 20.7052 23.2362C20.7038 23.2366 20.7007 23.2375 20.6972 23.2394C20.6955 23.2404 20.6922 23.2424 20.6891 23.246C20.6858 23.2497 20.6813 23.2567 20.6813 23.2664C20.6813 23.2761 20.6858 23.2831 20.6891 23.2868C20.6922 23.2904 20.6955 23.2924 20.6972 23.2933C20.7007 23.2953 20.7038 23.2962 20.7052 23.2966C20.7084 23.2975 20.7118 23.2981 20.7145 23.2984C20.7202 23.2992 20.7281 23.3 20.7375 23.3006C20.7565 23.3019 20.7844 23.3032 20.8204 23.3045C20.8927 23.307 20.9991 23.3094 21.136 23.3117C21.4096 23.3164 21.8055 23.3205 22.2946 23.324C23.2728 23.331 24.624 23.3353 26.1161 23.3353Z" fill="#0B065A" stroke="#2E3338" stroke-width="0.0607092"/>
<path d="M26.1161 24.4383C27.6082 24.4383 28.9593 24.434 29.9373 24.427C30.4263 24.4235 30.8221 24.4194 31.0958 24.4148C31.2325 24.4125 31.3389 24.41 31.4112 24.4075C31.4473 24.4063 31.4752 24.405 31.4942 24.4036C31.5036 24.403 31.5114 24.4023 31.5171 24.4015C31.5198 24.4011 31.5232 24.4005 31.5264 24.3996C31.5278 24.3993 31.531 24.3983 31.5344 24.3964C31.5361 24.3954 31.5394 24.3934 31.5425 24.3898C31.5459 24.3861 31.5503 24.3791 31.5503 24.3694C31.5503 24.3597 31.5459 24.3528 31.5425 24.349C31.5394 24.3455 31.5361 24.3434 31.5344 24.3425C31.531 24.3405 31.5278 24.3396 31.5264 24.3392C31.5232 24.3383 31.5198 24.3378 31.5172 24.3374C31.5114 24.3366 31.5036 24.3359 31.4942 24.3352C31.4752 24.3339 31.4473 24.3326 31.4113 24.3313C31.339 24.3288 31.2327 24.3264 31.0959 24.3241C30.8224 24.3195 30.4267 24.3153 29.9377 24.3118C28.9598 24.3048 27.6088 24.3005 26.1161 24.3005C24.6234 24.3005 23.2722 24.3048 22.2942 24.3118C21.8052 24.3153 21.4094 24.3195 21.1358 24.3241C20.999 24.3264 20.8926 24.3288 20.8204 24.3313C20.7843 24.3326 20.7564 24.3339 20.7374 24.3352C20.7281 24.3359 20.7202 24.3366 20.7145 24.3374C20.7118 24.3378 20.7084 24.3383 20.7052 24.3392C20.7038 24.3396 20.7007 24.3405 20.6972 24.3425C20.6955 24.3434 20.6922 24.3455 20.6891 24.349C20.6858 24.3528 20.6813 24.3597 20.6813 24.3694C20.6813 24.3791 20.6858 24.3861 20.6891 24.3898C20.6922 24.3934 20.6955 24.3954 20.6972 24.3964C20.7007 24.3983 20.7038 24.3993 20.7052 24.3996C20.7084 24.4005 20.7118 24.4011 20.7145 24.4015C20.7202 24.4023 20.7281 24.403 20.7375 24.4036C20.7565 24.405 20.7844 24.4063 20.8204 24.4075C20.8927 24.41 20.9991 24.4125 21.136 24.4148C21.4096 24.4194 21.8055 24.4235 22.2946 24.427C23.2728 24.434 24.624 24.4383 26.1161 24.4383Z" fill="#0B065A" stroke="#2E3338" stroke-width="0.0607092"/>
<path d="M26.1161 25.5409C27.6082 25.5409 28.9593 25.5365 29.9373 25.5296C30.4263 25.5261 30.8221 25.5219 31.0958 25.5173C31.2325 25.515 31.3389 25.5126 31.4112 25.5101C31.4473 25.5088 31.4752 25.5075 31.4942 25.5062C31.5036 25.5055 31.5114 25.5048 31.5171 25.504C31.5198 25.5036 31.5232 25.5031 31.5264 25.5022C31.5278 25.5018 31.531 25.5009 31.5344 25.4989C31.5361 25.4979 31.5394 25.4959 31.5425 25.4924C31.5459 25.4886 31.5503 25.4817 31.5503 25.472C31.5503 25.4623 31.5459 25.4553 31.5425 25.4516C31.5394 25.448 31.5361 25.446 31.5344 25.445C31.531 25.4431 31.5278 25.4421 31.5264 25.4417C31.5232 25.4408 31.5198 25.4403 31.5172 25.4399C31.5114 25.4391 31.5036 25.4384 31.4942 25.4377C31.4752 25.4364 31.4473 25.4351 31.4113 25.4339C31.339 25.4313 31.2327 25.4289 31.0959 25.4266C30.8224 25.422 30.4267 25.4178 29.9377 25.4143C28.9598 25.4074 27.6088 25.4031 26.1161 25.4031C24.6234 25.4031 23.2722 25.4074 22.2942 25.4143C21.8052 25.4178 21.4094 25.422 21.1358 25.4266C20.999 25.4289 20.8926 25.4313 20.8204 25.4339C20.7843 25.4351 20.7564 25.4364 20.7374 25.4377C20.7281 25.4384 20.7202 25.4391 20.7145 25.4399C20.7118 25.4403 20.7084 25.4408 20.7052 25.4417C20.7038 25.4421 20.7007 25.4431 20.6972 25.445C20.6955 25.446 20.6922 25.448 20.6891 25.4516C20.6858 25.4553 20.6813 25.4623 20.6813 25.472C20.6813 25.4817 20.6858 25.4886 20.6891 25.4924C20.6922 25.4959 20.6955 25.4979 20.6972 25.4989C20.7007 25.5009 20.7038 25.5018 20.7052 25.5022C20.7084 25.5031 20.7118 25.5036 20.7145 25.504C20.7202 25.5048 20.7281 25.5055 20.7375 25.5062C20.7565 25.5075 20.7844 25.5088 20.8204 25.5101C20.8927 25.5126 20.9991 25.515 21.136 25.5173C21.4096 25.5219 21.8055 25.5261 22.2946 25.5296C23.2728 25.5365 24.624 25.5409 26.1161 25.5409Z" fill="#0B065A" stroke="#2E3338" stroke-width="0.0607092"/>
<path d="M26.1161 26.6438C27.6082 26.6438 28.9593 26.6395 29.9373 26.6325C30.4263 26.629 30.8221 26.6248 31.0958 26.6202C31.2325 26.6179 31.3389 26.6155 31.4112 26.613C31.4473 26.6117 31.4752 26.6104 31.4942 26.6091C31.5036 26.6084 31.5114 26.6077 31.5171 26.6069C31.5198 26.6065 31.5232 26.606 31.5264 26.6051C31.5278 26.6047 31.531 26.6038 31.5344 26.6018C31.5361 26.6009 31.5394 26.5988 31.5425 26.5953C31.5459 26.5915 31.5503 26.5846 31.5503 26.5749C31.5503 26.5652 31.5459 26.5582 31.5425 26.5545C31.5394 26.5509 31.5361 26.5489 31.5344 26.5479C31.531 26.546 31.5278 26.545 31.5264 26.5447C31.5232 26.5438 31.5198 26.5432 31.5172 26.5428C31.5114 26.542 31.5036 26.5413 31.4942 26.5406C31.4752 26.5393 31.4473 26.538 31.4113 26.5368C31.339 26.5342 31.2327 26.5318 31.0959 26.5295C30.8224 26.5249 30.4267 26.5207 29.9377 26.5173C28.9598 26.5103 27.6088 26.506 26.1161 26.506C24.6234 26.506 23.2722 26.5103 22.2942 26.5173C21.8052 26.5207 21.4094 26.5249 21.1358 26.5295C20.999 26.5318 20.8926 26.5342 20.8204 26.5368C20.7843 26.538 20.7564 26.5393 20.7374 26.5406C20.7281 26.5413 20.7202 26.542 20.7145 26.5428C20.7118 26.5432 20.7084 26.5438 20.7052 26.5447C20.7038 26.545 20.7007 26.546 20.6972 26.5479C20.6955 26.5489 20.6922 26.5509 20.6891 26.5545C20.6858 26.5582 20.6813 26.5652 20.6813 26.5749C20.6813 26.5846 20.6858 26.5915 20.6891 26.5953C20.6922 26.5988 20.6955 26.6009 20.6972 26.6018C20.7007 26.6038 20.7038 26.6047 20.7052 26.6051C20.7084 26.606 20.7118 26.6065 20.7145 26.6069C20.7202 26.6077 20.7281 26.6084 20.7375 26.6091C20.7565 26.6104 20.7844 26.6117 20.8204 26.613C20.8927 26.6155 20.9991 26.6179 21.136 26.6202C21.4096 26.6248 21.8055 26.629 22.2946 26.6325C23.2728 26.6395 24.624 26.6438 26.1161 26.6438Z" fill="#0B065A" stroke="#2E3338" stroke-width="0.0607092"/>
<path d="M12.7659 36.3771H7.45874V31.0699H12.7659V36.3771ZM7.60661 36.2293H12.6178V31.2181H7.60661V36.2293Z" fill="#2E3338" stroke="black" stroke-width="0.147814"/>
<path d="M26.1161 32.4205C27.6082 32.4205 28.9593 32.4162 29.9373 32.4092C30.4263 32.4057 30.8221 32.4016 31.0958 32.397C31.2325 32.3946 31.3389 32.3922 31.4112 32.3897C31.4473 32.3884 31.4752 32.3872 31.4942 32.3858C31.5036 32.3852 31.5114 32.3844 31.5171 32.3836C31.5198 32.3833 31.5232 32.3827 31.5264 32.3818C31.5278 32.3814 31.531 32.3805 31.5344 32.3785C31.5361 32.3776 31.5394 32.3756 31.5425 32.372C31.5459 32.3683 31.5503 32.3613 31.5503 32.3516C31.5503 32.3419 31.5459 32.3349 31.5425 32.3312C31.5394 32.3276 31.5361 32.3256 31.5344 32.3247C31.531 32.3227 31.5278 32.3218 31.5264 32.3214C31.5232 32.3205 31.5198 32.3199 31.5172 32.3196C31.5114 32.3187 31.5036 32.318 31.4942 32.3174C31.4752 32.316 31.4473 32.3148 31.4113 32.3135C31.339 32.311 31.2327 32.3085 31.0959 32.3062C30.8224 32.3016 30.4267 32.2975 29.9377 32.294C28.9598 32.287 27.6088 32.2827 26.1161 32.2827C24.6234 32.2827 23.2722 32.287 22.2942 32.294C21.8052 32.2975 21.4094 32.3016 21.1358 32.3062C20.999 32.3085 20.8926 32.311 20.8204 32.3135C20.7843 32.3148 20.7564 32.316 20.7374 32.3174C20.7281 32.318 20.7202 32.3187 20.7145 32.3196C20.7118 32.3199 20.7084 32.3205 20.7052 32.3214C20.7038 32.3218 20.7007 32.3227 20.6972 32.3247C20.6955 32.3256 20.6922 32.3276 20.6891 32.3312C20.6858 32.3349 20.6813 32.3419 20.6813 32.3516C20.6813 32.3613 20.6858 32.3683 20.6891 32.372C20.6922 32.3756 20.6955 32.3776 20.6972 32.3785C20.7007 32.3805 20.7038 32.3814 20.7052 32.3818C20.7084 32.3827 20.7118 32.3833 20.7145 32.3836C20.7202 32.3844 20.7281 32.3852 20.7375 32.3858C20.7565 32.3872 20.7844 32.3884 20.8204 32.3897C20.8927 32.3922 20.9991 32.3946 21.136 32.397C21.4096 32.4016 21.8055 32.4057 22.2946 32.4092C23.2728 32.4162 24.624 32.4205 26.1161 32.4205Z" fill="#0B065A" stroke="#2E3338" stroke-width="0.0607092"/>
<path d="M26.1161 33.5235C27.6082 33.5235 28.9593 33.5192 29.9373 33.5122C30.4263 33.5088 30.8221 33.5046 31.0958 33.5C31.2325 33.4977 31.3389 33.4953 31.4112 33.4927C31.4473 33.4915 31.4752 33.4902 31.4942 33.4888C31.5036 33.4882 31.5114 33.4875 31.5171 33.4867C31.5198 33.4863 31.5232 33.4857 31.5264 33.4848C31.5278 33.4845 31.531 33.4835 31.5344 33.4816C31.5361 33.4806 31.5394 33.4786 31.5425 33.475C31.5459 33.4713 31.5503 33.4643 31.5503 33.4546C31.5503 33.4449 31.5459 33.438 31.5425 33.4342C31.5394 33.4307 31.5361 33.4286 31.5344 33.4277C31.531 33.4257 31.5278 33.4248 31.5264 33.4244C31.5232 33.4235 31.5198 33.423 31.5172 33.4226C31.5114 33.4218 31.5036 33.4211 31.4942 33.4204C31.4752 33.4191 31.4473 33.4178 31.4113 33.4165C31.339 33.414 31.2327 33.4116 31.0959 33.4093C30.8224 33.4047 30.4267 33.4005 29.9377 33.397C28.9598 33.39 27.6088 33.3857 26.1161 33.3857C24.6234 33.3857 23.2722 33.39 22.2942 33.397C21.8052 33.4005 21.4094 33.4047 21.1358 33.4093C20.999 33.4116 20.8926 33.414 20.8204 33.4165C20.7843 33.4178 20.7564 33.4191 20.7374 33.4204C20.7281 33.4211 20.7202 33.4218 20.7145 33.4226C20.7118 33.423 20.7084 33.4235 20.7052 33.4244C20.7038 33.4248 20.7007 33.4257 20.6972 33.4277C20.6955 33.4286 20.6922 33.4307 20.6891 33.4342C20.6858 33.438 20.6813 33.4449 20.6813 33.4546C20.6813 33.4643 20.6858 33.4713 20.6891 33.475C20.6922 33.4786 20.6955 33.4806 20.6972 33.4816C20.7007 33.4835 20.7038 33.4845 20.7052 33.4848C20.7084 33.4857 20.7118 33.4863 20.7145 33.4867C20.7202 33.4875 20.7281 33.4882 20.7375 33.4888C20.7565 33.4902 20.7844 33.4915 20.8204 33.4927C20.8927 33.4953 20.9991 33.4977 21.136 33.5C21.4096 33.5046 21.8055 33.5088 22.2946 33.5122C23.2728 33.5192 24.624 33.5235 26.1161 33.5235Z" fill="#0B065A" stroke="#2E3338" stroke-width="0.0607092"/>
<path d="M26.1161 34.6261C27.6082 34.6261 28.9593 34.6218 29.9373 34.6148C30.4263 34.6114 30.8221 34.6072 31.0958 34.6026C31.2325 34.6003 31.3389 34.5979 31.4112 34.5953C31.4473 34.5941 31.4752 34.5928 31.4942 34.5914C31.5036 34.5908 31.5114 34.5901 31.5171 34.5893C31.5198 34.5889 31.5232 34.5883 31.5264 34.5874C31.5278 34.5871 31.531 34.5861 31.5344 34.5842C31.5361 34.5832 31.5394 34.5812 31.5425 34.5776C31.5459 34.5739 31.5503 34.5669 31.5503 34.5572C31.5503 34.5475 31.5459 34.5406 31.5425 34.5368C31.5394 34.5333 31.5361 34.5312 31.5344 34.5303C31.531 34.5283 31.5278 34.5274 31.5264 34.527C31.5232 34.5261 31.5198 34.5256 31.5172 34.5252C31.5114 34.5244 31.5036 34.5237 31.4942 34.523C31.4752 34.5217 31.4473 34.5204 31.4113 34.5191C31.339 34.5166 31.2327 34.5142 31.0959 34.5119C30.8224 34.5073 30.4267 34.5031 29.9377 34.4996C28.9598 34.4926 27.6088 34.4883 26.1161 34.4883C24.6234 34.4883 23.2722 34.4926 22.2942 34.4996C21.8052 34.5031 21.4094 34.5073 21.1358 34.5119C20.999 34.5142 20.8926 34.5166 20.8204 34.5191C20.7843 34.5204 20.7564 34.5217 20.7374 34.523C20.7281 34.5237 20.7202 34.5244 20.7145 34.5252C20.7118 34.5256 20.7084 34.5261 20.7052 34.527C20.7038 34.5274 20.7007 34.5283 20.6972 34.5303C20.6955 34.5312 20.6922 34.5333 20.6891 34.5368C20.6858 34.5406 20.6813 34.5475 20.6813 34.5572C20.6813 34.5669 20.6858 34.5739 20.6891 34.5776C20.6922 34.5812 20.6955 34.5832 20.6972 34.5842C20.7007 34.5861 20.7038 34.5871 20.7052 34.5874C20.7084 34.5883 20.7118 34.5889 20.7145 34.5893C20.7202 34.5901 20.7281 34.5908 20.7375 34.5914C20.7565 34.5928 20.7844 34.5941 20.8204 34.5953C20.8927 34.5979 20.9991 34.6003 21.136 34.6026C21.4096 34.6072 21.8055 34.6114 22.2946 34.6148C23.2728 34.6218 24.624 34.6261 26.1161 34.6261Z" fill="#0B065A" stroke="#2E3338" stroke-width="0.0607092"/>
<path d="M26.1161 35.729C27.6082 35.729 28.9593 35.7247 29.9373 35.7177C30.4263 35.7143 30.8221 35.7101 31.0958 35.7055C31.2325 35.7032 31.3389 35.7008 31.4112 35.6982C31.4473 35.697 31.4752 35.6957 31.4942 35.6944C31.5036 35.6937 31.5114 35.693 31.5171 35.6922C31.5198 35.6918 31.5232 35.6912 31.5264 35.6903C31.5278 35.69 31.531 35.689 31.5344 35.6871C31.5361 35.6861 31.5394 35.6841 31.5425 35.6805C31.5459 35.6768 31.5503 35.6698 31.5503 35.6601C31.5503 35.6504 31.5459 35.6435 31.5425 35.6397C31.5394 35.6362 31.5361 35.6341 31.5344 35.6332C31.531 35.6312 31.5278 35.6303 31.5264 35.6299C31.5232 35.629 31.5198 35.6285 31.5172 35.6281C31.5114 35.6273 31.5036 35.6266 31.4942 35.6259C31.4752 35.6246 31.4473 35.6233 31.4113 35.622C31.339 35.6195 31.2327 35.6171 31.0959 35.6148C30.8224 35.6102 30.4267 35.606 29.9377 35.6025C28.9598 35.5955 27.6088 35.5912 26.1161 35.5912C24.6234 35.5912 23.2722 35.5955 22.2942 35.6025C21.8052 35.606 21.4094 35.6102 21.1358 35.6148C20.999 35.6171 20.8926 35.6195 20.8204 35.622C20.7843 35.6233 20.7564 35.6246 20.7374 35.6259C20.7281 35.6266 20.7202 35.6273 20.7145 35.6281C20.7118 35.6285 20.7084 35.629 20.7052 35.6299C20.7038 35.6303 20.7007 35.6312 20.6972 35.6332C20.6955 35.6341 20.6922 35.6362 20.6891 35.6397C20.6858 35.6435 20.6813 35.6504 20.6813 35.6601C20.6813 35.6698 20.6858 35.6768 20.6891 35.6805C20.6922 35.6841 20.6955 35.6861 20.6972 35.6871C20.7007 35.689 20.7038 35.69 20.7052 35.6903C20.7084 35.6912 20.7118 35.6918 20.7145 35.6922C20.7202 35.693 20.7281 35.6937 20.7375 35.6944C20.7565 35.6957 20.7844 35.697 20.8204 35.6982C20.8927 35.7008 20.9991 35.7032 21.136 35.7055C21.4096 35.7101 21.8055 35.7143 22.2946 35.7177C23.2728 35.7247 24.624 35.729 26.1161 35.729Z" fill="#0B065A" stroke="#2E3338" stroke-width="0.0607092"/>
<path d="M12.7659 45.4625H7.45874V40.1553H12.7659V45.4625ZM7.60661 45.3147H12.6178V40.3035H7.60661V45.3147Z" fill="#2E3338" stroke="black" stroke-width="0.147814"/>
<path d="M26.1161 41.506C27.6082 41.506 28.9593 41.5016 29.9373 41.4947C30.4263 41.4912 30.8221 41.487 31.0958 41.4824C31.2325 41.4801 31.3389 41.4777 31.4112 41.4752C31.4473 41.4739 31.4752 41.4726 31.4942 41.4713C31.5036 41.4706 31.5114 41.4699 31.5171 41.4691C31.5198 41.4687 31.5232 41.4682 31.5264 41.4673C31.5278 41.4669 31.531 41.4659 31.5344 41.464C31.5361 41.463 31.5394 41.461 31.5425 41.4575C31.5459 41.4537 31.5503 41.4468 31.5503 41.437C31.5503 41.4273 31.5459 41.4204 31.5425 41.4166C31.5394 41.4131 31.5361 41.4111 31.5344 41.4101C31.531 41.4082 31.5278 41.4072 31.5264 41.4068C31.5232 41.4059 31.5198 41.4054 31.5172 41.405C31.5114 41.4042 31.5036 41.4035 31.4942 41.4028C31.4752 41.4015 31.4473 41.4002 31.4113 41.3989C31.339 41.3964 31.2327 41.394 31.0959 41.3917C30.8224 41.3871 30.4267 41.3829 29.9377 41.3794C28.9598 41.3725 27.6088 41.3681 26.1161 41.3681C24.6234 41.3681 23.2722 41.3725 22.2942 41.3794C21.8052 41.3829 21.4094 41.3871 21.1358 41.3917C20.999 41.394 20.8926 41.3964 20.8204 41.3989C20.7843 41.4002 20.7564 41.4015 20.7374 41.4028C20.7281 41.4035 20.7202 41.4042 20.7145 41.405C20.7118 41.4054 20.7084 41.4059 20.7052 41.4068C20.7038 41.4072 20.7007 41.4082 20.6972 41.4101C20.6955 41.4111 20.6922 41.4131 20.6891 41.4166C20.6858 41.4204 20.6813 41.4273 20.6813 41.437C20.6813 41.4468 20.6858 41.4537 20.6891 41.4575C20.6922 41.461 20.6955 41.463 20.6972 41.464C20.7007 41.4659 20.7038 41.4669 20.7052 41.4673C20.7084 41.4682 20.7118 41.4687 20.7145 41.4691C20.7202 41.4699 20.7281 41.4706 20.7375 41.4713C20.7565 41.4726 20.7844 41.4739 20.8204 41.4752C20.8927 41.4777 20.9991 41.4801 21.136 41.4824C21.4096 41.487 21.8055 41.4912 22.2946 41.4947C23.2728 41.5016 24.624 41.506 26.1161 41.506Z" fill="#0B065A" stroke="#2E3338" stroke-width="0.0607092"/>
<path d="M26.1161 42.609C27.6082 42.609 28.9593 42.6047 29.9373 42.5977C30.4263 42.5942 30.8221 42.59 31.0958 42.5854C31.2325 42.5831 31.3389 42.5807 31.4112 42.5782C31.4473 42.5769 31.4752 42.5756 31.4942 42.5743C31.5036 42.5736 31.5114 42.5729 31.5171 42.5721C31.5198 42.5717 31.5232 42.5712 31.5264 42.5703C31.5278 42.5699 31.531 42.569 31.5344 42.567C31.5361 42.5661 31.5394 42.564 31.5425 42.5605C31.5459 42.5567 31.5503 42.5498 31.5503 42.5401C31.5503 42.5304 31.5459 42.5234 31.5425 42.5197C31.5394 42.5161 31.5361 42.5141 31.5344 42.5131C31.531 42.5112 31.5278 42.5102 31.5264 42.5099C31.5232 42.509 31.5198 42.5084 31.5172 42.508C31.5114 42.5072 31.5036 42.5065 31.4942 42.5059C31.4752 42.5045 31.4473 42.5032 31.4113 42.502C31.339 42.4995 31.2327 42.497 31.0959 42.4947C30.8224 42.4901 30.4267 42.486 29.9377 42.4825C28.9598 42.4755 27.6088 42.4712 26.1161 42.4712C24.6234 42.4712 23.2722 42.4755 22.2942 42.4825C21.8052 42.486 21.4094 42.4901 21.1358 42.4947C20.999 42.497 20.8926 42.4995 20.8204 42.502C20.7843 42.5032 20.7564 42.5045 20.7374 42.5059C20.7281 42.5065 20.7202 42.5072 20.7145 42.508C20.7118 42.5084 20.7084 42.509 20.7052 42.5099C20.7038 42.5102 20.7007 42.5112 20.6972 42.5131C20.6955 42.5141 20.6922 42.5161 20.6891 42.5197C20.6858 42.5234 20.6813 42.5304 20.6813 42.5401C20.6813 42.5498 20.6858 42.5567 20.6891 42.5605C20.6922 42.564 20.6955 42.5661 20.6972 42.567C20.7007 42.569 20.7038 42.5699 20.7052 42.5703C20.7084 42.5712 20.7118 42.5717 20.7145 42.5721C20.7202 42.5729 20.7281 42.5736 20.7375 42.5743C20.7565 42.5756 20.7844 42.5769 20.8204 42.5782C20.8927 42.5807 20.9991 42.5831 21.136 42.5854C21.4096 42.59 21.8055 42.5942 22.2946 42.5977C23.2728 42.6047 24.624 42.609 26.1161 42.609Z" fill="#0B065A" stroke="#2E3338" stroke-width="0.0607092"/>
<path d="M26.1161 43.7116C27.6082 43.7116 28.9593 43.7073 29.9373 43.7003C30.4263 43.6968 30.8221 43.6926 31.0958 43.688C31.2325 43.6857 31.3389 43.6833 31.4112 43.6808C31.4473 43.6795 31.4752 43.6782 31.4942 43.6769C31.5036 43.6762 31.5114 43.6755 31.5171 43.6747C31.5198 43.6743 31.5232 43.6738 31.5264 43.6729C31.5278 43.6725 31.531 43.6716 31.5344 43.6696C31.5361 43.6687 31.5394 43.6666 31.5425 43.6631C31.5459 43.6593 31.5503 43.6524 31.5503 43.6427C31.5503 43.633 31.5459 43.626 31.5425 43.6223C31.5394 43.6187 31.5361 43.6167 31.5344 43.6157C31.531 43.6138 31.5278 43.6128 31.5264 43.6125C31.5232 43.6116 31.5198 43.611 31.5172 43.6106C31.5114 43.6098 31.5036 43.6091 31.4942 43.6085C31.4752 43.6071 31.4473 43.6058 31.4113 43.6046C31.339 43.6021 31.2327 43.5996 31.0959 43.5973C30.8224 43.5927 30.4267 43.5886 29.9377 43.5851C28.9598 43.5781 27.6088 43.5738 26.1161 43.5738C24.6234 43.5738 23.2722 43.5781 22.2942 43.5851C21.8052 43.5886 21.4094 43.5927 21.1358 43.5973C20.999 43.5996 20.8926 43.6021 20.8204 43.6046C20.7843 43.6058 20.7564 43.6071 20.7374 43.6085C20.7281 43.6091 20.7202 43.6098 20.7145 43.6106C20.7118 43.611 20.7084 43.6116 20.7052 43.6125C20.7038 43.6128 20.7007 43.6138 20.6972 43.6157C20.6955 43.6167 20.6922 43.6187 20.6891 43.6223C20.6858 43.626 20.6813 43.633 20.6813 43.6427C20.6813 43.6524 20.6858 43.6593 20.6891 43.6631C20.6922 43.6666 20.6955 43.6687 20.6972 43.6696C20.7007 43.6716 20.7038 43.6725 20.7052 43.6729C20.7084 43.6738 20.7118 43.6743 20.7145 43.6747C20.7202 43.6755 20.7281 43.6762 20.7375 43.6769C20.7565 43.6782 20.7844 43.6795 20.8204 43.6808C20.8927 43.6833 20.9991 43.6857 21.136 43.688C21.4096 43.6926 21.8055 43.6968 22.2946 43.7003C23.2728 43.7073 24.624 43.7116 26.1161 43.7116Z" fill="#0B065A" stroke="#2E3338" stroke-width="0.0607092"/>
<path d="M26.1161 44.8145C27.6082 44.8145 28.9593 44.8102 29.9373 44.8032C30.4263 44.7997 30.8221 44.7955 31.0958 44.7909C31.2325 44.7886 31.3389 44.7862 31.4112 44.7837C31.4473 44.7824 31.4752 44.7811 31.4942 44.7798C31.5036 44.7791 31.5114 44.7784 31.5171 44.7776C31.5198 44.7772 31.5232 44.7767 31.5264 44.7758C31.5278 44.7754 31.531 44.7745 31.5344 44.7725C31.5361 44.7716 31.5394 44.7695 31.5425 44.766C31.5459 44.7622 31.5503 44.7553 31.5503 44.7456C31.5503 44.7359 31.5459 44.7289 31.5425 44.7252C31.5394 44.7216 31.5361 44.7196 31.5344 44.7186C31.531 44.7167 31.5278 44.7158 31.5264 44.7154C31.5232 44.7145 31.5198 44.7139 31.5172 44.7135C31.5114 44.7127 31.5036 44.712 31.4942 44.7114C31.4752 44.71 31.4473 44.7087 31.4113 44.7075C31.339 44.705 31.2327 44.7025 31.0959 44.7002C30.8224 44.6956 30.4267 44.6915 29.9377 44.688C28.9598 44.681 27.6088 44.6767 26.1161 44.6767C24.6234 44.6767 23.2722 44.681 22.2942 44.688C21.8052 44.6915 21.4094 44.6956 21.1358 44.7002C20.999 44.7025 20.8926 44.705 20.8204 44.7075C20.7843 44.7087 20.7564 44.71 20.7374 44.7114C20.7281 44.712 20.7202 44.7127 20.7145 44.7135C20.7118 44.7139 20.7084 44.7145 20.7052 44.7154C20.7038 44.7158 20.7007 44.7167 20.6972 44.7186C20.6955 44.7196 20.6922 44.7216 20.6891 44.7252C20.6858 44.7289 20.6813 44.7359 20.6813 44.7456C20.6813 44.7553 20.6858 44.7622 20.6891 44.766C20.6922 44.7695 20.6955 44.7716 20.6972 44.7725C20.7007 44.7745 20.7038 44.7754 20.7052 44.7758C20.7084 44.7767 20.7118 44.7772 20.7145 44.7776C20.7202 44.7784 20.7281 44.7791 20.7375 44.7798C20.7565 44.7811 20.7844 44.7824 20.8204 44.7837C20.8927 44.7862 20.9991 44.7886 21.136 44.7909C21.4096 44.7955 21.8055 44.7997 22.2946 44.8032C23.2728 44.8102 24.624 44.8145 26.1161 44.8145Z" fill="#0B065A" stroke="#2E3338" stroke-width="0.0607092"/>
<path d="M17.8257 16.5037H15.5553L15.0705 17.6271H14.6921L16.525 13.4173H16.8561L18.683 17.6271H18.3046L17.8257 16.5037ZM17.6838 16.1844L16.6905 13.8608L15.6913 16.1844H17.6838Z" fill="black"/>
<path d="M17.3882 24.4655C17.6286 24.5286 17.8159 24.6488 17.9499 24.8262C18.0839 24.9996 18.1509 25.2184 18.1509 25.4825C18.1509 25.849 18.0307 26.1309 17.7902 26.328C17.5498 26.5251 17.2088 26.6236 16.7674 26.6236H15.0823V22.4138H16.7082C17.1379 22.4138 17.469 22.5104 17.7016 22.7036C17.9341 22.8928 18.0504 23.1647 18.0504 23.5195C18.0504 23.7481 17.9913 23.9432 17.873 24.1048C17.7587 24.2664 17.5971 24.3867 17.3882 24.4655ZM15.443 24.3236H16.655C16.994 24.3236 17.2502 24.2546 17.4237 24.1167C17.5971 23.9787 17.6838 23.7777 17.6838 23.5136C17.6838 22.9893 17.3409 22.7272 16.655 22.7272H15.443V24.3236ZM16.7437 26.3102C17.0985 26.3102 17.3586 26.2432 17.5242 26.1092C17.6937 25.9752 17.7784 25.7702 17.7784 25.4943C17.7784 24.9306 17.4335 24.6488 16.7437 24.6488H15.443V26.3102H16.7437Z" fill="black"/>
<path d="M16.8324 35.6677C16.4422 35.6677 16.1032 35.583 15.8154 35.4135C15.5277 35.24 15.307 34.9917 15.1532 34.6685C14.9995 34.3413 14.9226 33.955 14.9226 33.5096C14.9226 33.0682 14.9995 32.6858 15.1532 32.3626C15.307 32.0394 15.5277 31.793 15.8154 31.6235C16.1032 31.4501 16.4422 31.3634 16.8324 31.3634C17.1241 31.3634 17.3902 31.4107 17.6306 31.5053C17.875 31.5959 18.0859 31.7319 18.2633 31.9132L18.1095 32.203C17.9085 32.0216 17.7075 31.8916 17.5064 31.8127C17.3054 31.7299 17.0807 31.6886 16.8324 31.6886C16.3476 31.6886 15.9711 31.8482 15.7031 32.1675C15.4351 32.4828 15.3011 32.9302 15.3011 33.5096C15.3011 34.093 15.4331 34.5443 15.6972 34.8636C15.9652 35.1829 16.3436 35.3425 16.8324 35.3425C17.0807 35.3425 17.3054 35.3031 17.5064 35.2243C17.7075 35.1415 17.9085 35.0095 18.1095 34.8281L18.2633 35.1179C18.0859 35.2992 17.875 35.4371 17.6306 35.5317C17.3902 35.6224 17.1241 35.6677 16.8324 35.6677Z" fill="black"/>
<path d="M15.0823 40.9038H16.4363C17.1064 40.9038 17.6227 41.0852 17.9854 41.4478C18.348 41.8104 18.5293 42.3288 18.5293 43.0028C18.5293 43.6768 18.346 44.1971 17.9794 44.5637C17.6168 44.9303 17.1024 45.1136 16.4363 45.1136H15.0823V40.9038ZM16.4185 44.7943C16.9901 44.7943 17.4197 44.6445 17.7075 44.345C17.9952 44.0414 18.1391 43.5941 18.1391 43.0028C18.1391 41.8163 17.5656 41.2231 16.4185 41.2231H15.4489V44.7943H16.4185Z" fill="black"/>
</svg>
