<svg width="150" height="76" viewBox="0 0 150 76" fill="none" xmlns="http://www.w3.org/2000/svg">
<path d="M0 55.7654C0 53.6602 1.70658 51.9536 3.81176 51.9536H146.086C148.191 51.9536 149.898 53.6602 149.898 55.7654V71.2652C149.898 73.3703 148.191 75.0769 146.086 75.0769H3.81177C1.7066 75.0769 0 73.3703 0 71.2652V55.7654Z" fill="#F17336"/>
<path fill-rule="evenodd" clip-rule="evenodd" d="M17.8591 39.351C17.8591 40.2662 17.0841 40.9001 15.6765 40.9001L5.54021 40.8993C4.27254 40.8993 3.49841 40.2662 3.49841 39.3516C3.49878 38.7171 4.13173 38.0842 5.11751 37.7323C6.03211 37.4503 6.66601 36.4651 6.66601 35.5499L6.66658 6.05394C6.66658 5.20949 6.03211 4.57654 5.11751 4.29494C4.13231 3.94265 3.49841 3.16856 3.49841 2.535C3.49878 1.4789 4.27254 0.84537 5.68056 0.84537H15.3248C16.9436 0.84537 17.8588 1.47927 17.8588 2.535C17.8591 3.16774 17.2253 3.80184 16.31 4.15401C15.3248 4.43537 14.691 5.42119 14.691 6.33636L14.6913 35.9021C14.6913 36.6762 15.3242 37.3101 16.31 37.5915C17.2255 37.9428 17.8588 38.7178 17.8591 39.351ZM60.1655 32.5216C60.1655 34.1412 58.617 36.0419 56.0828 37.9429C52.6341 40.4766 48.4803 41.744 43.9044 41.744C38.2729 41.7432 33.2047 39.8433 29.0513 36.3236C24.9683 32.7327 22.7862 27.8061 22.7862 21.8221C22.7862 15.8384 24.9683 10.6295 29.2624 6.4762C33.6271 2.2523 38.9068 3.99758e-07 44.6788 3.99758e-07C49.114 -0.000822042 53.4077 1.26742 57.209 3.52009C58.617 4.29364 59.3914 5.42047 59.3914 6.4762C59.3914 8.09497 59.5322 9.64404 59.5322 11.2631C59.5325 12.53 58.8987 13.3047 57.6318 13.3047C57.209 13.3041 56.7166 12.8116 56.5755 12.1783C55.9425 10.7698 55.4492 9.78484 55.4492 9.50323C53.2674 5.70129 49.6066 3.66057 44.8903 3.66057C41.2296 3.66057 37.921 5.20939 35.3867 8.37694C32.8532 11.544 31.445 15.6278 31.445 20.4147C31.445 25.1307 32.5714 29.214 34.4718 32.3814C36.7953 35.9014 40.4555 37.5907 45.0311 37.5907C47.4245 37.5902 49.7477 36.9571 51.6481 35.9014C52.7744 35.267 54.1824 34.1415 55.7308 32.7335C56.9982 31.6067 57.9835 30.9736 58.4764 30.9736C59.3914 30.9734 60.025 31.6073 60.025 32.5224L60.1655 32.5216ZM103.599 39.3503C103.599 40.2655 102.825 40.8994 101.558 40.8994L92.2658 40.8986C90.647 40.8986 89.8725 40.4772 89.8725 39.4914C89.8729 38.8578 90.3649 38.2245 90.9987 37.9429C91.7734 37.5902 92.2658 36.9571 92.2658 36.4644C92.2658 36.1825 92.0545 35.9014 92.0545 35.5492L89.5202 27.5242H73.4703C72.0631 31.6067 71.2176 34.4228 71.2176 35.4084C71.2182 36.3236 71.7107 37.3093 72.4851 37.7316C73.4703 38.2237 73.8927 38.8578 73.8927 39.4914C73.8927 40.4766 72.9778 40.8994 71.077 40.8994L65.5867 40.8986C63.9679 40.8986 63.193 40.4772 63.193 39.4914C63.1932 38.8578 63.4746 38.2245 64.1081 37.7316C64.9531 37.3088 65.7272 36.4644 66.0085 35.5492C67.1351 32.2402 68.402 28.9324 69.5283 25.9052C72.2037 18.6545 74.7377 12.671 76.6381 8.23639C77.8352 5.41989 78.9613 3.30897 79.5948 2.39372C80.7212 0.844649 81.9883 7.9872e-07 83.1145 7.9872e-07C84.3112 -0.000821643 85.4375 0.633569 86.2118 1.6191C86.5637 1.90038 87.479 3.30897 88.4645 5.56152C91.6326 11.8961 95.5742 21.4704 100.15 34.282C100.291 34.7745 100.572 35.4084 100.783 36.0419C100.925 36.6755 101.417 37.3093 102.051 37.5907C102.966 38.2237 103.599 38.9986 103.599 39.4914V39.3503ZM88.3229 23.5816L81.3539 7.95325L74.5262 23.5816H88.3229ZM146.399 20.8353C146.399 26.8893 144.498 31.8874 140.697 35.4068C136.895 38.9971 131.897 40.8978 125.703 40.8978L108.526 40.897C107.26 40.897 106.414 40.4756 106.414 39.4898C106.415 38.7149 107.048 38.0819 108.034 37.73C108.949 37.4481 109.582 36.4628 109.582 35.2662L109.583 6.05165C109.583 5.20721 108.949 4.57426 108.034 4.29265C107.048 3.94036 106.414 3.16628 106.414 2.53271C106.415 1.47661 107.4 0.843083 109.301 0.843083H123.802C129.645 0.843083 134.854 2.39215 138.937 5.4189C143.865 9.00812 146.399 14.3589 146.399 21.0464L146.399 20.8353ZM137.74 20.8361C137.74 16.4712 136.473 12.5298 134.08 9.64331C131.404 6.19411 127.321 4.43453 122.112 4.43453C120.493 4.43392 119.367 4.78621 118.945 5.06781C118.1 5.55996 117.677 6.82763 117.677 8.58754V33.6475C117.677 35.2663 118.1 36.3228 118.734 36.8159C119.367 37.097 120.634 37.3086 122.394 37.3086C126.97 37.308 130.771 35.6895 133.446 32.8734C136.262 29.8466 137.74 25.7639 137.74 20.8361Z" fill="#F17336"/>
<path d="M11.6425 69.2264C11.3832 69.2264 11.178 69.1562 11.0268 69.0158C10.8864 68.8645 10.8162 68.6647 10.8162 68.4163V58.6142C10.8162 58.3658 10.8864 58.1714 11.0268 58.031C11.178 57.8798 11.3832 57.8041 11.6425 57.8041H14.818C16.665 57.8041 18.0962 58.301 19.1115 59.2947C20.1268 60.2884 20.6344 61.6926 20.6344 63.5072C20.6344 65.3218 20.1268 66.7313 19.1115 67.7358C18.0962 68.7295 16.665 69.2264 14.818 69.2264H11.6425ZM14.7208 67.833C17.5291 67.833 18.9332 66.3911 18.9332 63.5072C18.9332 60.6341 17.5291 59.1975 14.7208 59.1975H12.4849V67.833H14.7208Z" fill="#FEFEFE"/>
<path d="M35.0717 69.3074C34.8233 69.3074 34.6235 69.2318 34.4723 69.0806C34.321 68.9294 34.2454 68.7241 34.2454 68.4649V58.5656C34.2454 58.3172 34.321 58.1174 34.4723 57.9662C34.6235 57.8041 34.8233 57.7231 35.0717 57.7231C35.3309 57.7231 35.5362 57.7987 35.6874 57.95C35.8386 58.1012 35.9142 58.3064 35.9142 58.5656V68.4649C35.9142 68.7241 35.8386 68.9294 35.6874 69.0806C35.547 69.2318 35.3417 69.3074 35.0717 69.3074Z" fill="#FEFEFE"/>
<path d="M58.493 63.1669C58.6982 63.1669 58.8603 63.2263 58.9791 63.3451C59.1087 63.464 59.1735 63.626 59.1735 63.8312V67.6224C59.1735 67.9897 59.1195 68.2543 59.0115 68.4163C58.9143 68.5783 58.7144 68.7079 58.412 68.8051C57.98 68.978 57.4669 69.113 56.8728 69.2102C56.2788 69.3074 55.6901 69.356 55.1068 69.356C53.9511 69.356 52.952 69.1238 52.1095 68.6593C51.267 68.1949 50.6244 67.5252 50.1815 66.6503C49.7387 65.7754 49.5172 64.7277 49.5172 63.5072C49.5172 62.3082 49.7387 61.2713 50.1815 60.3964C50.6244 59.5215 51.2562 58.8519 52.0771 58.3874C52.9088 57.9122 53.8809 57.6745 54.9934 57.6745C55.7495 57.6745 56.4462 57.7879 57.0835 58.0148C57.7315 58.2308 58.2824 58.5494 58.736 58.9707C58.9521 59.1435 59.0601 59.3595 59.0601 59.6187C59.0601 59.8132 59.0061 59.9806 58.8981 60.121C58.79 60.2506 58.6604 60.3154 58.5092 60.3154C58.412 60.3154 58.3256 60.2992 58.25 60.2668C58.1744 60.2344 58.0772 60.1804 57.9584 60.1048C57.4291 59.716 56.9484 59.4459 56.5164 59.2947C56.0844 59.1327 55.5875 59.0517 55.0258 59.0517C53.7945 59.0517 52.8548 59.4351 52.2067 60.202C51.5587 60.9581 51.2346 62.0598 51.2346 63.5072C51.2346 64.9869 51.5641 66.1102 52.2229 66.8771C52.8926 67.6332 53.8701 68.0113 55.1554 68.0113C56.0195 68.0113 56.8512 67.8816 57.6505 67.6224V64.4307H55.5281C55.3121 64.4307 55.1392 64.3767 55.0096 64.2686C54.8908 64.1498 54.8314 63.9932 54.8314 63.7988C54.8314 63.6044 54.8908 63.4532 55.0096 63.3451C55.1392 63.2263 55.3121 63.1669 55.5281 63.1669H58.493Z" fill="#FEFEFE"/>
<path d="M73.861 69.3074C73.6126 69.3074 73.4128 69.2318 73.2616 69.0806C73.1103 68.9294 73.0347 68.7241 73.0347 68.4649V58.5656C73.0347 58.3172 73.1103 58.1174 73.2616 57.9662C73.4128 57.8041 73.6126 57.7231 73.861 57.7231C74.1203 57.7231 74.3255 57.7987 74.4767 57.95C74.6279 58.1012 74.7035 58.3064 74.7035 58.5656V68.4649C74.7035 68.7241 74.6279 68.9294 74.4767 69.0806C74.3363 69.2318 74.1311 69.3074 73.861 69.3074Z" fill="#FEFEFE"/>
<path d="M92.2598 69.3074C92.0113 69.3074 91.8061 69.2318 91.6441 69.0806C91.4929 68.9186 91.4173 68.7133 91.4173 68.4649V59.1975H88.1769C87.6585 59.1975 87.3992 58.9653 87.3992 58.5008C87.3992 58.274 87.4641 58.1012 87.5937 57.9824C87.7341 57.8636 87.9285 57.8041 88.1769 57.8041H96.3426C96.591 57.8041 96.7801 57.8636 96.9097 57.9824C97.0501 58.1012 97.1203 58.274 97.1203 58.5008C97.1203 58.9653 96.8611 59.1975 96.3426 59.1975H93.1023V68.4649C93.1023 68.7133 93.0267 68.9186 92.8754 69.0806C92.7242 69.2318 92.519 69.3074 92.2598 69.3074Z" fill="#FEFEFE"/>
<path d="M118.547 68.2543C118.601 68.3839 118.628 68.4919 118.628 68.5783C118.628 68.7835 118.542 68.9564 118.369 69.0968C118.207 69.2372 118.023 69.3074 117.818 69.3074C117.678 69.3074 117.543 69.2696 117.413 69.194C117.294 69.1076 117.203 68.9888 117.138 68.8375L116.068 66.4073H110.139L109.069 68.8375C109.004 68.9888 108.907 69.1076 108.778 69.194C108.648 69.2696 108.513 69.3074 108.373 69.3074C108.157 69.3074 107.962 69.2372 107.789 69.0968C107.627 68.9564 107.546 68.7835 107.546 68.5783C107.546 68.4919 107.573 68.3839 107.627 68.2543L112.196 58.2578C112.272 58.085 112.391 57.95 112.553 57.8527C112.725 57.7555 112.904 57.7069 113.087 57.7069C113.271 57.7069 113.444 57.7555 113.606 57.8527C113.779 57.95 113.903 58.085 113.978 58.2578L118.547 68.2543ZM115.485 65.0787L113.103 59.716L110.738 65.0787H115.485Z" fill="#FEFEFE"/>
<path d="M132.519 69.2264C132.271 69.2264 132.071 69.1562 131.92 69.0158C131.779 68.8753 131.709 68.6863 131.709 68.4487V58.5656C131.709 58.3172 131.785 58.1174 131.936 57.9662C132.087 57.8041 132.287 57.7231 132.535 57.7231C132.795 57.7231 133 57.7987 133.151 57.95C133.302 58.1012 133.378 58.3064 133.378 58.5656V67.833H138.303C138.552 67.833 138.741 67.8924 138.87 68.0113C139.011 68.1301 139.081 68.3029 139.081 68.5297C139.081 68.7565 139.011 68.9294 138.87 69.0482C138.741 69.167 138.552 69.2264 138.303 69.2264H132.519Z" fill="#FEFEFE"/>
</svg>
