<svg width="90" height="46" viewBox="0 0 90 46" fill="none" xmlns="http://www.w3.org/2000/svg">
<path d="M0 33.4821C0 32.2181 1.02465 31.1935 2.28862 31.1935H87.7114C88.9753 31.1935 90 32.2181 90 33.4821V42.7883C90 44.0523 88.9753 45.0769 87.7114 45.0769H2.28862C1.02465 45.0769 0 44.0523 0 42.7883V33.4821Z" fill="#FEFEFE"/>
<path fill-rule="evenodd" clip-rule="evenodd" d="M10.7227 23.6268C10.7227 24.1762 10.2575 24.5568 9.41229 24.5568L3.32638 24.5563C2.56526 24.5563 2.10046 24.1762 2.10046 23.6271C2.10069 23.2462 2.48072 22.8661 3.07259 22.6549C3.62172 22.4855 4.00232 21.894 4.00232 21.3445L4.00266 3.63484C4.00266 3.12783 3.62172 2.7478 3.07259 2.57872C2.48106 2.3672 2.10046 1.90244 2.10046 1.52204C2.10069 0.887944 2.56526 0.507568 3.41064 0.507568H9.20114C10.1731 0.507568 10.7226 0.888166 10.7226 1.52204C10.7227 1.90194 10.3422 2.28266 9.79267 2.49411C9.20114 2.66304 8.82062 3.25494 8.82062 3.80441L8.82077 21.556C8.82077 22.0208 9.2008 22.4013 9.79267 22.5703C10.3424 22.7812 10.7226 23.2465 10.7227 23.6268ZM36.1239 19.5263C36.1239 20.4987 35.1942 21.6399 33.6726 22.7813C31.602 24.3025 29.108 25.0635 26.3606 25.0635C22.9794 25.063 19.9364 23.9223 17.4427 21.809C14.9912 19.6531 13.681 16.6951 13.681 13.1022C13.681 9.50952 14.9912 6.38205 17.5694 3.88837C20.19 1.3523 23.36 2.40019e-07 26.8256 2.40019e-07C29.4885 -0.000493562 32.0665 0.760974 34.3488 2.1135C35.1942 2.57794 35.6591 3.2545 35.6591 3.88837C35.6591 4.8603 35.7437 5.79037 35.7437 6.7625C35.7439 7.52313 35.3633 7.98826 34.6027 7.98826C34.3488 7.98792 34.0532 7.6922 33.9684 7.31198C33.5884 6.46632 33.2922 5.87491 33.2922 5.70584C31.9823 3.42311 29.7842 2.19784 26.9525 2.19784C24.7546 2.19784 22.7681 3.12777 21.2465 5.0296C19.7254 6.93111 18.8799 9.38306 18.8799 12.2572C18.8799 15.0887 19.5562 17.5404 20.6972 19.4421C22.0922 21.5555 24.2898 22.5698 27.0371 22.5698C28.4741 22.5695 29.869 22.1894 31.01 21.5555C31.6862 21.1747 32.5316 20.4989 33.4613 19.6535C34.2223 18.977 34.8138 18.5969 35.1098 18.5969C35.6591 18.5967 36.0396 18.9773 36.0396 19.5268L36.1239 19.5263ZM62.2022 23.6263C62.2022 24.1758 61.7371 24.5564 60.9765 24.5564L55.3973 24.5559C54.4254 24.5559 53.9604 24.3029 53.9604 23.711C53.9606 23.3306 54.256 22.9504 54.6366 22.7813C55.1017 22.5695 55.3973 22.1894 55.3973 21.8936C55.3973 21.7243 55.2705 21.5555 55.2705 21.3441L53.7489 16.5258H44.1123C43.2674 18.977 42.7598 20.6678 42.7598 21.2595C42.7602 21.809 43.0558 22.4009 43.5208 22.6544C44.1123 22.9499 44.366 23.3306 44.366 23.711C44.366 24.3026 43.8166 24.5564 42.6754 24.5564L39.3789 24.5559C38.407 24.5559 37.9417 24.3029 37.9417 23.711C37.9419 23.3306 38.1108 22.9504 38.4912 22.6544C38.9985 22.4006 39.4633 21.8936 39.6322 21.3441C40.3086 19.3573 41.0693 17.3713 41.7455 15.5537C43.3518 11.2004 44.8733 7.60782 46.0143 4.94521C46.7331 3.25416 47.4092 1.98674 47.7895 1.43721C48.4658 0.507135 49.2266 4.79559e-07 49.9028 4.79559e-07C50.6213 -0.000493323 51.2975 0.380401 51.7625 0.972124C51.9738 1.141 52.5233 1.98674 53.115 3.33919C55.0172 7.14253 57.3837 12.8911 60.1311 20.5833C60.2155 20.879 60.3846 21.2595 60.5114 21.6399C60.5964 22.0203 60.8917 22.4009 61.2723 22.5699C61.822 22.9499 62.2022 23.4152 62.2022 23.711V23.6263ZM53.03 14.1586L48.8457 4.77521L44.7462 14.1586H53.03ZM87.8994 12.5097C87.8994 16.1446 86.7579 19.1455 84.4756 21.2586C82.1933 23.4142 79.1924 24.5555 75.4731 24.5555L65.1604 24.555C64.3997 24.555 63.8922 24.302 63.8922 23.7101C63.8925 23.2448 64.2726 22.8647 64.8645 22.6535C65.414 22.4842 65.7942 21.8926 65.7942 21.1742L65.7946 3.63347C65.7946 3.12646 65.414 2.74643 64.8645 2.57735C64.273 2.36583 63.8922 1.90106 63.8922 1.52066C63.8925 0.886571 64.4841 0.506195 65.6251 0.506195H74.332C77.84 0.506195 80.9677 1.43627 83.419 3.25356C86.3778 5.40857 87.8992 8.6212 87.8992 12.6365L87.8994 12.5097ZM82.7003 12.5102C82.7003 9.88946 81.9397 7.52303 80.5028 5.78994C78.8965 3.719 76.445 2.66254 73.3176 2.66254C72.3455 2.66217 71.6693 2.87369 71.4156 3.04276C70.9083 3.33826 70.6546 4.09938 70.6546 5.15604V20.2023C70.6546 21.1742 70.9083 21.8086 71.2888 22.1046C71.6694 22.2734 72.4299 22.4005 73.4865 22.4005C76.234 22.4001 78.5161 21.4283 80.1221 19.7375C81.813 17.9202 82.7003 15.4689 82.7003 12.5102Z" fill="#FEFEFE"/>
<path d="M6.99025 41.5642C6.83461 41.5642 6.71139 41.5221 6.6206 41.4377C6.53629 41.347 6.49414 41.227 6.49414 41.0778V35.1926C6.49414 35.0434 6.53629 34.9267 6.6206 34.8424C6.71139 34.7516 6.83461 34.7062 6.99025 34.7062H8.89688C10.0058 34.7062 10.8651 35.0045 11.4747 35.6011C12.0843 36.1978 12.3891 37.0408 12.3891 38.1303C12.3891 39.2198 12.0843 40.0661 11.4747 40.6693C10.8651 41.2659 10.0058 41.5642 8.89688 41.5642H6.99025ZM8.83852 40.7276C10.5247 40.7276 11.3677 39.8619 11.3677 38.1303C11.3677 36.4053 10.5247 35.5428 8.83852 35.5428H7.49609V40.7276H8.83852Z" fill="#F17336"/>
<path d="M21.0574 41.6128C20.9083 41.6128 20.7883 41.5674 20.6975 41.4767C20.6067 41.3859 20.5613 41.2626 20.5613 41.107V35.1634C20.5613 35.0142 20.6067 34.8942 20.6975 34.8035C20.7883 34.7062 20.9083 34.6575 21.0574 34.6575C21.2131 34.6575 21.3363 34.7029 21.4271 34.7937C21.5179 34.8845 21.5633 35.0077 21.5633 35.1634V41.107C21.5633 41.2626 21.5179 41.3859 21.4271 41.4767C21.3428 41.5674 21.2195 41.6128 21.0574 41.6128Z" fill="#F17336"/>
<path d="M35.1198 37.926C35.243 37.926 35.3403 37.9617 35.4116 38.0331C35.4894 38.1044 35.5284 38.2017 35.5284 38.3249V40.6012C35.5284 40.8217 35.4959 40.9805 35.4311 41.0778C35.3727 41.1751 35.2527 41.2529 35.0712 41.3113C34.8117 41.415 34.5037 41.4961 34.147 41.5545C33.7903 41.6128 33.4369 41.642 33.0867 41.642C32.3928 41.642 31.7929 41.5026 31.2871 41.2237C30.7812 40.9449 30.3954 40.5428 30.1295 40.0175C29.8636 39.4922 29.7306 38.8631 29.7306 38.1303C29.7306 37.4105 29.8636 36.7879 30.1295 36.2626C30.3954 35.7373 30.7748 35.3352 31.2676 35.0564C31.767 34.771 32.3506 34.6284 33.0186 34.6284C33.4726 34.6284 33.8909 34.6965 34.2735 34.8326C34.6626 34.9623 34.9933 35.1537 35.2657 35.4066C35.3954 35.5103 35.4603 35.64 35.4603 35.7957C35.4603 35.9124 35.4278 36.0129 35.363 36.0972C35.2981 36.1751 35.2203 36.214 35.1295 36.214C35.0712 36.214 35.0193 36.2042 34.9739 36.1848C34.9285 36.1653 34.8701 36.1329 34.7988 36.0875C34.481 35.854 34.1924 35.6919 33.933 35.6011C33.6736 35.5039 33.3753 35.4552 33.0381 35.4552C32.2988 35.4552 31.7346 35.6854 31.3454 36.1459C30.9563 36.5998 30.7618 37.2613 30.7618 38.1303C30.7618 39.0188 30.9596 39.6932 31.3552 40.1537C31.7572 40.6076 32.3442 40.8346 33.1159 40.8346C33.6347 40.8346 34.1341 40.7568 34.6139 40.6012V38.6848H33.3396C33.2099 38.6848 33.1062 38.6524 33.0283 38.5875C32.957 38.5162 32.9213 38.4222 32.9213 38.3054C32.9213 38.1887 32.957 38.0979 33.0283 38.0331C33.1062 37.9617 33.2099 37.926 33.3396 37.926H35.1198Z" fill="#F17336"/>
<path d="M44.3469 41.6128C44.1977 41.6128 44.0778 41.5674 43.987 41.4767C43.8962 41.3859 43.8508 41.2626 43.8508 41.107V35.1634C43.8508 35.0142 43.8962 34.8942 43.987 34.8035C44.0778 34.7062 44.1977 34.6575 44.3469 34.6575C44.5025 34.6575 44.6258 34.7029 44.7165 34.7937C44.8073 34.8845 44.8527 35.0077 44.8527 35.1634V41.107C44.8527 41.2626 44.8073 41.3859 44.7165 41.4767C44.6322 41.5674 44.509 41.6128 44.3469 41.6128Z" fill="#F17336"/>
<path d="M55.3937 41.6128C55.2445 41.6128 55.1213 41.5674 55.024 41.4767C54.9332 41.3794 54.8878 41.2562 54.8878 41.107V35.5428H52.9423C52.631 35.5428 52.4754 35.4033 52.4754 35.1245C52.4754 34.9883 52.5143 34.8845 52.5921 34.8132C52.6764 34.7418 52.7931 34.7062 52.9423 34.7062H57.8451C57.9942 34.7062 58.1077 34.7418 58.1855 34.8132C58.2698 34.8845 58.312 34.9883 58.312 35.1245C58.312 35.4033 58.1563 35.5428 57.8451 35.5428H55.8995V41.107C55.8995 41.2562 55.8541 41.3794 55.7633 41.4767C55.6725 41.5674 55.5493 41.6128 55.3937 41.6128Z" fill="#F17336"/>
<path d="M71.1769 40.9805C71.2094 41.0584 71.2256 41.1232 71.2256 41.1751C71.2256 41.2983 71.1737 41.4021 71.0699 41.4864C70.9727 41.5707 70.8624 41.6128 70.7392 41.6128C70.6549 41.6128 70.5738 41.5901 70.496 41.5448C70.4247 41.4929 70.3695 41.4215 70.3306 41.3307L69.6886 39.8716H66.1283L65.4862 41.3307C65.4473 41.4215 65.389 41.4929 65.3111 41.5448C65.2333 41.5901 65.1523 41.6128 65.068 41.6128C64.9383 41.6128 64.8215 41.5707 64.7178 41.4864C64.6205 41.4021 64.5718 41.2983 64.5718 41.1751C64.5718 41.1232 64.5881 41.0584 64.6205 40.9805L67.3637 34.9786C67.4091 34.8748 67.4804 34.7937 67.5777 34.7354C67.6815 34.677 67.7885 34.6478 67.8987 34.6478C68.009 34.6478 68.1127 34.677 68.21 34.7354C68.3138 34.7937 68.3883 34.8748 68.4337 34.9786L71.1769 40.9805ZM69.3384 39.0739L67.9084 35.854L66.4882 39.0739H69.3384Z" fill="#F17336"/>
<path d="M79.5659 41.5642C79.4167 41.5642 79.2967 41.5221 79.2059 41.4377C79.1216 41.3534 79.0795 41.2399 79.0795 41.0973V35.1634C79.0795 35.0142 79.1249 34.8942 79.2157 34.8035C79.3065 34.7062 79.4264 34.6575 79.5756 34.6575C79.7312 34.6575 79.8545 34.7029 79.9452 34.7937C80.036 34.8845 80.0814 35.0077 80.0814 35.1634V40.7276H83.0387C83.1878 40.7276 83.3013 40.7633 83.3791 40.8346C83.4634 40.906 83.5056 41.0097 83.5056 41.1459C83.5056 41.2821 83.4634 41.3859 83.3791 41.4572C83.3013 41.5285 83.1878 41.5642 83.0387 41.5642H79.5659Z" fill="#F17336"/>
</svg>
