<svg width="16" height="19" viewBox="0 0 16 19" fill="none" xmlns="http://www.w3.org/2000/svg">
<path d="M11.1999 3.12035H12.7999C13.2242 3.12035 13.6311 3.28891 13.9312 3.58895C14.2312 3.889 14.3998 4.29595 14.3998 4.72028V15.9198C14.3998 16.3441 14.2312 16.7511 13.9312 17.0511C13.6311 17.3512 13.2242 17.5197 12.7999 17.5197H3.20027C2.77594 17.5197 2.369 17.3512 2.06895 17.0511C1.76891 16.7511 1.60034 16.3441 1.60034 15.9198V4.72028C1.60034 4.29595 1.76891 3.889 2.06895 3.58895C2.369 3.28891 2.77594 3.12035 3.20027 3.12035H4.8002" stroke="#ECEEF2" stroke-width="1.5" stroke-linecap="round" stroke-linejoin="round"/>
<path d="M10.3999 1.51929H5.60014C5.15833 1.51929 4.80017 1.87744 4.80017 2.31925V3.91918C4.80017 4.36099 5.15833 4.71915 5.60014 4.71915H10.3999C10.8417 4.71915 11.1999 4.36099 11.1999 3.91918V2.31925C11.1999 1.87744 10.8417 1.51929 10.3999 1.51929Z" stroke="#ECEEF2" stroke-width="1.5" stroke-linecap="round" stroke-linejoin="round"/>
<path d="M10.1474 11.1192H4.00037" stroke="#ECEEF2" stroke-width="1.5" stroke-linecap="round" stroke-linejoin="round"/>
<path d="M11.9037 7.91805H4.00037" stroke="#ECEEF2" stroke-width="1.5" stroke-linecap="round" stroke-linejoin="round"/>
<path d="M11.9037 14.3186H4.00037" stroke="#ECEEF2" stroke-width="1.5" stroke-linecap="round" stroke-linejoin="round"/>
</svg>
