<svg width="18" height="13" viewBox="0 0 18 13" fill="none" xmlns="http://www.w3.org/2000/svg">
<path d="M16.6651 2.66591C16.5787 2.32078 16.4027 2.00455 16.155 1.74917C15.9073 1.49379 15.5966 1.3083 15.2542 1.21144C14.0034 0.906006 9 0.906006 9 0.906006C9 0.906006 3.99662 0.906006 2.74578 1.24053C2.40343 1.33739 2.09271 1.52288 1.84499 1.77826C1.59727 2.03364 1.42133 2.34987 1.33494 2.695C1.10602 3.96443 0.994042 5.25219 1.00042 6.54208C0.992256 7.84168 1.10424 9.13925 1.33494 10.4182C1.43018 10.7527 1.61006 11.0569 1.8572 11.3015C2.10434 11.546 2.41039 11.7228 2.74578 11.8145C3.99662 12.1491 9 12.1491 9 12.1491C9 12.1491 14.0034 12.1491 15.2542 11.8145C15.5966 11.7177 15.9073 11.5322 16.155 11.2768C16.4027 11.0214 16.5787 10.7052 16.6651 10.3601C16.8922 9.10019 17.0042 7.82225 16.9996 6.54208C17.0077 5.24247 16.8958 3.9449 16.6651 2.66591V2.66591Z" stroke="#ECEEF2" stroke-width="1.5" stroke-linecap="round" stroke-linejoin="round"/>
<path d="M7.36374 8.91945L11.5453 6.54139L7.36374 4.16333V8.91945Z" fill="#ECEEF2"/>
</svg>
