<svg width="16" height="18" viewBox="0 0 16 18" fill="none" xmlns="http://www.w3.org/2000/svg">
<path d="M9.6001 0.885498H3.2001C2.77575 0.885498 2.36878 1.05407 2.06873 1.35413C1.76867 1.65419 1.6001 2.06115 1.6001 2.4855V15.2855C1.6001 15.7098 1.76867 16.1168 2.06873 16.4169C2.36878 16.7169 2.77575 16.8855 3.2001 16.8855H12.8001C13.2244 16.8855 13.6314 16.7169 13.9315 16.4169C14.2315 16.1168 14.4001 15.7098 14.4001 15.2855V5.6855L9.6001 0.885498Z" stroke="#ECEEF2" stroke-width="1.5" stroke-linecap="round" stroke-linejoin="round"/>
<path d="M9.6001 0.885498V5.6855H14.4001" stroke="#ECEEF2" stroke-width="1.5" stroke-linecap="round" stroke-linejoin="round"/>
<path d="M11.2003 9.68605H4.80029" stroke="#ECEEF2" stroke-width="1.5" stroke-linecap="round" stroke-linejoin="round"/>
<path d="M11.2003 12.8855H4.80029" stroke="#ECEEF2" stroke-width="1.5" stroke-linecap="round" stroke-linejoin="round"/>
<path d="M6.40029 6.4866H5.60029H4.80029" stroke="#ECEEF2" stroke-width="1.5" stroke-linecap="round" stroke-linejoin="round"/>
</svg>
