<svg width="18" height="18" viewBox="0 0 18 18" fill="none" xmlns="http://www.w3.org/2000/svg">
<path d="M14.865 1.45581H3.135C2.23201 1.45581 1.5 2.18782 1.5 3.09081V14.8208C1.5 15.7238 2.23201 16.4558 3.135 16.4558H14.865C15.768 16.4558 16.5 15.7238 16.5 14.8208V3.09081C16.5 2.18782 15.768 1.45581 14.865 1.45581Z" stroke="#ECEEF2" stroke-width="1.5" stroke-linecap="round" stroke-linejoin="round"/>
<path d="M5.25 1.45581V16.4558" stroke="#ECEEF2" stroke-width="1.5" stroke-linecap="round" stroke-linejoin="round"/>
<path d="M12.75 1.45581V16.4558" stroke="#ECEEF2" stroke-width="1.5" stroke-linecap="round" stroke-linejoin="round"/>
<path d="M1.5 8.95581H5.25" stroke="#ECEEF2" stroke-width="1.5" stroke-linecap="round" stroke-linejoin="round"/>
<path d="M7.71289 10.7397L10.8491 8.95615L7.71289 7.17261V10.7397Z" fill="#ECEEF2"/>
<path d="M1.5 5.20581H5.25" stroke="#ECEEF2" stroke-width="1.5" stroke-linecap="round" stroke-linejoin="round"/>
<path d="M1.5 12.7058H5.25" stroke="#ECEEF2" stroke-width="1.5" stroke-linecap="round" stroke-linejoin="round"/>
<path d="M12.75 12.7058H16.5" stroke="#ECEEF2" stroke-width="1.5" stroke-linecap="round" stroke-linejoin="round"/>
<path d="M12.75 5.20581H16.5" stroke="#ECEEF2" stroke-width="1.5" stroke-linecap="round" stroke-linejoin="round"/>
<path d="M12.75 8.95581H16.5" stroke="#ECEEF2" stroke-width="1.5" stroke-linecap="round" stroke-linejoin="round"/>
</svg>
