<svg width="16" height="15" viewBox="0 0 16 15" fill="none" xmlns="http://www.w3.org/2000/svg">
<path fill-rule="evenodd" clip-rule="evenodd" d="M6.45094 0.917277C6.45094 1.13113 6.6243 1.30449 6.83816 1.30449H13.0336C13.6752 1.30449 14.1953 1.82458 14.1953 2.46615V12.5338C14.1953 13.1754 13.6752 13.6955 13.0336 13.6955H6.83816C6.6243 13.6955 6.45094 13.8688 6.45094 14.0827C6.45094 14.2965 6.6243 14.4699 6.83816 14.4699H13.0336C14.1029 14.4699 14.9697 13.6031 14.9697 12.5338V2.46615C14.9697 1.39688 14.1029 0.53006 13.0336 0.53006H6.83816C6.6243 0.53006 6.45094 0.703423 6.45094 0.917277ZM4.78867 9.93702L2.35195 7.5003H10.7103C10.9242 7.5003 11.0976 7.32694 11.0976 7.11309C11.0976 6.89923 10.9242 6.72587 10.7103 6.72587H2.35195L4.78867 4.28915C4.93989 4.13793 4.93989 3.89276 4.78867 3.74154C4.63745 3.59032 4.39228 3.59032 4.24106 3.74154L1.14332 6.83928C0.992103 6.9905 0.992103 7.23567 1.14332 7.38689L4.24106 10.4846C4.39228 10.6358 4.63745 10.6358 4.78867 10.4846C4.93989 10.3334 4.93989 10.0882 4.78867 9.93702Z" fill="#ECEEF2"/>
<path d="M2.35195 7.5003V7.12083H1.43582L2.08362 7.76863L2.35195 7.5003ZM4.78867 9.93702L4.52034 10.2053L4.52034 10.2054L4.78867 9.93702ZM2.35195 6.72587L2.08362 6.45754L1.43582 7.10534H2.35195V6.72587ZM4.78867 4.28915L4.52034 4.02082H4.52034L4.78867 4.28915ZM4.78867 3.74154L5.057 3.47321L5.057 3.47321L4.78867 3.74154ZM4.24106 3.74154L3.97273 3.47321H3.97273L4.24106 3.74154ZM1.14332 6.83928L0.874993 6.57095L0.874992 6.57095L1.14332 6.83928ZM1.14332 7.38689L0.874992 7.65522L0.874993 7.65522L1.14332 7.38689ZM4.24106 10.4846L3.97273 10.753L3.97273 10.753L4.24106 10.4846ZM4.78867 10.4846L5.057 10.753L5.057 10.753L4.78867 10.4846ZM6.83816 0.925022C6.83388 0.925022 6.83041 0.921554 6.83041 0.917277H6.07147C6.07147 1.34071 6.41473 1.68397 6.83816 1.68397V0.925022ZM13.0336 0.925022H6.83816V1.68397H13.0336V0.925022ZM14.5748 2.46615C14.5748 1.61501 13.8848 0.925022 13.0336 0.925022V1.68397C13.4656 1.68397 13.8158 2.03416 13.8158 2.46615H14.5748ZM14.5748 12.5338V2.46615H13.8158V12.5338H14.5748ZM13.0336 14.0749C13.8848 14.0749 14.5748 13.3849 14.5748 12.5338H13.8158C13.8158 12.9658 13.4656 13.316 13.0336 13.316V14.0749ZM6.83816 14.0749H13.0336V13.316H6.83816V14.0749ZM6.83041 14.0827C6.83041 14.0784 6.83388 14.0749 6.83816 14.0749V13.316C6.41473 13.316 6.07147 13.6592 6.07147 14.0827H6.83041ZM6.83816 14.0904C6.83388 14.0904 6.83041 14.0869 6.83041 14.0827H6.07147C6.07147 14.5061 6.41473 14.8494 6.83816 14.8494V14.0904ZM13.0336 14.0904H6.83816V14.8494H13.0336V14.0904ZM14.5903 12.5338C14.5903 13.3935 13.8933 14.0904 13.0336 14.0904V14.8494C14.3125 14.8494 15.3492 13.8127 15.3492 12.5338H14.5903ZM14.5903 2.46615V12.5338H15.3492V2.46615H14.5903ZM13.0336 0.909533C13.8933 0.909533 14.5903 1.60645 14.5903 2.46615H15.3492C15.3492 1.1873 14.3125 0.150587 13.0336 0.150587V0.909533ZM6.83816 0.909533H13.0336V0.150587H6.83816V0.909533ZM6.83041 0.917277C6.83041 0.913 6.83388 0.909533 6.83816 0.909533V0.150587C6.41473 0.150587 6.07147 0.493846 6.07147 0.917277H6.83041ZM2.08362 7.76863L4.52034 10.2053L5.057 9.66869L2.62028 7.23198L2.08362 7.76863ZM10.7103 7.12083H2.35195V7.87978H10.7103V7.12083ZM10.7181 7.11309C10.7181 7.11736 10.7146 7.12083 10.7103 7.12083V7.87978C11.1338 7.87978 11.477 7.53652 11.477 7.11309H10.7181ZM10.7103 7.10534C10.7146 7.10534 10.7181 7.10881 10.7181 7.11309H11.477C11.477 6.68965 11.1338 6.3464 10.7103 6.3464V7.10534ZM2.35195 7.10534H10.7103V6.3464H2.35195V7.10534ZM4.52034 4.02082L2.08362 6.45754L2.62028 6.9942L5.057 4.55748L4.52034 4.02082ZM4.52034 4.00987C4.52337 4.01289 4.52337 4.0178 4.52034 4.02082L5.057 4.55748C5.35641 4.25807 5.35641 3.77262 5.057 3.47321L4.52034 4.00987ZM4.50939 4.00987C4.51241 4.00684 4.51732 4.00684 4.52034 4.00987L5.057 3.47321C4.75759 3.1738 4.27214 3.1738 3.97273 3.47321L4.50939 4.00987ZM1.41165 7.10761L4.50939 4.00987L3.97273 3.47321L0.874993 6.57095L1.41165 7.10761ZM1.41165 7.11856C1.40862 7.11554 1.40862 7.11063 1.41165 7.10761L0.874992 6.57095C0.575581 6.87037 0.575581 7.35581 0.874992 7.65522L1.41165 7.11856ZM4.50939 10.2163L1.41165 7.11856L0.874993 7.65522L3.97273 10.753L4.50939 10.2163ZM4.52034 10.2163C4.51732 10.2193 4.51241 10.2193 4.50939 10.2163L3.97273 10.753C4.27214 11.0524 4.75759 11.0524 5.057 10.753L4.52034 10.2163ZM4.52034 10.2054C4.52336 10.2084 4.52337 10.2133 4.52034 10.2163L5.057 10.753C5.35641 10.4535 5.35641 9.96811 5.057 9.66869L4.52034 10.2054Z" fill="#ECEEF2"/>
</svg>
