<svg width="18" height="17" viewBox="0 0 18 17" fill="none" xmlns="http://www.w3.org/2000/svg">
<path d="M3.47686 12.6366H2.68786C2.26935 12.6366 1.86798 12.4703 1.57205 12.1744C1.27612 11.8785 1.10986 11.4771 1.10986 11.0586V3.16858C1.10986 2.75006 1.27612 2.34869 1.57205 2.05276C1.86798 1.75683 2.26935 1.59058 2.68786 1.59058H15.3119C15.7304 1.59058 16.1317 1.75683 16.4277 2.05276C16.7236 2.34869 16.8899 2.75006 16.8899 3.16858V11.0586C16.8899 11.4771 16.7236 11.8785 16.4277 12.1744C16.1317 12.4703 15.7304 12.6366 15.3119 12.6366H14.5229" stroke="#ECEEF2" stroke-width="1.5" stroke-linecap="round" stroke-linejoin="round"/>
<path d="M8.99969 11.0588L12.9447 15.7928H5.05469L8.99969 11.0588Z" stroke="#ECEEF2" stroke-width="1.5" stroke-linecap="round" stroke-linejoin="round"/>
</svg>
