<svg width="18" height="16" viewBox="0 0 18 16" fill="none" xmlns="http://www.w3.org/2000/svg">
<path d="M1.5 1.15918H6C6.79565 1.15918 7.55871 1.47525 8.12132 2.03786C8.68393 2.60047 9 3.36353 9 4.15918V14.6592C9 14.0624 8.76295 13.4901 8.34099 13.0682C7.91903 12.6462 7.34674 12.4092 6.75 12.4092H1.5V1.15918Z" stroke="#ECEEF2" stroke-width="1.5" stroke-linecap="round" stroke-linejoin="round"/>
<path d="M16.5 1.15918H12C11.2044 1.15918 10.4413 1.47525 9.87868 2.03786C9.31607 2.60047 9 3.36353 9 4.15918V14.6592C9 14.0624 9.23705 13.4901 9.65901 13.0682C10.081 12.6462 10.6533 12.4092 11.25 12.4092H16.5V1.15918Z" stroke="#ECEEF2" stroke-width="1.5" stroke-linecap="round" stroke-linejoin="round"/>
</svg>
