<svg width="30" height="30" viewBox="0 0 30 30" fill="none" xmlns="http://www.w3.org/2000/svg">
<path d="M20 21.25H8.75V13.125C8.75 10 11.25 7.5 14.375 7.5C17.5 7.5 20 10 20 13.125V21.25ZM22.5 20V13.125C22.5 9.2875 19.825 6.075 16.25 5.225V4.375C16.25 3.87772 16.0525 3.40081 15.7008 3.04917C15.3492 2.69754 14.8723 2.5 14.375 2.5C13.8777 2.5 13.4008 2.69754 13.0492 3.04917C12.6975 3.40081 12.5 3.87772 12.5 4.375V5.225C8.9125 6.075 6.25 9.2875 6.25 13.125V20L3.75 22.5V23.75H25V22.5L22.5 20ZM14.375 27.5C15.038 27.5 15.6739 27.2366 16.1428 26.7678C16.6116 26.2989 16.875 25.663 16.875 25H11.875C11.875 25.663 12.1384 26.2989 12.6072 26.7678C13.0761 27.2366 13.712 27.5 14.375 27.5Z" fill="#FEFEFE"/>
</svg>
