<svg width="16" height="16" viewBox="0 0 16 16" fill="none" xmlns="http://www.w3.org/2000/svg">
<path d="M12.9314 7.22287H3.13145C2.35825 7.22287 1.73145 7.84967 1.73145 8.62287V13.5229C1.73145 14.2961 2.35825 14.9229 3.13145 14.9229H12.9314C13.7046 14.9229 14.3314 14.2961 14.3314 13.5229V8.62287C14.3314 7.84967 13.7046 7.22287 12.9314 7.22287Z" stroke="#654EF9" stroke-width="1.5" stroke-linecap="round" stroke-linejoin="round"/>
<path d="M4.53162 7.22285V4.42285C4.53162 3.49459 4.90037 2.60436 5.55674 1.94798C6.21312 1.2916 7.10336 0.922852 8.03162 0.922852C8.95987 0.922852 9.85011 1.2916 10.5065 1.94798C11.1629 2.60436 11.5316 3.49459 11.5316 4.42285V7.22285" stroke="#654EF9" stroke-width="1.5" stroke-linecap="round" stroke-linejoin="round"/>
</svg>
