<svg width="255" height="255" viewBox="0 0 255 255" fill="none" xmlns="http://www.w3.org/2000/svg">
<path d="M63.2876 238.646H3.46404" stroke="black" stroke-width="0.390701" stroke-miterlimit="10" stroke-linecap="round"/>
<path d="M238.88 238.646H217.526" stroke="black" stroke-width="0.390701" stroke-miterlimit="10" stroke-linecap="round"/>
<path d="M252.11 238.646H242.205" stroke="black" stroke-width="0.390701" stroke-miterlimit="10" stroke-linecap="round"/>
<path d="M154.756 238.646H120.876" stroke="black" stroke-width="0.390701" stroke-miterlimit="10" stroke-linecap="round"/>
<path d="M191.531 226.19C160.938 236.853 127.186 233.278 99.3032 216.781C85.5416 208.64 68.8812 199.556 54.7392 194.078C24.3867 182.322 -7.34832 119.268 40.9553 103.025C89.259 86.7826 70.9765 57.8815 116.387 39.3066C161.797 20.7318 151.278 67.509 199.292 73.6075C247.306 79.706 247.114 183.781 218.02 211.064C210.747 217.885 201.423 222.742 191.531 226.19Z" fill="#FEEED3"/>
<path opacity="0.5" d="M85.2425 253.335C81.6725 252.796 78.0744 252.464 74.4661 252.341C68.1131 252.126 58.1145 251.13 58.2015 246.984C58.3231 240.904 64.0346 234.111 76.7323 235.89C89.43 237.668 115.898 233.313 117.438 241.544C118.888 249.282 113.474 257.579 85.2425 253.335Z" fill="#FEEED3"/>
<path d="M101.071 185.416C100.581 187.079 100.092 189.286 99.6116 191.863C96.5111 208.5 93.7921 240.534 93.7921 240.534L86.3354 240.388C86.3354 240.388 85.3522 237.655 86.6142 234.462C87.4873 232.25 85.3039 215.664 83.8889 203.782C83.4937 200.478 83.1552 197.535 82.9665 195.369C82.8512 194.079 82.7873 193.063 82.7894 192.408C82.8166 186.7 85.8018 180.208 86.2169 177.91C86.6026 175.777 83.9214 163.574 83.5388 161.85C83.5084 161.719 83.4927 161.649 83.4927 161.649L103.303 160.065C103.303 160.065 104.724 173.024 101.071 185.416Z" fill="white" stroke="black" stroke-width="0.419271" stroke-linecap="round" stroke-linejoin="round"/>
<path d="M88.2641 164.114L87.894 172.29C87.894 172.29 98.0719 173.659 103.401 167.992L103.216 161.924L88.2641 164.114Z" fill="#E3E3E3"/>
<path d="M87.023 186.746C86.6655 187.956 86.3092 189.457 85.957 191.18C85.7316 192.273 85.5083 193.454 85.2893 194.709C84.8082 197.45 84.3365 200.536 83.8868 203.782C81.5441 220.649 79.7433 241.863 79.7433 241.863L72.2866 241.719C72.2866 241.719 71.3034 238.984 72.5664 235.791C73.8295 232.598 68.7144 199.447 68.7406 193.739C68.7406 193.53 68.7469 193.32 68.7553 193.103C68.9827 187.557 71.7677 181.452 72.1671 179.241C72.5864 176.943 69.4418 162.978 69.4418 162.978L83.5357 161.85L89.2493 161.394C89.2493 161.394 90.6748 174.349 87.023 186.746Z" fill="white" stroke="black" stroke-width="0.419271" stroke-linecap="round" stroke-linejoin="round"/>
<path d="M70.9474 168.669C70.9474 168.669 78.6054 174.404 89.1858 170.741L89.343 165.185L70.4412 165.768L70.9474 168.669Z" fill="#E3E3E3"/>
<path d="M121.629 86.05C121.629 86.05 124.754 82.6402 125.147 81.3468C125.54 80.0533 127.652 79.7745 125.856 83.2146C124.059 86.6548 122.436 88.0258 122.436 88.0258C122.436 88.0258 126.72 84.3834 127.04 83.3708C127.36 82.3583 128.788 83.636 126.563 85.8592C124.338 88.0824 123.706 88.7375 123.706 88.7375C123.706 88.7375 127.025 85.6926 127.228 86.3372C127.43 86.9818 126.273 89.0331 123.14 90.1044C123.14 90.1044 122.361 92.7248 120.323 93.773C118.286 94.8212 116.681 91.4838 117.396 90.2794C118.111 89.075 121.629 86.05 121.629 86.05Z" fill="white" stroke="black" stroke-width="0.419271" stroke-miterlimit="10" stroke-linecap="round"/>
<path d="M99.6108 191.863C96.5102 208.5 93.7912 240.534 93.7912 240.534L86.3345 240.388C86.3345 240.388 85.3513 237.655 86.6133 234.462C87.4864 232.25 85.3031 215.664 83.888 203.782C81.5453 220.649 79.7446 241.863 79.7446 241.863L72.2878 241.718C72.2878 241.718 71.3046 238.984 72.5677 235.791C73.8307 232.598 68.7156 199.446 68.7418 193.739C68.7418 193.529 68.7481 193.32 68.7565 193.103C73.0194 195.673 78.1146 196.486 82.9656 195.369C83.7525 195.193 84.5287 194.972 85.2905 194.708L85.9582 191.179C85.9582 191.179 94.2755 194.941 99.6108 191.863Z" fill="white" stroke="black" stroke-width="0.419271" stroke-linecap="round" stroke-linejoin="round"/>
<path d="M112.435 94.4448C112.435 94.4448 116.048 88.8276 118.506 87.0174C120.964 85.2072 122.915 79.7639 123.658 80.4537C124.401 81.1434 123.224 83.7387 121.142 86.8842C119.061 90.0298 118.659 91.4763 119.301 92.035C119.942 92.5937 124.84 91.7855 125.695 93.253C125.695 93.253 125.685 93.7865 124.501 93.753C123.316 93.7194 121.023 94.4343 120.595 95.1638C120.168 95.8934 115.782 97.4761 115.782 97.4761L102.247 122.461L93.5007 116.108L112.435 94.4448Z" fill="white" stroke="black" stroke-width="0.419271" stroke-miterlimit="10" stroke-linecap="round"/>
<path d="M65.6975 137.015C65.6975 137.015 69.1985 215.303 71.864 231.707C71.864 231.707 73.4327 232.181 76.3577 232.181C79.2827 232.181 80.0739 232.495 81.5005 231.707C82.9271 230.92 84.3993 204.173 84.3993 204.173C84.3993 204.173 84.7587 230.567 86.1762 231.137C87.5938 231.707 94.2337 231.779 95.4631 230.92C96.5206 212.703 107.433 173.004 103.625 139.263C103.256 133.139 65.6975 137.015 65.6975 137.015Z" fill="#21345F" stroke="black" stroke-width="0.419271" stroke-miterlimit="10" stroke-linecap="round"/>
<path d="M94.1907 44.4487C94.1907 44.4487 97.0596 46.5231 96.7734 51.2336C96.4873 55.9441 100.199 57.92 99.4987 59.5142C99.222 60.1431 97.2682 60.1117 96.9579 60.9817C96.6476 61.8517 96.047 66.8725 93.8731 68.0779C91.6992 69.2833 84.6439 69.4321 84.6439 69.4321C84.6439 69.4321 83.7969 75.3093 84.9374 77.3773C86.0778 79.4454 91.5881 84.7303 91.5881 84.7303C91.5881 84.7303 72.5175 81.7116 73.8004 79.9202C75.0834 78.1289 78.1315 72.5473 75.8968 66.5108C73.6621 60.4744 70.5877 54.4054 76.9292 49.4664C83.2707 44.5273 94.1907 44.4487 94.1907 44.4487Z" fill="white" stroke="black" stroke-width="0.419271" stroke-linecap="round" stroke-linejoin="round"/>
<path d="M79.087 79.7734C79.087 79.7734 76.7181 78.0344 77.2369 75.6289C77.7558 73.2233 78.3805 61.491 80.1027 58.272C81.8248 55.0531 85.2597 48.1361 90.0384 46.5974C94.817 45.0586 84.4316 43.283 81.1288 45.5031C77.826 47.7231 68.8347 52.8865 70.8881 57.2165C72.9415 61.5465 77.522 65.4049 76.8564 72.2883C76.8564 72.2883 76.4372 77.3961 73.4698 79.9495C70.5024 82.5028 79.087 79.7734 79.087 79.7734Z" fill="#E3E3E3"/>
<path d="M84.378 69.6731C84.378 69.6731 80.3069 68.8775 80.3069 69.0809C80.3069 69.2371 81.441 71.541 82.9902 74.3522C83.0547 74.469 83.1565 74.5609 83.2794 74.613C83.4022 74.6651 83.539 74.6746 83.6678 74.6398C83.7966 74.605 83.9101 74.528 83.99 74.4212C84.0699 74.3143 84.1117 74.1837 84.1086 74.0503C84.0783 72.5863 84.1683 71.1223 84.378 69.6731Z" fill="#E3E3E3"/>
<path d="M96.139 43.8207C93.3089 36.7811 83.6101 37.4058 79.3147 37.9729C77.5401 38.2077 75.3997 39.0924 73.4973 40.0515C70.8865 41.3644 68.7627 43.4761 67.4348 46.0793C66.1069 48.6825 65.6441 51.6415 66.1139 54.5258L66.1359 54.6589C67.0122 59.8736 68.5467 62.3924 75.3358 68.2853C75.3358 68.2853 76.2613 69.8397 76.9646 66.0264C77.668 62.2132 77.5034 59.8317 77.5034 59.8317C77.5034 59.8317 73.5203 57.7175 75.493 55.0101C77.4657 52.3026 79.4761 54.639 79.4761 54.639C79.4761 54.639 79.7905 55.6243 80.692 54.5258C81.3398 53.7365 81.4456 50.5312 84.2694 48.1937C85.6457 47.0544 87.414 46.5166 89.1959 46.6005C89.2776 46.6005 89.3562 46.6057 89.4296 46.6057C93.1066 46.5827 95.5646 46.0334 95.5646 46.0334C96.8245 45.8164 96.139 43.8207 96.139 43.8207Z" fill="#3F3D56"/>
<path d="M75.2778 77.2797C75.2778 77.2797 75.5325 79.9725 80.7283 80.1024C85.9241 80.2324 85.9965 78.8446 85.9965 78.8446C85.9965 78.8446 86.3748 77.9013 87.5394 79.0197C88.7039 80.1381 92.2038 78.81 94.0612 81.9808C95.9185 85.1515 100.77 92.9144 100.698 95.6816C100.627 98.4488 102.086 130.435 105.966 136.179C105.966 136.179 106.386 140.656 94.8557 142.621C83.3257 144.587 74.6698 146.174 63.2876 140.097C63.2876 140.097 65.0695 122.091 65.7372 111.324C66.4049 100.557 68.7507 81.9808 72.0127 79.6287C75.2746 77.2765 74.9109 76.4065 75.2778 77.2797Z" fill="#654EF9" stroke="black" stroke-width="0.419271" stroke-miterlimit="10" stroke-linecap="round"/>
<path d="M96.3259 91.6902C96.3259 91.6902 96.8689 94.2185 98.7011 99.5747L96.3259 91.6902Z" fill="#4052F2"/>
<path d="M96.3259 91.6902C96.3259 91.6902 96.8689 94.2185 98.7011 99.5747" stroke="black" stroke-width="0.419271" stroke-miterlimit="10" stroke-linecap="round"/>
<path d="M75.5725 80.109C75.5725 80.109 80.8973 82.5607 84.6309 80.9937L75.5725 80.109Z" fill="#4052F2"/>
<path d="M75.5725 80.109C75.5725 80.109 80.8973 82.5607 84.6309 80.9937" stroke="black" stroke-width="0.419271" stroke-miterlimit="10" stroke-linecap="round"/>
<path d="M88.3088 100.223L89.9933 126.157L107.652 119.192L105.968 93.2592L88.3088 100.223Z" fill="#0B065A" stroke="black" stroke-width="0.419271" stroke-miterlimit="10" stroke-linecap="round"/>
<path d="M105.967 93.2594L104.752 92.6095L87.093 99.5747L88.3079 100.223L105.967 93.2594Z" fill="white" stroke="black" stroke-width="0.419271" stroke-miterlimit="10" stroke-linecap="round"/>
<path d="M87.093 99.5746L88.3079 100.223L89.9923 126.157L88.7775 125.508L87.093 99.5746Z" fill="white" stroke="black" stroke-width="0.419271" stroke-miterlimit="10" stroke-linecap="round"/>
<path d="M73.6663 114.549C73.6663 114.549 79.8505 114.735 83.9699 111.299L84.2508 114.322C84.2508 114.322 88.7968 109.703 94.9223 107.746C94.9223 107.746 96.7577 102.734 99.2587 100.864C100.146 100.2 101.44 100.864 101.44 100.864C101.893 100.654 101.456 100.823 102.191 100.536C103.188 100.148 103.503 102.133 103.089 102.737C103.089 102.737 104.208 104.399 103.595 105.304C103.595 105.304 104.551 105.496 104.014 107.136C104.014 107.136 104.272 107.779 104.119 108.019C102.756 110.181 97.8551 110.651 96.8646 111.921C95.8741 113.191 85.1009 127.081 79.1587 126.445C75.0153 125.999 73.6663 114.549 73.6663 114.549Z" fill="white" stroke="black" stroke-width="0.419271" stroke-linecap="round" stroke-linejoin="round"/>
<path d="M79.7566 85.8235C79.7566 85.8235 83.6527 85.1548 84.1715 91.6294C84.6904 98.104 86.7626 108.77 86.7626 108.77C86.7626 108.77 85.0069 110.664 83.9692 111.3" fill="#5842E2"/>
<path d="M79.7566 85.8235C79.7566 85.8235 83.6527 85.1548 84.1715 91.6294C84.6904 98.104 86.7626 108.77 86.7626 108.77C86.7626 108.77 85.0069 110.664 83.9692 111.3" stroke="black" stroke-width="0.419271" stroke-miterlimit="10" stroke-linecap="round"/>
<path d="M70.478 103.529L70.5713 113.501C70.5713 113.501 71.2778 114.549 73.6666 114.549" fill="#5842E2"/>
<path d="M70.478 103.529L70.5713 113.501C70.5713 113.501 71.2778 114.549 73.6666 114.549" stroke="black" stroke-width="0.419271" stroke-miterlimit="10" stroke-linecap="round"/>
<path d="M79.5679 122.34C79.5679 122.34 81.419 117.414 84.2511 114.326L79.5679 122.34Z" fill="white"/>
<path d="M79.5679 122.34C79.5679 122.34 81.419 117.414 84.2511 114.326" stroke="black" stroke-width="0.419271" stroke-linecap="round" stroke-linejoin="round"/>
<path d="M84.6425 69.4236C84.6425 69.4236 81.2705 69.2266 80.4561 68.9299L84.6425 69.4236Z" fill="white"/>
<path d="M84.6425 69.4236C84.6425 69.4236 81.2705 69.2266 80.4561 68.9299" stroke="black" stroke-width="0.419271" stroke-linecap="round" stroke-linejoin="round"/>
<path d="M101.44 100.869C101.44 100.869 100.029 102.049 99.4163 102.737L101.44 100.869Z" fill="white"/>
<path d="M101.44 100.869C101.44 100.869 100.029 102.049 99.4163 102.737" stroke="black" stroke-width="0.419271" stroke-linecap="round" stroke-linejoin="round"/>
<path d="M103.088 102.737L101.934 104.192" stroke="black" stroke-width="0.419271" stroke-linecap="round" stroke-linejoin="round"/>
<path d="M103.595 105.304C103.595 105.304 103.218 106.088 102.939 106.352L103.595 105.304Z" fill="white"/>
<path d="M103.595 105.304C103.595 105.304 103.218 106.088 102.939 106.352" stroke="black" stroke-width="0.419271" stroke-linecap="round" stroke-linejoin="round"/>
<path d="M104.017 107.136L103.268 107.879" stroke="black" stroke-width="0.419271" stroke-linecap="round" stroke-linejoin="round"/>
<path d="M85.8165 195.242C85.8165 195.242 85.0168 199.794 84.4141 204.315L85.8165 195.242Z" fill="white"/>
<path d="M85.8165 195.242C85.8165 195.242 85.0168 199.794 84.4141 204.315" stroke="black" stroke-width="0.419271" stroke-linecap="round" stroke-linejoin="round"/>
<path d="M92.6063 233.351C91.0613 233.384 88.6368 233.24 86.5331 232.25C86.5331 232.25 85.1778 232.623 85.4063 234.083C85.6348 235.544 82.4022 243.422 85.007 244.251C87.6117 245.08 105.413 245.348 109.291 244.615C113.17 243.881 114.102 239.114 110.759 238.142C107.415 237.17 100.195 235.888 97.8357 234.752C95.8693 233.809 95.3976 232.446 94.6712 232.808C94.031 233.138 93.3261 233.323 92.6063 233.351Z" fill="#0B065A" stroke="black" stroke-width="0.419271" stroke-miterlimit="10" stroke-linecap="round"/>
<path d="M78.8388 234.598C77.2928 234.632 74.8683 234.486 72.7594 233.497C72.7594 233.497 71.4051 233.87 71.6326 235.33C71.86 236.79 68.6285 244.668 71.2332 245.497C73.838 246.326 91.6413 246.597 95.5133 245.857C99.3853 245.117 100.324 240.356 96.9808 239.384C93.6371 238.413 86.4161 237.131 84.0577 235.996C82.0913 235.052 81.6186 233.69 80.8933 234.051C80.2564 234.381 79.5553 234.567 78.8388 234.598Z" fill="#0B065A" stroke="black" stroke-width="0.419271" stroke-miterlimit="10" stroke-linecap="round"/>
<path d="M83.7864 111.749L83.9898 114.173C83.9898 114.173 81.1314 117.615 79.8819 121.113C79.8819 121.113 79.5486 121.389 79.4103 119.808C79.2719 118.226 75.0247 114.728 75.0247 114.728C75.0247 114.728 81.7236 113.792 83.7864 111.749Z" fill="#E3E3E3"/>
<path d="M94.3707 45.6143C94.3707 45.6143 91.0396 35.7331 73.9417 42.2287" stroke="white" stroke-width="0.209636" stroke-miterlimit="10" stroke-linecap="round"/>
<path d="M88.3199 45.6142C88.3199 45.6142 82.3798 40.2852 72.6653 44.8375" stroke="white" stroke-width="0.209636" stroke-miterlimit="10" stroke-linecap="round"/>
<path d="M77.1618 46.6697C77.1618 46.6697 70.7941 46.3363 69.4451 53.442" stroke="white" stroke-width="0.209636" stroke-miterlimit="10" stroke-linecap="round"/>
<path d="M94.2885 55.0519C94.5797 55.0519 94.8157 54.6915 94.8157 54.2469C94.8157 53.8023 94.5797 53.4419 94.2885 53.4419C93.9973 53.4419 93.7612 53.8023 93.7612 54.2469C93.7612 54.6915 93.9973 55.0519 94.2885 55.0519Z" fill="black"/>
<path d="M91.2734 51.4432C91.2734 51.4432 93.8708 48.9454 95.5364 50.6382L91.2734 51.4432Z" fill="white"/>
<path d="M91.2734 51.4432C91.2734 51.4432 93.8708 48.9454 95.5364 50.6382" stroke="black" stroke-width="0.419271" stroke-linecap="round" stroke-linejoin="round"/>
<path d="M96.3263 63.6387C96.3263 63.6387 93.2865 64.8221 91.8191 61.8568L96.3263 63.6387Z" fill="white"/>
<path d="M96.3263 63.6387C96.3263 63.6387 93.2865 64.8221 91.8191 61.8568" stroke="black" stroke-width="0.419271" stroke-linecap="round" stroke-linejoin="round"/>
<path opacity="0.5" d="M188.935 244.003C186.065 243.564 183.174 243.272 180.274 243.128C175.174 242.878 167.14 242.013 167.143 239.055C167.148 234.72 171.626 229.956 181.841 231.419C192.056 232.883 213.222 230.18 214.585 236.079C215.866 241.626 211.649 247.465 188.935 244.003Z" fill="#FEEED3"/>
<path d="M206.761 149.916C206.761 149.916 205.546 155.04 207.058 161.038C208.409 166.389 210.623 191.388 209.791 207.116C209.614 210.473 209.582 213.835 209.725 217.193C209.938 222.221 209.74 229.645 207 232.044C202.722 235.792 199.303 235.461 199.303 235.461C199.303 235.461 204.33 228.449 203.483 215.735C203.081 209.691 196.351 176.618 193.903 169.411C191.455 162.205 190.831 153.009 190.831 153.009L206.761 149.916Z" fill="white" stroke="black" stroke-width="0.483549" stroke-miterlimit="10" stroke-linecap="round"/>
<path d="M209.691 216.341C209.691 216.341 210.899 215.66 212.097 217.224C213.295 218.789 214.655 234.98 214.655 234.98L213.241 235.255L211.815 227.911C211.815 227.911 211.815 235.72 210.62 236.379C209.426 237.038 195.167 241.131 195.68 238.902C196.192 236.673 199.548 234.649 199.548 234.649C199.548 234.649 201.735 234.839 204.549 232.825C207.363 230.811 210.174 228.56 209.691 216.341Z" fill="#0B065A" stroke="black" stroke-width="0.426721" stroke-miterlimit="10" stroke-linecap="round"/>
<path d="M186.274 152.792C186.274 152.792 184.219 157.643 184.72 163.802C185.165 169.304 183.198 194.324 179.764 209.696C179.032 212.977 178.443 216.286 178.025 219.621C177.4 224.616 175.969 231.906 172.872 233.815C168.037 236.794 164.715 235.905 164.715 235.905C164.715 235.905 170.837 229.829 172.112 217.147C172.716 211.123 171.572 177.39 170.355 169.88C169.139 162.371 171.893 132.972 171.893 132.972L186.274 152.792Z" fill="white" stroke="black" stroke-width="0.483549" stroke-miterlimit="10" stroke-linecap="round"/>
<path d="M178.138 218.783C178.138 218.783 179.437 218.31 180.364 220.053C181.292 221.796 179.939 237.987 179.939 237.987L178.499 238.022L178.312 230.544C178.312 230.544 177.018 238.246 175.728 238.697C174.439 239.147 159.7 240.818 160.576 238.704C161.453 236.589 165.094 235.152 165.094 235.152C165.094 235.152 167.219 235.702 170.328 234.185C173.438 232.668 176.581 230.911 178.138 218.783Z" fill="#0B065A" stroke="black" stroke-width="0.426721" stroke-miterlimit="10" stroke-linecap="round"/>
<path d="M189.533 8.25783C189.533 8.25783 184.205 11.9981 181.849 17.2035C179.493 22.4089 178.299 20.5883 178.716 26.1298C179.133 31.6713 180.91 37.1523 184.364 37.9066C187.817 38.661 189.706 38.7359 189.706 38.7359C189.706 38.7359 189.542 44.6594 189.171 45.9045C188.746 47.3249 185.545 46.1741 184.819 47.6719C183.942 49.4683 185.481 53.8855 184.417 55.1258C182.165 57.7502 185.773 67.9616 190.127 66.0395C191.578 65.3988 197.554 60.4013 197.925 56.1485C198.241 52.5291 200.197 48.049 200.197 48.049C200.197 48.049 198.656 41.1887 200.172 39.3367C201.688 37.4847 208.008 28.6986 207.183 26.3208C206.359 23.9429 198.326 3.23618 189.533 8.25783Z" fill="white" stroke="black" stroke-width="0.483549" stroke-miterlimit="10" stroke-linecap="round"/>
<path d="M187.76 30.2254L180.615 28.2622C180.615 28.2622 182.295 35.1394 187.76 30.2254Z" fill="white" stroke="black" stroke-width="0.483549" stroke-linecap="round" stroke-linejoin="round"/>
<path d="M183.569 56.0773C183.569 56.0773 186.937 59.5346 195.094 58.5095C203.25 57.4844 184.124 89.1254 180.667 82.2034C177.209 75.2814 183.569 56.0773 183.569 56.0773Z" fill="#654EF9"/>
<path d="M189.92 8.80309C189.92 8.80309 193.298 9.90437 196.699 15.9064C200.027 21.7827 196.805 28.2756 200.046 28.2828C202.706 28.2889 203.001 31.0512 201.487 32.0461C198.51 34.0032 199.411 40.218 199.411 40.218C199.411 40.218 202.538 35.038 203.934 34.6874C205.33 34.3369 210.033 27.2215 202.797 18.5962C195.56 9.97086 195.987 3.68714 189.92 8.80309Z" fill="#E3E3E3"/>
<path d="M215.629 19.2246C215.742 12.878 212.848 6.08658 203.177 2.36325C185.279 -4.52732 187.643 9.76396 187.643 9.76396C191.29 7.87933 197.255 11.2315 199.165 17.7619C201.075 24.2922 199.649 27.1463 199.649 27.1463C202.358 26.6156 203.128 28.1279 203.5 30.0549C203.872 31.9818 200.087 34.4951 200.087 34.4951C202.232 39.663 206.005 38.1483 210.324 33.227C211.07 33.7153 211.914 34.0359 212.796 34.1666C213.678 34.2974 214.578 34.2352 215.434 33.9843C216.29 33.7334 217.081 33.2998 217.753 32.7135C218.425 32.1271 218.962 31.4019 219.327 30.588C219.327 30.588 225.988 21.0137 215.629 19.2246ZM215.371 22.1259C215.371 22.1259 222.481 20.7321 219.681 29.5532C220.069 27.9978 219.836 26.3524 219.032 24.9659C218.227 23.5793 216.914 22.5606 215.371 22.1259Z" fill="#3F3D56"/>
<path d="M189.706 38.7346C189.706 38.7346 193.187 39.0235 193.669 38.8409" stroke="black" stroke-width="0.483549" stroke-miterlimit="10" stroke-linecap="round"/>
<path d="M190.124 7.69079C190.124 7.69079 205.072 0.284029 212.972 15.2366" stroke="white" stroke-width="0.241774" stroke-miterlimit="10" stroke-linecap="round"/>
<path d="M189.951 39.0274C189.951 39.0274 192.797 39.3779 193.879 39.0926C194.961 38.8073 189.558 44.7514 189.558 44.7514C189.558 44.7514 189.993 40.9422 189.951 39.0274Z" fill="#E3E3E3"/>
<path d="M183.753 20.4767C184.035 20.0602 184.037 19.5681 183.756 19.3777C183.476 19.1872 183.019 19.3705 182.736 19.7871C182.454 20.2036 182.452 20.6957 182.733 20.8861C183.013 21.0766 183.47 20.8933 183.753 20.4767Z" fill="black"/>
<path d="M190.94 24.8896C191.223 24.4731 191.224 23.981 190.944 23.7906C190.663 23.6001 190.206 23.7834 189.924 24.2C189.641 24.6165 189.639 25.1086 189.92 25.299C190.201 25.4895 190.657 25.3062 190.94 24.8896Z" fill="black"/>
<path d="M185.774 21.2254C185.774 21.2254 183.63 23.9394 182.731 24.7711C182.731 24.7711 181.978 25.2365 184.025 26.3136" fill="white"/>
<path d="M185.774 21.2254C185.774 21.2254 183.63 23.9394 182.731 24.7711C182.731 24.7711 181.978 25.2365 184.025 26.3136" stroke="black" stroke-width="0.483549" stroke-miterlimit="10" stroke-linecap="round"/>
<path d="M183.544 15.1316C183.544 15.1316 185.018 14.9636 186.895 16.3066L183.544 15.1316Z" fill="white"/>
<path d="M183.544 15.1316C183.544 15.1316 185.018 14.9636 186.895 16.3066" stroke="black" stroke-width="0.483549" stroke-miterlimit="10" stroke-linecap="round"/>
<path d="M191.897 19.5947C191.897 19.5947 193.334 19.9573 194.615 21.8794L191.897 19.5947Z" fill="white"/>
<path d="M191.897 19.5947C191.897 19.5947 193.334 19.9573 194.615 21.8794" stroke="black" stroke-width="0.483549" stroke-miterlimit="10" stroke-linecap="round"/>
<path d="M199.259 10.2222C199.259 10.2222 202.628 8.59989 206.15 12.2023" stroke="white" stroke-width="0.241774" stroke-miterlimit="10" stroke-linecap="round"/>
<path d="M212.043 117.848C218.39 134.067 213.131 144.692 213.131 169.136C213.131 169.136 206.915 170.972 189.163 172.191C171.411 173.409 165.668 169.136 165.668 169.136C162.771 143.158 164.176 124.126 167.768 117.848H212.043Z" fill="#F07336" stroke="black" stroke-width="0.483549" stroke-linecap="round" stroke-linejoin="round"/>
<path d="M191.056 138.403C183.28 137.585 175.197 133.06 172.128 130.9L169.428 118.795H177.226L198.689 119.315L215.177 136.025L214.022 148.523C213.858 151.168 213.03 162.848 212.882 168.938C212.496 169.093 207.828 170.135 203.766 170.521C203.482 146.656 195.175 139.156 191.056 138.403Z" fill="#E05918"/>
<path d="M199.794 47.1968C199.794 47.1968 188.375 63.0137 182.496 72.8092C182.496 72.8092 186.056 48.9944 188.187 46.6855C188.187 46.6855 181.951 46.4969 179.157 47.0155C174.652 47.852 165.798 72.8092 165.798 72.8092C165.798 72.8092 169.271 75.0504 173.46 75.0541C173.46 75.0541 160.932 116.428 160.74 137.939C160.74 137.939 170.576 141.13 177.198 140.265C177.198 140.265 179.599 127.396 181.327 120.674C181.327 120.674 182.479 128.169 182.096 131.525C181.713 134.881 181.712 141.225 181.712 141.225C181.712 141.225 186.669 146.295 198.482 144.085C210.295 141.875 213.464 137.844 221.338 137.074C221.338 137.074 218.169 124.443 217.591 121.223C217.013 118.004 213.172 93.5885 213.172 93.5885L217.591 74.6962L219.992 77.5782C219.992 77.5782 228.251 72.7754 229.979 70.7118C229.979 70.7118 220.279 52.609 215.093 51.3602C209.907 50.1114 202.225 48.494 201.201 47.7819C200.177 47.0699 200.019 46.8523 199.794 47.1968Z" fill="#F07336" stroke="black" stroke-width="0.483549" stroke-linecap="round" stroke-linejoin="round"/>
<path d="M203.813 48.9629C203.813 48.9629 192.5 77.0269 191.156 77.6035C190.138 78.0387 186.607 74.3782 182.531 73.8995C181.138 73.7182 179.724 73.9867 178.494 74.6659C178.494 74.6659 177.125 75.2957 177.761 73.2237C177.941 72.6362 178.283 71.8299 178.863 70.7323C179.598 69.3396 181.08 67.912 182.925 66.4891L182.562 72.8381C188.089 72.1128 189.563 75.5859 189.563 75.5859L203.129 48.7308L203.813 48.9629Z" fill="#E05918"/>
<path d="M195.569 100.49C195.569 100.49 188.037 137.2 193.477 140.687C198.917 144.173 218.461 135.548 218.461 135.548L218.098 128.862L213.289 94.7436L195.569 100.49Z" fill="#E05918"/>
<path d="M209.318 54.727C209.318 54.727 195.809 90.8215 198.113 94.8494C200.417 98.8774 212.576 94.8494 212.576 94.8494L217.523 74.6927L217.593 74.266L219.85 77.1044C219.85 77.1044 220.333 74.3458 222.377 72.5687C222.377 72.5687 209.878 62.199 211.878 57.204C213.879 52.2089 216.574 52.3914 216.574 52.3914C216.574 52.3914 214.354 50.1925 212.135 52.175C209.296 54.7028 209.318 54.727 209.318 54.727Z" fill="#E05918"/>
<path d="M213.575 68.8561L217.593 74.6973" stroke="black" stroke-width="0.483549" stroke-miterlimit="10" stroke-linecap="round"/>
<path d="M173.666 74.9429C173.666 74.9429 174.728 69.0195 175.16 62.5109" stroke="black" stroke-width="0.483549" stroke-miterlimit="10" stroke-linecap="round"/>
<path d="M182.323 84.8539L182.669 73.7565L182.703 72.6963C188.23 71.971 189.705 75.4441 189.705 75.4441L203.27 48.589L203.375 48.381" stroke="black" stroke-width="0.483549" stroke-linecap="round" stroke-linejoin="round"/>
<path d="M184.183 46.5536C184.183 46.5536 178.902 62.663 177.077 73.7532C177.077 73.7532 180.064 70.7129 182.701 72.6906" fill="#E05918"/>
<path d="M184.183 46.5536C184.183 46.5536 178.902 62.663 177.077 73.7532C177.077 73.7532 180.064 70.7129 182.701 72.6906" stroke="black" stroke-width="0.483549" stroke-linecap="round" stroke-linejoin="round"/>
<path d="M167.542 72.6967L164.213 57.523C164.213 57.523 166.268 53.0804 165.206 49.1817C164.393 46.1801 168.504 44.2435 165.366 44.4031C163.881 44.4792 163.003 45.6119 162.491 46.7749C162.349 47.09 162.144 47.3728 161.889 47.6059C161.634 47.8391 161.334 48.0178 161.007 48.1309C160.681 48.2441 160.335 48.2894 159.99 48.2641C159.645 48.2388 159.309 48.1434 159.003 47.9838L156.643 46.6129C155.149 45.6301 153.073 44.6122 153.073 44.6122C151.793 43.5508 149.906 43.0177 149.135 43.2111C148.619 43.3405 148.547 44.0573 149.014 44.3088C150.536 45.155 153.258 46.6745 154.396 47.424C154.419 47.4383 154.435 47.4604 154.443 47.4862C154.45 47.5119 154.448 47.5395 154.436 47.5636C154.424 47.5876 154.404 47.6066 154.379 47.6168C154.355 47.6269 154.327 47.6276 154.302 47.6187C152.828 47.1146 149.111 45.8646 147.713 45.572C145.685 45.1574 145.424 46.5222 146.512 47.1883C146.512 47.1883 145.907 47.2004 145.638 47.5679C145.368 47.9354 145.41 48.46 145.925 48.6559C147.942 49.4247 150.849 49.6302 152.526 50.3773C152.548 50.3874 152.566 50.4048 152.576 50.4264C152.587 50.4481 152.59 50.4728 152.584 50.4963C152.579 50.5198 152.566 50.5408 152.547 50.5557C152.528 50.5705 152.504 50.5784 152.48 50.578C151.188 50.5308 147.556 50.4692 146.971 51.2271C146.971 51.2271 146.819 51.4314 147.185 51.6756C148.407 52.4916 152.366 52.5351 152.531 52.679C154.131 54.0873 159.221 59.0232 159.221 59.0232C159.221 59.0232 158.261 69.8752 158.548 79.6707C158.836 89.4662 160.374 98.2051 167 95.901C169.762 94.9339 170.632 90.883 171.492 86.7136C172.655 81.0839 173.668 74.9331 173.668 74.9331L167.542 72.6967Z" fill="white" stroke="black" stroke-width="0.483549" stroke-miterlimit="10" stroke-linecap="round"/>
<path d="M159.454 59.566C159.454 59.566 160.521 59.8078 161.012 59.8549C161.503 59.9021 159.668 75.6162 158.899 81.3088C158.899 81.3088 158.434 72.189 159.454 59.566Z" fill="#E3E3E3"/>
<path d="M167.942 73.1236C167.942 73.1236 172.778 88.6201 165.975 95.8902C165.975 95.8902 169.268 96.5624 171.192 86.808C173.027 77.4997 173.305 75.1242 173.305 75.1242L167.942 73.1236Z" fill="#E3E3E3"/>
<path d="M168.886 89.9192C170.776 83.9328 167.542 72.6964 167.542 72.6964" stroke="black" stroke-width="0.483549" stroke-miterlimit="10" stroke-linecap="round"/>
<path d="M146.51 47.1928C146.51 47.1928 151.536 47.8492 153.906 49.1621L146.51 47.1928Z" fill="white"/>
<path d="M146.51 47.1928C146.51 47.1928 151.536 47.8492 153.906 49.1621" stroke="black" stroke-width="0.483549" stroke-miterlimit="10" stroke-linecap="round"/>
<path d="M159.22 59.028C159.22 59.028 159.956 59.7534 160.661 59.7268L159.22 59.028Z" fill="white"/>
<path d="M159.22 59.028C159.22 59.028 159.956 59.7534 160.661 59.7268" stroke="black" stroke-width="0.483549" stroke-miterlimit="10" stroke-linecap="round"/>
<path d="M159.489 48.1785C159.489 48.1785 160.804 49.0247 161.988 49.2906L159.489 48.1785Z" fill="white"/>
<path d="M159.489 48.1785C159.489 48.1785 160.804 49.0247 161.988 49.2906" stroke="black" stroke-width="0.483549" stroke-miterlimit="10" stroke-linecap="round"/>
<path d="M200.404 134.562C200.404 134.562 201.39 133.011 201.539 127.015" stroke="black" stroke-width="0.483549" stroke-miterlimit="10" stroke-linecap="round"/>
<path d="M201.54 123.814C201.54 123.814 202.307 119.716 202.307 112.29V103.838" stroke="black" stroke-width="0.483549" stroke-miterlimit="10" stroke-linecap="round"/>
<path d="M182.145 90.2011C182.145 90.2011 181.706 96.6226 181.635 107.781L182.145 90.2011Z" fill="#FCAA23"/>
<path d="M182.145 90.2011C182.145 90.2011 181.706 96.6226 181.635 107.781" stroke="black" stroke-width="0.483549" stroke-linecap="round" stroke-linejoin="round"/>
<path d="M229.77 70.8796C229.77 70.8796 220.31 70.3054 220.099 77.5623L225.069 83.412C225.069 83.412 208.615 91.671 206.309 91.9273C205.628 92.0023 205.437 91.9926 203.991 91.7569C203.991 91.7569 202.246 89.2303 200.197 89.5289C198.148 89.8275 197.245 89.7453 196.989 90.0886C196.075 91.3132 195.891 92.2646 195.891 92.2646C195.891 92.2646 193.928 92.099 192.899 92.8932C191.491 93.9812 192.992 95.0039 192.992 95.0039C192.701 95.6156 192.499 96.5404 193.467 97.9572C193.467 97.9572 192.992 99.623 194.435 100.496C194.435 100.496 194.516 101.408 195.791 102.012C196.224 102.216 197.818 102.406 198.918 102.041C201.81 101.081 205.848 99.0476 207.331 97.8882C209.38 96.2877 231.725 91.8705 236.206 88.5413C240.687 85.212 229.77 70.8796 229.77 70.8796Z" fill="white" stroke="black" stroke-width="0.483549" stroke-linecap="round" stroke-linejoin="round"/>
<path d="M222.709 72.8443C222.709 72.8443 221.898 75.3261 222.923 77.1189C223.948 78.9116 227.126 82.2046 227.126 82.2046L225.185 83.0738L220.405 77.5033C220.405 77.5033 219.919 75.2234 222.709 72.8443Z" fill="#E3E3E3"/>
<path d="M192.896 95.046C192.896 95.046 195.441 95.2165 196.465 95.2479L192.896 95.046Z" fill="white"/>
<path d="M192.896 95.046C192.896 95.046 195.441 95.2165 196.465 95.2479" stroke="black" stroke-width="0.483549" stroke-linecap="round" stroke-linejoin="round"/>
<path d="M194.579 100.474C194.579 100.474 196.595 100.658 197.619 100.69L194.579 100.474Z" fill="white"/>
<path d="M194.579 100.474C194.579 100.474 196.595 100.658 197.619 100.69" stroke="black" stroke-width="0.483549" stroke-linecap="round" stroke-linejoin="round"/>
<path d="M193.624 97.9994C193.624 97.9994 195.862 98.1493 196.986 97.9994H193.624Z" fill="white"/>
<path d="M193.624 97.9994C193.624 97.9994 195.862 98.1493 196.986 97.9994" stroke="black" stroke-width="0.483549" stroke-linecap="round" stroke-linejoin="round"/>
<path d="M195.888 92.2609L199.449 91.8438" stroke="black" stroke-width="0.483549" stroke-linecap="round" stroke-linejoin="round"/>
<path d="M225.065 83.4156C226.822 82.4901 228.68 81.772 230.603 81.2759" stroke="black" stroke-width="0.483549" stroke-miterlimit="10" stroke-linecap="round"/>
</svg>
