<svg width="17" height="18" viewBox="0 0 17 18" fill="none" xmlns="http://www.w3.org/2000/svg">
<path d="M12.8811 5.57203C12.8811 4.29873 12.3753 3.07758 11.4749 2.17723C10.5746 1.27687 9.35341 0.771057 8.08011 0.771057C6.80682 0.771057 5.58567 1.27687 4.68532 2.17723C3.78496 3.07758 3.27915 4.29873 3.27915 5.57203C3.27915 11.1732 0.878662 12.7735 0.878662 12.7735H15.2816C15.2816 12.7735 12.8811 11.1732 12.8811 5.57203Z" stroke="#F17336" stroke-width="1.5" stroke-linecap="round" stroke-linejoin="round"/>
<path d="M9.46436 15.9733C9.32368 16.2158 9.12176 16.4171 8.87882 16.557C8.63588 16.6969 8.36044 16.7706 8.08008 16.7706C7.79972 16.7706 7.52428 16.6969 7.28134 16.557C7.0384 16.4171 6.83648 16.2158 6.6958 15.9733" stroke="#F17336" stroke-width="1.5" stroke-linecap="round" stroke-linejoin="round"/>
</svg>
