<svg width="18" height="16" viewBox="0 0 18 16" fill="none" xmlns="http://www.w3.org/2000/svg">
<path d="M3.55694 11.8092H2.76794C2.34943 11.8092 1.94806 11.643 1.65213 11.3471C1.35619 11.0511 1.18994 10.6498 1.18994 10.2312V2.34124C1.18994 1.92273 1.35619 1.52136 1.65213 1.22543C1.94806 0.929498 2.34943 0.763245 2.76794 0.763245H15.3919C15.8105 0.763245 16.2118 0.929498 16.5078 1.22543C16.8037 1.52136 16.9699 1.92273 16.9699 2.34124V10.2312C16.9699 10.6498 16.8037 11.0511 16.5078 11.3471C16.2118 11.643 15.8105 11.8092 15.3919 11.8092H14.6029" stroke="#F17336" stroke-width="1.5" stroke-linecap="round" stroke-linejoin="round"/>
<path d="M9.07977 10.2314L13.0248 14.9654H5.13477L9.07977 10.2314Z" stroke="#F17336" stroke-width="1.5" stroke-linecap="round" stroke-linejoin="round"/>
</svg>
