<svg width="360" height="300" viewBox="0 0 360 300" fill="none" xmlns="http://www.w3.org/2000/svg">
<mask id="mask0" mask-type="alpha" maskUnits="userSpaceOnUse" x="0" y="0" width="360" height="300">
<rect width="360" height="300" fill="#C4C4C4"/>
</mask>
<g mask="url(#mask0)">
<path opacity="0.8" d="M345.306 297.174C345.306 297.174 284.524 288.433 294.527 230.613C304.53 172.792 310.209 169.461 291.99 101.604C273.771 33.7469 388.617 -41.9531 445.551 27.6597C502.486 97.2724 533.557 51.8411 573.574 92.1513C613.59 132.462 587.24 249.63 542.829 297.174H345.306Z" fill="#FFF2D1"/>
<path opacity="0.8" d="M96.1261 288.284C73.5449 297.591 49.1821 299.637 25.664 294.201C-13.5443 285.145 -67.8541 266.137 -65.9721 230.535C-63.0378 175.03 -58.0254 171.063 -83.0293 110.486C-108.033 49.9091 -7.57836 -38.2811 54.388 18.0178C116.354 74.3167 140.698 27.1621 183.274 58.6856C199.239 70.509 207.57 93.842 209.807 121.094C215.442 189.707 179.538 253.883 123.108 277.156L96.1261 288.284Z" fill="#FFF2D1"/>
<path d="M52.5387 241.804H69.6672C69.8106 241.804 69.9268 241.688 69.9268 241.544V224.416C69.9268 224.272 69.8106 224.156 69.6672 224.156H52.5387C52.3954 224.156 52.2791 224.272 52.2791 224.416V241.544C52.2791 241.688 52.3954 241.804 52.5387 241.804Z" stroke="#0B065A" stroke-width="0.494471" stroke-miterlimit="10" stroke-linecap="round"/>
<path d="M60.166 238.88C59.969 238.88 59.7743 238.837 59.5961 238.753C59.4178 238.669 59.2604 238.546 59.135 238.394L52.4832 230.359C52.3666 230.224 52.2781 230.068 52.2229 229.898C52.1676 229.729 52.1468 229.55 52.1616 229.372C52.1764 229.195 52.2265 229.022 52.309 228.864C52.3915 228.706 52.5047 228.566 52.642 228.452C52.7793 228.339 52.9379 228.253 53.1085 228.202C53.2791 228.15 53.4583 228.133 53.6356 228.152C53.8128 228.171 53.9846 228.224 54.1408 228.31C54.297 228.396 54.4344 228.512 54.5451 228.652L60.0214 235.266L71.8343 216.628C71.9261 216.474 72.0476 216.341 72.1917 216.235C72.3358 216.13 72.4996 216.054 72.6735 216.013C72.8473 215.972 73.0277 215.965 73.2039 215.995C73.3801 216.024 73.5487 216.089 73.6996 216.185C73.8505 216.28 73.9808 216.405 74.0827 216.552C74.1846 216.699 74.2561 216.864 74.293 217.039C74.3298 217.214 74.3313 217.394 74.2974 217.57C74.2634 217.745 74.1947 217.912 74.0953 218.06L61.2971 238.255C61.184 238.433 61.0302 238.582 60.8484 238.689C60.6667 238.797 60.462 238.86 60.2513 238.873C60.2233 238.878 60.1948 238.88 60.166 238.88Z" fill="#F17336"/>
<path d="M117.331 197.727H134.459C134.603 197.727 134.719 197.61 134.719 197.467V180.338C134.719 180.195 134.603 180.079 134.459 180.079H117.331C117.187 180.079 117.071 180.195 117.071 180.338V197.467C117.071 197.61 117.187 197.727 117.331 197.727Z" stroke="#0B065A" stroke-width="0.494471" stroke-miterlimit="10" stroke-linecap="round"/>
<path d="M124.958 194.803C124.761 194.803 124.566 194.759 124.388 194.675C124.21 194.591 124.052 194.469 123.927 194.317L117.275 186.282C117.163 186.147 117.079 185.99 117.027 185.822C116.975 185.654 116.957 185.478 116.974 185.303C116.99 185.128 117.041 184.958 117.123 184.802C117.205 184.647 117.318 184.509 117.453 184.397C117.588 184.285 117.745 184.201 117.913 184.149C118.081 184.097 118.257 184.079 118.432 184.096C118.608 184.112 118.778 184.163 118.933 184.245C119.088 184.327 119.226 184.439 119.338 184.575L124.814 191.189L136.622 172.553C136.813 172.253 137.114 172.041 137.461 171.963C137.807 171.886 138.171 171.949 138.471 172.139C138.77 172.329 138.983 172.631 139.06 172.977C139.138 173.324 139.075 173.687 138.885 173.987L126.085 194.18C125.972 194.358 125.818 194.507 125.637 194.615C125.455 194.722 125.25 194.785 125.039 194.798L124.958 194.803Z" fill="#F17336"/>
<path d="M201.445 150.092H218.574C218.717 150.092 218.833 149.976 218.833 149.832V132.704C218.833 132.56 218.717 132.444 218.574 132.444H201.445C201.302 132.444 201.185 132.56 201.185 132.704V149.832C201.185 149.976 201.302 150.092 201.445 150.092Z" stroke="#0B065A" stroke-width="0.494471" stroke-miterlimit="10" stroke-linecap="round"/>
<path d="M209.072 147.167C208.875 147.167 208.681 147.123 208.503 147.04C208.325 146.956 208.167 146.834 208.041 146.682L201.389 138.647C201.277 138.512 201.193 138.356 201.141 138.188C201.089 138.02 201.071 137.843 201.087 137.668C201.104 137.493 201.155 137.323 201.237 137.167C201.319 137.012 201.431 136.874 201.566 136.762C201.702 136.65 201.858 136.565 202.026 136.514C202.194 136.462 202.37 136.444 202.545 136.46C202.721 136.476 202.891 136.527 203.046 136.609C203.202 136.691 203.339 136.803 203.451 136.939L208.929 143.552L220.741 124.914C220.933 124.619 221.234 124.412 221.578 124.337C221.922 124.262 222.282 124.326 222.579 124.515C222.877 124.703 223.088 125.002 223.167 125.345C223.246 125.688 223.187 126.049 223.002 126.348L210.203 146.543C210.09 146.721 209.936 146.87 209.755 146.977C209.573 147.085 209.368 147.147 209.158 147.161C209.129 147.167 209.101 147.167 209.072 147.167Z" fill="#F17336"/>
<path d="M21.7305 207.983H89.2889V164.461H162.83V118.212H256.462" stroke="#0B065A" stroke-width="0.494471" stroke-miterlimit="10" stroke-linecap="round"/>
<path d="M229.224 84.1797H197.878V84.7478H229.224V84.1797Z" fill="#0B065A"/>
<path d="M229.224 85.946H197.878V86.5142H229.224V85.946Z" fill="#0B065A"/>
<path d="M229.224 87.7144H197.878V88.2825H229.224V87.7144Z" fill="#0B065A"/>
<path d="M229.224 89.481H197.878V90.0491H229.224V89.481Z" fill="#0B065A"/>
<path d="M229.224 91.2473H197.878V91.8155H229.224V91.2473Z" fill="#0B065A"/>
<path d="M214.822 93.0154H197.878V93.5835H214.822V93.0154Z" fill="#0B065A"/>
<path d="M237.341 38.274H236.807V23.6444C236.807 22.5325 236.588 21.4315 236.163 20.4042C235.737 19.3769 235.114 18.4435 234.327 17.6572C233.541 16.871 232.608 16.2473 231.58 15.8218C230.553 15.3963 229.452 15.1772 228.34 15.1772H197.345C196.233 15.1772 195.132 15.3962 194.105 15.8218C193.078 16.2473 192.144 16.871 191.358 17.6572C190.572 18.4435 189.948 19.3769 189.523 20.4042C189.097 21.4315 188.878 22.5325 188.878 23.6444V103.903C188.878 105.015 189.097 106.116 189.523 107.144C189.948 108.171 190.572 109.104 191.358 109.891C192.144 110.677 193.078 111.301 194.105 111.726C195.132 112.152 196.233 112.371 197.345 112.371H228.34C229.452 112.371 230.553 112.152 231.58 111.726C232.608 111.301 233.541 110.677 234.327 109.891C235.114 109.104 235.737 108.171 236.163 107.144C236.588 106.116 236.807 105.015 236.807 103.903V48.6876H237.341L237.341 38.274Z" stroke="#0B065A" stroke-width="0.783786" stroke-miterlimit="10" stroke-linecap="round"/>
<path d="M228.481 17.5803H224.435C224.621 18.0365 224.692 18.5314 224.642 19.0215C224.592 19.5115 224.422 19.9817 224.147 20.3906C223.872 20.7995 223.501 21.1345 223.066 21.3662C222.632 21.5978 222.147 21.719 221.654 21.719H203.897C203.405 21.719 202.92 21.5978 202.485 21.3662C202.05 21.1345 201.679 20.7995 201.404 20.3906C201.129 19.9817 200.959 19.5115 200.909 19.0215C200.859 18.5314 200.93 18.0365 201.116 17.5803H197.337C196.507 17.5803 195.685 17.7439 194.917 18.0616C194.15 18.3794 193.453 18.8452 192.866 19.4323C192.279 20.0195 191.813 20.7166 191.495 21.4837C191.178 22.2509 191.014 23.0731 191.014 23.9035V104.045C191.014 104.875 191.178 105.697 191.495 106.464C191.813 107.232 192.279 107.929 192.866 108.516C193.453 109.103 194.15 109.569 194.917 109.887C195.685 110.204 196.507 110.368 197.337 110.368H228.481C229.312 110.368 230.134 110.204 230.901 109.887C231.668 109.569 232.365 109.103 232.952 108.516C233.54 107.929 234.005 107.232 234.323 106.464C234.641 105.697 234.804 104.875 234.804 104.045V23.9035C234.804 23.0731 234.641 22.2509 234.323 21.4837C234.005 20.7166 233.54 20.0195 232.952 19.4323C232.365 18.8452 231.668 18.3794 230.901 18.0616C230.134 17.7439 229.312 17.5803 228.481 17.5803Z" fill="#FEFEFE" stroke="#0B065A" stroke-width="0.783786" stroke-miterlimit="10" stroke-linecap="round"/>
<path d="M205.153 38.1775H197.972V30.9966H205.153V38.1775ZM198.172 37.9774H204.953V31.197H198.172V37.9774Z" fill="#2E3338" stroke="black" stroke-width="0.2"/>
<path d="M199.268 34.9204L199.889 34.2538L200.923 35.0813L203.29 32.783L203.857 33.4514L200.877 36.3913L199.268 34.9204Z" fill="#F17336"/>
<path d="M223.216 32.8239C225.235 32.8239 227.063 32.818 228.387 32.8086C229.048 32.8039 229.584 32.7982 229.954 32.792C230.139 32.7889 230.283 32.7856 230.381 32.7822C230.43 32.7805 230.467 32.7787 230.493 32.7769C230.506 32.776 230.516 32.7751 230.524 32.774C230.528 32.7735 230.532 32.7727 230.537 32.7715C230.539 32.771 230.543 32.7697 230.548 32.7671C230.55 32.7658 230.554 32.763 230.559 32.7582C230.563 32.7532 230.569 32.7438 230.569 32.7306C230.569 32.7175 230.563 32.7081 230.559 32.703C230.554 32.6982 230.55 32.6955 230.548 32.6942C230.543 32.6915 230.539 32.6903 230.537 32.6897C230.532 32.6885 230.528 32.6878 230.524 32.6873C230.516 32.6862 230.506 32.6852 230.493 32.6843C230.467 32.6825 230.43 32.6808 230.381 32.6791C230.283 32.6757 230.139 32.6724 229.954 32.6693C229.584 32.663 229.049 32.6574 228.387 32.6527C227.064 32.6432 225.236 32.6374 223.216 32.6374C221.197 32.6374 219.368 32.6432 218.045 32.6527C217.383 32.6574 216.848 32.663 216.478 32.6693C216.293 32.6724 216.149 32.6757 216.051 32.6791C216.002 32.6808 215.964 32.6825 215.939 32.6843C215.926 32.6852 215.915 32.6862 215.908 32.6873C215.904 32.6878 215.899 32.6885 215.895 32.6897C215.893 32.6903 215.889 32.6915 215.884 32.6942C215.882 32.6955 215.878 32.6982 215.873 32.703C215.869 32.7081 215.863 32.7175 215.863 32.7306C215.863 32.7438 215.869 32.7532 215.873 32.7582C215.878 32.763 215.882 32.7658 215.884 32.7671C215.889 32.7697 215.893 32.771 215.895 32.7715C215.899 32.7727 215.904 32.7735 215.908 32.774C215.915 32.7751 215.926 32.776 215.939 32.7769C215.964 32.7787 216.002 32.7805 216.051 32.7822C216.149 32.7856 216.293 32.7889 216.478 32.792C216.848 32.7982 217.384 32.8039 218.046 32.8086C219.369 32.818 221.197 32.8239 223.216 32.8239Z" fill="#0B065A" stroke="#2E3338" stroke-width="0.0821425"/>
<path d="M223.216 34.3163C225.235 34.3163 227.063 34.3104 228.387 34.301C229.048 34.2963 229.584 34.2907 229.954 34.2844C230.139 34.2813 230.283 34.278 230.381 34.2746C230.43 34.2729 230.467 34.2712 230.493 34.2694C230.506 34.2685 230.516 34.2675 230.524 34.2664C230.528 34.2659 230.532 34.2652 230.537 34.2639C230.539 34.2634 230.543 34.2621 230.548 34.2595C230.55 34.2582 230.554 34.2555 230.559 34.2507C230.563 34.2456 230.569 34.2362 230.569 34.2231C230.569 34.2099 230.563 34.2005 230.559 34.1955C230.554 34.1906 230.55 34.1879 230.548 34.1866C230.543 34.184 230.539 34.1827 230.537 34.1822C230.532 34.181 230.528 34.1802 230.524 34.1797C230.516 34.1786 230.506 34.1776 230.493 34.1768C230.467 34.175 230.43 34.1732 230.381 34.1715C230.283 34.1681 230.139 34.1648 229.954 34.1617C229.584 34.1554 229.049 34.1498 228.387 34.1451C227.064 34.1357 225.236 34.1298 223.216 34.1298C221.197 34.1298 219.368 34.1357 218.045 34.1451C217.383 34.1498 216.848 34.1554 216.478 34.1617C216.293 34.1648 216.149 34.1681 216.051 34.1715C216.002 34.1732 215.964 34.175 215.939 34.1768C215.926 34.1776 215.915 34.1786 215.908 34.1797C215.904 34.1802 215.899 34.181 215.895 34.1822C215.893 34.1827 215.889 34.184 215.884 34.1866C215.882 34.1879 215.878 34.1906 215.873 34.1955C215.869 34.2005 215.863 34.2099 215.863 34.2231C215.863 34.2362 215.869 34.2456 215.873 34.2507C215.878 34.2555 215.882 34.2582 215.884 34.2595C215.889 34.2621 215.893 34.2634 215.895 34.2639C215.899 34.2652 215.904 34.2659 215.908 34.2664C215.915 34.2675 215.926 34.2685 215.939 34.2694C215.964 34.2712 216.002 34.2729 216.051 34.2746C216.149 34.278 216.293 34.2813 216.478 34.2844C216.848 34.2907 217.384 34.2963 218.046 34.301C219.369 34.3104 221.197 34.3163 223.216 34.3163Z" fill="#0B065A" stroke="#2E3338" stroke-width="0.0821425"/>
<path d="M223.216 35.8082C225.235 35.8082 227.063 35.8024 228.387 35.793C229.048 35.7882 229.584 35.7826 229.954 35.7764C230.139 35.7732 230.283 35.77 230.381 35.7666C230.43 35.7649 230.467 35.7631 230.493 35.7613C230.506 35.7604 230.516 35.7595 230.524 35.7584C230.528 35.7578 230.532 35.7571 230.537 35.7559C230.539 35.7554 230.543 35.7541 230.548 35.7515C230.55 35.7502 230.554 35.7474 230.559 35.7426C230.563 35.7376 230.569 35.7281 230.569 35.715C230.569 35.7019 230.563 35.6925 230.559 35.6874C230.554 35.6826 230.55 35.6798 230.548 35.6785C230.543 35.6759 230.539 35.6746 230.537 35.6741C230.532 35.6729 230.528 35.6722 230.524 35.6716C230.516 35.6706 230.506 35.6696 230.493 35.6687C230.467 35.6669 230.43 35.6651 230.381 35.6634C230.283 35.66 230.139 35.6568 229.954 35.6536C229.584 35.6474 229.049 35.6418 228.387 35.6371C227.064 35.6276 225.236 35.6218 223.216 35.6218C221.197 35.6218 219.368 35.6276 218.045 35.6371C217.383 35.6418 216.848 35.6474 216.478 35.6536C216.293 35.6568 216.149 35.66 216.051 35.6634C216.002 35.6651 215.964 35.6669 215.939 35.6687C215.926 35.6696 215.915 35.6706 215.908 35.6716C215.904 35.6722 215.899 35.6729 215.895 35.6741C215.893 35.6746 215.889 35.6759 215.884 35.6785C215.882 35.6798 215.878 35.6826 215.873 35.6874C215.869 35.6925 215.863 35.7019 215.863 35.715C215.863 35.7281 215.869 35.7376 215.873 35.7426C215.878 35.7474 215.882 35.7502 215.884 35.7515C215.889 35.7541 215.893 35.7554 215.895 35.7559C215.899 35.7571 215.904 35.7578 215.908 35.7584C215.915 35.7595 215.926 35.7604 215.939 35.7613C215.964 35.7631 216.002 35.7649 216.051 35.7666C216.149 35.77 216.293 35.7732 216.478 35.7764C216.848 35.7826 217.384 35.7882 218.046 35.793C219.369 35.8024 221.197 35.8082 223.216 35.8082Z" fill="#0B065A" stroke="#2E3338" stroke-width="0.0821425"/>
<path d="M223.216 37.3007C225.235 37.3007 227.063 37.2948 228.387 37.2854C229.048 37.2807 229.584 37.275 229.954 37.2688C230.139 37.2657 230.283 37.2624 230.381 37.259C230.43 37.2573 230.467 37.2555 230.493 37.2537C230.506 37.2528 230.516 37.2519 230.524 37.2508C230.528 37.2503 230.532 37.2495 230.537 37.2483C230.539 37.2478 230.543 37.2465 230.548 37.2439C230.55 37.2426 230.554 37.2398 230.559 37.235C230.563 37.23 230.569 37.2206 230.569 37.2074C230.569 37.1943 230.563 37.1849 230.559 37.1798C230.554 37.175 230.55 37.1723 230.548 37.171C230.543 37.1683 230.539 37.1671 230.537 37.1666C230.532 37.1653 230.528 37.1646 230.524 37.1641C230.516 37.163 230.506 37.162 230.493 37.1611C230.467 37.1593 230.43 37.1576 230.381 37.1559C230.283 37.1525 230.139 37.1492 229.954 37.1461C229.584 37.1398 229.049 37.1342 228.387 37.1295C227.064 37.12 225.236 37.1142 223.216 37.1142C221.197 37.1142 219.368 37.12 218.045 37.1295C217.383 37.1342 216.848 37.1398 216.478 37.1461C216.293 37.1492 216.149 37.1525 216.051 37.1559C216.002 37.1576 215.964 37.1593 215.939 37.1611C215.926 37.162 215.915 37.163 215.908 37.1641C215.904 37.1646 215.899 37.1653 215.895 37.1666C215.893 37.1671 215.889 37.1683 215.884 37.171C215.882 37.1723 215.878 37.175 215.873 37.1798C215.869 37.1849 215.863 37.1943 215.863 37.2074C215.863 37.2206 215.869 37.23 215.873 37.235C215.878 37.2399 215.882 37.2426 215.884 37.2439C215.889 37.2465 215.893 37.2478 215.895 37.2483C215.899 37.2495 215.904 37.2503 215.908 37.2508C215.915 37.2519 215.926 37.2528 215.939 37.2537C215.964 37.2555 216.002 37.2573 216.051 37.259C216.149 37.2624 216.293 37.2657 216.478 37.2688C216.848 37.275 217.384 37.2807 218.046 37.2854C219.369 37.2948 221.197 37.3007 223.216 37.3007Z" fill="#0B065A" stroke="#2E3338" stroke-width="0.0821425"/>
<path d="M205.153 50.4704H197.972V43.2896H205.153V50.4704ZM198.172 50.2704H204.953V43.49H198.172V50.2704Z" fill="#2E3338" stroke="black" stroke-width="0.2"/>
<path d="M223.216 45.1168C225.235 45.1168 227.063 45.111 228.387 45.1015C229.048 45.0968 229.584 45.0912 229.954 45.085C230.139 45.0818 230.283 45.0786 230.381 45.0752C230.43 45.0734 230.467 45.0717 230.493 45.0699C230.506 45.069 230.516 45.068 230.524 45.0669C230.528 45.0664 230.532 45.0657 230.537 45.0645C230.539 45.064 230.543 45.0627 230.548 45.0601C230.55 45.0588 230.554 45.056 230.559 45.0512C230.563 45.0461 230.569 45.0367 230.569 45.0236C230.569 45.0105 230.563 45.0011 230.559 44.996C230.554 44.9912 230.55 44.9884 230.548 44.9871C230.543 44.9845 230.539 44.9832 230.537 44.9827C230.532 44.9815 230.528 44.9807 230.524 44.9802C230.516 44.9791 230.506 44.9782 230.493 44.9773C230.467 44.9755 230.43 44.9737 230.381 44.972C230.283 44.9686 230.139 44.9653 229.954 44.9622C229.584 44.956 229.049 44.9504 228.387 44.9456C227.064 44.9362 225.236 44.9304 223.216 44.9304C221.197 44.9304 219.368 44.9362 218.045 44.9456C217.383 44.9504 216.848 44.956 216.478 44.9622C216.293 44.9653 216.149 44.9686 216.051 44.972C216.002 44.9737 215.964 44.9755 215.939 44.9773C215.926 44.9782 215.915 44.9791 215.908 44.9802C215.904 44.9807 215.899 44.9815 215.895 44.9827C215.893 44.9832 215.889 44.9845 215.884 44.9871C215.882 44.9884 215.878 44.9912 215.873 44.996C215.869 45.001 215.863 45.0105 215.863 45.0236C215.863 45.0367 215.869 45.0461 215.873 45.0512C215.878 45.056 215.882 45.0588 215.884 45.0601C215.889 45.0627 215.893 45.064 215.895 45.0645C215.899 45.0657 215.904 45.0664 215.908 45.0669C215.915 45.068 215.926 45.069 215.939 45.0699C215.964 45.0717 216.002 45.0734 216.051 45.0752C216.149 45.0786 216.293 45.0818 216.478 45.085C216.848 45.0912 217.384 45.0968 218.046 45.1015C219.369 45.111 221.197 45.1168 223.216 45.1168Z" fill="#0B065A" stroke="#2E3338" stroke-width="0.0821425"/>
<path d="M223.216 46.6093C225.235 46.6093 227.063 46.6034 228.387 46.594C229.048 46.5893 229.584 46.5836 229.954 46.5774C230.139 46.5743 230.283 46.571 230.381 46.5676C230.43 46.5659 230.467 46.5641 230.493 46.5623C230.506 46.5614 230.516 46.5605 230.524 46.5594C230.528 46.5589 230.532 46.5581 230.537 46.5569C230.539 46.5564 230.543 46.5551 230.548 46.5525C230.55 46.5512 230.554 46.5484 230.559 46.5436C230.563 46.5386 230.569 46.5292 230.569 46.516C230.569 46.5029 230.563 46.4935 230.559 46.4884C230.554 46.4836 230.55 46.4809 230.548 46.4796C230.543 46.4769 230.539 46.4757 230.537 46.4751C230.532 46.4739 230.528 46.4732 230.524 46.4727C230.516 46.4716 230.506 46.4706 230.493 46.4697C230.467 46.4679 230.43 46.4662 230.381 46.4645C230.283 46.4611 230.139 46.4578 229.954 46.4547C229.584 46.4484 229.049 46.4428 228.387 46.4381C227.064 46.4286 225.236 46.4228 223.216 46.4228C221.197 46.4228 219.368 46.4286 218.045 46.4381C217.383 46.4428 216.848 46.4484 216.478 46.4547C216.293 46.4578 216.149 46.4611 216.051 46.4645C216.002 46.4662 215.964 46.4679 215.939 46.4697C215.926 46.4706 215.915 46.4716 215.908 46.4727C215.904 46.4732 215.899 46.4739 215.895 46.4751C215.893 46.4757 215.889 46.4769 215.884 46.4796C215.882 46.4809 215.878 46.4836 215.873 46.4884C215.869 46.4935 215.863 46.5029 215.863 46.516C215.863 46.5292 215.869 46.5386 215.873 46.5436C215.878 46.5484 215.882 46.5512 215.884 46.5525C215.889 46.5551 215.893 46.5564 215.895 46.5569C215.899 46.5581 215.904 46.5589 215.908 46.5594C215.915 46.5605 215.926 46.5614 215.939 46.5623C215.964 46.5641 216.002 46.5659 216.051 46.5676C216.149 46.571 216.293 46.5743 216.478 46.5774C216.848 46.5836 217.384 46.5893 218.046 46.594C219.369 46.6034 221.197 46.6093 223.216 46.6093Z" fill="#0B065A" stroke="#2E3338" stroke-width="0.0821425"/>
<path d="M223.216 48.1012C225.235 48.1012 227.063 48.0954 228.387 48.0859C229.048 48.0812 229.584 48.0756 229.954 48.0693C230.139 48.0662 230.283 48.0629 230.381 48.0595C230.43 48.0578 230.467 48.0561 230.493 48.0543C230.506 48.0534 230.516 48.0524 230.524 48.0513C230.528 48.0508 230.532 48.0501 230.537 48.0489C230.539 48.0483 230.543 48.0471 230.548 48.0444C230.55 48.0431 230.554 48.0404 230.559 48.0356C230.563 48.0305 230.569 48.0211 230.569 48.008C230.569 47.9948 230.563 47.9854 230.559 47.9804C230.554 47.9756 230.55 47.9728 230.548 47.9715C230.543 47.9689 230.539 47.9676 230.537 47.9671C230.532 47.9659 230.528 47.9651 230.524 47.9646C230.516 47.9635 230.506 47.9626 230.493 47.9617C230.467 47.9599 230.43 47.9581 230.381 47.9564C230.283 47.953 230.139 47.9497 229.954 47.9466C229.584 47.9404 229.049 47.9347 228.387 47.93C227.064 47.9206 225.236 47.9147 223.216 47.9147C221.197 47.9147 219.368 47.9206 218.045 47.93C217.383 47.9347 216.848 47.9404 216.478 47.9466C216.293 47.9497 216.149 47.953 216.051 47.9564C216.002 47.9581 215.964 47.9599 215.939 47.9617C215.926 47.9626 215.915 47.9635 215.908 47.9646C215.904 47.9651 215.899 47.9659 215.895 47.9671C215.893 47.9676 215.889 47.9689 215.884 47.9715C215.882 47.9728 215.878 47.9756 215.873 47.9804C215.869 47.9854 215.863 47.9948 215.863 48.008C215.863 48.0211 215.869 48.0305 215.873 48.0356C215.878 48.0404 215.882 48.0431 215.884 48.0444C215.889 48.0471 215.893 48.0483 215.895 48.0489C215.899 48.0501 215.904 48.0508 215.908 48.0513C215.915 48.0524 215.926 48.0534 215.939 48.0543C215.964 48.0561 216.002 48.0578 216.051 48.0595C216.149 48.0629 216.293 48.0662 216.478 48.0693C216.848 48.0756 217.384 48.0812 218.046 48.0859C219.369 48.0954 221.197 48.1012 223.216 48.1012Z" fill="#0B065A" stroke="#2E3338" stroke-width="0.0821425"/>
<path d="M223.216 49.5936C225.235 49.5936 227.063 49.5878 228.387 49.5784C229.048 49.5736 229.584 49.568 229.954 49.5618C230.139 49.5586 230.283 49.5554 230.381 49.552C230.43 49.5503 230.467 49.5485 230.493 49.5467C230.506 49.5458 230.516 49.5449 230.524 49.5438C230.528 49.5432 230.532 49.5425 230.537 49.5413C230.539 49.5408 230.543 49.5395 230.548 49.5369C230.55 49.5356 230.554 49.5328 230.559 49.528C230.563 49.523 230.569 49.5135 230.569 49.5004C230.569 49.4873 230.563 49.4779 230.559 49.4728C230.554 49.468 230.55 49.4652 230.548 49.4639C230.543 49.4613 230.539 49.46 230.537 49.4595C230.532 49.4583 230.528 49.4576 230.524 49.457C230.516 49.456 230.506 49.455 230.493 49.4541C230.467 49.4523 230.43 49.4505 230.381 49.4488C230.283 49.4454 230.139 49.4422 229.954 49.439C229.584 49.4328 229.049 49.4272 228.387 49.4224C227.064 49.413 225.236 49.4072 223.216 49.4072C221.197 49.4072 219.368 49.413 218.045 49.4224C217.383 49.4272 216.848 49.4328 216.478 49.439C216.293 49.4422 216.149 49.4454 216.051 49.4488C216.002 49.4505 215.964 49.4523 215.939 49.4541C215.926 49.455 215.915 49.456 215.908 49.457C215.904 49.4576 215.899 49.4583 215.895 49.4595C215.893 49.46 215.889 49.4613 215.884 49.4639C215.882 49.4652 215.878 49.468 215.873 49.4728C215.869 49.4779 215.863 49.4873 215.863 49.5004C215.863 49.5135 215.869 49.523 215.873 49.528C215.878 49.5328 215.882 49.5356 215.884 49.5369C215.889 49.5395 215.893 49.5408 215.895 49.5413C215.899 49.5425 215.904 49.5432 215.908 49.5438C215.915 49.5449 215.926 49.5458 215.939 49.5467C215.964 49.5485 216.002 49.5503 216.051 49.552C216.149 49.5554 216.293 49.5586 216.478 49.5618C216.848 49.568 217.384 49.5736 218.046 49.5784C219.369 49.5878 221.197 49.5936 223.216 49.5936Z" fill="#0B065A" stroke="#2E3338" stroke-width="0.0821425"/>
<path d="M205.153 62.7634H197.972V55.5825H205.153V62.7634ZM198.172 62.5633H204.953V55.783H198.172V62.5633Z" fill="#2E3338" stroke="black" stroke-width="0.2"/>
<path d="M223.216 57.4098C225.235 57.4098 227.063 57.404 228.387 57.3945C229.048 57.3898 229.584 57.3842 229.954 57.3779C230.139 57.3748 230.283 57.3715 230.381 57.3681C230.43 57.3664 230.467 57.3647 230.493 57.3629C230.506 57.362 230.516 57.361 230.524 57.3599C230.528 57.3594 230.532 57.3587 230.537 57.3574C230.539 57.3569 230.543 57.3557 230.548 57.353C230.55 57.3517 230.554 57.349 230.559 57.3442C230.563 57.3391 230.569 57.3297 230.569 57.3166C230.569 57.3034 230.563 57.294 230.559 57.289C230.554 57.2842 230.55 57.2814 230.548 57.2801C230.543 57.2775 230.539 57.2762 230.537 57.2757C230.532 57.2745 230.528 57.2737 230.524 57.2732C230.516 57.2721 230.506 57.2712 230.493 57.2703C230.467 57.2685 230.43 57.2667 230.381 57.265C230.283 57.2616 230.139 57.2583 229.954 57.2552C229.584 57.249 229.049 57.2433 228.387 57.2386C227.064 57.2292 225.236 57.2233 223.216 57.2233C221.197 57.2233 219.368 57.2292 218.045 57.2386C217.383 57.2433 216.848 57.249 216.478 57.2552C216.293 57.2583 216.149 57.2616 216.051 57.265C216.002 57.2667 215.964 57.2685 215.939 57.2703C215.926 57.2712 215.915 57.2721 215.908 57.2732C215.904 57.2737 215.899 57.2745 215.895 57.2757C215.893 57.2762 215.889 57.2775 215.884 57.2801C215.882 57.2814 215.878 57.2841 215.873 57.289C215.869 57.294 215.863 57.3034 215.863 57.3166C215.863 57.3297 215.869 57.3391 215.873 57.3442C215.878 57.349 215.882 57.3517 215.884 57.353C215.889 57.3557 215.893 57.3569 215.895 57.3574C215.899 57.3587 215.904 57.3594 215.908 57.3599C215.915 57.361 215.926 57.362 215.939 57.3629C215.964 57.3647 216.002 57.3664 216.051 57.3681C216.149 57.3715 216.293 57.3748 216.478 57.3779C216.848 57.3842 217.384 57.3898 218.046 57.3945C219.369 57.404 221.197 57.4098 223.216 57.4098Z" fill="#0B065A" stroke="#2E3338" stroke-width="0.0821425"/>
<path d="M223.216 58.9022C225.235 58.9022 227.063 58.8964 228.387 58.8869C229.048 58.8822 229.584 58.8766 229.954 58.8704C230.139 58.8672 230.283 58.864 230.381 58.8606C230.43 58.8589 230.467 58.8571 230.493 58.8553C230.506 58.8544 230.516 58.8534 230.524 58.8524C230.528 58.8518 230.532 58.8511 230.537 58.8499C230.539 58.8494 230.543 58.8481 230.548 58.8455C230.55 58.8442 230.554 58.8414 230.559 58.8366C230.563 58.8315 230.569 58.8221 230.569 58.809C230.569 58.7959 230.563 58.7865 230.559 58.7814C230.554 58.7766 230.55 58.7738 230.548 58.7725C230.543 58.7699 230.539 58.7686 230.537 58.7681C230.532 58.7669 230.528 58.7662 230.524 58.7656C230.516 58.7645 230.506 58.7636 230.493 58.7627C230.467 58.7609 230.43 58.7591 230.381 58.7574C230.283 58.754 230.139 58.7508 229.954 58.7476C229.584 58.7414 229.049 58.7358 228.387 58.731C227.064 58.7216 225.236 58.7158 223.216 58.7158C221.197 58.7158 219.368 58.7216 218.045 58.731C217.383 58.7358 216.848 58.7414 216.478 58.7476C216.293 58.7508 216.149 58.754 216.051 58.7574C216.002 58.7591 215.964 58.7609 215.939 58.7627C215.926 58.7636 215.915 58.7645 215.908 58.7656C215.904 58.7662 215.899 58.7669 215.895 58.7681C215.893 58.7686 215.889 58.7699 215.884 58.7725C215.882 58.7738 215.878 58.7766 215.873 58.7814C215.869 58.7865 215.863 58.7959 215.863 58.809C215.863 58.8221 215.869 58.8316 215.873 58.8366C215.878 58.8414 215.882 58.8442 215.884 58.8455C215.889 58.8481 215.893 58.8494 215.895 58.8499C215.899 58.8511 215.904 58.8518 215.908 58.8524C215.915 58.8534 215.926 58.8544 215.939 58.8553C215.964 58.8571 216.002 58.8589 216.051 58.8606C216.149 58.864 216.293 58.8672 216.478 58.8704C216.848 58.8766 217.384 58.8822 218.046 58.8869C219.369 58.8964 221.197 58.9022 223.216 58.9022Z" fill="#0B065A" stroke="#2E3338" stroke-width="0.0821425"/>
<path d="M223.216 60.3942C225.235 60.3942 227.063 60.3883 228.387 60.3789C229.048 60.3742 229.584 60.3686 229.954 60.3623C230.139 60.3592 230.283 60.3559 230.381 60.3525C230.43 60.3508 230.467 60.349 230.493 60.3472C230.506 60.3464 230.516 60.3454 230.524 60.3443C230.528 60.3438 230.532 60.343 230.537 60.3418C230.539 60.3413 230.543 60.34 230.548 60.3374C230.55 60.3361 230.554 60.3334 230.559 60.3285C230.563 60.3235 230.569 60.3141 230.569 60.3009C230.569 60.2878 230.563 60.2784 230.559 60.2733C230.554 60.2685 230.55 60.2658 230.548 60.2645C230.543 60.2619 230.539 60.2606 230.537 60.2601C230.532 60.2588 230.528 60.2581 230.524 60.2576C230.516 60.2565 230.506 60.2555 230.493 60.2546C230.467 60.2528 230.43 60.2511 230.381 60.2494C230.283 60.246 230.139 60.2427 229.954 60.2396C229.584 60.2333 229.049 60.2277 228.387 60.223C227.064 60.2135 225.236 60.2077 223.216 60.2077C221.197 60.2077 219.368 60.2135 218.045 60.223C217.383 60.2277 216.848 60.2333 216.478 60.2396C216.293 60.2427 216.149 60.246 216.051 60.2494C216.002 60.2511 215.964 60.2528 215.939 60.2546C215.926 60.2555 215.915 60.2565 215.908 60.2576C215.904 60.2581 215.899 60.2588 215.895 60.2601C215.893 60.2606 215.889 60.2619 215.884 60.2645C215.882 60.2658 215.878 60.2685 215.873 60.2733C215.869 60.2784 215.863 60.2878 215.863 60.3009C215.863 60.3141 215.869 60.3235 215.873 60.3286C215.878 60.3334 215.882 60.3361 215.884 60.3374C215.889 60.34 215.893 60.3413 215.895 60.3418C215.899 60.343 215.904 60.3438 215.908 60.3443C215.915 60.3454 215.926 60.3464 215.939 60.3472C215.964 60.349 216.002 60.3508 216.051 60.3525C216.149 60.3559 216.293 60.3592 216.478 60.3623C216.848 60.3686 217.384 60.3742 218.046 60.3789C219.369 60.3883 221.197 60.3942 223.216 60.3942Z" fill="#0B065A" stroke="#2E3338" stroke-width="0.0821425"/>
<path d="M223.216 61.8866C225.235 61.8866 227.063 61.8808 228.387 61.8713C229.048 61.8666 229.584 61.861 229.954 61.8547C230.139 61.8516 230.283 61.8483 230.381 61.8449C230.43 61.8432 230.467 61.8415 230.493 61.8397C230.506 61.8388 230.516 61.8378 230.524 61.8367C230.528 61.8362 230.532 61.8355 230.537 61.8342C230.539 61.8337 230.543 61.8325 230.548 61.8298C230.55 61.8285 230.554 61.8258 230.559 61.821C230.563 61.8159 230.569 61.8065 230.569 61.7934C230.569 61.7802 230.563 61.7708 230.559 61.7658C230.554 61.761 230.55 61.7582 230.548 61.7569C230.543 61.7543 230.539 61.753 230.537 61.7525C230.532 61.7513 230.528 61.7505 230.524 61.75C230.516 61.7489 230.506 61.748 230.493 61.7471C230.467 61.7453 230.43 61.7435 230.381 61.7418C230.283 61.7384 230.139 61.7351 229.954 61.732C229.584 61.7258 229.049 61.7201 228.387 61.7154C227.064 61.706 225.236 61.7001 223.216 61.7001C221.197 61.7001 219.368 61.706 218.045 61.7154C217.383 61.7201 216.848 61.7258 216.478 61.732C216.293 61.7351 216.149 61.7384 216.051 61.7418C216.002 61.7435 215.964 61.7453 215.939 61.7471C215.926 61.748 215.915 61.7489 215.908 61.75C215.904 61.7505 215.899 61.7513 215.895 61.7525C215.893 61.753 215.889 61.7543 215.884 61.7569C215.882 61.7582 215.878 61.761 215.873 61.7658C215.869 61.7708 215.863 61.7802 215.863 61.7934C215.863 61.8065 215.869 61.8159 215.873 61.821C215.878 61.8258 215.882 61.8285 215.884 61.8298C215.889 61.8325 215.893 61.8337 215.895 61.8343C215.899 61.8355 215.904 61.8362 215.908 61.8367C215.915 61.8378 215.926 61.8388 215.939 61.8397C215.964 61.8415 216.002 61.8432 216.051 61.8449C216.149 61.8483 216.293 61.8516 216.478 61.8547C216.848 61.861 217.384 61.8666 218.046 61.8713C219.369 61.8808 221.197 61.8866 223.216 61.8866Z" fill="#0B065A" stroke="#2E3338" stroke-width="0.0821425"/>
<path d="M205.153 75.0564H197.972V67.8755H205.153V75.0564ZM198.172 74.8563H204.953V68.076H198.172V74.8563Z" fill="#2E3338" stroke="black" stroke-width="0.2"/>
<path d="M223.216 69.7028C225.235 69.7028 227.063 69.6969 228.387 69.6875C229.048 69.6828 229.584 69.6771 229.954 69.6709C230.139 69.6678 230.283 69.6645 230.381 69.6611C230.43 69.6594 230.467 69.6576 230.493 69.6558C230.506 69.6549 230.516 69.654 230.524 69.6529C230.528 69.6524 230.532 69.6516 230.537 69.6504C230.539 69.6499 230.543 69.6486 230.548 69.646C230.55 69.6447 230.554 69.6419 230.559 69.6371C230.563 69.6321 230.569 69.6227 230.569 69.6095C230.569 69.5964 230.563 69.587 230.559 69.5819C230.554 69.5771 230.55 69.5744 230.548 69.5731C230.543 69.5704 230.539 69.5692 230.537 69.5687C230.532 69.5674 230.528 69.5667 230.524 69.5662C230.516 69.5651 230.506 69.5641 230.493 69.5632C230.467 69.5614 230.43 69.5597 230.381 69.558C230.283 69.5546 230.139 69.5513 229.954 69.5482C229.584 69.5419 229.049 69.5363 228.387 69.5316C227.064 69.5221 225.236 69.5163 223.216 69.5163C221.197 69.5163 219.368 69.5221 218.045 69.5316C217.383 69.5363 216.848 69.5419 216.478 69.5482C216.293 69.5513 216.149 69.5546 216.051 69.558C216.002 69.5597 215.964 69.5614 215.939 69.5632C215.926 69.5641 215.915 69.5651 215.908 69.5662C215.904 69.5667 215.899 69.5674 215.895 69.5687C215.893 69.5692 215.889 69.5704 215.884 69.5731C215.882 69.5744 215.878 69.5771 215.873 69.5819C215.869 69.587 215.863 69.5964 215.863 69.6095C215.863 69.6227 215.869 69.6321 215.873 69.6371C215.878 69.642 215.882 69.6447 215.884 69.646C215.889 69.6486 215.893 69.6499 215.895 69.6504C215.899 69.6516 215.904 69.6524 215.908 69.6529C215.915 69.654 215.926 69.6549 215.939 69.6558C215.964 69.6576 216.002 69.6594 216.051 69.6611C216.149 69.6645 216.293 69.6678 216.478 69.6709C216.848 69.6771 217.384 69.6828 218.046 69.6875C219.369 69.6969 221.197 69.7028 223.216 69.7028Z" fill="#0B065A" stroke="#2E3338" stroke-width="0.0821425"/>
<path d="M223.216 71.1952C225.235 71.1952 227.063 71.1894 228.387 71.1799C229.048 71.1752 229.584 71.1696 229.954 71.1633C230.139 71.1602 230.283 71.1569 230.381 71.1535C230.43 71.1518 230.467 71.1501 230.493 71.1483C230.506 71.1474 230.516 71.1464 230.524 71.1453C230.528 71.1448 230.532 71.1441 230.537 71.1428C230.539 71.1423 230.543 71.1411 230.548 71.1384C230.55 71.1371 230.554 71.1344 230.559 71.1296C230.563 71.1245 230.569 71.1151 230.569 71.102C230.569 71.0888 230.563 71.0794 230.559 71.0744C230.554 71.0696 230.55 71.0668 230.548 71.0655C230.543 71.0629 230.539 71.0616 230.537 71.0611C230.532 71.0599 230.528 71.0591 230.524 71.0586C230.516 71.0575 230.506 71.0566 230.493 71.0557C230.467 71.0539 230.43 71.0521 230.381 71.0504C230.283 71.047 230.139 71.0437 229.954 71.0406C229.584 71.0344 229.049 71.0287 228.387 71.024C227.064 71.0146 225.236 71.0087 223.216 71.0087C221.197 71.0087 219.368 71.0146 218.045 71.024C217.383 71.0287 216.848 71.0344 216.478 71.0406C216.293 71.0437 216.149 71.047 216.051 71.0504C216.002 71.0521 215.964 71.0539 215.939 71.0557C215.926 71.0566 215.915 71.0575 215.908 71.0586C215.904 71.0591 215.899 71.0599 215.895 71.0611C215.893 71.0616 215.889 71.0629 215.884 71.0655C215.882 71.0668 215.878 71.0696 215.873 71.0744C215.869 71.0794 215.863 71.0888 215.863 71.102C215.863 71.1151 215.869 71.1245 215.873 71.1296C215.878 71.1344 215.882 71.1371 215.884 71.1384C215.889 71.1411 215.893 71.1423 215.895 71.1428C215.899 71.1441 215.904 71.1448 215.908 71.1453C215.915 71.1464 215.926 71.1474 215.939 71.1483C215.964 71.1501 216.002 71.1518 216.051 71.1535C216.149 71.1569 216.293 71.1602 216.478 71.1633C216.848 71.1696 217.384 71.1752 218.046 71.1799C219.369 71.1894 221.197 71.1952 223.216 71.1952Z" fill="#0B065A" stroke="#2E3338" stroke-width="0.0821425"/>
<path d="M223.216 72.6871C225.235 72.6871 227.063 72.6813 228.387 72.6719C229.048 72.6671 229.584 72.6615 229.954 72.6553C230.139 72.6522 230.283 72.6489 230.381 72.6455C230.43 72.6438 230.467 72.642 230.493 72.6402C230.506 72.6393 230.516 72.6384 230.524 72.6373C230.528 72.6368 230.532 72.636 230.537 72.6348C230.539 72.6343 230.543 72.633 230.548 72.6304C230.55 72.6291 230.554 72.6263 230.559 72.6215C230.563 72.6165 230.569 72.607 230.569 72.5939C230.569 72.5808 230.563 72.5714 230.559 72.5663C230.554 72.5615 230.55 72.5588 230.548 72.5575C230.543 72.5548 230.539 72.5535 230.537 72.553C230.532 72.5518 230.528 72.5511 230.524 72.5506C230.516 72.5495 230.506 72.5485 230.493 72.5476C230.467 72.5458 230.43 72.5441 230.381 72.5424C230.283 72.5389 230.139 72.5357 229.954 72.5325C229.584 72.5263 229.049 72.5207 228.387 72.516C227.064 72.5065 225.236 72.5007 223.216 72.5007C221.197 72.5007 219.368 72.5065 218.045 72.516C217.383 72.5207 216.848 72.5263 216.478 72.5325C216.293 72.5357 216.149 72.5389 216.051 72.5424C216.002 72.5441 215.964 72.5458 215.939 72.5476C215.926 72.5485 215.915 72.5495 215.908 72.5506C215.904 72.5511 215.899 72.5518 215.895 72.553C215.893 72.5535 215.889 72.5548 215.884 72.5574C215.882 72.5588 215.878 72.5615 215.873 72.5663C215.869 72.5714 215.863 72.5808 215.863 72.5939C215.863 72.6071 215.869 72.6165 215.873 72.6215C215.878 72.6263 215.882 72.6291 215.884 72.6304C215.889 72.633 215.893 72.6343 215.895 72.6348C215.899 72.636 215.904 72.6368 215.908 72.6373C215.915 72.6384 215.926 72.6393 215.939 72.6402C215.964 72.642 216.002 72.6438 216.051 72.6455C216.149 72.6489 216.293 72.6522 216.478 72.6553C216.848 72.6615 217.384 72.6671 218.046 72.6719C219.369 72.6813 221.197 72.6871 223.216 72.6871Z" fill="#0B065A" stroke="#2E3338" stroke-width="0.0821425"/>
<path d="M223.216 74.1796C225.235 74.1796 227.063 74.1737 228.387 74.1643C229.048 74.1596 229.584 74.1539 229.954 74.1477C230.139 74.1446 230.283 74.1413 230.381 74.1379C230.43 74.1362 230.467 74.1344 230.493 74.1326C230.506 74.1317 230.516 74.1308 230.524 74.1297C230.528 74.1292 230.532 74.1284 230.537 74.1272C230.539 74.1267 230.543 74.1254 230.548 74.1228C230.55 74.1215 230.554 74.1188 230.559 74.1139C230.563 74.1089 230.569 74.0995 230.569 74.0863C230.569 74.0732 230.563 74.0638 230.559 74.0587C230.554 74.0539 230.55 74.0512 230.548 74.0499C230.543 74.0473 230.539 74.046 230.537 74.0455C230.532 74.0442 230.528 74.0435 230.524 74.043C230.516 74.0419 230.506 74.0409 230.493 74.04C230.467 74.0382 230.43 74.0365 230.381 74.0348C230.283 74.0314 230.139 74.0281 229.954 74.025C229.584 74.0187 229.049 74.0131 228.387 74.0084C227.064 73.9989 225.236 73.9931 223.216 73.9931C221.197 73.9931 219.368 73.9989 218.045 74.0084C217.383 74.0131 216.848 74.0187 216.478 74.025C216.293 74.0281 216.149 74.0314 216.051 74.0348C216.002 74.0365 215.964 74.0382 215.939 74.04C215.926 74.0409 215.915 74.0419 215.908 74.043C215.904 74.0435 215.899 74.0442 215.895 74.0455C215.893 74.046 215.889 74.0472 215.884 74.0499C215.882 74.0512 215.878 74.0539 215.873 74.0587C215.869 74.0638 215.863 74.0732 215.863 74.0863C215.863 74.0995 215.869 74.1089 215.873 74.1139C215.878 74.1188 215.882 74.1215 215.884 74.1228C215.889 74.1254 215.893 74.1267 215.895 74.1272C215.899 74.1284 215.904 74.1292 215.908 74.1297C215.915 74.1308 215.926 74.1317 215.939 74.1326C215.964 74.1344 216.002 74.1362 216.051 74.1379C216.149 74.1413 216.293 74.1446 216.478 74.1477C216.848 74.1539 217.384 74.1596 218.046 74.1643C219.369 74.1737 221.197 74.1796 223.216 74.1796Z" fill="#0B065A" stroke="#2E3338" stroke-width="0.0821425"/>
<path d="M211.999 35.7554H208.927L208.271 37.2754H207.759L210.239 31.5794H210.687L213.159 37.2754H212.647L211.999 35.7554ZM211.807 35.3234L210.463 32.1794L209.111 35.3234H211.807Z" fill="black"/>
<path d="M211.407 46.528C211.733 46.6133 211.986 46.776 212.167 47.016C212.349 47.2507 212.439 47.5467 212.439 47.904C212.439 48.4 212.277 48.7813 211.951 49.048C211.626 49.3147 211.165 49.448 210.567 49.448H208.287V43.752H210.487C211.069 43.752 211.517 43.8827 211.831 44.144C212.146 44.4 212.303 44.768 212.303 45.248C212.303 45.5573 212.223 45.8213 212.063 46.04C211.909 46.2587 211.69 46.4213 211.407 46.528ZM208.775 46.336H210.415C210.874 46.336 211.221 46.2427 211.455 46.056C211.69 45.8693 211.807 45.5973 211.807 45.24C211.807 44.5307 211.343 44.176 210.415 44.176H208.775V46.336ZM210.535 49.024C211.015 49.024 211.367 48.9333 211.591 48.752C211.821 48.5707 211.935 48.2933 211.935 47.92C211.935 47.1573 211.469 46.776 210.535 46.776H208.775V49.024H210.535Z" fill="black"/>
<path d="M210.655 61.6851C210.127 61.6851 209.669 61.5704 209.279 61.3411C208.89 61.1064 208.591 60.7704 208.383 60.3331C208.175 59.8904 208.071 59.3678 208.071 58.7651C208.071 58.1678 208.175 57.6504 208.383 57.2131C208.591 56.7758 208.89 56.4424 209.279 56.2131C209.669 55.9784 210.127 55.8611 210.655 55.8611C211.05 55.8611 211.41 55.9251 211.735 56.0531C212.066 56.1758 212.351 56.3598 212.591 56.6051L212.383 56.9971C212.111 56.7518 211.839 56.5758 211.567 56.4691C211.295 56.3571 210.991 56.3011 210.655 56.3011C209.999 56.3011 209.49 56.5171 209.127 56.9491C208.765 57.3758 208.583 57.9811 208.583 58.7651C208.583 59.5544 208.762 60.1651 209.119 60.5971C209.482 61.0291 209.994 61.2451 210.655 61.2451C210.991 61.2451 211.295 61.1918 211.567 61.0851C211.839 60.9731 212.111 60.7944 212.383 60.5491L212.591 60.9411C212.351 61.1864 212.066 61.3731 211.735 61.5011C211.41 61.6238 211.05 61.6851 210.655 61.6851Z" fill="black"/>
<path d="M208.287 68.7698H210.119C211.026 68.7698 211.725 69.0152 212.215 69.5058C212.706 69.9965 212.951 70.6978 212.951 71.6098C212.951 72.5218 212.703 73.2258 212.207 73.7218C211.717 74.2178 211.021 74.4658 210.119 74.4658H208.287V68.7698ZM210.095 74.0338C210.869 74.0338 211.45 73.8312 211.839 73.4258C212.229 73.0152 212.423 72.4098 212.423 71.6098C212.423 70.0045 211.647 69.2018 210.095 69.2018H208.783V74.0338H210.095Z" fill="black"/>
<path d="M60.0573 178.911C56.648 173.294 46.4532 176.165 46.6213 182.638C46.7734 188.479 54.591 194.223 56.1127 195.288L59.8855 193.738C59.9906 193.446 60.1773 192.899 60.3886 192.171C61.0512 189.883 61.9487 185.801 61.2614 182.174C61.0583 181.023 60.6505 179.918 60.0573 178.911V178.911Z" stroke="black" stroke-width="0.494471" stroke-miterlimit="10" stroke-linecap="round"/>
<path d="M59.8852 193.737C59.8296 193.893 59.7975 193.976 59.7975 193.976L56.3671 195.459L56.1124 195.285L59.8852 193.737Z" stroke="black" stroke-width="0.741707" stroke-miterlimit="10" stroke-linecap="round"/>
<path d="M60.0064 193.688L60.3711 194.576L60.4081 194.663L56.3189 196.343L56.283 196.256L55.9171 195.367L56.1124 195.288L59.8852 193.737L60.0064 193.688Z" fill="#FCAA23"/>
<path d="M56.9811 197.276L60.6905 195.753L60.9127 196.294C61.0237 196.564 61.0228 196.867 60.9102 197.137C60.7976 197.406 60.5825 197.62 60.3123 197.731L58.6406 198.418C58.3704 198.529 58.0671 198.528 57.7976 198.415C57.528 198.303 57.3142 198.087 57.2032 197.817L56.9811 197.276Z" fill="#FCAA23"/>
<path d="M58.9901 193.783C58.9901 193.783 58.8034 193.289 56.8787 187.585C56.5079 186.489 56.4596 185.57 56.5833 184.83L56.4114 184.961C54.8415 186.142 53.6498 186.671 52.7894 186.837C54.5374 189.249 56.964 194.88 56.964 194.88" stroke="black" stroke-width="0.494471" stroke-miterlimit="10" stroke-linecap="round"/>
<path d="M60.6771 194.454L55.9409 196.399L56.4754 197.7L61.2116 195.755L60.6771 194.454Z" fill="#FCAA23" stroke="black" stroke-width="0.494471" stroke-miterlimit="10" stroke-linecap="round"/>
<path d="M42.6678 170.399L46.3356 174.356" stroke="#081535" stroke-width="0.494471" stroke-miterlimit="10" stroke-linecap="round"/>
<path d="M35.634 181.624L42.8384 182.603" stroke="#081535" stroke-width="0.494471" stroke-miterlimit="10" stroke-linecap="round"/>
<path d="M38.664 189.221L43.5926 188.277" stroke="#081535" stroke-width="0.494471" stroke-miterlimit="10" stroke-linecap="round"/>
<path d="M62.7249 167.256L60.1586 173.467" stroke="#081535" stroke-width="0.494471" stroke-miterlimit="10" stroke-linecap="round"/>
<path d="M71.6635 174.446L64.6766 179.458" stroke="#081535" stroke-width="0.494471" stroke-miterlimit="10" stroke-linecap="round"/>
<path d="M143.37 135.41H143.393L143.397 135.408H143.388H143.383L143.37 135.41Z" fill="#FBF4E9"/>
<path d="M143.964 135.114C143.901 135.106 143.837 135.11 143.775 135.125C143.615 135.172 143.477 135.273 143.386 135.412L143.48 155.15H144.493L144.398 135.412C144.35 135.335 144.287 135.269 144.212 135.218C144.137 135.167 144.053 135.131 143.964 135.114Z" fill="#F17336"/>
<path d="M143.369 135.41H143.388C143.29 135.313 143.174 135.237 143.047 135.185C142.92 135.134 142.784 135.108 142.646 135.109C142.508 135.109 142.372 135.136 142.244 135.189C142.117 135.241 142.002 135.319 141.905 135.417L141.998 155.155H142.74H143.482L143.388 135.417L143.369 135.41Z" fill="white"/>
<path d="M141.916 135.415H141.911H141.902L141.906 135.416H141.928L141.916 135.415Z" fill="#FAEEDD"/>
<path d="M142.626 130.583L142.624 130.578V130.589L142.142 131.934L142.63 131.931H142.635L143.123 131.929L142.629 130.589L142.628 130.578L142.626 130.583Z" fill="#0B065A"/>
<path d="M142 155.154L141.906 135.416C141.855 135.339 141.79 135.274 141.713 135.223C141.637 135.172 141.551 135.136 141.461 135.119H141.452H141.421H141.394C141.29 135.12 141.188 135.149 141.1 135.203C141.011 135.257 140.939 135.335 140.891 135.427L140.986 155.165L142 155.154Z" fill="#F17336"/>
<path d="M142.635 131.931H142.147L140.897 135.418C140.945 135.326 141.017 135.249 141.106 135.195C141.195 135.14 141.296 135.111 141.4 135.11H141.427H141.458H141.467C141.557 135.128 141.643 135.163 141.719 135.214C141.796 135.265 141.861 135.331 141.912 135.407C142.009 135.309 142.125 135.232 142.252 135.179C142.379 135.126 142.516 135.099 142.654 135.099V135.099C142.791 135.098 142.927 135.124 143.055 135.175C143.182 135.227 143.298 135.303 143.395 135.4C143.487 135.261 143.625 135.159 143.785 135.113C143.846 135.093 143.911 135.089 143.974 135.102C144.063 135.118 144.148 135.153 144.223 135.203C144.298 135.254 144.362 135.32 144.41 135.396L143.128 131.92L142.635 131.931Z" stroke="black" stroke-width="0.123618" stroke-linecap="round" stroke-linejoin="round"/>
<path d="M144.703 155.02L143.476 155.026L142.006 155.034L140.778 155.039L140.787 156.981L142.003 156.975L143.495 156.967L144.713 156.962L144.703 155.02Z" fill="black"/>
<path d="M108.442 156.602H135.837C136.311 156.602 136.695 156.217 136.695 155.744V116.3C136.695 115.826 136.311 115.442 135.837 115.442H108.442C107.969 115.442 107.585 115.826 107.585 116.3V155.744C107.585 156.217 107.969 156.602 108.442 156.602Z" stroke="#0B065A" stroke-width="0.783786" stroke-miterlimit="10" stroke-linecap="round"/>
<path d="M110.875 154.118H133.406C133.745 154.118 134.019 153.844 134.019 153.505V119.118C134.019 118.78 133.745 118.505 133.406 118.505H110.875C110.537 118.505 110.262 118.78 110.262 119.118V153.505C110.262 153.844 110.537 154.118 110.875 154.118Z" stroke="#0B065A" stroke-width="0.783786" stroke-miterlimit="10" stroke-linecap="round"/>
<path d="M121.846 111.815C122.049 111.814 122.25 111.854 122.438 111.931C122.626 112.008 122.797 112.122 122.94 112.265C123.084 112.408 123.198 112.579 123.276 112.766C123.354 112.953 123.395 113.154 123.395 113.357V115.335H120.305V113.357C120.305 112.949 120.467 112.557 120.756 112.267C121.045 111.978 121.437 111.815 121.846 111.815V111.815ZM121.846 114.245C122.017 114.245 122.185 114.194 122.327 114.099C122.469 114.004 122.58 113.869 122.646 113.711C122.711 113.553 122.728 113.379 122.695 113.211C122.662 113.043 122.579 112.889 122.458 112.768C122.337 112.647 122.183 112.564 122.015 112.531C121.847 112.498 121.673 112.515 121.515 112.58C121.357 112.646 121.222 112.757 121.127 112.899C121.032 113.041 120.981 113.209 120.981 113.38C120.981 113.609 121.072 113.829 121.234 113.992C121.397 114.154 121.617 114.245 121.846 114.245V114.245Z" stroke="#0B065A" stroke-width="0.494471" stroke-miterlimit="10" stroke-linecap="round"/>
<path d="M112.776 116.643V118.505H131.503V116.643C131.503 116.297 131.389 115.964 131.185 115.719C130.981 115.473 130.705 115.335 130.417 115.335H113.863C113.72 115.335 113.579 115.369 113.447 115.435C113.315 115.5 113.195 115.597 113.094 115.718C112.993 115.84 112.913 115.984 112.859 116.143C112.804 116.301 112.776 116.472 112.776 116.643V116.643Z" stroke="#0B065A" stroke-width="0.494471" stroke-miterlimit="10" stroke-linecap="round"/>
<path d="M131.475 128.204H112.575C112.428 128.204 112.309 128.323 112.309 128.469C112.309 128.616 112.428 128.734 112.575 128.734H131.475C131.622 128.734 131.741 128.616 131.741 128.469C131.741 128.323 131.622 128.204 131.475 128.204Z" fill="#0B065A"/>
<path d="M131.475 130.312H112.575C112.428 130.312 112.309 130.43 112.309 130.577C112.309 130.723 112.428 130.842 112.575 130.842H131.475C131.622 130.842 131.741 130.723 131.741 130.577C131.741 130.43 131.622 130.312 131.475 130.312Z" fill="#0B065A"/>
<path d="M131.475 132.418H112.575C112.428 132.418 112.309 132.537 112.309 132.683C112.309 132.83 112.428 132.949 112.575 132.949H131.475C131.622 132.949 131.741 132.83 131.741 132.683C131.741 132.537 131.622 132.418 131.475 132.418Z" fill="#0B065A"/>
<path d="M131.475 134.526H112.575C112.428 134.526 112.309 134.645 112.309 134.791C112.309 134.937 112.428 135.056 112.575 135.056H131.475C131.622 135.056 131.741 134.937 131.741 134.791C131.741 134.645 131.622 134.526 131.475 134.526Z" fill="#0B065A"/>
<path d="M292.914 58.3414C307.635 58.3414 319.569 46.4073 319.569 31.6857C319.569 16.9642 307.635 5.03003 292.914 5.03003C278.192 5.03003 266.258 16.9642 266.258 31.6857C266.258 46.4073 278.192 58.3414 292.914 58.3414Z" fill="white"/>
<path d="M292.914 5.03125C278.193 5.03125 266.259 16.9653 266.259 31.6857C266.259 46.4061 278.193 58.3476 292.914 58.3476C307.634 58.3476 319.569 46.4135 319.569 31.6919C319.569 16.9703 307.635 5.03125 292.914 5.03125ZM292.914 52.9418C288.708 52.9418 284.597 51.6946 281.1 49.358C277.604 47.0214 274.878 43.7004 273.269 39.8148C271.66 35.9293 271.239 31.6538 272.06 27.5292C272.881 23.4046 274.907 19.616 277.881 16.6427C280.855 13.6693 284.644 11.6448 288.769 10.8251C292.894 10.0054 297.17 10.4273 301.055 12.0375C304.94 13.6478 308.26 16.374 310.596 19.8714C312.931 23.3687 314.177 27.4802 314.176 31.6857C314.174 37.3237 311.933 42.7303 307.946 46.7164C303.959 50.7025 298.552 52.9418 292.914 52.9418V52.9418Z" stroke="black" stroke-width="0.494471" stroke-miterlimit="10" stroke-linecap="round"/>
<path d="M292.914 15.467C289.705 15.467 286.569 16.4184 283.902 18.2007C281.235 19.983 279.156 22.5163 277.928 25.4801C276.701 28.444 276.379 31.7053 277.005 34.8517C277.631 37.9981 279.176 40.8882 281.445 43.1566C283.713 45.4249 286.603 46.9696 289.75 47.5953C292.896 48.221 296.158 47.8996 299.121 46.6718C302.085 45.444 304.618 43.3648 306.4 40.6973C308.183 38.0298 309.134 34.8937 309.133 31.6857C309.133 29.5557 308.714 27.4466 307.899 25.4788C307.084 23.511 305.889 21.723 304.383 20.2169C302.876 18.7109 301.088 17.5162 299.121 16.7013C297.153 15.8863 295.043 15.4669 292.914 15.467V15.467ZM292.914 44.6198C290.355 44.6198 287.855 43.8613 285.728 42.44C283.601 41.0188 281.943 38.9988 280.964 36.6354C279.985 34.272 279.729 31.6714 280.228 29.1624C280.727 26.6534 281.959 24.3488 283.768 22.5399C285.577 20.731 287.881 19.4992 290.39 19.0001C292.899 18.501 295.5 18.7572 297.863 19.7361C300.227 20.7151 302.247 22.3729 303.668 24.4999C305.089 26.6269 305.848 29.1276 305.848 31.6857C305.849 33.3848 305.515 35.0674 304.865 36.6375C304.216 38.2075 303.263 39.6341 302.062 40.8359C300.861 42.0376 299.435 42.9909 297.865 43.6412C296.295 44.2915 294.613 44.6262 292.914 44.626V44.6198Z" stroke="black" stroke-width="0.494471" stroke-miterlimit="10" stroke-linecap="round"/>
<path d="M299.962 28.3887L293.405 30.9414L299.849 27.8003L299.962 28.3887Z" fill="#FCAA23" stroke="black" stroke-width="0.494471" stroke-miterlimit="10" stroke-linecap="round"/>
<path d="M299.068 28.1847C299.068 28.1571 299.075 28.13 299.089 28.1061C299.103 28.0822 299.123 28.0625 299.147 28.0488C299.147 28.0488 301.185 25.8484 305.787 23.8457C312.364 20.9766 313.378 20.848 313.381 20.8468C313.554 20.7751 313.427 20.9704 313.658 21.141C313.901 21.3415 314.094 21.5966 314.22 21.8855C314.346 22.1744 314.402 22.489 314.384 22.8036C314.352 23.0867 314.614 23.1189 314.442 23.1943C314.442 23.1943 313.648 23.8124 307.066 26.6803C302.447 28.6928 299.401 28.6421 299.401 28.6421C299.374 28.65 299.346 28.6508 299.319 28.6446C299.291 28.6383 299.266 28.6251 299.246 28.6063C299.184 28.5555 299.136 28.4907 299.105 28.4173C299.074 28.3439 299.061 28.2641 299.068 28.1847Z" fill="#F17336" stroke="black" stroke-width="0.494471" stroke-miterlimit="10" stroke-linecap="round"/>
<path d="M313.272 21.377C313.303 21.11 313.417 20.932 313.576 20.8566L351.829 4.25595C351.994 4.18672 351.872 4.37957 352.093 4.53656C352.325 4.72802 352.509 4.97154 352.629 5.24734C352.749 5.52314 352.803 5.82344 352.785 6.12381C352.754 6.3933 353.004 6.4242 352.841 6.49466L314.56 23.0965C314.395 23.1633 314.189 23.1237 313.966 22.9618C313.734 22.7708 313.55 22.5278 313.429 22.2524C313.309 21.977 313.255 21.6771 313.272 21.377Z" fill="#0B065A" stroke="black" stroke-width="0.494471" stroke-miterlimit="10" stroke-linecap="round"/>
<path d="M351.542 4.77155C351.605 4.22516 352.016 4.04839 352.461 4.37845C352.694 4.56964 352.877 4.81295 352.998 5.08855C353.118 5.36416 353.171 5.66427 353.154 5.96446C353.092 6.51209 352.68 6.68763 352.235 6.3588C352.003 6.16728 351.819 5.92378 351.699 5.64802C351.578 5.37226 351.525 5.07199 351.542 4.77155Z" fill="#0B065A" stroke="black" stroke-width="0.494471" stroke-miterlimit="10" stroke-linecap="round"/>
<path d="M351.488 6.69629L335.482 13.6362L347.095 15.933C351.444 16.7983 354.746 12.0786 352.45 8.28478L351.488 6.69629Z" fill="#F17336" stroke="black" stroke-width="0.494471" stroke-miterlimit="10" stroke-linecap="round"/>
<path d="M350.729 4.96811L350.511 3.6009C349.931 -0.0482976 345.304 -1.28447 342.98 1.58717L334.739 11.7733L350.729 4.96811Z" fill="#F17336" stroke="black" stroke-width="0.494471" stroke-miterlimit="10" stroke-linecap="round"/>
<path d="M283.211 92.5168H300.339C300.483 92.5168 300.599 92.4006 300.599 92.2573V75.1288C300.599 74.9854 300.483 74.8692 300.339 74.8692H283.211C283.067 74.8692 282.951 74.9854 282.951 75.1288V92.2573C282.951 92.4006 283.067 92.5168 283.211 92.5168Z" stroke="#0B065A" stroke-width="0.494471" stroke-miterlimit="10" stroke-linecap="round"/>
<path d="M231.709 277.287H254.296" stroke="black" stroke-width="0.494471" stroke-miterlimit="10" stroke-linecap="round"/>
<path d="M177.053 277.287L224.698 277.287" stroke="black" stroke-width="0.494471" stroke-miterlimit="10" stroke-linecap="round"/>
<path d="M22.6677 277.287H168.033" stroke="black" stroke-width="0.494471" stroke-miterlimit="10" stroke-linecap="round"/>
<path d="M260.757 277.287H356.789" stroke="black" stroke-width="0.494471" stroke-miterlimit="10" stroke-linecap="round"/>
<path d="M256.462 118.212V66.3828H327.089" stroke="#0B065A" stroke-width="0.494471" stroke-miterlimit="10" stroke-linecap="round"/>
<path d="M299.316 150.585C299.316 150.585 299.436 146.276 301.037 145.577C302.639 144.879 304.882 144.674 304.882 144.674L303.135 152.1L299.316 150.585Z" fill="white" stroke="black" stroke-width="0.542417" stroke-miterlimit="10" stroke-linecap="round"/>
<path d="M305.79 90.0461L304.08 91.3276L303.639 92.3772L304.865 92.1222L305.96 91.2937L305.79 90.0461Z" fill="#0B065A"/>
<path d="M310.929 98.6585C310.929 98.6585 310.491 96.8767 309.877 95.9708C309.263 95.065 305.846 92.3773 305.934 90.8287C306.022 89.2801 305.699 88.4923 306.313 88.2292C306.313 88.2292 307.409 87.2949 308.169 86.7687C308.928 86.2426 310.578 87.265 311.514 88.6089C312.45 89.9527 312.01 92.4939 312.36 93.8676C312.71 95.2413 313.412 98.8348 313.412 98.8348L310.929 98.6585Z" stroke="black" stroke-width="0.542417" stroke-miterlimit="10" stroke-linecap="round"/>
<path d="M306.314 88.2289C306.314 88.2289 306.992 88.1123 307.19 89.1633C307.388 90.2142 309.731 89.6311 310.024 90.9464" stroke="black" stroke-width="0.542417" stroke-miterlimit="10" stroke-linecap="round"/>
<path d="M307.364 88.9302L315.779 82.6192C315.779 82.6192 316.305 82.4741 316.393 83.4965L308.165 89.7194C308.165 89.7194 307.196 89.5662 307.364 88.9302Z" fill="#0B065A"/>
<path d="M318.459 135.997C318.459 135.997 313.155 113.475 312.661 110.088C312.167 106.702 309.316 96.3368 309.316 96.3368C309.316 96.3368 312.46 94.414 313.392 95.2886C313.392 95.2886 324.055 126.513 324.282 128.485C324.51 130.456 323.292 138.792 318.459 135.997Z" fill="white" stroke="black" stroke-width="0.542417" stroke-miterlimit="10" stroke-linecap="round"/>
<path d="M331.206 208.88C331.206 208.88 330.277 212.799 331.434 217.38C332.467 221.471 334.16 240.586 333.524 252.611C333.388 255.178 333.364 257.748 333.472 260.316C333.635 264.161 333.484 269.84 331.389 271.672C328.119 274.532 325.504 274.284 325.504 274.284C325.504 274.284 329.347 268.926 328.7 259.202C328.392 254.582 323.246 229.293 321.378 223.782C319.509 218.271 319.03 211.245 319.03 211.245L331.206 208.88Z" fill="white" stroke="black" stroke-width="0.542417" stroke-miterlimit="10" stroke-linecap="round"/>
<path d="M320.089 215.896V217.469L320.594 220.012C320.594 220.012 329.427 219.235 331.171 217.411C331.171 217.411 330.725 214.809 330.725 214.325C330.725 213.841 320.089 215.896 320.089 215.896Z" fill="#E3E3E3"/>
<path d="M333.448 259.67C333.448 259.67 334.369 259.149 335.288 260.348C336.207 261.546 337.243 273.923 337.243 273.923L336.159 274.133L335.074 268.519C335.074 268.519 335.074 274.486 334.16 274.993C333.246 275.5 322.345 278.627 322.737 276.923C323.128 275.218 325.693 273.668 325.693 273.668C325.693 273.668 327.365 273.813 329.517 272.274C331.669 270.735 333.814 269.013 333.448 259.67Z" fill="#654EF9" stroke="black" stroke-width="0.542417" stroke-miterlimit="10" stroke-linecap="round"/>
<path d="M321.069 211.08C321.069 211.08 319.501 214.789 319.881 219.498C320.221 223.702 318.716 242.834 316.093 254.589C315.533 257.097 315.083 259.628 314.764 262.182C314.286 266.001 313.196 271.577 310.825 273.031C307.125 275.309 304.587 274.629 304.587 274.629C304.587 274.629 309.267 269.985 310.243 260.288C310.707 255.677 309.837 229.888 308.9 224.144C307.963 218.4 308.668 211.397 308.668 211.397L321.069 211.08Z" fill="white" stroke="black" stroke-width="0.542417" stroke-miterlimit="10" stroke-linecap="round"/>
<path d="M308.688 215.278L308.658 217.297L308.755 220.298C308.755 220.298 317.593 220.998 319.619 219.485C319.619 219.485 319.611 216.846 319.693 216.366C319.774 215.886 308.688 215.278 308.688 215.278Z" fill="#E3E3E3"/>
<path d="M314.847 261.536C314.847 261.536 315.841 261.175 316.549 262.508C317.257 263.841 316.225 276.22 316.225 276.22L315.124 276.247L314.98 270.53C314.98 270.53 313.99 276.418 313.004 276.768C312.019 277.118 300.75 278.395 301.42 276.768C302.09 275.141 304.874 274.056 304.874 274.056C304.874 274.056 306.501 274.476 308.877 273.316C311.252 272.155 313.658 270.816 314.847 261.536Z" fill="#654EF9" stroke="black" stroke-width="0.542417" stroke-miterlimit="10" stroke-linecap="round"/>
<path d="M299.772 167.16L304.247 136.23L313.797 135.997C313.797 135.997 310.828 167.186 310.543 166.779C310.258 166.372 299.772 167.16 299.772 167.16Z" fill="#0B065A"/>
<path d="M301.201 166.184L305.239 137.11L314.791 136.877C314.791 136.877 310.801 166.168 310.509 165.761C310.218 165.354 301.201 166.184 301.201 166.184Z" fill="white" stroke="black" stroke-width="0.542417" stroke-miterlimit="10" stroke-linecap="round"/>
<path d="M303.337 167.776L307.051 138.551L316.603 138.317C316.603 138.317 312.199 167.707 311.907 167.3C311.616 166.893 303.337 167.776 303.337 167.776Z" fill="#0B065A"/>
<path d="M327.4 107.781C327.4 107.781 323.18 108.77 321.84 111.839C320.213 115.557 315.459 115.423 315.874 116.074C316.289 116.725 317.809 118.492 317.809 118.492C317.809 118.492 315.51 123.623 316.927 124.802C318.344 125.98 323.6 127.431 323.6 127.431L321.557 132.28L327.769 134.44L331.423 126.417C331.423 126.417 335.431 110.152 327.4 107.781Z" fill="white" stroke="black" stroke-width="0.542417" stroke-miterlimit="10" stroke-linecap="round"/>
<path d="M327.026 108.033C326.836 109.413 326.945 110.819 327.347 112.154C328.018 114.279 326.61 120.185 328.039 120.259C329.468 120.332 328.018 107.794 328.018 107.794L327.026 108.033Z" fill="#E3E3E3"/>
<path d="M327.782 122.93C327.782 122.93 330.551 124.446 331.752 121.608C332.952 118.77 332.397 124.035 330.871 127.275C329.346 130.515 328.317 132.646 328.317 132.646C327.668 132.751 327.006 132.754 326.356 132.656C326.356 132.656 331.522 124.822 329.85 124.29C328.178 123.759 327.02 123.414 327.782 122.93Z" fill="#E3E3E3"/>
<path d="M323.595 127.431C323.595 127.431 325.824 127.906 327.064 128.052" stroke="black" stroke-width="0.542417" stroke-miterlimit="10" stroke-linecap="round"/>
<path d="M330.203 129.084C330.203 129.084 334.357 131.056 339.745 124.51C339.745 124.51 347.6 112.041 330.564 105.721C330.065 105.53 329.522 105.487 329 105.597C328.269 105.763 327.448 106.283 327.4 107.78C327.4 107.78 327.274 110.558 328.277 113.293C329.281 116.028 327.346 120.186 328.17 120.344C328.995 120.503 330.928 119.007 331.388 121.636C331.848 124.266 332.04 125.047 330.103 129.304" fill="#3F3D56"/>
<path d="M328.171 120.347C328.171 120.347 331.009 119.384 331.331 121.362C331.654 123.341 328.926 123.477 327.941 122.873" stroke="black" stroke-width="0.542417" stroke-miterlimit="10" stroke-linecap="round"/>
<path d="M328.852 109.028C328.852 109.028 340.251 110.404 339.61 122.267" stroke="white" stroke-width="0.271209" stroke-miterlimit="10" stroke-linecap="round"/>
<path d="M329.997 114.116C329.997 114.116 331.182 119.647 338.914 123.21" stroke="white" stroke-width="0.271209" stroke-miterlimit="10" stroke-linecap="round"/>
<path d="M332.031 126.867C332.192 126.922 334.35 127.557 337.893 124.591" stroke="white" stroke-width="0.271209" stroke-miterlimit="10" stroke-linecap="round"/>
<path d="M329.917 111.443C329.917 111.443 332.525 117.339 334.557 118.524" stroke="white" stroke-width="0.271209" stroke-miterlimit="10" stroke-linecap="round"/>
<path d="M323.678 127.572C323.678 127.572 326.62 128.166 327.068 128.159C327.515 128.152 325.925 129.786 323.17 128.856L323.678 127.572Z" fill="#E3E3E3"/>
<path d="M322.573 114.721C322.771 114.454 322.775 114.123 322.583 113.981C322.391 113.839 322.076 113.939 321.878 114.206C321.681 114.473 321.676 114.804 321.868 114.946C322.06 115.088 322.376 114.988 322.573 114.721Z" fill="black"/>
<path d="M323.035 111.581C323.035 111.581 324.866 111.966 325.168 113.653" stroke="black" stroke-width="0.542417" stroke-miterlimit="10" stroke-linecap="round"/>
<path d="M317.849 120.908C317.849 120.908 318.998 122.475 320.736 121.93L317.849 120.908Z" fill="white"/>
<path d="M317.849 120.908C317.849 120.908 318.998 122.475 320.736 121.93" stroke="black" stroke-width="0.542417" stroke-miterlimit="10" stroke-linecap="round"/>
<path d="M343.758 126.802C344.427 125.277 343.814 123.533 342.388 122.907C340.963 122.281 339.264 123.01 338.595 124.536C337.925 126.061 338.538 127.804 339.964 128.43C341.39 129.056 343.088 128.327 343.758 126.802Z" fill="#3F3D56"/>
<path d="M322.277 129.234C322.277 129.234 325.843 132.024 329.391 130.609C329.467 130.58 329.549 130.57 329.629 130.582C329.71 130.593 329.786 130.625 329.85 130.675C329.915 130.725 329.965 130.791 329.996 130.866C330.027 130.942 330.038 131.024 330.028 131.104C329.903 132.067 329.395 133.993 329.872 134.337C330.6 134.862 335.063 142.431 333.269 150.73C332.167 155.806 330.804 160.822 329.183 165.757L308.067 164.62C308.067 164.62 305.009 164.359 301.776 160.602C299.58 158.049 298.571 153.113 299.302 150.73C299.573 149.846 301.581 149.457 302.244 150.103L305.184 153.002C305.184 153.002 307.625 137.977 311.037 136.404C314.449 134.831 319.772 134.912 320.646 133.347C321.519 131.782 321.767 128.627 322.277 129.234Z" fill="#F17336" stroke="black" stroke-width="0.542417" stroke-miterlimit="10" stroke-linecap="round"/>
<path d="M316.45 148.897C316.45 148.897 313.567 165.905 307.364 164.477" stroke="black" stroke-width="0.542417" stroke-miterlimit="10" stroke-linecap="round"/>
<path d="M329.183 165.757C329.183 165.757 328.333 171.871 329.818 176.152C331.303 180.433 333.665 181.918 334.476 189.256C335.272 196.467 332.18 215.114 332.18 215.114C332.18 215.114 315.733 218.296 305.454 214.282C305.454 214.282 304.572 182.967 306.232 174.841C307.892 166.716 308.067 164.621 308.067 164.621L329.183 165.757Z" fill="#F17336" stroke="black" stroke-width="0.542417" stroke-miterlimit="10" stroke-linecap="round"/>
<path d="M305.181 156.526C305.181 156.526 304.686 155.098 305.181 153" stroke="black" stroke-width="0.542417" stroke-miterlimit="10" stroke-linecap="round"/>
<path d="M316.603 148.897C316.603 148.897 317.062 148.692 317.146 149.887C317.23 151.082 315.894 162.321 317.757 164.854L309.547 164.562C309.547 164.562 312.516 163.369 314.468 157.311C316.419 151.254 316.603 148.897 316.603 148.897Z" fill="#E05918"/>
<path d="M328.882 166.048C328.882 166.048 315.798 166.814 311.907 168.95C309.63 170.2 306.076 177.288 306.076 177.288L308.318 164.854L328.882 166.048Z" fill="#E05918"/>
<path d="M22.0769 213.218C24.1537 213.218 25.8373 211.535 25.8373 209.458C25.8373 207.381 24.1537 205.698 22.0769 205.698C20 205.698 18.3164 207.381 18.3164 209.458C18.3164 211.535 20 213.218 22.0769 213.218Z" fill="#654EF9"/>
<path d="M89.1247 211.744C91.2015 211.744 92.8851 210.06 92.8851 207.983C92.8851 205.906 91.2015 204.223 89.1247 204.223C87.0478 204.223 85.3642 205.906 85.3642 207.983C85.3642 210.06 87.0478 211.744 89.1247 211.744Z" fill="#654EF9"/>
<path d="M89.1247 168.8C91.2015 168.8 92.8851 167.116 92.8851 165.039C92.8851 162.963 91.2015 161.279 89.1247 161.279C87.0478 161.279 85.3642 162.963 85.3642 165.039C85.3642 167.116 87.0478 168.8 89.1247 168.8Z" fill="#654EF9"/>
<path d="M162.627 168.8C164.703 168.8 166.387 167.116 166.387 165.039C166.387 162.963 164.703 161.279 162.627 161.279C160.55 161.279 158.866 162.963 158.866 165.039C158.866 167.116 160.55 168.8 162.627 168.8Z" fill="#654EF9"/>
<path d="M164.272 122.558C166.349 122.558 168.033 120.875 168.033 118.798C168.033 116.721 166.349 115.037 164.272 115.037C162.195 115.037 160.512 116.721 160.512 118.798C160.512 120.875 162.195 122.558 164.272 122.558Z" fill="#654EF9"/>
<path d="M256.462 121.972C258.539 121.972 260.223 120.289 260.223 118.212C260.223 116.135 258.539 114.451 256.462 114.451C254.386 114.451 252.702 116.135 252.702 118.212C252.702 120.289 254.386 121.972 256.462 121.972Z" fill="#654EF9"/>
<path d="M327.82 70.1432C329.896 70.1432 331.58 68.4596 331.58 66.3828C331.58 64.3059 329.896 62.6223 327.82 62.6223C325.743 62.6223 324.059 64.3059 324.059 66.3828C324.059 68.4596 325.743 70.1432 327.82 70.1432Z" fill="#654EF9"/>
<path d="M292.914 36.6847C295.675 36.6847 297.913 34.4466 297.913 31.6856C297.913 28.9247 295.675 26.6865 292.914 26.6865C290.153 26.6865 287.915 28.9247 287.915 31.6856C287.915 34.4466 290.153 36.6847 292.914 36.6847Z" fill="#654EF9" stroke="black" stroke-width="0.494471" stroke-miterlimit="10" stroke-linecap="round"/>
</g>
</svg>
