<svg width="360" height="300" viewBox="0 0 360 300" fill="none" xmlns="http://www.w3.org/2000/svg">
<mask id="mask0" mask-type="alpha" maskUnits="userSpaceOnUse" x="0" y="0" width="360" height="300">
<rect width="360" height="300" fill="#C4C4C4"/>
</mask>
<g mask="url(#mask0)">
<path opacity="0.8" d="M456.126 288.284C433.545 297.591 409.182 299.637 385.664 294.201C346.456 285.145 292.146 266.137 294.028 230.535C296.962 175.03 301.975 171.063 276.971 110.486C251.967 49.9091 352.422 -38.2811 414.388 18.0178C476.354 74.3167 500.698 27.1621 543.274 58.6856C559.239 70.509 567.57 93.842 569.807 121.094C575.442 189.707 539.538 253.883 483.108 277.156L456.126 288.284Z" fill="#FFF2D1"/>
<path opacity="0.8" d="M158.524 282.658C113.613 302.797 62.0742 301.76 17.7402 280.374C-4.13952 269.819 -30.5284 258.214 -52.6404 251.743C-100.092 237.864 -156.294 146.392 -85.3043 115.497C-14.3145 84.6024 -45.7278 43.1588 20.5824 9.10105C86.8925 -24.9567 77.0327 47.3234 150.487 50.3329C223.94 53.3424 237.138 211.145 196.648 256.285C186.526 267.571 173.047 276.145 158.524 282.658Z" fill="#FFF2D1"/>
<path d="M33.8778 235.394H21.3606V247.911H33.8778V235.394Z" fill="#EDEDED"/>
<path d="M36.5601 232.264H24.0428V244.782H36.5601V232.264Z" fill="#F17336" fill-opacity="0.6"/>
<path d="M48.6303 240.311H28.0663V219.747H48.6303V240.311ZM28.9604 239.417H47.7362V220.641H28.9604V239.417Z" fill="#222B45"/>
<path d="M107.155 221.663H135.725H242.469V31.4028H107.155V197.993V221.663Z" fill="#FEFEFE" stroke="#0B065A" stroke-width="0.783786" stroke-miterlimit="10" stroke-linecap="round"/>
<path d="M123.703 203.406L139.147 215.982H245.891V29.3677H110.577V192.766L123.703 203.406Z" stroke="black" stroke-width="0.494289" stroke-miterlimit="10" stroke-linecap="round"/>
<path d="M123.703 203.406C123.703 203.406 123.429 203.172 122.877 202.72L120.406 200.697L110.613 192.725L110.633 192.766C110.649 165.925 110.685 106.285 110.73 29.3677L110.579 29.5173L244.71 29.5333H245.891L245.726 29.3677C245.738 99.5247 245.75 164.247 245.759 215.982L245.891 215.849L139.147 215.925L139.183 215.938L127.584 206.53L124.678 204.182C124.03 203.66 123.703 203.406 123.703 203.406C123.703 203.406 124.018 203.676 124.659 204.204L127.547 206.574L139.111 216.026L139.127 216.039H139.147L245.891 216.115H246.025V215.982C246.033 164.247 246.044 99.5247 246.057 29.3677V29.2021H244.71L110.577 29.2182H110.427V29.3677C110.473 106.285 110.509 165.925 110.525 192.766V192.791L110.544 192.807L120.369 200.739L122.86 202.741C123.417 203.187 123.703 203.406 123.703 203.406Z" fill="#0B065A"/>
<path d="M123.703 203.406C123.703 203.406 123.429 203.172 122.877 202.72L120.406 200.697L110.613 192.725L110.633 192.766C110.649 165.925 110.685 106.285 110.73 29.3677L110.579 29.5173L244.71 29.5333H245.891L245.726 29.3677C245.738 99.5247 245.75 164.247 245.759 215.982L245.891 215.849L139.147 215.925L139.183 215.938L127.584 206.53L124.678 204.182C124.03 203.66 123.703 203.406 123.703 203.406C123.703 203.406 124.018 203.676 124.659 204.204L127.547 206.574L139.111 216.026L139.127 216.039H139.147L245.891 216.115H246.025V215.982C246.033 164.247 246.044 99.5247 246.057 29.3677V29.2021H244.71L110.577 29.2182H110.427V29.3677C110.473 106.285 110.509 165.925 110.525 192.766V192.791L110.544 192.807L120.369 200.739L122.86 202.741C123.417 203.187 123.703 203.406 123.703 203.406Z" stroke="#0B065A" stroke-width="0.494289" stroke-miterlimit="10" stroke-linecap="round"/>
<path d="M149.317 112.471H126.52V89.6746H149.317V112.471ZM127.155 111.832H148.68V90.311H127.155V111.832Z" fill="black"/>
<path d="M229.872 95.1797C229.872 95.2712 219.479 95.3453 206.661 95.3453C193.842 95.3453 183.446 95.2712 183.446 95.1797C183.446 95.0883 193.837 95.0142 206.661 95.0142C219.484 95.0142 229.872 95.0883 229.872 95.1797Z" fill="#1A2E35"/>
<path d="M229.872 99.9163C229.872 100.008 219.479 100.082 206.661 100.082C193.842 100.082 183.446 100.008 183.446 99.9163C183.446 99.8249 193.837 99.7507 206.661 99.7507C219.484 99.7507 229.872 99.8249 229.872 99.9163Z" fill="#1A2E35"/>
<path d="M229.872 104.654C229.872 104.746 219.479 104.82 206.661 104.82C193.842 104.82 183.446 104.746 183.446 104.654C183.446 104.563 193.837 104.489 206.661 104.489C219.484 104.489 229.872 104.563 229.872 104.654Z" fill="#1A2E35"/>
<path d="M229.872 109.391C229.872 109.482 219.479 109.556 206.661 109.556C193.842 109.556 183.446 109.482 183.446 109.391C183.446 109.299 193.837 109.225 206.661 109.225C219.484 109.225 229.872 109.299 229.872 109.391Z" fill="#1A2E35"/>
<path d="M149.317 146.468H126.52V123.672H149.317V146.468ZM127.155 145.832H148.68V124.313H127.155V145.832Z" fill="black"/>
<path d="M229.872 129.177C229.872 129.268 219.479 129.342 206.661 129.342C193.842 129.342 183.446 129.268 183.446 129.177C183.446 129.085 193.837 129.011 206.661 129.011C219.484 129.011 229.872 129.085 229.872 129.177Z" fill="#1A2E35"/>
<path d="M229.872 133.915C229.872 134.006 219.479 134.08 206.661 134.08C193.842 134.08 183.446 134.006 183.446 133.915C183.446 133.823 193.837 133.749 206.661 133.749C219.484 133.749 229.872 133.828 229.872 133.915Z" fill="#1A2E35"/>
<path d="M229.872 138.648C229.872 138.739 219.479 138.813 206.661 138.813C193.842 138.813 183.446 138.739 183.446 138.648C183.446 138.556 193.837 138.482 206.661 138.482C219.484 138.482 229.872 138.56 229.872 138.648Z" fill="#1A2E35"/>
<path d="M229.872 143.388C229.872 143.481 219.479 143.555 206.661 143.555C193.842 143.555 183.446 143.481 183.446 143.388C183.446 143.295 193.837 143.224 206.661 143.224C219.484 143.224 229.872 143.298 229.872 143.388Z" fill="#1A2E35"/>
<path d="M149.317 179.294H126.52V156.498H149.317V179.294ZM127.155 178.658H148.68V157.134H127.155V178.658Z" fill="black"/>
<path d="M131.053 168.365L134.079 165.114L139.123 169.15L150.667 157.941L153.434 161.201L138.9 175.539L131.053 168.365Z" fill="#F17336"/>
<path d="M229.872 162.003C229.872 162.094 219.479 162.168 206.661 162.168C193.842 162.168 183.446 162.094 183.446 162.003C183.446 161.911 193.837 161.837 206.661 161.837C219.484 161.837 229.872 161.911 229.872 162.003Z" fill="#1A2E35"/>
<path d="M229.872 166.739C229.872 166.831 219.479 166.906 206.661 166.906C193.842 166.906 183.446 166.831 183.446 166.739C183.446 166.648 193.837 166.574 206.661 166.574C219.484 166.574 229.872 166.648 229.872 166.739Z" fill="#1A2E35"/>
<path d="M229.872 171.477C229.872 171.569 219.479 171.643 206.661 171.643C193.842 171.643 183.446 171.569 183.446 171.477C183.446 171.386 193.837 171.312 206.661 171.312C219.484 171.312 229.872 171.386 229.872 171.477Z" fill="#1A2E35"/>
<path d="M229.872 176.213C229.872 176.305 219.479 176.38 206.661 176.38C193.842 176.38 183.446 176.305 183.446 176.213C183.446 176.122 193.837 176.048 206.661 176.048C219.484 176.048 229.872 176.122 229.872 176.213Z" fill="#1A2E35"/>
<path d="M139.147 215.982L130.967 209.248L110.683 192.64L110.629 192.921L120.02 190.027L134.953 185.408L134.753 185.284C136.023 194.208 137.113 201.853 137.887 207.287C138.654 212.57 139.049 215.297 139.149 215.986C139.148 215.94 139.143 215.895 139.136 215.85C139.122 215.74 139.105 215.602 139.083 215.425C139.031 215.027 138.958 214.469 138.864 213.751C138.666 212.259 138.383 210.113 138.029 207.418C137.296 201.942 136.264 194.236 135.063 185.241L135.038 185.059L134.862 185.113L119.923 189.713L110.531 192.616L110.241 192.704L110.477 192.896L131.01 209.455L137.005 214.274L138.605 215.556L139.015 215.882C139.057 215.917 139.101 215.951 139.147 215.982Z" fill="#0B065A"/>
<path d="M149.317 77.3371H126.52V54.5405H149.317V77.3371ZM127.155 76.702H148.68V55.1769H127.155V76.702Z" fill="black"/>
<path d="M229.872 60.0457C229.872 60.1372 219.479 60.2113 206.661 60.2113C193.842 60.2113 183.446 60.1372 183.446 60.0457C183.446 59.9543 193.837 59.8801 206.661 59.8801C219.484 59.8801 229.872 59.9543 229.872 60.0457Z" fill="#1A2E35"/>
<path d="M229.872 64.7835C229.872 64.875 219.479 64.9491 206.661 64.9491C193.842 64.9491 183.446 64.875 183.446 64.7835C183.446 64.6921 193.837 64.6179 206.661 64.6179C219.484 64.6179 229.872 64.6921 229.872 64.7835Z" fill="#1A2E35"/>
<path d="M229.872 69.5198C229.872 69.6113 219.479 69.6854 206.661 69.6854C193.842 69.6854 183.446 69.6113 183.446 69.5198C183.446 69.4284 193.837 69.3542 206.661 69.3542C219.484 69.3542 229.872 69.4284 229.872 69.5198Z" fill="#1A2E35"/>
<path d="M229.872 74.2576C229.872 74.3491 219.479 74.4232 206.661 74.4232C193.842 74.4232 183.446 74.3491 183.446 74.2576C183.446 74.1662 193.837 74.092 206.661 74.092C219.484 74.092 229.872 74.1662 229.872 74.2576Z" fill="#1A2E35"/>
<path d="M164.102 70.1773L162.105 76.2324H159.535L166.072 56.9922H169.07L175.635 76.2324H172.981L170.926 70.1773H164.102ZM170.411 68.236L168.527 62.6975C168.1 61.442 167.813 60.299 167.529 59.1856H167.471C167.185 60.3286 166.873 61.4989 166.501 62.6691L164.616 68.236H170.411Z" fill="#0B065A" stroke="#FFF7E3" stroke-miterlimit="10"/>
<path d="M160.992 91.5183C162.076 91.2897 163.788 91.1191 165.53 91.1191C168.013 91.1191 169.607 91.5467 170.811 92.518C171.811 93.2594 172.41 94.4024 172.41 95.915C172.41 97.7686 171.183 99.3972 169.156 100.14V100.197C170.983 100.653 173.123 102.166 173.123 105.016C173.134 105.736 172.995 106.45 172.715 107.114C172.435 107.777 172.02 108.375 171.497 108.869C170.154 110.096 167.986 110.667 164.845 110.667C163.557 110.676 162.27 110.601 160.992 110.44V91.5183ZM163.476 99.3972H165.73C168.357 99.3972 169.898 98.0268 169.898 96.172C169.898 93.9156 168.185 93.032 165.673 93.032C164.531 93.032 163.875 93.1161 163.476 93.2026V99.3972ZM163.476 108.617C163.96 108.703 164.673 108.732 165.559 108.732C168.127 108.732 170.502 107.79 170.502 104.991C170.502 102.367 168.247 101.284 165.534 101.284H163.481L163.476 108.617Z" fill="#0B065A" stroke="#FFF7E3" stroke-miterlimit="10"/>
<path d="M174.437 144.148C173.523 144.604 171.696 145.088 169.355 145.088C163.932 145.088 159.849 141.634 159.849 135.326C159.849 129.303 163.927 125.221 169.898 125.221C172.295 125.221 173.808 125.736 174.47 126.078L173.869 128.103C172.929 127.648 171.586 127.305 169.988 127.305C165.478 127.305 162.481 130.189 162.481 135.241C162.481 139.95 165.192 142.976 169.874 142.976C171.387 142.976 172.929 142.662 173.927 142.177L174.437 144.148Z" fill="#0B065A" stroke="#FFF7E3" stroke-miterlimit="10"/>
<path d="M160.992 160.065C162.74 159.801 164.505 159.668 166.272 159.666C169.84 159.666 172.38 160.493 174.065 162.063C175.777 163.633 176.783 165.859 176.783 168.971C176.783 172.111 175.813 174.68 174.014 176.451C172.216 178.249 169.247 179.219 165.508 179.219C164.002 179.228 162.496 179.152 160.998 178.991L160.992 160.065ZM163.476 177.079C164.102 177.192 165.017 177.221 165.987 177.221C171.3 177.221 174.18 174.255 174.18 169.058C174.208 164.519 171.639 161.636 166.386 161.636C165.41 161.62 164.434 161.706 163.476 161.893V177.079Z" fill="#0B065A" stroke="#FFF7E3" stroke-miterlimit="10"/>
<path d="M277.025 246.001C277.025 246.001 320.915 243.016 328.379 258.093C335.843 273.17 277.922 279.291 260.305 275.708C242.689 272.124 214.176 263.542 214.176 263.542L277.025 246.001Z" fill="#F17336" stroke="black" stroke-width="0.494289" stroke-miterlimit="10" stroke-linecap="round"/>
<path d="M277.65 280.337C275.595 279.888 254.816 279.816 232.416 279.767C232.416 279.767 232.976 271.249 232.416 268.832C234.685 269.591 237.045 270.046 239.434 270.185C239.434 270.185 244.773 267.243 248.362 266.304C263.191 262.422 255.007 272.874 267.349 273.319C271.996 273.487 276.959 275.933 276.959 275.933C282.747 275.211 279.796 280.803 277.65 280.337Z" fill="white" stroke="black" stroke-width="0.494289" stroke-miterlimit="10" stroke-linecap="round"/>
<path d="M233.88 282.277C218.859 282.242 203.427 281.381 191.784 279.589C163.895 275.297 142.071 265.706 161.18 253.912C180.29 242.118 212.463 248.389 212.463 248.389C211.393 252.995 221.835 263.008 234.176 267.049C236.254 274.075 233.88 282.277 233.88 282.277Z" fill="#F17336" stroke="black" stroke-width="0.494289" stroke-miterlimit="10" stroke-linecap="round"/>
<path d="M210.894 190.412C210.894 190.412 207.757 198.379 203.726 210.023C199.696 221.667 194.769 243.426 214.176 242.231C233.583 241.036 224.033 191.103 210.894 190.412Z" fill="white" stroke="black" stroke-width="0.494289" stroke-miterlimit="10" stroke-linecap="round"/>
<path d="M237.577 164.724C237.577 164.724 238.36 179.98 236.121 184.458C233.882 188.937 254.931 183.339 254.931 183.339C254.931 183.339 251.684 171.694 253.588 163.969C255.492 156.243 237.577 164.724 237.577 164.724Z" fill="white" stroke="black" stroke-width="0.494289" stroke-miterlimit="10" stroke-linecap="round"/>
<path d="M237.95 173.458C237.95 173.458 243.055 177.181 247.575 176.247C252.095 175.313 252.879 174.12 252.879 174.12C252.879 174.12 252.543 169.119 252.654 168.373C252.765 167.627 237.949 168.597 237.949 168.597C237.949 168.597 238.333 170.686 237.95 173.458Z" fill="#E3E3E3"/>
<path d="M227.165 139.784C227.165 139.784 226.492 153.893 228.508 159.938C230.523 165.983 241.159 174.581 251.121 171.335C261.084 168.089 264.109 162.166 265.79 155.796C267.47 149.425 267.133 135.082 264.894 133.627C262.654 132.171 228.731 124.334 227.165 139.784Z" fill="white" stroke="black" stroke-width="0.494289" stroke-miterlimit="10" stroke-linecap="round"/>
<path d="M226.639 147.996C228.502 147.412 230.203 146.403 231.608 145.048C233.481 143.243 234.45 140.317 235.952 138.068C239.477 132.768 235.745 139.912 239.85 143.917C243.955 147.922 266.647 147.253 266.647 147.253C266.647 147.253 270.528 147.919 267.842 137.251C265.155 126.583 257.914 121.576 251.197 121.576C244.479 121.576 234.925 122.099 230.67 128.07C226.416 134.041 221.265 145.461 224.175 148.671C227.085 151.88 226.639 147.996 226.639 147.996Z" fill="#3F3D56"/>
<path d="M224.574 145.047C224.574 145.047 226.716 126.125 241.719 123.662C256.722 121.199 266.433 126.35 268.579 145.047H269.866C269.866 145.047 270.83 120.863 252.58 119.071C234.329 117.279 224.225 123.102 223.287 145.047" fill="#F17336"/>
<path d="M224.574 145.047C224.574 145.047 226.716 126.125 241.719 123.662C256.722 121.199 266.433 126.35 268.579 145.047H269.866C269.866 145.047 270.83 120.863 252.58 119.071C234.329 117.279 224.225 123.102 223.287 145.047" stroke="black" stroke-width="0.494289" stroke-miterlimit="10" stroke-linecap="round"/>
<path d="M253.712 177.609C253.712 177.609 250.117 181.547 240.935 180.651C240.935 180.651 224.364 184.235 219.215 185.018C214.066 185.801 210.481 187.817 210.481 188.936C210.481 190.056 217.2 205.395 214.065 224.316C210.93 243.238 265.565 228.792 265.565 228.792C265.565 228.792 264.594 198.785 280.606 189.716C280.606 189.716 282.919 187.368 278.441 186.191C273.963 185.013 260.225 184.948 257.317 180.311C254.558 175.912 253.712 177.609 253.712 177.609Z" fill="#654EF9" stroke="black" stroke-width="0.494289" stroke-miterlimit="10" stroke-linecap="round"/>
<path d="M254.937 181.908C254.937 181.908 253.444 185.291 246.08 185.342L254.937 181.908Z" fill="#4052F2"/>
<path d="M254.937 181.908C254.937 181.908 253.444 185.291 246.08 185.342" stroke="black" stroke-width="0.494289" stroke-miterlimit="10" stroke-linecap="round"/>
<path d="M254.137 203.065L244.84 207.339C242.228 200.419 239.884 193.274 239.207 192.806C236.435 190.889 231.263 185.021 231.194 182.754C231.13 180.614 232.167 180.578 232.615 179.912C233.064 179.246 233.933 179.078 234.38 178.406C234.592 178.088 233.575 176.656 232.31 174.367C232.31 174.367 231.198 168.18 231.344 167.222C231.467 166.424 232.203 164.73 233.085 166.336C233.6 167.273 235.207 173.009 235.207 173.009C237.721 176.543 239.376 179.003 241.332 178.678C244.467 178.155 248.646 174.944 249.319 174.353C249.991 173.761 251.13 176.083 248.992 178.166C246.855 180.249 248.722 186.222 245.809 190.103C245.809 190.094 249.995 196.471 254.137 203.065Z" fill="white" stroke="black" stroke-width="0.494289" stroke-miterlimit="10" stroke-linecap="round"/>
<path d="M247.839 193.751C247.839 193.751 244.593 197.06 239.703 192.855C239.703 192.855 242.092 198.678 242.354 200.282C242.616 201.886 250.191 197.563 250.191 197.563L247.839 193.751Z" fill="#E3E3E3"/>
<path d="M284.34 200.022C281.355 206.738 270.606 245.25 264.037 243.612C259.659 242.519 251.566 222.59 246.348 208.758L255.643 204.483C259.369 210.407 263.064 216.507 263.664 218.308C263.664 218.308 268.441 196.436 280.608 189.72C280.608 189.72 287.326 193.302 284.34 200.022Z" fill="white" stroke="black" stroke-width="0.494289" stroke-miterlimit="10" stroke-linecap="round"/>
<path d="M313.152 258.018C313.152 258.018 304.075 249.022 271.607 259.809" stroke="black" stroke-width="0.494289" stroke-miterlimit="10" stroke-linecap="round"/>
<path d="M177.676 261.232C177.676 261.232 191.054 254.51 212.468 259.809" stroke="black" stroke-width="0.494289" stroke-miterlimit="10" stroke-linecap="round"/>
<path d="M227.381 144.935C227.381 144.935 226.256 140.233 222.674 143.592C219.091 146.95 221.098 164.425 228.212 157.423C228.214 157.423 228.059 151.541 227.381 144.935Z" fill="#F17336" stroke="black" stroke-width="0.494289" stroke-miterlimit="10" stroke-linecap="round"/>
<path d="M222.675 143.592C222.675 143.592 217.787 142.323 215.919 148.144C214.052 153.965 219.756 161.55 223.287 158.244C223.287 158.244 220.473 148.294 222.675 143.592Z" fill="white" stroke="black" stroke-width="0.494289" stroke-miterlimit="10" stroke-linecap="round"/>
<path d="M265.771 145.381C265.771 145.381 266.895 140.685 270.478 144.038C274.06 147.39 272.054 164.872 264.94 157.869C264.947 157.862 265.095 151.982 265.771 145.381Z" fill="#F17336" stroke="black" stroke-width="0.494289" stroke-miterlimit="10" stroke-linecap="round"/>
<path d="M270.478 144.033C270.478 144.033 275.367 142.764 277.233 148.587C279.099 154.409 273.403 161.993 269.866 158.686C269.866 158.686 272.68 148.736 270.478 144.033Z" fill="white" stroke="black" stroke-width="0.494289" stroke-miterlimit="10" stroke-linecap="round"/>
<path d="M242.815 123.495C242.815 123.495 238.131 138.068 243.66 144.269" stroke="white" stroke-width="0.247145" stroke-miterlimit="10" stroke-linecap="round"/>
<path d="M247.318 123.495C247.318 123.495 243.81 133.988 246.947 140.357" stroke="white" stroke-width="0.247145" stroke-miterlimit="10" stroke-linecap="round"/>
<path d="M253.637 130.058C253.637 130.058 251.895 138.368 256.727 145.334" stroke="white" stroke-width="0.247145" stroke-miterlimit="10" stroke-linecap="round"/>
<path d="M260.504 136.276C260.504 136.276 259.822 142.56 262.694 145.05" stroke="white" stroke-width="0.247145" stroke-miterlimit="10" stroke-linecap="round"/>
<path d="M240.121 199.184C240.121 199.184 249.52 197.558 251.554 195.207C251.554 195.207 261.537 209.314 263.328 214.913C265.119 220.512 251.465 225.997 249.333 222.973C247.202 219.949 240.121 199.184 240.121 199.184Z" fill="white" stroke="black" stroke-width="0.494289" stroke-miterlimit="10" stroke-linecap="round"/>
<path d="M281.205 213.755H208.055V261.974H281.205V213.755Z" fill="#454545" stroke="black" stroke-width="0.494289" stroke-miterlimit="10"/>
<path d="M281.205 261.974H208.055V265.109H281.205V261.974Z" fill="#454545" stroke="black" stroke-width="0.494289" stroke-miterlimit="10"/>
<path d="M245.844 240.215C248.997 240.215 251.554 239.037 251.554 237.584C251.554 236.131 248.997 234.954 245.844 234.954C242.69 234.954 240.133 236.131 240.133 237.584C240.133 239.037 242.69 240.215 245.844 240.215Z" fill="#FFF0E6"/>
<path d="M234.38 178.399L234.704 179.718" stroke="black" stroke-width="0.494289" stroke-miterlimit="10" stroke-linecap="round"/>
<path d="M212.468 189.347C212.468 189.347 217.164 196.253 216.863 209.52L212.468 189.347Z" fill="#4052F2"/>
<path d="M212.468 189.347C212.468 189.347 217.164 196.253 216.863 209.52" stroke="black" stroke-width="0.494289" stroke-miterlimit="10" stroke-linecap="round"/>
<path d="M279.04 188.526C279.04 188.526 272.398 190.765 266.85 202.26L279.04 188.526Z" fill="#4052F2"/>
<path d="M279.04 188.526C279.04 188.526 272.398 190.765 266.85 202.26" stroke="black" stroke-width="0.494289" stroke-miterlimit="10" stroke-linecap="round"/>
<path d="M235.375 153.942C235.924 153.942 236.369 153.32 236.369 152.553C236.369 151.786 235.924 151.164 235.375 151.164C234.825 151.164 234.38 151.786 234.38 152.553C234.38 153.32 234.825 153.942 235.375 153.942Z" fill="black"/>
<path d="M255.026 154.04C255.576 154.04 256.021 153.418 256.021 152.651C256.021 151.884 255.576 151.262 255.026 151.262C254.477 151.262 254.031 151.884 254.031 152.651C254.031 153.418 254.477 154.04 255.026 154.04Z" fill="black"/>
<path d="M231.478 145.464C231.478 145.464 235.309 140.74 238.597 144.545L231.478 145.464Z" fill="white"/>
<path d="M231.478 145.464C231.478 145.464 235.309 140.74 238.597 144.545" stroke="black" stroke-width="0.494289" stroke-miterlimit="10" stroke-linecap="round"/>
<path d="M252.496 148.326C252.496 148.326 257.67 147.214 259.549 149.655L252.496 148.326Z" fill="white"/>
<path d="M252.496 148.326C252.496 148.326 257.67 147.214 259.549 149.655" stroke="black" stroke-width="0.494289" stroke-miterlimit="10" stroke-linecap="round"/>
<path d="M245.535 149.959C245.535 149.959 244.091 156.632 244.688 157.67C245.285 158.708 247.575 158.03 247.575 158.03" fill="white"/>
<path d="M245.535 149.959C245.535 149.959 244.091 156.632 244.688 157.67C245.285 158.708 247.575 158.03 247.575 158.03" stroke="black" stroke-width="0.494289" stroke-miterlimit="10" stroke-linecap="round"/>
<path d="M241.418 163.164C241.418 163.164 247.614 165.303 250.7 163.411L241.418 163.164Z" fill="white"/>
<path d="M241.418 163.164C241.418 163.164 247.614 165.303 250.7 163.411" stroke="black" stroke-width="0.494289" stroke-miterlimit="10" stroke-linecap="round"/>
<path d="M116.857 277.287H178.242" stroke="black" stroke-width="0.494471" stroke-miterlimit="10" stroke-linecap="round"/>
<path d="M297.056 277.287L358.401 277.287" stroke="black" stroke-width="0.494471" stroke-miterlimit="10" stroke-linecap="round"/>
<path d="M72.895 277.287H110.227" stroke="black" stroke-width="0.494471" stroke-miterlimit="10" stroke-linecap="round"/>
<path d="M21.3606 277.287L64.5823 277.287" stroke="black" stroke-width="0.494471" stroke-miterlimit="10" stroke-linecap="round"/>
</g>
</svg>
