<svg width="24" height="25" viewBox="0 0 24 25" fill="none" xmlns="http://www.w3.org/2000/svg">
<path d="M9.00006 4.01978H5.00006C4.44778 4.01978 4.00006 4.46749 4.00006 5.01978V9.01977C4.00006 9.57206 4.44778 10.0198 5.00006 10.0198H9.00006C9.55234 10.0198 10.0001 9.57206 10.0001 9.01977V5.01978C10.0001 4.46749 9.55234 4.01978 9.00006 4.01978Z" stroke="#21345F" stroke-width="2" stroke-linecap="round" stroke-linejoin="round"/>
<path d="M18.9999 4.01978H14.9999C14.4477 4.01978 13.9999 4.46749 13.9999 5.01978V9.01977C13.9999 9.57206 14.4477 10.0198 14.9999 10.0198H18.9999C19.5522 10.0198 19.9999 9.57206 19.9999 9.01977V5.01978C19.9999 4.46749 19.5522 4.01978 18.9999 4.01978Z" stroke="#21345F" stroke-width="2" stroke-linecap="round" stroke-linejoin="round"/>
<path d="M9.00006 14.0193H5.00006C4.44778 14.0193 4.00006 14.467 4.00006 15.0193V19.0193C4.00006 19.5716 4.44778 20.0193 5.00006 20.0193H9.00006C9.55234 20.0193 10.0001 19.5716 10.0001 19.0193V15.0193C10.0001 14.467 9.55234 14.0193 9.00006 14.0193Z" stroke="#21345F" stroke-width="2" stroke-linecap="round" stroke-linejoin="round"/>
<path d="M18.9999 14.0193H14.9999C14.4477 14.0193 13.9999 14.467 13.9999 15.0193V19.0193C13.9999 19.5716 14.4477 20.0193 14.9999 20.0193H18.9999C19.5522 20.0193 19.9999 19.5716 19.9999 19.0193V15.0193C19.9999 14.467 19.5522 14.0193 18.9999 14.0193Z" stroke="#21345F" stroke-width="2" stroke-linecap="round" stroke-linejoin="round"/>
</svg>
