<svg width="58" height="58" viewBox="0 0 58 58" fill="none" xmlns="http://www.w3.org/2000/svg">
<circle cx="28.5542" cy="29.0007" r="22.8606" fill="#FEFEFE" stroke="#654EF9" stroke-width="1.14939"/>
<mask id="path-2-inside-1" fill="white">
<path d="M48.5867 46.2602C49.4703 47.0215 50.8107 46.9266 51.5046 45.9892C54.3301 42.1722 56.1659 37.7008 56.8302 32.9761C57.5928 27.5526 56.7795 22.0242 54.4873 17.05C52.1951 12.0759 48.5208 7.86591 43.9024 4.92202C39.8791 2.35743 35.2872 0.847974 30.5498 0.516099C29.3864 0.434595 28.4434 1.39197 28.4481 2.55825C28.4528 3.72453 29.4038 4.65667 30.5661 4.7531C34.4924 5.07887 38.2923 6.3545 41.6322 8.48351C45.5675 10.992 48.6984 14.5792 50.6515 18.8176C52.6046 23.056 53.2976 27.7667 52.6479 32.388C52.0964 36.3103 50.5974 40.0277 48.2942 43.2241C47.6124 44.1704 47.7032 45.4989 48.5867 46.2602Z"/>
</mask>
<path d="M48.5867 46.2602C49.4703 47.0215 50.8107 46.9266 51.5046 45.9892C54.3301 42.1722 56.1659 37.7008 56.8302 32.9761C57.5928 27.5526 56.7795 22.0242 54.4873 17.05C52.1951 12.0759 48.5208 7.86591 43.9024 4.92202C39.8791 2.35743 35.2872 0.847974 30.5498 0.516099C29.3864 0.434595 28.4434 1.39197 28.4481 2.55825C28.4528 3.72453 29.4038 4.65667 30.5661 4.7531C34.4924 5.07887 38.2923 6.3545 41.6322 8.48351C45.5675 10.992 48.6984 14.5792 50.6515 18.8176C52.6046 23.056 53.2976 27.7667 52.6479 32.388C52.0964 36.3103 50.5974 40.0277 48.2942 43.2241C47.6124 44.1704 47.7032 45.4989 48.5867 46.2602Z" stroke="#654EF9" stroke-width="9.19515" mask="url(#path-2-inside-1)"/>
<path d="M25.8297 28.1074C26.4084 28.2754 26.8517 28.5648 27.1597 28.9754C27.4677 29.3861 27.6217 29.9041 27.6217 30.5294C27.6217 31.3974 27.3137 32.0834 26.6977 32.5874C26.0911 33.0821 25.2651 33.3294 24.2197 33.3294C23.5571 33.3294 22.9224 33.2268 22.3157 33.0214C21.7184 32.8068 21.2191 32.5081 20.8177 32.1254L21.3357 31.0614C22.2317 31.7894 23.1791 32.1534 24.1777 32.1534C25.5404 32.1534 26.2217 31.5794 26.2217 30.4314C26.2217 29.8714 26.0444 29.4561 25.6897 29.1854C25.3351 28.9054 24.7984 28.7654 24.0797 28.7654H22.8617V27.5894H23.8557C24.5464 27.5894 25.0737 27.4448 25.4377 27.1554C25.8017 26.8661 25.9837 26.4461 25.9837 25.8954C25.9837 25.3914 25.8297 25.0041 25.5217 24.7334C25.2231 24.4628 24.7984 24.3274 24.2477 24.3274C23.3144 24.3274 22.3904 24.6914 21.4757 25.4194L20.9577 24.3554C21.3497 23.9821 21.8444 23.6881 22.4417 23.4734C23.0484 23.2588 23.6737 23.1514 24.3177 23.1514C25.2511 23.1514 25.9931 23.3848 26.5437 23.8514C27.1037 24.3088 27.3837 24.9294 27.3837 25.7134C27.3837 26.2828 27.2484 26.7774 26.9777 27.1974C26.7071 27.6174 26.3244 27.9208 25.8297 28.1074ZM33.2723 26.9174C33.8696 26.9174 34.3969 27.0528 34.8543 27.3234C35.3209 27.5848 35.6849 27.9581 35.9463 28.4434C36.2076 28.9194 36.3383 29.4701 36.3383 30.0954C36.3383 30.7208 36.1983 31.2808 35.9183 31.7754C35.6383 32.2608 35.2509 32.6434 34.7563 32.9234C34.2616 33.2034 33.7016 33.3434 33.0763 33.3434C31.8443 33.3434 30.8923 32.9234 30.2203 32.0834C29.5576 31.2434 29.2263 30.0394 29.2263 28.4714C29.2263 27.3608 29.3803 26.4088 29.6883 25.6154C30.0056 24.8128 30.4583 24.2014 31.0463 23.7814C31.6436 23.3614 32.3529 23.1514 33.1743 23.1514C33.7623 23.1514 34.3316 23.2541 34.8823 23.4594C35.4423 23.6648 35.9276 23.9634 36.3383 24.3554L35.8203 25.4194C34.9429 24.6914 34.0749 24.3274 33.2163 24.3274C32.4043 24.3274 31.7789 24.6868 31.3403 25.4054C30.9016 26.1148 30.6823 27.1274 30.6823 28.4434V28.4574C30.8969 27.9721 31.2329 27.5941 31.6903 27.3234C32.1569 27.0528 32.6843 26.9174 33.2723 26.9174ZM33.0063 32.1674C33.5849 32.1674 34.0516 31.9808 34.4063 31.6074C34.7609 31.2341 34.9383 30.7394 34.9383 30.1234C34.9383 29.5168 34.7609 29.0268 34.4063 28.6534C34.0516 28.2801 33.5803 28.0934 32.9923 28.0934C32.4043 28.0934 31.9189 28.2848 31.5363 28.6674C31.1629 29.0408 30.9763 29.5261 30.9763 30.1234C30.9763 30.7301 31.1629 31.2248 31.5363 31.6074C31.9096 31.9808 32.3996 32.1674 33.0063 32.1674Z" fill="#654EF9"/>
</svg>
