<?xml version="1.0" standalone="no"?>
<!DOCTYPE svg PUBLIC "-//W3C//DTD SVG 20010904//EN"
 "http://www.w3.org/TR/2001/REC-SVG-20010904/DTD/svg10.dtd">
<svg version="1.0" xmlns="http://www.w3.org/2000/svg"
 width="337.000000pt" height="280.000000pt" viewBox="0 0 337.000000 280.000000"
 preserveAspectRatio="xMidYMid meet">
<metadata>
Created by potrace 1.16, written by Peter Selinger 2001-2019
</metadata>
<g transform="translate(0.000000,280.000000) scale(0.100000,-0.100000)"
fill="#000000" stroke="none">
<path d="M377 2548 c-3 -13 -33 -162 -67 -333 -61 -303 -63 -311 -94 -337 -24
-20 -28 -29 -19 -38 8 -9 11 -8 10 6 -1 11 12 26 36 39 20 12 35 24 32 27 -3
3 24 151 60 328 74 366 68 330 56 330 -5 0 -11 -10 -14 -22z"/>
<path d="M1165 2226 c10 -14 19 -26 22 -26 7 0 -17 39 -28 46 -6 3 -3 -5 6
-20z"/>
<path d="M1090 2215 c-25 -13 -41 -24 -37 -25 11 0 87 39 87 45 0 7 0 7 -50
-20z"/>
<path d="M1206 2163 c53 -83 67 -103 71 -103 3 0 -3 12 -13 28 -53 82 -67 102
-71 102 -3 0 3 -12 13 -27z"/>
<path d="M990 2170 c-8 -5 -10 -10 -5 -10 6 0 17 5 25 10 8 5 11 10 5 10 -5 0
-17 -5 -25 -10z"/>
<path d="M1061 2131 c-12 -8 -12 -16 4 -58 23 -62 27 -66 53 -47 57 39 1 142
-57 105z m63 -44 c8 -21 6 -31 -7 -44 -15 -16 -17 -14 -32 20 -20 49 -19 59 7
55 14 -2 26 -14 32 -31z"/>
<path d="M985 2101 c-3 -5 2 -29 11 -53 21 -53 39 -75 30 -35 -7 31 0 34 26
10 10 -9 18 -11 18 -6 0 6 -6 16 -14 23 -8 6 -12 18 -9 26 11 29 -45 61 -62
35z m41 -38 c-7 -17 -8 -17 -17 0 -12 21 -2 44 13 29 6 -6 8 -19 4 -29z"/>
<path d="M929 2073 c-3 -26 4 -90 12 -103 7 -12 8 -10 9 8 0 22 23 31 35 12 3
-5 11 -10 16 -10 6 0 -4 20 -21 44 -31 46 -49 63 -51 49z m31 -49 c0 -8 -4
-12 -10 -9 -5 3 -10 13 -10 21 0 8 5 12 10 9 6 -3 10 -13 10 -21z"/>
<path d="M852 2048 c-17 -17 -15 -59 4 -86 15 -22 58 -30 69 -13 3 6 -7 9 -22
8 -20 -2 -30 4 -40 25 -15 29 -8 58 13 58 8 0 14 5 14 10 0 14 -23 13 -38 -2z"/>
<path d="M1310 2005 c17 -25 33 -45 36 -45 3 0 -9 20 -26 45 -17 25 -33 45
-36 45 -3 0 9 -20 26 -45z"/>
<path d="M3237 1993 c-3 -27 -51 -271 -107 -543 -82 -398 -101 -506 -97 -552
4 -48 2 -58 -12 -63 -14 -4 -26 -50 -61 -225 -24 -121 -46 -220 -50 -220 -3 0
-82 15 -174 34 -93 19 -174 32 -180 30 -7 -3 -32 3 -56 11 -56 20 -623 135
-665 135 -35 0 -147 -21 -142 -26 4 -4 58 -16 771 -160 298 -60 471 -91 475
-85 4 6 31 129 60 273 29 145 101 504 161 798 60 294 105 539 101 543 -5 5 -6
28 -3 53 3 26 1 44 -5 44 -6 0 -13 -21 -16 -47z"/>
<path d="M750 2008 c-21 -9 -22 -12 -7 -15 10 -3 27 -25 38 -50 25 -59 35 -50
12 11 -16 41 -16 48 -3 56 13 9 13 10 0 9 -8 0 -26 -5 -40 -11z"/>
<path d="M684 1982 c-13 -8 22 -112 38 -112 5 0 4 9 -2 19 -13 25 -13 31 3 31
7 0 18 -9 25 -21 21 -33 25 -16 6 22 -10 19 -20 41 -24 49 -8 17 -30 23 -46
12z m34 -39 c-10 -12 -13 -12 -20 1 -13 23 0 40 18 25 11 -9 12 -15 2 -26z"/>
<path d="M607 1953 c-4 -3 -7 -20 -7 -37 0 -63 56 -101 80 -56 25 47 -39 128
-73 93z m45 -20 c10 -9 18 -29 18 -45 0 -25 -4 -29 -22 -26 -25 3 -45 45 -35
72 8 20 16 20 39 -1z"/>
<path d="M1381 1906 c17 -25 45 -60 61 -78 16 -18 4 2 -28 45 -31 42 -58 77
-61 77 -2 0 10 -20 28 -44z"/>
<path d="M1435 1930 c3 -6 -4 -10 -17 -10 -23 -1 -23 -1 -3 -16 57 -44 84 -53
799 -263 170 -50 317 -91 327 -91 53 0 80 73 33 90 -38 15 -42 13 -49 -21 -6
-27 -10 -30 -34 -26 -69 14 -961 281 -993 298 -21 11 -38 26 -38 34 0 8 -7 15
-16 15 -8 0 -12 -4 -9 -10z"/>
<path d="M525 1921 c-3 -5 2 -29 11 -53 20 -50 40 -76 31 -39 -4 17 -1 28 11
37 14 10 14 16 4 38 -11 26 -45 36 -57 17z m45 -32 c0 -10 -4 -19 -9 -19 -12
0 -23 29 -15 41 8 14 24 0 24 -22z"/>
<path d="M471 1901 c-11 -7 -11 -17 4 -57 24 -64 26 -65 55 -48 24 14 24 15 2
11 -30 -7 -47 22 -24 41 16 13 16 13 -1 8 -26 -8 -34 22 -11 39 15 11 16 14 4
15 -8 0 -21 -4 -29 -9z"/>
<path d="M1255 1883 c5 -26 3 -33 -9 -33 -8 0 -18 -5 -22 -11 -4 -8 3 -9 24
-4 25 5 31 3 37 -14 3 -12 11 -21 17 -21 5 0 7 7 4 15 -3 8 -9 21 -12 29 -3 9
3 17 15 21 12 3 21 11 21 16 0 6 -9 5 -22 -2 -18 -10 -24 -8 -40 12 l-19 24 6
-32z"/>
<path d="M403 1872 c-10 -6 -9 -19 5 -55 20 -53 38 -75 28 -34 -7 31 0 34 26
10 21 -18 25 -2 5 19 -8 7 -12 19 -9 26 5 15 -16 42 -32 42 -6 0 -17 -4 -23
-8z m33 -39 c-7 -17 -8 -17 -17 0 -12 21 -2 44 13 29 6 -6 8 -19 4 -29z"/>
<path d="M1104 1840 c3 -22 9 -58 12 -80 3 -22 10 -40 16 -40 6 0 8 12 5 26
-6 35 34 56 61 31 20 -18 32 -22 32 -9 0 14 -101 112 -116 112 -13 0 -15 -8
-10 -40z m44 -2 c16 -16 15 -35 -2 -41 -10 -4 -15 4 -18 24 -5 31 1 36 20 17z"/>
<path d="M141 1382 c-74 -365 -90 -466 -77 -479 2 -2 212 -46 467 -98 l464
-94 38 -43 c39 -43 39 -43 -3 12 -176 229 -232 300 -236 300 -3 0 26 -41 65
-92 39 -50 70 -93 68 -94 -4 -4 -840 166 -846 172 -2 2 31 179 75 393 67 331
81 388 93 378 10 -9 9 -2 -4 23 -10 19 -18 36 -19 37 -1 1 -39 -186 -85 -415z"/>
<path d="M1510 1745 c43 -48 106 -108 160 -150 l25 -19 -20 20 c-81 81 -201
190 -165 149z"/>
<path d="M270 1700 c6 -11 13 -20 16 -20 2 0 0 9 -6 20 -6 11 -13 20 -16 20
-2 0 0 -9 6 -20z"/>
<path d="M1370 1715 c0 -3 6 -14 13 -26 10 -17 9 -22 -5 -33 -25 -19 -22 -29
4 -15 18 10 24 8 39 -12 13 -17 19 -20 19 -8 0 8 -5 20 -12 27 -8 8 -5 16 13
32 23 21 18 22 -25 4 -9 -3 -17 3 -21 15 -5 18 -25 30 -25 16z"/>
<path d="M840 1705 c0 -11 40 -85 46 -85 3 0 3 13 -1 29 -8 39 12 51 36 20 21
-28 36 -20 19 11 -10 18 -18 21 -46 17 -19 -3 -34 -2 -34 4 0 5 -4 9 -10 9 -5
0 -10 -2 -10 -5z"/>
<path d="M1236 1672 c-6 -11 23 -144 35 -156 5 -6 9 2 9 21 0 42 23 60 55 43
14 -7 28 -10 32 -7 3 4 4 8 2 10 -2 2 -29 24 -60 50 -59 49 -65 52 -73 39z
m61 -67 c-7 -19 -32 -10 -35 13 -3 21 -2 22 17 10 12 -7 20 -17 18 -23z"/>
<path d="M794 1658 c-3 -5 1 -15 9 -23 9 -8 17 -20 19 -27 3 -7 11 -9 24 -4
15 7 16 9 4 14 -22 8 -30 25 -19 39 8 9 5 11 -11 10 -12 -1 -24 -5 -26 -9z"/>
<path d="M730 1619 c-11 -8 -9 -9 10 -3 l25 6 -23 -25 c-29 -31 -14 -44 29
-27 33 14 33 14 19 41 -12 21 -37 24 -60 8z m40 -27 c0 -13 -12 -22 -22 -16
-10 6 -1 24 13 24 5 0 9 -4 9 -8z"/>
<path d="M655 1608 c-2 -7 -5 -26 -7 -42 l-3 -28 -27 22 c-36 28 -50 19 -36
-23 16 -47 32 -60 24 -19 l-6 33 30 -21 30 -21 6 42 7 42 14 -27 c7 -14 18
-26 24 -26 6 0 0 18 -12 40 -23 41 -36 49 -44 28z"/>
<path d="M390 1520 c22 -33 43 -60 46 -60 2 0 -14 27 -36 60 -22 33 -43 60
-46 60 -2 0 14 -27 36 -60z"/>
<path d="M1700 1575 c0 -9 267 -204 423 -309 l147 -100 -120 -71 c-66 -40
-123 -75 -128 -80 -4 -5 -2 -6 3 -3 29 15 255 151 255 154 0 1 -71 51 -157
110 -86 58 -217 151 -290 205 -73 54 -133 96 -133 94z"/>
<path d="M1045 1490 c-4 -13 0 -31 9 -45 17 -26 24 -29 50 -19 25 10 19 22 -9
16 -29 -5 -33 5 -8 23 15 11 15 15 4 29 -18 22 -38 20 -46 -4z m35 -10 c0 -5
-4 -10 -10 -10 -5 0 -10 5 -10 10 0 6 5 10 10 10 6 0 10 -4 10 -10z"/>
<path d="M1520 1487 c0 -5 5 -18 11 -29 9 -18 8 -24 -7 -35 -9 -7 -15 -16 -11
-19 4 -4 14 -1 23 7 14 11 19 10 35 -11 13 -18 19 -20 19 -9 0 8 -5 20 -11 26
-8 8 -4 15 12 27 28 19 19 33 -9 15 -18 -11 -23 -10 -41 12 -11 13 -20 20 -21
16z"/>
<path d="M994 1465 c-15 -39 17 -82 51 -69 22 9 18 21 -6 20 -12 -1 -26 7 -33
17 -9 15 -7 21 8 33 18 12 18 14 3 14 -10 0 -20 -7 -23 -15z"/>
<path d="M440 1446 c0 -2 8 -10 18 -17 15 -13 16 -12 3 4 -13 16 -21 21 -21
13z"/>
<path d="M927 1436 c-17 -13 -17 -15 -1 -50 10 -20 21 -36 26 -36 11 0 10 7
-7 40 -11 21 -12 31 -3 36 10 7 17 1 45 -43 20 -31 14 0 -7 35 -22 36 -27 37
-53 18z"/>
<path d="M1387 1408 c15 -76 29 -118 38 -117 6 0 9 11 7 24 -5 35 33 53 59 29
12 -11 23 -14 29 -8 11 11 -101 104 -124 104 -12 0 -14 -7 -9 -32z m60 -33
c-7 -19 -32 -10 -35 13 -3 21 -2 22 17 10 12 -7 20 -17 18 -23z"/>
<path d="M800 1410 c0 -5 5 -10 11 -10 5 0 7 5 4 10 -3 6 -8 10 -11 10 -2 0
-4 -4 -4 -10z"/>
<path d="M490 1380 c12 -16 24 -30 26 -30 3 0 -4 14 -16 30 -12 17 -24 30 -26
30 -3 0 4 -13 16 -30z"/>
<path d="M856 1395 c-7 -20 12 -62 32 -70 9 -3 23 1 31 10 15 15 14 16 -11 10
-31 -8 -39 8 -11 23 21 12 10 42 -16 42 -10 0 -21 -7 -25 -15z m38 -4 c3 -5
-1 -11 -9 -15 -9 -3 -15 0 -15 9 0 16 16 20 24 6z"/>
<path d="M820 1375 c0 -14 31 -65 40 -65 5 0 0 16 -11 35 -20 33 -29 42 -29
30z"/>
<path d="M693 1354 c-8 -21 9 -48 33 -52 33 -6 41 -22 20 -38 -11 -7 -17 -16
-14 -19 8 -8 36 5 41 20 8 19 -21 55 -43 55 -28 0 -35 19 -14 35 18 14 18 14
1 15 -10 0 -20 -7 -24 -16z"/>
<path d="M774 1355 c-15 -39 25 -89 56 -70 17 11 11 22 -11 21 -12 -1 -26 7
-33 17 -9 15 -7 21 8 33 18 12 18 14 3 14 -10 0 -20 -7 -23 -15z"/>
<path d="M527 1330 c42 -61 254 -340 258 -340 7 0 -232 319 -253 340 -14 13
-15 13 -5 0z"/>
<path d="M1225 1243 c6 -26 6 -27 -13 -10 -31 28 -38 19 -9 -11 18 -19 25 -35
21 -45 -3 -10 -1 -17 5 -17 7 0 11 21 11 55 0 34 -4 55 -11 55 -7 0 -9 -10 -4
-27z"/>
<path d="M1695 1232 c5 -17 2 -27 -12 -37 -20 -16 -7 -20 16 -6 10 6 20 3 32
-12 19 -23 26 -13 9 13 -6 10 -4 21 8 34 16 18 16 19 -3 8 -16 -8 -24 -7 -39
6 -18 16 -18 16 -11 -6z"/>
<path d="M1152 1231 c-10 -6 -11 -13 -1 -34 13 -29 36 -38 24 -9 -4 9 -7 25
-7 35 1 20 1 19 -16 8z"/>
<path d="M1081 1196 c-16 -19 3 -56 28 -56 29 0 45 25 31 49 -12 24 -42 27
-59 7z m47 -24 c2 -14 -2 -22 -12 -22 -19 0 -29 17 -22 36 8 22 30 12 34 -14z"/>
<path d="M1563 1188 c4 -13 9 -42 13 -66 8 -50 24 -66 24 -23 0 34 31 51 56
30 8 -6 18 -9 22 -5 10 11 -79 85 -102 86 -14 0 -17 -5 -13 -22z m47 -42 c-12
-12 -15 -8 -25 24 -8 25 -8 25 14 6 14 -13 18 -23 11 -30z"/>
<path d="M1023 1177 c-3 -5 -1 -12 4 -16 6 -3 15 -16 22 -29 7 -12 16 -20 22
-17 5 4 3 13 -6 22 -9 8 -13 23 -10 32 6 19 -21 26 -32 8z"/>
<path d="M987 1153 c-14 -13 -6 -33 13 -33 22 0 27 -15 8 -24 -7 -3 -4 -5 7
-3 28 3 25 31 -3 35 -19 3 -21 6 -11 18 11 14 -1 20 -14 7z"/>
<path d="M913 1133 c3 -13 -2 -28 -10 -35 -12 -10 -18 -9 -29 7 -23 32 -27 9
-4 -34 23 -46 33 -53 24 -17 -7 30 23 44 41 19 25 -33 23 -8 -1 37 -14 25 -23
35 -21 23z"/>
<path d="M950 1132 c0 -18 23 -62 32 -62 5 0 1 15 -8 33 -20 39 -24 44 -24 29z"/>
<path d="M1360 1068 c0 -14 44 -98 52 -98 5 0 4 9 -2 19 -5 11 -10 27 -10 35
0 26 26 18 40 -11 7 -17 14 -23 17 -15 6 17 -24 62 -42 62 -7 0 -17 -5 -20
-11 -5 -6 -12 -4 -21 8 -7 10 -14 15 -14 11z"/>
<path d="M1325 1010 c-9 -15 4 -30 26 -30 23 0 25 -15 3 -24 -9 -4 -15 -9 -12
-11 11 -11 38 8 38 26 0 13 -7 19 -21 19 -15 0 -19 5 -15 15 6 17 -9 21 -19 5z"/>
<path d="M1240 1003 c1 -5 12 -28 25 -53 29 -54 33 -36 5 20 -19 37 -31 50
-30 33z"/>
<path d="M1984 994 c-18 -14 -18 -15 4 -4 12 6 22 13 22 15 0 8 -5 6 -26 -11z"/>
<path d="M1290 992 c0 -18 23 -62 32 -62 5 0 1 15 -8 33 -20 39 -24 44 -24 29z"/>
<path d="M1903 949 c-29 -17 -53 -33 -53 -36 0 -5 89 44 105 58 16 16 1 9 -52
-22z"/>
<path d="M1192 948 c-28 -28 -1 -75 38 -63 25 8 27 -10 3 -24 -17 -10 -17 -10
-1 -11 30 0 40 35 21 74 -17 37 -40 45 -61 24z m42 -25 c9 -23 -16 -37 -31
-16 -7 9 -10 20 -7 24 9 15 31 10 38 -8z"/>
<path d="M1043 907 c-28 -12 -28 -18 -3 -68 19 -36 23 -38 43 -28 33 17 35 23
6 15 -30 -7 -51 20 -24 30 8 4 15 11 15 17 0 7 -4 7 -12 -1 -16 -16 -28 -15
-28 3 0 7 8 18 17 24 25 14 13 21 -14 8z"/>
<path d="M1111 906 c-9 -10 -9 -20 0 -40 7 -14 16 -26 21 -26 5 0 4 9 -2 21
-7 11 -9 28 -5 37 6 14 10 12 31 -13 26 -33 30 -30 12 10 -12 27 -39 33 -57
11z"/>
<path d="M1808 894 c-38 -20 -36 -28 2 -9 17 9 30 18 30 20 0 7 -1 6 -32 -11z"/>
<path d="M1580 765 c-102 -58 -196 -111 -210 -119 l-25 -15 33 -1 c21 0 32 5
32 14 0 7 81 59 180 115 99 56 180 104 180 106 0 7 9 12 -190 -100z"/>
<path d="M1085 600 c10 -11 20 -20 23 -20 3 0 -3 9 -13 20 -10 11 -20 20 -23
20 -3 0 3 -9 13 -20z"/>
<path d="M1280 600 c-9 -6 -10 -10 -3 -10 6 0 15 5 18 10 8 12 4 12 -15 0z"/>
<path d="M1125 550 c10 -11 20 -20 23 -20 3 0 -3 9 -13 20 -10 11 -20 20 -23
20 -3 0 3 -9 13 -20z"/>
<path d="M1073 95 c0 -27 2 -38 4 -22 2 15 8 27 13 27 5 0 11 -12 13 -27 4
-26 4 -26 6 5 1 22 -4 32 -13 32 -8 0 -17 8 -19 18 -3 9 -5 -5 -4 -33z"/>
<path d="M1572 95 c0 -27 2 -43 5 -35 3 8 13 24 22 35 15 18 15 19 -1 7 -14
-12 -17 -10 -21 15 -2 16 -4 6 -5 -22z"/>
<path d="M1190 120 c-4 -25 1 -54 10 -63 4 -5 5 3 3 17 -4 19 -1 26 11 26 9 0
16 -8 16 -19 0 -11 4 -22 9 -25 5 -4 7 3 4 15 -3 12 -1 24 4 28 7 4 6 11 -3
19 -8 7 -14 8 -14 2 0 -14 -27 -13 -33 3 -4 8 -6 8 -7 -3z"/>
<path d="M1419 118 c-2 -25 3 -53 11 -62 5 -5 6 1 3 14 -3 12 -1 25 4 29 7 4
6 11 -3 19 -11 10 -14 10 -15 0z"/>
<path d="M1970 125 c-1 -5 -1 -21 0 -34 1 -13 -4 -28 -12 -32 -9 -6 -3 -9 17
-9 17 0 25 4 18 8 -6 4 -13 23 -16 42 -2 19 -5 31 -7 25z"/>
<path d="M2028 123 c7 -3 16 -2 19 1 4 3 -2 6 -13 5 -11 0 -14 -3 -6 -6z"/>
<path d="M2087 123 c22 -4 22 -6 8 -33 -22 -42 -17 -51 5 -10 25 46 25 50 -7
49 -24 -2 -25 -2 -6 -6z"/>
<path d="M2147 123 c22 -4 22 -6 8 -33 -22 -42 -17 -51 5 -10 25 46 25 50 -7
49 -24 -2 -25 -2 -6 -6z"/>
<path d="M2194 115 c-4 -8 -1 -22 6 -30 6 -8 9 -19 5 -25 -3 -5 -4 -10 -1 -10
10 0 33 55 29 68 -6 17 -32 15 -39 -3z m28 -10 c0 -5 -5 -11 -11 -13 -6 -2
-11 4 -11 13 0 9 5 15 11 13 6 -2 11 -8 11 -13z"/>
<path d="M2254 115 c-4 -8 -1 -22 6 -30 6 -8 9 -19 5 -25 -3 -5 -4 -10 -1 -10
10 0 33 55 29 68 -6 17 -32 15 -39 -3z m28 -10 c0 -5 -5 -11 -11 -13 -6 -2
-11 4 -11 13 0 9 5 15 11 13 6 -2 11 -8 11 -13z"/>
<path d="M2320 106 c-15 -29 -8 -56 15 -56 23 0 31 31 12 45 -12 9 -14 14 -5
23 7 7 8 12 2 12 -6 0 -16 -11 -24 -24z m22 -31 c0 -5 -5 -11 -11 -13 -6 -2
-11 4 -11 13 0 9 5 15 11 13 6 -2 11 -8 11 -13z"/>
<path d="M1020 93 c0 -10 4 -14 8 -8 4 6 11 13 16 18 5 4 2 7 -7 7 -10 0 -17
-8 -17 -17z"/>
<path d="M1131 83 c-1 -27 3 -33 19 -33 16 0 20 6 19 33 -2 30 -2 30 -6 5 -6
-36 -20 -36 -26 0 -4 25 -4 25 -6 -5z"/>
<path d="M1277 104 c-13 -13 -7 -24 14 -24 11 0 19 5 17 12 -5 14 -22 21 -31
12z"/>
<path d="M1331 78 c2 -28 2 -29 6 -8 3 14 10 28 17 32 7 5 5 8 -6 8 -14 0 -18
-8 -17 -32z"/>
<path d="M1370 93 c0 -10 4 -14 8 -8 4 6 11 13 16 18 5 4 2 7 -7 7 -10 0 -17
-8 -17 -17z"/>
<path d="M1464 95 c-8 -21 2 -45 20 -45 7 0 16 7 20 15 8 21 -3 45 -20 45 -8
0 -17 -7 -20 -15z m31 -15 c0 -7 -6 -15 -12 -17 -8 -3 -13 4 -13 17 0 13 5 20
13 18 6 -3 12 -11 12 -18z"/>
<path d="M1524 95 c-8 -20 2 -45 18 -44 10 0 10 2 1 6 -7 2 -13 13 -13 23 0
10 6 21 13 23 9 4 9 6 -1 6 -7 1 -15 -6 -18 -14z"/>
<path d="M1664 95 c-8 -20 2 -45 18 -44 10 0 10 2 1 6 -7 2 -13 13 -13 23 0
10 6 21 13 23 9 4 9 6 -1 6 -7 1 -15 -6 -18 -14z"/>
<path d="M1714 95 c-8 -21 2 -45 20 -45 17 0 28 24 20 45 -4 8 -13 15 -20 15
-8 0 -17 -7 -20 -15z m31 -15 c0 -7 -6 -15 -12 -17 -8 -3 -13 4 -13 17 0 13 5
20 13 18 6 -3 12 -11 12 -18z"/>
<path d="M1771 77 c2 -31 2 -31 6 -4 2 15 8 27 13 27 5 0 11 -12 13 -27 l4
-28 2 28 c0 15 5 27 10 27 5 0 12 -12 14 -27 4 -27 4 -27 6 4 1 29 -1 31 -34
31 -33 0 -35 -2 -34 -31z"/>
<path d="M2010 100 c0 -6 6 -10 14 -10 26 0 28 -20 4 -29 -15 -7 -17 -10 -7
-10 21 -1 40 21 31 35 -10 15 -42 25 -42 14z"/>
<path d="M1032 65 c-11 -12 -10 -15 3 -15 8 0 15 7 15 15 0 18 -2 18 -18 0z"/>
<path d="M1382 65 c-11 -12 -10 -15 3 -15 8 0 15 7 15 15 0 18 -2 18 -18 0z"/>
<path d="M1590 71 c0 -5 5 -13 10 -16 6 -3 10 -2 10 4 0 5 -4 13 -10 16 -5 3
-10 2 -10 -4z"/>
<path d="M1278 58 c5 -5 16 -8 23 -6 8 3 3 7 -10 11 -17 4 -21 3 -13 -5z"/>
</g>
</svg>
