<svg width="256" height="249" viewBox="0 0 256 249" fill="none" xmlns="http://www.w3.org/2000/svg">
<path d="M122.531 236.591C122.531 236.591 153.934 228.632 170.496 236.591C187.058 244.549 167.808 245.087 157.376 247.237C146.944 249.388 136.925 249.927 131.933 246.59C126.941 243.253 114.573 240.14 122.531 236.591Z" fill="#FEEED3"/>
<path d="M47.2482 226.506C47.2482 226.506 -3.82454 220.963 4.58215 184.288C12.9888 147.614 17.7584 145.502 2.44998 102.462C-12.8585 59.4228 83.6398 11.4074 131.478 55.5611C179.316 99.7149 205.424 70.8987 239.048 96.4664C272.671 122.034 250.533 196.347 213.219 226.506H47.2482Z" fill="#FEEED3"/>
<path d="M0.898315 237.097H115.269" stroke="black" stroke-width="0.409201" stroke-linecap="round" stroke-linejoin="round"/>
<path d="M210.454 237.097L237.774 237.097" stroke="black" stroke-width="0.409201" stroke-linecap="round" stroke-linejoin="round"/>
<path d="M173.538 237.097L207.557 237.097" stroke="black" stroke-width="0.409201" stroke-linecap="round" stroke-linejoin="round"/>
<path d="M241.054 237.097H255.508" stroke="black" stroke-width="0.409201" stroke-linecap="round" stroke-linejoin="round"/>
<path d="M58.7888 226.952L204.369 226.952C204.783 226.952 205.118 226.617 205.118 226.203L205.118 19.7471C205.118 19.3334 204.783 18.9979 204.369 18.9979L58.7888 18.9979C58.375 18.9979 58.0395 19.3334 58.0395 19.7471L58.0395 226.203C58.0395 226.617 58.375 226.952 58.7888 226.952Z" fill="#FEFEFE" stroke="#0B065A" stroke-width="1.17956" stroke-miterlimit="10" stroke-linecap="round"/>
<path d="M66.9979 218.796L196.161 218.796C196.4 218.796 196.594 218.602 196.594 218.363L196.594 27.5859C196.594 27.3468 196.4 27.153 196.161 27.153L66.9979 27.153C66.7589 27.153 66.565 27.3468 66.565 27.5859L66.565 218.363C66.565 218.602 66.7589 218.796 66.9979 218.796Z" fill="#FEFEFE" stroke="#0B065A" stroke-width="1.17956" stroke-miterlimit="10" stroke-linecap="round"/>
<path d="M72.0991 212.941L191.058 212.941C191.354 212.941 191.594 212.701 191.594 212.406L191.594 33.5441C191.594 33.2484 191.354 33.0087 191.058 33.0087L72.0991 33.0087C71.8034 33.0087 71.5636 33.2484 71.5636 33.5441L71.5636 212.406C71.5636 212.701 71.8034 212.941 72.0991 212.941Z" fill="#FEFEFE" stroke="#0B065A" stroke-width="1.17956" stroke-miterlimit="10" stroke-linecap="round"/>
<path d="M130.098 0.668907C132.168 0.668907 134.153 1.49103 135.616 2.95441C137.08 4.4178 137.902 6.40257 137.902 8.47211V18.4723H122.295V8.47211C122.295 6.40257 123.117 4.4178 124.581 2.95441C126.044 1.49103 128.029 0.668907 130.098 0.668907ZM130.098 12.9502C130.964 12.9502 131.811 12.6935 132.531 12.2124C133.251 11.7314 133.812 11.0477 134.143 10.2478C134.474 9.44787 134.561 8.56766 134.392 7.71847C134.223 6.86928 133.806 6.08925 133.194 5.47702C132.582 4.86478 131.802 4.44785 130.953 4.27893C130.103 4.11002 129.223 4.19671 128.423 4.52805C127.623 4.85939 126.94 5.42049 126.459 6.1404C125.978 6.86031 125.721 7.70669 125.721 8.57251C125.721 9.73355 126.182 10.847 127.003 11.668C127.824 12.489 128.937 12.9502 130.098 12.9502Z" fill="#654EF9" stroke="black" stroke-width="0.431832" stroke-miterlimit="10" stroke-linecap="round"/>
<g style="mix-blend-mode:multiply" opacity="0.5">
<path d="M125.721 8.57233C125.706 7.93811 125.833 7.30862 126.092 6.72937C126.35 6.15011 126.735 5.63557 127.216 5.22295C127.698 4.81032 128.266 4.50992 128.878 4.34347C129.49 4.17702 130.132 4.14867 130.756 4.26048C130.099 4.00678 130.066 3.83513 128.98 3.83513C128.405 3.83499 127.836 3.94812 127.304 4.16805C126.773 4.38799 126.29 4.71042 125.884 5.11695C125.477 5.52347 125.155 6.00611 124.935 6.5373C124.715 7.0685 124.601 7.63785 124.601 8.21283C124.601 10.4055 125.721 11.593 127.408 12.027C126.472 11.2238 125.721 9.90345 125.721 8.57233ZM135.518 17.4745V7.47008C135.518 4.75601 134.34 2.36798 132.237 0.969925C133.868 1.43418 135.303 2.41732 136.326 3.77044C137.348 5.12355 137.901 6.77291 137.902 8.46869V18.4688H122.295V17.4713L135.518 17.4745Z" fill="#654EF9"/>
<path d="M125.721 8.57233C125.706 7.93811 125.833 7.30862 126.092 6.72937C126.35 6.15011 126.735 5.63557 127.216 5.22295C127.698 4.81032 128.266 4.50992 128.878 4.34347C129.49 4.17702 130.132 4.14867 130.756 4.26048C130.099 4.00678 130.066 3.83513 128.98 3.83513C128.405 3.83499 127.836 3.94812 127.304 4.16805C126.773 4.38799 126.29 4.71042 125.884 5.11695C125.477 5.52347 125.155 6.00611 124.935 6.5373C124.715 7.0685 124.601 7.63785 124.601 8.21283C124.601 10.4055 125.721 11.593 127.408 12.027C126.472 11.2238 125.721 9.90345 125.721 8.57233ZM135.518 17.4745V7.47008C135.518 4.75601 134.34 2.36798 132.237 0.969925C133.868 1.43418 135.303 2.41732 136.326 3.77044C137.348 5.12355 137.901 6.77291 137.902 8.46869V18.4688H122.295V17.4713L135.518 17.4745Z" stroke="black" stroke-width="0.431832" stroke-miterlimit="10" stroke-linecap="round"/>
</g>
<path d="M84.2778 22.4395V30.2557H178.892V22.4395C178.892 20.9844 178.313 19.5891 177.284 18.5603C176.255 17.5315 174.86 16.9534 173.405 16.9531H89.761C89.0407 16.9533 88.3275 17.0953 87.6621 17.3711C86.9967 17.6469 86.3922 18.0511 85.883 18.5606C85.3738 19.07 84.97 19.6748 84.6946 20.3404C84.4192 21.0059 84.2775 21.7192 84.2778 22.4395Z" fill="#654EF9" stroke="black" stroke-width="0.431832" stroke-miterlimit="10" stroke-linecap="round"/>
<path opacity="0.5" d="M84.2778 28.3062V30.2603H178.892V22.4441C178.892 20.989 178.313 19.5937 177.284 18.5649C176.255 17.5361 174.86 16.958 173.405 16.9577H172.649C174.103 18.3493 175.24 20.475 175.24 22.6482V28.3062H84.2778Z" fill="#5842E2"/>
<path d="M140.164 53.3523H158.386C159.017 53.3523 159.526 52.8125 159.526 52.1324C159.526 51.4523 159.017 50.9125 158.386 50.9125H140.164C139.534 50.9125 139.024 51.4587 139.024 52.1324C139.024 52.8061 139.534 53.3523 140.164 53.3523Z" fill="#0B065A"/>
<path d="M85.4134 59.573H99.2698C99.8992 59.573 100.41 59.0267 100.41 58.353C100.41 57.6794 99.8992 57.1331 99.2698 57.1331H85.4134C84.784 57.1331 84.2733 57.6794 84.2733 58.353C84.2733 59.0267 84.784 59.573 85.4134 59.573Z" fill="#FEEED3"/>
<path d="M105.274 59.573H158.39C159.02 59.573 159.53 59.0267 159.53 58.353C159.53 57.6794 159.02 57.1331 158.39 57.1331H105.274C104.645 57.1331 104.134 57.6794 104.134 58.353C104.134 59.0267 104.645 59.573 105.274 59.573Z" fill="#FEEED3"/>
<path d="M85.4134 65.7889H158.386C159.017 65.7889 159.527 65.2426 159.527 64.569C159.527 63.8953 159.017 63.349 158.386 63.349H85.4134C84.784 63.349 84.2733 63.8953 84.2733 64.569C84.2733 65.2426 84.784 65.7889 85.4134 65.7889Z" fill="#FEEED3"/>
<path d="M85.4134 72.0054H108.608C109.239 72.0054 109.749 71.4591 109.749 70.7855C109.749 70.1118 109.239 69.5656 108.608 69.5656H85.4134C84.784 69.5656 84.2733 70.1053 84.2733 70.7855C84.2733 71.4656 84.784 72.0054 85.4134 72.0054Z" fill="#FEEED3"/>
<path d="M114.382 72.0054H158.387C159.017 72.0054 159.527 71.4591 159.527 70.7855C159.527 70.1118 159.017 69.5656 158.387 69.5656H114.382C113.753 69.5656 113.242 70.1053 113.242 70.7855C113.242 71.4656 113.75 72.0054 114.382 72.0054Z" fill="#FEEED3"/>
<path d="M85.4134 53.3523H134.184C134.814 53.3523 135.325 52.8125 135.325 52.1324C135.325 51.4523 134.814 50.9125 134.184 50.9125H85.4134C84.784 50.9125 84.2733 51.4587 84.2733 52.1324C84.2733 52.8061 84.784 53.3523 85.4134 53.3523Z" fill="#0B065A"/>
<path d="M140.164 98.047H158.386C159.017 98.047 159.526 97.5007 159.526 96.8271C159.526 96.1534 159.017 95.6072 158.386 95.6072H140.164C139.534 95.6072 139.024 96.1534 139.024 96.8271C139.024 97.5007 139.534 98.047 140.164 98.047Z" fill="#0B065A"/>
<path d="M85.4134 104.257H99.2698C99.8992 104.257 100.41 103.717 100.41 103.037C100.41 102.357 99.8992 101.817 99.2698 101.817H85.4134C84.784 101.817 84.2733 102.363 84.2733 103.037C84.2733 103.71 84.784 104.257 85.4134 104.257Z" fill="#FEEED3"/>
<path d="M105.274 104.257H158.39C159.02 104.257 159.53 103.717 159.53 103.037C159.53 102.357 159.02 101.817 158.39 101.817H105.274C104.645 101.817 104.134 102.363 104.134 103.037C104.134 103.71 104.645 104.257 105.274 104.257Z" fill="#FEEED3"/>
<path d="M85.4134 110.473H158.386C159.017 110.473 159.527 109.927 159.527 109.253C159.527 108.579 159.017 108.033 158.386 108.033H85.4134C84.784 108.033 84.2733 108.579 84.2733 109.253C84.2733 109.927 84.784 110.473 85.4134 110.473Z" fill="#FEEED3"/>
<path d="M85.4134 116.689H108.608C109.239 116.689 109.749 116.143 109.749 115.469C109.749 114.796 109.239 114.249 108.608 114.249H85.4134C84.784 114.249 84.2733 114.796 84.2733 115.469C84.2733 116.143 84.784 116.689 85.4134 116.689Z" fill="#FEEED3"/>
<path d="M114.382 116.689H158.387C159.017 116.689 159.527 116.143 159.527 115.469C159.527 114.796 159.017 114.249 158.387 114.249H114.382C113.753 114.249 113.242 114.796 113.242 115.469C113.242 116.143 113.75 116.689 114.382 116.689Z" fill="#FEEED3"/>
<path d="M85.4134 98.047H134.184C134.814 98.047 135.325 97.5007 135.325 96.8271C135.325 96.1534 134.814 95.6072 134.184 95.6072H85.4134C84.784 95.6072 84.2733 96.1534 84.2733 96.8271C84.2733 97.5007 84.784 98.047 85.4134 98.047Z" fill="#0B065A"/>
<path d="M140.164 141.162H158.386C159.017 141.162 159.526 140.616 159.526 139.942C159.526 139.268 159.017 138.722 158.386 138.722H140.164C139.534 138.722 139.024 139.268 139.024 139.942C139.024 140.616 139.534 141.162 140.164 141.162Z" fill="#0B065A"/>
<path d="M85.4134 147.384H99.2698C99.8992 147.384 100.41 146.837 100.41 146.164C100.41 145.49 99.8992 144.944 99.2698 144.944H85.4134C84.784 144.944 84.2733 145.49 84.2733 146.164C84.2733 146.837 84.784 147.384 85.4134 147.384Z" fill="#FEEED3"/>
<path d="M105.274 147.384H158.39C159.02 147.384 159.53 146.837 159.53 146.164C159.53 145.49 159.02 144.944 158.39 144.944H105.274C104.645 144.944 104.134 145.49 104.134 146.164C104.134 146.837 104.645 147.384 105.274 147.384Z" fill="#FEEED3"/>
<path d="M85.4134 153.595H158.386C159.017 153.595 159.527 153.049 159.527 152.375C159.527 151.701 159.017 151.155 158.386 151.155H85.4134C84.784 151.155 84.2733 151.701 84.2733 152.375C84.2733 153.049 84.784 153.595 85.4134 153.595Z" fill="#FEEED3"/>
<path d="M85.4134 159.811H108.608C109.239 159.811 109.749 159.263 109.749 158.591C109.749 157.918 109.239 157.371 108.608 157.371H85.4134C84.784 157.371 84.2733 157.917 84.2733 158.591C84.2733 159.264 84.784 159.811 85.4134 159.811Z" fill="#FEEED3"/>
<path d="M114.382 159.811H158.387C159.017 159.811 159.527 159.263 159.527 158.591C159.527 157.918 159.017 157.371 158.387 157.371H114.382C113.753 157.371 113.242 157.917 113.242 158.591C113.242 159.264 113.75 159.811 114.382 159.811Z" fill="#FEEED3"/>
<path d="M85.4134 141.162H134.184C134.814 141.162 135.325 140.616 135.325 139.942C135.325 139.268 134.814 138.722 134.184 138.722H85.4134C84.784 138.722 84.2733 139.268 84.2733 139.942C84.2733 140.616 84.784 141.162 85.4134 141.162Z" fill="#0B065A"/>
<path d="M140.164 185.061H158.386C159.017 185.061 159.526 184.515 159.526 183.842C159.526 183.17 159.017 182.622 158.386 182.622H140.164C139.534 182.622 139.024 183.168 139.024 183.842C139.024 184.516 139.534 185.061 140.164 185.061Z" fill="#0B065A"/>
<path d="M85.4134 191.281H99.2698C99.8992 191.281 100.41 190.734 100.41 190.061C100.41 189.387 99.8992 188.841 99.2698 188.841H85.4134C84.784 188.841 84.2733 189.387 84.2733 190.061C84.2733 190.734 84.784 191.281 85.4134 191.281Z" fill="#FEEED3"/>
<path d="M105.274 191.281H158.39C159.02 191.281 159.53 190.734 159.53 190.061C159.53 189.387 159.02 188.841 158.39 188.841H105.274C104.645 188.841 104.134 189.387 104.134 190.061C104.134 190.734 104.645 191.281 105.274 191.281Z" fill="#FEEED3"/>
<path d="M85.4134 197.497H158.386C159.017 197.497 159.527 196.95 159.527 196.277C159.527 195.603 159.017 195.057 158.386 195.057H85.4134C84.784 195.057 84.2733 195.603 84.2733 196.277C84.2733 196.95 84.784 197.497 85.4134 197.497Z" fill="#FEEED3"/>
<path d="M85.4134 203.713H108.608C109.239 203.713 109.749 203.167 109.749 202.493C109.749 201.819 109.239 201.273 108.608 201.273H85.4134C84.784 201.273 84.2733 201.819 84.2733 202.493C84.2733 203.167 84.784 203.713 85.4134 203.713Z" fill="#FEEED3"/>
<path d="M114.382 203.713H158.387C159.017 203.713 159.527 203.167 159.527 202.493C159.527 201.819 159.017 201.273 158.387 201.273H114.382C113.753 201.273 113.242 201.819 113.242 202.493C113.242 203.167 113.75 203.713 114.382 203.713Z" fill="#FEEED3"/>
<path d="M85.4134 185.061H134.184C134.814 185.061 135.325 184.515 135.325 183.842C135.325 183.17 134.814 182.622 134.184 182.622H85.4134C84.784 182.622 84.2733 183.168 84.2733 183.842C84.2733 184.516 84.784 185.061 85.4134 185.061Z" fill="#0B065A"/>
<path d="M165.117 68.135H182.538C182.663 68.135 182.765 68.0335 182.765 67.9083V50.4871C182.765 50.3619 182.663 50.2604 182.538 50.2604H165.117C164.992 50.2604 164.89 50.3619 164.89 50.4871V67.9083C164.89 68.0335 164.992 68.135 165.117 68.135Z" stroke="black" stroke-width="0.431832" stroke-miterlimit="10" stroke-linecap="round"/>
<path d="M165.117 112.674H182.538C182.663 112.674 182.765 112.573 182.765 112.447V95.0262C182.765 94.901 182.663 94.7995 182.538 94.7995H165.117C164.992 94.7995 164.89 94.901 164.89 95.0262V112.447C164.89 112.573 164.992 112.674 165.117 112.674Z" stroke="black" stroke-width="0.431832" stroke-miterlimit="10" stroke-linecap="round"/>
<path d="M165.117 157.213H182.538C182.663 157.213 182.765 157.112 182.765 156.986V139.565C182.765 139.44 182.663 139.339 182.538 139.339H165.117C164.992 139.339 164.89 139.44 164.89 139.565V156.986C164.89 157.112 164.992 157.213 165.117 157.213Z" stroke="black" stroke-width="0.431832" stroke-miterlimit="10" stroke-linecap="round"/>
<path d="M165.117 201.753H182.538C182.663 201.753 182.765 201.651 182.765 201.526V184.105C182.765 183.98 182.663 183.878 182.538 183.878H165.117C164.992 183.878 164.89 183.98 164.89 184.105V201.526C164.89 201.651 164.992 201.753 165.117 201.753Z" stroke="black" stroke-width="0.431832" stroke-miterlimit="10" stroke-linecap="round"/>
<path d="M172.878 109.713C172.679 109.713 172.482 109.669 172.301 109.584C172.121 109.499 171.961 109.375 171.834 109.222L165.097 101.085C164.88 100.806 164.781 100.455 164.82 100.105C164.858 99.7542 165.032 99.4327 165.303 99.2081C165.575 98.9836 165.923 98.8735 166.275 98.9014C166.626 98.9293 166.953 99.0929 167.186 99.3575L172.732 106.056L184.696 87.1787C184.889 86.8749 185.194 86.6601 185.545 86.5814C185.896 86.5028 186.264 86.5667 186.568 86.7593C186.872 86.9518 187.086 87.2572 187.165 87.6082C187.244 87.9591 187.18 88.327 186.987 88.6307L174.024 109.082C173.909 109.263 173.754 109.414 173.57 109.523C173.385 109.632 173.178 109.696 172.965 109.71C172.935 109.712 172.912 109.713 172.878 109.713Z" fill="#F17336"/>
<path d="M172.878 154.077C172.679 154.077 172.482 154.033 172.301 153.948C172.121 153.863 171.961 153.74 171.834 153.586L165.097 145.441C164.88 145.162 164.781 144.811 164.82 144.46C164.858 144.11 165.032 143.789 165.303 143.564C165.575 143.339 165.923 143.229 166.275 143.257C166.626 143.285 166.953 143.449 167.186 143.713L172.732 150.407L184.696 131.529C184.792 131.379 184.916 131.249 185.061 131.146C185.207 131.044 185.371 130.971 185.545 130.932C185.719 130.893 185.899 130.889 186.074 130.919C186.25 130.95 186.417 131.014 186.568 131.11C186.718 131.205 186.848 131.329 186.951 131.475C187.053 131.62 187.126 131.785 187.165 131.959C187.204 132.132 187.208 132.312 187.178 132.488C187.147 132.663 187.083 132.831 186.987 132.981L174.024 153.442C173.909 153.623 173.754 153.774 173.57 153.883C173.385 153.993 173.178 154.056 172.965 154.07C172.935 154.077 172.912 154.077 172.878 154.077Z" fill="#F17336"/>
<path d="M169.655 55.3215L171.884 44.231C171.884 44.231 174.411 42.9355 174.142 44.4102C174.071 44.8043 172.488 54.5583 172.488 54.5583C172.488 54.5583 172.865 55.6843 171.782 56.2122C170.699 56.7401 170.08 56.807 169.655 55.3215Z" fill="#0B065A"/>
<path d="M175.002 53.7301C174.463 53.5876 172.421 53.4062 172.421 53.7301C172.421 54.054 172.708 55.4509 172.135 55.9529C171.562 56.4549 170.45 56.9569 170.056 56.0965C169.662 55.2361 169.696 54.9856 168.908 55.6647C168.12 56.3437 168.406 58.5321 169.087 59.4281C169.768 60.3242 169.876 62.2242 169.411 63.5154C168.946 64.8066 165.108 76.2393 164.714 78.0746C164.32 79.9099 155.969 88.5066 155.034 88.9374C154.099 89.3681 148.94 91.483 147.398 90.5859C145.857 89.6887 137.979 92.8184 137.979 92.8184C137.979 92.8184 131.849 95.1568 130.155 96.8507C128.462 98.5445 127.655 100.4 126.768 109.837C125.88 119.274 123.703 118.548 123.461 124.275C123.219 130.002 124.348 144.762 123.461 145.892C122.574 147.021 122.412 153.152 124.433 153.313C126.454 153.474 153.39 117.177 155.003 112.418C156.616 107.659 155.487 101.69 157.584 97.1735C159.682 92.6565 169.2 84.1105 170.167 82.0097C171.134 79.9088 172.264 65.3939 173.152 64.0228C174.039 62.6517 176.459 60.2313 176.459 58.6184C176.459 57.0055 175.54 53.8737 175.002 53.7301ZM128.648 135.483C128.192 129.762 131.131 114.733 131.131 114.733C131.131 114.733 134.512 114.517 136.529 116.206C138.547 117.896 129.107 141.211 128.648 135.483Z" fill="white" stroke="black" stroke-width="0.431832" stroke-miterlimit="10" stroke-linecap="round"/>
<path d="M129.742 112.058C127.367 123.285 125.523 132.204 128.377 139.732V135.914C128.377 135.914 128.25 132.068 129.006 126.238C129.006 126.238 131.408 111.361 132.701 106.722C134.368 100.746 131.587 96.0712 131.587 96.0712C131.587 96.0712 132.274 101.288 131.827 105.394C131.475 108.657 130.008 110.801 129.742 112.058Z" fill="#E3E3E3"/>
<path d="M149.872 90.8517C149.872 90.8517 153.064 108.436 145.355 110.694C137.647 112.953 136.395 105.89 136.395 105.89C136.395 105.89 136.645 117.291 149.157 113.168C149.157 113.168 154.952 105.779 153.387 100.621C151.823 95.4626 152.061 90.1489 152.061 90.1489C152.061 90.1489 152.024 90.3324 149.872 90.8517Z" fill="#E3E3E3"/>
<path d="M129.512 170.652C129.512 170.652 128.541 175.007 128.383 179.766C128.226 184.525 132.82 201.061 132.981 204.367C133.142 207.674 132.981 212.68 132.981 212.68L140.805 211.308C140.805 211.308 137.177 207.109 137.254 199.204C137.331 191.298 138.302 170.005 138.302 170.005L129.512 170.652Z" fill="white" stroke="black" stroke-width="0.431832" stroke-miterlimit="10" stroke-linecap="round"/>
<path d="M143.142 173.394C143.142 173.394 139.996 180.653 141.771 202.673C141.771 202.673 142.438 211.547 142.186 213.643C141.933 215.74 148.466 210.659 148.466 210.659C148.466 210.659 146.126 207.513 148.063 199.609C150 191.704 153.951 170.811 153.951 170.811L143.142 173.394Z" fill="white" stroke="black" stroke-width="0.431832" stroke-miterlimit="10" stroke-linecap="round"/>
<path d="M141.287 68.6976C141.287 68.6976 143.922 69.8851 145.642 73.3225C145.908 73.7822 146.329 74.1317 146.83 74.3082C147.694 74.6321 150.056 75.025 150.056 75.3478C150.056 75.6706 148.909 76.8528 148.909 76.8528C148.909 76.8528 150.097 80.4024 149.449 81.3341C148.801 82.2658 144.439 86.3617 144.359 86.6845C144.279 87.0073 133.873 81.2801 136.561 76.3874C139.249 71.4948 141.287 68.6976 141.287 68.6976Z" fill="white" stroke="black" stroke-width="0.431832" stroke-miterlimit="10" stroke-linecap="round"/>
<path d="M143.025 71.9213C143.025 71.9213 142.282 76.7103 141.609 78.3232C140.936 79.9361 142.905 83.8614 145.804 84.7488L143.763 86.9803C143.763 86.9803 136.314 81.8188 138.627 76.8441C140.941 71.8694 143.025 71.9213 143.025 71.9213Z" fill="#E3E3E3"/>
<path d="M128.937 175.222C128.937 175.222 133.704 177.767 137.756 176.261L138.08 173.071L129.443 171.96L128.937 175.222Z" fill="#E3E3E3"/>
<path d="M143.223 173.771C143.223 173.771 142.631 175.807 142.467 176.739C142.467 176.739 144.78 179.686 152.496 177.024L153.144 173.771H143.223Z" fill="#E3E3E3"/>
<path d="M142.81 68.2137C142.81 68.2137 144.065 68.4296 143.742 69.683C143.419 70.9364 141.198 77.3545 140.05 79.0041C138.902 80.6537 142.738 86.4964 148.116 88.9697C148.116 88.9697 143.572 96.9284 136.111 93.8095C128.65 90.6905 126.179 99.2948 125.963 88.8628C125.747 78.4308 129.546 63.266 142.81 68.2137Z" fill="#3F3D56"/>
<path d="M131.724 95.7162C131.724 95.7162 132.656 98.4346 132.952 101.15C133.248 103.865 133.114 108.923 130.585 112.2C130.585 112.2 132.27 119.245 131.858 121.718C131.858 121.718 119.48 174.476 116.577 197.545C116.577 197.545 124.117 198.19 126.913 200.449C129.709 202.707 147.455 203.46 152.831 202.17C158.208 200.88 166.921 197.545 166.921 197.545C166.921 197.545 162.742 135.108 155.107 121.987C155.107 121.987 156.079 111.77 156.451 108.708C156.824 105.646 156.667 104.191 156.667 104.191C156.667 104.191 154.516 104.623 154.14 99.9968C153.763 95.3708 153.63 89.5162 153.63 89.5162C153.63 89.5162 153.817 89.2528 152.831 89.5162C151.846 89.7796 151.212 89.852 151.29 90.0668C151.29 90.5873 149.386 92.254 147.012 94.0384C144.78 95.7162 143.065 96.549 139.959 96.46C136.854 96.371 133.721 94.6626 133.721 94.6626C133.721 94.6626 133.638 94.3905 133.437 94.4315C133.235 94.4726 131.317 95.2153 131.724 95.7162Z" fill="#654EF9" stroke="black" stroke-width="0.431832" stroke-miterlimit="10" stroke-linecap="round"/>
<path d="M134.6 100.234C134.6 100.234 135.632 106.927 134.874 111.606C134.117 116.285 135.497 120.402 139.445 121.368C143.393 122.334 148.575 122.373 154.815 121.224C154.815 121.224 151.952 123.383 139.445 123.948C126.938 124.513 136.567 202.609 140.689 202.401C137.614 202.3 134.547 202.028 131.503 201.587C126.529 200.862 127.253 199.95 125.91 199.518C125.91 199.518 120.625 197.509 116.882 197.267C116.882 197.267 123.736 159.413 124.202 157.349C124.202 157.349 127.277 144.471 128.963 138.669C128.963 138.669 132.083 125.282 132.825 122.832L133.404 120.627C133.404 120.627 133.701 116.647 132.207 110.988C132.207 110.988 135.219 107.17 134.6 100.234Z" fill="#5842E2"/>
<path d="M131.859 122.187C131.859 122.187 137.688 123.531 143.707 123.747" stroke="white" stroke-width="0.431832" stroke-miterlimit="10" stroke-linecap="round"/>
<path d="M146.342 123.747C146.342 123.747 150.751 124.015 155.107 122.451" stroke="white" stroke-width="0.431832" stroke-miterlimit="10" stroke-linecap="round"/>
<path d="M126.929 214.367C126.929 214.367 126.016 214.205 125.585 219.099C125.154 223.993 125.585 237.49 125.585 237.49L129.045 239.407V234.911L143.486 241.336C143.47 242.988 143.455 244.103 143.455 244.103L147.785 246.434V218.22L126.929 214.367ZM129.045 231.678V223.347C129.045 223.347 128.829 220.516 130.873 221.053C132.916 221.591 140.875 224.602 140.875 224.602C140.875 224.602 143.276 225.641 143.455 227.756C143.557 228.951 143.544 234.011 143.513 238.189L129.045 231.678Z" fill="#E05918" stroke="black" stroke-width="0.431832" stroke-miterlimit="10"/>
<path d="M161.397 216.088C159.731 216.196 147.829 218.4 147.829 218.4L147.785 246.434L150.916 244.265V241.15L159.809 236.678C159.799 238.546 159.789 239.855 159.789 239.855L162.962 237.813V218.795C162.962 218.795 163.064 215.98 161.397 216.088ZM150.911 237.971V228.402C150.911 228.402 150.859 225.391 152.257 224.96C153.655 224.53 158.01 223.239 158.01 223.239C158.01 223.239 159.677 222.7 159.785 223.995C159.847 224.751 159.836 230.008 159.817 234.268L150.911 237.971Z" fill="#F17336" stroke="black" stroke-width="0.431832" stroke-miterlimit="10" stroke-linecap="round"/>
<path d="M133.383 211.211C133.383 211.211 126.768 213.453 126.929 214.367C127.09 215.282 144.244 222.325 148.009 221.089C151.773 219.853 162.475 217.47 162.527 216.617C162.579 215.764 156.666 213.238 156.236 213.184C155.806 213.13 133.383 211.211 133.383 211.211Z" fill="#F17336" stroke="black" stroke-width="0.431832" stroke-miterlimit="10" stroke-linecap="round"/>
<path d="M132.897 207.272C132.897 207.272 132.906 210.319 138.176 207.272C138.176 207.272 138.75 206.664 139.109 207.454C139.467 208.243 144.737 210.142 147.067 209.891C149.398 209.641 149.433 213.082 148.393 214.086C147.353 215.09 132.512 215.555 132.19 214.625C131.867 213.696 131.847 205.766 132.897 207.272Z" fill="#0B065A" stroke="black" stroke-width="0.413669" stroke-miterlimit="10" stroke-linecap="round"/>
<path d="M142.12 208.272C142.12 208.272 142.129 211.319 147.399 208.272C147.399 208.272 147.972 207.664 148.332 208.453C148.691 209.243 153.96 211.142 156.289 210.891C158.619 210.641 158.656 214.081 157.616 215.085C156.576 216.089 141.735 216.555 141.413 215.625C141.09 214.696 141.07 206.766 142.12 208.272Z" fill="#0B065A" stroke="black" stroke-width="0.413669" stroke-miterlimit="10" stroke-linecap="round"/>
<path d="M136.11 68.4286C136.11 68.4286 139.835 67.1331 142.738 69.8267" stroke="white" stroke-width="0.215916" stroke-miterlimit="10" stroke-linecap="round"/>
<path d="M137.035 69.1855C137.035 69.1855 140.552 69.4683 141.43 72.6822" stroke="white" stroke-width="0.215916" stroke-miterlimit="10" stroke-linecap="round"/>
<path d="M138.867 79.3982C138.867 79.3982 139.044 85.6792 146.395 89.3962" stroke="white" stroke-width="0.215916" stroke-miterlimit="10" stroke-linecap="round"/>
<path d="M140.427 86.6972C140.427 86.6972 141.986 89.7201 144.89 90.8515" stroke="white" stroke-width="0.215916" stroke-miterlimit="10" stroke-linecap="round"/>
<path d="M133.006 80.8913C133.006 80.8913 131.876 87.9486 134.458 92.5195" stroke="white" stroke-width="0.215916" stroke-miterlimit="10" stroke-linecap="round"/>
<path d="M130.398 84.8836C130.398 84.8836 129.779 89.5614 130.721 92.1168" stroke="white" stroke-width="0.215916" stroke-miterlimit="10" stroke-linecap="round"/>
<path d="M144.981 74.9906C145.166 74.8842 145.199 74.5966 145.055 74.3482C144.912 74.0999 144.646 73.9848 144.462 74.0912C144.278 74.1977 144.244 74.4853 144.388 74.7336C144.531 74.982 144.797 75.0971 144.981 74.9906Z" fill="black"/>
<path d="M142.904 74.2628C142.904 74.2628 142.904 72.3077 144.26 72.1241" stroke="black" stroke-width="0.323874" stroke-miterlimit="10" stroke-linecap="round"/>
<path d="M148.441 78.5563C148.441 78.5563 147.974 79.2516 146.649 79.4502" stroke="black" stroke-width="0.323874" stroke-miterlimit="10" stroke-linecap="round"/>
</svg>
