<svg width="16" height="18" viewBox="0 0 16 18" fill="none" xmlns="http://www.w3.org/2000/svg">
<path d="M9.68018 1.05817H3.28018C2.85583 1.05817 2.44886 1.22674 2.1488 1.5268C1.84875 1.82685 1.68018 2.23382 1.68018 2.65817V15.4582C1.68018 15.8825 1.84875 16.2895 2.1488 16.5895C2.44886 16.8896 2.85583 17.0582 3.28018 17.0582H12.8802C13.3045 17.0582 13.7115 16.8896 14.0115 16.5895C14.3116 16.2895 14.4802 15.8825 14.4802 15.4582V5.85817L9.68018 1.05817Z" stroke="#F17336" stroke-width="1.5" stroke-linecap="round" stroke-linejoin="round"/>
<path d="M9.68018 1.05817V5.85817H14.4802" stroke="#F17336" stroke-width="1.5" stroke-linecap="round" stroke-linejoin="round"/>
<path d="M11.2804 9.85872H4.88037" stroke="#F17336" stroke-width="1.5" stroke-linecap="round" stroke-linejoin="round"/>
<path d="M11.2804 13.0582H4.88037" stroke="#F17336" stroke-width="1.5" stroke-linecap="round" stroke-linejoin="round"/>
<path d="M6.48037 6.65927H5.68037H4.88037" stroke="#F17336" stroke-width="1.5" stroke-linecap="round" stroke-linejoin="round"/>
</svg>
