<svg width="41" height="41" viewBox="0 0 41 41" fill="none" xmlns="http://www.w3.org/2000/svg">
<g clip-path="url(#clip0)">
<path d="M0.278198 27.5352H1.3073V28.5397H0.278198V27.5352Z" fill="#21345F"/>
<path d="M0.278198 25.3252H1.3073V26.3294H0.278198V25.3252Z" fill="#21345F"/>
<path d="M0.278198 18.6973H1.3073V19.7014H0.278198V18.6973Z" fill="#21345F"/>
<path d="M0.278198 23.1162H1.3073V24.1204H0.278198V23.1162Z" fill="#21345F"/>
<path d="M0.278198 34.1621H1.3073V35.1663H0.278198V34.1621Z" fill="#21345F"/>
<path d="M0.278198 29.7432H1.3073V30.7473H0.278198V29.7432Z" fill="#21345F"/>
<path d="M0.278198 31.9531H1.3073V32.9573H0.278198V31.9531Z" fill="#21345F"/>
<path d="M0.278198 20.9072H1.3073V21.9114H0.278198V20.9072Z" fill="#21345F"/>
<path d="M0.278198 36.3711H1.3073V37.4002H0.278198V36.3711Z" fill="#21345F"/>
<path d="M11.9026 36.3711H12.9622V37.4002H11.9026V36.3711Z" fill="#21345F"/>
<path d="M9.57178 36.3711H10.6314V37.4002H9.57178V36.3711Z" fill="#21345F"/>
<path d="M28.2198 36.3711H29.2795V37.4002H28.2198V36.3711Z" fill="#21345F"/>
<path d="M4.90991 36.3711H5.96916V37.4002H4.90991V36.3711Z" fill="#21345F"/>
<path d="M7.2406 36.3711H8.30025V37.4002H7.2406V36.3711Z" fill="#21345F"/>
<path d="M2.57886 36.3711H3.63811V37.4002H2.57886V36.3711Z" fill="#21345F"/>
<path d="M32.8818 36.3711H33.9415V37.4002H32.8818V36.3711Z" fill="#21345F"/>
<path d="M35.2128 36.3711H36.2724V37.4002H35.2128V36.3711Z" fill="#21345F"/>
<path d="M37.5441 36.3711H38.6033V37.4002H37.5441V36.3711Z" fill="#21345F"/>
<path d="M30.5507 36.3711H31.6103V37.4002H30.5507V36.3711Z" fill="#21345F"/>
<path d="M39.8752 36.3711H40.9043V37.4002H39.8752V36.3711Z" fill="#21345F"/>
<path d="M39.8752 23.1162H40.9043V24.1204H39.8752V23.1162Z" fill="#21345F"/>
<path d="M39.8752 25.3252H40.9043V26.3294H39.8752V25.3252Z" fill="#21345F"/>
<path d="M39.8752 18.6973H40.9043V19.7014H39.8752V18.6973Z" fill="#21345F"/>
<path d="M39.8752 27.5352H40.9043V28.5397H39.8752V27.5352Z" fill="#21345F"/>
<path d="M39.8752 20.9072H40.9043V21.9114H39.8752V20.9072Z" fill="#21345F"/>
<path d="M39.8752 29.7432H40.9043V30.7473H39.8752V29.7432Z" fill="#21345F"/>
<path d="M39.8752 34.1621H40.9043V35.1663H39.8752V34.1621Z" fill="#21345F"/>
<path d="M39.8752 31.9531H40.9043V32.9573H39.8752V31.9531Z" fill="#21345F"/>
<path d="M40.3899 16.4639H34.7933V17.493H40.3899C40.674 17.493 40.9044 17.2626 40.9044 16.9784C40.9044 16.6942 40.674 16.4639 40.3899 16.4639Z" fill="#21345F"/>
<path d="M25.8887 36.3711H14.7483C14.4641 36.3711 14.2338 36.6015 14.2338 36.8856C14.2338 37.1698 14.4641 37.4002 14.7483 37.4002H26.4338C26.718 37.4002 26.9484 37.1698 26.9484 36.8856C26.9484 36.6015 26.718 36.3711 26.4338 36.3711H25.8887Z" fill="#21345F"/>
<path d="M4.89588 16.4629H0.792749C0.508571 16.4629 0.278198 16.6933 0.278198 16.9774C0.278198 17.2616 0.50857 17.492 0.792748 17.492H6.38928V16.4629H4.89588Z" fill="#21345F"/>
<path d="M22.7138 35.9194C22.0754 35.9194 21.556 35.4004 21.556 34.7617C21.556 34.229 21.1239 33.7969 20.5912 33.7969C20.0582 33.7969 19.6265 34.229 19.6265 34.7617C19.6265 35.4004 19.1071 35.9194 18.4687 35.9194C17.9357 35.9194 17.5035 36.3515 17.5035 36.8846C17.5035 37.4172 17.9357 37.8494 18.4687 37.8494C19.1071 37.8494 19.6265 38.3687 19.6265 39.0071C19.6265 39.5397 20.0582 39.9719 20.5912 39.9719C21.1239 39.9719 21.556 39.5397 21.556 39.0071C21.556 38.3687 22.0754 37.8494 22.7138 37.8494C23.2468 37.8494 23.6785 37.4172 23.6785 36.8846C23.6785 36.3515 23.2464 35.9194 22.7138 35.9194Z" fill="#F9AB5A"/>
<path d="M23.7598 35.8387C23.4937 35.5717 23.1206 35.4053 22.7138 35.4053C22.5358 35.4053 22.3778 35.3342 22.2596 35.2168C22.1418 35.0986 22.071 34.9406 22.0706 34.7621C22.071 34.3553 21.9042 33.9823 21.6373 33.7161C21.3712 33.4492 20.9985 33.2828 20.5913 33.2832C20.1845 33.2828 19.8115 33.4492 19.5453 33.7161C19.2784 33.9823 19.112 34.3553 19.1124 34.7621C19.112 34.9406 19.0408 35.0986 18.9235 35.2168C18.8053 35.3342 18.6473 35.4053 18.4692 35.4053C18.062 35.4053 17.6889 35.5717 17.4232 35.8387C17.1563 36.1048 16.9895 36.4778 16.9899 36.8847C16.9895 37.2915 17.1563 37.6645 17.4232 37.9306C17.6893 38.1976 18.062 38.3644 18.4692 38.364C18.6473 38.364 18.8053 38.4351 18.9235 38.5525C19.0408 38.6711 19.112 38.8291 19.1124 39.0072C19.112 39.414 19.2784 39.787 19.5453 40.0532C19.8115 40.3201 20.1845 40.4869 20.5913 40.4865C20.9985 40.4865 21.3716 40.3197 21.6373 40.0532C21.9042 39.787 22.071 39.414 22.0706 39.0072C22.071 38.8291 22.1418 38.6711 22.2596 38.5525C22.3778 38.4351 22.5358 38.364 22.7138 38.364C23.1206 38.364 23.4941 38.1976 23.7598 37.9306C24.0267 37.6645 24.1932 37.2915 24.1932 36.8847C24.1932 36.4778 24.0267 36.1048 23.7598 35.8387ZM23.0322 37.203C22.949 37.2854 22.8397 37.3349 22.7138 37.3349C22.2536 37.3349 21.8327 37.5234 21.5316 37.8249C21.2301 38.126 21.0411 38.5473 21.0415 39.0072C21.0411 39.1334 20.9917 39.2427 20.9093 39.3255C20.8265 39.408 20.7171 39.4574 20.5909 39.4578C20.4651 39.4574 20.3557 39.408 20.2725 39.3255C20.1901 39.2427 20.1411 39.1334 20.1407 39.0072C20.1411 38.5473 19.9521 38.126 19.6503 37.8249C19.3496 37.5234 18.9283 37.3349 18.4684 37.3349C18.3426 37.3349 18.2332 37.2854 18.15 37.203C18.0676 37.1198 18.0186 37.0105 18.0182 36.8847C18.0182 36.7588 18.0676 36.6495 18.15 36.5663C18.2332 36.4839 18.3426 36.4348 18.4684 36.4344C18.9287 36.4344 19.3496 36.2459 19.6503 35.944C19.9521 35.6433 20.1411 35.2224 20.1407 34.7621C20.1411 34.6363 20.1901 34.527 20.2725 34.4438C20.3557 34.3613 20.4651 34.3123 20.5909 34.3119C20.7171 34.3119 20.8265 34.3613 20.9093 34.4438C20.9917 34.527 21.0411 34.6363 21.0415 34.7621C21.0411 35.2224 21.2301 35.6433 21.5316 35.944C21.8327 36.2459 22.2536 36.4344 22.7138 36.4344C22.8397 36.4344 22.949 36.4839 23.0322 36.5663C23.1142 36.6495 23.1637 36.7588 23.1641 36.8847C23.1637 37.0105 23.1142 37.1202 23.0322 37.203Z" fill="#21345F"/>
<path d="M6.38928 3.60449H28.2199V31.3162H6.38928V3.60449Z" fill="white"/>
<path d="M7.01312 3.09082C6.38442 3.09082 5.87476 3.60048 5.87476 4.22919V30.7295C5.87476 31.3582 6.38442 31.8678 7.01312 31.8678H27.8591C28.3485 31.8678 28.7453 31.4711 28.7453 30.9816V4.22919C28.7453 3.60049 28.2356 3.09082 27.6069 3.09082H7.01312ZM6.90386 5.25788C6.90386 4.62918 7.41352 4.11952 8.04222 4.11952H26.5778C27.2065 4.11952 27.7162 4.62918 27.7162 5.25788V29.7C27.7162 30.3287 27.2065 30.8383 26.5778 30.8383H8.04222C7.41352 30.8383 6.90386 30.3287 6.90386 29.7V5.25788Z" fill="#21345F"/>
<path d="M11.8689 1.47754H22.7512V5.73182H11.8689V1.47754Z" fill="#F9AB5A"/>
<path d="M11.8689 1.47754H22.7512V3.13616H11.8689V1.47754Z" fill="white"/>
<path d="M12.4927 0.963867C11.864 0.963867 11.3544 1.47353 11.3544 2.10223V5.10888C11.3544 5.73759 11.864 6.24725 12.4927 6.24725H22.1274C22.7561 6.24725 23.2658 5.73758 23.2658 5.10888V2.10223C23.2658 1.47353 22.7561 0.963867 22.1274 0.963867H12.4927ZM12.3835 3.13133C12.3835 2.50263 12.8931 1.99297 13.5218 1.99297H21.0983C21.727 1.99297 22.2367 2.50263 22.2367 3.13133V4.07978C22.2367 4.70848 21.727 5.21815 21.0983 5.21815H13.5218C12.8931 5.21815 12.3835 4.70848 12.3835 4.07978V3.13133Z" fill="#21345F"/>
<path d="M14.7981 9.46094H24.2204V10.49H14.7981V9.46094Z" fill="#21345F"/>
<path d="M14.7981 15.1543H24.2204V16.1834H14.7981V15.1543Z" fill="#21345F"/>
<path d="M14.7981 20.8486H24.2204V21.8777H14.7981V20.8486Z" fill="#21345F"/>
<path d="M14.7981 26.543H24.2204V27.5721H14.7981V26.543Z" fill="#21345F"/>
<path opacity="0.2" d="M9.82068 15.0622C9.82068 14.4335 10.3303 13.9238 10.959 13.9238H12.0273C12.656 13.9238 13.1657 14.4335 13.1657 15.0622V16.13C13.1657 16.7587 12.656 17.2684 12.0273 17.2684H10.959C10.3303 17.2684 9.82068 16.7587 9.82068 16.13V15.0622Z" fill="#21345F"/>
<path d="M9.83067 15.4526C9.83054 15.4526 9.83048 15.4527 9.83056 15.4528L10.8988 16.521C11.112 16.7343 11.4547 16.7441 11.6799 16.5435L13.542 14.8843C13.7542 14.6953 13.773 14.37 13.584 14.1578C13.3949 13.9455 13.0696 13.9268 12.8573 14.1159L11.7096 15.1386C11.4905 15.3338 11.1572 15.3241 10.9498 15.1166C10.7336 14.9003 10.383 14.9003 10.1668 15.1165L9.83077 15.4525C9.83074 15.4525 9.8307 15.4526 9.83067 15.4526Z" fill="#00B084"/>
<path opacity="0.2" d="M9.82068 9.4411C9.82068 8.8124 10.3303 8.30273 10.959 8.30273H12.0273C12.656 8.30273 13.1657 8.8124 13.1657 9.4411V10.5089C13.1657 11.1376 12.656 11.6473 12.0273 11.6473H10.959C10.3303 11.6473 9.82068 11.1376 9.82068 10.5089V9.4411Z" fill="#21345F"/>
<path d="M9.83067 9.7592C9.83054 9.7592 9.83048 9.75935 9.83056 9.75944L10.8987 10.8276C11.112 11.0409 11.4547 11.0508 11.6799 10.8501L13.5421 9.19061C13.7542 9.00155 13.773 8.6763 13.5839 8.46415C13.3949 8.25202 13.0697 8.23327 12.8575 8.42227L11.7095 9.44496C11.4905 9.6401 11.1572 9.63049 10.9498 9.42305C10.7336 9.20686 10.3831 9.20686 10.1669 9.42305L9.83077 9.75916C9.83074 9.75918 9.8307 9.7592 9.83067 9.7592Z" fill="#00B084"/>
<path opacity="0.2" d="M9.82068 20.6843C9.82068 20.0556 10.3303 19.5459 10.959 19.5459H12.0273C12.656 19.5459 13.1657 20.0556 13.1657 20.6843V21.7525C13.1657 22.3812 12.656 22.8909 12.0273 22.8909H10.959C10.3303 22.8909 9.82068 22.3812 9.82068 21.7525V20.6843Z" fill="#21345F"/>
<path d="M10.1944 20.783C9.99333 20.984 9.99329 21.3099 10.1943 21.5109L10.8987 22.2153C11.112 22.4286 11.4547 22.4385 11.6799 22.2378L13.5421 20.5783C13.7542 20.3892 13.773 20.064 13.5839 19.8519C13.3949 19.6397 13.0697 19.621 12.8575 19.81L11.7096 20.8329C11.4905 21.0281 11.1572 21.0184 10.9497 20.8109L10.9221 20.7832C10.7212 20.5822 10.3954 20.5821 10.1944 20.783Z" fill="#00B084"/>
<path opacity="0.2" d="M9.82068 26.3054C9.82068 25.6767 10.3303 25.167 10.959 25.167H12.0273C12.656 25.167 13.1657 25.6767 13.1657 26.3054V27.3736C13.1657 28.0023 12.656 28.512 12.0273 28.512H10.959C10.3303 28.512 9.82068 28.0023 9.82068 27.3736V26.3054Z" fill="#21345F"/>
<path d="M9.83067 26.8412C9.83054 26.8412 9.83048 26.8414 9.83056 26.8415L10.8988 27.9094C11.1121 28.1226 11.4546 28.1324 11.6798 27.9318L13.542 26.2726C13.7542 26.0836 13.7729 25.7583 13.5839 25.5462C13.3948 25.334 13.0697 25.3153 12.8575 25.5043L11.7095 26.527C11.4905 26.7221 11.1572 26.7125 10.9498 26.5051C10.7336 26.2889 10.3831 26.2889 10.1669 26.5051L9.83077 26.8412C9.83074 26.8412 9.8307 26.8412 9.83067 26.8412Z" fill="#00B084"/>
<path d="M20.2592 10.1621H34.1251C34.4941 10.1621 34.7932 10.4612 34.7932 10.8302V18.743C34.7932 19.1121 34.4941 19.4111 34.1251 19.4111H26.355C26.1512 19.4111 25.959 19.504 25.832 19.6632L23.5543 22.5246C23.4184 22.6954 23.1431 22.5993 23.1431 22.3811V20.0793C23.1431 19.7102 22.844 19.4111 22.475 19.4111H20.2592C19.8901 19.4111 19.5911 19.1121 19.5911 18.743V10.8302C19.5911 10.4612 19.8901 10.1621 20.2592 10.1621Z" fill="white"/>
<path d="M34.9614 9.99358C34.7491 9.78052 34.45 9.64706 34.1252 9.64746H20.2593C19.9345 9.64706 19.6354 9.78052 19.4232 9.99358C19.2097 10.2062 19.0763 10.5049 19.0767 10.8301V18.7429C19.0763 19.0681 19.2097 19.3668 19.4232 19.5795C19.6354 19.7925 19.9345 19.926 20.2593 19.9256H22.4751C22.5193 19.926 22.5543 19.9421 22.5836 19.971C22.6126 20.0004 22.6287 20.0353 22.6291 20.0796V22.381C22.6287 22.4863 22.6512 22.592 22.6934 22.6861C22.7565 22.828 22.8606 22.9397 22.9792 23.0129C23.0982 23.0869 23.2337 23.1259 23.3764 23.1263C23.4801 23.1263 23.5882 23.1045 23.6899 23.0567C23.7916 23.0093 23.8857 22.9353 23.9572 22.8449L26.2349 19.9839C26.2643 19.9473 26.3085 19.926 26.3551 19.926H34.1252C34.4504 19.926 34.7491 19.7929 34.9618 19.5795C35.1748 19.3672 35.3083 19.0681 35.3079 18.7433V10.8301C35.3079 10.5053 35.1748 10.2062 34.9614 9.99358ZM34.2788 18.7433C34.2784 18.7876 34.2623 18.8225 34.2338 18.8519C34.204 18.8804 34.1691 18.8965 34.1252 18.8969H26.3551C25.9945 18.8969 25.6541 19.0609 25.4297 19.3427L23.6578 21.5685V20.0792C23.6582 19.7543 23.5247 19.4553 23.3112 19.243C23.099 19.03 22.8003 18.8965 22.4751 18.8965H20.2593C20.2155 18.8965 20.1801 18.88 20.1508 18.8515C20.1218 18.8221 20.1062 18.7868 20.1054 18.7429V10.8301C20.1058 10.7863 20.1218 10.7509 20.1508 10.7212C20.1801 10.6926 20.2151 10.6766 20.2593 10.6762H34.1252C34.1691 10.6766 34.204 10.6926 34.2338 10.7212C34.2623 10.7505 34.2784 10.7859 34.2788 10.8301V18.7433Z" fill="#21345F"/>
<path d="M26.5102 15.9691H23.7371L23.1634 17.2998H22.1274L24.6933 11.6262H25.53L28.1039 17.2998H27.0759L26.5102 15.9691ZM26.1675 15.1722L25.1236 12.7418L24.0797 15.1722H26.1675ZM32.4547 15.3555H30.845V16.9651H30.1438V15.3555H28.5342V14.6463H30.1438V13.0366H30.845V14.6463H32.4547V15.3555Z" fill="#00B084"/>
</g>
<defs>
<clipPath id="clip0">
<rect width="40.626" height="40.626" fill="white" transform="translate(0.278198 0.369141)"/>
</clipPath>
</defs>
</svg>
