<svg width="255" height="255" viewBox="0 0 255 255" fill="none" xmlns="http://www.w3.org/2000/svg">
<path opacity="0.8" d="M41.9992 254.971C41.9992 254.971 -2.71433 249.472 4.64503 213.093C12.0044 176.714 16.1817 174.619 2.77968 131.925C-10.6223 89.2317 73.8627 41.6037 115.745 85.4011C157.628 129.198 180.484 100.615 209.925 125.977C239.365 151.339 219.977 225.053 187.307 254.97L41.9992 254.971Z" fill="#FFF2D1"/>
<path d="M242.212 65.1415H254.144V77.074H242.212V65.1415Z" fill="#EDEDED"/>
<path d="M239.655 62.1583H251.587V74.0907H239.655V62.1583Z" fill="#F17336" fill-opacity="0.6"/>
<path d="M228.148 69.8292H247.751V50.226H228.148V69.8292ZM246.899 68.9769H229.001V51.0783H246.899V68.9769Z" fill="#222B45"/>
<path d="M165.746 64.6053V192.471H15.6939C15.4324 190.918 15.2447 189.331 15.1075 187.709C13.482 167.845 20.268 142.697 6.88361 109.275C0.246532 92.7027 -0.650685 79.5966 2.25208 69.3668C2.70769 67.7535 3.27985 66.1636 3.96559 64.6053H165.746Z" fill="#F17336" stroke="#0B065A" stroke-width="0.758216" stroke-miterlimit="10" stroke-linecap="round"/>
<path d="M162.976 67.2859V190.496H18.1664C16.5418 169.816 23.3239 143.633 9.94726 108.836C3.31405 91.5833 2.41735 77.9382 5.31843 67.2879L162.976 67.2859Z" fill="#FEFEFE" stroke="#0B065A" stroke-width="0.758216" stroke-miterlimit="10" stroke-linecap="round"/>
<path d="M101.659 116.567C109.902 116.567 116.584 109.885 116.584 101.642C116.584 93.3989 109.902 86.7166 101.659 86.7166C93.4157 86.7166 86.7334 93.3989 86.7334 101.642C86.7334 109.885 93.4157 116.567 101.659 116.567Z" stroke="black" stroke-width="0.380919" stroke-miterlimit="10"/>
<path d="M113.293 92.2931L101.659 101.642" stroke="black" stroke-width="0.380919" stroke-miterlimit="10"/>
<path d="M101.305 105.415C102.008 105.415 102.578 104.846 102.578 104.143C102.578 103.44 102.008 102.871 101.305 102.871C100.603 102.871 100.033 103.44 100.033 104.143C100.033 104.846 100.603 105.415 101.305 105.415Z" stroke="black" stroke-width="0.380919" stroke-miterlimit="10"/>
<path d="M60.686 107.846V140.184H90.9881L60.686 107.846Z" stroke="black" stroke-width="0.380919" stroke-miterlimit="10"/>
<path d="M56.4304 121.919H55.779L54.3506 126.109H54.9067L55.3419 124.791H56.8285L57.277 126.109H57.8588L56.4304 121.919ZM55.461 124.37L55.8714 123.156C55.9523 122.901 56.02 122.647 56.0828 122.395H56.0952C56.1571 122.637 56.2199 122.887 56.3123 123.156L56.7227 124.363L55.461 124.37Z" fill="black"/>
<path d="M74.218 143.802V143.791C74.6408 143.636 74.897 143.297 74.897 142.911C74.903 142.775 74.8757 142.639 74.8175 142.516C74.7592 142.392 74.6718 142.285 74.5627 142.203C74.3142 141.999 73.9799 141.911 73.4628 141.911C73.1453 141.909 72.8284 141.937 72.5162 141.995V145.938C72.7828 145.972 73.0513 145.988 73.32 145.987C73.9751 145.987 74.4256 145.867 74.7056 145.612C74.8149 145.508 74.9015 145.384 74.9598 145.245C75.0182 145.107 75.0471 144.958 75.0446 144.808C75.0446 144.215 74.5989 143.898 74.218 143.802ZM73.0343 142.346C73.1852 142.318 73.3388 142.305 73.4923 142.309C74.0151 142.309 74.3732 142.494 74.3732 142.963C74.3732 143.351 74.0513 143.636 73.5038 143.636H73.0343V142.346ZM73.4685 145.584C73.3233 145.588 73.1781 145.579 73.0343 145.559V144.035H73.4628C74.0275 144.035 74.497 144.261 74.497 144.809C74.497 145.385 74.0047 145.582 73.4685 145.582V145.584Z" fill="black"/>
<path d="M81.1509 124.581C80.1757 124.581 79.61 123.949 79.61 122.968C79.61 121.915 80.2347 121.314 81.1747 121.314C81.4535 121.309 81.7301 121.366 81.9841 121.481L82.1089 121.058C81.9717 120.987 81.6565 120.879 81.1566 120.879C79.9129 120.879 79.0615 121.736 79.0615 122.987C79.0615 124.301 79.9119 125.021 81.0423 125.021C81.4052 125.032 81.7663 124.965 82.1012 124.825L81.9946 124.414C81.7281 124.528 81.4407 124.585 81.1509 124.581Z" fill="black"/>
<path d="M139.812 132.613H105.313V167.112H139.812V132.613Z" stroke="black" stroke-width="0.380919" stroke-miterlimit="10"/>
<path d="M195.259 141.293C195.259 141.293 209.223 143.287 213.407 142.064L215.612 146.721C215.612 146.721 208.714 155.71 202.946 153.448C197.178 151.186 187.627 148.756 195.259 141.293Z" fill="#E05918" stroke="black" stroke-width="0.380919" stroke-miterlimit="10"/>
<path d="M177.069 212.514C177.069 212.514 172.269 226.327 177.696 253.634H221.915C221.915 253.634 225.788 236.858 223.187 216.222C220.646 196.06 186.058 188.43 177.069 212.514Z" fill="#F17336" stroke="black" stroke-width="0.380919" stroke-linecap="round" stroke-linejoin="round"/>
<path d="M176.828 214.328C176.828 214.328 185.809 216.788 192.229 218.032C198.65 219.275 206.565 218.484 211.031 221.876C215.498 225.268 215.159 253.539 215.159 253.539L221.66 253.634C221.66 253.634 226.013 235.105 222.226 211.813L193.404 198.671L177.422 211.985L176.828 214.328Z" fill="#E05918"/>
<path d="M150.511 164.267C150.511 164.267 150.342 161.982 149.042 161.837C147.742 161.692 145.565 159.236 144.858 157.992C144.435 157.88 143.994 157.842 143.558 157.879C142.796 157.935 139.939 156.72 139.884 155.731C139.828 154.741 142.541 155.08 143.276 155.109L139.883 150.529C139.883 150.529 136.632 150.558 135.813 149.343C135.813 149.343 135.162 148.866 136.236 148.664C137.311 148.461 140.141 147.703 140.844 147.308C141.548 146.912 145.706 150.247 146.95 150.529C148.193 150.811 149.352 151.18 150.511 153.272C151.67 155.364 154.696 162.232 154.696 162.232C154.696 162.232 153.279 165.539 150.511 164.267Z" fill="white" stroke="black" stroke-width="0.380919" stroke-miterlimit="10" stroke-linecap="round"/>
<path d="M200.271 135.586C200.271 135.586 200.652 142.031 198.048 143.538C195.443 145.046 193.826 146.064 193.826 146.064C193.826 146.064 202.42 151.301 208.412 147.873C214.405 144.445 214.404 144.064 214.404 144.064C214.404 144.064 209.844 143.348 209.618 141.238C209.392 139.127 209.809 132.87 209.809 132.87L200.271 135.586Z" fill="white" stroke="black" stroke-width="0.380919" stroke-miterlimit="10" stroke-linecap="round"/>
<path d="M200.46 138.375C200.46 138.375 205.718 138.743 207.47 138.375C209.223 138.008 207.499 146.403 204.587 146.29C201.675 146.176 198.849 143.265 198.849 143.265L197.548 144.17C197.548 144.17 196.958 150.388 203.599 148.325C210.241 146.261 211.823 143.689 211.823 143.689C211.823 143.689 209.538 142.629 209.364 141.293C209.191 139.957 209.449 133.994 209.449 133.994L200.513 136.788L200.46 138.375Z" fill="#E3E3E3"/>
<path d="M215.612 144.565C215.612 144.565 227.071 149.786 228.936 151.822C230.802 153.858 231.144 160.988 230.989 168.169C230.838 175.172 233.109 201.722 223.187 201.467C223.187 201.467 222.282 205.141 224.76 215.714C224.76 215.714 209.11 218.654 194.693 215.926L194.228 200.401L190.951 215.191C190.951 215.191 180.666 211.647 174.339 212.875C174.339 212.875 180.219 201.357 179.993 189.371C179.767 177.386 179.993 179.648 179.993 179.648C179.993 179.648 176.545 194.177 166.538 194.007C156.531 193.838 151.132 167.04 151.132 167.04C151.132 167.04 154.75 164.496 156.87 164.073C156.87 164.073 163.909 172.977 166.877 179.168C166.877 179.168 178.145 152.021 180.191 149.04C181.745 146.773 192.42 144.564 192.42 144.564L199.441 166.867C199.441 166.867 208.686 162.062 215.612 144.565Z" fill="#F17336" stroke="black" stroke-width="0.380919" stroke-linecap="round" stroke-linejoin="round"/>
<path d="M209.11 161.61C209.11 161.61 203.174 172.466 207.838 177.977C212.502 183.488 221.742 187.284 221.742 187.284L221.403 162.767L209.11 161.61Z" fill="#E05918"/>
<path d="M178.949 165.087C178.949 165.087 177.96 165.699 177.545 167.508C177.129 169.318 174.624 188.84 168.744 190.273C162.865 191.706 157.758 185.845 157.758 185.845C157.758 185.845 161.472 193.948 166.879 193.778C170.916 193.652 173.324 191.516 175.735 188.841C178.146 186.166 179.73 179.435 179.73 179.435L178.949 165.087Z" fill="#E05918"/>
<path d="M190.375 182.302L192.219 186.768C192.219 186.768 198.34 180.888 201.096 183.376C203.851 185.863 209.317 202.667 222.875 205.402C222.875 205.402 222.773 203.653 222.848 201.693C222.848 201.693 211.786 194.17 208.849 187.73C208.849 187.73 208.68 187.349 210.432 187.296C212.184 187.242 202.535 174.331 202.535 174.331C202.535 174.331 189.617 177.214 190.375 182.302Z" fill="#E05918"/>
<path d="M198.048 143.538C198.048 143.538 200.686 148.664 205.718 146.855C209.424 145.522 210.728 143.923 211.157 143.174C211.222 143.061 211.325 142.977 211.448 142.936C211.571 142.895 211.705 142.9 211.824 142.952L214.776 144.565C214.776 144.565 211.887 158.218 205.127 159.631C198.367 161.045 192.485 153.868 192.421 151.661C192.356 149.453 194.919 144.819 194.919 144.819C194.919 144.819 197.449 142.927 198.048 143.538Z" fill="white" stroke="black" stroke-width="0.380919" stroke-miterlimit="10" stroke-linecap="round"/>
<path d="M213.406 142.064C213.406 142.064 212.671 149.938 210.748 153.813C208.826 157.687 215.667 157.462 215.611 157.292C215.555 157.123 218.776 145.589 218.776 145.589C218.776 145.589 216.968 144.813 213.406 142.064Z" fill="#F17336" stroke="black" stroke-width="0.380919" stroke-linecap="round" stroke-linejoin="round"/>
<path d="M195.259 141.293C195.259 141.293 197.407 151.017 196.841 156.445L191.128 157.368C191.128 157.368 191.832 151.187 189.086 145.421C189.09 145.421 191.414 144.176 195.259 141.293Z" fill="#F17336" stroke="black" stroke-width="0.380919" stroke-linecap="round" stroke-linejoin="round"/>
<path d="M201.164 158.046C201.164 158.046 196.39 148.046 183.726 156.974L183.274 162.572C183.274 162.572 198.873 164.204 201.164 158.046Z" fill="white" stroke="black" stroke-width="0.380919" stroke-miterlimit="10" stroke-linecap="round"/>
<path d="M196.05 174.784C196.05 174.784 197.298 182.647 194.229 200.401" stroke="black" stroke-width="0.380919" stroke-linecap="round" stroke-linejoin="round"/>
<path d="M201.164 158.046C201.164 158.046 199.401 152.073 213.754 147.711L218.777 151.361C218.777 151.361 211.131 160.866 201.164 158.046Z" fill="white" stroke="black" stroke-width="0.380919" stroke-miterlimit="10" stroke-linecap="round"/>
<path d="M223.187 201.467C223.187 201.467 217.25 202.4 209.11 187.73C209.11 187.73 215.47 187.39 217.25 181.793L221.745 185.439C221.745 185.439 221.464 175.605 221.999 170.307" fill="#F17336"/>
<path d="M223.187 201.467C223.187 201.467 217.25 202.4 209.11 187.73C209.11 187.73 215.47 187.39 217.25 181.793L221.745 185.439C221.745 185.439 221.464 175.605 221.999 170.307" stroke="black" stroke-width="0.380919" stroke-linecap="round" stroke-linejoin="round"/>
<path d="M199.427 158.486C199.427 158.486 192.216 151.83 182.718 162.572L188.485 184.263C188.485 184.263 194.252 176.645 204.089 177.723L199.427 158.486Z" fill="white" stroke="black" stroke-width="0.380919" stroke-miterlimit="10"/>
<path d="M203.044 157.571C203.044 157.571 210.343 147.444 218.654 151.362L224.76 173.54C224.76 173.54 216.033 173.992 208.139 178.74L203.044 157.571Z" fill="white" stroke="black" stroke-width="0.380919" stroke-miterlimit="10"/>
<path d="M203.175 157.547L199.312 158.462L203.613 176.629L207.476 175.714L203.175 157.547Z" fill="white" stroke="black" stroke-width="0.380919" stroke-miterlimit="10"/>
<path d="M221.749 185.439C221.749 185.439 225.82 187.474 227.091 192.391L221.749 185.439Z" fill="#FCAA23"/>
<path d="M221.749 185.439C221.749 185.439 225.82 187.474 227.091 192.391" stroke="black" stroke-width="0.380919" stroke-linecap="round" stroke-linejoin="round"/>
<path d="M217.005 182.463L215.725 180.888C215.159 183.433 208.544 185.894 208.544 185.894L209.858 187.637C209.858 187.637 215.261 186.922 217.005 182.463Z" fill="white" stroke="black" stroke-width="0.380919" stroke-miterlimit="10" stroke-linecap="round"/>
<path d="M209.655 185.439C209.655 185.439 199.329 178.288 197.294 171.447C197.294 171.447 197.008 170.128 198.198 170.304C198.198 170.304 196.785 167.543 198.484 167.543C198.484 167.543 199.501 167.344 202.497 171.965C202.497 171.965 205.663 176.023 207.247 174.496C208.831 172.97 208.676 166.374 209.696 166.374C210.717 166.374 211.015 167.547 210.828 170.972C210.559 175.844 210.659 176.529 212.166 176.305C213.689 176.078 216.151 175.217 216.151 175.217L214.972 182.169C214.972 182.169 212.969 184.45 209.655 185.439Z" fill="white" stroke="black" stroke-width="0.380919" stroke-miterlimit="10" stroke-linecap="round"/>
<path d="M166.879 179.164C166.879 179.164 168.914 182.98 169.678 185.439L166.879 179.164Z" fill="#FCAA23"/>
<path d="M166.879 179.164C166.879 179.164 168.914 182.98 169.678 185.439" stroke="black" stroke-width="0.380919" stroke-linecap="round" stroke-linejoin="round"/>
<path d="M179.994 179.641C179.994 179.641 179.683 176.362 179.174 172.118C178.666 167.873 179.174 165.079 179.174 165.079" stroke="black" stroke-width="0.380919" stroke-linecap="round" stroke-linejoin="round"/>
<path d="M151.614 167.261L149.974 163.954C149.974 163.954 153.819 162.88 154.837 161.268L157.155 165.226L151.614 167.261Z" fill="white" stroke="black" stroke-width="0.380919" stroke-miterlimit="10" stroke-linecap="round"/>
<path d="M143.28 155.109C143.28 155.109 145.565 154.968 146.389 155.759C147.213 156.55 148.484 156.918 148.484 156.918" fill="white"/>
<path d="M143.28 155.109C143.28 155.109 145.565 154.968 146.389 155.759C147.213 156.55 148.484 156.918 148.484 156.918" stroke="black" stroke-width="0.380919" stroke-miterlimit="10" stroke-linecap="round"/>
<path d="M108.954 110.409L142.559 154.849C142.559 154.849 144.14 154.773 144.844 154.944L109.83 109.486C109.765 109.399 109.683 109.326 109.588 109.272C109.493 109.219 109.387 109.186 109.279 109.177C109.059 109.161 108.818 109.239 108.749 109.623C108.728 109.761 108.735 109.902 108.77 110.037C108.805 110.172 108.868 110.299 108.954 110.409Z" fill="#FEEED3" stroke="black" stroke-width="0.380919" stroke-miterlimit="10"/>
<path d="M198.199 170.308C198.199 170.308 200.913 174.859 202.533 176.14L198.199 170.308Z" fill="white"/>
<path d="M198.199 170.308C198.199 170.308 200.913 174.859 202.533 176.14" stroke="black" stroke-width="0.380919" stroke-miterlimit="10" stroke-linecap="round"/>
<path d="M196.05 108.863C196.05 108.863 192.827 113.104 192.912 117.853C192.997 122.602 190.449 122.519 192.912 128.453C195.375 134.387 198.001 139.138 204.785 136.679C211.57 134.22 213.689 132.013 215.131 126.757C215.131 126.757 217.506 126.587 218.269 124.297C219.032 122.007 216.745 119.803 215.47 120.905C214.195 122.007 212.333 110.22 208.347 108.185C204.361 106.15 197.751 104.539 196.05 108.863Z" fill="white" stroke="black" stroke-width="0.380919" stroke-miterlimit="10" stroke-linecap="round"/>
<path d="M193.214 116.458C193.214 116.458 196.107 111.803 198.425 110.839C200.742 109.875 201.091 108.408 201.091 108.408C201.091 108.408 205.27 115.692 211.819 119.264C211.819 119.264 212.667 119.32 212.44 121.073C212.214 122.827 213.107 124.528 212.931 126.162C212.517 130.005 212.215 130.288 208.898 134.604C208.898 134.604 211.687 133.51 213.995 129.897C215.115 128.143 219.327 126.575 219.188 125.068C218.431 116.688 206.039 106.289 203.595 106.456C199.834 106.713 193.914 111.368 193.339 115.623L193.214 116.458Z" fill="#E3E3E3"/>
<path d="M222.225 122.714C220.529 118.305 217.985 121.075 217.985 121.075C217.985 121.075 219.483 119.475 219.464 116.551C219.458 115.453 219.237 114.17 218.642 112.711C213.713 93.2903 202.834 103.093 202.834 103.093C206.791 100.832 209.492 101.228 209.492 101.228C214.185 102.127 216.868 107.652 218.243 111.811C215.634 106.185 211.179 98.5612 202.834 103.093C202.834 103.093 201.59 100.55 199.102 102.189C197.363 103.377 195.783 104.784 194.4 106.373C194.4 106.373 185.364 116.172 192.911 117.85L192.898 116.964C192.898 116.964 188.476 116.679 192.078 109.996C191.238 112.054 191.234 114.24 193.006 116.219C193.006 116.219 195.313 111.857 197.914 110.219C200.515 108.581 201.306 107.421 201.306 107.421C201.306 107.421 207.091 116.74 212.745 118.322C212.745 118.322 213.273 118.926 213.084 120.095C212.896 121.263 212.703 124.994 213.989 123.523C215.274 122.052 214.919 121.312 215.641 120.777C216.363 120.243 217.853 121.204 218.371 122.834C218.371 122.834 218.417 126.18 215.129 126.755C215.129 126.755 214.684 128.094 213.997 129.898C213.997 129.898 214.102 132.003 217.795 131.89C218.009 131.883 218.222 131.86 218.432 131.823C216.965 132.276 214.96 132.478 213.715 130.876L213.178 131.638C213.178 131.638 216.416 134.378 220.282 131.035C222.447 129.471 223.498 126.026 222.225 122.714Z" fill="#3F3D56"/>
<path d="M12.5198 253.634L141.324 253.634" stroke="black" stroke-width="0.380919" stroke-linecap="round" stroke-linejoin="round"/>
<path d="M145.396 253.634H233.024" stroke="black" stroke-width="0.380919" stroke-linecap="round" stroke-linejoin="round"/>
<path d="M236.078 253.634H249.533" stroke="black" stroke-width="0.380919" stroke-linecap="round" stroke-linejoin="round"/>
<path d="M188.514 121.727C188.514 121.727 191.954 119.204 197.635 121.917C198.292 122.231 198.111 122.965 197.477 123.788C195.419 126.463 191.432 126.549 189.136 124.081C188.335 123.22 187.894 122.344 188.514 121.727Z" stroke="black" stroke-width="0.380919" stroke-miterlimit="10" stroke-linecap="round"/>
<path d="M199.96 122.155C199.96 122.155 203.4 119.632 209.08 122.345C209.737 122.658 209.556 123.393 208.922 124.215C206.864 126.889 202.877 126.977 200.581 124.509C199.784 123.646 199.343 122.772 199.96 122.155Z" stroke="black" stroke-width="0.380919" stroke-miterlimit="10" stroke-linecap="round"/>
<path d="M198.284 123.366C198.284 123.366 197.668 125.899 197.104 127.294C197.104 127.294 196.314 128.538 199.103 128.463" stroke="black" stroke-width="0.380919" stroke-miterlimit="10" stroke-linecap="round"/>
<path d="M197.234 131.008C197.234 131.008 200.214 132.749 202.725 130.43L197.234 131.008Z" fill="white"/>
<path d="M197.234 131.008C197.234 131.008 200.214 132.749 202.725 130.43" stroke="black" stroke-width="0.380919" stroke-miterlimit="10" stroke-linecap="round"/>
<path d="M194.401 123.355C194.719 123.355 194.977 122.993 194.977 122.545C194.977 122.097 194.719 121.735 194.401 121.735C194.084 121.735 193.826 122.097 193.826 122.545C193.826 122.993 194.084 123.355 194.401 123.355Z" fill="black"/>
<path d="M204.116 123.785C204.434 123.785 204.692 123.422 204.692 122.974C204.692 122.527 204.434 122.164 204.116 122.164C203.799 122.164 203.541 122.527 203.541 122.974C203.541 123.422 203.799 123.785 204.116 123.785Z" fill="black"/>
<path d="M192.9 118.671C192.9 118.671 194.562 117.004 196.578 118.079" stroke="black" stroke-width="0.380919" stroke-miterlimit="10" stroke-linecap="round"/>
<path d="M202.833 118.385C202.833 118.385 204.905 117.271 206.524 118.883" stroke="black" stroke-width="0.380919" stroke-miterlimit="10" stroke-linecap="round"/>
<path d="M197.643 123.601C197.643 123.601 198.75 122.405 199.951 123.69" stroke="black" stroke-width="0.380919" stroke-miterlimit="10" stroke-linecap="round"/>
<path d="M85.6391 185.807H74.8972V187.637H85.6391V185.807Z" fill="white"/>
<path d="M202.382 105.528C202.382 105.528 208.771 103.153 211.823 109.373C214.875 115.592 214.876 118.01 214.876 118.01" stroke="white" stroke-width="0.190459" stroke-miterlimit="10" stroke-linecap="round"/>
<path d="M201.93 106.64C201.93 106.64 208.827 109.768 212.295 115.724" stroke="white" stroke-width="0.190459" stroke-miterlimit="10" stroke-linecap="round"/>
<path d="M205.284 103.248C205.284 103.248 209.693 102.193 211.578 105.396" stroke="white" stroke-width="0.190459" stroke-miterlimit="10" stroke-linecap="round"/>
<path d="M200.762 105.886C200.762 105.886 197.44 105.207 192.9 112.708" stroke="white" stroke-width="0.190459" stroke-miterlimit="10" stroke-linecap="round"/>
<path d="M200.761 104.239C200.761 104.239 200.028 102.381 197.643 104.868" stroke="white" stroke-width="0.190459" stroke-miterlimit="10" stroke-linecap="round"/>
<path d="M215.234 127.444C215.234 127.444 215.329 132.359 220.976 130.43" stroke="white" stroke-width="0.190459" stroke-miterlimit="10" stroke-linecap="round"/>
<path d="M217.458 126.842C217.458 126.842 217.344 129.182 220.473 129.161" stroke="white" stroke-width="0.190459" stroke-miterlimit="10" stroke-linecap="round"/>
<path d="M202.382 194.853C202.382 194.853 202.043 211.53 219.569 211.022" stroke="black" stroke-width="0.285689" stroke-linecap="round" stroke-linejoin="round"/>
<path d="M203.044 207.459C203.044 207.459 204.869 211.587 211.936 212.266" stroke="black" stroke-width="0.285689" stroke-linecap="round" stroke-linejoin="round"/>
<path d="M57.8589 63.4947H80.5854" stroke="black" stroke-width="0.285689" stroke-linecap="round" stroke-linejoin="round"/>
<path d="M81.7377 63.4947H92.9319" stroke="black" stroke-width="0.285689" stroke-linecap="round" stroke-linejoin="round"/>
<path d="M97.4542 63.4947H135.617" stroke="black" stroke-width="0.285689" stroke-linecap="round" stroke-linejoin="round"/>
<path d="M166.657 153.118V137.342" stroke="black" stroke-width="0.285689" stroke-linecap="round" stroke-linejoin="round"/>
<path d="M166.657 126.137V118.366" stroke="black" stroke-width="0.285689" stroke-linecap="round" stroke-linejoin="round"/>
<path d="M166.657 115.226V88.7327" stroke="black" stroke-width="0.285689" stroke-linecap="round" stroke-linejoin="round"/>
</svg>
