<svg width="126" height="114" viewBox="0 0 126 114" fill="none" xmlns="http://www.w3.org/2000/svg">
<path opacity="0.8" d="M20.3492 113.688C20.3492 113.688 -1.66082 110.981 1.96179 93.0735C5.5844 75.1662 7.64065 74.1346 1.04358 53.1189C-5.55348 32.1032 36.0339 8.65863 56.6504 30.2177C77.2669 51.7767 88.5177 37.7065 103.01 50.1909C117.502 62.6753 107.958 98.9608 91.8761 113.687L20.3492 113.688Z" fill="#FFF2D1"/>
<path d="M33.8234 104.704H32.027V113.33H33.8234V104.704Z" fill="#FEFEFE" stroke="#0B065A" stroke-width="0.783786" stroke-miterlimit="10" stroke-linecap="round"/>
<path d="M47.3426 104.704H45.5461V113.33H47.3426V104.704Z" fill="#FEFEFE" stroke="#0B065A" stroke-width="0.783786" stroke-miterlimit="10" stroke-linecap="round"/>
<path d="M63.8803 104.704H62.0839V113.33H63.8803V104.704Z" fill="#FEFEFE" stroke="#0B065A" stroke-width="0.783786" stroke-miterlimit="10" stroke-linecap="round"/>
<path d="M28.8334 102.759L42.8004 108.357L65.8178 104.999L51.78 100.047L28.8334 102.759Z" fill="#FEFEFE"/>
<path d="M28.8334 102.759L28.7874 102.37C28.6094 102.391 28.4684 102.53 28.4449 102.707C28.4213 102.885 28.5213 103.056 28.6876 103.123L28.8334 102.759ZM42.8004 108.357L42.6546 108.72L42.7526 108.76L42.857 108.744L42.8004 108.357ZM65.8178 104.999L65.8744 105.387L67.4455 105.157L65.9481 104.629L65.8178 104.999ZM51.78 100.047L51.9103 99.6778L51.8244 99.6476L51.734 99.6582L51.78 100.047ZM28.6876 103.123L42.6546 108.72L42.9462 107.993L28.9792 102.395L28.6876 103.123ZM42.857 108.744L65.8744 105.387L65.7612 104.611L42.7438 107.969L42.857 108.744ZM65.9481 104.629L51.9103 99.6778L51.6496 100.417L65.6874 105.368L65.9481 104.629ZM51.734 99.6582L28.7874 102.37L28.8794 103.148L51.826 100.437L51.734 99.6582Z" fill="#0B065A"/>
<path d="M53.5575 101.18L28.8334 102.759V69.4452C28.8334 68.0349 29.9466 66.8812 31.3077 66.8812L51.0838 65.768C52.4443 65.768 53.5575 66.9217 53.5575 68.332V101.18Z" fill="#FEFEFE" stroke="#0B065A" stroke-width="0.783786" stroke-miterlimit="10" stroke-linecap="round"/>
<path d="M14.0959 78.9339H34.5974" stroke="black" stroke-width="0.216049" stroke-miterlimit="10" stroke-linecap="round"/>
<path d="M66.9274 73.7774C66.9274 73.7774 59.7135 62.0027 55.251 63.09C50.7885 64.1773 50.3472 63.8678 50.3472 63.8678L49.0217 61.0402L39.8326 64.6628C39.8326 64.6628 37.7315 64.3976 35.4906 64.2653C33.2496 64.133 31.5709 66.8276 30.6872 70.1408C29.8036 73.4539 24.4137 82.2903 29.8479 83.0411C35.2821 83.7918 63.6013 82.8202 65.7807 80.6996C67.9601 78.5791 66.9274 73.7774 66.9274 73.7774ZM56.2621 74.936C56.2621 74.936 56.6186 73.6089 57.1117 72.6459C57.2197 72.4352 59.7723 75.4253 59.7723 75.4253L56.2621 74.936ZM33.0773 79.7874C33.0773 79.7874 35.1341 74.2641 35.1584 74.4158L36.123 80.3691L33.0773 79.7874Z" fill="white" stroke="black" stroke-width="0.216049" stroke-miterlimit="10" stroke-linecap="round"/>
<path d="M42.848 64.8891C42.848 64.8891 44.7314 65.6599 46.6753 65.0312C48.6192 64.4025 47.3035 67.25 48.6387 67.1128C49.9739 66.9756 52.6664 64.9134 52.6664 63.7943C52.6664 63.7943 51.8049 63.9666 51.82 63.6863C51.8778 62.5807 50.2158 60.405 48.7764 60.8776C46.8914 61.4972 42.848 64.8891 42.848 64.8891Z" fill="#E3E3E3"/>
<path d="M42.7604 64.3643C42.1938 66.6641 40.2504 67.5332 39.4273 67.4786C39.1259 67.4592 38.9752 67.3166 39.0956 67.0735C39.5477 66.1699 38.9222 62.7855 38.9222 62.7855C38.9222 62.7855 42.1279 61.6987 42.7447 63.1587C42.8689 63.4498 42.8889 63.842 42.7604 64.3643Z" fill="#3F3D56"/>
<path d="M36.6518 53.8689C36.6518 53.8689 36.4309 55.5471 37.3437 58.3158C38.2565 61.0845 36.8284 61.4085 40.2744 63.825C43.7204 66.2416 46.4594 64.2669 48.9628 61.8514C51.4663 59.436 48.2558 52.5737 47.5493 52.3674C47.1567 52.2534 44.5511 48.277 41.9434 48.4407C39.8542 48.5703 37.7915 52.6504 36.6518 53.8689Z" fill="white" stroke="black" stroke-width="0.216049" stroke-miterlimit="10" stroke-linecap="round"/>
<path d="M37.027 56.6231C37.027 56.6231 40.93 54.2309 44.7508 55.4149C44.7508 55.4149 45.8111 55.8248 46.2237 56.6793C46.6364 57.5338 47.2246 58.0383 47.6524 60.2603C48.0499 62.3263 47.7739 62.7676 47.7739 62.7676C47.7739 62.7676 49.9149 60.9717 50.0175 60.5822C50.1202 60.1928 51.2199 52.798 47.7571 50.1157C44.2944 47.4335 41.9087 47.6992 41.9087 47.6992L36.5928 54.716L37.027 56.6231Z" fill="#E3E3E3"/>
<path d="M38.2493 64.6154C38.2493 64.6154 38.401 70.4682 38.4923 71.2589C38.5836 72.0496 41.9826 77.3699 46.4986 76.0498C51.0145 74.7297 47.1467 79.5287 42.984 78.435C38.8212 77.3412 38.2655 72.9473 38.2849 71.9654C38.3044 70.9834 37.9365 64.5808 37.9365 64.5808L38.2493 64.6154Z" fill="#F17336"/>
<path d="M52.1733 63.9909C51.1919 66.0525 48.2266 67.4072 48.6862 66.5241C49.1459 65.641 48.6862 59.476 48.6862 59.476C48.6862 59.476 49.5596 59.0401 50.0862 57.9409C50.3509 57.39 50.5291 56.6717 50.4643 55.7578C50.4378 55.3797 49.3268 56.8051 48.9914 56.3233C48.023 56.138 47.5455 55.3457 46.422 54.7985C45.6729 54.4328 44.6364 54.1768 42.976 54.2816C42.976 54.2816 42.0708 52.8676 41.6878 49.393C41.6878 49.393 41.2314 52.0001 42.1448 54.475C42.1448 54.475 37.2037 54.5538 36.628 56.5815C36.628 56.5815 33.4412 54.6667 37.9783 48.8355C38.3441 48.355 38.7764 47.9289 39.2622 47.57C39.6818 47.263 40.1491 47.0272 40.6454 46.8722C40.9342 46.772 41.2289 46.6901 41.528 46.627C43.9099 46.1187 45.9694 46.8722 45.9694 46.8722C51.3166 47.7364 52.7182 54.3464 52.7588 59.1578C52.7777 61.4437 52.4898 63.326 52.1733 63.9909Z" fill="#3F3D56"/>
<path d="M54.0988 63.493C54.0988 63.493 53.9254 69.739 53.798 70.4508C53.6705 71.1627 56.3112 72.4612 56.3906 74.088L56.1329 74.8685L53.4863 70.6988C53.4863 70.6988 53.953 65.7296 53.8795 63.5292L54.0988 63.493Z" fill="#F17336"/>
<path d="M40.0986 58.1393C40.0986 58.1393 40.4913 60.3781 40.393 61.1434C40.2947 61.9088 41.5273 61.205 41.5273 61.205" stroke="black" stroke-width="0.162037" stroke-miterlimit="10" stroke-linecap="round"/>
<path d="M41.6143 62.9895C41.6143 62.9895 42.6129 63.1316 44.1248 61.6592" stroke="black" stroke-width="0.162037" stroke-miterlimit="10" stroke-linecap="round"/>
<path d="M35.5916 81.0977C35.5916 81.0977 33.9011 79.4654 36.1512 74.3894C37.2898 71.8205 37.9379 70.8829 37.9379 70.8829C37.9379 70.8829 39.7744 78.403 45.1637 76.6082C50.5531 74.8134 53.2926 70.4816 53.2926 70.4816C53.2926 70.4816 56.5911 74.0188 56.5911 76.4597C56.5911 76.4597 51.4027 76.1955 49.9033 78.4489C48.4039 80.7023 35.4885 84.8678 35.5916 81.0977Z" fill="#F17336" stroke="black" stroke-width="0.216049" stroke-miterlimit="10" stroke-linecap="round"/>
<path d="M57.2488 72.5319C57.2488 72.5319 59.4363 74.6924 60.2373 75.8601C61.0383 77.0279 62.0888 75.7521 62.0888 75.7521C62.0888 75.7521 59.2235 72.4033 58.8983 71.8054C58.4759 71.0325 57.7695 71.1578 57.2488 72.5319Z" fill="#E3E3E3"/>
<path d="M37.5603 64.2421C37.5603 64.2421 37.8687 67.7999 37.9384 70.8856L37.5603 64.2421Z" fill="#FEF9E6"/>
<path d="M37.5603 64.2421C37.5603 64.2421 37.8687 67.7999 37.9384 70.8856" stroke="black" stroke-width="0.216049" stroke-miterlimit="10" stroke-linecap="round"/>
<path d="M34.3649 89.9396C34.3649 89.9396 33.1464 95.9425 33.4132 99.7785C33.458 100.427 34.4934 100.396 34.7138 99.786L67.1499 95.3381C67.1499 95.3381 60.5528 92.2308 60.5971 87.2973C60.6354 82.9974 34.3649 89.9396 34.3649 89.9396Z" fill="#F17336" stroke="black" stroke-width="0.216049" stroke-miterlimit="10" stroke-linecap="round"/>
<path d="M21.0508 88.2991H119.041L101.457 78.9339H34.5976" fill="#EBDBB3"/>
<path d="M21.0508 88.2991H119.041L101.457 78.9339H34.5976" stroke="black" stroke-width="0.216049" stroke-miterlimit="10" stroke-linecap="round"/>
<path d="M82.2431 84.1235C82.2431 84.1235 80.1534 86.2435 82.6277 86.6556C85.102 87.0677 101.673 88.3775 102.753 84.3358C103.833 80.294 94.1528 81.5601 94.1528 81.5601L82.2431 84.1235Z" fill="#FCAA23"/>
<path d="M53.4884 82.4832C53.4884 82.4832 60.3318 84.0863 63.6427 84.1716C66.9537 84.257 79.9906 84.3709 86.0417 83.4106C92.0927 82.4503 75.3504 81.0881 75.3504 81.0881L53.4884 82.4832Z" fill="#F17336"/>
<path d="M28.7584 84.0284L24.6053 86.9446L37.2993 86.473V87.2978H40.2155V86.473L53.2924 86.7674L52.8922 82.7181L52.762 81.0977L44.4273 82.2023L36.0797 82.4086L30.0563 83.0686L28.7584 84.0284Z" fill="black"/>
<path d="M52.7619 86.1582L52.4092 81.1448L51.3338 81.2874L50.2881 84.1981L52.7619 86.1582Z" fill="#F17336" stroke="black" stroke-width="0.216049" stroke-miterlimit="10" stroke-linecap="round"/>
<path d="M25.7401 86.64L31.0263 82.4529L32.8071 82.5118L28.384 85.3539L25.7401 86.64Z" fill="#F17336" stroke="black" stroke-width="0.216049" stroke-miterlimit="10" stroke-linecap="round"/>
<path d="M40.5983 82.7181C40.5983 82.7181 42.1296 81.3483 44.9279 81.4364C47.7263 81.5244 51.3338 81.2873 51.3338 81.2873L51.2009 84.588L49.5709 85.295C49.5709 85.295 40.7452 85.0865 39.9205 85.9432C39.0957 86.7998 38.6009 87.1228 38.1273 86.9462C37.6536 86.7695 39.214 82.4972 40.5983 82.7181Z" fill="white" stroke="black" stroke-width="0.216049" stroke-miterlimit="10" stroke-linecap="round"/>
<path d="M28.3842 85.3539L33.0584 81.4364C33.0584 81.4364 34.3271 81.8188 37.0936 81.2874C39.8602 80.7559 40.5985 82.7181 40.5985 82.7181L38.6055 86.539C38.6055 86.539 38.0065 85.7072 35.7968 85.7661C33.5872 85.8249 28.3842 85.3539 28.3842 85.3539Z" fill="white" stroke="black" stroke-width="0.216049" stroke-miterlimit="10" stroke-linecap="round"/>
<path d="M38.5956 87.1066C38.5956 87.1066 38.8603 85.5305 36.8872 85.1475C34.9141 84.7646 28.384 85.3539 28.384 85.3539L25.7401 86.6421L37.067 86.1792C37.3004 86.1695 37.5202 86.3796 37.5278 86.6448L37.491 87.0936L38.5956 87.1066Z" fill="#F17336" stroke="black" stroke-width="0.216049" stroke-miterlimit="10" stroke-linecap="round"/>
<path d="M38.5956 87.1065C38.5956 87.1065 38.4184 85.4862 41.0694 85.0076C43.7203 84.5291 51.201 84.5879 51.201 84.5879L52.7625 86.1581H40.5217C40.2311 86.1581 39.9945 86.3919 39.9816 86.716L39.9664 87.1065H38.5956Z" fill="#F17336" stroke="black" stroke-width="0.216049" stroke-miterlimit="10" stroke-linecap="round"/>
<path d="M53.4939 63.3401C53.4939 63.3401 53.7348 65.8728 53.293 70.48L53.4939 63.3401Z" fill="#FEF9E6"/>
<path d="M53.4939 63.3401C53.4939 63.3401 53.7348 65.8728 53.293 70.48" stroke="black" stroke-width="0.216049" stroke-miterlimit="10" stroke-linecap="round"/>
<path d="M67.2565 78.5581C67.2565 79.5244 66.7866 80.5274 65.1209 81.0675C61.286 82.3098 53.3289 77.8759 53.2198 77.8149C52.1309 79.9792 51.129 80.6716 51.129 80.6716C51.041 81.2312 50.5991 81.6876 50.5991 81.6876C50.9232 81.5699 52.1455 81.9971 51.0998 82.5712C50.0542 83.1454 49.1705 82.7182 49.1705 82.7182C48.5812 83.16 48.0665 82.9969 48.0665 82.9969C46.7286 83.3301 46.8285 81.2377 46.8426 81.0151C46.8258 81.0967 46.6735 81.4586 45.3416 82.6155C43.7806 83.9707 42.1311 82.7624 42.8489 82.6155C43.5667 82.4686 46.9317 78.8752 47.05 78.4026C47.1683 77.93 49.3471 76.3706 50.4668 75.413C51.5865 74.4553 52.0872 74.5439 53.4267 74.7503C54.7662 74.9566 66.4302 76.0757 66.4302 76.0757C66.4302 76.0757 67.2538 77.2851 67.2565 78.5581Z" fill="white" stroke="black" stroke-width="0.216049" stroke-miterlimit="10" stroke-linecap="round"/>
<path d="M48.0792 80.7445C48.0792 80.7445 47.5801 82.8472 48.0651 82.9963" stroke="black" stroke-width="0.216049" stroke-miterlimit="10" stroke-linecap="round"/>
<path d="M49.1837 81.0977C49.1837 81.0977 48.7715 82.3054 49.1691 82.7181" stroke="black" stroke-width="0.216049" stroke-miterlimit="10" stroke-linecap="round"/>
<path d="M67.2566 78.4322C67.2566 79.3985 66.7867 80.402 65.1209 80.9422C61.2861 82.1845 53.329 77.75 53.2198 77.689C53.2198 77.689 53.5148 77.0997 54.016 77.3352C54.501 77.561 62.7806 80.1606 67.2566 78.4322Z" fill="#E3E3E3"/>
<path d="M66.8295 81.0917H53.4884V82.4853H66.8295V81.0917Z" fill="white" stroke="black" stroke-width="0.216049" stroke-miterlimit="10" stroke-linecap="round"/>
<path d="M62.1268 82.4853L68.9605 64.6299H92.5963L93.2012 65.0955L62.9305 82.4853H62.1268Z" fill="white" stroke="black" stroke-width="0.216049" stroke-miterlimit="10" stroke-linecap="round"/>
<path d="M93.201 65.0954H69.4847L62.9303 82.4852H86.6466L93.201 65.0954Z" fill="white" stroke="black" stroke-width="0.216049" stroke-miterlimit="10" stroke-linecap="round"/>
<path d="M28.8335 102.759L42.7994 108.355V111.725L29.6534 105.781C29.4087 105.67 29.2011 105.491 29.0555 105.266C28.9099 105.04 28.8324 104.777 28.8324 104.509L28.8335 102.759Z" fill="#FEFEFE"/>
<path d="M28.8335 102.759L28.9792 102.395L28.4419 102.18L28.4416 102.759L28.8335 102.759ZM42.7994 108.355H43.1913V108.09L42.9452 107.991L42.7994 108.355ZM42.7994 111.725L42.638 112.082C42.7593 112.137 42.9001 112.126 43.0119 112.054C43.1238 111.982 43.1913 111.858 43.1913 111.725H42.7994ZM29.6534 105.781L29.8148 105.424L29.8148 105.424L29.6534 105.781ZM28.8324 104.509L28.4405 104.509L28.4405 104.509L28.8324 104.509ZM28.6877 103.123L42.6537 108.719L42.9452 107.991L28.9792 102.395L28.6877 103.123ZM42.4076 108.355V111.725H43.1913V108.355H42.4076ZM42.9609 111.368L29.8148 105.424L29.4919 106.138L42.638 112.082L42.9609 111.368ZM29.8148 105.424C29.6388 105.344 29.4895 105.216 29.3848 105.053L28.7263 105.478C28.9127 105.767 29.1786 105.996 29.4919 106.138L29.8148 105.424ZM29.3848 105.053C29.28 104.891 29.2243 104.702 29.2243 104.509L28.4405 104.509C28.4406 104.853 28.5398 105.189 28.7263 105.478L29.3848 105.053ZM29.2243 104.509L29.2254 102.759L28.4416 102.759L28.4405 104.509L29.2243 104.509Z" fill="#0B065A"/>
<path d="M42.8004 108.357L65.8178 104.999V107.562L42.8004 111.726V108.357Z" fill="#FEFEFE"/>
<path d="M42.8004 108.357L42.7438 107.969L42.4085 108.018V108.357H42.8004ZM65.8178 104.999H66.2097V104.546L65.7612 104.611L65.8178 104.999ZM65.8178 107.562L65.8876 107.947L66.2097 107.889V107.562H65.8178ZM42.8004 111.726H42.4085C42.4085 111.843 42.46 111.953 42.5492 112.027C42.6383 112.102 42.7559 112.133 42.8702 112.112L42.8004 111.726ZM42.857 108.744L65.8743 105.387L65.7612 104.611L42.7438 107.969L42.857 108.744ZM65.4259 104.999V107.562H66.2097V104.999H65.4259ZM65.748 107.176L42.7306 111.341L42.8702 112.112L65.8876 107.947L65.748 107.176ZM43.1923 111.726V108.357H42.4085V111.726H43.1923Z" fill="#0B065A"/>
<path d="M109.97 90.0665H108.438V113.367H109.97V90.0665Z" fill="#FEFEFE" stroke="#0B065A" stroke-width="0.783786" stroke-miterlimit="10" stroke-linecap="round"/>
<path d="M99.0128 90.0665H97.481V113.367H99.0128V90.0665Z" fill="#FEFEFE" stroke="#0B065A" stroke-width="0.783786" stroke-miterlimit="10" stroke-linecap="round"/>
<path d="M0.247925 113.688H25.0763" stroke="black" stroke-width="0.216049" stroke-miterlimit="10" stroke-linecap="round"/>
<path d="M26.7847 113.688H84.3651" stroke="black" stroke-width="0.216049" stroke-miterlimit="10" stroke-linecap="round"/>
<path d="M86.9274 113.864H125.752" stroke="black" stroke-width="0.216049" stroke-miterlimit="10" stroke-linecap="round"/>
<path d="M52.7627 94.3076C52.7627 94.3076 57.5309 97.47 61.8783 95.7659C65.5965 94.3076 65.4566 94.4998 65.4566 94.4998C65.4566 94.4998 81.4189 93.6897 83.4816 99.2119C84.9151 103.047 75.1319 113.687 75.1319 113.687H65.5452C65.5452 113.687 67.4897 107.649 68.5699 105.484C68.5699 105.484 58.5658 106.015 54.9637 104.292C51.3616 102.569 52.9539 94.3076 52.9539 94.3076" fill="#654EF9"/>
<path d="M52.7627 94.3076C52.7627 94.3076 57.5309 97.47 61.8783 95.7659C65.5965 94.3076 65.4566 94.4998 65.4566 94.4998C65.4566 94.4998 81.4189 93.6897 83.4816 99.2119C84.9151 103.047 75.1319 113.687 75.1319 113.687H65.5452C65.5452 113.687 67.4897 107.649 68.5699 105.484C68.5699 105.484 58.5658 106.015 54.9637 104.292C51.3616 102.569 52.9539 94.3076 52.9539 94.3076" stroke="black" stroke-width="0.216049" stroke-miterlimit="10" stroke-linecap="round"/>
<path d="M58.2405 101.789C58.2405 101.789 63.8956 103.733 67.5479 101.789C71.2002 99.8444 71.082 99.3917 71.9364 99.5446C71.9364 99.5446 69.7862 101.965 68.431 105.353C68.431 105.353 60.1844 105.588 58.0067 104.999C56.2237 104.52 58.2405 101.789 58.2405 101.789Z" fill="#5842E2"/>
<path d="M68.5718 105.485C68.5718 105.485 70.1381 101.434 72.3775 99.3734" stroke="#5842E2" stroke-width="0.216049" stroke-miterlimit="10" stroke-linecap="round"/>
<path d="M102.848 80.2789C102.848 80.2789 102.422 81.2025 103.092 81.6654L99.8434 85.9367L83.7882 85.5997C83.7882 85.5997 83.3075 83.834 83.8568 83.2993L99.8093 83.6293L102.848 80.2789Z" fill="white"/>
<path d="M99.8087 83.6293L83.7751 83.3112L88.9106 79.2246L103.625 79.4207L99.8087 83.6293Z" fill="#0B065A"/>
<path d="M103.092 81.6654L99.8434 85.9367L83.7882 85.5997C83.7882 85.5997 83.4588 83.7632 83.9173 83.2993C83.9173 83.2993 84.0794 83.1853 83.7882 83.2993C83.3756 83.4613 82.6713 84.7095 83.5846 85.8314L100.23 86.2943L103.763 81.6654H103.092Z" fill="#0B065A"/>
<path d="M99.7597 85.8465C98.9976 84.6209 99.6971 83.7584 99.7273 83.7189H99.8094C99.8018 83.7276 99.1288 84.6971 99.8434 85.8465H99.7597Z" fill="black"/>
<path d="M100.668 77.3779C100.668 77.3779 100.242 78.3009 100.913 78.7644L97.6639 83.0357L81.6087 82.6992C81.6087 82.6992 81.128 80.933 81.6773 80.3982L97.6293 80.7283L100.668 77.3779Z" fill="white"/>
<path d="M97.6294 80.7283L81.5958 80.4101L86.7313 76.3235L101.446 76.5196L97.6294 80.7283Z" fill="#4052F2" stroke="black" stroke-width="0.216049" stroke-miterlimit="10" stroke-linecap="round"/>
<path d="M100.913 78.7645L97.664 83.0358L81.6088 82.6993C81.6088 82.6993 81.2793 80.8628 81.7379 80.3983C81.7379 80.3983 81.8999 80.2844 81.6088 80.3983C81.1961 80.5604 80.4913 81.8086 81.4052 82.9304L98.0507 83.3933L101.583 78.7645H100.913Z" fill="#4052F2" stroke="black" stroke-width="0.216049" stroke-miterlimit="10" stroke-linecap="round"/>
<path d="M97.5804 82.818C96.8183 81.7378 97.5177 80.9816 97.548 80.946H97.6295C97.6225 80.9535 96.9495 81.8069 97.6641 82.818H97.5804Z" fill="black"/>
<path d="M102.848 74.4293C102.848 74.4293 102.422 75.3529 103.092 75.8158L99.8434 80.0871L83.7882 79.7506C83.7882 79.7506 83.3075 77.9844 83.8568 77.4497L99.8093 77.7797L102.848 74.4293Z" fill="white"/>
<path d="M99.8093 77.7798L83.7751 77.4616L88.9106 73.3751L103.625 73.5711L99.8093 77.7798Z" fill="#FCAA23" stroke="black" stroke-width="0.216049" stroke-miterlimit="10" stroke-linecap="round"/>
<path d="M103.092 75.8159L99.8434 80.0872L83.7882 79.7507C83.7882 79.7507 83.4588 77.9116 83.9173 77.4498C83.9173 77.4498 84.0794 77.3358 83.7882 77.4498C83.3756 77.6118 82.6713 78.86 83.5846 79.9819L100.23 80.4448L103.763 75.8159H103.092Z" fill="#FCAA23" stroke="black" stroke-width="0.216049" stroke-miterlimit="10" stroke-linecap="round"/>
<path d="M99.7597 79.9117C98.9976 78.7845 99.6971 77.991 99.7273 77.9548H99.8094C99.8024 77.9629 99.1288 78.8547 99.8434 79.9117H99.7597Z" fill="black"/>
<path d="M118.913 1.88434H62.9822V37.7577H118.913V1.88434Z" fill="white" stroke="black" stroke-width="0.216049" stroke-miterlimit="10" stroke-linecap="round"/>
<path d="M92.8477 6.12585H66.9271V22.7374H92.8477V6.12585Z" fill="#F17336"/>
<path d="M103.628 6.12585H95.8964V11.7809H103.628V6.12585Z" fill="#654EF9"/>
<path d="M103.628 15.0497H95.8964V20.7048H103.628V15.0497Z" fill="#F17336"/>
<path d="M103.628 23.9743H95.8964V29.6294H103.628V23.9743Z" fill="#0B065A"/>
<path d="M103.628 32.8982H95.8964V37.6399H103.628V32.8982Z" fill="#F17336"/>
<path d="M120.327 0.438416H61.5686V39.2042H120.327V0.438416Z" stroke="#4052F2" stroke-width="0.216049" stroke-miterlimit="10" stroke-linecap="round"/>
<path d="M61.5687 19.8434H45.1484" stroke="#4052F2" stroke-width="0.216049" stroke-miterlimit="10" stroke-linecap="round"/>
<path d="M45.1484 9.74847H23.0444V25.9181H45.1484V9.74847Z" stroke="#4052F2" stroke-width="0.216049" stroke-miterlimit="10" stroke-linecap="round"/>
<path d="M38.1004 15.4263C37.6877 15.5343 37.2902 15.6423 36.89 15.7503L35.3074 16.1776C34.8974 16.2883 34.488 16.4001 34.077 16.5065C34.0114 16.5253 33.9422 16.5276 33.8755 16.513C33.1653 16.3272 32.4561 16.1349 31.7469 15.9464L30.1606 15.5219C30.1249 15.5122 30.0887 15.504 30.032 15.49V15.6234C30.032 16.2176 30.0347 16.8117 30.032 17.4058C30.0267 17.5115 30.0488 17.6167 30.0961 17.7113C30.1435 17.806 30.2144 17.8868 30.3021 17.9459C30.9902 18.4515 31.7291 18.8555 32.5566 19.0802C33.7621 19.4043 34.9434 19.3027 36.103 18.8588C36.7235 18.6153 37.3143 18.3024 37.8643 17.926C37.9344 17.8847 37.9927 17.8262 38.0337 17.7561C38.0747 17.6859 38.0971 17.6064 38.0988 17.5252C38.1004 16.8284 38.1004 16.1349 38.1004 15.4263Z" fill="#654EF9"/>
<path d="M40.4072 14.5356C40.3737 14.5243 40.3408 14.5102 40.3062 14.5021C39.388 14.2861 38.4649 14.0754 37.5451 13.8588C36.4108 13.592 35.2825 13.3187 34.1504 13.0557C34.0582 13.0343 33.9623 13.0343 33.8701 13.0557C32.873 13.2959 31.877 13.5398 30.8821 13.7875C30.3101 13.9285 29.7392 14.0727 29.1678 14.2137C28.7259 14.3217 28.2825 14.426 27.8407 14.5335C27.7867 14.5475 27.7294 14.5707 27.6743 14.5875V14.6188C27.7063 14.6339 27.7391 14.6471 27.7726 14.6582C28.4521 14.8402 29.1321 15.0201 29.8116 15.2021C30.9793 15.5147 32.1469 15.828 33.3143 16.1419C33.4261 16.167 33.5366 16.1976 33.6454 16.2338C33.8674 16.3191 34.0775 16.2948 34.3033 16.2338C35.2166 15.9777 36.1343 15.7363 37.0503 15.4884C37.7514 15.2983 38.4536 15.1078 39.1568 14.9169C39.5349 14.8149 39.913 14.716 40.2873 14.615C40.3294 14.6037 40.3699 14.5886 40.4115 14.5756L40.4072 14.5356Z" fill="#654EF9"/>
<path d="M27.4274 19.2483L30.8804 20.4441V20.4657C30.8053 20.4657 30.7238 20.4852 30.6573 20.4625C29.8644 20.1924 29.0742 19.9143 28.2808 19.6388C27.9481 19.5232 27.6154 19.4092 27.2832 19.2926C27.22 19.2704 27.1903 19.2812 27.1644 19.3498C26.9823 19.8359 27.0131 20.2977 27.2967 20.732C27.3575 20.809 27.4433 20.8625 27.5392 20.8832C28.1285 21.0177 28.7215 21.1366 29.3113 21.2683C29.61 21.3348 29.9471 21.4174 30.2431 21.4957C30.5671 22.3761 31.5723 21.9278 31.5723 21.9278L34.7234 23.249C34.2216 22.8514 34.2275 22.2227 34.4128 21.5708C34.1784 21.5071 33.944 21.445 33.7106 21.3785C33.0927 21.2024 32.4748 21.0264 31.8591 20.8438C31.7851 20.8222 31.7225 20.7617 31.6549 20.719L31.6738 20.6818C31.8429 20.7315 32.0114 20.7822 32.181 20.8308L34.112 21.3812C34.2265 21.4136 34.3404 21.4455 34.4555 21.4736C34.5289 21.4914 34.543 21.5276 34.5219 21.5989C34.431 21.8774 34.3954 22.171 34.4171 22.4631C34.4549 22.8606 34.6721 23.1415 35.0183 23.2317C35.2203 23.2857 35.405 23.2263 35.5827 23.1366C36.1671 22.8401 36.5771 21.9484 36.4167 21.3121C36.3551 21.0685 36.2174 20.8768 35.9527 20.8497C35.8213 20.8406 35.69 20.8695 35.5746 20.9329C35.432 21.0129 35.3164 21.1414 35.1895 21.2489L35.2035 21.2856C35.2775 21.3088 35.3515 21.3326 35.4261 21.3553C35.5341 21.3877 35.6373 21.4223 35.7442 21.4525C35.9905 21.5222 36.0499 21.6686 35.997 21.9386C35.9503 22.1711 35.8147 22.3762 35.6189 22.5101C35.2716 22.7575 34.8789 22.5484 34.8363 22.0969C34.7925 21.634 35.1425 21.0091 35.5622 20.8136C35.6658 20.7743 35.7721 20.7427 35.8803 20.719C35.6448 20.671 35.4131 20.6283 35.1836 20.5764C34.3107 20.3777 33.4382 20.1769 32.5661 19.9742C32.4786 19.9537 32.3755 19.9461 32.3501 19.8219C32.3447 19.7943 32.2961 19.7679 32.2637 19.7549C32.093 19.7009 31.9207 19.6501 31.7478 19.6026C31.7124 19.5906 31.6736 19.5929 31.6398 19.6091C31.5556 19.6788 31.4778 19.6431 31.3951 19.6139C30.5617 19.3266 29.758 18.9685 28.9581 18.6001C28.8362 18.5369 28.7099 18.4827 28.58 18.4381C28.3532 18.3722 28.1479 18.4548 27.96 18.5764C27.7152 18.7377 27.5285 18.9731 27.4274 19.2483ZM31.0387 20.6569C31.1539 20.661 31.2655 20.6988 31.3594 20.7658C31.4533 20.8328 31.5254 20.9259 31.5667 21.0335C31.6081 21.1412 31.6168 21.2587 31.5919 21.3713C31.5669 21.4839 31.5094 21.5867 31.4265 21.6668C31.3435 21.747 31.2388 21.8009 31.1254 21.822C31.012 21.8431 30.8949 21.8303 30.7888 21.7853C30.6826 21.7402 30.592 21.665 30.5283 21.5688C30.4646 21.4727 30.4305 21.3599 30.4305 21.2446C30.434 21.0863 30.4999 20.9358 30.6138 20.8257C30.7276 20.7157 30.8803 20.655 31.0387 20.6569Z" fill="#081535"/>
<path d="M40.4039 20.868C40.2284 20.1912 40.0566 19.5247 39.8827 18.8593C39.8693 18.8249 39.866 18.7874 39.8733 18.7512C39.8806 18.715 39.8981 18.6816 39.9238 18.6551C40.156 18.3915 40.0858 17.9324 39.7958 17.7304C39.776 17.713 39.76 17.6917 39.7488 17.6678C39.7377 17.6439 39.7316 17.618 39.7309 17.5916C39.7266 16.7814 39.7277 15.9669 39.7277 15.154V14.9877C39.6327 15.0087 39.5391 15.0356 39.4474 15.0681C39.4252 15.0773 39.4171 15.14 39.4166 15.1762C39.4166 15.9734 39.4166 16.7706 39.4166 17.5678C39.4209 17.6045 39.4142 17.6417 39.3975 17.6746C39.3808 17.7076 39.3548 17.7349 39.3226 17.7531C39.0455 17.9335 38.9985 18.4013 39.2292 18.6627C39.2555 18.6886 39.2738 18.7215 39.2818 18.7575C39.2899 18.7935 39.2873 18.8311 39.2745 18.8658C39.1076 19.502 38.9462 20.1399 38.7814 20.7767C38.7679 20.8275 38.7522 20.8685 38.8176 20.8993C39.3485 21.1478 39.873 21.1516 40.4039 20.868Z" fill="#F17336"/>
<path d="M34.9492 21.8272C34.9017 22.0433 34.9314 22.2258 35.0643 22.383C35.2069 22.5521 35.4521 22.538 35.639 22.3501C35.7719 22.2213 35.8625 22.0552 35.8987 21.8737C35.9058 21.8402 35.9198 21.7991 35.9069 21.7727C35.8734 21.7052 35.8399 21.6106 35.7826 21.589C35.7367 21.5707 35.6406 21.6252 35.5936 21.6728C35.5411 21.7335 35.5026 21.8051 35.4807 21.8823C35.4548 21.9606 35.4153 21.9747 35.3435 21.9509C35.2171 21.9104 35.0896 21.8726 34.9492 21.8272Z" fill="#081535"/>
<path d="M79.7417 17.0559C81.4865 17.0559 82.9009 15.6414 82.9009 13.8967C82.9009 12.1519 81.4865 10.7375 79.7417 10.7375C77.9969 10.7375 76.5825 12.1519 76.5825 13.8967C76.5825 15.6414 77.9969 17.0559 79.7417 17.0559Z" fill="white"/>
<path d="M78.9629 12.4772L80.2706 13.235L81.5782 13.9923L80.2684 14.7458L78.9586 15.4998L78.9608 13.9885L78.9629 12.4772Z" fill="#081535"/>
<path d="M76.8535 24.5485H67.5029C67.1849 24.5485 66.9271 24.8063 66.9271 25.1243V25.3425C66.9271 25.6605 67.1849 25.9183 67.5029 25.9183H76.8535C77.1715 25.9183 77.4293 25.6605 77.4293 25.3425V25.1243C77.4293 24.8063 77.1715 24.5485 76.8535 24.5485Z" fill="#0B065A"/>
<path d="M86.3047 27.2728H67.0871C66.9708 27.2728 66.8765 27.3671 66.8765 27.4835V27.5629C66.8765 27.6792 66.9708 27.7735 67.0871 27.7735H86.3047C86.421 27.7735 86.5154 27.6792 86.5154 27.5629V27.4835C86.5154 27.3671 86.421 27.2728 86.3047 27.2728Z" fill="#F17336"/>
<path d="M81.5927 29.3788H67.0871C66.9708 29.3788 66.8765 29.4732 66.8765 29.5895V29.6689C66.8765 29.7852 66.9708 29.8795 67.0871 29.8795H81.5927C81.709 29.8795 81.8033 29.7852 81.8033 29.6689V29.5895C81.8033 29.4732 81.709 29.3788 81.5927 29.3788Z" fill="#F17336"/>
<path d="M75.9176 30.9154H67.0871C66.9708 30.9154 66.8765 31.0097 66.8765 31.1261V31.2055C66.8765 31.3218 66.9708 31.4161 67.0871 31.4161H75.9176C76.0339 31.4161 76.1282 31.3218 76.1282 31.2055V31.1261C76.1282 31.0097 76.0339 30.9154 75.9176 30.9154Z" fill="#F17336"/>
<path d="M80.7479 32.4514H67.0871C66.9708 32.4514 66.8765 32.5457 66.8765 32.6621V32.7415C66.8765 32.8578 66.9708 32.9521 67.0871 32.9521H80.7479C80.8643 32.9521 80.9586 32.8578 80.9586 32.7415V32.6621C80.9586 32.5457 80.8643 32.4514 80.7479 32.4514Z" fill="#F17336"/>
<path d="M77.6654 33.9882H67.0871C66.9708 33.9882 66.8765 34.0825 66.8765 34.1988V34.2782C66.8765 34.3945 66.9708 34.4889 67.0871 34.4889H77.6654C77.7818 34.4889 77.8761 34.3945 77.8761 34.2782V34.1988C77.8761 34.0825 77.7818 33.9882 77.6654 33.9882Z" fill="#F17336"/>
<path d="M109.741 6.24365H105.82C105.471 6.24365 105.188 6.52634 105.188 6.87506V7.11433C105.188 7.46305 105.471 7.74574 105.82 7.74574H109.741C110.089 7.74574 110.372 7.46305 110.372 7.11433V6.87506C110.372 6.52634 110.089 6.24365 109.741 6.24365Z" fill="#0B065A"/>
<path d="M109.741 15.0497H105.82C105.471 15.0497 105.188 15.3324 105.188 15.6811V15.9204C105.188 16.2691 105.471 16.5518 105.82 16.5518H109.741C110.089 16.5518 110.372 16.2691 110.372 15.9204V15.6811C110.372 15.3324 110.089 15.0497 109.741 15.0497Z" fill="#0B065A"/>
<path d="M109.844 23.9591H105.923C105.574 23.9591 105.292 24.2418 105.292 24.5905V24.8298C105.292 25.1785 105.574 25.4612 105.923 25.4612H109.844C110.192 25.4612 110.475 25.1785 110.475 24.8298V24.5905C110.475 24.2418 110.192 23.9591 109.844 23.9591Z" fill="#0B065A"/>
<path d="M109.741 32.8982H105.82C105.471 32.8982 105.188 33.1809 105.188 33.5296V33.7689C105.188 34.1176 105.471 34.4003 105.82 34.4003H109.741C110.089 34.4003 110.372 34.1176 110.372 33.7689V33.5296C110.372 33.1809 110.089 32.8982 109.741 32.8982Z" fill="#0B065A"/>
<path d="M112.568 8.58026H105.428C105.296 8.58026 105.188 8.68739 105.188 8.81954V8.91028C105.188 9.04242 105.296 9.14955 105.428 9.14955H112.568C112.7 9.14955 112.807 9.04242 112.807 8.91028V8.81954C112.807 8.68739 112.7 8.58026 112.568 8.58026Z" fill="#F17336"/>
<path d="M112.568 17.3081H105.428C105.296 17.3081 105.188 17.4152 105.188 17.5474V17.6381C105.188 17.7703 105.296 17.8774 105.428 17.8774H112.568C112.7 17.8774 112.807 17.7703 112.807 17.6381V17.5474C112.807 17.4152 112.7 17.3081 112.568 17.3081Z" fill="#F17336"/>
<path d="M112.568 26.232H105.428C105.296 26.232 105.188 26.3391 105.188 26.4713V26.562C105.188 26.6942 105.296 26.8013 105.428 26.8013H112.568C112.7 26.8013 112.807 26.6942 112.807 26.562V26.4713C112.807 26.3391 112.7 26.232 112.568 26.232Z" fill="#F17336"/>
<path d="M112.568 35.0436H105.428C105.296 35.0436 105.188 35.1507 105.188 35.2829V35.3736C105.188 35.5057 105.296 35.6129 105.428 35.6129H112.568C112.7 35.6129 112.807 35.5057 112.807 35.3736V35.2829C112.807 35.1507 112.7 35.0436 112.568 35.0436Z" fill="#FDCC7B"/>
<path d="M90.2094 20.1746H68.5364C68.4132 20.1746 68.3134 20.2744 68.3134 20.3976V20.4819C68.3134 20.6051 68.4132 20.705 68.5364 20.705H90.2094C90.3326 20.705 90.4325 20.6051 90.4325 20.4819V20.3976C90.4325 20.2744 90.3326 20.1746 90.2094 20.1746Z" fill="#0B065A"/>
<path d="M118.803 2.01337H63.1003V3.59269H118.803V2.01337Z" fill="#654EF9"/>
<path d="M39.7117 36.806C38.4483 34.7249 34.6718 35.7895 34.7339 38.1865C34.7879 40.3508 37.6868 42.4789 38.2507 42.8732L39.648 42.299C39.6868 42.191 39.756 41.9885 39.8343 41.7189C40.0801 40.8715 40.4122 39.3591 40.1584 38.0153C40.0832 37.5887 39.9319 37.179 39.7117 36.806Z" fill="white" stroke="black" stroke-width="0.216049" stroke-miterlimit="10" stroke-linecap="round"/>
<path d="M39.6477 42.298C39.6271 42.3558 39.6153 42.3866 39.6153 42.3866L38.3443 42.937C38.3443 42.937 38.3109 42.9149 38.2504 42.8722L39.6477 42.298Z" stroke="black" stroke-width="0.324074" stroke-miterlimit="10" stroke-linecap="round"/>
<path d="M39.6933 42.2807L39.8283 42.6096L39.8418 42.642L38.3268 43.2643L38.3133 43.2319L38.1782 42.9029L38.2506 42.8732L39.6479 42.2991L39.6933 42.2807Z" fill="#F17336"/>
<path d="M38.573 43.6107L39.9474 43.0461L40.002 43.179C40.026 43.2375 40.0383 43.3001 40.0381 43.3633C40.0379 43.4265 40.0253 43.489 40.0009 43.5473C39.9766 43.6057 39.941 43.6586 39.8962 43.7032C39.8513 43.7477 39.7982 43.783 39.7397 43.807L39.2556 44.0059C39.1971 44.0299 39.1345 44.0421 39.0713 44.042C39.0081 44.0418 38.9456 44.0291 38.8873 44.0048C38.8289 43.9804 38.776 43.9448 38.7314 43.9C38.6869 43.8552 38.6516 43.802 38.6276 43.7436L38.573 43.6107Z" fill="#F17336"/>
<path d="M39.315 42.3158C39.315 42.3158 39.2464 42.1338 38.5334 40.0197C38.3963 39.6136 38.3779 39.2733 38.4254 38.9989L38.3622 39.0475C37.7805 39.485 37.336 39.6811 37.02 39.7426C37.6682 40.6366 38.5669 42.722 38.5669 42.722" stroke="black" stroke-width="0.216049" stroke-miterlimit="10" stroke-linecap="round"/>
<path d="M39.9423 42.5651L38.1876 43.2858L38.3857 43.7679L40.1403 43.0472L39.9423 42.5651Z" fill="#F17336" stroke="black" stroke-width="0.162037" stroke-miterlimit="10" stroke-linecap="round"/>
<path d="M33.2694 33.6533L34.6278 35.1192" stroke="#081535" stroke-width="0.216049" stroke-miterlimit="10" stroke-linecap="round"/>
<path d="M30.6635 37.8111L33.3327 38.1741" stroke="#081535" stroke-width="0.216049" stroke-miterlimit="10" stroke-linecap="round"/>
<path d="M31.7858 40.6257L33.6119 40.2762" stroke="#081535" stroke-width="0.216049" stroke-miterlimit="10" stroke-linecap="round"/>
<path d="M40.7001 32.4888L39.7489 34.7892" stroke="#081535" stroke-width="0.216049" stroke-miterlimit="10" stroke-linecap="round"/>
<path d="M44.0114 35.1521L41.4226 37.009" stroke="#081535" stroke-width="0.216049" stroke-miterlimit="10" stroke-linecap="round"/>
<path d="M57.024 72.8177C57.2228 72.258 57.4931 71.7265 57.8283 71.2362L57.024 72.8177Z" fill="#FEF9E6"/>
<path d="M57.024 72.8177C57.2228 72.258 57.4931 71.7265 57.8283 71.2362" stroke="black" stroke-width="0.216049" stroke-miterlimit="10" stroke-linecap="round"/>
<path d="M33.9272 72.3505C33.9272 72.3505 34.8298 72.7605 35.1884 74.619L33.9272 72.3505Z" fill="#FEF9E6"/>
<path d="M33.9272 72.3505C33.9272 72.3505 34.8298 72.7605 35.1884 74.619" stroke="black" stroke-width="0.216049" stroke-miterlimit="10" stroke-linecap="round"/>
<path d="M32.9993 79.6842C33.0139 79.6399 35.0653 74.3531 35.0653 74.3531C35.0653 74.3531 34.678 73.0131 33.9273 72.4238C33.9273 72.4238 33.5 72.2758 33.6178 73.4835C33.7355 74.6913 32.1454 79.4487 32.1454 79.4487L32.9993 79.6842Z" fill="#E3E3E3"/>
<path d="M30.3847 79.5163C30.3847 79.5163 31.0641 78.341 31.668 78.4425C32.2719 78.544 33.5584 79.1614 34.1526 79.3067C34.7467 79.452 35.4791 79.4115 35.4791 79.4115C35.4791 79.4115 36.4513 80.5409 36.2801 81.1318C36.1089 81.7227 34.7175 82.7738 34.7175 82.7738C34.7175 82.7738 35.9242 83.5483 35.8064 83.746C35.6887 83.9437 34.9012 84.3369 34.9012 84.3369L30.3177 84.1791C30.3177 84.1791 29.0851 83.1286 29.097 82.7748C29.1089 82.4211 29.4378 80.9886 29.3984 80.5549C29.359 80.1212 29.3244 79.5816 30.3847 79.5163Z" fill="white" stroke="black" stroke-width="0.216049" stroke-miterlimit="10" stroke-linecap="round"/>
<path d="M31.5651 81.3862C31.5651 81.3862 33.8368 82.8915 34.4277 82.6549C35.0186 82.4183 34.6773 81.8404 34.2176 81.3548C33.758 80.8693 32.8381 79.9365 32.8381 79.9365" stroke="black" stroke-width="0.216049" stroke-miterlimit="10" stroke-linecap="round"/>
<path d="M33.1464 80.125C33.5327 80.1948 33.9283 80.1948 34.3146 80.125C34.9012 80.0051 35.0881 80.179 35.0633 80.3411C35.0384 80.5031 34.2774 81.2895 34.2774 81.2895L33.1464 80.125Z" fill="#E3E3E3"/>
<path d="M33.5686 80.6878L34.3648 81.5206L32.3949 74.0394C32.3949 74.0394 32.3706 73.8163 32.2243 73.7547C32.0779 73.6932 31.8084 73.7726 31.7841 74.0107L33.5686 80.6878Z" fill="#081535"/>
<path d="M34.1061 82.6635L34.2859 83.3511L34.8423 84.4314L34.886 83.1659L34.7024 82.4286C34.6454 82.5306 34.5548 82.6097 34.4462 82.6525C34.3375 82.6953 34.2173 82.6992 34.1061 82.6635Z" fill="#081535"/>
<path d="M31.064 84.0733L32.0227 80.0866C32.0227 80.0866 32.1934 79.9246 31.4318 78.5705C31.4318 78.5705 31.1428 78.6623 30.4596 79.634C30.4596 79.634 29.2778 79.4179 29.5009 80.6878C29.5009 80.6878 29.0634 82.7073 29.2308 82.878C29.3982 83.0487 29.9162 83.9112 30.3856 84.0733H31.064Z" fill="#E3E3E3"/>
<path d="M34.7137 99.786C34.7137 99.786 34.7137 108.18 47.8528 106.501C47.8528 106.501 49.1394 111.022 51.3339 113.688H59.7593C59.7593 113.688 58.7871 89.9763 49.9074 92.0984C41.0278 94.2206 34.7137 99.786 34.7137 99.786Z" fill="#654EF9" stroke="black" stroke-width="0.216049" stroke-miterlimit="10" stroke-linecap="round"/>
<path d="M47.8528 106.501C47.8528 106.501 46.5478 104.13 45.9731 99.3717" stroke="black" stroke-width="0.216049" stroke-miterlimit="10" stroke-linecap="round"/>
<path d="M119.041 88.2993H21.0508V90.7141H119.041V88.2993Z" fill="#0B065A"/>
<path d="M45.8707 99.7072C45.8707 99.7072 45.8313 99.0925 44.9282 100.254C44.0251 101.415 44.771 104.067 43.0038 104.891C41.2365 105.716 39.8818 105.912 39.8818 105.912C39.8818 105.912 42.5916 107.188 47.6375 106.383C47.6375 106.383 46.8505 105.893 45.8707 99.7072Z" fill="#5842E2"/>
<path d="M78.813 74.5045C79.7157 74.5045 80.4474 74.0818 80.4474 73.5604C80.4474 73.0389 79.7157 72.6162 78.813 72.6162C77.9103 72.6162 77.1786 73.0389 77.1786 73.5604C77.1786 74.0818 77.9103 74.5045 78.813 74.5045Z" fill="#654EF9"/>
<path d="M38.6619 59.8277C38.7818 59.7912 38.8306 59.6029 38.7709 59.4072C38.7112 59.2114 38.5657 59.0823 38.4459 59.1189C38.326 59.1554 38.2772 59.3437 38.3369 59.5394C38.3966 59.7352 38.5421 59.8642 38.6619 59.8277Z" fill="black"/>
<path d="M43.0308 58.3224C43.042 58.1181 42.9475 57.9468 42.8197 57.9398C42.6919 57.9328 42.5793 58.0928 42.5681 58.2971C42.5569 58.5015 42.6514 58.6728 42.7792 58.6798C42.907 58.6868 43.0196 58.5268 43.0308 58.3224Z" fill="black"/>
<path d="M37.3982 58.2257C37.3982 58.2257 37.5554 57.4565 38.4379 57.5743" stroke="black" stroke-width="0.162037" stroke-miterlimit="10" stroke-linecap="round"/>
<path d="M42.0319 56.5967C42.0319 56.5967 42.5968 56.1408 43.5237 56.6231" stroke="black" stroke-width="0.162037" stroke-miterlimit="10" stroke-linecap="round"/>
<path d="M41.5033 47.5955C41.5033 47.5955 39.79 50.5241 40.5948 53.2128" stroke="white" stroke-width="0.108025" stroke-miterlimit="10" stroke-linecap="round"/>
<path d="M39.4053 53.4272C39.1086 52.7222 39.067 51.9359 39.2875 51.2035" stroke="white" stroke-width="0.108025" stroke-miterlimit="10" stroke-linecap="round"/>
<path d="M36.2833 55.0913C36.2833 55.0913 35.5325 54.1634 36.1947 52.7791" stroke="white" stroke-width="0.108025" stroke-miterlimit="10" stroke-linecap="round"/>
<path d="M39.302 63.6469C39.302 63.6469 39.7147 65.2376 39.4792 66.6662" stroke="white" stroke-width="0.108025" stroke-miterlimit="10" stroke-linecap="round"/>
<path d="M49.0217 61.0402C49.0217 61.0402 49.8465 63.5286 49.1249 65.7674" stroke="white" stroke-width="0.108025" stroke-miterlimit="10" stroke-linecap="round"/>
<path d="M78.8428 106.236C78.8428 106.236 73.3756 111.316 68.1127 112.907" stroke="black" stroke-width="0.108025" stroke-miterlimit="10" stroke-linecap="round"/>
<path d="M20.644 88.1669V90.7141" stroke="black" stroke-width="0.216049" stroke-miterlimit="10" stroke-linecap="round"/>
<path d="M64.4087 3.08772C64.5659 3.08772 64.6933 2.96028 64.6933 2.80308C64.6933 2.64587 64.5659 2.51843 64.4087 2.51843C64.2515 2.51843 64.124 2.64587 64.124 2.80308C64.124 2.96028 64.2515 3.08772 64.4087 3.08772Z" fill="black"/>
<path d="M65.329 3.08772C65.4862 3.08772 65.6136 2.96028 65.6136 2.80308C65.6136 2.64587 65.4862 2.51843 65.329 2.51843C65.1718 2.51843 65.0443 2.64587 65.0443 2.80308C65.0443 2.96028 65.1718 3.08772 65.329 3.08772Z" fill="black"/>
<path d="M66.2496 3.08772C66.4068 3.08772 66.5343 2.96028 66.5343 2.80308C66.5343 2.64587 66.4068 2.51843 66.2496 2.51843C66.0924 2.51843 65.965 2.64587 65.965 2.80308C65.965 2.96028 66.0924 3.08772 66.2496 3.08772Z" fill="black"/>
<path d="M89.3035 62.8027V39.2042" stroke="#4052F2" stroke-width="0.216049" stroke-miterlimit="10" stroke-linecap="round"/>
</svg>
