<svg width="18" height="18" viewBox="0 0 18 18" fill="none" xmlns="http://www.w3.org/2000/svg">
<path d="M14.9451 1.62848H3.21508C2.31209 1.62848 1.58008 2.36049 1.58008 3.26348V14.9935C1.58008 15.8965 2.31209 16.6285 3.21508 16.6285H14.9451C15.8481 16.6285 16.5801 15.8965 16.5801 14.9935V3.26348C16.5801 2.36049 15.8481 1.62848 14.9451 1.62848Z" stroke="#F17336" stroke-width="1.5" stroke-linecap="round" stroke-linejoin="round"/>
<path d="M5.33008 1.62848V16.6285" stroke="#F17336" stroke-width="1.5" stroke-linecap="round" stroke-linejoin="round"/>
<path d="M12.8301 1.62848V16.6285" stroke="#F17336" stroke-width="1.5" stroke-linecap="round" stroke-linejoin="round"/>
<path d="M1.58008 9.12848H5.33008" stroke="#F17336" stroke-width="1.5" stroke-linecap="round" stroke-linejoin="round"/>
<path d="M7.79297 10.9124L10.9292 9.12882L7.79297 7.34528V10.9124Z" fill="#F17336"/>
<path d="M1.58008 5.37848H5.33008" stroke="#F17336" stroke-width="1.5" stroke-linecap="round" stroke-linejoin="round"/>
<path d="M1.58008 12.8785H5.33008" stroke="#F17336" stroke-width="1.5" stroke-linecap="round" stroke-linejoin="round"/>
<path d="M12.8301 12.8785H16.5801" stroke="#F17336" stroke-width="1.5" stroke-linecap="round" stroke-linejoin="round"/>
<path d="M12.8301 5.37848H16.5801" stroke="#F17336" stroke-width="1.5" stroke-linecap="round" stroke-linejoin="round"/>
<path d="M12.8301 9.12848H16.5801" stroke="#F17336" stroke-width="1.5" stroke-linecap="round" stroke-linejoin="round"/>
</svg>
