<svg width="256" height="256" viewBox="0 0 256 256" fill="none" xmlns="http://www.w3.org/2000/svg">
<path opacity="0.8" d="M43.7037 254.148C43.7037 254.148 -1.00745 248.648 6.35152 212.272C13.7105 175.895 17.8875 173.799 4.48627 131.108C-8.91502 88.4168 75.5655 40.7914 117.446 84.5864C159.326 128.381 182.181 99.7992 211.62 125.16C241.059 150.521 221.672 224.231 189.004 254.147L43.7037 254.148Z" fill="#FFF2D1"/>
<path d="M1.0116 254.148L139.048 254.148" stroke="black" stroke-width="0.408221" stroke-linecap="round" stroke-linejoin="round"/>
<path d="M210.066 254.148L237.32 254.148" stroke="black" stroke-width="0.408221" stroke-linecap="round" stroke-linejoin="round"/>
<path d="M240.592 254.148H255.012" stroke="black" stroke-width="0.408221" stroke-linecap="round" stroke-linejoin="round"/>
<path d="M206.787 224.861C206.787 224.861 243.218 222.383 249.413 234.897C255.608 247.412 207.531 252.493 192.909 249.519C178.286 246.544 154.619 239.421 154.619 239.421L206.787 224.861Z" fill="#F17336" stroke="black" stroke-width="0.410283" stroke-miterlimit="10" stroke-linecap="round"/>
<path d="M207.306 253.361C205.6 252.989 188.353 252.929 169.76 252.888C169.76 252.888 170.224 245.818 169.76 243.812C171.643 244.442 173.602 244.819 175.585 244.935C175.585 244.935 180.017 242.493 182.995 241.713C195.304 238.491 188.511 247.167 198.755 247.536C202.613 247.676 206.732 249.705 206.732 249.705C211.537 249.106 209.087 253.748 207.306 253.361Z" fill="white" stroke="black" stroke-width="0.410283" stroke-miterlimit="10" stroke-linecap="round"/>
<path d="M170.975 254.972C158.507 254.943 145.698 254.228 136.033 252.741C112.884 249.178 94.7691 241.217 110.631 231.428C126.492 221.638 153.197 226.844 153.197 226.844C152.309 230.666 160.976 238.978 171.22 242.332C172.945 248.164 170.975 254.972 170.975 254.972Z" fill="#F17336" stroke="black" stroke-width="0.410283" stroke-miterlimit="10" stroke-linecap="round"/>
<path d="M151.895 178.719C151.895 178.719 149.292 185.332 145.946 194.997C142.6 204.663 138.51 222.723 154.619 221.731C170.728 220.74 162.801 179.293 151.895 178.719Z" fill="white" stroke="black" stroke-width="0.410283" stroke-miterlimit="10" stroke-linecap="round"/>
<path d="M174.043 157.397C174.043 157.397 174.693 170.06 172.835 173.778C170.976 177.495 188.448 172.848 188.448 172.848C188.448 172.848 185.752 163.183 187.333 156.77C188.914 150.358 174.043 157.397 174.043 157.397Z" fill="white" stroke="black" stroke-width="0.410283" stroke-miterlimit="10" stroke-linecap="round"/>
<path d="M174.353 164.647C174.353 164.647 178.59 167.737 182.342 166.962C186.094 166.186 186.745 165.197 186.745 165.197C186.745 165.197 186.466 161.046 186.558 160.426C186.65 159.807 174.352 160.612 174.352 160.612C174.352 160.612 174.671 162.346 174.353 164.647Z" fill="#E3E3E3"/>
<path d="M165.401 136.696C165.401 136.696 164.843 148.407 166.516 153.424C168.189 158.442 177.017 165.579 185.286 162.885C193.555 160.19 196.066 155.274 197.461 149.986C198.856 144.699 198.576 132.793 196.718 131.585C194.859 130.377 166.701 123.872 165.401 136.696Z" fill="white" stroke="black" stroke-width="0.410283" stroke-miterlimit="10" stroke-linecap="round"/>
<path d="M164.964 143.512C166.51 143.028 167.922 142.19 169.088 141.065C170.643 139.567 171.447 137.138 172.694 135.272C175.62 130.872 172.522 136.802 175.93 140.126C179.337 143.451 198.172 142.896 198.172 142.896C198.172 142.896 201.394 143.448 199.164 134.594C196.934 125.739 190.924 121.582 185.348 121.582C179.772 121.582 171.841 122.016 168.31 126.973C164.778 131.929 160.503 141.408 162.919 144.072C165.334 146.736 164.964 143.512 164.964 143.512Z" fill="#3F3D56"/>
<path d="M187.435 168.092C187.435 168.092 184.452 171.361 176.831 170.617C176.831 170.617 163.076 173.592 158.802 174.242C154.528 174.893 151.552 176.566 151.552 177.495C151.552 178.424 157.129 191.156 154.527 206.862C151.924 222.567 197.274 210.577 197.274 210.577C197.274 210.577 196.469 185.67 209.759 178.142C209.759 178.142 211.679 176.193 207.962 175.216C204.245 174.238 192.842 174.184 190.428 170.335C188.138 166.684 187.435 168.092 187.435 168.092Z" fill="#654EF9" stroke="black" stroke-width="0.410283" stroke-miterlimit="10" stroke-linecap="round"/>
<path d="M188.453 171.661C188.453 171.661 187.214 174.469 181.101 174.511L188.453 171.661Z" fill="#4052F2"/>
<path d="M188.453 171.661C188.453 171.661 187.214 174.469 181.101 174.511" stroke="black" stroke-width="0.410283" stroke-miterlimit="10" stroke-linecap="round"/>
<path d="M187.789 189.222L180.072 192.77C177.904 187.026 175.958 181.095 175.396 180.706C173.095 179.115 168.803 174.244 168.745 172.363C168.692 170.587 169.553 170.557 169.925 170.004C170.297 169.451 171.018 169.312 171.39 168.754C171.566 168.49 170.722 167.301 169.671 165.402C169.671 165.402 168.748 160.266 168.869 159.471C168.972 158.808 169.582 157.402 170.315 158.736C170.742 159.513 172.076 164.274 172.076 164.274C174.163 167.208 175.536 169.249 177.16 168.979C179.762 168.545 183.231 165.881 183.789 165.389C184.347 164.898 185.293 166.825 183.519 168.555C181.744 170.284 183.294 175.241 180.876 178.463C180.876 178.456 184.35 183.749 187.789 189.222Z" fill="white" stroke="black" stroke-width="0.410283" stroke-miterlimit="10" stroke-linecap="round"/>
<path d="M182.561 181.491C182.561 181.491 179.866 184.238 175.808 180.747C175.808 180.747 177.79 185.58 178.008 186.912C178.225 188.243 184.513 184.655 184.513 184.655L182.561 181.491Z" fill="#E3E3E3"/>
<path d="M212.859 186.696C210.381 192.271 201.459 224.237 196.007 222.878C192.373 221.97 185.655 205.429 181.324 193.947L189.039 190.399C192.132 195.316 195.198 200.379 195.697 201.875C195.697 201.875 199.662 183.72 209.761 178.145C209.761 178.145 215.337 181.119 212.859 186.696Z" fill="white" stroke="black" stroke-width="0.410283" stroke-miterlimit="10" stroke-linecap="round"/>
<path d="M236.774 234.836C236.774 234.836 229.239 227.369 202.29 236.322" stroke="black" stroke-width="0.410283" stroke-miterlimit="10" stroke-linecap="round"/>
<path d="M124.323 237.504C124.323 237.504 135.427 231.924 153.202 236.322" stroke="black" stroke-width="0.410283" stroke-miterlimit="10" stroke-linecap="round"/>
<path d="M178.391 123.175C178.391 123.175 174.504 135.272 179.093 140.419" stroke="white" stroke-width="0.205141" stroke-miterlimit="10" stroke-linecap="round"/>
<path d="M182.128 123.175C182.128 123.175 179.216 131.885 181.821 137.171" stroke="white" stroke-width="0.205141" stroke-miterlimit="10" stroke-linecap="round"/>
<path d="M187.374 128.623C187.374 128.623 185.928 135.521 189.938 141.303" stroke="white" stroke-width="0.205141" stroke-miterlimit="10" stroke-linecap="round"/>
<path d="M193.074 133.784C193.074 133.784 192.508 139 194.892 141.067" stroke="white" stroke-width="0.205141" stroke-miterlimit="10" stroke-linecap="round"/>
<path d="M176.155 186.001C176.155 186.001 183.956 184.651 185.645 182.699C185.645 182.699 193.931 194.409 195.418 199.056C196.904 203.704 185.571 208.257 183.802 205.747C182.032 203.237 176.155 186.001 176.155 186.001Z" fill="white" stroke="black" stroke-width="0.410283" stroke-miterlimit="10" stroke-linecap="round"/>
<path d="M210.257 198.095H149.539V238.119H210.257V198.095Z" fill="#454545" stroke="black" stroke-width="0.410283" stroke-miterlimit="10"/>
<path d="M210.257 238.119H149.539V240.721H210.257V238.119Z" fill="#454545" stroke="black" stroke-width="0.410283" stroke-miterlimit="10"/>
<path d="M180.905 220.058C183.523 220.058 185.645 219.081 185.645 217.875C185.645 216.669 183.523 215.691 180.905 215.691C178.287 215.691 176.165 216.669 176.165 217.875C176.165 219.081 178.287 220.058 180.905 220.058Z" fill="#FFF0E6"/>
<path d="M171.389 168.749L171.658 169.843" stroke="black" stroke-width="0.410283" stroke-miterlimit="10" stroke-linecap="round"/>
<path d="M153.201 177.835C153.201 177.835 157.099 183.568 156.85 194.58L153.201 177.835Z" fill="#4052F2"/>
<path d="M153.201 177.835C153.201 177.835 157.099 183.568 156.85 194.58" stroke="black" stroke-width="0.410283" stroke-miterlimit="10" stroke-linecap="round"/>
<path d="M208.459 177.154C208.459 177.154 202.946 179.013 198.341 188.554L208.459 177.154Z" fill="#4052F2"/>
<path d="M208.459 177.154C208.459 177.154 202.946 179.013 198.341 188.554" stroke="black" stroke-width="0.410283" stroke-miterlimit="10" stroke-linecap="round"/>
<path d="M172.215 148.448C172.671 148.448 173.041 147.932 173.041 147.295C173.041 146.658 172.671 146.142 172.215 146.142C171.759 146.142 171.389 146.658 171.389 147.295C171.389 147.932 171.759 148.448 172.215 148.448Z" fill="black"/>
<path d="M188.527 148.529C188.983 148.529 189.352 148.013 189.352 147.376C189.352 146.739 188.983 146.223 188.527 146.223C188.07 146.223 187.701 146.739 187.701 147.376C187.701 148.013 188.07 148.529 188.527 148.529Z" fill="black"/>
<path d="M168.982 141.411C168.982 141.411 172.161 137.489 174.891 140.647L168.982 141.411Z" fill="white"/>
<path d="M168.982 141.411C168.982 141.411 172.161 137.489 174.891 140.647" stroke="black" stroke-width="0.410283" stroke-miterlimit="10" stroke-linecap="round"/>
<path d="M186.426 143.786C186.426 143.786 190.721 142.863 192.281 144.89L186.426 143.786Z" fill="white"/>
<path d="M186.426 143.786C186.426 143.786 190.721 142.863 192.281 144.89" stroke="black" stroke-width="0.410283" stroke-miterlimit="10" stroke-linecap="round"/>
<path d="M180.649 145.142C180.649 145.142 179.451 150.681 179.946 151.542C180.442 152.404 182.342 151.841 182.342 151.841" fill="white"/>
<path d="M180.649 145.142C180.649 145.142 179.451 150.681 179.946 151.542C180.442 152.404 182.342 151.841 182.342 151.841" stroke="black" stroke-width="0.410283" stroke-miterlimit="10" stroke-linecap="round"/>
<path d="M177.232 156.956C177.232 156.956 182.375 155.181 184.936 156.751L177.232 156.956Z" fill="white"/>
<path d="M177.232 156.956C177.232 156.956 182.375 155.181 184.936 156.751" stroke="black" stroke-width="0.410283" stroke-miterlimit="10" stroke-linecap="round"/>
<path d="M86.6736 193.785H39.6128V194.638H86.6736V193.785Z" fill="#0B065A"/>
<path d="M86.6735 196.437H39.6127V197.29H86.6735V196.437Z" fill="#0B065A"/>
<path d="M86.6735 199.092H39.6127V199.945H86.6735V199.092Z" fill="#0B065A"/>
<path d="M86.6735 201.744H39.6127V202.597H86.6735V201.744Z" fill="#0B065A"/>
<path d="M86.6735 204.396H39.6127V205.249H86.6735V204.396Z" fill="#0B065A"/>
<path d="M65.0517 207.051H39.6127V207.904H65.0517V207.051Z" fill="#0B065A"/>
<path d="M98.8598 124.865H98.058V102.901C98.058 101.231 97.7292 99.5782 97.0904 98.0359C96.4515 96.4936 95.5151 95.0922 94.3347 93.9118C93.1542 92.7313 91.7529 91.795 90.2105 91.1561C88.6682 90.5173 87.0152 90.1885 85.3458 90.1885H38.8119C37.1425 90.1885 35.4894 90.5173 33.9471 91.1561C32.4048 91.795 31.0034 92.7313 29.8229 93.9118C28.6425 95.0922 27.7061 96.4936 27.0673 98.0359C26.4284 99.5782 26.0996 101.231 26.0996 102.901V223.397C26.0996 225.067 26.4284 226.72 27.0673 228.262C27.7061 229.805 28.6425 231.206 29.8229 232.386C31.0034 233.567 32.4048 234.503 33.9471 235.142C35.4894 235.781 37.1425 236.11 38.8119 236.11H85.3458C87.0152 236.11 88.6682 235.781 90.2105 235.142C91.7529 234.503 93.1543 233.567 94.3347 232.386C95.5151 231.206 96.4515 229.805 97.0904 228.262C97.7292 226.72 98.058 225.067 98.058 223.397V140.499H98.8598L98.8598 124.865Z" fill="#FEFEFE" stroke="#0B065A" stroke-width="1.17674" stroke-miterlimit="10" stroke-linecap="round"/>
<path d="M85.5575 93.7964H79.4833C79.7626 94.4812 79.8693 95.2243 79.7938 95.96C79.7183 96.6958 79.4631 97.4017 79.0505 98.0156C78.638 98.6294 78.0808 99.1324 77.428 99.4803C76.7753 99.8281 76.047 100.01 75.3074 100.01H48.6487C47.9091 100.01 47.1809 99.8281 46.5281 99.4803C45.8754 99.1324 45.3182 98.6294 44.9056 98.0156C44.4931 97.4017 44.2378 96.6958 44.1623 95.96C44.0869 95.2243 44.1935 94.4812 44.4728 93.7964H38.7995C37.5528 93.7964 36.3184 94.0419 35.1666 94.519C34.0148 94.9961 32.9682 95.6954 32.0867 96.5769C31.2052 97.4585 30.5059 98.505 30.0288 99.6568C29.5517 100.809 29.3062 102.043 29.3062 103.29V223.61C29.3062 224.856 29.5517 226.091 30.0288 227.243C30.5059 228.394 31.2052 229.441 32.0867 230.323C32.9682 231.204 34.0148 231.903 35.1666 232.38C36.3183 232.857 37.5528 233.103 38.7995 233.103H85.5575C86.8042 233.103 88.0387 232.857 89.1905 232.38C90.3423 231.903 91.3888 231.204 92.2704 230.323C93.1519 229.441 93.8512 228.394 94.3282 227.243C94.8053 226.091 95.0509 224.856 95.0509 223.61V103.29C95.0509 102.043 94.8053 100.809 94.3282 99.6568C93.8512 98.505 93.1519 97.4585 92.2704 96.5769C91.3888 95.6954 90.3423 94.9961 89.1905 94.519C88.0387 94.0419 86.8042 93.7964 85.5575 93.7964Z" fill="#FEFEFE" stroke="#0B065A" stroke-width="1.17674" stroke-miterlimit="10" stroke-linecap="round"/>
<path d="M50.5342 124.72H39.7532V113.939H50.5342V124.72ZM40.0536 124.42H50.2332V114.24H40.0536V124.42Z" fill="#2E3338" stroke="black" stroke-width="0.30027"/>
<path d="M41.6991 119.83L42.6307 118.829L44.1835 120.071L47.7373 116.621L48.589 117.624L44.1147 122.038L41.6991 119.83Z" fill="#F17336"/>
<path d="M77.6538 116.682C80.6849 116.682 83.4294 116.673 85.4162 116.659C86.4096 116.652 87.2137 116.644 87.7695 116.634C88.0474 116.63 88.2635 116.625 88.4103 116.62C88.4836 116.617 88.5403 116.614 88.5789 116.612C88.5979 116.61 88.6139 116.609 88.6255 116.607C88.631 116.607 88.6379 116.605 88.6444 116.604C88.6471 116.603 88.6536 116.601 88.6606 116.597C88.6641 116.595 88.6707 116.591 88.6771 116.584C88.6839 116.576 88.6929 116.562 88.6929 116.542C88.6929 116.523 88.6839 116.508 88.6771 116.501C88.6707 116.494 88.6641 116.489 88.6606 116.488C88.6536 116.484 88.6471 116.482 88.6444 116.481C88.6379 116.479 88.631 116.478 88.6256 116.477C88.6139 116.476 88.598 116.474 88.5789 116.473C88.5403 116.47 88.4837 116.467 88.4104 116.465C88.2637 116.46 88.0476 116.455 87.7699 116.45C87.2142 116.441 86.4103 116.432 85.4171 116.425C83.4306 116.411 80.6861 116.402 77.6538 116.402C74.6216 116.402 71.8768 116.411 69.89 116.425C68.8966 116.432 68.0926 116.441 67.5369 116.45C67.259 116.455 67.0429 116.46 66.8961 116.465C66.8229 116.467 66.7662 116.47 66.7276 116.473C66.7086 116.474 66.6927 116.476 66.681 116.477C66.6755 116.478 66.6687 116.479 66.6622 116.481C66.6594 116.482 66.6529 116.484 66.6459 116.488C66.6425 116.489 66.6358 116.494 66.6294 116.501C66.6227 116.508 66.6136 116.523 66.6136 116.542C66.6136 116.562 66.6227 116.576 66.6294 116.584C66.6358 116.591 66.6425 116.595 66.6459 116.597C66.6529 116.601 66.6594 116.603 66.6622 116.604C66.6687 116.605 66.6756 116.607 66.681 116.607C66.6927 116.609 66.7086 116.61 66.7277 116.612C66.7663 116.614 66.8229 116.617 66.8962 116.62C67.0431 116.625 67.2593 116.63 67.5372 116.634C68.0931 116.644 68.8974 116.652 69.8909 116.659C71.878 116.673 74.6227 116.682 77.6538 116.682Z" fill="#0B065A" stroke="#2E3338" stroke-width="0.123325"/>
<path d="M77.6538 118.923C80.6849 118.923 83.4294 118.914 85.4162 118.9C86.4096 118.893 87.2137 118.884 87.7695 118.875C88.0474 118.87 88.2635 118.865 88.4103 118.86C88.4836 118.858 88.5403 118.855 88.5789 118.852C88.5979 118.851 88.6139 118.85 88.6255 118.848C88.631 118.847 88.6379 118.846 88.6444 118.844C88.6471 118.843 88.6536 118.842 88.6606 118.838C88.6641 118.836 88.6707 118.832 88.6771 118.824C88.6839 118.817 88.6929 118.803 88.6929 118.783C88.6929 118.763 88.6839 118.749 88.6771 118.741C88.6707 118.734 88.6641 118.73 88.6606 118.728C88.6536 118.724 88.6471 118.722 88.6444 118.722C88.6379 118.72 88.631 118.719 88.6256 118.718C88.6139 118.716 88.598 118.715 88.5789 118.713C88.5403 118.711 88.4837 118.708 88.4104 118.705C88.2637 118.7 88.0476 118.695 87.7699 118.691C87.2142 118.681 86.4103 118.673 85.4171 118.666C83.4306 118.652 80.6861 118.643 77.6538 118.643C74.6216 118.643 71.8768 118.652 69.89 118.666C68.8966 118.673 68.0926 118.681 67.5369 118.691C67.259 118.695 67.0429 118.7 66.8961 118.705C66.8229 118.708 66.7662 118.711 66.7276 118.713C66.7086 118.715 66.6927 118.716 66.681 118.718C66.6755 118.719 66.6687 118.72 66.6622 118.722C66.6594 118.722 66.6529 118.724 66.6459 118.728C66.6425 118.73 66.6358 118.734 66.6294 118.741C66.6227 118.749 66.6136 118.763 66.6136 118.783C66.6136 118.803 66.6227 118.817 66.6294 118.824C66.6358 118.832 66.6425 118.836 66.6459 118.838C66.6529 118.842 66.6594 118.843 66.6622 118.844C66.6687 118.846 66.6756 118.847 66.681 118.848C66.6927 118.85 66.7086 118.851 66.7277 118.852C66.7663 118.855 66.8229 118.858 66.8962 118.86C67.0431 118.865 67.2593 118.87 67.5372 118.875C68.0931 118.884 68.8974 118.893 69.8909 118.9C71.878 118.914 74.6227 118.923 77.6538 118.923Z" fill="#0B065A" stroke="#2E3338" stroke-width="0.123325"/>
<path d="M77.6538 121.163C80.6849 121.163 83.4294 121.154 85.4162 121.14C86.4096 121.133 87.2137 121.124 87.7695 121.115C88.0474 121.11 88.2635 121.105 88.4103 121.1C88.4836 121.098 88.5403 121.095 88.5789 121.092C88.5979 121.091 88.6139 121.09 88.6255 121.088C88.631 121.087 88.6379 121.086 88.6444 121.084C88.6471 121.084 88.6536 121.082 88.6606 121.078C88.6641 121.076 88.6707 121.072 88.6771 121.064C88.6839 121.057 88.6929 121.043 88.6929 121.023C88.6929 121.003 88.6839 120.989 88.6771 120.981C88.6707 120.974 88.6641 120.97 88.6606 120.968C88.6536 120.964 88.6471 120.962 88.6444 120.962C88.6379 120.96 88.631 120.959 88.6256 120.958C88.6139 120.956 88.598 120.955 88.5789 120.953C88.5403 120.951 88.4837 120.948 88.4104 120.946C88.2637 120.94 88.0476 120.935 87.7699 120.931C87.2142 120.921 86.4103 120.913 85.4171 120.906C83.4306 120.892 80.6861 120.883 77.6538 120.883C74.6216 120.883 71.8768 120.892 69.89 120.906C68.8966 120.913 68.0926 120.921 67.5369 120.931C67.259 120.935 67.0429 120.94 66.8961 120.946C66.8229 120.948 66.7662 120.951 66.7276 120.953C66.7086 120.955 66.6927 120.956 66.681 120.958C66.6755 120.959 66.6687 120.96 66.6622 120.962C66.6594 120.962 66.6529 120.964 66.6459 120.968C66.6425 120.97 66.6358 120.974 66.6294 120.981C66.6227 120.989 66.6136 121.003 66.6136 121.023C66.6136 121.043 66.6227 121.057 66.6294 121.064C66.6358 121.072 66.6425 121.076 66.6459 121.078C66.6529 121.082 66.6594 121.084 66.6622 121.084C66.6687 121.086 66.6756 121.087 66.681 121.088C66.6927 121.09 66.7086 121.091 66.7277 121.092C66.7663 121.095 66.8229 121.098 66.8962 121.1C67.0431 121.105 67.2593 121.11 67.5372 121.115C68.0931 121.124 68.8974 121.133 69.8909 121.14C71.878 121.154 74.6227 121.163 77.6538 121.163Z" fill="#0B065A" stroke="#2E3338" stroke-width="0.123325"/>
<path d="M77.6538 123.403C80.6849 123.403 83.4294 123.395 85.4162 123.38C86.4096 123.373 87.2137 123.365 87.7695 123.355C88.0474 123.351 88.2635 123.346 88.4103 123.341C88.4836 123.338 88.5403 123.336 88.5789 123.333C88.5979 123.331 88.6139 123.33 88.6255 123.328C88.631 123.328 88.6379 123.327 88.6444 123.325C88.6471 123.324 88.6536 123.322 88.6606 123.318C88.6641 123.316 88.6707 123.312 88.6771 123.305C88.6839 123.297 88.6929 123.283 88.6929 123.263C88.6929 123.244 88.6839 123.229 88.6771 123.222C88.6707 123.215 88.6641 123.211 88.6606 123.209C88.6536 123.205 88.6471 123.203 88.6444 123.202C88.6379 123.2 88.631 123.199 88.6256 123.198C88.6139 123.197 88.598 123.195 88.5789 123.194C88.5403 123.191 88.4837 123.188 88.4104 123.186C88.2637 123.181 88.0476 123.176 87.7699 123.171C87.2142 123.162 86.4103 123.153 85.4171 123.146C83.4306 123.132 80.6861 123.123 77.6538 123.123C74.6216 123.123 71.8768 123.132 69.89 123.146C68.8966 123.153 68.0926 123.162 67.5369 123.171C67.259 123.176 67.0429 123.181 66.8961 123.186C66.8229 123.188 66.7662 123.191 66.7276 123.194C66.7086 123.195 66.6927 123.197 66.681 123.198C66.6755 123.199 66.6687 123.2 66.6622 123.202C66.6594 123.203 66.6529 123.205 66.6459 123.209C66.6425 123.211 66.6358 123.215 66.6294 123.222C66.6227 123.229 66.6136 123.244 66.6136 123.263C66.6136 123.283 66.6227 123.297 66.6294 123.305C66.6358 123.312 66.6425 123.316 66.6459 123.318C66.6529 123.322 66.6594 123.324 66.6622 123.325C66.6687 123.327 66.6756 123.328 66.681 123.328C66.6927 123.33 66.7086 123.331 66.7277 123.333C66.7663 123.336 66.8229 123.338 66.8962 123.341C67.0431 123.346 67.2593 123.351 67.5372 123.355C68.0931 123.365 68.8974 123.373 69.8909 123.38C71.878 123.395 74.6227 123.403 77.6538 123.403Z" fill="#0B065A" stroke="#2E3338" stroke-width="0.123325"/>
<path d="M50.5342 143.176H39.7532V132.395H50.5342V143.176ZM40.0536 142.876H50.2332V132.696H40.0536V142.876Z" fill="#2E3338" stroke="black" stroke-width="0.30027"/>
<path d="M77.6538 135.139C80.6849 135.139 83.4294 135.13 85.4162 135.116C86.4096 135.109 87.2137 135.1 87.7695 135.091C88.0474 135.086 88.2635 135.081 88.4103 135.076C88.4836 135.073 88.5403 135.071 88.5789 135.068C88.5979 135.067 88.6139 135.065 88.6255 135.064C88.631 135.063 88.6379 135.062 88.6444 135.06C88.6471 135.059 88.6536 135.057 88.6606 135.053C88.6641 135.051 88.6707 135.047 88.6771 135.04C88.6839 135.032 88.6929 135.018 88.6929 134.999C88.6929 134.979 88.6839 134.965 88.6771 134.957C88.6707 134.95 88.6641 134.946 88.6606 134.944C88.6536 134.94 88.6471 134.938 88.6444 134.937C88.6379 134.935 88.631 134.934 88.6256 134.934C88.6139 134.932 88.598 134.93 88.5789 134.929C88.5403 134.926 88.4837 134.924 88.4104 134.921C88.2637 134.916 88.0476 134.911 87.7699 134.906C87.2142 134.897 86.4103 134.889 85.4171 134.882C83.4306 134.867 80.6861 134.859 77.6538 134.859C74.6216 134.859 71.8768 134.867 69.89 134.882C68.8966 134.889 68.0926 134.897 67.5369 134.906C67.259 134.911 67.0429 134.916 66.8961 134.921C66.8229 134.924 66.7662 134.926 66.7276 134.929C66.7086 134.93 66.6927 134.932 66.681 134.934C66.6755 134.934 66.6687 134.935 66.6622 134.937C66.6594 134.938 66.6529 134.94 66.6459 134.944C66.6425 134.946 66.6358 134.95 66.6294 134.957C66.6227 134.965 66.6136 134.979 66.6136 134.999C66.6136 135.018 66.6227 135.032 66.6294 135.04C66.6358 135.047 66.6425 135.051 66.6459 135.053C66.6529 135.057 66.6594 135.059 66.6622 135.06C66.6687 135.062 66.6756 135.063 66.681 135.064C66.6927 135.065 66.7086 135.067 66.7277 135.068C66.7663 135.071 66.8229 135.073 66.8962 135.076C67.0431 135.081 67.2593 135.086 67.5372 135.091C68.0931 135.1 68.8974 135.109 69.8909 135.116C71.878 135.13 74.6227 135.139 77.6538 135.139Z" fill="#0B065A" stroke="#2E3338" stroke-width="0.123325"/>
<path d="M77.6538 137.379C80.6849 137.379 83.4294 137.371 85.4162 137.356C86.4096 137.349 87.2137 137.341 87.7695 137.331C88.0474 137.327 88.2635 137.322 88.4103 137.317C88.4836 137.314 88.5403 137.312 88.5789 137.309C88.5979 137.307 88.6139 137.306 88.6255 137.304C88.631 137.304 88.6379 137.303 88.6444 137.301C88.6471 137.3 88.6536 137.298 88.6606 137.294C88.6641 137.292 88.6707 137.288 88.6771 137.281C88.6839 137.273 88.6929 137.259 88.6929 137.239C88.6929 137.22 88.6839 137.205 88.6771 137.198C88.6707 137.191 88.6641 137.187 88.6606 137.185C88.6536 137.181 88.6471 137.179 88.6444 137.178C88.6379 137.176 88.631 137.175 88.6256 137.174C88.6139 137.173 88.598 137.171 88.5789 137.17C88.5403 137.167 88.4837 137.164 88.4104 137.162C88.2637 137.157 88.0476 137.152 87.7699 137.147C87.2142 137.138 86.4103 137.129 85.4171 137.122C83.4306 137.108 80.6861 137.099 77.6538 137.099C74.6216 137.099 71.8768 137.108 69.89 137.122C68.8966 137.129 68.0926 137.138 67.5369 137.147C67.259 137.152 67.0429 137.157 66.8961 137.162C66.8229 137.164 66.7662 137.167 66.7276 137.17C66.7086 137.171 66.6927 137.173 66.681 137.174C66.6755 137.175 66.6687 137.176 66.6622 137.178C66.6594 137.179 66.6529 137.181 66.6459 137.185C66.6425 137.187 66.6358 137.191 66.6294 137.198C66.6227 137.205 66.6136 137.22 66.6136 137.239C66.6136 137.259 66.6227 137.273 66.6294 137.281C66.6358 137.288 66.6425 137.292 66.6459 137.294C66.6529 137.298 66.6594 137.3 66.6622 137.301C66.6687 137.303 66.6756 137.304 66.681 137.304C66.6927 137.306 66.7086 137.307 66.7277 137.309C66.7663 137.312 66.8229 137.314 66.8962 137.317C67.0431 137.322 67.2593 137.327 67.5372 137.331C68.0931 137.341 68.8974 137.349 69.8909 137.356C71.878 137.371 74.6227 137.379 77.6538 137.379Z" fill="#0B065A" stroke="#2E3338" stroke-width="0.123325"/>
<path d="M77.6538 139.619C80.6849 139.619 83.4294 139.61 85.4162 139.596C86.4096 139.589 87.2137 139.581 87.7695 139.571C88.0474 139.566 88.2635 139.562 88.4103 139.556C88.4836 139.554 88.5403 139.551 88.5789 139.549C88.5979 139.547 88.6139 139.546 88.6255 139.544C88.631 139.543 88.6379 139.542 88.6444 139.54C88.6471 139.54 88.6536 139.538 88.6606 139.534C88.6641 139.532 88.6707 139.528 88.6771 139.52C88.6839 139.513 88.6929 139.499 88.6929 139.479C88.6929 139.459 88.6839 139.445 88.6771 139.438C88.6707 139.43 88.6641 139.426 88.6606 139.424C88.6536 139.42 88.6471 139.418 88.6444 139.418C88.6379 139.416 88.631 139.415 88.6256 139.414C88.6139 139.412 88.598 139.411 88.5789 139.409C88.5403 139.407 88.4837 139.404 88.4104 139.402C88.2637 139.396 88.0476 139.392 87.7699 139.387C87.2142 139.377 86.4103 139.369 85.4171 139.362C83.4306 139.348 80.6861 139.339 77.6538 139.339C74.6216 139.339 71.8768 139.348 69.89 139.362C68.8966 139.369 68.0926 139.377 67.5369 139.387C67.259 139.392 67.0429 139.396 66.8961 139.402C66.8229 139.404 66.7662 139.407 66.7276 139.409C66.7086 139.411 66.6927 139.412 66.681 139.414C66.6755 139.415 66.6687 139.416 66.6622 139.418C66.6594 139.418 66.6529 139.42 66.6459 139.424C66.6425 139.426 66.6358 139.43 66.6294 139.438C66.6227 139.445 66.6136 139.459 66.6136 139.479C66.6136 139.499 66.6227 139.513 66.6294 139.52C66.6358 139.528 66.6425 139.532 66.6459 139.534C66.6529 139.538 66.6594 139.54 66.6622 139.54C66.6687 139.542 66.6756 139.543 66.681 139.544C66.6927 139.546 66.7086 139.547 66.7277 139.549C66.7663 139.551 66.8229 139.554 66.8962 139.556C67.0431 139.562 67.2593 139.566 67.5372 139.571C68.0931 139.581 68.8974 139.589 69.8909 139.596C71.878 139.61 74.6227 139.619 77.6538 139.619Z" fill="#0B065A" stroke="#2E3338" stroke-width="0.123325"/>
<path d="M77.6538 141.859C80.6849 141.859 83.4294 141.851 85.4162 141.836C86.4096 141.829 87.2137 141.821 87.7695 141.812C88.0474 141.807 88.2635 141.802 88.4103 141.797C88.4836 141.794 88.5403 141.792 88.5789 141.789C88.5979 141.788 88.6139 141.786 88.6255 141.784C88.631 141.784 88.6379 141.783 88.6444 141.781C88.6471 141.78 88.6536 141.778 88.6606 141.774C88.6641 141.772 88.6707 141.768 88.6771 141.761C88.6839 141.753 88.6929 141.739 88.6929 141.719C88.6929 141.7 88.6839 141.686 88.6771 141.678C88.6707 141.671 88.6641 141.667 88.6606 141.665C88.6536 141.661 88.6471 141.659 88.6444 141.658C88.6379 141.656 88.631 141.655 88.6256 141.654C88.6139 141.653 88.598 141.651 88.5789 141.65C88.5403 141.647 88.4837 141.645 88.4104 141.642C88.2637 141.637 88.0476 141.632 87.7699 141.627C87.2142 141.618 86.4103 141.609 85.4171 141.602C83.4306 141.588 80.6861 141.579 77.6538 141.579C74.6216 141.579 71.8768 141.588 69.89 141.602C68.8966 141.609 68.0926 141.618 67.5369 141.627C67.259 141.632 67.0429 141.637 66.8961 141.642C66.8229 141.645 66.7662 141.647 66.7276 141.65C66.7086 141.651 66.6927 141.653 66.681 141.654C66.6755 141.655 66.6687 141.656 66.6622 141.658C66.6594 141.659 66.6529 141.661 66.6459 141.665C66.6425 141.667 66.6358 141.671 66.6294 141.678C66.6227 141.686 66.6136 141.7 66.6136 141.719C66.6136 141.739 66.6227 141.753 66.6294 141.761C66.6358 141.768 66.6425 141.772 66.6459 141.774C66.6529 141.778 66.6594 141.78 66.6622 141.781C66.6687 141.783 66.6756 141.784 66.681 141.784C66.6927 141.786 66.7086 141.788 66.7277 141.789C66.7663 141.792 66.8229 141.794 66.8962 141.797C67.0431 141.802 67.2593 141.807 67.5372 141.812C68.0931 141.821 68.8974 141.829 69.8909 141.836C71.878 141.851 74.6227 141.859 77.6538 141.859Z" fill="#0B065A" stroke="#2E3338" stroke-width="0.123325"/>
<path d="M50.5342 161.632H39.7532V150.851H50.5342V161.632ZM40.0536 161.331H50.2332V151.152H40.0536V161.331Z" fill="#2E3338" stroke="black" stroke-width="0.30027"/>
<path d="M77.6538 153.594C80.6849 153.594 83.4294 153.585 85.4162 153.571C86.4096 153.564 87.2137 153.556 87.7695 153.546C88.0474 153.542 88.2635 153.537 88.4103 153.532C88.4836 153.529 88.5403 153.526 88.5789 153.524C88.5979 153.522 88.6139 153.521 88.6255 153.519C88.631 153.519 88.6379 153.517 88.6444 153.516C88.6471 153.515 88.6536 153.513 88.6606 153.509C88.6641 153.507 88.6707 153.503 88.6771 153.496C88.6839 153.488 88.6929 153.474 88.6929 153.454C88.6929 153.435 88.6839 153.42 88.6771 153.413C88.6707 153.406 88.6641 153.401 88.6606 153.4C88.6536 153.396 88.6471 153.394 88.6444 153.393C88.6379 153.391 88.631 153.39 88.6256 153.389C88.6139 153.388 88.598 153.386 88.5789 153.385C88.5403 153.382 88.4837 153.379 88.4104 153.377C88.2637 153.372 88.0476 153.367 87.7699 153.362C87.2142 153.353 86.4103 153.344 85.4171 153.337C83.4306 153.323 80.6861 153.314 77.6538 153.314C74.6216 153.314 71.8768 153.323 69.89 153.337C68.8966 153.344 68.0926 153.353 67.5369 153.362C67.259 153.367 67.0429 153.372 66.8961 153.377C66.8229 153.379 66.7662 153.382 66.7276 153.385C66.7086 153.386 66.6927 153.388 66.681 153.389C66.6755 153.39 66.6687 153.391 66.6622 153.393C66.6594 153.394 66.6529 153.396 66.6459 153.4C66.6425 153.401 66.6358 153.406 66.6294 153.413C66.6227 153.42 66.6136 153.435 66.6136 153.454C66.6136 153.474 66.6227 153.488 66.6294 153.496C66.6358 153.503 66.6425 153.507 66.6459 153.509C66.6529 153.513 66.6594 153.515 66.6622 153.516C66.6687 153.517 66.6756 153.519 66.681 153.519C66.6927 153.521 66.7086 153.522 66.7277 153.524C66.7663 153.526 66.8229 153.529 66.8962 153.532C67.0431 153.537 67.2593 153.542 67.5372 153.546C68.0931 153.556 68.8974 153.564 69.8909 153.571C71.878 153.585 74.6227 153.594 77.6538 153.594Z" fill="#0B065A" stroke="#2E3338" stroke-width="0.123325"/>
<path d="M77.6538 155.835C80.6849 155.835 83.4294 155.826 85.4162 155.812C86.4096 155.805 87.2137 155.796 87.7695 155.787C88.0474 155.782 88.2635 155.777 88.4103 155.772C88.4836 155.77 88.5403 155.767 88.5789 155.764C88.5979 155.763 88.6139 155.762 88.6255 155.76C88.631 155.759 88.6379 155.758 88.6444 155.756C88.6471 155.756 88.6536 155.754 88.6606 155.75C88.6641 155.748 88.6707 155.744 88.6771 155.736C88.6839 155.729 88.6929 155.715 88.6929 155.695C88.6929 155.675 88.6839 155.661 88.6771 155.653C88.6707 155.646 88.6641 155.642 88.6606 155.64C88.6536 155.636 88.6471 155.634 88.6444 155.634C88.6379 155.632 88.631 155.631 88.6256 155.63C88.6139 155.628 88.598 155.627 88.5789 155.625C88.5403 155.623 88.4837 155.62 88.4104 155.617C88.2637 155.612 88.0476 155.607 87.7699 155.603C87.2142 155.593 86.4103 155.585 85.4171 155.578C83.4306 155.564 80.6861 155.555 77.6538 155.555C74.6216 155.555 71.8768 155.564 69.89 155.578C68.8966 155.585 68.0926 155.593 67.5369 155.603C67.259 155.607 67.0429 155.612 66.8961 155.617C66.8229 155.62 66.7662 155.623 66.7276 155.625C66.7086 155.627 66.6927 155.628 66.681 155.63C66.6755 155.631 66.6687 155.632 66.6622 155.634C66.6594 155.634 66.6529 155.636 66.6459 155.64C66.6425 155.642 66.6358 155.646 66.6294 155.653C66.6227 155.661 66.6136 155.675 66.6136 155.695C66.6136 155.715 66.6227 155.729 66.6294 155.736C66.6358 155.744 66.6425 155.748 66.6459 155.75C66.6529 155.754 66.6594 155.756 66.6622 155.756C66.6687 155.758 66.6756 155.759 66.681 155.76C66.6927 155.762 66.7086 155.763 66.7277 155.764C66.7663 155.767 66.8229 155.77 66.8962 155.772C67.0431 155.777 67.2593 155.782 67.5372 155.787C68.0931 155.796 68.8974 155.805 69.8909 155.812C71.878 155.826 74.6227 155.835 77.6538 155.835Z" fill="#0B065A" stroke="#2E3338" stroke-width="0.123325"/>
<path d="M77.6538 158.075C80.6849 158.075 83.4294 158.066 85.4162 158.052C86.4096 158.045 87.2137 158.036 87.7695 158.027C88.0474 158.022 88.2635 158.017 88.4103 158.012C88.4836 158.01 88.5403 158.007 88.5789 158.004C88.5979 158.003 88.6139 158.001 88.6255 158C88.631 157.999 88.6379 157.998 88.6444 157.996C88.6471 157.995 88.6536 157.993 88.6606 157.989C88.6641 157.988 88.6707 157.983 88.6771 157.976C88.6839 157.969 88.6929 157.954 88.6929 157.935C88.6929 157.915 88.6839 157.901 88.6771 157.893C88.6707 157.886 88.6641 157.882 88.6606 157.88C88.6536 157.876 88.6471 157.874 88.6444 157.873C88.6379 157.872 88.631 157.87 88.6256 157.87C88.6139 157.868 88.598 157.867 88.5789 157.865C88.5403 157.862 88.4837 157.86 88.4104 157.857C88.2637 157.852 88.0476 157.847 87.7699 157.843C87.2142 157.833 86.4103 157.825 85.4171 157.818C83.4306 157.804 80.6861 157.795 77.6538 157.795C74.6216 157.795 71.8768 157.804 69.89 157.818C68.8966 157.825 68.0926 157.833 67.5369 157.843C67.259 157.847 67.0429 157.852 66.8961 157.857C66.8229 157.86 66.7662 157.862 66.7276 157.865C66.7086 157.867 66.6927 157.868 66.681 157.87C66.6755 157.87 66.6687 157.872 66.6622 157.873C66.6594 157.874 66.6529 157.876 66.6459 157.88C66.6425 157.882 66.6358 157.886 66.6294 157.893C66.6227 157.901 66.6136 157.915 66.6136 157.935C66.6136 157.954 66.6227 157.969 66.6294 157.976C66.6358 157.983 66.6425 157.988 66.6459 157.989C66.6529 157.993 66.6594 157.995 66.6622 157.996C66.6687 157.998 66.6756 157.999 66.681 158C66.6927 158.001 66.7086 158.003 66.7277 158.004C66.7663 158.007 66.8229 158.01 66.8962 158.012C67.0431 158.017 67.2593 158.022 67.5372 158.027C68.0931 158.036 68.8974 158.045 69.8909 158.052C71.878 158.066 74.6227 158.075 77.6538 158.075Z" fill="#0B065A" stroke="#2E3338" stroke-width="0.123325"/>
<path d="M77.6538 160.315C80.6849 160.315 83.4294 160.306 85.4162 160.292C86.4096 160.285 87.2137 160.277 87.7695 160.267C88.0474 160.263 88.2635 160.258 88.4103 160.253C88.4836 160.25 88.5403 160.247 88.5789 160.245C88.5979 160.243 88.6139 160.242 88.6255 160.24C88.631 160.239 88.6379 160.238 88.6444 160.237C88.6471 160.236 88.6536 160.234 88.6606 160.23C88.6641 160.228 88.6707 160.224 88.6771 160.217C88.6839 160.209 88.6929 160.195 88.6929 160.175C88.6929 160.155 88.6839 160.141 88.6771 160.134C88.6707 160.127 88.6641 160.122 88.6606 160.12C88.6536 160.116 88.6471 160.115 88.6444 160.114C88.6379 160.112 88.631 160.111 88.6256 160.11C88.6139 160.108 88.598 160.107 88.5789 160.106C88.5403 160.103 88.4837 160.1 88.4104 160.098C88.2637 160.093 88.0476 160.088 87.7699 160.083C87.2142 160.074 86.4103 160.065 85.4171 160.058C83.4306 160.044 80.6861 160.035 77.6538 160.035C74.6216 160.035 71.8768 160.044 69.89 160.058C68.8966 160.065 68.0926 160.074 67.5369 160.083C67.259 160.088 67.0429 160.093 66.8961 160.098C66.8229 160.1 66.7662 160.103 66.7276 160.106C66.7086 160.107 66.6927 160.108 66.681 160.11C66.6755 160.111 66.6687 160.112 66.6622 160.114C66.6594 160.115 66.6529 160.116 66.6459 160.12C66.6425 160.122 66.6358 160.127 66.6294 160.134C66.6227 160.141 66.6136 160.155 66.6136 160.175C66.6136 160.195 66.6227 160.209 66.6294 160.217C66.6358 160.224 66.6425 160.228 66.6459 160.23C66.6529 160.234 66.6594 160.236 66.6622 160.237C66.6687 160.238 66.6756 160.239 66.681 160.24C66.6927 160.242 66.7086 160.243 66.7277 160.245C66.7663 160.247 66.8229 160.25 66.8962 160.253C67.0431 160.258 67.2593 160.263 67.5372 160.267C68.0931 160.277 68.8974 160.285 69.8909 160.292C71.878 160.306 74.6227 160.315 77.6538 160.315Z" fill="#0B065A" stroke="#2E3338" stroke-width="0.123325"/>
<path d="M50.5342 180.088H39.7532V169.307H50.5342V180.088ZM40.0536 179.787H50.2332V169.608H40.0536V179.787Z" fill="#2E3338" stroke="black" stroke-width="0.30027"/>
<path d="M77.6538 172.05C80.6849 172.05 83.4294 172.042 85.4162 172.027C86.4096 172.02 87.2137 172.012 87.7695 172.003C88.0474 171.998 88.2635 171.993 88.4103 171.988C88.4836 171.985 88.5403 171.983 88.5789 171.98C88.5979 171.979 88.6139 171.977 88.6255 171.976C88.631 171.975 88.6379 171.974 88.6444 171.972C88.6471 171.971 88.6536 171.969 88.6606 171.965C88.6641 171.963 88.6707 171.959 88.6771 171.952C88.6839 171.944 88.6929 171.93 88.6929 171.91C88.6929 171.891 88.6839 171.877 88.6771 171.869C88.6707 171.862 88.6641 171.858 88.6606 171.856C88.6536 171.852 88.6471 171.85 88.6444 171.849C88.6379 171.847 88.631 171.846 88.6256 171.845C88.6139 171.844 88.598 171.842 88.5789 171.841C88.5403 171.838 88.4837 171.836 88.4104 171.833C88.2637 171.828 88.0476 171.823 87.7699 171.818C87.2142 171.809 86.4103 171.8 85.4171 171.793C83.4306 171.779 80.6861 171.77 77.6538 171.77C74.6216 171.77 71.8768 171.779 69.89 171.793C68.8966 171.8 68.0926 171.809 67.5369 171.818C67.259 171.823 67.0429 171.828 66.8961 171.833C66.8229 171.836 66.7662 171.838 66.7276 171.841C66.7086 171.842 66.6927 171.844 66.681 171.845C66.6755 171.846 66.6687 171.847 66.6622 171.849C66.6594 171.85 66.6529 171.852 66.6459 171.856C66.6425 171.858 66.6358 171.862 66.6294 171.869C66.6227 171.877 66.6136 171.891 66.6136 171.91C66.6136 171.93 66.6227 171.944 66.6294 171.952C66.6358 171.959 66.6425 171.963 66.6459 171.965C66.6529 171.969 66.6594 171.971 66.6622 171.972C66.6687 171.974 66.6756 171.975 66.681 171.976C66.6927 171.977 66.7086 171.979 66.7277 171.98C66.7663 171.983 66.8229 171.985 66.8962 171.988C67.0431 171.993 67.2593 171.998 67.5372 172.003C68.0931 172.012 68.8974 172.02 69.8909 172.027C71.878 172.042 74.6227 172.05 77.6538 172.05Z" fill="#0B065A" stroke="#2E3338" stroke-width="0.123325"/>
<path d="M77.6538 174.291C80.6849 174.291 83.4294 174.282 85.4162 174.268C86.4096 174.261 87.2137 174.253 87.7695 174.243C88.0474 174.239 88.2635 174.234 88.4103 174.229C88.4836 174.226 88.5403 174.223 88.5789 174.221C88.5979 174.219 88.6139 174.218 88.6255 174.216C88.631 174.215 88.6379 174.214 88.6444 174.213C88.6471 174.212 88.6536 174.21 88.6606 174.206C88.6641 174.204 88.6707 174.2 88.6771 174.193C88.6839 174.185 88.6929 174.171 88.6929 174.151C88.6929 174.131 88.6839 174.117 88.6771 174.11C88.6707 174.102 88.6641 174.098 88.6606 174.096C88.6536 174.092 88.6471 174.091 88.6444 174.09C88.6379 174.088 88.631 174.087 88.6256 174.086C88.6139 174.084 88.598 174.083 88.5789 174.082C88.5403 174.079 88.4837 174.076 88.4104 174.074C88.2637 174.069 88.0476 174.064 87.7699 174.059C87.2142 174.05 86.4103 174.041 85.4171 174.034C83.4306 174.02 80.6861 174.011 77.6538 174.011C74.6216 174.011 71.8768 174.02 69.89 174.034C68.8966 174.041 68.0926 174.05 67.5369 174.059C67.259 174.064 67.0429 174.069 66.8961 174.074C66.8229 174.076 66.7662 174.079 66.7276 174.082C66.7086 174.083 66.6927 174.084 66.681 174.086C66.6755 174.087 66.6687 174.088 66.6622 174.09C66.6594 174.091 66.6529 174.092 66.6459 174.096C66.6425 174.098 66.6358 174.102 66.6294 174.11C66.6227 174.117 66.6136 174.131 66.6136 174.151C66.6136 174.171 66.6227 174.185 66.6294 174.193C66.6358 174.2 66.6425 174.204 66.6459 174.206C66.6529 174.21 66.6594 174.212 66.6622 174.213C66.6687 174.214 66.6756 174.215 66.681 174.216C66.6927 174.218 66.7086 174.219 66.7277 174.221C66.7663 174.223 66.8229 174.226 66.8962 174.229C67.0431 174.234 67.2593 174.239 67.5372 174.243C68.0931 174.253 68.8974 174.261 69.8909 174.268C71.878 174.282 74.6227 174.291 77.6538 174.291Z" fill="#0B065A" stroke="#2E3338" stroke-width="0.123325"/>
<path d="M77.6538 176.531C80.6849 176.531 83.4294 176.522 85.4162 176.508C86.4096 176.501 87.2137 176.492 87.7695 176.483C88.0474 176.478 88.2635 176.473 88.4103 176.468C88.4836 176.466 88.5403 176.463 88.5789 176.46C88.5979 176.459 88.6139 176.458 88.6255 176.456C88.631 176.455 88.6379 176.454 88.6444 176.452C88.6471 176.452 88.6536 176.45 88.6606 176.446C88.6641 176.444 88.6707 176.44 88.6771 176.432C88.6839 176.425 88.6929 176.411 88.6929 176.391C88.6929 176.371 88.6839 176.357 88.6771 176.35C88.6707 176.342 88.6641 176.338 88.6606 176.336C88.6536 176.332 88.6471 176.33 88.6444 176.33C88.6379 176.328 88.631 176.327 88.6256 176.326C88.6139 176.324 88.598 176.323 88.5789 176.321C88.5403 176.319 88.4837 176.316 88.4104 176.314C88.2637 176.308 88.0476 176.304 87.7699 176.299C87.2142 176.289 86.4103 176.281 85.4171 176.274C83.4306 176.26 80.6861 176.251 77.6538 176.251C74.6216 176.251 71.8768 176.26 69.89 176.274C68.8966 176.281 68.0926 176.289 67.5369 176.299C67.259 176.304 67.0429 176.308 66.8961 176.314C66.8229 176.316 66.7662 176.319 66.7276 176.321C66.7086 176.323 66.6927 176.324 66.681 176.326C66.6755 176.327 66.6687 176.328 66.6622 176.33C66.6594 176.33 66.6529 176.332 66.6459 176.336C66.6425 176.338 66.6358 176.342 66.6294 176.35C66.6227 176.357 66.6136 176.371 66.6136 176.391C66.6136 176.411 66.6227 176.425 66.6294 176.432C66.6358 176.44 66.6425 176.444 66.6459 176.446C66.6529 176.45 66.6594 176.452 66.6622 176.452C66.6687 176.454 66.6756 176.455 66.681 176.456C66.6927 176.458 66.7086 176.459 66.7277 176.46C66.7663 176.463 66.8229 176.466 66.8962 176.468C67.0431 176.473 67.2593 176.478 67.5372 176.483C68.0931 176.492 68.8974 176.501 69.8909 176.508C71.878 176.522 74.6227 176.531 77.6538 176.531Z" fill="#0B065A" stroke="#2E3338" stroke-width="0.123325"/>
<path d="M77.6538 178.771C80.6849 178.771 83.4294 178.763 85.4162 178.748C86.4096 178.741 87.2137 178.733 87.7695 178.724C88.0474 178.719 88.2635 178.714 88.4103 178.709C88.4836 178.706 88.5403 178.704 88.5789 178.701C88.5979 178.7 88.6139 178.698 88.6255 178.696C88.631 178.696 88.6379 178.695 88.6444 178.693C88.6471 178.692 88.6536 178.69 88.6606 178.686C88.6641 178.684 88.6707 178.68 88.6771 178.673C88.6839 178.665 88.6929 178.651 88.6929 178.631C88.6929 178.612 88.6839 178.598 88.6771 178.59C88.6707 178.583 88.6641 178.579 88.6606 178.577C88.6536 178.573 88.6471 178.571 88.6444 178.57C88.6379 178.568 88.631 178.567 88.6256 178.566C88.6139 178.565 88.598 178.563 88.5789 178.562C88.5403 178.559 88.4837 178.557 88.4104 178.554C88.2637 178.549 88.0476 178.544 87.7699 178.539C87.2142 178.53 86.4103 178.521 85.4171 178.514C83.4306 178.5 80.6861 178.491 77.6538 178.491C74.6216 178.491 71.8768 178.5 69.89 178.514C68.8966 178.521 68.0926 178.53 67.5369 178.539C67.259 178.544 67.0429 178.549 66.8961 178.554C66.8229 178.557 66.7662 178.559 66.7276 178.562C66.7086 178.563 66.6927 178.565 66.681 178.566C66.6755 178.567 66.6687 178.568 66.6622 178.57C66.6594 178.571 66.6529 178.573 66.6459 178.577C66.6425 178.579 66.6358 178.583 66.6294 178.59C66.6227 178.598 66.6136 178.612 66.6136 178.631C66.6136 178.651 66.6227 178.665 66.6294 178.673C66.6358 178.68 66.6425 178.684 66.6459 178.686C66.6529 178.69 66.6594 178.692 66.6622 178.693C66.6687 178.695 66.6756 178.696 66.681 178.696C66.6927 178.698 66.7086 178.7 66.7277 178.701C66.7663 178.704 66.8229 178.706 66.8962 178.709C67.0431 178.714 67.2593 178.719 67.5372 178.724C68.0931 178.733 68.8974 178.741 69.8909 178.748C71.878 178.763 74.6227 178.771 77.6538 178.771Z" fill="#0B065A" stroke="#2E3338" stroke-width="0.123325"/>
<path d="M60.8128 121.072H56.2006L55.2157 123.354H54.447L58.1704 114.803H58.843L62.5543 123.354H61.7856L60.8128 121.072ZM60.5245 120.424L58.5067 115.704L56.4769 120.424H60.5245Z" fill="black"/>
<path d="M59.924 137.246C60.4124 137.374 60.7928 137.618 61.065 137.979C61.3372 138.331 61.4734 138.775 61.4734 139.312C61.4734 140.057 61.2291 140.629 60.7407 141.029C60.2523 141.43 59.5596 141.63 58.6628 141.63H55.2398V133.078H58.5427C59.4155 133.078 60.0881 133.275 60.5605 133.667C61.033 134.051 61.2692 134.604 61.2692 135.324C61.2692 135.789 61.1491 136.185 60.9089 136.513C60.6767 136.842 60.3484 137.086 59.924 137.246ZM55.9724 136.958H58.4346C59.1233 136.958 59.6437 136.818 59.996 136.537C60.3484 136.257 60.5245 135.849 60.5245 135.312C60.5245 134.247 59.8279 133.715 58.4346 133.715H55.9724V136.958ZM58.6148 140.993C59.3354 140.993 59.8639 140.857 60.2002 140.585C60.5445 140.313 60.7167 139.896 60.7167 139.336C60.7167 138.191 60.0161 137.618 58.6148 137.618H55.9724V140.993H58.6148Z" fill="black"/>
<path d="M58.795 160.002C58.0022 160.002 57.3136 159.83 56.7291 159.486C56.1446 159.133 55.6962 158.629 55.3839 157.972C55.0716 157.308 54.9155 156.523 54.9155 155.618C54.9155 154.721 55.0716 153.945 55.3839 153.288C55.6962 152.632 56.1446 152.131 56.7291 151.787C57.3136 151.435 58.0022 151.258 58.795 151.258C59.3875 151.258 59.928 151.354 60.4164 151.547C60.9129 151.731 61.3412 152.007 61.7016 152.375L61.3893 152.964C60.9809 152.596 60.5726 152.331 60.1642 152.171C59.7558 152.003 59.2994 151.919 58.795 151.919C57.8101 151.919 57.0454 152.243 56.5009 152.892C55.9564 153.532 55.6842 154.441 55.6842 155.618C55.6842 156.803 55.9524 157.72 56.4889 158.369C57.0334 159.017 57.8021 159.342 58.795 159.342C59.2994 159.342 59.7558 159.262 60.1642 159.101C60.5726 158.933 60.9809 158.665 61.3893 158.297L61.7016 158.885C61.3412 159.254 60.9129 159.534 60.4164 159.726C59.928 159.91 59.3875 160.002 58.795 160.002Z" fill="black"/>
<path d="M55.2398 170.639H57.9902C59.3515 170.639 60.4004 171.007 61.1371 171.744C61.8737 172.48 62.2421 173.533 62.2421 174.903C62.2421 176.272 61.8697 177.329 61.1251 178.074C60.3884 178.818 59.3435 179.191 57.9902 179.191H55.2398V170.639ZM57.9542 178.542C59.1152 178.542 59.988 178.238 60.5726 177.629C61.1571 177.013 61.4493 176.104 61.4493 174.903C61.4493 172.492 60.2843 171.287 57.9542 171.287H55.9844V178.542H57.9542Z" fill="black"/>
</svg>
