<svg width="256" height="256" viewBox="0 0 256 256" fill="none" xmlns="http://www.w3.org/2000/svg">
<path opacity="0.8" d="M41.4681 254.614C41.4681 254.614 -3.07666 249.135 4.25492 212.894C11.5865 176.653 15.748 174.565 2.39661 132.032C-10.9548 89.4999 73.2113 42.0518 114.936 85.6838C156.66 129.316 179.43 100.84 208.76 126.106C238.089 151.373 218.774 224.809 186.227 254.613L41.4681 254.614Z" fill="#FFF2D1"/>
<path d="M68.7383 236.433H65.1025V253.89H68.7383V236.433Z" fill="#FEFEFE" stroke="#0B065A" stroke-width="1.58626" stroke-miterlimit="10" stroke-linecap="round"/>
<path d="M96.0986 236.433H92.4629V253.89H96.0986V236.433Z" fill="#FEFEFE" stroke="#0B065A" stroke-width="1.58626" stroke-miterlimit="10" stroke-linecap="round"/>
<path d="M129.568 236.433H125.932V253.89H129.568V236.433Z" fill="#FEFEFE" stroke="#0B065A" stroke-width="1.58626" stroke-miterlimit="10" stroke-linecap="round"/>
<path d="M58.6387 232.496L86.9058 243.825L133.489 237.029L105.079 227.008L58.6387 232.496Z" fill="#FEFEFE"/>
<path d="M58.6387 232.496L58.5456 231.708C58.1855 231.751 57.9001 232.032 57.8524 232.391C57.8048 232.751 58.007 233.097 58.3436 233.232L58.6387 232.496ZM86.9058 243.825L86.6107 244.561L86.8089 244.641L87.0203 244.61L86.9058 243.825ZM133.489 237.029L133.604 237.814L136.784 237.35L133.753 236.281L133.489 237.029ZM105.079 227.008L105.343 226.26L105.169 226.199L104.986 226.221L105.079 227.008ZM58.3436 233.232L86.6107 244.561L87.2008 243.089L58.9337 231.76L58.3436 233.232ZM87.0203 244.61L133.604 237.814L133.375 236.244L86.7913 243.04L87.0203 244.61ZM133.753 236.281L105.343 226.26L104.815 227.756L133.225 237.777L133.753 236.281ZM104.986 226.221L58.5456 231.708L58.7317 233.283L105.172 227.796L104.986 226.221Z" fill="#0B065A"/>
<path d="M108.676 229.301L58.6387 232.496V165.074C58.6387 162.22 60.8916 159.885 63.6463 159.885L103.67 157.632C106.423 157.632 108.676 159.967 108.676 162.821V229.301Z" fill="#FEFEFE" stroke="#0B065A" stroke-width="1.58626" stroke-miterlimit="10" stroke-linecap="round"/>
<path d="M28.8127 184.278H70.3044" stroke="black" stroke-width="0.43725" stroke-miterlimit="10" stroke-linecap="round"/>
<path d="M135.735 173.842C135.735 173.842 121.135 150.012 112.104 152.212C103.072 154.413 102.179 153.786 102.179 153.786L99.4969 148.064L80.8995 155.395C80.8995 155.395 76.6473 154.859 72.1119 154.591C67.5766 154.323 64.1791 159.777 62.3908 166.482C60.6024 173.187 49.6941 191.071 60.6921 192.59C71.69 194.11 129.004 192.143 133.414 187.851C137.825 183.56 135.735 173.842 135.735 173.842ZM114.15 176.187C114.15 176.187 114.872 173.501 115.87 171.552C116.088 171.126 121.254 177.177 121.254 177.177L114.15 176.187ZM67.2278 186.005C67.2278 186.005 71.3905 174.827 71.4397 175.134L73.392 187.182L67.2278 186.005Z" fill="white" stroke="black" stroke-width="0.43725" stroke-miterlimit="10" stroke-linecap="round"/>
<path d="M87.0027 155.853C87.0027 155.853 90.8144 157.413 94.7486 156.141C98.6827 154.869 96.0199 160.632 98.7221 160.354C101.424 160.076 106.873 155.903 106.873 153.638C106.873 153.638 105.13 153.986 105.161 153.419C105.278 151.181 101.914 146.778 99.0008 147.735C95.1858 148.989 87.0027 155.853 87.0027 155.853Z" fill="#E3E3E3"/>
<path d="M86.8251 154.791C85.6784 159.446 81.7454 161.204 80.0794 161.094C79.4695 161.055 79.1645 160.766 79.4083 160.274C80.3232 158.445 79.0574 151.596 79.0574 151.596C79.0574 151.596 85.5451 149.397 86.7934 152.351C87.0448 152.94 87.0853 153.734 86.8251 154.791Z" fill="#3F3D56"/>
<path d="M74.4619 133.55C74.4619 133.55 74.0148 136.947 75.8622 142.55C77.7095 148.153 74.8193 148.809 81.7934 153.7C88.7676 158.591 94.3108 154.594 99.3774 149.706C104.444 144.817 97.9465 130.929 96.5167 130.512C95.722 130.281 90.4488 122.233 85.1712 122.564C80.943 122.827 76.7684 131.084 74.4619 133.55Z" fill="white" stroke="black" stroke-width="0.43725" stroke-miterlimit="10" stroke-linecap="round"/>
<path d="M75.2216 139.124C75.2216 139.124 83.1206 134.283 90.8533 136.679C90.8533 136.679 92.9991 137.509 93.8343 139.238C94.6694 140.967 95.8598 141.988 96.7256 146.485C97.5301 150.667 96.9715 151.56 96.9715 151.56C96.9715 151.56 101.305 147.925 101.512 147.137C101.72 146.349 103.946 131.383 96.9377 125.954C89.9296 120.526 85.1013 121.064 85.1013 121.064L74.3428 135.265L75.2216 139.124Z" fill="#E3E3E3"/>
<path d="M77.6952 155.299C77.6952 155.299 78.0023 167.144 78.1871 168.745C78.3718 170.345 85.2508 181.112 94.3905 178.441C103.53 175.769 95.7022 185.482 87.2775 183.268C78.8528 181.054 77.728 172.162 77.7673 170.175C77.8067 168.187 77.0623 155.229 77.0623 155.229L77.6952 155.299Z" fill="#F17336"/>
<path d="M105.875 154.036C103.889 158.208 97.8877 160.95 98.8179 159.162C99.7482 157.375 98.8179 144.898 98.8179 144.898C98.8179 144.898 100.586 144.016 101.651 141.791C102.187 140.676 102.548 139.223 102.416 137.373C102.363 136.608 100.114 139.493 99.4355 138.518C97.4756 138.143 96.5093 136.539 94.2356 135.432C92.7194 134.692 90.6217 134.173 87.2614 134.386C87.2614 134.386 85.4294 131.524 84.6543 124.492C84.6543 124.492 83.7306 129.768 85.5791 134.777C85.5791 134.777 75.5792 134.936 74.4139 139.04C74.4139 139.04 67.9645 135.165 77.1468 123.364C77.8871 122.391 78.762 121.529 79.7451 120.802C80.5944 120.181 81.5402 119.704 82.5446 119.39C83.129 119.187 83.7255 119.022 84.3308 118.894C89.1514 117.865 93.3195 119.39 93.3195 119.39C104.141 121.139 106.978 134.517 107.06 144.254C107.098 148.88 106.516 152.69 105.875 154.036Z" fill="#3F3D56"/>
<path d="M109.772 153.028C109.772 153.028 109.421 165.669 109.163 167.109C108.905 168.55 114.25 171.178 114.41 174.471L113.889 176.05L108.533 167.611C108.533 167.611 109.477 157.554 109.328 153.101L109.772 153.028Z" fill="#F17336"/>
<path d="M81.438 142.193C81.438 142.193 82.2327 146.724 82.0337 148.273C81.8348 149.822 84.3293 148.397 84.3293 148.397" stroke="black" stroke-width="0.327937" stroke-miterlimit="10" stroke-linecap="round"/>
<path d="M84.5054 152.009C84.5054 152.009 86.5266 152.296 89.5862 149.317" stroke="black" stroke-width="0.327937" stroke-miterlimit="10" stroke-linecap="round"/>
<path d="M72.3167 188.657C72.3167 188.657 68.8952 185.354 73.4492 175.08C75.7535 169.882 77.0652 167.984 77.0652 167.984C77.0652 167.984 80.7819 183.203 91.6891 179.571C102.596 175.939 108.141 167.172 108.141 167.172C108.141 167.172 114.816 174.331 114.816 179.27C114.816 179.27 104.316 178.736 101.281 183.296C98.2467 187.857 72.1079 196.287 72.3167 188.657Z" fill="#F17336" stroke="black" stroke-width="0.43725" stroke-miterlimit="10" stroke-linecap="round"/>
<path d="M116.147 171.321C116.147 171.321 120.574 175.694 122.195 178.057C123.817 180.42 125.943 177.838 125.943 177.838C125.943 177.838 120.144 171.061 119.486 169.851C118.631 168.287 117.201 168.54 116.147 171.321Z" fill="#E3E3E3"/>
<path d="M76.3008 154.544C76.3008 154.544 76.925 161.744 77.066 167.989L76.3008 154.544Z" fill="#FEF9E6"/>
<path d="M76.3008 154.544C76.3008 154.544 76.925 161.744 77.066 167.989" stroke="black" stroke-width="0.43725" stroke-miterlimit="10" stroke-linecap="round"/>
<path d="M69.834 206.552C69.834 206.552 67.3679 218.701 67.9079 226.464C67.9986 227.776 70.0941 227.713 70.5401 226.479L136.185 217.477C136.185 217.477 122.834 211.189 122.924 201.204C123.001 192.502 69.834 206.552 69.834 206.552Z" fill="#F17336" stroke="black" stroke-width="0.43725" stroke-miterlimit="10" stroke-linecap="round"/>
<path d="M42.8882 203.232H241.204L205.618 184.278H70.3048" fill="#EBDBB3"/>
<path d="M42.8882 203.232H241.204L205.618 184.278H70.3048" stroke="black" stroke-width="0.43725" stroke-miterlimit="10" stroke-linecap="round"/>
<path d="M166.731 194.781C166.731 194.781 162.502 199.071 167.51 199.905C172.517 200.739 206.054 203.39 208.241 195.21C210.427 187.031 190.835 189.593 190.835 189.593L166.731 194.781Z" fill="#FCAA23"/>
<path d="M108.537 191.461C108.537 191.461 122.386 194.705 129.087 194.878C135.788 195.051 162.173 195.282 174.419 193.338C186.665 191.394 152.782 188.638 152.782 188.638L108.537 191.461Z" fill="#F17336"/>
<path d="M58.4868 194.588L50.0818 200.49L75.7724 199.536V201.205H81.6742V199.536L108.14 200.132L107.33 191.936L107.066 188.657L90.1983 190.893L73.3041 191.31L61.1136 192.646L58.4868 194.588Z" fill="black"/>
<path d="M107.066 198.899L106.353 188.752L104.176 189.041L102.06 194.932L107.066 198.899Z" fill="#F17336" stroke="black" stroke-width="0.43725" stroke-miterlimit="10" stroke-linecap="round"/>
<path d="M52.3789 199.874L63.0773 191.4L66.6813 191.519L57.7297 197.271L52.3789 199.874Z" fill="#F17336" stroke="black" stroke-width="0.43725" stroke-miterlimit="10" stroke-linecap="round"/>
<path d="M82.449 191.936C82.449 191.936 85.548 189.164 91.2115 189.342C96.875 189.521 104.176 189.041 104.176 189.041L103.907 195.721L100.608 197.152C100.608 197.152 82.7463 196.73 81.0771 198.463C79.4079 200.197 78.4066 200.851 77.448 200.493C76.4893 200.136 79.6473 191.489 82.449 191.936Z" fill="white" stroke="black" stroke-width="0.43725" stroke-miterlimit="10" stroke-linecap="round"/>
<path d="M57.73 197.271L67.1899 189.342C67.1899 189.342 69.7576 190.116 75.3566 189.041C80.9556 187.965 82.4499 191.936 82.4499 191.936L78.4163 199.669C78.4163 199.669 77.204 197.986 72.732 198.105C68.26 198.224 57.73 197.271 57.73 197.271Z" fill="white" stroke="black" stroke-width="0.43725" stroke-miterlimit="10" stroke-linecap="round"/>
<path d="M78.3963 200.818C78.3963 200.818 78.932 197.628 74.9388 196.853C70.9456 196.078 57.7297 197.271 57.7297 197.271L52.3789 199.878L75.3028 198.941C75.775 198.921 76.2199 199.347 76.2352 199.883L76.1609 200.792L78.3963 200.818Z" fill="#F17336" stroke="black" stroke-width="0.43725" stroke-miterlimit="10" stroke-linecap="round"/>
<path d="M78.3963 200.818C78.3963 200.818 78.0378 197.539 83.4028 196.57C88.7679 195.602 103.908 195.721 103.908 195.721L107.068 198.898H82.2944C81.7063 198.898 81.2275 199.372 81.2013 200.028L81.1707 200.818H78.3963Z" fill="#F17336" stroke="black" stroke-width="0.43725" stroke-miterlimit="10" stroke-linecap="round"/>
<path d="M108.548 152.719C108.548 152.719 109.036 157.844 108.141 167.169L108.548 152.719Z" fill="#FEF9E6"/>
<path d="M108.548 152.719C108.548 152.719 109.036 157.844 108.141 167.169" stroke="black" stroke-width="0.43725" stroke-miterlimit="10" stroke-linecap="round"/>
<path d="M136.402 183.517C136.402 185.473 135.451 187.503 132.079 188.596C124.318 191.11 108.214 182.137 107.993 182.013C105.79 186.393 103.762 187.795 103.762 187.795C103.584 188.927 102.69 189.851 102.69 189.851C103.346 189.613 105.819 190.477 103.703 191.639C101.587 192.801 99.7983 191.937 99.7983 191.937C98.6057 192.831 97.564 192.501 97.564 192.501C94.8563 193.175 95.0586 188.94 95.087 188.49C95.0531 188.655 94.7448 189.387 92.0492 191.729C88.8901 194.471 85.5517 192.026 87.0044 191.729C88.4572 191.431 95.2673 184.159 95.5067 183.202C95.7461 182.246 100.156 179.09 102.422 177.152C104.688 175.214 105.701 175.393 108.412 175.811C111.123 176.228 134.729 178.493 134.729 178.493C134.729 178.493 136.396 180.941 136.402 183.517Z" fill="white" stroke="black" stroke-width="0.43725" stroke-miterlimit="10" stroke-linecap="round"/>
<path d="M97.589 187.942C97.589 187.942 96.579 192.198 97.5606 192.499" stroke="black" stroke-width="0.43725" stroke-miterlimit="10" stroke-linecap="round"/>
<path d="M99.8247 188.657C99.8247 188.657 98.9906 191.101 99.7951 191.936" stroke="black" stroke-width="0.43725" stroke-miterlimit="10" stroke-linecap="round"/>
<path d="M136.402 183.262C136.402 185.218 135.451 187.249 132.08 188.342C124.318 190.856 108.214 181.882 107.994 181.758C107.994 181.758 108.59 180.566 109.605 181.042C110.587 181.499 127.343 186.76 136.402 183.262Z" fill="#E3E3E3"/>
<path d="M135.537 188.645H108.537V191.465H135.537V188.645Z" fill="white" stroke="black" stroke-width="0.43725" stroke-miterlimit="10" stroke-linecap="round"/>
<path d="M126.019 191.465L139.849 155.329H187.685L188.909 156.271L127.646 191.465H126.019Z" fill="white" stroke="black" stroke-width="0.43725" stroke-miterlimit="10" stroke-linecap="round"/>
<path d="M188.909 156.271H140.911L127.646 191.465H175.644L188.909 156.271Z" fill="white" stroke="black" stroke-width="0.43725" stroke-miterlimit="10" stroke-linecap="round"/>
<path d="M58.6389 232.496L86.9038 243.822V250.642L60.2983 238.612C59.8031 238.388 59.383 238.026 59.0883 237.569C58.7936 237.113 58.6368 236.581 58.6367 236.037L58.6389 232.496Z" fill="#FEFEFE"/>
<path d="M58.6389 232.496L58.9339 231.759L57.8465 231.324L57.8458 232.495L58.6389 232.496ZM86.9038 243.822H87.6969V243.285L87.1988 243.085L86.9038 243.822ZM86.9038 250.642L86.577 251.364C86.8225 251.475 87.1075 251.454 87.3339 251.308C87.5602 251.162 87.6969 250.911 87.6969 250.642H86.9038ZM60.2983 238.612L60.625 237.889L60.625 237.889L60.2983 238.612ZM58.6367 236.037L57.8436 236.037L57.8436 236.038L58.6367 236.037ZM58.3439 233.232L86.6088 244.558L87.1988 243.085L58.9339 231.759L58.3439 233.232ZM86.1107 243.822V250.642H87.6969V243.822H86.1107ZM87.2306 249.919L60.625 237.889L59.9715 239.334L86.577 251.364L87.2306 249.919ZM60.625 237.889C60.2688 237.728 59.9667 237.468 59.7547 237.139L58.4219 237.999C58.7993 238.584 59.3373 239.048 59.9715 239.334L60.625 237.889ZM59.7547 237.139C59.5427 236.811 59.4299 236.428 59.4298 236.037L57.8436 236.038C57.8437 236.733 58.0445 237.415 58.4219 237.999L59.7547 237.139ZM59.4298 236.038L59.432 232.496L57.8458 232.495L57.8436 236.037L59.4298 236.038Z" fill="#0B065A"/>
<path d="M86.9062 243.825L133.49 237.029V242.216L86.9062 250.645V243.825Z" fill="#FEFEFE"/>
<path d="M86.9062 243.825L86.7918 243.04L86.1131 243.139V243.825H86.9062ZM133.49 237.029H134.283V236.112L133.375 236.244L133.49 237.029ZM133.49 242.216L133.631 242.996L134.283 242.878V242.216H133.49ZM86.9062 250.645H86.1131C86.1131 250.88 86.2174 251.103 86.3978 251.254C86.5782 251.404 86.8162 251.467 87.0475 251.425L86.9062 250.645ZM87.0207 244.61L133.604 237.814L133.375 236.244L86.7918 243.04L87.0207 244.61ZM132.697 237.029V242.216H134.283V237.029H132.697ZM133.348 241.435L86.765 249.864L87.0475 251.425L133.631 242.996L133.348 241.435ZM87.6994 250.645V243.825H86.1131V250.645H87.6994Z" fill="#0B065A"/>
<path d="M222.846 206.808H219.746V253.964H222.846V206.808Z" fill="#FEFEFE" stroke="#0B065A" stroke-width="1.58626" stroke-miterlimit="10" stroke-linecap="round"/>
<path d="M200.671 206.808H197.571V253.964H200.671V206.808Z" fill="#FEFEFE" stroke="#0B065A" stroke-width="1.58626" stroke-miterlimit="10" stroke-linecap="round"/>
<path d="M0.786865 254.614H51.0356" stroke="black" stroke-width="0.43725" stroke-miterlimit="10" stroke-linecap="round"/>
<path d="M54.4927 254.614H171.026" stroke="black" stroke-width="0.43725" stroke-miterlimit="10" stroke-linecap="round"/>
<path d="M176.212 254.971H254.787" stroke="black" stroke-width="0.43725" stroke-miterlimit="10" stroke-linecap="round"/>
<path d="M107.068 215.392C107.068 215.392 116.718 221.792 125.517 218.343C133.042 215.392 132.759 215.781 132.759 215.781C132.759 215.781 165.064 214.141 169.238 225.317C172.139 233.078 152.34 254.613 152.34 254.613H132.938C132.938 254.613 136.873 242.393 139.059 238.012C139.059 238.012 118.812 239.085 111.522 235.598C104.232 232.111 107.455 215.392 107.455 215.392" fill="#654EF9"/>
<path d="M107.068 215.392C107.068 215.392 116.718 221.792 125.517 218.343C133.042 215.392 132.759 215.781 132.759 215.781C132.759 215.781 165.064 214.141 169.238 225.317C172.139 233.078 152.34 254.613 152.34 254.613H132.938C132.938 254.613 136.873 242.393 139.059 238.012C139.059 238.012 118.812 239.085 111.522 235.598C104.232 232.111 107.455 215.392 107.455 215.392" stroke="black" stroke-width="0.43725" stroke-miterlimit="10" stroke-linecap="round"/>
<path d="M118.154 230.532C118.154 230.532 129.599 234.468 136.991 230.532C144.382 226.597 144.143 225.681 145.872 225.991C145.872 225.991 141.521 230.89 138.778 237.745C138.778 237.745 122.088 238.222 117.681 237.029C114.072 236.06 118.154 230.532 118.154 230.532Z" fill="#5842E2"/>
<path d="M139.063 238.013C139.063 238.013 142.233 229.814 146.765 225.644" stroke="#5842E2" stroke-width="0.43725" stroke-miterlimit="10" stroke-linecap="round"/>
<path d="M208.432 187C208.432 187 207.571 188.869 208.927 189.806L202.352 198.45L169.859 197.768C169.859 197.768 168.886 194.195 169.998 193.113L202.283 193.781L208.432 187Z" fill="white"/>
<path d="M202.282 193.781L169.832 193.137L180.226 184.866L210.006 185.263L202.282 193.781Z" fill="#0B065A"/>
<path d="M208.927 189.806L202.352 198.45L169.859 197.768C169.859 197.768 169.192 194.052 170.12 193.113C170.12 193.113 170.448 192.882 169.859 193.113C169.024 193.441 167.599 195.967 169.447 198.237L203.135 199.174L210.284 189.806H208.927Z" fill="#0B065A"/>
<path d="M202.183 198.268C200.64 195.788 202.056 194.042 202.117 193.962H202.283C202.268 193.979 200.906 195.942 202.352 198.268H202.183Z" fill="black"/>
<path d="M204.021 181.129C204.021 181.129 203.16 182.997 204.516 183.935L197.941 192.579L165.448 191.898C165.448 191.898 164.475 188.324 165.587 187.241L197.871 187.909L204.021 181.129Z" fill="white"/>
<path d="M197.871 187.909L165.421 187.265L175.815 178.995L205.595 179.392L197.871 187.909Z" fill="#4052F2" stroke="black" stroke-width="0.43725" stroke-miterlimit="10" stroke-linecap="round"/>
<path d="M204.516 183.935L197.941 192.579L165.448 191.898C165.448 191.898 164.781 188.182 165.709 187.242C165.709 187.242 166.037 187.011 165.448 187.242C164.613 187.57 163.187 190.096 165.036 192.366L198.724 193.303L205.873 183.935H204.516Z" fill="#4052F2" stroke="black" stroke-width="0.43725" stroke-miterlimit="10" stroke-linecap="round"/>
<path d="M197.772 192.139C196.229 189.952 197.645 188.422 197.706 188.35H197.871C197.857 188.365 196.495 190.092 197.941 192.139H197.772Z" fill="black"/>
<path d="M208.432 175.161C208.432 175.161 207.571 177.031 208.927 177.967L202.352 186.612L169.859 185.931C169.859 185.931 168.886 182.356 169.998 181.274L202.283 181.942L208.432 175.161Z" fill="white"/>
<path d="M202.283 181.942L169.832 181.298L180.226 173.028L210.006 173.424L202.283 181.942Z" fill="#FCAA23" stroke="black" stroke-width="0.43725" stroke-miterlimit="10" stroke-linecap="round"/>
<path d="M208.927 177.967L202.352 186.612L169.859 185.931C169.859 185.931 169.192 182.209 170.12 181.274C170.12 181.274 170.448 181.044 169.859 181.274C169.024 181.602 167.599 184.128 169.447 186.399L203.135 187.336L210.284 177.967H208.927Z" fill="#FCAA23" stroke="black" stroke-width="0.43725" stroke-miterlimit="10" stroke-linecap="round"/>
<path d="M202.183 186.257C200.64 183.975 202.056 182.37 202.117 182.296H202.283C202.269 182.313 200.906 184.117 202.352 186.257H202.183Z" fill="black"/>
<path d="M240.946 28.3418H127.751V100.944H240.946V28.3418Z" fill="white" stroke="black" stroke-width="0.43725" stroke-miterlimit="10" stroke-linecap="round"/>
<path d="M188.194 36.9259H135.735V70.545H188.194V36.9259Z" fill="#F17336"/>
<path d="M210.01 36.9259H194.364V48.3709H210.01V36.9259Z" fill="#654EF9"/>
<path d="M210.01 54.9865H194.364V66.4315H210.01V54.9865Z" fill="#F17336"/>
<path d="M210.01 73.0483H194.364V84.4933H210.01V73.0483Z" fill="#0B065A"/>
<path d="M210.01 91.1089H194.364V100.705H210.01V91.1089Z" fill="#F17336"/>
<path d="M243.808 25.4155H124.89V103.871H243.808V25.4155Z" stroke="#4052F2" stroke-width="0.43725" stroke-miterlimit="10" stroke-linecap="round"/>
<path d="M124.89 64.6882H91.658" stroke="#4052F2" stroke-width="0.43725" stroke-miterlimit="10" stroke-linecap="round"/>
<path d="M91.6581 44.2576H46.9231V76.9825H91.6581V44.2576Z" stroke="#4052F2" stroke-width="0.43725" stroke-miterlimit="10" stroke-linecap="round"/>
<path d="M77.3939 55.7485C76.5587 55.9671 75.7542 56.1857 74.9442 56.4043L71.7413 57.269C70.9116 57.4931 70.0831 57.7194 69.2512 57.9347C69.1185 57.9728 68.9783 57.9773 68.8435 57.9478C67.406 57.5718 65.9707 57.1827 64.5354 56.8012L61.3249 55.942C61.2528 55.9223 61.1796 55.9059 61.0648 55.8775V56.1475C61.0648 57.3499 61.0702 58.5523 61.0648 59.7548C61.0541 59.9686 61.0988 60.1816 61.1946 60.3731C61.2903 60.5646 61.4339 60.7281 61.6113 60.8479C63.004 61.8711 64.4994 62.6887 66.174 63.1435C68.6139 63.7993 71.0046 63.5938 73.3515 62.6953C74.6072 62.2026 75.803 61.5693 76.9162 60.8075C77.0579 60.7239 77.1758 60.6056 77.2589 60.4636C77.3419 60.3216 77.3872 60.1608 77.3906 59.9964C77.3939 58.5862 77.3939 57.1827 77.3939 55.7485Z" fill="#654EF9"/>
<path d="M82.0625 53.9459C81.9947 53.923 81.9281 53.8945 81.8581 53.8781C79.9998 53.4409 78.1316 53.0146 76.27 52.5762C73.9745 52.0362 71.691 51.4831 69.3998 50.9507C69.2131 50.9076 69.0191 50.9076 68.8324 50.9507C66.8145 51.4368 64.7988 51.9306 62.7853 52.4319C61.6277 52.7172 60.4722 53.0091 59.3157 53.2944C58.4215 53.513 57.5241 53.724 56.6299 53.9415C56.5206 53.97 56.4047 54.017 56.2932 54.0508V54.1142C56.3579 54.1448 56.4243 54.1714 56.4922 54.194C57.8673 54.5624 59.2436 54.9264 60.6187 55.2948C62.982 55.9274 65.345 56.5614 67.7076 57.1969C67.934 57.2475 68.1576 57.3095 68.3777 57.3827C68.827 57.5554 69.2522 57.5062 69.7091 57.3827C71.5576 56.8645 73.4148 56.3759 75.2688 55.8742C76.6876 55.4894 78.1087 55.1039 79.5319 54.7177C80.2971 54.5111 81.0623 54.311 81.8198 54.1066C81.9051 54.0836 81.9871 54.053 82.0713 54.0268L82.0625 53.9459Z" fill="#654EF9"/>
<path d="M55.7935 63.4836L62.7818 65.9038V65.9475C62.6298 65.9475 62.4648 65.9868 62.3303 65.9409C60.7256 65.3944 59.1264 64.8314 57.5206 64.2739C56.8472 64.04 56.1739 63.8093 55.5016 63.5732C55.3737 63.5284 55.3136 63.5503 55.2611 63.6891C54.8927 64.6729 54.955 65.6075 55.5289 66.4864C55.6521 66.6422 55.8256 66.7504 56.0197 66.7925C57.2123 67.0647 58.4126 67.3051 59.6063 67.5719C60.2108 67.7063 60.8929 67.8736 61.4919 68.0321C62.1478 69.8139 64.1821 68.9066 64.1821 68.9066L70.5594 71.5803C69.5439 70.7758 69.5559 69.5034 69.9308 68.184C69.4564 68.055 68.982 67.9293 68.5098 67.7949C67.2592 67.4385 66.0087 67.0821 64.7625 66.7127C64.6128 66.6689 64.486 66.5465 64.3493 66.4602L64.3876 66.3847C64.7297 66.4853 65.0708 66.588 65.414 66.6864L69.322 67.8003C69.5537 67.8659 69.7843 67.9304 70.0172 67.9872C70.1658 68.0233 70.1943 68.0966 70.1516 68.2409C69.9677 68.8045 69.8957 69.3986 69.9396 69.9899C70.0161 70.7944 70.4555 71.3628 71.1562 71.5454C71.565 71.6547 71.9389 71.5344 72.2985 71.353C73.4813 70.7528 74.311 68.9481 73.9863 67.6604C73.8617 67.1674 73.583 66.7793 73.0473 66.7247C72.7814 66.7062 72.5157 66.7646 72.2821 66.893C71.9935 67.0548 71.7596 67.315 71.5027 67.5325L71.5312 67.6068C71.6809 67.6538 71.8307 67.7019 71.9815 67.7479C72.2001 67.8134 72.4089 67.8834 72.6254 67.9446C73.1238 68.0856 73.2441 68.3819 73.137 68.9284C73.0425 69.399 72.7679 69.814 72.3718 70.085C71.6689 70.5856 70.8742 70.1626 70.7878 69.2487C70.6993 68.3119 71.4076 67.0472 72.257 66.6514C72.4666 66.572 72.6818 66.508 72.9008 66.4602C72.4242 66.3629 71.9553 66.2765 71.4907 66.1716C69.7242 65.7693 67.9585 65.363 66.1934 64.9527C66.0164 64.9112 65.8076 64.8959 65.7562 64.6445C65.7453 64.5887 65.6469 64.5352 65.5813 64.5089C65.2359 64.3996 64.8872 64.2969 64.5374 64.2007C64.4656 64.1764 64.3871 64.1811 64.3187 64.2138C64.1482 64.3548 63.9908 64.2827 63.8235 64.2236C62.1369 63.6421 60.5103 62.9173 58.8914 62.1718C58.6447 62.0438 58.389 61.9342 58.1262 61.8439C57.6671 61.7105 57.2517 61.8778 56.8713 62.1237C56.3759 62.4502 55.9982 62.9267 55.7935 63.4836ZM63.1021 66.3344C63.3354 66.3426 63.5611 66.4192 63.7511 66.5548C63.9412 66.6903 64.0871 66.8788 64.1708 67.0967C64.2545 67.3146 64.2722 67.5523 64.2217 67.7802C64.1712 68.0081 64.0548 68.2161 63.887 68.3783C63.7191 68.5405 63.5072 68.6497 63.2777 68.6924C63.0482 68.735 62.8112 68.7091 62.5963 68.618C62.3814 68.5269 62.1981 68.3746 62.0691 68.18C61.9402 67.9854 61.8714 67.7572 61.8712 67.5238C61.8784 67.2034 62.0117 66.8988 62.2422 66.6761C62.4726 66.4534 62.7816 66.3306 63.1021 66.3344Z" fill="#081535"/>
<path d="M82.0556 66.7616C81.7003 65.3919 81.3527 64.043 81.0007 62.6963C80.9736 62.6267 80.967 62.5508 80.9817 62.4775C80.9964 62.4043 81.0319 62.3368 81.0838 62.2831C81.5539 61.7496 81.4117 60.8205 80.8247 60.4117C80.7847 60.3764 80.7524 60.3333 80.7298 60.2849C80.7072 60.2366 80.6949 60.1841 80.6936 60.1307C80.6848 58.491 80.687 56.8426 80.687 55.1975V54.8608C80.4947 54.9033 80.3052 54.9577 80.1197 55.0237C80.0748 55.0422 80.0585 55.169 80.0574 55.2423C80.0574 56.8557 80.0574 58.4692 80.0574 60.0826C80.066 60.1569 80.0526 60.2321 80.0188 60.2988C79.9849 60.3655 79.9322 60.4207 79.8672 60.4576C79.3064 60.8227 79.2113 61.7693 79.6781 62.2984C79.7313 62.3508 79.7683 62.4175 79.7846 62.4904C79.8009 62.5633 79.7958 62.6393 79.7699 62.7094C79.4321 63.9971 79.1053 65.2881 78.7719 66.5769C78.7445 66.6796 78.7128 66.7627 78.8451 66.825C79.9196 67.3279 80.9811 67.3355 82.0556 66.7616Z" fill="#F17336"/>
<path d="M71.0164 68.703C70.9202 69.1403 70.9803 69.5097 71.2492 69.8278C71.5378 70.17 72.0341 70.1416 72.4123 69.7612C72.6814 69.5006 72.8648 69.1643 72.9381 68.797C72.9523 68.7293 72.9807 68.6462 72.9545 68.5926C72.8867 68.456 72.8189 68.2647 72.703 68.221C72.6101 68.1838 72.4156 68.2942 72.3205 68.3904C72.2143 68.5134 72.1363 68.6582 72.092 68.8145C72.0395 68.973 71.9597 69.0014 71.8143 68.9533C71.5585 68.8714 71.3006 68.7948 71.0164 68.703Z" fill="#081535"/>
<path d="M161.669 59.0465C165.2 59.0465 168.063 56.184 168.063 52.6528C168.063 49.1217 165.2 46.2592 161.669 46.2592C158.138 46.2592 155.276 49.1217 155.276 52.6528C155.276 56.184 158.138 59.0465 161.669 59.0465Z" fill="white"/>
<path d="M160.093 49.7801L162.739 51.3138L165.386 52.8463L162.735 54.3712L160.084 55.8972L160.089 52.8387L160.093 49.7801Z" fill="#081535"/>
<path d="M155.824 74.2104H136.9C136.257 74.2104 135.735 74.7322 135.735 75.3757V75.8173C135.735 76.4609 136.257 76.9826 136.9 76.9826H155.824C156.468 76.9826 156.99 76.4609 156.99 75.8173V75.3757C156.99 74.7322 156.468 74.2104 155.824 74.2104Z" fill="#0B065A"/>
<path d="M174.952 79.724H136.058C135.823 79.724 135.632 79.9148 135.632 80.1503V80.311C135.632 80.5464 135.823 80.7373 136.058 80.7373H174.952C175.187 80.7373 175.378 80.5464 175.378 80.311V80.1503C175.378 79.9148 175.187 79.724 174.952 79.724Z" fill="#F17336"/>
<path d="M165.415 83.9862H136.058C135.823 83.9862 135.632 84.1771 135.632 84.4125V84.5732C135.632 84.8087 135.823 84.9995 136.058 84.9995H165.415C165.651 84.9995 165.842 84.8087 165.842 84.5732V84.4125C165.842 84.1771 165.651 83.9862 165.415 83.9862Z" fill="#F17336"/>
<path d="M153.93 87.096H136.058C135.823 87.096 135.632 87.2869 135.632 87.5224V87.683C135.632 87.9185 135.823 88.1094 136.058 88.1094H153.93C154.165 88.1094 154.356 87.9185 154.356 87.683V87.5224C154.356 87.2869 154.165 87.096 153.93 87.096Z" fill="#F17336"/>
<path d="M163.706 90.2047H136.058C135.823 90.2047 135.632 90.3956 135.632 90.631V90.7917C135.632 91.0272 135.823 91.218 136.058 91.218H163.706C163.941 91.218 164.132 91.0272 164.132 90.7917V90.631C164.132 90.3956 163.941 90.2047 163.706 90.2047Z" fill="#F17336"/>
<path d="M157.467 93.3148H136.058C135.823 93.3148 135.632 93.5057 135.632 93.7411V93.9018C135.632 94.1373 135.823 94.3281 136.058 94.3281H157.467C157.703 94.3281 157.894 94.1373 157.894 93.9018V93.7411C157.894 93.5057 157.703 93.3148 157.467 93.3148Z" fill="#F17336"/>
<path d="M222.382 37.1644H214.447C213.742 37.1644 213.169 37.7365 213.169 38.4423V38.9265C213.169 39.6323 213.742 40.2044 214.447 40.2044H222.382C223.088 40.2044 223.66 39.6323 223.66 38.9265V38.4423C223.66 37.7365 223.088 37.1644 222.382 37.1644Z" fill="#0B065A"/>
<path d="M222.382 54.9865H214.447C213.742 54.9865 213.169 55.5586 213.169 56.2644V56.7486C213.169 57.4544 213.742 58.0265 214.447 58.0265H222.382C223.088 58.0265 223.66 57.4544 223.66 56.7486V56.2644C223.66 55.5586 223.088 54.9865 222.382 54.9865Z" fill="#0B065A"/>
<path d="M222.591 73.0176H214.656C213.95 73.0176 213.378 73.5897 213.378 74.2955V74.7797C213.378 75.4855 213.95 76.0576 214.656 76.0576H222.591C223.297 76.0576 223.869 75.4855 223.869 74.7797V74.2955C223.869 73.5897 223.297 73.0176 222.591 73.0176Z" fill="#0B065A"/>
<path d="M222.382 91.1089H214.447C213.742 91.1089 213.169 91.681 213.169 92.3867V92.871C213.169 93.5767 213.742 94.1488 214.447 94.1488H222.382C223.088 94.1488 223.66 93.5767 223.66 92.871V92.3867C223.66 91.681 223.088 91.1089 222.382 91.1089Z" fill="#0B065A"/>
<path d="M228.104 41.8933H213.654C213.386 41.8933 213.169 42.1101 213.169 42.3776V42.5612C213.169 42.8286 213.386 43.0455 213.654 43.0455H228.104C228.371 43.0455 228.588 42.8286 228.588 42.5612V42.3776C228.588 42.1101 228.371 41.8933 228.104 41.8933Z" fill="#F17336"/>
<path d="M228.104 59.557H213.654C213.386 59.557 213.169 59.7738 213.169 60.0413V60.2249C213.169 60.4924 213.386 60.7092 213.654 60.7092H228.104C228.371 60.7092 228.588 60.4924 228.588 60.2249V60.0413C228.588 59.7738 228.371 59.557 228.104 59.557Z" fill="#F17336"/>
<path d="M228.104 77.6176H213.654C213.386 77.6176 213.169 77.8344 213.169 78.1018V78.2855C213.169 78.5529 213.386 78.7697 213.654 78.7697H228.104C228.371 78.7697 228.588 78.5529 228.588 78.2855V78.1018C228.588 77.8344 228.371 77.6176 228.104 77.6176Z" fill="#F17336"/>
<path d="M228.104 95.4508H213.654C213.386 95.4508 213.169 95.6676 213.169 95.935V96.1187C213.169 96.3861 213.386 96.6029 213.654 96.6029H228.104C228.371 96.6029 228.588 96.3861 228.588 96.1187V95.935C228.588 95.6676 228.371 95.4508 228.104 95.4508Z" fill="#FDCC7B"/>
<path d="M182.854 65.3582H138.992C138.742 65.3582 138.54 65.5604 138.54 65.8097V65.9802C138.54 66.2296 138.742 66.4317 138.992 66.4317H182.854C183.104 66.4317 183.306 66.2296 183.306 65.9802V65.8097C183.306 65.5604 183.104 65.3582 182.854 65.3582Z" fill="#0B065A"/>
<path d="M240.724 28.6029H127.99V31.7992H240.724V28.6029Z" fill="#654EF9"/>
<path d="M80.6549 99.0176C78.098 94.8058 70.4549 96.9604 70.5806 101.812C70.6899 106.192 76.5567 110.499 77.698 111.297L80.5259 110.135C80.6046 109.916 80.7445 109.506 80.903 108.961C81.4004 107.246 82.0726 104.185 81.5589 101.465C81.4068 100.602 81.1006 99.7726 80.6549 99.0176Z" fill="white" stroke="black" stroke-width="0.43725" stroke-miterlimit="10" stroke-linecap="round"/>
<path d="M80.5257 110.133C80.4841 110.25 80.4601 110.312 80.4601 110.312L77.888 111.426C77.888 111.426 77.8202 111.381 77.6978 111.295L80.5257 110.133Z" stroke="black" stroke-width="0.655874" stroke-miterlimit="10" stroke-linecap="round"/>
<path d="M80.6177 110.098L80.891 110.763L80.9183 110.829L77.8521 112.088L77.8248 112.023L77.5515 111.357L77.698 111.297L80.5259 110.135L80.6177 110.098Z" fill="#F17336"/>
<path d="M78.3503 112.789L81.132 111.647L81.2425 111.916C81.2911 112.034 81.3159 112.161 81.3155 112.289C81.3151 112.416 81.2896 112.543 81.2403 112.661C81.191 112.779 81.1189 112.886 81.0282 112.976C80.9375 113.067 80.8299 113.138 80.7116 113.187L79.7318 113.589C79.6135 113.638 79.4868 113.662 79.3589 113.662C79.231 113.662 79.1044 113.636 78.9864 113.587C78.8683 113.538 78.7612 113.465 78.671 113.375C78.5808 113.284 78.5094 113.176 78.4608 113.058L78.3503 112.789Z" fill="#F17336"/>
<path d="M79.8522 110.169C79.8522 110.169 79.7134 109.8 78.2705 105.522C77.9928 104.7 77.9556 104.011 78.0518 103.456L77.9239 103.554C76.7466 104.44 75.847 104.836 75.2075 104.961C76.5193 106.77 78.3382 110.991 78.3382 110.991" stroke="black" stroke-width="0.43725" stroke-miterlimit="10" stroke-linecap="round"/>
<path d="M81.122 110.673L77.5708 112.132L77.9716 113.107L81.5228 111.649L81.122 110.673Z" fill="#F17336" stroke="black" stroke-width="0.327937" stroke-miterlimit="10" stroke-linecap="round"/>
<path d="M67.6165 92.6371L70.3657 95.6039" stroke="#081535" stroke-width="0.43725" stroke-miterlimit="10" stroke-linecap="round"/>
<path d="M62.3425 101.052L67.7447 101.786" stroke="#081535" stroke-width="0.43725" stroke-miterlimit="10" stroke-linecap="round"/>
<path d="M64.6143 106.748L68.3101 106.041" stroke="#081535" stroke-width="0.43725" stroke-miterlimit="10" stroke-linecap="round"/>
<path d="M82.655 90.2804L80.73 94.936" stroke="#081535" stroke-width="0.43725" stroke-miterlimit="10" stroke-linecap="round"/>
<path d="M89.357 95.6704L84.1177 99.4285" stroke="#081535" stroke-width="0.43725" stroke-miterlimit="10" stroke-linecap="round"/>
<path d="M115.693 171.9C116.095 170.767 116.642 169.691 117.32 168.699L115.693 171.9Z" fill="#FEF9E6"/>
<path d="M115.693 171.9C116.095 170.767 116.642 169.691 117.32 168.699" stroke="black" stroke-width="0.43725" stroke-miterlimit="10" stroke-linecap="round"/>
<path d="M68.9482 170.954C68.9482 170.954 70.7748 171.784 71.5007 175.545L68.9482 170.954Z" fill="#FEF9E6"/>
<path d="M68.9482 170.954C68.9482 170.954 70.7748 171.784 71.5007 175.545" stroke="black" stroke-width="0.43725" stroke-miterlimit="10" stroke-linecap="round"/>
<path d="M67.07 185.796C67.0995 185.707 71.2512 175.007 71.2512 175.007C71.2512 175.007 70.4675 172.295 68.948 171.103C68.948 171.103 68.0834 170.803 68.3217 173.247C68.56 175.691 65.3418 185.32 65.3418 185.32L67.07 185.796Z" fill="#E3E3E3"/>
<path d="M61.7785 185.456C61.7785 185.456 63.1537 183.078 64.3758 183.283C65.5979 183.489 68.2017 184.738 69.4042 185.032C70.6066 185.326 72.0889 185.244 72.0889 185.244C72.0889 185.244 74.0565 187.53 73.71 188.726C73.3635 189.922 70.5476 192.049 70.5476 192.049C70.5476 192.049 72.9896 193.617 72.7513 194.017C72.513 194.417 70.9192 195.213 70.9192 195.213L61.643 194.893C61.643 194.893 59.1485 192.767 59.1725 192.051C59.1966 191.335 59.8623 188.436 59.7825 187.558C59.7027 186.681 59.6327 185.589 61.7785 185.456Z" fill="white" stroke="black" stroke-width="0.43725" stroke-miterlimit="10" stroke-linecap="round"/>
<path d="M64.1672 189.241C64.1672 189.241 68.7649 192.287 69.9608 191.809C71.1567 191.33 70.4658 190.16 69.5356 189.177C68.6053 188.195 66.7437 186.307 66.7437 186.307" stroke="black" stroke-width="0.43725" stroke-miterlimit="10" stroke-linecap="round"/>
<path d="M67.3679 186.688C68.1497 186.83 68.9505 186.83 69.7323 186.688C70.9195 186.446 71.2977 186.798 71.2474 187.126C71.1971 187.454 69.6569 189.045 69.6569 189.045L67.3679 186.688Z" fill="#E3E3E3"/>
<path d="M68.2225 187.827L69.8338 189.513L65.8472 174.372C65.8472 174.372 65.798 173.921 65.5017 173.796C65.2055 173.671 64.66 173.832 64.6108 174.314L68.2225 187.827Z" fill="#081535"/>
<path d="M69.3103 191.826L69.6743 193.218L70.8002 195.404L70.8888 192.843L70.5171 191.351C70.4017 191.557 70.2185 191.717 69.9986 191.804C69.7786 191.89 69.5354 191.898 69.3103 191.826Z" fill="#081535"/>
<path d="M63.1533 194.679L65.0936 186.611C65.0936 186.611 65.439 186.283 63.8977 183.542C63.8977 183.542 63.3129 183.728 61.9301 185.695C61.9301 185.695 59.5383 185.257 59.9898 187.827C59.9898 187.827 59.1044 191.915 59.4432 192.26C59.7821 192.605 60.8304 194.351 61.7803 194.679H63.1533Z" fill="#E3E3E3"/>
<path d="M70.5396 226.479C70.5396 226.479 70.5396 243.467 97.1309 240.07C97.1309 240.07 99.7347 249.219 104.176 254.614H121.228C121.228 254.614 119.26 206.626 101.289 210.921C83.3182 215.216 70.5396 226.479 70.5396 226.479Z" fill="#654EF9" stroke="black" stroke-width="0.43725" stroke-miterlimit="10" stroke-linecap="round"/>
<path d="M97.1312 240.07C97.1312 240.07 94.4902 235.271 93.3271 225.641" stroke="black" stroke-width="0.43725" stroke-miterlimit="10" stroke-linecap="round"/>
<path d="M241.204 203.232H42.8882V208.119H241.204V203.232Z" fill="#0B065A"/>
<path d="M93.1198 226.32C93.1198 226.32 93.04 225.076 91.2123 227.426C89.3846 229.776 90.8942 235.142 87.3175 236.811C83.7408 238.481 80.9993 238.877 80.9993 238.877C80.9993 238.877 86.4835 241.46 96.6954 239.831C96.6954 239.831 95.1027 238.838 93.1198 226.32Z" fill="#5842E2"/>
<path d="M159.789 175.313C161.616 175.313 163.097 174.458 163.097 173.403C163.097 172.347 161.616 171.492 159.789 171.492C157.963 171.492 156.482 172.347 156.482 173.403C156.482 174.458 157.963 175.313 159.789 175.313Z" fill="#654EF9"/>
<path d="M78.5302 145.61C78.7728 145.536 78.8715 145.155 78.7508 144.759C78.63 144.363 78.3355 144.101 78.093 144.175C77.8504 144.249 77.7517 144.63 77.8724 145.027C77.9932 145.423 78.2877 145.684 78.5302 145.61Z" fill="black"/>
<path d="M87.3722 142.564C87.3948 142.15 87.2035 141.803 86.9449 141.789C86.6863 141.775 86.4583 142.099 86.4357 142.512C86.4131 142.926 86.6044 143.273 86.863 143.287C87.1216 143.301 87.3496 142.977 87.3722 142.564Z" fill="black"/>
<path d="M75.9729 142.368C75.9729 142.368 76.291 140.811 78.0772 141.049" stroke="black" stroke-width="0.327937" stroke-miterlimit="10" stroke-linecap="round"/>
<path d="M85.3508 139.071C85.3508 139.071 86.4942 138.148 88.37 139.124" stroke="black" stroke-width="0.327937" stroke-miterlimit="10" stroke-linecap="round"/>
<path d="M84.2807 120.854C84.2807 120.854 80.8133 126.781 82.4421 132.222" stroke="white" stroke-width="0.218625" stroke-miterlimit="10" stroke-linecap="round"/>
<path d="M80.0344 132.656C79.434 131.23 79.3498 129.638 79.7961 128.156" stroke="white" stroke-width="0.218625" stroke-miterlimit="10" stroke-linecap="round"/>
<path d="M73.7161 136.024C73.7161 136.024 72.1967 134.146 73.5368 131.345" stroke="white" stroke-width="0.218625" stroke-miterlimit="10" stroke-linecap="round"/>
<path d="M79.8257 153.339C79.8257 153.339 80.6608 156.559 80.1842 159.45" stroke="white" stroke-width="0.218625" stroke-miterlimit="10" stroke-linecap="round"/>
<path d="M99.4971 148.064C99.4971 148.064 101.166 153.1 99.7059 157.631" stroke="white" stroke-width="0.218625" stroke-miterlimit="10" stroke-linecap="round"/>
<path d="M159.85 239.533C159.85 239.533 148.785 249.815 138.134 253.034" stroke="black" stroke-width="0.218625" stroke-miterlimit="10" stroke-linecap="round"/>
<path d="M42.0649 202.964V208.119" stroke="black" stroke-width="0.43725" stroke-miterlimit="10" stroke-linecap="round"/>
<path d="M130.638 30.7773C130.956 30.7773 131.214 30.5194 131.214 30.2012C131.214 29.883 130.956 29.6251 130.638 29.6251C130.319 29.6251 130.062 29.883 130.062 30.2012C130.062 30.5194 130.319 30.7773 130.638 30.7773Z" fill="black"/>
<path d="M132.5 30.7773C132.819 30.7773 133.076 30.5194 133.076 30.2012C133.076 29.883 132.819 29.6251 132.5 29.6251C132.182 29.6251 131.924 29.883 131.924 30.2012C131.924 30.5194 132.182 30.7773 132.5 30.7773Z" fill="black"/>
<path d="M134.363 30.7773C134.681 30.7773 134.939 30.5194 134.939 30.2012C134.939 29.883 134.681 29.6251 134.363 29.6251C134.045 29.6251 133.787 29.883 133.787 30.2012C133.787 30.5194 134.045 30.7773 134.363 30.7773Z" fill="black"/>
<path d="M181.021 151.631V103.871" stroke="#4052F2" stroke-width="0.43725" stroke-miterlimit="10" stroke-linecap="round"/>
</svg>
