<svg width="20" height="40" viewBox="0 0 20 40" fill="none" xmlns="http://www.w3.org/2000/svg">
<path fill-rule="evenodd" clip-rule="evenodd" d="M0.341679 1.9496C0.341679 1.2679 0.895016 0.711139 1.57531 0.75492C6.22205 1.05397 10.6189 3.03462 13.9312 6.35074C17.5354 9.95907 19.5602 14.853 19.5602 19.956C19.5602 25.0589 17.5354 29.9529 13.9312 33.5612C10.6185 36.8778 6.22085 38.8585 1.57341 39.1571C0.894158 39.2008 0.341675 38.6449 0.341675 37.9642V36.7329C0.341675 36.7323 0.34215 36.7318 0.342737 36.7318C9.59604 36.7318 17.0973 29.2219 17.0973 19.9579C17.0973 10.6939 9.59604 3.18393 0.342737 3.18393C0.342152 3.18393 0.341678 3.18346 0.341678 3.18288L0.341679 1.9496Z" fill="#F17336"/>
</svg>
