<svg width="16" height="15" viewBox="0 0 16 15" fill="none" xmlns="http://www.w3.org/2000/svg">
<path d="M1.41504 12.9729V8.86926H5.51865" stroke="#F17336" stroke-width="1.5" stroke-linecap="round" stroke-linejoin="round"/>
<path d="M1.41504 8.86926L4.5885 11.8512C5.32356 12.5867 6.23294 13.1239 7.23178 13.4128C8.23063 13.7017 9.28638 13.7329 10.3005 13.5034C11.3147 13.274 12.2542 12.7913 13.0314 12.1006C13.8085 11.4098 14.3981 10.5334 14.7449 9.5532" stroke="#F17336" stroke-width="1.5" stroke-linecap="round" stroke-linejoin="round"/>
<path d="M14.7451 2.02859V6.1322H10.6415" stroke="#F17336" stroke-width="1.5" stroke-linecap="round" stroke-linejoin="round"/>
<path d="M14.7451 6.1322L11.5717 3.15024C10.8366 2.41481 9.92722 1.87758 8.92837 1.58866C7.92953 1.29974 6.87377 1.26856 5.85962 1.49803C4.84547 1.72749 3.90597 2.21013 3.12879 2.90089C2.35161 3.59166 1.76208 4.46804 1.41521 5.44827" stroke="#F17336" stroke-width="1.5" stroke-linecap="round" stroke-linejoin="round"/>
</svg>
