<svg width="9" height="13" viewBox="0 0 9 13" fill="none" xmlns="http://www.w3.org/2000/svg">
<path d="M8.43095 3.80895C8.43353 4.25587 8.34148 4.69827 8.16084 5.10706C8.0826 5.28301 7.9888 5.45163 7.88055 5.61089C7.65626 5.93513 7.38713 6.22592 7.0812 6.4746C7.02869 6.51864 6.97112 6.56436 6.89404 6.62363C6.79752 6.69561 6.68998 6.77097 6.56635 6.85226C6.34806 6.99345 6.13799 7.14697 5.93718 7.31206C5.8181 7.40489 5.71486 7.51642 5.6315 7.64231C5.52735 7.82436 5.47484 8.17662 5.47484 8.68977V8.77445H3.19194V8.37816C3.19194 8.06824 3.19956 7.80743 3.21395 7.58049C3.22432 7.37484 3.2458 7.16991 3.27831 6.96658C3.30065 6.78774 3.35455 6.61429 3.43749 6.45428C3.58737 6.20448 3.94895 5.86492 4.54169 5.41613C4.5671 5.3975 4.59251 5.37803 4.61876 5.35855C4.64332 5.34161 4.66701 5.32383 4.69157 5.3052C4.89691 5.15935 5.08599 4.99186 5.25554 4.8056C5.30508 4.74759 5.35089 4.6865 5.39271 4.6227L5.40373 4.60577C5.53646 4.37063 5.60152 4.10334 5.59171 3.83351C5.59235 3.76524 5.58782 3.69702 5.57817 3.62943C5.55183 3.36581 5.42946 3.12109 5.23437 2.94185C5.02268 2.74781 4.74977 2.63398 4.46295 2.62007C4.42654 2.61668 4.39268 2.61584 4.35795 2.61584C4.223 2.61508 4.08847 2.63101 3.95742 2.66325C3.71179 2.72385 3.49141 2.86011 3.32743 3.05277C3.24052 3.15537 3.16657 3.26827 3.10726 3.38894C2.90721 3.85045 2.77926 4.33995 2.7279 4.84032L2.71942 4.92923L0.570312 4.35681V3.40927C0.580484 3.37116 0.591482 3.33306 0.603348 3.2958C0.740542 2.82058 0.959144 2.37277 1.24943 1.97228C1.3735 1.80234 1.51327 1.64443 1.66688 1.50063C1.70329 1.46422 1.74311 1.42866 1.7829 1.39394C2.04149 1.16944 2.32881 0.980358 2.63729 0.831677L2.66439 0.818975C3.24871 0.548919 3.8862 0.413491 4.52984 0.422679C4.59674 0.422679 4.67549 0.423526 4.75338 0.42776C5.393 0.443975 6.02075 0.604024 6.59006 0.896027C6.8457 1.02837 7.08523 1.18976 7.30388 1.377C7.9174 1.87709 8.31245 2.59614 8.40554 3.38216C8.42252 3.52379 8.431 3.66631 8.43095 3.80895Z" fill="white"/>
<path d="M5.86716 10.7025C5.86697 10.9727 5.78668 11.2368 5.63645 11.4614C5.48622 11.6859 5.27278 11.8609 5.02311 11.9643C4.77344 12.0676 4.49876 12.0946 4.23376 12.0418C3.96876 11.989 3.72535 11.8589 3.53429 11.6678C3.34324 11.4768 3.2131 11.2334 3.16034 10.9684C3.10758 10.7034 3.13456 10.4287 3.23787 10.179C3.34118 9.92936 3.51617 9.71592 3.74075 9.56569C3.96533 9.41545 4.22941 9.33516 4.49961 9.33497C4.67934 9.33446 4.8574 9.36949 5.02355 9.43803C5.18969 9.50658 5.34065 9.60729 5.46774 9.73438C5.59483 9.86147 5.69554 10.0124 5.76409 10.1786C5.83264 10.3447 5.86767 10.5228 5.86716 10.7025Z" fill="white"/>
</svg>
